<?xml version="1.0" standalone="no"?>
<!DOCTYPE svg PUBLIC "-//W3C//DTD SVG 1.1//EN" "http://www.w3.org/Graphics/SVG/1.1/DTD/svg11.dtd" >
<svg xmlns="http://www.w3.org/2000/svg" xmlns:xlink="http://www.w3.org/1999/xlink" version="1.1">
<metadata>
Created by FontForge 20170731 at Mon Nov  2 23:07:50 2020
 By Aleksey,,,
Copyright 2015 Google Inc. All Rights Reserved.
</metadata>
<defs>
<font id="NotoSansDisplay-Light" horiz-adv-x="0" >
  <font-face 
    font-family="Noto Sans Display Light"
    font-weight="300"
    font-stretch="normal"
    units-per-em="1000"
    panose-1="2 11 5 2 4 5 4 2 2 4"
    ascent="800"
    descent="-200"
    x-height="532"
    cap-height="714"
    bbox="-619 -389 2743 1076"
    underline-thickness="50"
    underline-position="-175"
    unicode-range="U+000D-FFFD"
  />
<missing-glyph horiz-adv-x="563" 
d="M88 0v714h386v-714h-386zM136 51h290v612h-290v-612z" />
    <glyph glyph-name="f_f" unicode="ff" horiz-adv-x="587" 
d="M281 486h-119v-486h-58v486h-91v31l91 17v53q0 60 17 99.5t50.5 59t83.5 19.5q27 0 49 -4.5t40 -10.5l-13 -47q-17 6 -36.5 10t-38.5 4q-50 0 -72 -30.5t-22 -99.5v-55h119v-46zM575 486h-119v-486h-58v486h-91v31l91 17v53q0 60 17 99.5t50.5 59t83.5 19.5q27 0 49 -4.5
t40 -10.5l-13 -47q-17 6 -36.5 10t-38.5 4q-50 0 -72 -30.5t-22 -99.5v-55h119v-46z" />
    <glyph glyph-name="fi" unicode="fi" horiz-adv-x="515" 
d="M281 486h-119v-486h-58v486h-91v31l91 17v53q0 60 17 99.5t50.5 59t83.5 19.5q27 0 49 -4.5t40 -10.5l-13 -47q-17 6 -36.5 10t-38.5 4q-50 0 -72 -30.5t-22 -99.5v-55h119v-46zM433 532v-532h-57v532h57zM405 729q19 0 28.5 -11.5t9.5 -31.5q0 -21 -9.5 -32.5
t-28.5 -11.5q-18 0 -28 11.5t-10 32.5q0 20 10 31.5t28 11.5z" />
    <glyph glyph-name="fl" unicode="fl" horiz-adv-x="514" 
d="M281 486h-119v-486h-58v486h-91v31l91 17v53q0 60 17 99.5t50.5 59t83.5 19.5q27 0 49 -4.5t40 -10.5l-13 -47q-17 6 -36.5 10t-38.5 4q-50 0 -72 -30.5t-22 -99.5v-55h119v-46zM433 0h-57v760h57v-760z" />
    <glyph glyph-name="f_f_i" unicode="ffi" horiz-adv-x="808" 
d="M281 486h-119v-486h-58v486h-91v31l91 17v53q0 60 17 99.5t50.5 59t83.5 19.5q27 0 49 -4.5t40 -10.5l-13 -47q-17 6 -36.5 10t-38.5 4q-50 0 -72 -30.5t-22 -99.5v-55h119v-46zM575 486h-119v-486h-58v486h-91v31l91 17v53q0 60 17 99.5t50.5 59t83.5 19.5q27 0 49 -4.5
t40 -10.5l-13 -47q-17 6 -36.5 10t-38.5 4q-50 0 -72 -30.5t-22 -99.5v-55h119v-46zM726 532v-532h-57v532h57zM698 729q19 0 28.5 -11.5t9.5 -31.5q0 -21 -9.5 -32.5t-28.5 -11.5q-18 0 -28 11.5t-10 32.5q0 20 10 31.5t28 11.5z" />
    <glyph glyph-name="f_f_l" unicode="ffl" horiz-adv-x="808" 
d="M281 486h-119v-486h-58v486h-91v31l91 17v53q0 60 17 99.5t50.5 59t83.5 19.5q27 0 49 -4.5t40 -10.5l-13 -47q-17 6 -36.5 10t-38.5 4q-50 0 -72 -30.5t-22 -99.5v-55h119v-46zM575 486h-119v-486h-58v486h-91v31l91 17v53q0 60 17 99.5t50.5 59t83.5 19.5q27 0 49 -4.5
t40 -10.5l-13 -47q-17 6 -36.5 10t-38.5 4q-50 0 -72 -30.5t-22 -99.5v-55h119v-46zM726 0h-57v760h57v-760z" />
    <glyph glyph-name=".notdef" horiz-adv-x="563" 
d="M88 0v714h386v-714h-386zM136 51h290v612h-290v-612z" />
    <glyph glyph-name=".null" 
 />
    <glyph glyph-name="nonmarkingreturn" horiz-adv-x="333" 
 />
    <glyph glyph-name="NULL" 
 />
    <glyph glyph-name="NULL" 
 />
    <glyph glyph-name="CR" unicode="&#xd;" horiz-adv-x="244" 
 />
    <glyph glyph-name="space" unicode=" " horiz-adv-x="244" 
 />
    <glyph glyph-name="exclam" unicode="!" horiz-adv-x="233" 
d="M140 188h-47l-10 526h68zM73 39q0 24 11.5 36.5t31.5 12.5t31.5 -12.5t11.5 -36.5q0 -25 -11.5 -37.5t-31.5 -12.5t-31.5 12.5t-11.5 37.5z" />
    <glyph glyph-name="quotedbl" unicode="&#x22;" horiz-adv-x="346" 
d="M125 714l-11 -258h-38l-11 258h60zM282 714l-12 -258h-38l-11 258h61z" />
    <glyph glyph-name="numbersign" unicode="#" horiz-adv-x="607" 
d="M445 449l-33 -185h136v-46h-144l-40 -218h-47l40 218h-158l-39 -218h-47l38 218h-126v46h135l34 185h-133v45h141l39 220h48l-40 -220h159l39 220h47l-40 -220h128v-45h-137zM207 264h158l33 185h-158z" />
    <glyph glyph-name="dollar" unicode="$" horiz-adv-x="537" 
d="M238 30q-56 1 -102 9.5t-76 21.5v57q32 -15 80 -25.5t98 -11.5v260q-42 14 -75 30t-56.5 36.5t-35.5 48.5t-12 66q0 77 50 119t129 47v71h42v-71q44 -1 84 -10.5t77 -26.5l-19 -48q-35 16 -71 24.5t-71 10.5v-255q58 -20 99 -42t63.5 -54t22.5 -84q0 -77 -50 -120.5
t-135 -50.5v-90h-42v88zM280 83q60 5 94 34t34 84q0 33 -14 55t-42 38t-72 31v-242zM238 637q-56 -4 -89.5 -31.5t-33.5 -78.5q0 -36 15 -60t42.5 -40t65.5 -29v239z" />
    <glyph glyph-name="percent" unicode="%" horiz-adv-x="767" 
d="M185 724q67 0 101 -57.5t34 -165.5q0 -109 -34 -167t-102 -58q-43 0 -73 26.5t-45.5 76.5t-15.5 122q0 109 34 166t101 57zM185 681q-42 0 -63.5 -45t-21.5 -135q0 -89 21 -135t63 -46q43 0 64.5 46t21.5 135q0 88 -20.5 134t-64.5 46zM596 714l-372 -714h-52l372 714h52
zM582 438q44 0 74.5 -26t45.5 -75.5t15 -121.5q0 -109 -34.5 -167t-101.5 -58q-43 0 -73 26.5t-45.5 76.5t-15.5 122q0 109 34 166t101 57zM582 394q-42 0 -63.5 -44.5t-21.5 -134.5t21 -135.5t63 -45.5q43 0 64.5 46t21.5 135q0 88 -20.5 133.5t-64.5 45.5z" />
    <glyph glyph-name="ampersand" unicode="&#x26;" horiz-adv-x="676" 
d="M286 725q71 0 113.5 -39.5t42.5 -109.5q0 -66 -40.5 -109.5t-106.5 -80.5l202 -216q26 33 45 77.5t30 95.5h58q-14 -63 -38 -115.5t-58 -95.5l125 -132h-77l-85 95q-22 -23 -46.5 -42.5t-52.5 -33t-61 -21.5t-73 -8q-63 0 -110.5 22.5t-73.5 65.5t-26 105q0 53 19 90.5
t54 66t84 56.5q-26 29 -46.5 56t-32 56.5t-11.5 64.5q0 71 45 111.5t120 40.5zM246 359q-42 -23 -71.5 -47t-45 -54t-15.5 -74q0 -67 41.5 -104.5t109.5 -37.5t114 25t81 64zM285 677q-49 0 -78.5 -28t-29.5 -76q0 -41 21.5 -74.5t60.5 -77.5q63 34 94.5 69.5t31.5 85.5
q0 46 -27 73.5t-73 27.5z" />
    <glyph glyph-name="quotesingle" unicode="'" horiz-adv-x="189" 
d="M125 714l-11 -258h-38l-11 258h60z" />
    <glyph glyph-name="parenleft" unicode="(" horiz-adv-x="264" 
d="M39 274q0 86 15 165t46 148.5t76 126.5h57q-45 -60 -75.5 -131t-46 -148.5t-15.5 -159.5q0 -80 15.5 -156t46 -145.5t75.5 -131.5h-57q-45 58 -76 126t-46 145.5t-15 160.5z" />
    <glyph glyph-name="parenright" unicode=")" horiz-adv-x="264" 
d="M226 278q0 -84 -15.5 -162.5t-46 -147.5t-76.5 -126h-56q45 61 75.5 131.5t45.5 147.5t15 157q0 122 -34.5 233.5t-102.5 202.5h57q46 -58 76.5 -127t46 -146.5t15.5 -162.5z" />
    <glyph glyph-name="asterisk" unicode="*" horiz-adv-x="518" 
d="M288 759l-13 -199l181 62l11 -60l-178 -36l114 -160l-53 -32l-94 172l-89 -172l-55 32l113 160l-177 36l11 60l180 -62l-13 199h62z" />
    <glyph glyph-name="plus" unicode="+" horiz-adv-x="537" 
d="M292 377h195v-48h-195v-212h-48v212h-195v48h195v212h48v-212z" />
    <glyph glyph-name="comma" unicode="," horiz-adv-x="232" 
d="M160 105q-8 -36 -19.5 -77t-25 -81t-27.5 -76h-43q11 44 20.5 86t17 82.5t11.5 76.5h61z" />
    <glyph glyph-name="hyphen" unicode="-" horiz-adv-x="303" 
d="M38 244v52h228v-52h-228z" />
    <glyph glyph-name="period" unicode="." horiz-adv-x="232" 
d="M73 39q0 24 11.5 36.5t30.5 12.5q21 0 32.5 -12.5t11.5 -36.5q0 -25 -11.5 -37.5t-32.5 -12.5q-19 0 -30.5 12.5t-11.5 37.5z" />
    <glyph glyph-name="slash" unicode="/" horiz-adv-x="329" 
d="M318 714l-251 -714h-56l251 714h56z" />
    <glyph glyph-name="zero" unicode="0" horiz-adv-x="537" 
d="M485 359q0 -90 -12.5 -158.5t-38.5 -115.5t-67.5 -71t-98.5 -24q-72 0 -120 42t-72 124t-24 203q0 111 21 193t68.5 127.5t127.5 45.5q78 0 125.5 -44.5t69 -126.5t21.5 -195zM109 359q0 -107 17 -178t52 -106t90 -35q57 0 92 35t51 106t16 178q0 100 -14 170.5t-49 108
t-95 37.5t-95 -38t-50 -108.5t-15 -169.5z" />
    <glyph glyph-name="one" unicode="1" horiz-adv-x="537" 
d="M320 0h-56v531v50t1 39t1 34q-12 -13 -24.5 -23.5t-29.5 -25.5l-92 -77l-32 40l184 146h48v-714z" />
    <glyph glyph-name="two" unicode="2" horiz-adv-x="537" 
d="M477 0h-427v48l192 213q48 53 81 95t50 84.5t17 93.5q0 67 -36.5 103.5t-97.5 36.5q-44 0 -83.5 -17t-77.5 -49l-32 40q28 24 58.5 41t64.5 26t71 9q59 0 101.5 -22.5t66 -64.5t23.5 -100q0 -44 -11 -81t-32.5 -72t-50.5 -70.5t-66 -75.5l-165 -182l1 -3h353v-53z" />
    <glyph glyph-name="three" unicode="3" horiz-adv-x="537" 
d="M454 549q0 -47 -18 -83t-49.5 -59t-73.5 -31v-3q79 -11 120.5 -55t41.5 -119q0 -62 -27 -109t-81.5 -73.5t-136.5 -26.5q-56 0 -102 10.5t-85 30.5v55q39 -21 88.5 -33.5t98.5 -12.5q95 0 140 43t45 117q0 52 -24 84t-68.5 46.5t-106.5 14.5h-70v50h71q53 0 93 17.5
t63 51t23 82.5q0 64 -38 96.5t-101 32.5q-36 0 -66.5 -7.5t-58 -22t-54.5 -35.5l-29 40q26 22 57.5 38.5t69 26t80.5 9.5q96 0 147 -46.5t51 -128.5z" />
    <glyph glyph-name="four" unicode="4" horiz-adv-x="537" 
d="M523 178h-111v-178h-56v178h-335v47l332 493h59v-488h111v-52zM356 495q0 29 0.5 51t1 40t1 35t0.5 34h-3q-12 -23 -23 -43t-26 -43l-226 -339h275v265z" />
    <glyph glyph-name="five" unicode="5" horiz-adv-x="537" 
d="M259 432q68 0 117.5 -24t76.5 -70.5t27 -114.5q0 -72 -29.5 -124.5t-84.5 -80.5t-131 -28q-54 0 -97 11t-74 30v56q33 -21 78.5 -34t93.5 -13q56 0 97.5 20.5t65 60.5t23.5 97q0 78 -44 121.5t-135 43.5q-35 0 -69 -5.5t-61 -13.5l-30 21l26 329h327v-52h-277l-20 -244
q20 4 50 9t70 5z" />
    <glyph glyph-name="six" unicode="6" horiz-adv-x="537" 
d="M57 304q0 77 10.5 141.5t33 116t57.5 88t83.5 56t111.5 19.5q24 0 47 -3t40 -8v-51q-17 6 -39 9.5t-47 3.5q-59 0 -103 -21.5t-74 -63.5t-46 -104t-18 -145h4q13 26 36.5 49t59 37.5t81.5 14.5q61 0 104.5 -26t66.5 -74.5t23 -115.5q0 -71 -25 -124.5t-71 -83t-111 -29.5
q-54 0 -95.5 22t-70.5 63.5t-43.5 99.5t-14.5 129zM280 39q70 0 111 48.5t41 139.5q0 78 -36.5 123.5t-111.5 45.5q-51 0 -89 -22.5t-58.5 -55.5t-20.5 -66q0 -31 8.5 -67.5t28 -70t51 -54.5t76.5 -21z" />
    <glyph glyph-name="seven" unicode="7" horiz-adv-x="537" 
d="M148 0l276 662h-377v52h440v-42l-276 -672h-63z" />
    <glyph glyph-name="eight" unicode="8" horiz-adv-x="537" 
d="M268 724q58 0 101.5 -19.5t67.5 -56.5t24 -91q0 -43 -18 -75.5t-49.5 -57t-72.5 -44.5q48 -20 84.5 -47.5t57 -63.5t20.5 -86q0 -60 -27.5 -103t-76.5 -66.5t-112 -23.5q-67 0 -115 23t-73.5 65t-25.5 101q0 51 20 88.5t55 64.5t80 46q-36 18 -66.5 42t-48.5 57t-18 80
q0 52 25 89.5t68.5 57.5t99.5 20zM109 178q0 -63 41 -101.5t116 -38.5q49 0 85 17.5t56 49.5t20 78q0 39 -17.5 68.5t-50.5 52.5t-79 41l-21 8q-44 -18 -78 -41.5t-53 -55.5t-19 -78zM267 676q-60 0 -98 -31t-38 -90q0 -41 18 -68.5t49.5 -47t71.5 -36.5q39 18 69 38
t47.5 47.5t17.5 67.5q0 59 -36.5 89.5t-100.5 30.5z" />
    <glyph glyph-name="nine" unicode="9" horiz-adv-x="537" 
d="M480 411q0 -96 -16.5 -173.5t-52 -133t-92 -85t-135.5 -29.5q-24 0 -49.5 3t-43.5 8v52q17 -7 42 -11t50 -4q59 0 103.5 21.5t74 63.5t45.5 104.5t18 144.5h-4q-13 -26 -37 -49t-59 -37t-82 -14q-59 0 -102.5 26t-67 74t-23.5 115q0 72 25 125.5t72 83t111 29.5
q54 0 95.5 -22.5t70 -64t43 -99t14.5 -128.5zM258 675q-70 0 -111.5 -48.5t-41.5 -139.5q0 -78 36.5 -123t112.5 -45q51 0 89 22t58 55.5t20 65.5q0 31 -8.5 68t-28 70t-50.5 54t-76 21z" />
    <glyph glyph-name="colon" unicode=":" horiz-adv-x="232" 
d="M73 39q0 24 11.5 36.5t30.5 12.5q21 0 32.5 -12.5t11.5 -36.5q0 -25 -11.5 -37.5t-32.5 -12.5q-19 0 -30.5 12.5t-11.5 37.5zM73 492q0 25 11.5 37t30.5 12q21 0 32.5 -12t11.5 -37t-11.5 -37.5t-32.5 -12.5q-19 0 -30.5 12.5t-11.5 37.5z" />
    <glyph glyph-name="semicolon" unicode=";" horiz-adv-x="232" 
d="M148 105q-8 -36 -19.5 -77t-25 -81t-27.5 -76h-44q9 32 16.5 64.5t13.5 63.5t11 60.5t9 56.5h61zM72 492q0 25 11 37t31 12q22 0 33 -12t11 -37t-11 -37.5t-33 -12.5q-20 0 -31 12.5t-11 37.5z" />
    <glyph glyph-name="less" unicode="&#x3c;" horiz-adv-x="536" 
d="M487 127l-438 211v34l438 225v-52l-374 -188l374 -178v-52z" />
    <glyph glyph-name="equal" unicode="=" horiz-adv-x="537" 
d="M52 430v47h432v-47h-432zM52 228v48h432v-48h-432z" />
    <glyph glyph-name="greater" unicode="&#x3e;" horiz-adv-x="536" 
d="M49 179l374 178l-374 188v52l438 -225v-34l-438 -211v52z" />
    <glyph glyph-name="question" unicode="?" horiz-adv-x="400" 
d="M135 207q0 44 6.5 74t24 54t47.5 50q35 29 57.5 52.5t33.5 49.5t11 64q0 61 -35 91.5t-94 30.5q-41 0 -75 -10t-67 -28l-21 48q40 20 79 30.5t87 10.5q85 0 133 -44.5t48 -127.5q0 -48 -14.5 -81.5t-40.5 -60t-62 -56.5q-28 -23 -43.5 -43.5t-21.5 -45.5t-6 -63v-14h-47
v19zM118 39q0 24 11 36.5t32 12.5q20 0 31.5 -12.5t11.5 -36.5q0 -25 -11.5 -37.5t-31.5 -12.5q-21 0 -32 12.5t-11 37.5z" />
    <glyph glyph-name="at" unicode="@" horiz-adv-x="836" 
d="M784 354q0 -48 -9.5 -92.5t-28.5 -79t-48 -54.5t-69 -20q-43 0 -68.5 27t-29.5 69h-4q-17 -46 -53.5 -71t-84.5 -25q-71 0 -109 48.5t-38 133.5q0 65 24.5 115t70 79t105.5 29q38 0 73.5 -6t60.5 -16l-8 -174q-1 -18 -2 -34.5t-1 -30.5q0 -53 17.5 -76.5t49.5 -23.5
q35 0 58 26.5t35 72.5t12 104q0 96 -35.5 165.5t-100.5 107t-155 37.5q-80 0 -144 -26.5t-109 -76.5t-69 -120t-24 -158q0 -105 35 -179.5t102 -114t162 -39.5q52 0 103 12t94 30v-48q-40 -18 -89.5 -28.5t-107.5 -10.5q-108 0 -186 45.5t-119.5 130t-41.5 200.5
q0 98 27.5 177t79.5 135t124.5 86t162.5 30q102 0 178 -43t118 -123t42 -190zM294 289q0 -68 26 -102.5t76 -34.5q58 0 88 43t34 124l7 138q-17 6 -37.5 9t-44.5 3q-49 0 -82 -24t-50 -64.5t-17 -91.5z" />
    <glyph glyph-name="A" unicode="A" horiz-adv-x="575" 
d="M514 0l-88 246h-277l-89 -246h-60l263 717h55l256 -717h-60zM320 556q-3 10 -8.5 27t-11.5 36t-11 34q-7 -26 -15.5 -52.5t-15.5 -45.5l-90 -256h240z" />
    <glyph glyph-name="B" unicode="B" horiz-adv-x="596" 
d="M281 714q83 0 137 -18t80.5 -56.5t26.5 -99.5q0 -41 -15 -75t-43.5 -56.5t-71.5 -30.5v-3q49 -8 82 -29.5t50 -56.5t17 -86q0 -69 -29.5 -114t-82.5 -67t-124 -22h-214v714h187zM294 399q91 0 130.5 34t39.5 101q0 69 -43.5 99t-138.5 30h-130v-264h142zM152 349v-298
h151q91 0 135.5 39.5t44.5 115.5q0 50 -20.5 81.5t-62 46.5t-105.5 15h-143z" />
    <glyph glyph-name="C" unicode="C" horiz-adv-x="586" 
d="M379 672q-61 0 -109.5 -22.5t-82 -64t-51 -99t-17.5 -127.5q0 -96 28 -167.5t84 -110.5t139 -39q49 0 90 8.5t78 21.5v-52q-35 -14 -76.5 -22t-97.5 -8q-101 0 -169 46t-102.5 129t-34.5 194q0 80 21.5 146.5t63 115.5t101 76t136.5 27q49 0 93.5 -10t83.5 -29l-23 -51
q-35 19 -74 28.5t-81 9.5z" />
    <glyph glyph-name="D" unicode="D" horiz-adv-x="670" 
d="M612 364q0 -120 -40.5 -201t-118.5 -122t-192 -41h-167v714h188q106 0 179.5 -40t112 -117.5t38.5 -192.5zM550 362q0 101 -30.5 167.5t-92 100t-155.5 33.5h-120v-612h106q147 0 219.5 78t72.5 233z" />
    <glyph glyph-name="E" unicode="E" horiz-adv-x="521" 
d="M464 0h-370v714h370v-52h-312v-261h294v-52h-294v-297h312v-52z" />
    <glyph glyph-name="F" unicode="F" horiz-adv-x="478" 
d="M152 0h-58v714h370v-52h-312v-294h294v-52h-294v-316z" />
    <glyph glyph-name="G" unicode="G" horiz-adv-x="681" 
d="M363 364h245v-332q-50 -21 -105 -31.5t-118 -10.5q-106 0 -179 43.5t-110.5 125.5t-37.5 197q0 109 41 192t118 130t185 47q55 0 104.5 -10.5t93.5 -32.5l-23 -51q-41 21 -86 31.5t-91 10.5q-88 0 -151 -40t-96.5 -111t-33.5 -165q0 -103 31 -173.5t93 -106t153 -35.5
q32 0 59.5 3t51 9t43.5 14v243h-187v53z" />
    <glyph glyph-name="H" unicode="H" horiz-adv-x="683" 
d="M588 0h-58v348h-378v-348h-58v714h58v-314h378v314h58v-714z" />
    <glyph glyph-name="I" unicode="I" horiz-adv-x="295" 
d="M248 0h-201v36l72 11v619l-72 12v36h201v-36l-71 -12v-619l71 -11v-36z" />
    <glyph glyph-name="J" unicode="J" horiz-adv-x="240" 
d="M-9 -182q-25 0 -42.5 4t-30.5 9v52q14 -5 32.5 -8.5t38.5 -3.5q34 0 57 14.5t35 44.5t12 75v709h58v-707q0 -59 -18 -101.5t-53.5 -65t-88.5 -22.5z" />
    <glyph glyph-name="K" unicode="K" horiz-adv-x="557" 
d="M557 0h-70l-252 370l-83 -85v-285h-58v714h58v-371q19 24 39.5 47t41.5 47l245 277h71l-272 -304z" />
    <glyph glyph-name="L" unicode="L" horiz-adv-x="487" 
d="M94 0v714h58v-661h313v-53h-371z" />
    <glyph glyph-name="M" unicode="M" horiz-adv-x="823" 
d="M385 0l-237 653h-3q1 -18 2 -40.5t1.5 -47t0.5 -50.5v-515h-55v714h87l228 -625h4l230 625h86v-714h-57v521q0 22 0.5 45t1.5 45t2 41h-3l-240 -652h-48z" />
    <glyph glyph-name="N" unicode="N" horiz-adv-x="689" 
d="M595 0h-63l-385 624h-3q1 -20 2 -40.5t1.5 -42.5t1 -44.5t0.5 -45.5v-451h-55v714h63l384 -622h3q0 16 -1 36t-1.5 43t-1 46.5t-0.5 43.5v453h55v-714z" />
    <glyph glyph-name="O" unicode="O" horiz-adv-x="723" 
d="M664 358q0 -82 -19 -149t-57 -116.5t-95 -76t-132 -26.5q-76 0 -133 27t-94.5 76t-56.5 116.5t-19 149.5q0 109 34.5 191.5t103 128.5t168.5 46q97 0 164 -44.5t101.5 -126.5t34.5 -196zM119 359q0 -95 26 -166.5t80 -111t137 -39.5t136.5 39t79 110.5t25.5 166.5
q0 149 -59.5 232t-179.5 83q-83 0 -137.5 -39t-81 -110t-26.5 -165z" />
    <glyph glyph-name="P" unicode="P" horiz-adv-x="556" 
d="M263 714q123 0 182.5 -50t59.5 -152q0 -68 -27.5 -117.5t-83.5 -76t-145 -26.5h-97v-292h-58v714h169zM258 663h-106v-320h91q64 0 109 15.5t69 52t24 98.5q0 80 -45.5 117t-141.5 37z" />
    <glyph glyph-name="Q" unicode="Q" horiz-adv-x="723" 
d="M664 358q0 -91 -23.5 -165t-70.5 -123t-118 -68l148 -172h-82l-129 162q-6 -1 -13.5 -1.5t-14.5 -0.5q-76 0 -133 27t-94.5 76t-56.5 116.5t-19 149.5q0 109 34.5 191.5t103 128.5t168.5 46q97 0 164 -44.5t101.5 -126.5t34.5 -196zM119 359q0 -95 26 -166.5t80 -111
t137 -39.5t136.5 39t79 110.5t25.5 166.5q0 149 -59.5 232t-179.5 83q-83 0 -137.5 -39t-81 -110t-26.5 -165z" />
    <glyph glyph-name="R" unicode="R" horiz-adv-x="567" 
d="M263 714q81 0 135 -19.5t80.5 -62.5t26.5 -114q0 -55 -18.5 -93.5t-50.5 -63t-73 -37.5l185 -324h-69l-170 308h-157v-308h-58v714h169zM258 663h-106v-305h124q54 0 92 18.5t57.5 53.5t19.5 86q0 55 -20.5 87t-62 46t-104.5 14z" />
    <glyph glyph-name="S" unicode="S" horiz-adv-x="514" 
d="M467 186q0 -64 -30 -107.5t-82.5 -66t-120.5 -22.5q-40 0 -73.5 4.5t-60.5 11.5t-50 16v57q37 -15 84.5 -26t102.5 -11q51 0 89.5 15.5t60 47t21.5 77.5q0 43 -18.5 70t-56 47.5t-96.5 41.5q-54 21 -94.5 45.5t-62.5 62t-22 94.5q0 59 28 99t76.5 61t110.5 21
q50 0 94 -9.5t84 -28.5l-20 -50q-39 18 -79.5 27t-80.5 9q-45 0 -80 -14.5t-54.5 -43t-19.5 -70.5q0 -45 19 -73t54.5 -47t86.5 -38q59 -21 101.5 -45.5t65.5 -61t23 -93.5z" />
    <glyph glyph-name="T" unicode="T" horiz-adv-x="500" 
d="M279 0h-58v662h-215v52h488v-52h-215v-662z" />
    <glyph glyph-name="U" unicode="U" horiz-adv-x="680" 
d="M593 252q0 -81 -30 -140t-87 -90.5t-138 -31.5q-122 0 -186.5 70t-64.5 194v460h58v-460q0 -104 50 -158t146 -54q63 0 106 24.5t65.5 70.5t22.5 111v466h58v-462z" />
    <glyph glyph-name="V" unicode="V" horiz-adv-x="550" 
d="M550 714l-246 -714h-58l-246 714h61l175 -514q9 -24 15.5 -47t13 -44t10.5 -40q5 19 10.5 39.5t13 43.5t15.5 49l174 513h62z" />
    <glyph glyph-name="W" unicode="W" horiz-adv-x="848" 
d="M829 714l-182 -714h-59l-138 525q-5 18 -9.5 34.5t-8.5 32t-6.5 28l-4.5 22.5q-2 -10 -4 -22t-5 -25.5t-7 -28.5t-8 -31l-138 -535h-59l-180 714h61l120 -490q7 -27 12.5 -52t10 -47.5t8.5 -44.5q4 23 8.5 46.5t10.5 48.5t13 52l128 487h59l132 -490q8 -28 14 -53.5
t10.5 -48t8.5 -44.5q3 23 7.5 45.5t10 47t12.5 53.5l123 490h60z" />
    <glyph glyph-name="X" unicode="X" horiz-adv-x="519" 
d="M519 0h-67l-193 330l-196 -330h-63l225 371l-206 343h65l177 -302l178 302h63l-207 -342z" />
    <glyph glyph-name="Y" unicode="Y" horiz-adv-x="507" 
d="M254 332l189 382h64l-223 -438v-276h-59v272l-225 442h64z" />
    <glyph glyph-name="Z" unicode="Z" horiz-adv-x="542" 
d="M505 0h-470v43l386 619h-368v52h441v-43l-386 -618h397v-53z" />
    <glyph glyph-name="bracketleft" unicode="[" horiz-adv-x="302" 
d="M278 -158h-200v872h200v-48h-145v-775h145v-49z" />
    <glyph glyph-name="backslash" unicode="\" horiz-adv-x="329" 
d="M67 714l252 -714h-57l-251 714h56z" />
    <glyph glyph-name="bracketright" unicode="]" horiz-adv-x="302" 
d="M24 -109h146v775h-146v48h200v-872h-200v49z" />
    <glyph glyph-name="asciicircum" unicode="^" horiz-adv-x="537" 
d="M39 273l210 446h36l213 -446h-52l-179 383l-175 -383h-53z" />
    <glyph glyph-name="underscore" unicode="_" horiz-adv-x="393" 
d="M395 -135h-397v45h397v-45z" />
    <glyph glyph-name="grave" unicode="`" horiz-adv-x="258" 
d="M107 766q13 -21 32 -49t40.5 -55t38.5 -47v-9h-40q-18 16 -37.5 35.5t-38.5 40.5t-35 40.5t-27 35.5v8h67z" />
    <glyph glyph-name="a" unicode="a" horiz-adv-x="507" 
d="M261 541q85 0 127 -43.5t42 -139.5v-358h-43l-10 90h-3q-18 -30 -40.5 -52.5t-55 -35t-79.5 -12.5t-82 17.5t-54 50.5t-19 81q0 80 61 121.5t178 46.5l90 5v37q0 79 -29 111.5t-86 32.5q-38 0 -73.5 -10.5t-71.5 -29.5l-18 46q36 18 78 30t88 12zM290 265
q-94 -5 -140 -35.5t-46 -90.5q0 -49 28.5 -75t77.5 -26q77 0 120 47.5t43 131.5v52z" />
    <glyph glyph-name="b" unicode="b" horiz-adv-x="564" 
d="M138 550q0 -29 -1 -61t-2 -53h3q19 46 62 76t107 30q96 0 150 -69.5t54 -205.5q0 -84 -24 -146t-71 -96.5t-116 -34.5q-63 0 -102.5 28t-58.5 68h-4l-11 -86h-43v760h57v-210zM299 493q-57 0 -92.5 -26t-52 -76t-16.5 -124v-7q0 -107 35.5 -164t119.5 -57
q78 0 118.5 59.5t40.5 169.5q0 112 -38 168.5t-115 56.5z" />
    <glyph glyph-name="c" unicode="c" horiz-adv-x="449" 
d="M283 -10q-73 0 -124.5 32.5t-78.5 93.5t-27 147q0 90 30.5 152.5t84.5 94.5t126 32q36 0 68.5 -7t56.5 -19l-16 -49q-25 11 -54.5 17.5t-55.5 6.5q-58 0 -98.5 -27.5t-61.5 -78.5t-21 -121q0 -66 18.5 -116.5t56.5 -78.5t96 -28q38 0 70.5 8t59.5 20v-51q-25 -12 -57 -20
t-73 -8z" />
    <glyph glyph-name="d" unicode="d" horiz-adv-x="564" 
d="M261 -10q-99 0 -153.5 69t-54.5 202q0 137 56.5 209t156.5 72q42 0 73 -13.5t52.5 -36.5t34.5 -51h4q-1 23 -2.5 52t-1.5 52v215h57v-760h-46l-8 93h-3q-13 -28 -35 -51.5t-54 -37.5t-76 -14zM270 39q85 0 121 56t36 162v9q0 110 -35.5 168.5t-118.5 58.5
q-79 0 -120 -60.5t-41 -172.5q0 -108 39 -164.5t119 -56.5z" />
    <glyph glyph-name="e" unicode="e" horiz-adv-x="520" 
d="M273 542q64 0 107.5 -31.5t65.5 -86.5t22 -126v-39h-356q1 -106 46.5 -162.5t130.5 -56.5q47 0 82 8.5t76 27.5v-52q-37 -17 -74 -25.5t-86 -8.5q-75 0 -127 33t-79.5 94.5t-27.5 144.5q0 81 26 144.5t75 99.5t119 36zM273 494q-68 0 -110 -48.5t-49 -139.5h295
q0 56 -14.5 98t-45 66t-76.5 24z" />
    <glyph glyph-name="f" unicode="f" horiz-adv-x="294" 
d="M281 486h-119v-486h-58v486h-91v31l91 17v53q0 60 17 99.5t50.5 59t83.5 19.5q27 0 49 -4.5t40 -10.5l-13 -47q-17 6 -36.5 10t-38.5 4q-50 0 -72 -30.5t-22 -99.5v-55h119v-46z" />
    <glyph glyph-name="g" unicode="g" horiz-adv-x="564" 
d="M265 542q59 0 97 -24t62 -67h4l8 81h46v-549q0 -69 -22.5 -119t-70 -77t-124.5 -27q-56 0 -99.5 10t-79.5 26v55q24 -12 52.5 -21.5t61 -15t67.5 -5.5q81 0 120 46.5t39 124.5v31q0 21 0.5 42.5t1.5 40.5h-3q-21 -51 -63.5 -77.5t-102.5 -26.5q-97 0 -151.5 70.5
t-54.5 201.5q0 86 24.5 149t72 97t115.5 34zM272 493q-53 0 -88.5 -27.5t-53.5 -79t-18 -125.5q0 -108 40 -165t115 -57q45 0 76 15.5t49 43.5t26 66t8 82v35q0 68 -15 115t-49 72t-90 25z" />
    <glyph glyph-name="h" unicode="h" horiz-adv-x="562" 
d="M139 517q0 -21 -1 -39.5t-3 -37.5h4q14 30 37.5 52.5t56.5 36t74 13.5q58 0 97.5 -20.5t60 -63.5t20.5 -110v-348h-57v344q0 77 -32.5 113t-94.5 36q-54 0 -90.5 -22.5t-54 -68t-17.5 -112.5v-290h-57v760h57v-243z" />
    <glyph glyph-name="i" unicode="i" horiz-adv-x="221" 
d="M139 532v-532h-57v532h57zM111 729q19 0 28.5 -11.5t9.5 -31.5q0 -21 -9.5 -32.5t-28.5 -11.5q-18 0 -28 11.5t-10 32.5q0 20 10 31.5t28 11.5z" />
    <glyph glyph-name="j" unicode="j" horiz-adv-x="222" 
d="M17 -240q-21 0 -37.5 3.5t-28.5 7.5v49q14 -6 28.5 -8.5t31.5 -2.5q34 0 53 22t19 70v631h57v-632q0 -45 -14.5 -76.5t-42 -47.5t-66.5 -16zM74 686q0 20 10 31.5t27 11.5q19 0 29 -11.5t10 -31.5q0 -21 -10 -32.5t-29 -11.5q-17 0 -27 11.5t-10 32.5z" />
    <glyph glyph-name="k" unicode="k" horiz-adv-x="469" 
d="M138 374q0 -32 -0.5 -66.5t-1.5 -67.5h1q9 10 18.5 22.5t19.5 25.5t20 24l188 220h68l-199 -228l215 -304h-68l-186 267l-75 -82v-185h-56v760h56v-386z" />
    <glyph glyph-name="l" unicode="l" horiz-adv-x="221" 
d="M139 0h-57v760h57v-760z" />
    <glyph glyph-name="m" unicode="m" horiz-adv-x="843" 
d="M608 542q75 0 117 -44.5t42 -142.5v-355h-57v353q0 71 -29.5 105.5t-81.5 34.5q-71 0 -108.5 -44.5t-37.5 -137.5v-311h-57v353q0 48 -13.5 79t-38.5 46t-59 15q-47 0 -80 -21t-49.5 -63t-16.5 -107v-302h-57v532h46l8 -84h4q13 26 34 47.5t51 34t68 12.5q55 0 93 -25
t53 -74h4q22 47 64.5 73t100.5 26z" />
    <glyph glyph-name="n" unicode="n" horiz-adv-x="562" 
d="M309 542q85 0 130.5 -46.5t45.5 -147.5v-348h-57v344q0 77 -32.5 113t-94.5 36q-81 0 -121.5 -51t-40.5 -152v-290h-57v532h46l8 -92h4q13 30 37 53t57 36t75 13z" />
    <glyph glyph-name="o" unicode="o" horiz-adv-x="556" 
d="M503 267q0 -63 -15 -113.5t-43.5 -87t-71 -56.5t-97.5 -20q-51 0 -92.5 19.5t-70.5 56t-44.5 87.5t-15.5 114q0 86 27.5 147.5t78.5 94.5t122 33q72 0 121 -34.5t75 -96t26 -144.5zM112 267q0 -68 18 -119.5t54.5 -80t92.5 -28.5q58 0 94.5 28.5t54.5 80t18 119.5
q0 66 -17 117t-53 80t-94 29q-84 0 -126 -60t-42 -166z" />
    <glyph glyph-name="p" unicode="p" horiz-adv-x="564" 
d="M309 542q95 0 149 -68.5t54 -204.5q0 -90 -25.5 -152.5t-72 -94.5t-110.5 -32q-44 0 -76.5 14t-54 37t-34.5 51h-4q2 -25 3 -54.5t1 -54.5v-219h-57v768h46l8 -99h3q13 29 35.5 54t55.5 40t79 15zM300 493q-55 0 -90.5 -25t-53 -73.5t-17.5 -118.5v-10q0 -76 17 -126
t52 -75.5t89 -25.5q51 0 85.5 28t52.5 79.5t18 123.5q0 108 -38 165.5t-115 57.5z" />
    <glyph glyph-name="q" unicode="q" horiz-adv-x="565" 
d="M425 -4q0 21 1 50.5t3 50.5h-5q-19 -46 -61.5 -76.5t-108.5 -30.5q-94 0 -148 69.5t-54 205.5q0 84 24.5 146t71.5 96.5t115 34.5q63 0 103 -28.5t59 -69.5h3l8 88h46v-768h-57v232zM264 39q57 0 92.5 25t52.5 74t17 119v14q0 109 -36.5 165.5t-119.5 56.5
q-79 0 -119 -61t-40 -168q0 -109 38 -167t115 -58z" />
    <glyph glyph-name="r" unicode="r" horiz-adv-x="373" 
d="M291 541q18 0 35.5 -2t31.5 -6l-8 -53q-15 4 -30 6.5t-32 2.5q-34 0 -61.5 -14t-47 -40t-30 -62t-10.5 -81v-292h-57v532h48l6 -99h3q13 30 34 54.5t51 39t67 14.5z" />
    <glyph glyph-name="s" unicode="s" horiz-adv-x="442" 
d="M399 141q0 -48 -23 -81.5t-66 -51.5t-106 -18q-52 0 -92.5 10t-68.5 24v55q34 -17 76.5 -29t85.5 -12q73 0 105.5 27t32.5 72q0 30 -15.5 49.5t-45.5 35t-76 31.5q-46 17 -81 34.5t-55 44.5t-20 74q0 65 49.5 100.5t131.5 35.5q45 0 84.5 -9t72.5 -24l-20 -47
q-19 9 -42.5 16.5t-48 11.5t-48.5 4q-58 0 -90.5 -22t-32.5 -64q0 -31 15.5 -50t45.5 -32t73 -29q45 -17 81 -35t57 -46t21 -75z" />
    <glyph glyph-name="t" unicode="t" horiz-adv-x="324" 
d="M227 39q21 0 40 3.5t33 8.5v-46q-15 -6 -36 -10.5t-45 -4.5q-42 0 -71.5 16.5t-45 51.5t-15.5 90v338h-74v32l74 19l20 122h37v-127h153v-46h-153v-335q0 -55 20 -83.5t63 -28.5z" />
    <glyph glyph-name="u" unicode="u" horiz-adv-x="562" 
d="M479 532v-532h-46l-8 91h-3q-14 -29 -38 -52t-56.5 -36t-75.5 -13q-58 0 -97.5 21.5t-59 64.5t-19.5 108v348h57v-343q0 -76 32 -113t95 -37q55 0 90.5 23t53.5 68t18 112v290h57z" />
    <glyph glyph-name="v" unicode="v" horiz-adv-x="445" 
d="M192 0l-192 532h61l123 -353q8 -21 15 -43t12.5 -42t9.5 -37h3q4 17 10 37t13.5 42t14.5 43l123 353h60l-192 -532h-61z" />
    <glyph glyph-name="w" unicode="w" horiz-adv-x="696" 
d="M384 346q-9 33 -17.5 63t-13.5 55h-3q-6 -25 -13.5 -55.5t-17.5 -63.5l-104 -345h-61l-141 532h60l83 -328q7 -30 13 -54.5t10.5 -45t6.5 -38.5h3q4 17 8.5 36.5t10.5 43t14 50.5l101 336h60l97 -336q7 -24 13 -47t11.5 -44t8.5 -38h2q3 24 11 58t19 79l81 328h58
l-137 -532h-63z" />
    <glyph glyph-name="x" unicode="x" horiz-adv-x="477" 
d="M202 273l-174 259h67l142 -220l142 220h66l-173 -259l183 -273h-66l-152 234l-152 -234h-65z" />
    <glyph glyph-name="y" unicode="y" horiz-adv-x="445" 
d="M1 532h61l117 -330q11 -30 19.5 -55t15 -46.5t9.5 -39.5h3q6 24 17.5 60t25.5 79l115 332h62l-225 -626q-17 -47 -38 -80t-50 -50t-69 -17q-18 0 -32.5 2.5t-27.5 6.5v48q12 -4 25 -6.5t28 -2.5q27 0 46.5 11.5t34.5 35t28 59.5l31 89z" />
    <glyph glyph-name="z" unicode="z" horiz-adv-x="436" 
d="M398 0h-361v38l291 448h-270v46h338v-40l-290 -445h292v-47z" />
    <glyph glyph-name="braceleft" unicode="{" horiz-adv-x="339" 
d="M307 -158q-55 1 -93.5 16t-58 48t-19.5 83v159q0 38 -12 61.5t-36.5 34t-62.5 10.5v49q38 0 62.5 10.5t36.5 34t12 60.5v160q0 38 11 65.5t33 45.5t54 26.5t73 8.5v-48q-38 -1 -63.5 -11t-38.5 -32.5t-13 -61.5v-157q0 -51 -21.5 -82.5t-69.5 -40.5v-4q48 -9 69.5 -41
t21.5 -83v-159q0 -38 12.5 -60.5t38 -32.5t64.5 -10v-49z" />
    <glyph glyph-name="bar" unicode="|" horiz-adv-x="511" 
d="M230 762h49v-1008h-49v1008z" />
    <glyph glyph-name="braceright" unicode="}" horiz-adv-x="339" 
d="M33 -109q38 0 63.5 10t38.5 32.5t13 60.5v159q0 51 21.5 82.5t69.5 40.5v4q-48 9 -69.5 41t-21.5 83v157q0 40 -13 62.5t-38 32.5t-64 10v48q42 0 73.5 -8.5t53.5 -26.5t33 -46t11 -66v-158q0 -38 12 -61.5t36.5 -34t61.5 -10.5v-49q-37 0 -61.5 -10.5t-36.5 -33.5
t-12 -61v-160q0 -51 -20.5 -83.5t-58.5 -48t-92 -15.5v49z" />
    <glyph glyph-name="asciitilde" unicode="~" horiz-adv-x="536" 
d="M259 331q-30 15 -52.5 22t-48.5 7q-27 0 -55.5 -15t-53.5 -42v54q22 24 50.5 37.5t61.5 13.5t59 -8t61 -25q31 -14 52.5 -21.5t45.5 -7.5q27 0 55 14.5t53 42.5v-53q-20 -23 -48 -37.5t-62 -14.5q-31 0 -56.5 8t-61.5 25z" />
    <glyph glyph-name="uni00A0" unicode="&#xa0;" horiz-adv-x="244" 
 />
    <glyph glyph-name="exclamdown" unicode="&#xa1;" horiz-adv-x="233" 
d="M93 342h47l9 -526h-68zM159 492q0 -25 -11.5 -37t-30.5 -12q-21 0 -32.5 12t-11.5 37q0 24 11.5 36.5t32.5 12.5q19 0 30.5 -12.5t11.5 -36.5z" />
    <glyph glyph-name="cent" unicode="&#xa2;" horiz-adv-x="537" 
d="M325 641q37 0 68 -7t57 -19l-16 -49q-27 12 -56.5 18.5t-55.5 6.5q-59 0 -99.5 -27.5t-61 -78.5t-20.5 -123q0 -68 18.5 -118t56.5 -77t97 -27q37 0 69 7.5t61 20.5v-51q-24 -12 -53 -19.5t-65 -8.5v-99h-45v100q-64 7 -108.5 40t-67 91.5t-22.5 140.5q0 83 24.5 141.5
t69 92.5t104.5 42v86h45v-83z" />
    <glyph glyph-name="sterling" unicode="&#xa3;" horiz-adv-x="537" 
d="M319 723q48 0 85.5 -10t67.5 -25l-19 -47q-30 14 -62 23.5t-71 9.5q-62 0 -93 -37.5t-31 -117.5v-146h188v-45h-188v-126q0 -43 -9.5 -72.5t-25 -47.5t-35.5 -29h370v-53h-461v49q33 7 56 25t35.5 49.5t12.5 77.5v127h-95v45h95v152q0 65 21.5 109t62.5 66.5t96 22.5z
" />
    <glyph glyph-name="currency" unicode="&#xa4;" horiz-adv-x="538" 
d="M83 354q0 33 10 64.5t29 57.5l-67 73l32 31l66 -71q25 22 54.5 32.5t60.5 10.5q32 0 61 -10.5t53 -32.5l68 71l31 -32l-66 -72q18 -25 29 -57t11 -65q0 -34 -10.5 -65.5t-29.5 -57.5l66 -72l-31 -32l-68 71q-24 -20 -53 -31t-61 -11q-31 0 -61 11t-54 32l-66 -71l-32 31
l67 72q-19 26 -29 57.5t-10 65.5zM126 354q0 -44 19.5 -78.5t51.5 -55t71 -20.5q40 0 72 21t51.5 56t19.5 77q0 43 -19.5 78t-51.5 56t-71 21t-71.5 -21t-52 -56t-19.5 -78z" />
    <glyph glyph-name="yen" unicode="&#xa5;" horiz-adv-x="537" 
d="M269 351l188 363h61l-205 -383h135v-44h-152v-97h152v-44h-152v-146h-56v146h-152v44h152v97h-152v44h134l-204 383h62z" />
    <glyph glyph-name="brokenbar" unicode="&#xa6;" horiz-adv-x="511" 
d="M230 762h49v-375h-49v375zM230 129h49v-375h-49v375z" />
    <glyph glyph-name="section" unicode="&#xa7;" horiz-adv-x="484" 
d="M70 395q0 50 25.5 80.5t61.5 46.5q-38 18 -60.5 43.5t-22.5 69.5q0 59 46.5 93t128.5 34q48 0 84.5 -8.5t68.5 -22.5l-18 -46q-29 14 -63 22.5t-75 8.5q-60 0 -89.5 -20.5t-29.5 -59.5q0 -26 15 -42.5t43.5 -29.5t70.5 -29q44 -16 79.5 -34.5t56 -46t20.5 -72.5
q0 -33 -10.5 -58.5t-28 -44.5t-39.5 -32q34 -17 54.5 -43t20.5 -67q0 -65 -49.5 -102.5t-142.5 -37.5q-51 0 -91 9.5t-68 23.5v52q23 -11 49 -20t54.5 -14t56.5 -5q75 0 106 26t31 64q0 27 -14 45t-43 32.5t-75 30.5q-45 17 -80 35t-54 46t-19 73zM119 400q0 -31 15.5 -51.5
t45.5 -35.5t73 -32l37 -14q30 16 51 43t21 66q0 31 -16 52.5t-50 39t-90 33.5q-35 -10 -61 -35t-26 -66z" />
    <glyph glyph-name="dieresis" unicode="&#xa8;" horiz-adv-x="544" 
d="M149 680q0 19 9.5 29.5t25.5 10.5t25 -10.5t9 -29.5t-9 -30t-25 -11t-25.5 11t-9.5 30zM325 680q0 19 9 29.5t25 10.5q17 0 26 -10.5t9 -29.5t-9 -30t-26 -11q-16 0 -25 11t-9 30z" />
    <glyph glyph-name="copyright" unicode="&#xa9;" horiz-adv-x="782" 
d="M412 531q-65 0 -104 -46.5t-39 -127.5q0 -85 37 -129.5t103 -44.5q27 0 52.5 5.5t51.5 16.5v-44q-24 -10 -48.5 -16.5t-57.5 -6.5q-90 0 -139.5 57.5t-49.5 161.5q0 65 23.5 114.5t67 77t102.5 27.5q35 0 63.5 -7.5t53.5 -20.5l-19 -42q-23 12 -46.5 18.5t-50.5 6.5z
M47 357q0 77 26.5 143.5t74.5 116.5t110 78t133 28q74 0 136.5 -29t109.5 -80t73 -117t26 -140q0 -75 -27 -141.5t-74.5 -117t-109.5 -79t-134 -28.5q-73 0 -136 28.5t-109.5 79t-72.5 117t-26 141.5zM85 357q0 -67 23 -126t64 -104t97 -71t122 -26q65 0 121 26t97.5 71.5
t65 104.5t23.5 125q0 67 -23.5 126t-65 104.5t-97.5 71t-121 25.5q-64 0 -119.5 -25.5t-97.5 -70t-65.5 -104t-23.5 -127.5z" />
    <glyph glyph-name="ordfeminine" unicode="&#xaa;" horiz-adv-x="321" 
d="M164 722q54 0 81.5 -26.5t27.5 -79.5v-220h-34l-8 44q-15 -21 -40 -35t-60 -14q-30 0 -52 10t-33.5 31t-11.5 52q0 33 16 55t49 33.5t83 13.5l48 2v27q0 37 -19 53t-50 16q-24 0 -46.5 -7t-45.5 -19l-15 37q15 8 33 14t37.5 9.5t39.5 3.5zM185 551q-58 -2 -82 -18
t-24 -49q0 -28 15.5 -41.5t43.5 -13.5q47 0 69.5 25.5t22.5 69.5v29z" />
    <glyph glyph-name="guillemotleft" unicode="&#xab;" horiz-adv-x="429" 
d="M32 278l151 194l40 -24l-130 -176l130 -176l-40 -24l-151 193v13zM207 278l152 194l39 -24l-130 -176l130 -176l-39 -24l-152 193v13z" />
    <glyph glyph-name="logicalnot" unicode="&#xac;" horiz-adv-x="537" 
d="M479 377v-247h-47v199h-383v48h430z" />
    <glyph glyph-name="uni00AD" unicode="&#xad;" horiz-adv-x="322" 
d="M38 244v52h228v-52h-228z" />
    <glyph glyph-name="registered" unicode="&#xae;" horiz-adv-x="782" 
d="M384 360q42 0 68.5 22t26.5 65t-25 62t-69 19h-66v-168h65zM527 448q0 -48 -23.5 -76.5t-56.5 -40.5l109 -190h-57l-98 177h-81v-177h-49v431h116q68 0 104 -30t36 -94zM47 357q0 77 26.5 143.5t74.5 116.5t110 78t133 28q74 0 136.5 -29t109.5 -80t73 -117t26 -140
q0 -75 -27 -141.5t-74.5 -117t-109.5 -79t-134 -28.5q-73 0 -136 28.5t-109.5 79t-72.5 117t-26 141.5zM85 357q0 -67 23 -126t64 -104t97 -71t122 -26q65 0 121 26t97.5 71.5t65 104.5t23.5 125q0 67 -23.5 126t-65 104.5t-97.5 71t-121 25.5q-64 0 -119.5 -25.5t-97.5 -70
t-65.5 -104t-23.5 -127.5z" />
    <glyph glyph-name="overscore" unicode="&#xaf;" horiz-adv-x="470" 
d="M473 760h-476v46h476v-46z" />
    <glyph glyph-name="degree" unicode="&#xb0;" horiz-adv-x="402" 
d="M62 577q0 42 18.5 75t50.5 52.5t70 19.5t70 -19.5t51 -53t19 -74.5q0 -42 -19 -76t-51 -53t-70 -19t-69.5 19t-50.5 53t-19 76zM104 577q0 -44 28 -75t69 -31q27 0 49.5 14.5t35.5 38t13 52.5q0 45 -28.5 75.5t-69.5 30.5t-69 -30.5t-28 -74.5z" />
    <glyph glyph-name="plusminus" unicode="&#xb1;" horiz-adv-x="537" 
d="M49 0v48h438v-48h-438zM292 378h195v-47h-195v-212h-48v212h-195v47h195v213h48v-213z" />
    <glyph glyph-name="uni00B2" unicode="&#xb2;" horiz-adv-x="321" 
d="M290 416h-266v38l112 119q36 38 57.5 64.5t32 49.5t10.5 49q0 36 -20 56.5t-57 20.5q-28 0 -52 -11t-49 -31l-24 33q27 24 58 37t68 13q58 0 91.5 -31.5t33.5 -84.5q0 -34 -13.5 -62t-39 -57.5t-61.5 -67.5l-86 -91h205v-44z" />
    <glyph glyph-name="uni00B3" unicode="&#xb3;" horiz-adv-x="321" 
d="M159 852q59 0 92 -29t33 -78q0 -41 -20 -67t-50 -35v-3q38 -8 59.5 -33.5t21.5 -67.5q0 -59 -39 -94t-115 -35q-34 0 -64 7t-56 20v45q30 -14 60.5 -22.5t60.5 -8.5q52 0 78 24t26 65t-27 60t-80 19h-58v40h58q48 0 72.5 22t24.5 60q0 34 -21 52t-56 18q-32 0 -58 -10.5
t-52 -27.5l-23 34q27 21 59 33t74 12z" />
    <glyph glyph-name="acute" unicode="&#xb4;" horiz-adv-x="258" 
d="M218 758q-11 -16 -27 -35.5t-35 -40.5t-39 -40.5t-38 -35.5h-39v9q18 20 39 47t40 55t31 49h68v-8z" />
    <glyph glyph-name="uni00B5" unicode="&#xb5;" horiz-adv-x="567" 
d="M485 532v-532h-46l-9 83h-4q-13 -27 -33.5 -48t-50.5 -33t-73 -12q-49 0 -81 17.5t-49 45.5h-3q1 -12 1.5 -28.5t0.5 -35.5v-40v-189h-56v772h56v-344q0 -74 33 -111.5t100 -37.5q59 0 93 24t49 69.5t15 109.5v290h57z" />
    <glyph glyph-name="paragraph" unicode="&#xb6;" horiz-adv-x="616" 
d="M503 -127h-41v847h-110v-847h-40v441q-15 -4 -31.5 -6.5t-35.5 -2.5q-55 0 -94 25.5t-60 76.5t-21 126q0 80 22.5 130t65 73.5t101.5 23.5h244v-887z" />
    <glyph glyph-name="periodcentered" unicode="&#xb7;" horiz-adv-x="244" 
d="M73 334q0 24 11.5 36.5t30.5 12.5q21 0 32.5 -12.5t11.5 -36.5q0 -25 -11.5 -37.5t-32.5 -12.5q-19 0 -30.5 12.5t-11.5 37.5z" />
    <glyph glyph-name="cedilla" unicode="&#xb8;" horiz-adv-x="197" 
d="M185 -142q0 -30 -14.5 -52t-42 -34t-66.5 -12q-16 0 -29 1.5t-22 4.5v39q10 -3 23.5 -4t28.5 -1q34 0 54.5 13.5t20.5 43.5q0 29 -24 42t-67 16l41 85h40l-26 -59q24 -3 43 -13t29.5 -27.5t10.5 -42.5z" />
    <glyph glyph-name="uni00B9" unicode="&#xb9;" horiz-adv-x="321" 
d="M207 844v-428h-49v278q0 18 0.5 36t1 35t0.5 33q-12 -10 -25 -19.5t-30 -20.5l-47 -32l-23 36l126 82h46z" />
    <glyph glyph-name="ordmasculine" unicode="&#xba;" horiz-adv-x="344" 
d="M314 557q0 -76 -37.5 -122t-104.5 -46q-64 0 -101.5 45.5t-37.5 122.5q0 79 38 123t103 44q45 0 76 -21t47.5 -58.5t16.5 -87.5zM77 557q0 -60 23.5 -94.5t71.5 -34.5q50 0 73.5 35t23.5 94q0 58 -22.5 93t-72.5 35q-48 0 -72.5 -33t-24.5 -95z" />
    <glyph glyph-name="guillemotright" unicode="&#xbb;" horiz-adv-x="429" 
d="M398 266l-153 -194l-39 24l130 176l-130 176l39 24l153 -193v-13zM222 266l-151 -194l-40 24l130 176l-130 176l40 24l151 -193v-13z" />
    <glyph glyph-name="onequarter" unicode="&#xbc;" horiz-adv-x="683" 
d="M129 0l380 714h51l-380 -714h-51zM147 564v36t0.5 35t1.5 33q-13 -10 -25.5 -19.5t-29.5 -20.5l-48 -32l-22 36l125 82h46v-428h-48v278zM561 0v114h-187v35l187 282h50v-275h63v-42h-63v-114h-50zM424 156h137v128q0 23 0.5 47t1.5 45q-7 -13 -17 -30.5t-21 -33.5z" />
    <glyph glyph-name="onehalf" unicode="&#xbd;" horiz-adv-x="716" 
d="M116 0l379 714h51l-380 -714h-50zM141 564v27.5t0.5 26.5l1 26t0.5 24q-12 -10 -25 -19.5t-30 -20.5l-47 -32l-23 36l126 82h46v-428h-49v278zM420 0l1 38l111 119q36 38 58 64.5t32 49.5t10 49q0 36 -20 56.5t-57 20.5q-28 0 -52 -11t-49 -31l-24 33q27 24 58 37t68 13
q58 0 91.5 -31.5t33.5 -84.5q0 -34 -13.5 -62t-39 -57.5t-61.5 -67.5l-86 -91h205v-44h-266z" />
    <glyph glyph-name="threequarters" unicode="&#xbe;" horiz-adv-x="726" 
d="M177 0l380 714h51l-380 -714h-51zM141 280q-34 0 -64 7t-57 20v45q31 -14 61 -22.5t60 -8.5q52 0 78.5 24t26.5 65t-27.5 60t-79.5 19h-59v40h58q49 0 73 22t24 60q0 34 -21 52t-56 18q-31 0 -57.5 -10.5t-52.5 -27.5l-23 34q28 21 60 33t73 12q60 0 93 -29t33 -78
q0 -41 -20 -67t-50 -35v-3q37 -8 58.5 -33.5t21.5 -67.5q0 -59 -39 -94t-114 -35zM605 0v114h-187v35l187 282h50v-275h63v-42h-63v-114h-50zM468 156h137v128q0 23 0.5 47t1.5 45q-7 -13 -17.5 -30.5t-20.5 -33.5z" />
    <glyph glyph-name="questiondown" unicode="&#xbf;" horiz-adv-x="424" 
d="M289 325q0 -44 -6.5 -74t-24 -54t-47.5 -50q-35 -29 -57.5 -52.5t-33.5 -49.5t-11 -64q0 -61 35 -91.5t94 -30.5q41 0 75 10t67 28l21 -48q-40 -20 -79 -30.5t-87 -10.5q-85 0 -133 44.5t-48 127.5q0 48 14.5 81.5t40.5 60t62 56.5q28 23 43.5 43.5t21.5 45.5t6 63v14h47
v-19zM306 493q0 -24 -11 -36.5t-32 -12.5q-20 0 -31.5 12.5t-11.5 36.5q0 25 11.5 37.5t31.5 12.5q21 0 32 -12.5t11 -37.5z" />
    <glyph glyph-name="Agrave" unicode="&#xc0;" horiz-adv-x="575" 
d="M514 0l-88 246h-277l-89 -246h-60l263 717h55l256 -717h-60zM320 556q-3 10 -8.5 27t-11.5 36t-11 34q-7 -26 -15.5 -52.5t-15.5 -45.5l-90 -256h240zM237 948q13 -21 32 -49t40.5 -55t38.5 -47v-9h-40q-18 16 -37.5 35.5t-38.5 40.5t-35 40.5t-27 35.5v8h67z" />
    <glyph glyph-name="Aacute" unicode="&#xc1;" horiz-adv-x="575" 
d="M514 0l-88 246h-277l-89 -246h-60l263 717h55l256 -717h-60zM320 556q-3 10 -8.5 27t-11.5 36t-11 34q-7 -26 -15.5 -52.5t-15.5 -45.5l-90 -256h240zM421 940q-11 -16 -27 -35.5t-35 -40.5t-39 -40.5t-38 -35.5h-39v9q18 20 39 47t40 55t31 49h68v-8z" />
    <glyph glyph-name="Acircumflex" unicode="&#xc2;" horiz-adv-x="575" 
d="M514 0l-88 246h-277l-89 -246h-60l263 717h55l256 -717h-60zM320 556q-3 10 -8.5 27t-11.5 36t-11 34q-7 -26 -15.5 -52.5t-15.5 -45.5l-90 -256h240zM316 947q12 -21 31.5 -48.5t41.5 -54.5t40 -47v-9h-42q-25 22 -51 51t-49 57q-23 -28 -49 -56.5t-52 -51.5h-40v9
q18 20 39.5 47t41.5 54.5t32 48.5h57z" />
    <glyph glyph-name="Atilde" unicode="&#xc3;" horiz-adv-x="575" 
d="M514 0l-88 246h-277l-89 -246h-60l263 717h55l256 -717h-60zM320 556q-3 10 -8.5 27t-11.5 36t-11 34q-7 -26 -15.5 -52.5t-15.5 -45.5l-90 -256h240zM452 908q-5 -54 -30 -84t-65 -30q-22 0 -40 10t-34.5 23t-32.5 23t-34 10q-20 0 -34.5 -14.5t-19.5 -51.5h-38
q3 28 10.5 49t19.5 35t28.5 21.5t36.5 7.5q22 0 40.5 -10t35 -23t32 -23t32.5 -10q21 0 36 14.5t20 52.5h37z" />
    <glyph glyph-name="Adieresis" unicode="&#xc4;" horiz-adv-x="575" 
d="M514 0l-88 246h-277l-89 -246h-60l263 717h55l256 -717h-60zM320 556q-3 10 -8.5 27t-11.5 36t-11 34q-7 -26 -15.5 -52.5t-15.5 -45.5l-90 -256h240zM165 862q0 19 9.5 29.5t25.5 10.5t25 -10.5t9 -29.5t-9 -30t-25 -11t-25.5 11t-9.5 30zM341 862q0 19 9 29.5t25 10.5
q17 0 26 -10.5t9 -29.5t-9 -30t-26 -11q-16 0 -25 11t-9 30z" />
    <glyph glyph-name="Aring" unicode="&#xc5;" horiz-adv-x="575" 
d="M514 0l-88 246h-277l-89 -246h-60l263 717h55l256 -717h-60zM320 556q-3 10 -8.5 27t-11.5 36t-11 34q-7 -26 -15.5 -52.5t-15.5 -45.5l-90 -256h240zM287 682q-42 0 -70.5 27.5t-28.5 75.5q0 46 28.5 74t70.5 28t71.5 -28.5t29.5 -73.5q0 -47 -29 -75t-72 -28zM287 719
q28 0 45 18.5t17 47.5t-18 47.5t-44 18.5t-43.5 -18.5t-17.5 -47.5t16.5 -47.5t44.5 -18.5z" />
    <glyph glyph-name="AE" unicode="&#xc6;" horiz-adv-x="778" 
d="M743 0h-358v246h-221l-103 -246h-62l304 714h440v-52h-300v-261h281v-52h-281v-297h300v-52zM187 298h198v364h-47z" />
    <glyph glyph-name="Ccedilla" unicode="&#xc7;" horiz-adv-x="586" 
d="M379 672q-61 0 -109.5 -22.5t-82 -64t-51 -99t-17.5 -127.5q0 -96 28 -167.5t84 -110.5t139 -39q49 0 90 8.5t78 21.5v-52q-35 -14 -76.5 -22t-97.5 -8q-101 0 -169 46t-102.5 129t-34.5 194q0 80 21.5 146.5t63 115.5t101 76t136.5 27q49 0 93.5 -10t83.5 -29l-23 -51
q-35 19 -74 28.5t-81 9.5zM445 -142q0 -30 -14.5 -52t-42 -34t-66.5 -12q-16 0 -29 1.5t-22 4.5v39q10 -3 23.5 -4t28.5 -1q34 0 54.5 13.5t20.5 43.5q0 29 -24 42t-67 16l41 85h40l-26 -59q24 -3 43 -13t29.5 -27.5t10.5 -42.5z" />
    <glyph glyph-name="Egrave" unicode="&#xc8;" horiz-adv-x="521" 
d="M464 0h-370v714h370v-52h-312v-261h294v-52h-294v-297h312v-52zM237 948q13 -21 32 -49t40.5 -55t38.5 -47v-9h-40q-18 16 -37.5 35.5t-38.5 40.5t-35 40.5t-27 35.5v8h67z" />
    <glyph glyph-name="Eacute" unicode="&#xc9;" horiz-adv-x="521" 
d="M464 0h-370v714h370v-52h-312v-261h294v-52h-294v-297h312v-52zM421 940q-11 -16 -27 -35.5t-35 -40.5t-39 -40.5t-38 -35.5h-39v9q18 20 39 47t40 55t31 49h68v-8z" />
    <glyph glyph-name="Ecircumflex" unicode="&#xca;" horiz-adv-x="521" 
d="M464 0h-370v714h370v-52h-312v-261h294v-52h-294v-297h312v-52zM316 947q12 -21 31.5 -48.5t41.5 -54.5t40 -47v-9h-42q-25 22 -51 51t-49 57q-23 -28 -49 -56.5t-52 -51.5h-40v9q18 20 39.5 47t41.5 54.5t32 48.5h57z" />
    <glyph glyph-name="Edieresis" unicode="&#xcb;" horiz-adv-x="521" 
d="M464 0h-370v714h370v-52h-312v-261h294v-52h-294v-297h312v-52zM165 862q0 19 9.5 29.5t25.5 10.5t25 -10.5t9 -29.5t-9 -30t-25 -11t-25.5 11t-9.5 30zM341 862q0 19 9 29.5t25 10.5q17 0 26 -10.5t9 -29.5t-9 -30t-26 -11q-16 0 -25 11t-9 30z" />
    <glyph glyph-name="Igrave" unicode="&#xcc;" horiz-adv-x="295" 
d="M248 0h-201v36l72 11v619l-72 12v36h201v-36l-71 -12v-619l71 -11v-36zM98 948q13 -21 32 -49t40.5 -55t38.5 -47v-9h-40q-18 16 -37.5 35.5t-38.5 40.5t-35 40.5t-27 35.5v8h67z" />
    <glyph glyph-name="Iacute" unicode="&#xcd;" horiz-adv-x="295" 
d="M248 0h-201v36l72 11v619l-72 12v36h201v-36l-71 -12v-619l71 -11v-36zM282 940q-11 -16 -27 -35.5t-35 -40.5t-39 -40.5t-38 -35.5h-39v9q18 20 39 47t40 55t31 49h68v-8z" />
    <glyph glyph-name="Icircumflex" unicode="&#xce;" horiz-adv-x="295" 
d="M248 0h-201v36l72 11v619l-72 12v36h201v-36l-71 -12v-619l71 -11v-36zM177 947q12 -21 31.5 -48.5t41.5 -54.5t40 -47v-9h-42q-25 22 -51 51t-49 57q-23 -28 -49 -56.5t-52 -51.5h-40v9q18 20 39.5 47t41.5 54.5t32 48.5h57z" />
    <glyph glyph-name="Idieresis" unicode="&#xcf;" horiz-adv-x="295" 
d="M248 0h-201v36l72 11v619l-72 12v36h201v-36l-71 -12v-619l71 -11v-36zM26 862q0 19 9.5 29.5t25.5 10.5t25 -10.5t9 -29.5t-9 -30t-25 -11t-25.5 11t-9.5 30zM202 862q0 19 9 29.5t25 10.5q17 0 26 -10.5t9 -29.5t-9 -30t-26 -11q-16 0 -25 11t-9 30z" />
    <glyph glyph-name="Eth" unicode="&#xd0;" horiz-adv-x="670" 
d="M282 714q106 0 179.5 -40t112 -117.5t38.5 -192.5q0 -120 -40.5 -201t-118.5 -122t-192 -41h-164v329h-74v51h74v334h185zM272 663h-116v-283h177v-51h-177v-278h102q147 0 219.5 78t72.5 233q0 151 -69 226t-209 75z" />
    <glyph glyph-name="Ntilde" unicode="&#xd1;" horiz-adv-x="689" 
d="M595 0h-63l-385 624h-3q1 -20 2 -40.5t1.5 -42.5t1 -44.5t0.5 -45.5v-451h-55v714h63l384 -622h3q0 16 -1 36t-1.5 43t-1 46.5t-0.5 43.5v453h55v-714zM509 908q-5 -54 -30 -84t-65 -30q-22 0 -40 10t-34.5 23t-32.5 23t-34 10q-20 0 -34.5 -14.5t-19.5 -51.5h-38
q3 28 10.5 49t19.5 35t28.5 21.5t36.5 7.5q22 0 40.5 -10t35 -23t32 -23t32.5 -10q21 0 36 14.5t20 52.5h37z" />
    <glyph glyph-name="Ograve" unicode="&#xd2;" horiz-adv-x="723" 
d="M664 358q0 -82 -19 -149t-57 -116.5t-95 -76t-132 -26.5q-76 0 -133 27t-94.5 76t-56.5 116.5t-19 149.5q0 109 34.5 191.5t103 128.5t168.5 46q97 0 164 -44.5t101.5 -126.5t34.5 -196zM119 359q0 -95 26 -166.5t80 -111t137 -39.5t136.5 39t79 110.5t25.5 166.5
q0 149 -59.5 232t-179.5 83q-83 0 -137.5 -39t-81 -110t-26.5 -165zM311 959q13 -21 32 -49t40.5 -55t38.5 -47v-9h-40q-18 16 -37.5 35.5t-38.5 40.5t-35 40.5t-27 35.5v8h67z" />
    <glyph glyph-name="Oacute" unicode="&#xd3;" horiz-adv-x="723" 
d="M664 358q0 -82 -19 -149t-57 -116.5t-95 -76t-132 -26.5q-76 0 -133 27t-94.5 76t-56.5 116.5t-19 149.5q0 109 34.5 191.5t103 128.5t168.5 46q97 0 164 -44.5t101.5 -126.5t34.5 -196zM119 359q0 -95 26 -166.5t80 -111t137 -39.5t136.5 39t79 110.5t25.5 166.5
q0 149 -59.5 232t-179.5 83q-83 0 -137.5 -39t-81 -110t-26.5 -165zM496 951q-11 -16 -27 -35.5t-35 -40.5t-39 -40.5t-38 -35.5h-39v9q18 20 39 47t40 55t31 49h68v-8z" />
    <glyph glyph-name="Ocircumflex" unicode="&#xd4;" horiz-adv-x="723" 
d="M664 358q0 -82 -19 -149t-57 -116.5t-95 -76t-132 -26.5q-76 0 -133 27t-94.5 76t-56.5 116.5t-19 149.5q0 109 34.5 191.5t103 128.5t168.5 46q97 0 164 -44.5t101.5 -126.5t34.5 -196zM119 359q0 -95 26 -166.5t80 -111t137 -39.5t136.5 39t79 110.5t25.5 166.5
q0 149 -59.5 232t-179.5 83q-83 0 -137.5 -39t-81 -110t-26.5 -165zM391 958q12 -21 31.5 -48.5t41.5 -54.5t40 -47v-9h-42q-25 22 -51 51t-49 57q-23 -28 -49 -56.5t-52 -51.5h-40v9q18 20 39.5 47t41.5 54.5t32 48.5h57z" />
    <glyph glyph-name="Otilde" unicode="&#xd5;" horiz-adv-x="723" 
d="M664 358q0 -82 -19 -149t-57 -116.5t-95 -76t-132 -26.5q-76 0 -133 27t-94.5 76t-56.5 116.5t-19 149.5q0 109 34.5 191.5t103 128.5t168.5 46q97 0 164 -44.5t101.5 -126.5t34.5 -196zM119 359q0 -95 26 -166.5t80 -111t137 -39.5t136.5 39t79 110.5t25.5 166.5
q0 149 -59.5 232t-179.5 83q-83 0 -137.5 -39t-81 -110t-26.5 -165zM526 919q-5 -54 -30 -84t-65 -30q-22 0 -40 10t-34.5 23t-32.5 23t-34 10q-20 0 -34.5 -14.5t-19.5 -51.5h-38q3 28 10.5 49t19.5 35t28.5 21.5t36.5 7.5q22 0 40.5 -10t35 -23t32 -23t32.5 -10
q21 0 36 14.5t20 52.5h37z" />
    <glyph glyph-name="Odieresis" unicode="&#xd6;" horiz-adv-x="723" 
d="M664 358q0 -82 -19 -149t-57 -116.5t-95 -76t-132 -26.5q-76 0 -133 27t-94.5 76t-56.5 116.5t-19 149.5q0 109 34.5 191.5t103 128.5t168.5 46q97 0 164 -44.5t101.5 -126.5t34.5 -196zM119 359q0 -95 26 -166.5t80 -111t137 -39.5t136.5 39t79 110.5t25.5 166.5
q0 149 -59.5 232t-179.5 83q-83 0 -137.5 -39t-81 -110t-26.5 -165zM240 873q0 19 9.5 29.5t25.5 10.5t25 -10.5t9 -29.5t-9 -30t-25 -11t-25.5 11t-9.5 30zM416 873q0 19 9 29.5t25 10.5q17 0 26 -10.5t9 -29.5t-9 -30t-26 -11q-16 0 -25 11t-9 30z" />
    <glyph glyph-name="multiply" unicode="&#xd7;" horiz-adv-x="537" 
d="M440 571l33 -34l-172 -184l171 -183l-33 -34l-172 183l-169 -183l-34 34l170 183l-171 183l34 35l171 -184z" />
    <glyph glyph-name="Oslash" unicode="&#xd8;" horiz-adv-x="723" 
d="M664 358q0 -82 -19 -149t-57 -116.5t-95 -76t-132 -26.5q-56 0 -102 15.5t-80 44.5l-53 -78l-40 27l56 83q-42 50 -63 120.5t-21 156.5q0 109 34.5 191.5t103 128.5t168.5 46q53 0 97 -14.5t79 -40.5l49 73l40 -28l-52 -77q42 -47 64.5 -118t22.5 -162zM603 358
q0 75 -15 133.5t-45 98.5l-332 -495q28 -25 66 -39t85 -14q83 0 136.5 39t79 110.5t25.5 166.5zM119 359q0 -70 14.5 -128t43.5 -100l331 494q-27 23 -63 35.5t-81 12.5q-83 0 -137.5 -39t-81 -110t-26.5 -165z" />
    <glyph glyph-name="Ugrave" unicode="&#xd9;" horiz-adv-x="680" 
d="M593 252q0 -81 -30 -140t-87 -90.5t-138 -31.5q-122 0 -186.5 70t-64.5 194v460h58v-460q0 -104 50 -158t146 -54q63 0 106 24.5t65.5 70.5t22.5 111v466h58v-462zM290 948q13 -21 32 -49t40.5 -55t38.5 -47v-9h-40q-18 16 -37.5 35.5t-38.5 40.5t-35 40.5t-27 35.5v8h67
z" />
    <glyph glyph-name="Uacute" unicode="&#xda;" horiz-adv-x="680" 
d="M593 252q0 -81 -30 -140t-87 -90.5t-138 -31.5q-122 0 -186.5 70t-64.5 194v460h58v-460q0 -104 50 -158t146 -54q63 0 106 24.5t65.5 70.5t22.5 111v466h58v-462zM474 940q-11 -16 -27 -35.5t-35 -40.5t-39 -40.5t-38 -35.5h-39v9q18 20 39 47t40 55t31 49h68v-8z" />
    <glyph glyph-name="Ucircumflex" unicode="&#xdb;" horiz-adv-x="680" 
d="M593 252q0 -81 -30 -140t-87 -90.5t-138 -31.5q-122 0 -186.5 70t-64.5 194v460h58v-460q0 -104 50 -158t146 -54q63 0 106 24.5t65.5 70.5t22.5 111v466h58v-462zM369 947q12 -21 31.5 -48.5t41.5 -54.5t40 -47v-9h-42q-25 22 -51 51t-49 57q-23 -28 -49 -56.5
t-52 -51.5h-40v9q18 20 39.5 47t41.5 54.5t32 48.5h57z" />
    <glyph glyph-name="Udieresis" unicode="&#xdc;" horiz-adv-x="680" 
d="M593 252q0 -81 -30 -140t-87 -90.5t-138 -31.5q-122 0 -186.5 70t-64.5 194v460h58v-460q0 -104 50 -158t146 -54q63 0 106 24.5t65.5 70.5t22.5 111v466h58v-462zM218 862q0 19 9.5 29.5t25.5 10.5t25 -10.5t9 -29.5t-9 -30t-25 -11t-25.5 11t-9.5 30zM394 862
q0 19 9 29.5t25 10.5q17 0 26 -10.5t9 -29.5t-9 -30t-26 -11q-16 0 -25 11t-9 30z" />
    <glyph glyph-name="Yacute" unicode="&#xdd;" horiz-adv-x="507" 
d="M254 332l189 382h64l-223 -438v-276h-59v272l-225 442h64zM388 940q-11 -16 -27 -35.5t-35 -40.5t-39 -40.5t-38 -35.5h-39v9q18 20 39 47t40 55t31 49h68v-8z" />
    <glyph glyph-name="Thorn" unicode="&#xde;" horiz-adv-x="556" 
d="M506 382q0 -66 -27 -115t-83.5 -76t-146.5 -27h-97v-164h-58v714h58v-128h116q123 0 180.5 -51t57.5 -153zM242 215q66 0 111.5 15.5t69 52t23.5 97.5q0 81 -44.5 118t-141.5 37h-108v-320h90z" />
    <glyph glyph-name="germandbls" unicode="&#xdf;" horiz-adv-x="562" 
d="M457 627q0 -36 -13.5 -60.5t-32.5 -42t-38.5 -33t-33 -33t-13.5 -42.5q0 -20 8.5 -35t27.5 -30.5t50 -37.5t54.5 -44.5t37 -52t13.5 -72.5q0 -48 -20 -82.5t-57.5 -53t-90.5 -18.5q-44 0 -75 9t-56 22v53q19 -10 39.5 -18t43.5 -13t47 -5q57 0 84.5 28t27.5 75
q0 31 -10 53.5t-29.5 41t-48.5 39.5q-34 24 -56.5 44t-34 42.5t-11.5 52.5q0 33 13 55t32 38t38 31.5t32 35.5t13 50q0 45 -32 68.5t-88 23.5q-43 0 -74.5 -15t-48.5 -46t-17 -81v-574h-57v574q0 66 24.5 108t69 62.5t103.5 20.5q56 0 95.5 -16t61.5 -47t22 -75z" />
    <glyph glyph-name="agrave" unicode="&#xe0;" horiz-adv-x="507" 
d="M261 541q85 0 127 -43.5t42 -139.5v-358h-43l-10 90h-3q-18 -30 -40.5 -52.5t-55 -35t-79.5 -12.5t-82 17.5t-54 50.5t-19 81q0 80 61 121.5t178 46.5l90 5v37q0 79 -29 111.5t-86 32.5q-38 0 -73.5 -10.5t-71.5 -29.5l-18 46q36 18 78 30t88 12zM290 265
q-94 -5 -140 -35.5t-46 -90.5q0 -49 28.5 -75t77.5 -26q77 0 120 47.5t43 131.5v52zM204 766q13 -21 32 -49t40.5 -55t38.5 -47v-9h-40q-18 16 -37.5 35.5t-38.5 40.5t-35 40.5t-27 35.5v8h67z" />
    <glyph glyph-name="aacute" unicode="&#xe1;" horiz-adv-x="507" 
d="M261 541q85 0 127 -43.5t42 -139.5v-358h-43l-10 90h-3q-18 -30 -40.5 -52.5t-55 -35t-79.5 -12.5t-82 17.5t-54 50.5t-19 81q0 80 61 121.5t178 46.5l90 5v37q0 79 -29 111.5t-86 32.5q-38 0 -73.5 -10.5t-71.5 -29.5l-18 46q36 18 78 30t88 12zM290 265
q-94 -5 -140 -35.5t-46 -90.5q0 -49 28.5 -75t77.5 -26q77 0 120 47.5t43 131.5v52zM388 758q-11 -16 -27 -35.5t-35 -40.5t-39 -40.5t-38 -35.5h-39v9q18 20 39 47t40 55t31 49h68v-8z" />
    <glyph glyph-name="acircumflex" unicode="&#xe2;" horiz-adv-x="507" 
d="M261 541q85 0 127 -43.5t42 -139.5v-358h-43l-10 90h-3q-18 -30 -40.5 -52.5t-55 -35t-79.5 -12.5t-82 17.5t-54 50.5t-19 81q0 80 61 121.5t178 46.5l90 5v37q0 79 -29 111.5t-86 32.5q-38 0 -73.5 -10.5t-71.5 -29.5l-18 46q36 18 78 30t88 12zM290 265
q-94 -5 -140 -35.5t-46 -90.5q0 -49 28.5 -75t77.5 -26q77 0 120 47.5t43 131.5v52zM283 765q12 -21 31.5 -48.5t41.5 -54.5t40 -47v-9h-42q-25 22 -51 51t-49 57q-23 -28 -49 -56.5t-52 -51.5h-40v9q18 20 39.5 47t41.5 54.5t32 48.5h57z" />
    <glyph glyph-name="atilde" unicode="&#xe3;" horiz-adv-x="507" 
d="M261 541q85 0 127 -43.5t42 -139.5v-358h-43l-10 90h-3q-18 -30 -40.5 -52.5t-55 -35t-79.5 -12.5t-82 17.5t-54 50.5t-19 81q0 80 61 121.5t178 46.5l90 5v37q0 79 -29 111.5t-86 32.5q-38 0 -73.5 -10.5t-71.5 -29.5l-18 46q36 18 78 30t88 12zM290 265
q-94 -5 -140 -35.5t-46 -90.5q0 -49 28.5 -75t77.5 -26q77 0 120 47.5t43 131.5v52zM419 726q-5 -54 -30 -84t-65 -30q-22 0 -40 10t-34.5 23t-32.5 23t-34 10q-20 0 -34.5 -14.5t-19.5 -51.5h-38q3 28 10.5 49t19.5 35t28.5 21.5t36.5 7.5q22 0 40.5 -10t35 -23t32 -23
t32.5 -10q21 0 36 14.5t20 52.5h37z" />
    <glyph glyph-name="adieresis" unicode="&#xe4;" horiz-adv-x="507" 
d="M261 541q85 0 127 -43.5t42 -139.5v-358h-43l-10 90h-3q-18 -30 -40.5 -52.5t-55 -35t-79.5 -12.5t-82 17.5t-54 50.5t-19 81q0 80 61 121.5t178 46.5l90 5v37q0 79 -29 111.5t-86 32.5q-38 0 -73.5 -10.5t-71.5 -29.5l-18 46q36 18 78 30t88 12zM290 265
q-94 -5 -140 -35.5t-46 -90.5q0 -49 28.5 -75t77.5 -26q77 0 120 47.5t43 131.5v52zM132 680q0 19 9.5 29.5t25.5 10.5t25 -10.5t9 -29.5t-9 -30t-25 -11t-25.5 11t-9.5 30zM308 680q0 19 9 29.5t25 10.5q17 0 26 -10.5t9 -29.5t-9 -30t-26 -11q-16 0 -25 11t-9 30z" />
    <glyph glyph-name="aring" unicode="&#xe5;" horiz-adv-x="507" 
d="M261 541q85 0 127 -43.5t42 -139.5v-358h-43l-10 90h-3q-18 -30 -40.5 -52.5t-55 -35t-79.5 -12.5t-82 17.5t-54 50.5t-19 81q0 80 61 121.5t178 46.5l90 5v37q0 79 -29 111.5t-86 32.5q-38 0 -73.5 -10.5t-71.5 -29.5l-18 46q36 18 78 30t88 12zM290 265
q-94 -5 -140 -35.5t-46 -90.5q0 -49 28.5 -75t77.5 -26q77 0 120 47.5t43 131.5v52zM254 609q-42 0 -70.5 27.5t-28.5 75.5q0 46 28.5 74t70.5 28t71.5 -28.5t29.5 -73.5q0 -47 -29 -75t-72 -28zM254 646q28 0 45 18.5t17 47.5t-18 47.5t-44 18.5t-43.5 -18.5t-17.5 -47.5
t16.5 -47.5t44.5 -18.5z" />
    <glyph glyph-name="ae" unicode="&#xe6;" horiz-adv-x="808" 
d="M569 542q61 0 102.5 -31.5t63 -86t21.5 -125.5v-40h-335q1 -108 43.5 -163.5t119.5 -55.5q44 0 77.5 8.5t73.5 27.5v-52q-36 -17 -72 -25.5t-81 -8.5q-47 0 -85 16.5t-64.5 46.5t-42.5 71q-17 -40 -41.5 -70t-60.5 -47t-87 -17q-48 0 -83.5 17.5t-54.5 50.5t-19 81
q0 54 26.5 89.5t78.5 55.5t126 23l88 5v38q0 78 -29.5 110.5t-83.5 32.5q-36 0 -72 -10.5t-71 -29.5l-18 46q35 19 78 30.5t86 11.5q62 0 99 -28.5t51 -90.5q23 54 65 87t101 33zM283 265q-90 -5 -134.5 -35.5t-44.5 -90.5q0 -49 27.5 -75t77.5 -26q48 0 82 21.5t52.5 61.5
t18.5 96v52zM569 494q-61 0 -101 -48t-46 -140h274q0 56 -14 98.5t-42 66t-71 23.5z" />
    <glyph glyph-name="ccedilla" unicode="&#xe7;" horiz-adv-x="449" 
d="M283 -10q-73 0 -124.5 32.5t-78.5 93.5t-27 147q0 90 30.5 152.5t84.5 94.5t126 32q36 0 68.5 -7t56.5 -19l-16 -49q-25 11 -54.5 17.5t-55.5 6.5q-58 0 -98.5 -27.5t-61.5 -78.5t-21 -121q0 -66 18.5 -116.5t56.5 -78.5t96 -28q38 0 70.5 8t59.5 20v-51q-25 -12 -57 -20
t-73 -8zM359 -142q0 -30 -14.5 -52t-42 -34t-66.5 -12q-16 0 -29 1.5t-22 4.5v39q10 -3 23.5 -4t28.5 -1q34 0 54.5 13.5t20.5 43.5q0 29 -24 42t-67 16l41 85h40l-26 -59q24 -3 43 -13t29.5 -27.5t10.5 -42.5z" />
    <glyph glyph-name="egrave" unicode="&#xe8;" horiz-adv-x="520" 
d="M273 542q64 0 107.5 -31.5t65.5 -86.5t22 -126v-39h-356q1 -106 46.5 -162.5t130.5 -56.5q47 0 82 8.5t76 27.5v-52q-37 -17 -74 -25.5t-86 -8.5q-75 0 -127 33t-79.5 94.5t-27.5 144.5q0 81 26 144.5t75 99.5t119 36zM273 494q-68 0 -110 -48.5t-49 -139.5h295
q0 56 -14.5 98t-45 66t-76.5 24zM211 766q13 -21 32 -49t40.5 -55t38.5 -47v-9h-40q-18 16 -37.5 35.5t-38.5 40.5t-35 40.5t-27 35.5v8h67z" />
    <glyph glyph-name="eacute" unicode="&#xe9;" horiz-adv-x="520" 
d="M273 542q64 0 107.5 -31.5t65.5 -86.5t22 -126v-39h-356q1 -106 46.5 -162.5t130.5 -56.5q47 0 82 8.5t76 27.5v-52q-37 -17 -74 -25.5t-86 -8.5q-75 0 -127 33t-79.5 94.5t-27.5 144.5q0 81 26 144.5t75 99.5t119 36zM273 494q-68 0 -110 -48.5t-49 -139.5h295
q0 56 -14.5 98t-45 66t-76.5 24zM396 758q-11 -16 -27 -35.5t-35 -40.5t-39 -40.5t-38 -35.5h-39v9q18 20 39 47t40 55t31 49h68v-8z" />
    <glyph glyph-name="ecircumflex" unicode="&#xea;" horiz-adv-x="520" 
d="M273 542q64 0 107.5 -31.5t65.5 -86.5t22 -126v-39h-356q1 -106 46.5 -162.5t130.5 -56.5q47 0 82 8.5t76 27.5v-52q-37 -17 -74 -25.5t-86 -8.5q-75 0 -127 33t-79.5 94.5t-27.5 144.5q0 81 26 144.5t75 99.5t119 36zM273 494q-68 0 -110 -48.5t-49 -139.5h295
q0 56 -14.5 98t-45 66t-76.5 24zM291 765q12 -21 31.5 -48.5t41.5 -54.5t40 -47v-9h-42q-25 22 -51 51t-49 57q-23 -28 -49 -56.5t-52 -51.5h-40v9q18 20 39.5 47t41.5 54.5t32 48.5h57z" />
    <glyph glyph-name="edieresis" unicode="&#xeb;" horiz-adv-x="520" 
d="M273 542q64 0 107.5 -31.5t65.5 -86.5t22 -126v-39h-356q1 -106 46.5 -162.5t130.5 -56.5q47 0 82 8.5t76 27.5v-52q-37 -17 -74 -25.5t-86 -8.5q-75 0 -127 33t-79.5 94.5t-27.5 144.5q0 81 26 144.5t75 99.5t119 36zM273 494q-68 0 -110 -48.5t-49 -139.5h295
q0 56 -14.5 98t-45 66t-76.5 24zM140 680q0 19 9.5 29.5t25.5 10.5t25 -10.5t9 -29.5t-9 -30t-25 -11t-25.5 11t-9.5 30zM316 680q0 19 9 29.5t25 10.5q17 0 26 -10.5t9 -29.5t-9 -30t-26 -11q-16 0 -25 11t-9 30z" />
    <glyph glyph-name="igrave" unicode="&#xec;" horiz-adv-x="221" 
d="M139 0h-57v532h57v-532zM60 766q13 -21 32 -49t40.5 -55t38.5 -47v-9h-40q-18 16 -37.5 35.5t-38.5 40.5t-35 40.5t-27 35.5v8h67z" />
    <glyph glyph-name="iacute" unicode="&#xed;" horiz-adv-x="221" 
d="M139 0h-57v532h57v-532zM245 758q-11 -16 -27 -35.5t-35 -40.5t-39 -40.5t-38 -35.5h-39v9q18 20 39 47t40 55t31 49h68v-8z" />
    <glyph glyph-name="icircumflex" unicode="&#xee;" horiz-adv-x="221" 
d="M139 0h-57v532h57v-532zM140 765q12 -21 31.5 -48.5t41.5 -54.5t40 -47v-9h-42q-25 22 -51 51t-49 57q-23 -28 -49 -56.5t-52 -51.5h-40v9q18 20 39.5 47t41.5 54.5t32 48.5h57z" />
    <glyph glyph-name="idieresis" unicode="&#xef;" horiz-adv-x="221" 
d="M139 0h-57v532h57v-532zM-11 680q0 19 9.5 29.5t25.5 10.5t25 -10.5t9 -29.5t-9 -30t-25 -11t-25.5 11t-9.5 30zM165 680q0 19 9 29.5t25 10.5q17 0 26 -10.5t9 -29.5t-9 -30t-26 -11q-16 0 -25 11t-9 30z" />
    <glyph glyph-name="eth" unicode="&#xf0;" horiz-adv-x="546" 
d="M198 761q33 -16 61.5 -34t52.5 -38l106 67l24 -37l-94 -60q46 -47 78.5 -107t49.5 -129.5t17 -148.5q0 -86 -25.5 -150t-75 -99t-121.5 -35q-67 0 -116 29.5t-76 83t-27 125.5q0 75 27.5 129t76 83t111.5 29q39 0 68 -8t51 -22.5t36 -35.5l3 1q-14 65 -46 124.5
t-77 103.5l-121 -76l-25 37l109 69q-19 16 -42.5 31t-48.5 28zM274 421q-51 0 -88 -22.5t-56.5 -66t-19.5 -105.5q0 -58 19 -100.5t55 -65t88 -22.5q81 0 122 58.5t41 170.5q0 27 -8.5 54t-26.5 49.5t-49 36t-77 13.5z" />
    <glyph glyph-name="ntilde" unicode="&#xf1;" horiz-adv-x="562" 
d="M309 542q85 0 130.5 -46.5t45.5 -147.5v-348h-57v344q0 77 -32.5 113t-94.5 36q-81 0 -121.5 -51t-40.5 -152v-290h-57v532h46l8 -92h4q13 30 37 53t57 36t75 13zM446 726q-5 -54 -30 -84t-65 -30q-22 0 -40 10t-34.5 23t-32.5 23t-34 10q-20 0 -34.5 -14.5t-19.5 -51.5
h-38q3 28 10.5 49t19.5 35t28.5 21.5t36.5 7.5q22 0 40.5 -10t35 -23t32 -23t32.5 -10q21 0 36 14.5t20 52.5h37z" />
    <glyph glyph-name="ograve" unicode="&#xf2;" horiz-adv-x="556" 
d="M503 267q0 -63 -15 -113.5t-43.5 -87t-71 -56.5t-97.5 -20q-51 0 -92.5 19.5t-70.5 56t-44.5 87.5t-15.5 114q0 86 27.5 147.5t78.5 94.5t122 33q72 0 121 -34.5t75 -96t26 -144.5zM112 267q0 -68 18 -119.5t54.5 -80t92.5 -28.5q58 0 94.5 28.5t54.5 80t18 119.5
q0 66 -17 117t-53 80t-94 29q-84 0 -126 -60t-42 -166zM228 766q13 -21 32 -49t40.5 -55t38.5 -47v-9h-40q-18 16 -37.5 35.5t-38.5 40.5t-35 40.5t-27 35.5v8h67z" />
    <glyph glyph-name="oacute" unicode="&#xf3;" horiz-adv-x="556" 
d="M503 267q0 -63 -15 -113.5t-43.5 -87t-71 -56.5t-97.5 -20q-51 0 -92.5 19.5t-70.5 56t-44.5 87.5t-15.5 114q0 86 27.5 147.5t78.5 94.5t122 33q72 0 121 -34.5t75 -96t26 -144.5zM112 267q0 -68 18 -119.5t54.5 -80t92.5 -28.5q58 0 94.5 28.5t54.5 80t18 119.5
q0 66 -17 117t-53 80t-94 29q-84 0 -126 -60t-42 -166zM412 758q-11 -16 -27 -35.5t-35 -40.5t-39 -40.5t-38 -35.5h-39v9q18 20 39 47t40 55t31 49h68v-8z" />
    <glyph glyph-name="ocircumflex" unicode="&#xf4;" horiz-adv-x="556" 
d="M503 267q0 -63 -15 -113.5t-43.5 -87t-71 -56.5t-97.5 -20q-51 0 -92.5 19.5t-70.5 56t-44.5 87.5t-15.5 114q0 86 27.5 147.5t78.5 94.5t122 33q72 0 121 -34.5t75 -96t26 -144.5zM112 267q0 -68 18 -119.5t54.5 -80t92.5 -28.5q58 0 94.5 28.5t54.5 80t18 119.5
q0 66 -17 117t-53 80t-94 29q-84 0 -126 -60t-42 -166zM307 765q12 -21 31.5 -48.5t41.5 -54.5t40 -47v-9h-42q-25 22 -51 51t-49 57q-23 -28 -49 -56.5t-52 -51.5h-40v9q18 20 39.5 47t41.5 54.5t32 48.5h57z" />
    <glyph glyph-name="otilde" unicode="&#xf5;" horiz-adv-x="556" 
d="M503 267q0 -63 -15 -113.5t-43.5 -87t-71 -56.5t-97.5 -20q-51 0 -92.5 19.5t-70.5 56t-44.5 87.5t-15.5 114q0 86 27.5 147.5t78.5 94.5t122 33q72 0 121 -34.5t75 -96t26 -144.5zM112 267q0 -68 18 -119.5t54.5 -80t92.5 -28.5q58 0 94.5 28.5t54.5 80t18 119.5
q0 66 -17 117t-53 80t-94 29q-84 0 -126 -60t-42 -166zM443 726q-5 -54 -30 -84t-65 -30q-22 0 -40 10t-34.5 23t-32.5 23t-34 10q-20 0 -34.5 -14.5t-19.5 -51.5h-38q3 28 10.5 49t19.5 35t28.5 21.5t36.5 7.5q22 0 40.5 -10t35 -23t32 -23t32.5 -10q21 0 36 14.5t20 52.5
h37z" />
    <glyph glyph-name="odieresis" unicode="&#xf6;" horiz-adv-x="556" 
d="M503 267q0 -63 -15 -113.5t-43.5 -87t-71 -56.5t-97.5 -20q-51 0 -92.5 19.5t-70.5 56t-44.5 87.5t-15.5 114q0 86 27.5 147.5t78.5 94.5t122 33q72 0 121 -34.5t75 -96t26 -144.5zM112 267q0 -68 18 -119.5t54.5 -80t92.5 -28.5q58 0 94.5 28.5t54.5 80t18 119.5
q0 66 -17 117t-53 80t-94 29q-84 0 -126 -60t-42 -166zM156 680q0 19 9.5 29.5t25.5 10.5t25 -10.5t9 -29.5t-9 -30t-25 -11t-25.5 11t-9.5 30zM332 680q0 19 9 29.5t25 10.5q17 0 26 -10.5t9 -29.5t-9 -30t-26 -11q-16 0 -25 11t-9 30z" />
    <glyph glyph-name="divide" unicode="&#xf7;" horiz-adv-x="537" 
d="M49 329v48h438v-48h-438zM267 133q-18 0 -28.5 11.5t-10.5 34.5t10.5 34t28.5 11q20 0 30 -11t10 -34t-10 -34.5t-30 -11.5zM267 481q-18 0 -28.5 12t-10.5 34q0 23 10.5 34.5t28.5 11.5q20 0 30 -11.5t10 -34.5q0 -22 -10 -34t-30 -12z" />
    <glyph glyph-name="oslash" unicode="&#xf8;" horiz-adv-x="556" 
d="M503 267q0 -83 -26 -145.5t-76.5 -97t-123.5 -34.5q-41 0 -74.5 13t-59.5 36l-49 -69l-38 28l53 73q-27 37 -41 86.5t-14 109.5q0 129 60.5 202t166.5 73q40 0 73 -12t58 -33l44 64l39 -27l-49 -69q28 -36 42.5 -86.5t14.5 -111.5zM113 267q0 -45 7 -82.5t22 -66.5
l239 337q-18 18 -43.5 28t-57.5 10q-84 0 -125.5 -60t-41.5 -166zM444 267q0 45 -7.5 83.5t-24.5 67.5l-239 -338q20 -19 46 -30t59 -11q57 0 94 28.5t54.5 80t17.5 119.5z" />
    <glyph glyph-name="ugrave" unicode="&#xf9;" horiz-adv-x="562" 
d="M479 532v-532h-46l-8 91h-3q-14 -29 -38 -52t-56.5 -36t-75.5 -13q-58 0 -97.5 21.5t-59 64.5t-19.5 108v348h57v-343q0 -76 32 -113t95 -37q55 0 90.5 23t53.5 68t18 112v290h57zM231 766q13 -21 32 -49t40.5 -55t38.5 -47v-9h-40q-18 16 -37.5 35.5t-38.5 40.5
t-35 40.5t-27 35.5v8h67z" />
    <glyph glyph-name="uacute" unicode="&#xfa;" horiz-adv-x="562" 
d="M479 532v-532h-46l-8 91h-3q-14 -29 -38 -52t-56.5 -36t-75.5 -13q-58 0 -97.5 21.5t-59 64.5t-19.5 108v348h57v-343q0 -76 32 -113t95 -37q55 0 90.5 23t53.5 68t18 112v290h57zM416 758q-11 -16 -27 -35.5t-35 -40.5t-39 -40.5t-38 -35.5h-39v9q18 20 39 47t40 55
t31 49h68v-8z" />
    <glyph glyph-name="ucircumflex" unicode="&#xfb;" horiz-adv-x="562" 
d="M479 532v-532h-46l-8 91h-3q-14 -29 -38 -52t-56.5 -36t-75.5 -13q-58 0 -97.5 21.5t-59 64.5t-19.5 108v348h57v-343q0 -76 32 -113t95 -37q55 0 90.5 23t53.5 68t18 112v290h57zM311 765q12 -21 31.5 -48.5t41.5 -54.5t40 -47v-9h-42q-25 22 -51 51t-49 57
q-23 -28 -49 -56.5t-52 -51.5h-40v9q18 20 39.5 47t41.5 54.5t32 48.5h57z" />
    <glyph glyph-name="udieresis" unicode="&#xfc;" horiz-adv-x="562" 
d="M479 532v-532h-46l-8 91h-3q-14 -29 -38 -52t-56.5 -36t-75.5 -13q-58 0 -97.5 21.5t-59 64.5t-19.5 108v348h57v-343q0 -76 32 -113t95 -37q55 0 90.5 23t53.5 68t18 112v290h57zM160 680q0 19 9.5 29.5t25.5 10.5t25 -10.5t9 -29.5t-9 -30t-25 -11t-25.5 11t-9.5 30z
M336 680q0 19 9 29.5t25 10.5q17 0 26 -10.5t9 -29.5t-9 -30t-26 -11q-16 0 -25 11t-9 30z" />
    <glyph glyph-name="yacute" unicode="&#xfd;" horiz-adv-x="445" 
d="M1 532h61l117 -330q11 -30 19.5 -55t15 -46.5t9.5 -39.5h3q6 24 17.5 60t25.5 79l115 332h62l-225 -626q-17 -47 -38 -80t-50 -50t-69 -17q-18 0 -32.5 2.5t-27.5 6.5v48q12 -4 25 -6.5t28 -2.5q27 0 46.5 11.5t34.5 35t28 59.5l31 89zM357 758q-11 -16 -27 -35.5
t-35 -40.5t-39 -40.5t-38 -35.5h-39v9q18 20 39 47t40 55t31 49h68v-8z" />
    <glyph glyph-name="thorn" unicode="&#xfe;" horiz-adv-x="564" 
d="M512 269q0 -90 -25 -152.5t-72 -94.5t-111 -32q-44 0 -76 14t-54 37t-35 51h-4q1 -14 2 -33.5t1.5 -38.5t0.5 -35v-221h-57v996h57v-229q0 -19 -0.5 -48t-1.5 -48h3q13 29 35 53.5t55 39t79 14.5q95 0 149 -69t54 -204zM453 270q0 112 -38 167.5t-115 55.5
q-82 0 -121 -56t-39 -160v-11q0 -113 38 -170t119 -57q51 0 85.5 26.5t52.5 78t18 126.5z" />
    <glyph glyph-name="ydieresis" unicode="&#xff;" horiz-adv-x="445" 
d="M1 532h61l117 -330q11 -30 19.5 -55t15 -46.5t9.5 -39.5h3q6 24 17.5 60t25.5 79l115 332h62l-225 -626q-17 -47 -38 -80t-50 -50t-69 -17q-18 0 -32.5 2.5t-27.5 6.5v48q12 -4 25 -6.5t28 -2.5q27 0 46.5 11.5t34.5 35t28 59.5l31 89zM101 680q0 19 9.5 29.5t25.5 10.5
t25 -10.5t9 -29.5t-9 -30t-25 -11t-25.5 11t-9.5 30zM277 680q0 19 9 29.5t25 10.5q17 0 26 -10.5t9 -29.5t-9 -30t-26 -11q-16 0 -25 11t-9 30z" />
    <glyph glyph-name="Amacron" unicode="&#x100;" horiz-adv-x="575" 
d="M514 0l-88 246h-277l-89 -246h-60l263 717h55l256 -717h-60zM320 556q-3 10 -8.5 27t-11.5 36t-11 34q-7 -26 -15.5 -52.5t-15.5 -45.5l-90 -256h240zM419 840v-48h-262v48h262z" />
    <glyph glyph-name="amacron" unicode="&#x101;" horiz-adv-x="507" 
d="M261 541q85 0 127 -43.5t42 -139.5v-358h-43l-10 90h-3q-18 -30 -40.5 -52.5t-55 -35t-79.5 -12.5t-82 17.5t-54 50.5t-19 81q0 80 61 121.5t178 46.5l90 5v37q0 79 -29 111.5t-86 32.5q-38 0 -73.5 -10.5t-71.5 -29.5l-18 46q36 18 78 30t88 12zM290 265
q-94 -5 -140 -35.5t-46 -90.5q0 -49 28.5 -75t77.5 -26q77 0 120 47.5t43 131.5v52zM386 658v-48h-262v48h262z" />
    <glyph glyph-name="Abreve" unicode="&#x102;" horiz-adv-x="575" 
d="M514 0l-88 246h-277l-89 -246h-60l263 717h55l256 -717h-60zM320 556q-3 10 -8.5 27t-11.5 36t-11 34q-7 -26 -15.5 -52.5t-15.5 -45.5l-90 -256h240zM420 911q-4 -38 -20.5 -65.5t-45 -42.5t-68.5 -15q-62 0 -94.5 32.5t-37.5 90.5h39q3 -26 14 -43t31 -24.5t48 -7.5
q42 0 66 18t28 57h40z" />
    <glyph glyph-name="abreve" unicode="&#x103;" horiz-adv-x="507" 
d="M261 541q85 0 127 -43.5t42 -139.5v-358h-43l-10 90h-3q-18 -30 -40.5 -52.5t-55 -35t-79.5 -12.5t-82 17.5t-54 50.5t-19 81q0 80 61 121.5t178 46.5l90 5v37q0 79 -29 111.5t-86 32.5q-38 0 -73.5 -10.5t-71.5 -29.5l-18 46q36 18 78 30t88 12zM290 265
q-94 -5 -140 -35.5t-46 -90.5q0 -49 28.5 -75t77.5 -26q77 0 120 47.5t43 131.5v52zM387 729q-4 -38 -20.5 -65.5t-45 -42.5t-68.5 -15q-62 0 -94.5 32.5t-37.5 90.5h39q3 -26 14 -43t31 -24.5t48 -7.5q42 0 66 18t28 57h40z" />
    <glyph glyph-name="Aogonek" unicode="&#x104;" horiz-adv-x="575" 
d="M514 0l-88 246h-277l-89 -246h-60l263 717h55l256 -717h-60zM320 556q-3 10 -8.5 27t-11.5 36t-11 34q-7 -26 -15.5 -52.5t-15.5 -45.5l-90 -256h240zM504 -123q0 -26 12.5 -39.5t35.5 -13.5q15 0 26.5 2t19.5 4v-40q-11 -3 -24 -5.5t-30 -2.5q-27 0 -47 10t-30.5 30
t-10.5 48q0 26 12 51.5t33 48.5t46 43l32 -13q-31 -29 -53 -59t-22 -64z" />
    <glyph glyph-name="aogonek" unicode="&#x105;" horiz-adv-x="507" 
d="M261 541q85 0 127 -43.5t42 -139.5v-358h-43l-10 90h-3q-18 -30 -40.5 -52.5t-55 -35t-79.5 -12.5t-82 17.5t-54 50.5t-19 81q0 80 61 121.5t178 46.5l90 5v37q0 79 -29 111.5t-86 32.5q-38 0 -73.5 -10.5t-71.5 -29.5l-18 46q36 18 78 30t88 12zM290 265
q-94 -5 -140 -35.5t-46 -90.5q0 -49 28.5 -75t77.5 -26q77 0 120 47.5t43 131.5v52zM374 -123q0 -26 12.5 -39.5t35.5 -13.5q15 0 26.5 2t19.5 4v-40q-11 -3 -24 -5.5t-30 -2.5q-27 0 -47 10t-30.5 30t-10.5 48q0 26 12 51.5t33 48.5t46 43l32 -13q-31 -29 -53 -59t-22 -64z
" />
    <glyph glyph-name="Cacute" unicode="&#x106;" horiz-adv-x="586" 
d="M379 672q-61 0 -109.5 -22.5t-82 -64t-51 -99t-17.5 -127.5q0 -96 28 -167.5t84 -110.5t139 -39q49 0 90 8.5t78 21.5v-52q-35 -14 -76.5 -22t-97.5 -8q-101 0 -169 46t-102.5 129t-34.5 194q0 80 21.5 146.5t63 115.5t101 76t136.5 27q49 0 93.5 -10t83.5 -29l-23 -51
q-35 19 -74 28.5t-81 9.5zM494 940q-11 -16 -27 -35.5t-35 -40.5t-39 -40.5t-38 -35.5h-39v9q18 20 39 47t40 55t31 49h68v-8z" />
    <glyph glyph-name="cacute" unicode="&#x107;" horiz-adv-x="449" 
d="M283 -10q-73 0 -124.5 32.5t-78.5 93.5t-27 147q0 90 30.5 152.5t84.5 94.5t126 32q36 0 68.5 -7t56.5 -19l-16 -49q-25 11 -54.5 17.5t-55.5 6.5q-58 0 -98.5 -27.5t-61.5 -78.5t-21 -121q0 -66 18.5 -116.5t56.5 -78.5t96 -28q38 0 70.5 8t59.5 20v-51q-25 -12 -57 -20
t-73 -8zM411 758q-11 -16 -27 -35.5t-35 -40.5t-39 -40.5t-38 -35.5h-39v9q18 20 39 47t40 55t31 49h68v-8z" />
    <glyph glyph-name="Ccircumflex" unicode="&#x108;" horiz-adv-x="586" 
d="M379 672q-61 0 -109.5 -22.5t-82 -64t-51 -99t-17.5 -127.5q0 -96 28 -167.5t84 -110.5t139 -39q49 0 90 8.5t78 21.5v-52q-35 -14 -76.5 -22t-97.5 -8q-101 0 -169 46t-102.5 129t-34.5 194q0 80 21.5 146.5t63 115.5t101 76t136.5 27q49 0 93.5 -10t83.5 -29l-23 -51
q-35 19 -74 28.5t-81 9.5zM389 947q12 -21 31.5 -48.5t41.5 -54.5t40 -47v-9h-42q-25 22 -51 51t-49 57q-23 -28 -49 -56.5t-52 -51.5h-40v9q18 20 39.5 47t41.5 54.5t32 48.5h57z" />
    <glyph glyph-name="ccircumflex" unicode="&#x109;" horiz-adv-x="449" 
d="M283 -10q-73 0 -124.5 32.5t-78.5 93.5t-27 147q0 90 30.5 152.5t84.5 94.5t126 32q36 0 68.5 -7t56.5 -19l-16 -49q-25 11 -54.5 17.5t-55.5 6.5q-58 0 -98.5 -27.5t-61.5 -78.5t-21 -121q0 -66 18.5 -116.5t56.5 -78.5t96 -28q38 0 70.5 8t59.5 20v-51q-25 -12 -57 -20
t-73 -8zM306 765q12 -21 31.5 -48.5t41.5 -54.5t40 -47v-9h-42q-25 22 -51 51t-49 57q-23 -28 -49 -56.5t-52 -51.5h-40v9q18 20 39.5 47t41.5 54.5t32 48.5h57z" />
    <glyph glyph-name="Cdot" unicode="&#x10a;" horiz-adv-x="586" 
d="M379 672q-61 0 -109.5 -22.5t-82 -64t-51 -99t-17.5 -127.5q0 -96 28 -167.5t84 -110.5t139 -39q49 0 90 8.5t78 21.5v-52q-35 -14 -76.5 -22t-97.5 -8q-101 0 -169 46t-102.5 129t-34.5 194q0 80 21.5 146.5t63 115.5t101 76t136.5 27q49 0 93.5 -10t83.5 -29l-23 -51
q-35 19 -74 28.5t-81 9.5zM360 911q19 0 28.5 -11.5t9.5 -31.5q0 -21 -9.5 -32.5t-28.5 -11.5q-18 0 -28 11.5t-10 32.5q0 20 10 31.5t28 11.5z" />
    <glyph glyph-name="cdot" unicode="&#x10b;" horiz-adv-x="449" 
d="M283 -10q-73 0 -124.5 32.5t-78.5 93.5t-27 147q0 90 30.5 152.5t84.5 94.5t126 32q36 0 68.5 -7t56.5 -19l-16 -49q-25 11 -54.5 17.5t-55.5 6.5q-58 0 -98.5 -27.5t-61.5 -78.5t-21 -121q0 -66 18.5 -116.5t56.5 -78.5t96 -28q38 0 70.5 8t59.5 20v-51q-25 -12 -57 -20
t-73 -8zM277 729q19 0 28.5 -11.5t9.5 -31.5q0 -21 -9.5 -32.5t-28.5 -11.5q-18 0 -28 11.5t-10 32.5q0 20 10 31.5t28 11.5z" />
    <glyph glyph-name="Ccaron" unicode="&#x10c;" horiz-adv-x="586" 
d="M379 672q-61 0 -109.5 -22.5t-82 -64t-51 -99t-17.5 -127.5q0 -96 28 -167.5t84 -110.5t139 -39q49 0 90 8.5t78 21.5v-52q-35 -14 -76.5 -22t-97.5 -8q-101 0 -169 46t-102.5 129t-34.5 194q0 80 21.5 146.5t63 115.5t101 76t136.5 27q49 0 93.5 -10t83.5 -29l-23 -51
q-35 19 -74 28.5t-81 9.5zM502 937q-18 -19 -40 -46t-42 -54t-32 -49h-57q-11 22 -31 49t-41.5 54t-39.5 46v10h40q26 -23 52.5 -52t47.5 -57q23 28 49.5 57t51.5 52h42v-10z" />
    <glyph glyph-name="ccaron" unicode="&#x10d;" horiz-adv-x="449" 
d="M283 -10q-73 0 -124.5 32.5t-78.5 93.5t-27 147q0 90 30.5 152.5t84.5 94.5t126 32q36 0 68.5 -7t56.5 -19l-16 -49q-25 11 -54.5 17.5t-55.5 6.5q-58 0 -98.5 -27.5t-61.5 -78.5t-21 -121q0 -66 18.5 -116.5t56.5 -78.5t96 -28q38 0 70.5 8t59.5 20v-51q-25 -12 -57 -20
t-73 -8zM419 755q-18 -19 -40 -46t-42 -54t-32 -49h-57q-11 22 -31 49t-41.5 54t-39.5 46v10h40q26 -23 52.5 -52t47.5 -57q23 28 49.5 57t51.5 52h42v-10z" />
    <glyph glyph-name="Dcaron" unicode="&#x10e;" horiz-adv-x="670" 
d="M612 364q0 -120 -40.5 -201t-118.5 -122t-192 -41h-167v714h188q106 0 179.5 -40t112 -117.5t38.5 -192.5zM550 362q0 101 -30.5 167.5t-92 100t-155.5 33.5h-120v-612h106q147 0 219.5 78t72.5 233zM475 937q-18 -19 -40 -46t-42 -54t-32 -49h-57q-11 22 -31 49
t-41.5 54t-39.5 46v10h40q26 -23 52.5 -52t47.5 -57q23 28 49.5 57t51.5 52h42v-10z" />
    <glyph glyph-name="dcaron" unicode="&#x10f;" horiz-adv-x="599" 
d="M633 753q-4 -22 -13.5 -49t-22 -54t-26.5 -50h-32v9q5 13 10.5 32t11 40.5t9.5 42t6 36.5h57v-7zM261 -10q-99 0 -153.5 69t-54.5 202q0 137 56.5 209t156.5 72q42 0 73 -13.5t52.5 -36.5t34.5 -51h4q-1 23 -2.5 52t-1.5 52v215h57v-760h-46l-8 93h-3q-13 -28 -35 -51.5
t-54 -37.5t-76 -14zM270 39q85 0 121 56t36 162v9q0 110 -35.5 168.5t-118.5 58.5q-79 0 -120 -60.5t-41 -172.5q0 -108 39 -164.5t119 -56.5z" />
    <glyph glyph-name="Dcroat" unicode="&#x110;" horiz-adv-x="670" 
d="M282 714q106 0 179.5 -40t112 -117.5t38.5 -192.5q0 -120 -40.5 -201t-118.5 -122t-192 -41h-164v329h-74v51h74v334h185zM272 663h-116v-283h177v-51h-177v-278h102q147 0 219.5 78t72.5 233q0 151 -69 226t-209 75z" />
    <glyph glyph-name="dcroat" unicode="&#x111;" horiz-adv-x="565" 
d="M261 -10q-100 0 -154 69t-54 201q0 138 56.5 209.5t155.5 71.5q43 0 74 -13.5t52.5 -36.5t34.5 -52h4q-1 24 -2.5 52.5t-1.5 52.5v74h-211v45h211v97h57v-97h70v-45h-70v-618h-47l-8 93h-3q-13 -28 -34.5 -51.5t-53.5 -37.5t-76 -14zM270 39q85 0 120.5 56t35.5 161v10
q0 110 -35 168t-118 58q-79 0 -119.5 -60t-40.5 -173q0 -108 38.5 -164t118.5 -56z" />
    <glyph glyph-name="Emacron" unicode="&#x112;" horiz-adv-x="521" 
d="M464 0h-370v714h370v-52h-312v-261h294v-52h-294v-297h312v-52zM419 840v-48h-262v48h262z" />
    <glyph glyph-name="emacron" unicode="&#x113;" horiz-adv-x="520" 
d="M273 542q64 0 107.5 -31.5t65.5 -86.5t22 -126v-39h-356q1 -106 46.5 -162.5t130.5 -56.5q47 0 82 8.5t76 27.5v-52q-37 -17 -74 -25.5t-86 -8.5q-75 0 -127 33t-79.5 94.5t-27.5 144.5q0 81 26 144.5t75 99.5t119 36zM273 494q-68 0 -110 -48.5t-49 -139.5h295
q0 56 -14.5 98t-45 66t-76.5 24zM393 658v-48h-262v48h262z" />
    <glyph glyph-name="Ebreve" unicode="&#x114;" horiz-adv-x="521" 
d="M464 0h-370v714h370v-52h-312v-261h294v-52h-294v-297h312v-52zM420 911q-4 -38 -20.5 -65.5t-45 -42.5t-68.5 -15q-62 0 -94.5 32.5t-37.5 90.5h39q3 -26 14 -43t31 -24.5t48 -7.5q42 0 66 18t28 57h40z" />
    <glyph glyph-name="ebreve" unicode="&#x115;" horiz-adv-x="520" 
d="M273 542q64 0 107.5 -31.5t65.5 -86.5t22 -126v-39h-356q1 -106 46.5 -162.5t130.5 -56.5q47 0 82 8.5t76 27.5v-52q-37 -17 -74 -25.5t-86 -8.5q-75 0 -127 33t-79.5 94.5t-27.5 144.5q0 81 26 144.5t75 99.5t119 36zM273 494q-68 0 -110 -48.5t-49 -139.5h295
q0 56 -14.5 98t-45 66t-76.5 24zM395 729q-4 -38 -20.5 -65.5t-45 -42.5t-68.5 -15q-62 0 -94.5 32.5t-37.5 90.5h39q3 -26 14 -43t31 -24.5t48 -7.5q42 0 66 18t28 57h40z" />
    <glyph glyph-name="Edotaccent" unicode="&#x116;" horiz-adv-x="521" 
d="M464 0h-370v714h370v-52h-312v-261h294v-52h-294v-297h312v-52zM287 911q19 0 28.5 -11.5t9.5 -31.5q0 -21 -9.5 -32.5t-28.5 -11.5q-18 0 -28 11.5t-10 32.5q0 20 10 31.5t28 11.5z" />
    <glyph glyph-name="edotaccent" unicode="&#x117;" horiz-adv-x="520" 
d="M273 542q64 0 107.5 -31.5t65.5 -86.5t22 -126v-39h-356q1 -106 46.5 -162.5t130.5 -56.5q47 0 82 8.5t76 27.5v-52q-37 -17 -74 -25.5t-86 -8.5q-75 0 -127 33t-79.5 94.5t-27.5 144.5q0 81 26 144.5t75 99.5t119 36zM273 494q-68 0 -110 -48.5t-49 -139.5h295
q0 56 -14.5 98t-45 66t-76.5 24zM262 729q19 0 28.5 -11.5t9.5 -31.5q0 -21 -9.5 -32.5t-28.5 -11.5q-18 0 -28 11.5t-10 32.5q0 20 10 31.5t28 11.5z" />
    <glyph glyph-name="Eogonek" unicode="&#x118;" horiz-adv-x="521" 
d="M464 0h-370v714h370v-52h-312v-261h294v-52h-294v-297h312v-52zM383 -123q0 -26 12.5 -39.5t35.5 -13.5q15 0 26.5 2t19.5 4v-40q-11 -3 -24 -5.5t-30 -2.5q-27 0 -47 10t-30.5 30t-10.5 48q0 26 12 51.5t33 48.5t46 43l32 -13q-31 -29 -53 -59t-22 -64z" />
    <glyph glyph-name="eogonek" unicode="&#x119;" horiz-adv-x="520" 
d="M344 -122q0 -26 13.5 -39.5t38.5 -13.5q15 0 27.5 2t20.5 4v-40q-11 -3 -24.5 -5.5t-31.5 -2.5q-44 0 -68.5 22.5t-24.5 65.5q0 26 12.5 52t34 50.5t49.5 46.5l53 4q-34 -29 -56.5 -53.5t-33 -47t-10.5 -45.5zM273 542q64 0 107.5 -31.5t65.5 -86.5t22 -126v-39h-356
q1 -106 46.5 -162.5t130.5 -56.5q47 0 82 8.5t76 27.5v-52q-37 -17 -74 -25.5t-86 -8.5q-75 0 -127 33t-79.5 94.5t-27.5 144.5q0 81 26 144.5t75 99.5t119 36zM273 494q-68 0 -110 -48.5t-49 -139.5h295q0 56 -14.5 98t-45 66t-76.5 24z" />
    <glyph glyph-name="Ecaron" unicode="&#x11a;" horiz-adv-x="521" 
d="M464 0h-370v714h370v-52h-312v-261h294v-52h-294v-297h312v-52zM429 937q-18 -19 -40 -46t-42 -54t-32 -49h-57q-11 22 -31 49t-41.5 54t-39.5 46v10h40q26 -23 52.5 -52t47.5 -57q23 28 49.5 57t51.5 52h42v-10z" />
    <glyph glyph-name="ecaron" unicode="&#x11b;" horiz-adv-x="520" 
d="M273 542q64 0 107.5 -31.5t65.5 -86.5t22 -126v-39h-356q1 -106 46.5 -162.5t130.5 -56.5q47 0 82 8.5t76 27.5v-52q-37 -17 -74 -25.5t-86 -8.5q-75 0 -127 33t-79.5 94.5t-27.5 144.5q0 81 26 144.5t75 99.5t119 36zM273 494q-68 0 -110 -48.5t-49 -139.5h295
q0 56 -14.5 98t-45 66t-76.5 24zM404 755q-18 -19 -40 -46t-42 -54t-32 -49h-57q-11 22 -31 49t-41.5 54t-39.5 46v10h40q26 -23 52.5 -52t47.5 -57q23 28 49.5 57t51.5 52h42v-10z" />
    <glyph glyph-name="Gcircumflex" unicode="&#x11c;" horiz-adv-x="681" 
d="M363 364h245v-332q-50 -21 -105 -31.5t-118 -10.5q-106 0 -179 43.5t-110.5 125.5t-37.5 197q0 109 41 192t118 130t185 47q55 0 104.5 -10.5t93.5 -32.5l-23 -51q-41 21 -86 31.5t-91 10.5q-88 0 -151 -40t-96.5 -111t-33.5 -165q0 -103 31 -173.5t93 -106t153 -35.5
q32 0 59.5 3t51 9t43.5 14v243h-187v53zM412 953q12 -21 31.5 -48.5t41.5 -54.5t40 -47v-9h-42q-25 22 -51 51t-49 57q-23 -28 -49 -56.5t-52 -51.5h-40v9q18 20 39.5 47t41.5 54.5t32 48.5h57z" />
    <glyph glyph-name="gcircumflex" unicode="&#x11d;" horiz-adv-x="564" 
d="M265 542q59 0 97 -24t62 -67h4l8 81h46v-549q0 -69 -22.5 -119t-70 -77t-124.5 -27q-56 0 -99.5 10t-79.5 26v55q24 -12 52.5 -21.5t61 -15t67.5 -5.5q81 0 120 46.5t39 124.5v31q0 21 0.5 42.5t1.5 40.5h-3q-21 -51 -63.5 -77.5t-102.5 -26.5q-97 0 -151.5 70.5
t-54.5 201.5q0 86 24.5 149t72 97t115.5 34zM272 493q-53 0 -88.5 -27.5t-53.5 -79t-18 -125.5q0 -108 40 -165t115 -57q45 0 76 15.5t49 43.5t26 66t8 82v35q0 68 -15 115t-49 72t-90 25zM306 765q12 -21 31.5 -48.5t41.5 -54.5t40 -47v-9h-42q-25 22 -51 51t-49 57
q-23 -28 -49 -56.5t-52 -51.5h-40v9q18 20 39.5 47t41.5 54.5t32 48.5h57z" />
    <glyph glyph-name="Gbreve" unicode="&#x11e;" horiz-adv-x="681" 
d="M363 364h245v-332q-50 -21 -105 -31.5t-118 -10.5q-106 0 -179 43.5t-110.5 125.5t-37.5 197q0 109 41 192t118 130t185 47q55 0 104.5 -10.5t93.5 -32.5l-23 -51q-41 21 -86 31.5t-91 10.5q-88 0 -151 -40t-96.5 -111t-33.5 -165q0 -103 31 -173.5t93 -106t153 -35.5
q32 0 59.5 3t51 9t43.5 14v243h-187v53zM516 917q-4 -38 -20.5 -65.5t-45 -42.5t-68.5 -15q-62 0 -94.5 32.5t-37.5 90.5h39q3 -26 14 -43t31 -24.5t48 -7.5q42 0 66 18t28 57h40z" />
    <glyph glyph-name="gbreve" unicode="&#x11f;" horiz-adv-x="564" 
d="M265 542q59 0 97 -24t62 -67h4l8 81h46v-549q0 -69 -22.5 -119t-70 -77t-124.5 -27q-56 0 -99.5 10t-79.5 26v55q24 -12 52.5 -21.5t61 -15t67.5 -5.5q81 0 120 46.5t39 124.5v31q0 21 0.5 42.5t1.5 40.5h-3q-21 -51 -63.5 -77.5t-102.5 -26.5q-97 0 -151.5 70.5
t-54.5 201.5q0 86 24.5 149t72 97t115.5 34zM272 493q-53 0 -88.5 -27.5t-53.5 -79t-18 -125.5q0 -108 40 -165t115 -57q45 0 76 15.5t49 43.5t26 66t8 82v35q0 68 -15 115t-49 72t-90 25zM410 729q-4 -38 -20.5 -65.5t-45 -42.5t-68.5 -15q-62 0 -94.5 32.5t-37.5 90.5h39
q3 -26 14 -43t31 -24.5t48 -7.5q42 0 66 18t28 57h40z" />
    <glyph glyph-name="Gdot" unicode="&#x120;" horiz-adv-x="681" 
d="M363 364h245v-332q-50 -21 -105 -31.5t-118 -10.5q-106 0 -179 43.5t-110.5 125.5t-37.5 197q0 109 41 192t118 130t185 47q55 0 104.5 -10.5t93.5 -32.5l-23 -51q-41 21 -86 31.5t-91 10.5q-88 0 -151 -40t-96.5 -111t-33.5 -165q0 -103 31 -173.5t93 -106t153 -35.5
q32 0 59.5 3t51 9t43.5 14v243h-187v53zM383 917q19 0 28.5 -11.5t9.5 -31.5q0 -21 -9.5 -32.5t-28.5 -11.5q-18 0 -28 11.5t-10 32.5q0 20 10 31.5t28 11.5z" />
    <glyph glyph-name="gdot" unicode="&#x121;" horiz-adv-x="564" 
d="M265 542q59 0 97 -24t62 -67h4l8 81h46v-549q0 -69 -22.5 -119t-70 -77t-124.5 -27q-56 0 -99.5 10t-79.5 26v55q24 -12 52.5 -21.5t61 -15t67.5 -5.5q81 0 120 46.5t39 124.5v31q0 21 0.5 42.5t1.5 40.5h-3q-21 -51 -63.5 -77.5t-102.5 -26.5q-97 0 -151.5 70.5
t-54.5 201.5q0 86 24.5 149t72 97t115.5 34zM272 493q-53 0 -88.5 -27.5t-53.5 -79t-18 -125.5q0 -108 40 -165t115 -57q45 0 76 15.5t49 43.5t26 66t8 82v35q0 68 -15 115t-49 72t-90 25zM277 729q19 0 28.5 -11.5t9.5 -31.5q0 -21 -9.5 -32.5t-28.5 -11.5q-18 0 -28 11.5
t-10 32.5q0 20 10 31.5t28 11.5z" />
    <glyph glyph-name="uni0122" unicode="&#x122;" horiz-adv-x="681" 
d="M363 364h245v-332q-50 -21 -105 -31.5t-118 -10.5q-106 0 -179 43.5t-110.5 125.5t-37.5 197q0 109 41 192t118 130t185 47q55 0 104.5 -10.5t93.5 -32.5l-23 -51q-41 21 -86 31.5t-91 10.5q-88 0 -151 -40t-96.5 -111t-33.5 -165q0 -103 31 -173.5t93 -106t153 -35.5
q32 0 59.5 3t51 9t43.5 14v243h-187v53zM413 -68q-5 -22 -14.5 -49t-22.5 -54t-29 -50h-32v9q7 16 15.5 43.5t15.5 57t10 50.5h57v-7z" />
    <glyph glyph-name="uni0123" unicode="&#x123;" horiz-adv-x="599" 
d="M335 756q-7 -16 -15.5 -43.5t-15.5 -56.5t-10 -51h-58v7q6 22 15.5 49t22.5 54t28 50h33v-9zM265 542q59 0 97 -24t62 -67h4l8 81h46v-549q0 -69 -22.5 -119t-70 -77t-124.5 -27q-56 0 -99.5 10t-79.5 26v55q24 -12 52.5 -21.5t61 -15t67.5 -5.5q81 0 120 46.5t39 124.5
v31q0 21 0.5 42.5t1.5 40.5h-3q-21 -51 -63.5 -77.5t-102.5 -26.5q-97 0 -151.5 70.5t-54.5 201.5q0 86 24.5 149t72 97t115.5 34zM272 493q-53 0 -88.5 -27.5t-53.5 -79t-18 -125.5q0 -108 40 -165t115 -57q45 0 76 15.5t49 43.5t26 66t8 82v35q0 68 -15 115t-49 72t-90 25
z" />
    <glyph glyph-name="Hcircumflex" unicode="&#x124;" horiz-adv-x="683" 
d="M588 0h-58v348h-378v-348h-58v714h58v-314h378v314h58v-714zM371 947q12 -21 31.5 -48.5t41.5 -54.5t40 -47v-9h-42q-25 22 -51 51t-49 57q-23 -28 -49 -56.5t-52 -51.5h-40v9q18 20 39.5 47t41.5 54.5t32 48.5h57z" />
    <glyph glyph-name="hcircumflex" unicode="&#x125;" horiz-adv-x="562" 
d="M139 517q0 -21 -1 -39.5t-3 -37.5h4q14 30 37.5 52.5t56.5 36t74 13.5q58 0 97.5 -20.5t60 -63.5t20.5 -110v-348h-57v344q0 77 -32.5 113t-94.5 36q-54 0 -90.5 -22.5t-54 -68t-17.5 -112.5v-290h-57v760h57v-243zM140 993q12 -21 31.5 -48.5t41.5 -54.5t40 -47v-9h-42
q-25 22 -51 51t-49 57q-23 -28 -49 -56.5t-52 -51.5h-40v9q18 20 39.5 47t41.5 54.5t32 48.5h57z" />
    <glyph glyph-name="Hbar" unicode="&#x126;" horiz-adv-x="682" 
d="M94 0v536h-94v49h94v129h58v-129h378v129h58v-129h93v-49h-93v-536h-58v348h-378v-348h-58zM152 400h378v136h-378v-136z" />
    <glyph glyph-name="hbar" unicode="&#x127;" horiz-adv-x="563" 
d="M140 760v-97h210v-46h-210v-110q0 -21 -1 -39.5t-3 -37.5h4q13 30 36.5 53t57 36t75.5 13q57 0 96.5 -20.5t59.5 -63.5t20 -110v-338h-56v334q0 77 -32.5 113t-94.5 36q-55 0 -91 -22.5t-53.5 -67.5t-17.5 -113v-280h-58v617h-70v46h70v97h58z" />
    <glyph glyph-name="Itilde" unicode="&#x128;" horiz-adv-x="295" 
d="M248 0h-201v36l72 11v619l-72 12v36h201v-36l-71 -12v-619l71 -11v-36zM313 908q-5 -54 -30 -84t-65 -30q-22 0 -40 10t-34.5 23t-32.5 23t-34 10q-20 0 -34.5 -14.5t-19.5 -51.5h-38q3 28 10.5 49t19.5 35t28.5 21.5t36.5 7.5q22 0 40.5 -10t35 -23t32 -23t32.5 -10
q21 0 36 14.5t20 52.5h37z" />
    <glyph glyph-name="itilde" unicode="&#x129;" horiz-adv-x="221" 
d="M139 0h-57v532h57v-532zM275 726q-5 -54 -30 -84t-65 -30q-22 0 -40 10t-34.5 23t-32.5 23t-34 10q-20 0 -34.5 -14.5t-19.5 -51.5h-38q3 28 10.5 49t19.5 35t28.5 21.5t36.5 7.5q22 0 40.5 -10t35 -23t32 -23t32.5 -10q21 0 36 14.5t20 52.5h37z" />
    <glyph glyph-name="Imacron" unicode="&#x12a;" horiz-adv-x="295" 
d="M248 0h-201v36l72 11v619l-72 12v36h201v-36l-71 -12v-619l71 -11v-36zM280 840v-48h-262v48h262z" />
    <glyph glyph-name="imacron" unicode="&#x12b;" horiz-adv-x="221" 
d="M139 0h-57v532h57v-532zM242 658v-48h-262v48h262z" />
    <glyph glyph-name="Ibreve" unicode="&#x12c;" horiz-adv-x="295" 
d="M248 0h-201v36l72 11v619l-72 12v36h201v-36l-71 -12v-619l71 -11v-36zM281 911q-4 -38 -20.5 -65.5t-45 -42.5t-68.5 -15q-62 0 -94.5 32.5t-37.5 90.5h39q3 -26 14 -43t31 -24.5t48 -7.5q42 0 66 18t28 57h40z" />
    <glyph glyph-name="ibreve" unicode="&#x12d;" horiz-adv-x="221" 
d="M139 0h-57v532h57v-532zM244 729q-4 -38 -20.5 -65.5t-45 -42.5t-68.5 -15q-62 0 -94.5 32.5t-37.5 90.5h39q3 -26 14 -43t31 -24.5t48 -7.5q42 0 66 18t28 57h40z" />
    <glyph glyph-name="Iogonek" unicode="&#x12e;" horiz-adv-x="295" 
d="M248 0h-201v36l72 11v619l-72 12v36h201v-36l-71 -12v-619l71 -11v-36zM151 -123q0 -26 12.5 -39.5t35.5 -13.5q15 0 26.5 2t19.5 4v-40q-11 -3 -24 -5.5t-30 -2.5q-27 0 -47 10t-30.5 30t-10.5 48q0 26 12 51.5t33 48.5t46 43l32 -13q-31 -29 -53 -59t-22 -64z" />
    <glyph glyph-name="iogonek" unicode="&#x12f;" horiz-adv-x="221" 
d="M139 532v-532h-57v532h57zM111 729q19 0 28.5 -11.5t9.5 -31.5q0 -21 -9.5 -32.5t-28.5 -11.5q-18 0 -28 11.5t-10 32.5q0 20 10 31.5t28 11.5zM64 -123q0 -26 12.5 -39.5t35.5 -13.5q15 0 26.5 2t19.5 4v-40q-11 -3 -24 -5.5t-30 -2.5q-27 0 -47 10t-30.5 30t-10.5 48
q0 26 12 51.5t33 48.5t46 43l32 -13q-31 -29 -53 -59t-22 -64z" />
    <glyph glyph-name="Idotaccent" unicode="&#x130;" horiz-adv-x="295" 
d="M248 0h-201v36l72 11v619l-72 12v36h201v-36l-71 -12v-619l71 -11v-36zM148 911q19 0 28.5 -11.5t9.5 -31.5q0 -21 -9.5 -32.5t-28.5 -11.5q-18 0 -28 11.5t-10 32.5q0 20 10 31.5t28 11.5z" />
    <glyph glyph-name="dotlessi" unicode="&#x131;" horiz-adv-x="221" 
d="M139 0h-57v532h57v-532z" />
    <glyph glyph-name="IJ" unicode="&#x132;" horiz-adv-x="548" 
d="M248 0h-201v36l72 11v619l-72 12v36h201v-36l-71 -12v-619l71 -11v-36zM294 -182q-25 0 -42.5 4t-30.5 9v52q14 -5 32.5 -8.5t38.5 -3.5q34 0 57 14.5t35 44.5t12 75v709h58v-707q0 -59 -18 -101.5t-53.5 -65t-88.5 -22.5z" />
    <glyph glyph-name="ij" unicode="&#x133;" horiz-adv-x="453" 
d="M139 532v-532h-57v532h57zM111 729q19 0 28.5 -11.5t9.5 -31.5q0 -21 -9.5 -32.5t-28.5 -11.5q-18 0 -28 11.5t-10 32.5q0 20 10 31.5t28 11.5zM244 -240q-21 0 -37.5 3.5t-28.5 7.5v49q14 -6 28.5 -8.5t31.5 -2.5q34 0 53 22t19 70v631h57v-632q0 -45 -14.5 -76.5
t-42 -47.5t-66.5 -16zM301 686q0 20 10 31.5t27 11.5q19 0 29 -11.5t10 -31.5q0 -21 -10 -32.5t-29 -11.5q-17 0 -27 11.5t-10 32.5z" />
    <glyph glyph-name="Jcircumflex" unicode="&#x134;" horiz-adv-x="240" 
d="M-9 -182q-25 0 -42.5 4t-30.5 9v52q14 -5 32.5 -8.5t38.5 -3.5q34 0 57 14.5t35 44.5t12 75v709h58v-707q0 -59 -18 -101.5t-53.5 -65t-88.5 -22.5zM151 947q12 -21 31.5 -48.5t41.5 -54.5t40 -47v-9h-42q-25 22 -51 51t-49 57q-23 -28 -49 -56.5t-52 -51.5h-40v9
q18 20 39.5 47t41.5 54.5t32 48.5h57z" />
    <glyph glyph-name="jcircumflex" unicode="&#x135;" horiz-adv-x="222" 
d="M17 -240q-21 0 -37.5 3.5t-28.5 7.5v49q14 -6 28.5 -8.5t31.5 -2.5q34 0 53 22t19 70v631h57v-632q0 -45 -14.5 -76.5t-42 -47.5t-66.5 -16zM140 765q12 -21 31.5 -48.5t41.5 -54.5t40 -47v-9h-42q-25 22 -51 51t-49 57q-23 -28 -49 -56.5t-52 -51.5h-40v9q18 20 39.5 47
t41.5 54.5t32 48.5h57z" />
    <glyph glyph-name="uni0136" unicode="&#x136;" horiz-adv-x="557" 
d="M557 0h-70l-252 370l-83 -85v-285h-58v714h58v-371q19 24 39.5 47t41.5 47l245 277h71l-272 -304zM344 -68q-5 -22 -14.5 -49t-22.5 -54t-29 -50h-32v9q7 16 15.5 43.5t15.5 57t10 50.5h57v-7z" />
    <glyph glyph-name="uni0137" unicode="&#x137;" horiz-adv-x="469" 
d="M138 374q0 -32 -0.5 -66.5t-1.5 -67.5h1q9 10 18.5 22.5t19.5 25.5t20 24l188 220h68l-199 -228l215 -304h-68l-186 267l-75 -82v-185h-56v760h56v-386zM291 -68q-5 -22 -14.5 -49t-22.5 -54t-29 -50h-32v9q7 16 15.5 43.5t15.5 57t10 50.5h57v-7z" />
    <glyph glyph-name="kgreenlandic" unicode="&#x138;" horiz-adv-x="469" 
d="M450 532l-192 -232l209 -300h-67l-181 263l-78 -83v-180h-59v532h59v-141q0 -44 -1 -84.5t-2 -74.5v0q13 17 23.5 30.5t22.5 27.5l197 242h69z" />
    <glyph glyph-name="Lacute" unicode="&#x139;" horiz-adv-x="487" 
d="M94 0v714h58v-661h313v-53h-371zM257 940q-11 -16 -27 -35.5t-35 -40.5t-39 -40.5t-38 -35.5h-39v9q18 20 39 47t40 55t31 49h68v-8z" />
    <glyph glyph-name="lacute" unicode="&#x13a;" horiz-adv-x="221" 
d="M139 0h-57v760h57v-760zM245 986q-11 -16 -27 -35.5t-35 -40.5t-39 -40.5t-38 -35.5h-39v9q18 20 39 47t40 55t31 49h68v-8z" />
    <glyph glyph-name="uni013B" unicode="&#x13b;" horiz-adv-x="487" 
d="M94 0v714h58v-661h313v-53h-371zM311 -68q-5 -22 -14.5 -49t-22.5 -54t-29 -50h-32v9q7 16 15.5 43.5t15.5 57t10 50.5h57v-7z" />
    <glyph glyph-name="uni013C" unicode="&#x13c;" horiz-adv-x="221" 
d="M139 0h-57v760h57v-760zM147 -68q-5 -22 -14.5 -49t-22.5 -54t-29 -50h-32v9q7 16 15.5 43.5t15.5 57t10 50.5h57v-7z" />
    <glyph glyph-name="Lcaron" unicode="&#x13d;" horiz-adv-x="515" 
d="M469 707q-5 -22 -14.5 -49t-21.5 -54t-26 -50h-33v9q6 13 11.5 32t10.5 40.5t9.5 42t6.5 36.5h57v-7zM94 0v714h58v-661h313v-53h-371z" />
    <glyph glyph-name="lcaron" unicode="&#x13e;" horiz-adv-x="233" 
d="M266 753q-4 -22 -13.5 -49t-22 -54t-26.5 -50h-32v9q5 13 10.5 32t11 40.5t9.5 42t6 36.5h57v-7zM139 0h-57v760h57v-760z" />
    <glyph glyph-name="Ldot" unicode="&#x13f;" horiz-adv-x="487" 
d="M94 0v714h58v-661h313v-53h-371zM360 429q19 0 28.5 -11.5t9.5 -31.5q0 -21 -9.5 -32.5t-28.5 -11.5q-18 0 -28 11.5t-10 32.5q0 20 10 31.5t28 11.5z" />
    <glyph glyph-name="ldot" unicode="&#x140;" horiz-adv-x="238" 
d="M139 0h-57v760h57v-760zM229 428q19 0 28.5 -11.5t9.5 -31.5q0 -21 -9.5 -32.5t-28.5 -11.5q-18 0 -28 11.5t-10 32.5q0 20 10 31.5t28 11.5z" />
    <glyph glyph-name="Lslash" unicode="&#x141;" horiz-adv-x="486" 
d="M94 0v265l-59 -39l-24 41l83 55v392h58v-357l142 95l25 -42l-167 -110v-247h313v-53h-371z" />
    <glyph glyph-name="lslash" unicode="&#x142;" horiz-adv-x="221" 
d="M81 0v312l-56 -40l-25 40l81 56v392h57v-356l67 49l24 -39l-91 -65v-349h-57z" />
    <glyph glyph-name="Nacute" unicode="&#x143;" horiz-adv-x="689" 
d="M595 0h-63l-385 624h-3q1 -20 2 -40.5t1.5 -42.5t1 -44.5t0.5 -45.5v-451h-55v714h63l384 -622h3q0 16 -1 36t-1.5 43t-1 46.5t-0.5 43.5v453h55v-714zM479 940q-11 -16 -27 -35.5t-35 -40.5t-39 -40.5t-38 -35.5h-39v9q18 20 39 47t40 55t31 49h68v-8z" />
    <glyph glyph-name="nacute" unicode="&#x144;" horiz-adv-x="562" 
d="M309 542q85 0 130.5 -46.5t45.5 -147.5v-348h-57v344q0 77 -32.5 113t-94.5 36q-81 0 -121.5 -51t-40.5 -152v-290h-57v532h46l8 -92h4q13 30 37 53t57 36t75 13zM415 758q-11 -16 -27 -35.5t-35 -40.5t-39 -40.5t-38 -35.5h-39v9q18 20 39 47t40 55t31 49h68v-8z" />
    <glyph glyph-name="uni0145" unicode="&#x145;" horiz-adv-x="689" 
d="M595 0h-63l-385 624h-3q1 -20 2 -40.5t1.5 -42.5t1 -44.5t0.5 -45.5v-451h-55v714h63l384 -622h3q0 16 -1 36t-1.5 43t-1 46.5t-0.5 43.5v453h55v-714zM381 -68q-5 -22 -14.5 -49t-22.5 -54t-29 -50h-32v9q7 16 15.5 43.5t15.5 57t10 50.5h57v-7z" />
    <glyph glyph-name="uni0146" unicode="&#x146;" horiz-adv-x="562" 
d="M309 542q85 0 130.5 -46.5t45.5 -147.5v-348h-57v344q0 77 -32.5 113t-94.5 36q-81 0 -121.5 -51t-40.5 -152v-290h-57v532h46l8 -92h4q13 30 37 53t57 36t75 13zM317 -68q-5 -22 -14.5 -49t-22.5 -54t-29 -50h-32v9q7 16 15.5 43.5t15.5 57t10 50.5h57v-7z" />
    <glyph glyph-name="Ncaron" unicode="&#x147;" horiz-adv-x="689" 
d="M595 0h-63l-385 624h-3q1 -20 2 -40.5t1.5 -42.5t1 -44.5t0.5 -45.5v-451h-55v714h63l384 -622h3q0 16 -1 36t-1.5 43t-1 46.5t-0.5 43.5v453h55v-714zM487 937q-18 -19 -40 -46t-42 -54t-32 -49h-57q-11 22 -31 49t-41.5 54t-39.5 46v10h40q26 -23 52.5 -52t47.5 -57
q23 28 49.5 57t51.5 52h42v-10z" />
    <glyph glyph-name="ncaron" unicode="&#x148;" horiz-adv-x="562" 
d="M309 542q85 0 130.5 -46.5t45.5 -147.5v-348h-57v344q0 77 -32.5 113t-94.5 36q-81 0 -121.5 -51t-40.5 -152v-290h-57v532h46l8 -92h4q13 30 37 53t57 36t75 13zM423 755q-18 -19 -40 -46t-42 -54t-32 -49h-57q-11 22 -31 49t-41.5 54t-39.5 46v10h40q26 -23 52.5 -52
t47.5 -57q23 28 49.5 57t51.5 52h42v-10z" />
    <glyph glyph-name="napostrophe" unicode="&#x149;" horiz-adv-x="634" 
d="M381 542q85 0 130.5 -46.5t45.5 -147.5v-348h-57v344q0 77 -32.5 113t-94.5 36q-81 0 -121.5 -51t-40.5 -152v-290h-57v532h46l8 -92h4q13 30 37 53t57 36t75 13zM116 704q-7 -38 -19 -79t-26.5 -80.5t-29.5 -75.5h-41q9 27 17.5 59t15 64.5t12 64t8.5 57.5h57z" />
    <glyph glyph-name="Eng" unicode="&#x14a;" horiz-adv-x="689" 
d="M434 -182q-22 0 -41.5 4t-32.5 9v51q15 -5 34 -8t39 -3q32 0 56 13t37.5 43t13.5 78l-393 619h-3q1 -18 2 -39.5t1.5 -45t1 -47.5t0.5 -47v-445h-55v714h63l384 -612h3q0 17 -1 38t-1.5 44t-1 46.5t-0.5 46.5v437h55v-709q0 -61 -19 -103t-55 -63t-87 -21z" />
    <glyph glyph-name="eng" unicode="&#x14b;" horiz-adv-x="562" 
d="M366 -240q-20 0 -35.5 3.5t-27.5 7.5v49q14 -6 28 -8.5t29 -2.5q32 0 50 22t18 70v444q0 76 -32 112t-94 36q-55 0 -91 -22.5t-54 -67.5t-18 -112v-291h-57v532h46l8 -92h4q14 30 37.5 53t56 36t74.5 13q58 0 97.5 -20.5t59.5 -63t20 -110.5v-448q0 -45 -14 -76.5
t-40.5 -47.5t-64.5 -16z" />
    <glyph glyph-name="Omacron" unicode="&#x14c;" horiz-adv-x="723" 
d="M664 358q0 -82 -19 -149t-57 -116.5t-95 -76t-132 -26.5q-76 0 -133 27t-94.5 76t-56.5 116.5t-19 149.5q0 109 34.5 191.5t103 128.5t168.5 46q97 0 164 -44.5t101.5 -126.5t34.5 -196zM119 359q0 -95 26 -166.5t80 -111t137 -39.5t136.5 39t79 110.5t25.5 166.5
q0 149 -59.5 232t-179.5 83q-83 0 -137.5 -39t-81 -110t-26.5 -165zM493 851v-48h-262v48h262z" />
    <glyph glyph-name="omacron" unicode="&#x14d;" horiz-adv-x="556" 
d="M503 267q0 -63 -15 -113.5t-43.5 -87t-71 -56.5t-97.5 -20q-51 0 -92.5 19.5t-70.5 56t-44.5 87.5t-15.5 114q0 86 27.5 147.5t78.5 94.5t122 33q72 0 121 -34.5t75 -96t26 -144.5zM112 267q0 -68 18 -119.5t54.5 -80t92.5 -28.5q58 0 94.5 28.5t54.5 80t18 119.5
q0 66 -17 117t-53 80t-94 29q-84 0 -126 -60t-42 -166zM410 658v-48h-262v48h262z" />
    <glyph glyph-name="Obreve" unicode="&#x14e;" horiz-adv-x="723" 
d="M664 358q0 -82 -19 -149t-57 -116.5t-95 -76t-132 -26.5q-76 0 -133 27t-94.5 76t-56.5 116.5t-19 149.5q0 109 34.5 191.5t103 128.5t168.5 46q97 0 164 -44.5t101.5 -126.5t34.5 -196zM119 359q0 -95 26 -166.5t80 -111t137 -39.5t136.5 39t79 110.5t25.5 166.5
q0 149 -59.5 232t-179.5 83q-83 0 -137.5 -39t-81 -110t-26.5 -165zM495 922q-4 -38 -20.5 -65.5t-45 -42.5t-68.5 -15q-62 0 -94.5 32.5t-37.5 90.5h39q3 -26 14 -43t31 -24.5t48 -7.5q42 0 66 18t28 57h40z" />
    <glyph glyph-name="obreve" unicode="&#x14f;" horiz-adv-x="556" 
d="M503 267q0 -63 -15 -113.5t-43.5 -87t-71 -56.5t-97.5 -20q-51 0 -92.5 19.5t-70.5 56t-44.5 87.5t-15.5 114q0 86 27.5 147.5t78.5 94.5t122 33q72 0 121 -34.5t75 -96t26 -144.5zM112 267q0 -68 18 -119.5t54.5 -80t92.5 -28.5q58 0 94.5 28.5t54.5 80t18 119.5
q0 66 -17 117t-53 80t-94 29q-84 0 -126 -60t-42 -166zM411 729q-4 -38 -20.5 -65.5t-45 -42.5t-68.5 -15q-62 0 -94.5 32.5t-37.5 90.5h39q3 -26 14 -43t31 -24.5t48 -7.5q42 0 66 18t28 57h40z" />
    <glyph glyph-name="Ohungarumlaut" unicode="&#x150;" horiz-adv-x="723" 
d="M664 358q0 -82 -19 -149t-57 -116.5t-95 -76t-132 -26.5q-76 0 -133 27t-94.5 76t-56.5 116.5t-19 149.5q0 109 34.5 191.5t103 128.5t168.5 46q97 0 164 -44.5t101.5 -126.5t34.5 -196zM119 359q0 -95 26 -166.5t80 -111t137 -39.5t136.5 39t79 110.5t25.5 166.5
q0 149 -59.5 232t-179.5 83q-83 0 -137.5 -39t-81 -110t-26.5 -165zM519 951q-9 -16 -23 -35.5t-30.5 -41t-33.5 -40.5t-33 -35h-35v9q15 20 32.5 46.5t33.5 54.5t26 50h63v-8zM360 951q-9 -16 -22.5 -35.5t-30.5 -41t-34 -40.5t-33 -35h-35v9q15 20 32.5 46.5t33.5 54.5
t26 50h63v-8z" />
    <glyph glyph-name="ohungarumlaut" unicode="&#x151;" horiz-adv-x="556" 
d="M503 267q0 -63 -15 -113.5t-43.5 -87t-71 -56.5t-97.5 -20q-51 0 -92.5 19.5t-70.5 56t-44.5 87.5t-15.5 114q0 86 27.5 147.5t78.5 94.5t122 33q72 0 121 -34.5t75 -96t26 -144.5zM112 267q0 -68 18 -119.5t54.5 -80t92.5 -28.5q58 0 94.5 28.5t54.5 80t18 119.5
q0 66 -17 117t-53 80t-94 29q-84 0 -126 -60t-42 -166zM435 758q-9 -16 -23 -35.5t-30.5 -41t-33.5 -40.5t-33 -35h-35v9q15 20 32.5 46.5t33.5 54.5t26 50h63v-8zM276 758q-9 -16 -22.5 -35.5t-30.5 -41t-34 -40.5t-33 -35h-35v9q15 20 32.5 46.5t33.5 54.5t26 50h63v-8z
" />
    <glyph glyph-name="OE" unicode="&#x152;" horiz-adv-x="861" 
d="M359 721q16 0 30.5 -1t28.5 -2.5t29 -3.5h357v-52h-302v-261h283v-52h-283v-297h302v-52h-359q-12 -1 -26 -2.5t-28.5 -2.5t-30.5 -1q-101 0 -168 45.5t-100.5 128t-33.5 191.5q0 110 34.5 191t101.5 126t165 45zM363 669q-62 0 -108 -21.5t-76.5 -62.5t-45 -98
t-14.5 -128q0 -96 26 -166.5t80 -109t136 -38.5q25 0 46 3t37 8v603q-14 5 -35 7.5t-46 2.5z" />
    <glyph glyph-name="oe" unicode="&#x153;" horiz-adv-x="900" 
d="M653 542q64 0 107 -31.5t65 -86.5t22 -126v-39h-351q1 -109 45 -164t128 -55q48 0 82.5 8.5t74.5 27.5v-52q-37 -17 -73.5 -25.5t-84.5 -8.5q-77 0 -126.5 38t-73.5 105q-24 -66 -72.5 -104.5t-121.5 -38.5q-68 0 -118 34.5t-76.5 96.5t-26.5 146q0 86 27 147.5
t77.5 94.5t121.5 33q72 0 119 -39t69 -105q16 43 41.5 75.5t62 50.5t82.5 18zM276 493q-82 0 -123 -58.5t-41 -167.5q0 -70 17.5 -121.5t53.5 -79t92 -27.5t92 27.5t53.5 78.5t17.5 120t-17 120t-52 79.5t-93 28.5zM653 493q-67 0 -108 -47.5t-48 -139.5h291q0 56 -14.5 98
t-44.5 65.5t-76 23.5z" />
    <glyph glyph-name="Racute" unicode="&#x154;" horiz-adv-x="567" 
d="M263 714q81 0 135 -19.5t80.5 -62.5t26.5 -114q0 -55 -18.5 -93.5t-50.5 -63t-73 -37.5l185 -324h-69l-170 308h-157v-308h-58v714h169zM258 663h-106v-305h124q54 0 92 18.5t57.5 53.5t19.5 86q0 55 -20.5 87t-62 46t-104.5 14zM418 940q-11 -16 -27 -35.5t-35 -40.5
t-39 -40.5t-38 -35.5h-39v9q18 20 39 47t40 55t31 49h68v-8z" />
    <glyph glyph-name="racute" unicode="&#x155;" horiz-adv-x="373" 
d="M291 541q18 0 35.5 -2t31.5 -6l-8 -53q-15 4 -30 6.5t-32 2.5q-34 0 -61.5 -14t-47 -40t-30 -62t-10.5 -81v-292h-57v532h48l6 -99h3q13 30 34 54.5t51 39t67 14.5zM367 758q-11 -16 -27 -35.5t-35 -40.5t-39 -40.5t-38 -35.5h-39v9q18 20 39 47t40 55t31 49h68v-8z" />
    <glyph glyph-name="uni0156" unicode="&#x156;" horiz-adv-x="567" 
d="M263 714q81 0 135 -19.5t80.5 -62.5t26.5 -114q0 -55 -18.5 -93.5t-50.5 -63t-73 -37.5l185 -324h-69l-170 308h-157v-308h-58v714h169zM258 663h-106v-305h124q54 0 92 18.5t57.5 53.5t19.5 86q0 55 -20.5 87t-62 46t-104.5 14zM332 -68q-5 -22 -14.5 -49t-22.5 -54
t-29 -50h-32v9q7 16 15.5 43.5t15.5 57t10 50.5h57v-7z" />
    <glyph glyph-name="uni0157" unicode="&#x157;" horiz-adv-x="373" 
d="M291 541q18 0 35.5 -2t31.5 -6l-8 -53q-15 4 -30 6.5t-32 2.5q-34 0 -61.5 -14t-47 -40t-30 -62t-10.5 -81v-292h-57v532h48l6 -99h3q13 30 34 54.5t51 39t67 14.5zM145 -68q-5 -22 -14.5 -49t-22.5 -54t-29 -50h-32v9q7 16 15.5 43.5t15.5 57t10 50.5h57v-7z" />
    <glyph glyph-name="Rcaron" unicode="&#x158;" horiz-adv-x="567" 
d="M263 714q81 0 135 -19.5t80.5 -62.5t26.5 -114q0 -55 -18.5 -93.5t-50.5 -63t-73 -37.5l185 -324h-69l-170 308h-157v-308h-58v714h169zM258 663h-106v-305h124q54 0 92 18.5t57.5 53.5t19.5 86q0 55 -20.5 87t-62 46t-104.5 14zM426 937q-18 -19 -40 -46t-42 -54
t-32 -49h-57q-11 22 -31 49t-41.5 54t-39.5 46v10h40q26 -23 52.5 -52t47.5 -57q23 28 49.5 57t51.5 52h42v-10z" />
    <glyph glyph-name="rcaron" unicode="&#x159;" horiz-adv-x="373" 
d="M291 541q18 0 35.5 -2t31.5 -6l-8 -53q-15 4 -30 6.5t-32 2.5q-34 0 -61.5 -14t-47 -40t-30 -62t-10.5 -81v-292h-57v532h48l6 -99h3q13 30 34 54.5t51 39t67 14.5zM375 755q-18 -19 -40 -46t-42 -54t-32 -49h-57q-11 22 -31 49t-41.5 54t-39.5 46v10h40q26 -23 52.5 -52
t47.5 -57q23 28 49.5 57t51.5 52h42v-10z" />
    <glyph glyph-name="Sacute" unicode="&#x15a;" horiz-adv-x="514" 
d="M467 186q0 -64 -30 -107.5t-82.5 -66t-120.5 -22.5q-40 0 -73.5 4.5t-60.5 11.5t-50 16v57q37 -15 84.5 -26t102.5 -11q51 0 89.5 15.5t60 47t21.5 77.5q0 43 -18.5 70t-56 47.5t-96.5 41.5q-54 21 -94.5 45.5t-62.5 62t-22 94.5q0 59 28 99t76.5 61t110.5 21
q50 0 94 -9.5t84 -28.5l-20 -50q-39 18 -79.5 27t-80.5 9q-45 0 -80 -14.5t-54.5 -43t-19.5 -70.5q0 -45 19 -73t54.5 -47t86.5 -38q59 -21 101.5 -45.5t65.5 -61t23 -93.5zM396 940q-11 -16 -27 -35.5t-35 -40.5t-39 -40.5t-38 -35.5h-39v9q18 20 39 47t40 55t31 49h68v-8z
" />
    <glyph glyph-name="sacute" unicode="&#x15b;" horiz-adv-x="442" 
d="M399 141q0 -48 -23 -81.5t-66 -51.5t-106 -18q-52 0 -92.5 10t-68.5 24v55q34 -17 76.5 -29t85.5 -12q73 0 105.5 27t32.5 72q0 30 -15.5 49.5t-45.5 35t-76 31.5q-46 17 -81 34.5t-55 44.5t-20 74q0 65 49.5 100.5t131.5 35.5q45 0 84.5 -9t72.5 -24l-20 -47
q-19 9 -42.5 16.5t-48 11.5t-48.5 4q-58 0 -90.5 -22t-32.5 -64q0 -31 15.5 -50t45.5 -32t73 -29q45 -17 81 -35t57 -46t21 -75zM356 758q-11 -16 -27 -35.5t-35 -40.5t-39 -40.5t-38 -35.5h-39v9q18 20 39 47t40 55t31 49h68v-8z" />
    <glyph glyph-name="Scircumflex" unicode="&#x15c;" horiz-adv-x="514" 
d="M467 186q0 -64 -30 -107.5t-82.5 -66t-120.5 -22.5q-40 0 -73.5 4.5t-60.5 11.5t-50 16v57q37 -15 84.5 -26t102.5 -11q51 0 89.5 15.5t60 47t21.5 77.5q0 43 -18.5 70t-56 47.5t-96.5 41.5q-54 21 -94.5 45.5t-62.5 62t-22 94.5q0 59 28 99t76.5 61t110.5 21
q50 0 94 -9.5t84 -28.5l-20 -50q-39 18 -79.5 27t-80.5 9q-45 0 -80 -14.5t-54.5 -43t-19.5 -70.5q0 -45 19 -73t54.5 -47t86.5 -38q59 -21 101.5 -45.5t65.5 -61t23 -93.5zM291 947q12 -21 31.5 -48.5t41.5 -54.5t40 -47v-9h-42q-25 22 -51 51t-49 57q-23 -28 -49 -56.5
t-52 -51.5h-40v9q18 20 39.5 47t41.5 54.5t32 48.5h57z" />
    <glyph glyph-name="scircumflex" unicode="&#x15d;" horiz-adv-x="442" 
d="M399 141q0 -48 -23 -81.5t-66 -51.5t-106 -18q-52 0 -92.5 10t-68.5 24v55q34 -17 76.5 -29t85.5 -12q73 0 105.5 27t32.5 72q0 30 -15.5 49.5t-45.5 35t-76 31.5q-46 17 -81 34.5t-55 44.5t-20 74q0 65 49.5 100.5t131.5 35.5q45 0 84.5 -9t72.5 -24l-20 -47
q-19 9 -42.5 16.5t-48 11.5t-48.5 4q-58 0 -90.5 -22t-32.5 -64q0 -31 15.5 -50t45.5 -32t73 -29q45 -17 81 -35t57 -46t21 -75zM251 765q12 -21 31.5 -48.5t41.5 -54.5t40 -47v-9h-42q-25 22 -51 51t-49 57q-23 -28 -49 -56.5t-52 -51.5h-40v9q18 20 39.5 47t41.5 54.5
t32 48.5h57z" />
    <glyph glyph-name="Scedilla" unicode="&#x15e;" horiz-adv-x="514" 
d="M467 186q0 -64 -30 -107.5t-82.5 -66t-120.5 -22.5q-40 0 -73.5 4.5t-60.5 11.5t-50 16v57q37 -15 84.5 -26t102.5 -11q51 0 89.5 15.5t60 47t21.5 77.5q0 43 -18.5 70t-56 47.5t-96.5 41.5q-54 21 -94.5 45.5t-62.5 62t-22 94.5q0 59 28 99t76.5 61t110.5 21
q50 0 94 -9.5t84 -28.5l-20 -50q-39 18 -79.5 27t-80.5 9q-45 0 -80 -14.5t-54.5 -43t-19.5 -70.5q0 -45 19 -73t54.5 -47t86.5 -38q59 -21 101.5 -45.5t65.5 -61t23 -93.5zM341 -142q0 -30 -14.5 -52t-42 -34t-66.5 -12q-16 0 -29 1.5t-22 4.5v39q10 -3 23.5 -4t28.5 -1
q34 0 54.5 13.5t20.5 43.5q0 29 -24 42t-67 16l41 85h40l-26 -59q24 -3 43 -13t29.5 -27.5t10.5 -42.5z" />
    <glyph glyph-name="scedilla" unicode="&#x15f;" horiz-adv-x="442" 
d="M399 141q0 -48 -23 -81.5t-66 -51.5t-106 -18q-52 0 -92.5 10t-68.5 24v55q34 -17 76.5 -29t85.5 -12q73 0 105.5 27t32.5 72q0 30 -15.5 49.5t-45.5 35t-76 31.5q-46 17 -81 34.5t-55 44.5t-20 74q0 65 49.5 100.5t131.5 35.5q45 0 84.5 -9t72.5 -24l-20 -47
q-19 9 -42.5 16.5t-48 11.5t-48.5 4q-58 0 -90.5 -22t-32.5 -64q0 -31 15.5 -50t45.5 -32t73 -29q45 -17 81 -35t57 -46t21 -75zM308 -142q0 -30 -14.5 -52t-42 -34t-66.5 -12q-16 0 -29 1.5t-22 4.5v39q10 -3 23.5 -4t28.5 -1q34 0 54.5 13.5t20.5 43.5q0 29 -24 42t-67 16
l41 85h40l-26 -59q24 -3 43 -13t29.5 -27.5t10.5 -42.5z" />
    <glyph glyph-name="Scaron" unicode="&#x160;" horiz-adv-x="514" 
d="M467 186q0 -64 -30 -107.5t-82.5 -66t-120.5 -22.5q-40 0 -73.5 4.5t-60.5 11.5t-50 16v57q37 -15 84.5 -26t102.5 -11q51 0 89.5 15.5t60 47t21.5 77.5q0 43 -18.5 70t-56 47.5t-96.5 41.5q-54 21 -94.5 45.5t-62.5 62t-22 94.5q0 59 28 99t76.5 61t110.5 21
q50 0 94 -9.5t84 -28.5l-20 -50q-39 18 -79.5 27t-80.5 9q-45 0 -80 -14.5t-54.5 -43t-19.5 -70.5q0 -45 19 -73t54.5 -47t86.5 -38q59 -21 101.5 -45.5t65.5 -61t23 -93.5zM404 937q-18 -19 -40 -46t-42 -54t-32 -49h-57q-11 22 -31 49t-41.5 54t-39.5 46v10h40
q26 -23 52.5 -52t47.5 -57q23 28 49.5 57t51.5 52h42v-10z" />
    <glyph glyph-name="scaron" unicode="&#x161;" horiz-adv-x="442" 
d="M399 141q0 -48 -23 -81.5t-66 -51.5t-106 -18q-52 0 -92.5 10t-68.5 24v55q34 -17 76.5 -29t85.5 -12q73 0 105.5 27t32.5 72q0 30 -15.5 49.5t-45.5 35t-76 31.5q-46 17 -81 34.5t-55 44.5t-20 74q0 65 49.5 100.5t131.5 35.5q45 0 84.5 -9t72.5 -24l-20 -47
q-19 9 -42.5 16.5t-48 11.5t-48.5 4q-58 0 -90.5 -22t-32.5 -64q0 -31 15.5 -50t45.5 -32t73 -29q45 -17 81 -35t57 -46t21 -75zM364 755q-18 -19 -40 -46t-42 -54t-32 -49h-57q-11 22 -31 49t-41.5 54t-39.5 46v10h40q26 -23 52.5 -52t47.5 -57q23 28 49.5 57t51.5 52h42
v-10z" />
    <glyph glyph-name="uni0162" unicode="&#x162;" horiz-adv-x="500" 
d="M279 0h-58v662h-215v52h488v-52h-215v-662zM328 -142q0 -30 -14.5 -52t-42 -34t-66.5 -12q-16 0 -29 1.5t-22 4.5v39q10 -3 23.5 -4t28.5 -1q34 0 54.5 13.5t20.5 43.5q0 29 -24 42t-67 16l41 85h40l-26 -59q24 -3 43 -13t29.5 -27.5t10.5 -42.5z" />
    <glyph glyph-name="uni0163" unicode="&#x163;" horiz-adv-x="324" 
d="M227 39q21 0 40 3.5t33 8.5v-46q-15 -6 -36 -10.5t-45 -4.5q-42 0 -71.5 16.5t-45 51.5t-15.5 90v338h-74v32l74 19l20 122h37v-127h153v-46h-153v-335q0 -55 20 -83.5t63 -28.5zM279 -142q0 -30 -14.5 -52t-42 -34t-66.5 -12q-16 0 -29 1.5t-22 4.5v39q10 -3 23.5 -4
t28.5 -1q34 0 54.5 13.5t20.5 43.5q0 29 -24 42t-67 16l41 85h40l-26 -59q24 -3 43 -13t29.5 -27.5t10.5 -42.5z" />
    <glyph glyph-name="Tcaron" unicode="&#x164;" horiz-adv-x="500" 
d="M279 0h-58v662h-215v52h488v-52h-215v-662zM393 937q-18 -19 -40 -46t-42 -54t-32 -49h-57q-11 22 -31 49t-41.5 54t-39.5 46v10h40q26 -23 52.5 -52t47.5 -57q23 28 49.5 57t51.5 52h42v-10z" />
    <glyph glyph-name="tcaron" unicode="&#x165;" horiz-adv-x="324" 
d="M402 753q-5 -22 -14.5 -49t-21.5 -54t-26 -50h-33v9q6 13 11.5 32t10.5 40.5t9.5 42t6.5 36.5h57v-7zM227 39q21 0 40 3.5t33 8.5v-46q-15 -6 -36 -10.5t-45 -4.5q-42 0 -71.5 16.5t-45 51.5t-15.5 90v338h-74v32l74 19l20 122h37v-127h153v-46h-153v-335q0 -55 20 -83.5
t63 -28.5z" />
    <glyph glyph-name="Tbar" unicode="&#x166;" horiz-adv-x="500" 
d="M221 0v340h-158v50h158v272h-215v52h488v-52h-215v-272h156v-50h-156v-340h-58z" />
    <glyph glyph-name="tbar" unicode="&#x167;" horiz-adv-x="340" 
d="M21 283v45h277v-45h-277zM227 39q21 0 40 3.5t33 8.5v-46q-15 -6 -36 -10.5t-45 -4.5q-42 0 -71.5 16.5t-45 51.5t-15.5 90v338h-74v32l74 19l20 122h37v-127h153v-46h-153v-335q0 -55 20 -83.5t63 -28.5z" />
    <glyph glyph-name="Utilde" unicode="&#x168;" horiz-adv-x="680" 
d="M593 252q0 -81 -30 -140t-87 -90.5t-138 -31.5q-122 0 -186.5 70t-64.5 194v460h58v-460q0 -104 50 -158t146 -54q63 0 106 24.5t65.5 70.5t22.5 111v466h58v-462zM505 908q-5 -54 -30 -84t-65 -30q-22 0 -40 10t-34.5 23t-32.5 23t-34 10q-20 0 -34.5 -14.5t-19.5 -51.5
h-38q3 28 10.5 49t19.5 35t28.5 21.5t36.5 7.5q22 0 40.5 -10t35 -23t32 -23t32.5 -10q21 0 36 14.5t20 52.5h37z" />
    <glyph glyph-name="utilde" unicode="&#x169;" horiz-adv-x="562" 
d="M479 532v-532h-46l-8 91h-3q-14 -29 -38 -52t-56.5 -36t-75.5 -13q-58 0 -97.5 21.5t-59 64.5t-19.5 108v348h57v-343q0 -76 32 -113t95 -37q55 0 90.5 23t53.5 68t18 112v290h57zM446 726q-5 -54 -30 -84t-65 -30q-22 0 -40 10t-34.5 23t-32.5 23t-34 10
q-20 0 -34.5 -14.5t-19.5 -51.5h-38q3 28 10.5 49t19.5 35t28.5 21.5t36.5 7.5q22 0 40.5 -10t35 -23t32 -23t32.5 -10q21 0 36 14.5t20 52.5h37z" />
    <glyph glyph-name="Umacron" unicode="&#x16a;" horiz-adv-x="680" 
d="M593 252q0 -81 -30 -140t-87 -90.5t-138 -31.5q-122 0 -186.5 70t-64.5 194v460h58v-460q0 -104 50 -158t146 -54q63 0 106 24.5t65.5 70.5t22.5 111v466h58v-462zM472 840v-48h-262v48h262z" />
    <glyph glyph-name="umacron" unicode="&#x16b;" horiz-adv-x="562" 
d="M479 532v-532h-46l-8 91h-3q-14 -29 -38 -52t-56.5 -36t-75.5 -13q-58 0 -97.5 21.5t-59 64.5t-19.5 108v348h57v-343q0 -76 32 -113t95 -37q55 0 90.5 23t53.5 68t18 112v290h57zM413 658v-48h-262v48h262z" />
    <glyph glyph-name="Ubreve" unicode="&#x16c;" horiz-adv-x="680" 
d="M593 252q0 -81 -30 -140t-87 -90.5t-138 -31.5q-122 0 -186.5 70t-64.5 194v460h58v-460q0 -104 50 -158t146 -54q63 0 106 24.5t65.5 70.5t22.5 111v466h58v-462zM473 911q-4 -38 -20.5 -65.5t-45 -42.5t-68.5 -15q-62 0 -94.5 32.5t-37.5 90.5h39q3 -26 14 -43
t31 -24.5t48 -7.5q42 0 66 18t28 57h40z" />
    <glyph glyph-name="ubreve" unicode="&#x16d;" horiz-adv-x="562" 
d="M479 532v-532h-46l-8 91h-3q-14 -29 -38 -52t-56.5 -36t-75.5 -13q-58 0 -97.5 21.5t-59 64.5t-19.5 108v348h57v-343q0 -76 32 -113t95 -37q55 0 90.5 23t53.5 68t18 112v290h57zM415 729q-4 -38 -20.5 -65.5t-45 -42.5t-68.5 -15q-62 0 -94.5 32.5t-37.5 90.5h39
q3 -26 14 -43t31 -24.5t48 -7.5q42 0 66 18t28 57h40z" />
    <glyph glyph-name="Uring" unicode="&#x16e;" horiz-adv-x="680" 
d="M593 252q0 -81 -30 -140t-87 -90.5t-138 -31.5q-122 0 -186.5 70t-64.5 194v460h58v-460q0 -104 50 -158t146 -54q63 0 106 24.5t65.5 70.5t22.5 111v466h58v-462zM340 791q-42 0 -70.5 27.5t-28.5 75.5q0 46 28.5 74t70.5 28t71.5 -28.5t29.5 -73.5q0 -47 -29 -75
t-72 -28zM340 828q28 0 45 18.5t17 47.5t-18 47.5t-44 18.5t-43.5 -18.5t-17.5 -47.5t16.5 -47.5t44.5 -18.5z" />
    <glyph glyph-name="uring" unicode="&#x16f;" horiz-adv-x="562" 
d="M479 532v-532h-46l-8 91h-3q-14 -29 -38 -52t-56.5 -36t-75.5 -13q-58 0 -97.5 21.5t-59 64.5t-19.5 108v348h57v-343q0 -76 32 -113t95 -37q55 0 90.5 23t53.5 68t18 112v290h57zM281 609q-42 0 -70.5 27.5t-28.5 75.5q0 46 28.5 74t70.5 28t71.5 -28.5t29.5 -73.5
q0 -47 -29 -75t-72 -28zM281 646q28 0 45 18.5t17 47.5t-18 47.5t-44 18.5t-43.5 -18.5t-17.5 -47.5t16.5 -47.5t44.5 -18.5z" />
    <glyph glyph-name="Uhungarumlaut" unicode="&#x170;" horiz-adv-x="680" 
d="M593 252q0 -81 -30 -140t-87 -90.5t-138 -31.5q-122 0 -186.5 70t-64.5 194v460h58v-460q0 -104 50 -158t146 -54q63 0 106 24.5t65.5 70.5t22.5 111v466h58v-462zM497 940q-9 -16 -23 -35.5t-30.5 -41t-33.5 -40.5t-33 -35h-35v9q15 20 32.5 46.5t33.5 54.5t26 50h63v-8
zM338 940q-9 -16 -22.5 -35.5t-30.5 -41t-34 -40.5t-33 -35h-35v9q15 20 32.5 46.5t33.5 54.5t26 50h63v-8z" />
    <glyph glyph-name="uhungarumlaut" unicode="&#x171;" horiz-adv-x="562" 
d="M479 532v-532h-46l-8 91h-3q-14 -29 -38 -52t-56.5 -36t-75.5 -13q-58 0 -97.5 21.5t-59 64.5t-19.5 108v348h57v-343q0 -76 32 -113t95 -37q55 0 90.5 23t53.5 68t18 112v290h57zM439 758q-9 -16 -23 -35.5t-30.5 -41t-33.5 -40.5t-33 -35h-35v9q15 20 32.5 46.5
t33.5 54.5t26 50h63v-8zM280 758q-9 -16 -22.5 -35.5t-30.5 -41t-34 -40.5t-33 -35h-35v9q15 20 32.5 46.5t33.5 54.5t26 50h63v-8z" />
    <glyph glyph-name="Uogonek" unicode="&#x172;" horiz-adv-x="722" 
d="M420 -114q0 -33 13.5 -47.5t38.5 -14.5q15 0 27.5 2t20.5 4v-40q-11 -3 -24.5 -5.5t-31.5 -2.5q-44 0 -68 23.5t-24 73.5q0 33 14.5 63.5t38 56.5t48.5 46l38 1q-24 -26 -45 -51.5t-33.5 -52t-12.5 -56.5zM593 252q0 -81 -30 -140t-87 -90.5t-138 -31.5q-122 0 -186.5 70
t-64.5 194v460h58v-460q0 -104 50 -158t146 -54q63 0 106 24.5t65.5 70.5t22.5 111v466h58v-462z" />
    <glyph glyph-name="uogonek" unicode="&#x173;" horiz-adv-x="562" 
d="M479 532v-532h-46l-8 91h-3q-14 -29 -38 -52t-56.5 -36t-75.5 -13q-58 0 -97.5 21.5t-59 64.5t-19.5 108v348h57v-343q0 -76 32 -113t95 -37q55 0 90.5 23t53.5 68t18 112v290h57zM400 -123q0 -26 12.5 -39.5t35.5 -13.5q15 0 26.5 2t19.5 4v-40q-11 -3 -24 -5.5
t-30 -2.5q-27 0 -47 10t-30.5 30t-10.5 48q0 26 12 51.5t33 48.5t46 43l32 -13q-31 -29 -53 -59t-22 -64z" />
    <glyph glyph-name="Wcircumflex" unicode="&#x174;" horiz-adv-x="848" 
d="M829 714l-182 -714h-59l-138 525q-5 18 -9.5 34.5t-8.5 32t-6.5 28l-4.5 22.5q-2 -10 -4 -22t-5 -25.5t-7 -28.5t-8 -31l-138 -535h-59l-180 714h61l120 -490q7 -27 12.5 -52t10 -47.5t8.5 -44.5q4 23 8.5 46.5t10.5 48.5t13 52l128 487h59l132 -490q8 -28 14 -53.5
t10.5 -48t8.5 -44.5q3 23 7.5 45.5t10 47t12.5 53.5l123 490h60zM453 947q12 -21 31.5 -48.5t41.5 -54.5t40 -47v-9h-42q-25 22 -51 51t-49 57q-23 -28 -49 -56.5t-52 -51.5h-40v9q18 20 39.5 47t41.5 54.5t32 48.5h57z" />
    <glyph glyph-name="wcircumflex" unicode="&#x175;" horiz-adv-x="696" 
d="M384 346q-9 33 -17.5 63t-13.5 55h-3q-6 -25 -13.5 -55.5t-17.5 -63.5l-104 -345h-61l-141 532h60l83 -328q7 -30 13 -54.5t10.5 -45t6.5 -38.5h3q4 17 8.5 36.5t10.5 43t14 50.5l101 336h60l97 -336q7 -24 13 -47t11.5 -44t8.5 -38h2q3 24 11 58t19 79l81 328h58
l-137 -532h-63zM378 765q12 -21 31.5 -48.5t41.5 -54.5t40 -47v-9h-42q-25 22 -51 51t-49 57q-23 -28 -49 -56.5t-52 -51.5h-40v9q18 20 39.5 47t41.5 54.5t32 48.5h57z" />
    <glyph glyph-name="Ycircumflex" unicode="&#x176;" horiz-adv-x="507" 
d="M254 332l189 382h64l-223 -438v-276h-59v272l-225 442h64zM283 947q12 -21 31.5 -48.5t41.5 -54.5t40 -47v-9h-42q-25 22 -51 51t-49 57q-23 -28 -49 -56.5t-52 -51.5h-40v9q18 20 39.5 47t41.5 54.5t32 48.5h57z" />
    <glyph glyph-name="ycircumflex" unicode="&#x177;" horiz-adv-x="445" 
d="M1 532h61l117 -330q11 -30 19.5 -55t15 -46.5t9.5 -39.5h3q6 24 17.5 60t25.5 79l115 332h62l-225 -626q-17 -47 -38 -80t-50 -50t-69 -17q-18 0 -32.5 2.5t-27.5 6.5v48q12 -4 25 -6.5t28 -2.5q27 0 46.5 11.5t34.5 35t28 59.5l31 89zM252 765q12 -21 31.5 -48.5
t41.5 -54.5t40 -47v-9h-42q-25 22 -51 51t-49 57q-23 -28 -49 -56.5t-52 -51.5h-40v9q18 20 39.5 47t41.5 54.5t32 48.5h57z" />
    <glyph glyph-name="Ydieresis" unicode="&#x178;" horiz-adv-x="507" 
d="M254 332l189 382h64l-223 -438v-276h-59v272l-225 442h64zM132 862q0 19 9.5 29.5t25.5 10.5t25 -10.5t9 -29.5t-9 -30t-25 -11t-25.5 11t-9.5 30zM308 862q0 19 9 29.5t25 10.5q17 0 26 -10.5t9 -29.5t-9 -30t-26 -11q-16 0 -25 11t-9 30z" />
    <glyph glyph-name="Zacute" unicode="&#x179;" horiz-adv-x="542" 
d="M505 0h-470v43l386 619h-368v52h441v-43l-386 -618h397v-53zM407 940q-11 -16 -27 -35.5t-35 -40.5t-39 -40.5t-38 -35.5h-39v9q18 20 39 47t40 55t31 49h68v-8z" />
    <glyph glyph-name="zacute" unicode="&#x17a;" horiz-adv-x="436" 
d="M398 0h-361v38l291 448h-270v46h338v-40l-290 -445h292v-47zM352 758q-11 -16 -27 -35.5t-35 -40.5t-39 -40.5t-38 -35.5h-39v9q18 20 39 47t40 55t31 49h68v-8z" />
    <glyph glyph-name="Zdotaccent" unicode="&#x17b;" horiz-adv-x="542" 
d="M505 0h-470v43l386 619h-368v52h441v-43l-386 -618h397v-53zM273 911q19 0 28.5 -11.5t9.5 -31.5q0 -21 -9.5 -32.5t-28.5 -11.5q-18 0 -28 11.5t-10 32.5q0 20 10 31.5t28 11.5z" />
    <glyph glyph-name="zdotaccent" unicode="&#x17c;" horiz-adv-x="436" 
d="M398 0h-361v38l291 448h-270v46h338v-40l-290 -445h292v-47zM218 729q19 0 28.5 -11.5t9.5 -31.5q0 -21 -9.5 -32.5t-28.5 -11.5q-18 0 -28 11.5t-10 32.5q0 20 10 31.5t28 11.5z" />
    <glyph glyph-name="Zcaron" unicode="&#x17d;" horiz-adv-x="542" 
d="M505 0h-470v43l386 619h-368v52h441v-43l-386 -618h397v-53zM415 937q-18 -19 -40 -46t-42 -54t-32 -49h-57q-11 22 -31 49t-41.5 54t-39.5 46v10h40q26 -23 52.5 -52t47.5 -57q23 28 49.5 57t51.5 52h42v-10z" />
    <glyph glyph-name="zcaron" unicode="&#x17e;" horiz-adv-x="436" 
d="M398 0h-361v38l291 448h-270v46h338v-40l-290 -445h292v-47zM360 755q-18 -19 -40 -46t-42 -54t-32 -49h-57q-11 22 -31 49t-41.5 54t-39.5 46v10h40q26 -23 52.5 -52t47.5 -57q23 28 49.5 57t51.5 52h42v-10z" />
    <glyph glyph-name="longs" unicode="&#x17f;" horiz-adv-x="294" 
d="M237 716q-48 0 -73 -33t-25 -103v-580h-57v581q0 62 18.5 102.5t53 61t82.5 20.5q25 0 45 -3.5t37 -10.5l-12 -47q-15 5 -32 8.5t-37 3.5z" />
    <glyph glyph-name="uni0180" unicode="&#x180;" horiz-adv-x="564" 
d="M301 -10q-42 0 -73.5 12.5t-53 34.5t-34.5 49h-5l-11 -86h-42v618h-71v45h71v97h57v-97h211v-45h-211v-68q0 -29 -1 -61t-2 -53h3q19 46 62 76t107 30t109.5 -31t69.5 -92t24 -152q0 -84 -24 -146t-71 -96.5t-115 -34.5zM293 39q79 0 119.5 59.5t40.5 169.5
q0 112 -38.5 168.5t-115.5 56.5q-56 0 -91.5 -26t-52 -76t-16.5 -124v-7q0 -107 35.5 -164t118.5 -57z" />
    <glyph glyph-name="uni0181" unicode="&#x181;" horiz-adv-x="670" 
d="M168 0v663h-25q-43 0 -62.5 -20.5t-19.5 -55.5q0 -16 3.5 -31.5t5.5 -22.5h-51q-4 11 -7 26.5t-3 29.5q0 39 14.5 67t44.5 43t75 15h211q84 0 138 -18t80 -56.5t26 -99.5q0 -62 -33 -106t-96 -56v-3q48 -8 81.5 -29.5t50.5 -56.5t17 -86q0 -69 -30 -114t-83 -67t-124 -22
h-213zM377 51q91 0 135 39.5t44 115.5q0 50 -20.5 81.5t-62 46.5t-105.5 15h-142v-298h151zM367 399q92 0 131.5 34t39.5 101q0 69 -43.5 99t-139.5 30h-129v-264h141z" />
    <glyph glyph-name="uni0182" unicode="&#x182;" horiz-adv-x="566" 
d="M94 0v714h382v-52h-324v-259h118q85 0 137.5 -22t77 -65.5t24.5 -109.5t-24.5 -112t-75 -70t-128.5 -24h-187zM273 51q93 0 134.5 37.5t41.5 117.5q0 56 -21 88t-62.5 44.5t-103.5 12.5h-110v-300h121z" />
    <glyph glyph-name="uni0183" unicode="&#x183;" horiz-adv-x="564" 
d="M300 -10q-41 0 -73 12.5t-53.5 34.5t-34.5 49h-4l-11 -86h-43v760h377v-49h-320v-161q0 -19 -0.5 -40.5t-1 -40.5t-1.5 -33h3q19 46 62 76t107 30q65 0 110.5 -31t69.5 -92t24 -152q0 -84 -24 -146t-71 -96.5t-116 -34.5zM293 39q78 0 118.5 59.5t40.5 169.5
q0 112 -38 168.5t-115 56.5q-57 0 -92.5 -26t-52 -76t-16.5 -124v-7q0 -107 35.5 -164t119.5 -57z" />
    <glyph glyph-name="uni0184" unicode="&#x184;" horiz-adv-x="573" 
d="M309 -5q-77 0 -125.5 27.5t-71 79t-22.5 122.5v490h58v-311h132q81 0 133.5 -23t78.5 -67t26 -109q0 -93 -53 -151t-156 -58zM309 46q74 0 111.5 41.5t37.5 116.5q0 55 -21.5 87.5t-63 46t-101.5 13.5h-124v-123q0 -95 39.5 -138.5t121.5 -43.5z" />
    <glyph glyph-name="uni0185" unicode="&#x185;" horiz-adv-x="563" 
d="M295 -10q-67 0 -115 30.5t-74 90.5t-26 149v500h57v-210q0 -29 -1 -61t-2 -53h3q18 44 61 75t109 31q64 0 109.5 -31t69.5 -92t24 -152q0 -84 -24 -146t-72 -96.5t-119 -34.5zM296 39q78 0 116.5 59.5t38.5 169.5q0 112 -38 168.5t-115 56.5q-86 0 -123.5 -58t-37.5 -168
v-8q0 -107 41 -163.5t118 -56.5z" />
    <glyph glyph-name="uni0186" unicode="&#x186;" horiz-adv-x="586" 
d="M212 -10q-54 0 -93.5 7.5t-74.5 21.5v52q37 -13 76 -21t86 -8q84 0 142 41t88.5 114.5t30.5 169.5q0 69 -15.5 125.5t-46 96.5t-77 61.5t-109.5 21.5q-43 0 -85.5 -11t-77.5 -30l-23 51q38 19 87.5 30.5t106.5 11.5q76 0 132.5 -25t94 -72.5t56 -113.5t18.5 -147
q0 -108 -36.5 -193t-107 -134t-172.5 -49z" />
    <glyph glyph-name="uni0187" unicode="&#x187;" horiz-adv-x="586" 
d="M602 858q18 0 32 -3.5t23 -7.5v-49q-8 4 -21 7.5t-29 3.5q-25 0 -38.5 -15t-13.5 -48v-60l-22 -52q-36 19 -74 28.5t-80 9.5q-61 0 -109.5 -22.5t-82 -64t-51 -99t-17.5 -127.5q0 -96 28 -167.5t84 -110.5t139 -39q49 0 90 8t78 21v-51q-35 -14 -76.5 -22t-97.5 -8
q-101 0 -169 46t-102.5 129t-34.5 194q0 80 21.5 146.5t63 115.5t101 76t136.5 27q33 0 64.5 -5t60.5 -15v39q0 38 11 63.5t32.5 38.5t53.5 13z" />
    <glyph glyph-name="uni0188" unicode="&#x188;" horiz-adv-x="453" 
d="M283 -10q-73 0 -124.5 32.5t-78.5 93.5t-27 147q0 90 30.5 152.5t84.5 94.5t126 32q20 0 39 -2.5t36 -7.5v115q0 40 11.5 67t33.5 40.5t55 13.5q18 0 30 -3.5t21 -7.5v-49q-7 3 -19 6.5t-28 3.5q-25 0 -39.5 -15.5t-14.5 -53.5v-133l-16 -49q-25 11 -54.5 17.5t-55.5 6.5
q-58 0 -98.5 -27.5t-61.5 -78.5t-21 -121q0 -66 18.5 -116.5t56.5 -78.5t96 -28q38 0 70.5 8t59.5 20v-51q-25 -12 -57 -20t-73 -8z" />
    <glyph glyph-name="uni0189" unicode="&#x189;" horiz-adv-x="670" 
d="M282 714q106 0 179.5 -40t112 -117.5t38.5 -192.5q0 -120 -40.5 -201t-118.5 -122t-192 -41h-164v329h-74v51h74v334h185zM272 663h-116v-283h177v-51h-177v-278h102q147 0 219.5 78t72.5 233q0 151 -69 226t-209 75z" />
    <glyph glyph-name="uni018A" unicode="&#x18a;" horiz-adv-x="742" 
d="M166 0v663h-23q-42 0 -61.5 -20.5t-19.5 -55.5q0 -16 3 -31.5t6 -22.5h-52q-4 11 -7 26.5t-3 29.5q0 40 15 68t45 42.5t74 14.5h211q106 0 179.5 -40t112 -117.5t38.5 -192.5q0 -120 -40.5 -201t-118.5 -122t-192 -41h-167zM330 51q147 0 219.5 78t72.5 233
q0 151 -69 226t-209 75h-119v-612h105z" />
    <glyph glyph-name="uni018B" unicode="&#x18b;" horiz-adv-x="566" 
d="M293 0q-122 0 -182 49t-60 148q0 67 27.5 115t84.5 73.5t145 25.5h101v252h-321v51h379v-714h-174zM299 51h110v309h-95q-64 0 -109.5 -15t-69.5 -50t-24 -96q0 -77 46 -112.5t142 -35.5z" />
    <glyph glyph-name="uni018C" unicode="&#x18c;" horiz-adv-x="564" 
d="M261 -10q-66 0 -112.5 31t-71 91t-24.5 149q0 92 25.5 154.5t73.5 94.5t114 32q42 0 73 -13.5t52.5 -36.5t34.5 -51h4q-1 23 -2.5 52t-1.5 52v166h-319v49h376v-760h-46l-8 93h-3q-13 -28 -35 -51.5t-54 -37.5t-76 -14zM270 39q85 0 121 56t36 162v9q0 110 -35.5 168.5
t-118.5 58.5q-79 0 -120 -60.5t-41 -172.5q0 -108 39 -164.5t119 -56.5z" />
    <glyph glyph-name="uni018D" unicode="&#x18d;" horiz-adv-x="552" 
d="M256 -232q-53 0 -97 13.5t-86 36.5l25 45q38 -22 76.5 -34.5t82.5 -12.5q53 0 79 25.5t26 64.5q0 30 -13.5 52t-42.5 42.5t-73 47.5q-54 32 -94.5 67t-63 80t-22.5 108q0 74 26.5 128t76.5 82.5t121 28.5q66 0 116.5 -26.5t78.5 -76.5t28 -120q0 -62 -23.5 -110.5
t-68.5 -83.5t-110 -55q38 -24 65.5 -47t42 -51t14.5 -67q0 -65 -46.5 -101t-117.5 -36zM252 97q38 11 72 28.5t60 43.5t41 63t15 88q0 53 -19.5 92t-56.5 60t-87 21q-53 0 -90 -22.5t-56 -65t-19 -101.5q0 -75 37.5 -123t102.5 -84z" />
    <glyph glyph-name="uni018E" unicode="&#x18e;" horiz-adv-x="521" 
d="M427 714v-714h-370v52h311v278h-293v51h293v281h-311v52h370z" />
    <glyph glyph-name="uni018F" unicode="&#x18f;" horiz-adv-x="672" 
d="M300 673q-39 0 -74.5 -5t-65.5 -13.5t-56 -17.5v54q24 9 52.5 16.5t64.5 12.5t80 5q76 0 134.5 -25t98.5 -73t60.5 -115.5t20.5 -153.5q0 -85 -18.5 -153t-55 -116t-90.5 -73.5t-125 -25.5q-92 0 -152 40t-89.5 120t-29.5 201v29h499q-3 92 -32 157.5t-84 100.5t-138 35z
M326 42q72 0 121.5 34.5t76.5 99t30 152.5h-437q0 -97 22 -160.5t68.5 -94.5t118.5 -31z" />
    <glyph glyph-name="uni0190" unicode="&#x190;" horiz-adv-x="535" 
d="M292 724q66 0 116 -18.5t87 -43.5l-28 -42q-35 23 -75 39t-98 16q-68 0 -111 -35.5t-43 -101.5q0 -45 19 -77t59.5 -48.5t105.5 -16.5h94v-50h-97q-101 0 -155 -37.5t-54 -114.5q0 -50 21.5 -84.5t63 -52t101.5 -17.5q53 0 106 14.5t93 35.5v-55q-39 -20 -89.5 -32.5
t-113.5 -12.5q-83 0 -137 24.5t-79.5 70t-25.5 106.5q0 76 41 121.5t114 59.5v3q-36 9 -65 29t-45.5 54t-16.5 85q0 55 25.5 95.5t73.5 63t113 22.5z" />
    <glyph glyph-name="uni0191" unicode="&#x191;" horiz-adv-x="537" 
d="M114 -241q-41 0 -69.5 16t-43 45t-14.5 67q0 17 3 32t8 30l54 -18q-3 -10 -5 -21t-2 -22q0 -33 18 -56.5t52 -23.5q37 0 55.5 30t18.5 81v795h334v-52h-276v-262h259v-52h-259v-434q0 -72 -33 -113.5t-100 -41.5z" />
    <glyph glyph-name="florin" unicode="&#x192;" horiz-adv-x="369" 
d="M107 -241q-55 0 -88 33.5t-33 85.5q0 17 2.5 30t5.5 24l52 -12q-3 -7 -4.5 -16.5t-1.5 -21.5q0 -34 18.5 -53.5t48.5 -19.5q39 0 55.5 30t16.5 79v568h-91v31l91 17v53q0 60 17 99.5t50.5 59t83.5 19.5q27 0 49 -4.5t40 -10.5l-13 -47q-17 6 -36.5 10t-38.5 4
q-50 0 -72 -30.5t-22 -99.5v-55h119v-46h-119v-573q0 -43 -13 -78t-41 -55.5t-76 -20.5z" />
    <glyph glyph-name="uni0193" unicode="&#x193;" horiz-adv-x="681" 
d="M646 858q18 0 32.5 -3.5t22.5 -7.5v-49q-7 4 -20.5 7.5t-29.5 3.5q-25 0 -38 -15t-13 -48v-64l-23 -51q-41 21 -86 31.5t-91 10.5q-88 0 -151 -40t-96.5 -111t-33.5 -165q0 -103 31 -173.5t93 -106t153 -35.5q48 0 85.5 7t68.5 19v243h-187v53h245v-332
q-50 -21 -105 -31.5t-118 -10.5q-106 0 -179 43.5t-110.5 125.5t-37.5 197q0 109 41 192t118 130t185 47q40 0 77 -6t71 -19v43q0 38 11 63.5t32.5 38.5t52.5 13z" />
    <glyph glyph-name="uni0194" unicode="&#x194;" horiz-adv-x="560" 
d="M269 -240q-48 0 -74.5 34.5t-26.5 88.5q0 33 9.5 69.5t25.5 75.5t35 80l-239 606h62l160 -414q11 -28 20.5 -53.5t17 -47.5t11.5 -40q5 18 12 40t17 48t21 55l158 412h63l-238 -605q21 -44 36.5 -83.5t24 -75t8.5 -67.5q0 -53 -27 -88t-76 -35zM270 -188q23 0 36 18
t13 55t-14 81t-35 88q-21 -46 -35.5 -89.5t-14.5 -78.5q0 -38 14 -56t36 -18z" />
    <glyph glyph-name="uni0195" unicode="&#x195;" horiz-adv-x="864" 
d="M604 -11q-63 0 -104.5 22t-62.5 66t-21 110v157q0 77 -31 113t-91 36q-51 0 -86 -22.5t-52 -68t-17 -112.5v-290h-57v760h57v-243q0 -21 -1 -39.5t-3 -37.5h4q13 30 35.5 52.5t55 36t73.5 13.5q55 0 93 -20.5t57.5 -63.5t19.5 -110v-155q0 -78 32 -116.5t99 -38.5
q68 0 98 39.5t30 123.5v339h57v-342q0 -106 -46.5 -157.5t-138.5 -51.5z" />
    <glyph glyph-name="uni0196" unicode="&#x196;" horiz-adv-x="306" 
d="M214 -10q-37 0 -66.5 14t-46 47.5t-16.5 90.5v572h58v-564q0 -58 20.5 -83t59.5 -25q21 0 40 3.5t33 9.5v-50q-13 -6 -35 -10.5t-47 -4.5z" />
    <glyph glyph-name="uni0197" unicode="&#x197;" horiz-adv-x="296" 
d="M249 714v-36l-72 -12v-269h86v-51h-86v-299l72 -11v-36h-202v36l72 11v299h-86v51h86v269l-72 12v36h202z" />
    <glyph glyph-name="uni0198" unicode="&#x198;" horiz-adv-x="586" 
d="M533 720q13 0 23 -2t17 -5v-47q-6 2 -16.5 3t-20.5 1q-19 0 -37.5 -11.5t-43.5 -41.5l-177 -206l279 -411h-70l-249 370l-86 -91v-279h-58v714h58v-375q19 26 39 51t40 49l178 205q25 31 44.5 47t38.5 22.5t41 6.5z" />
    <glyph glyph-name="uni0199" unicode="&#x199;" horiz-adv-x="469" 
d="M199 764q14 0 28 -2.5t22 -5.5v-49q-7 2 -18.5 4.5t-25.5 2.5q-32 0 -49.5 -21t-17.5 -67v-252q0 -31 -0.5 -65.5t-1.5 -67.5h3q7 10 16.5 22t20 25t19.5 24l188 220h68l-199 -228l215 -304h-68l-186 267l-75 -82v-185h-56v625q0 45 13 76t39.5 47t64.5 16z" />
    <glyph glyph-name="uni019A" unicode="&#x19a;" horiz-adv-x="222" 
d="M83 0v361h-70v46h70v353h57v-353h70v-46h-70v-361h-57z" />
    <glyph glyph-name="uni019B" unicode="&#x19b;" horiz-adv-x="484" 
d="M-5 0l216 532l-21 66l-105 -33l-12 44l100 32q-16 44 -33 60t-49 16q-14 0 -26 -2t-21 -5v49q8 2 16.5 3.5t18.5 2.5t20 1q35 0 57.5 -10.5t38.5 -34.5t32 -64l108 34l13 -44l-105 -33l172 -524q9 -28 20.5 -39t25.5 -11q8 0 15 1.5t11 2.5v-44q-7 -4 -17.5 -6.5
t-23.5 -2.5q-21 0 -36 7.5t-25.5 24t-18.5 40.5l-92 288q-5 15 -10.5 31t-10 31.5t-8.5 30t-7 26.5h-2q-8 -27 -18 -56t-21 -57l-141 -357h-61z" />
    <glyph glyph-name="uni019C" unicode="&#x19c;" horiz-adv-x="938" 
d="M264 -10q-59 0 -99.5 21.5t-60.5 68.5t-20 123v511h58v-511q0 -86 32.5 -123.5t97.5 -37.5q56 0 92.5 21.5t54.5 66.5t18 118v466h58v-511q0 -86 32.5 -123.5t98.5 -37.5q55 0 91.5 22.5t54.5 70t18 123.5v456h58v-714h-46l-9 93h-4q-13 -28 -37 -51.5t-57.5 -37.5
t-78.5 -14q-70 0 -109 29.5t-57 82.5h-3q-23 -53 -69.5 -82.5t-113.5 -29.5z" />
    <glyph glyph-name="uni019D" unicode="&#x19d;" horiz-adv-x="688" 
d="M37 -192q-18 0 -30.5 3t-23.5 8v51q11 -4 22.5 -7t25.5 -3q31 0 47 20.5t16 65.5v768h63l384 -622h2q0 13 -0.5 28.5t-0.5 33t-1 36t-1 37v34.5v453h54v-714h-63l-385 624h-2q0 -15 0.5 -31.5t1 -33.5t1 -35l1 -36t0.5 -37v-509q0 -46 -13.5 -75.5t-38 -44t-59.5 -14.5z
" />
    <glyph glyph-name="uni019E" unicode="&#x19e;" horiz-adv-x="562" 
d="M309 542q57 0 96 -20.5t59.5 -63.5t20.5 -110v-588h-57v584q0 76 -32 112.5t-95 36.5q-54 0 -90 -22.5t-54 -67.5t-18 -113v-290h-57v532h46l8 -92h4q13 30 37 53t57 36t75 13z" />
    <glyph glyph-name="uni019F" unicode="&#x19f;" horiz-adv-x="723" 
d="M664 358q0 -82 -19 -149t-57 -116.5t-95 -76t-132 -26.5q-76 0 -133 27t-94.5 76t-56.5 116.5t-19 149.5q0 109 34.5 191.5t103 128.5t168.5 46q97 0 164 -44.5t101.5 -126.5t34.5 -196zM362 42q80 0 132.5 36.5t79 103t28.5 156.5h-482q3 -89 30 -156t79.5 -103.5
t132.5 -36.5zM364 673q-78 0 -131 -35.5t-81 -99t-32 -149.5h482q-6 135 -65.5 209.5t-172.5 74.5z" />
    <glyph glyph-name="Ohorn" unicode="&#x1a0;" horiz-adv-x="724" 
d="M664 358q0 -82 -19 -149t-57 -116.5t-95 -76t-132 -26.5q-76 0 -133 27t-94.5 76t-56.5 116.5t-19 149.5q0 109 34.5 191.5t102.5 128.5t169 46q77 0 135 -28.5t96 -81.5q24 8 39.5 25.5t23 47.5t7.5 72h59l5 -8q-6 -68 -33 -112t-77 -63q21 -43 33 -98t12 -121zM119 359
q0 -95 26 -166.5t80 -111t137 -39.5q84 0 136.5 39t78 110.5t25.5 166.5q0 149 -59 232t-179 83q-83 0 -137.5 -39t-81 -110t-26.5 -165z" />
    <glyph glyph-name="ohorn" unicode="&#x1a1;" horiz-adv-x="560" 
d="M503 267q0 -83 -26 -145.5t-76.5 -97t-124.5 -34.5q-69 0 -119 34.5t-77 96.5t-27 146q0 129 60.5 202t167.5 73q52 0 92.5 -18.5t68.5 -52.5q24 8 38.5 26.5t21 48t6.5 68.5h58l6 -8q-4 -46 -17 -80.5t-35 -57t-53 -35.5q18 -33 27 -75t9 -91zM112 267q0 -70 18 -121.5
t54.5 -79t92.5 -27.5q59 0 95.5 28t54 79t17.5 121q0 68 -17 118.5t-53 79t-94 28.5q-84 0 -126 -58.5t-42 -167.5z" />
    <glyph glyph-name="uni01A2" unicode="&#x1a2;" horiz-adv-x="1004" 
d="M640 358q0 -82 -18.5 -149t-55 -116.5t-91 -76t-126.5 -26.5q-73 0 -127 27t-90.5 76t-55 116.5t-18.5 149.5q0 109 33.5 191.5t99 128.5t161.5 46q69 0 122 -25t89 -72q26 45 71 70.5t103 25.5t98.5 -23t61.5 -70.5t21 -120.5v-510h-58v507q0 83 -33.5 124.5t-98.5 41.5
q-51 0 -86 -21t-54 -60q25 -45 38.5 -104t13.5 -130zM119 359q0 -95 25 -166.5t76.5 -111t128.5 -39.5q79 0 129.5 39t75.5 110.5t25 166.5q0 100 -26 170t-76 107.5t-125 37.5q-78 0 -130 -39t-77.5 -110t-25.5 -165z" />
    <glyph glyph-name="uni01A3" unicode="&#x1a3;" horiz-adv-x="783" 
d="M490 267q0 -63 -14 -113.5t-42 -87t-69 -56.5t-94 -20q-51 0 -91 19.5t-68.5 56t-43.5 87.5t-15 114q0 86 26.5 147.5t76 94.5t118.5 33q49 0 87 -16.5t65 -47.5q22 29 56 46.5t77 17.5q49 0 81.5 -20t49 -61.5t16.5 -104.5v-596h-57v592q0 71 -25 106t-75 35
q-34 0 -58.5 -12.5t-41.5 -35.5q21 -34 31 -79.5t10 -98.5zM112 267q0 -68 17.5 -119.5t52.5 -80t89 -28.5q56 0 91.5 28.5t52.5 80t17 119.5q0 66 -16.5 117t-51 80t-90.5 29q-81 0 -121.5 -60t-40.5 -166z" />
    <glyph glyph-name="uni01A4" unicode="&#x1a4;" horiz-adv-x="628" 
d="M166 0v663h-23q-43 0 -62.5 -20.5t-19.5 -55.5q0 -16 3.5 -31.5t5.5 -22.5h-51q-4 11 -7 26.5t-3 29.5q0 39 14.5 67t44.5 43t75 15h192q122 0 182 -50t60 -152q0 -51 -15.5 -92t-47 -69.5t-79.5 -43.5t-114 -15h-97v-292h-58zM315 343q64 0 109 15.5t69 52t24 98.5
q0 80 -45.5 117t-142.5 37h-105v-320h91z" />
    <glyph glyph-name="uni01A5" unicode="&#x1a5;" horiz-adv-x="565" 
d="M201 765q19 0 35 -3t26 -7v-50q-8 4 -22.5 7t-31.5 3q-34 0 -51 -20.5t-17 -67.5v-89q0 -21 -1.5 -51.5t-2.5 -51.5h4q13 29 35 53.5t55.5 39t78.5 14.5q64 0 109.5 -30.5t70 -91t24.5 -151.5q0 -90 -25.5 -152.5t-72 -94.5t-111.5 -32q-43 0 -75.5 14t-54 37t-34.5 51
h-4q2 -25 3 -54.5t1 -54.5v-219h-57v861q0 45 13.5 76.5t40 47.5t64.5 16zM300 493q-54 0 -89.5 -25t-53 -73.5t-17.5 -118.5v-10q0 -76 17 -126t51.5 -75.5t88.5 -25.5q51 0 86 28t52.5 79.5t17.5 123.5q0 108 -38 165.5t-115 57.5z" />
    <glyph glyph-name="uni01A6" unicode="&#x1a6;" horiz-adv-x="567" 
d="M479 -100l-170 308h-156v-208h-58v714h58v-100h110q81 0 135 -19.5t80.5 -62.5t26.5 -114q0 -55 -18.5 -93.5t-50.5 -63t-73 -37.5l185 -324h-69zM276 258q81 0 125 41t44 117q0 55 -20.5 87t-62 46t-104.5 14h-105v-305h123z" />
    <glyph glyph-name="uni01A7" unicode="&#x1a7;" horiz-adv-x="514" 
d="M254 724q93 0 151 -43.5t58 -131.5q0 -43 -13 -75t-37 -55.5t-57.5 -42t-75.5 -35.5q-57 -23 -96.5 -44t-59.5 -49t-20 -72q0 -45 21 -75t59.5 -44.5t88.5 -14.5q55 0 104 13t85 28v-57q-32 -13 -80 -24.5t-108 -11.5q-67 0 -119 21.5t-80.5 63t-28.5 104.5q0 59 24.5 96
t69 62.5t102.5 48.5q52 22 88 42t55 47.5t19 71.5q0 64 -40 94.5t-110 30.5q-39 0 -79.5 -10t-77.5 -28l-18 50q39 19 83.5 29.5t91.5 10.5z" />
    <glyph glyph-name="uni01A8" unicode="&#x1a8;" horiz-adv-x="442" 
d="M212 542q57 0 97 -15t60.5 -44.5t20.5 -74.5t-20 -73t-56 -46t-83 -36q-35 -13 -61 -25t-42.5 -25.5t-25 -29.5t-8.5 -38q0 -46 31.5 -71.5t103.5 -25.5q44 0 88 12t76 28v-53q-28 -15 -70 -25t-94 -10q-97 0 -144 37.5t-47 110.5q0 46 21 74.5t57.5 48t81.5 36.5
q44 17 74 31t46 33t16 49q0 41 -31 62.5t-89 21.5q-34 0 -70 -9t-65 -23l-19 47q34 15 72.5 24t79.5 9z" />
    <glyph glyph-name="uni01A9" unicode="&#x1a9;" horiz-adv-x="523" 
d="M30 0v48l241 325l-235 294v47h444v-53h-272h-33.5t-35 0.5t-33.5 0.5l232 -288l-241 -322q31 0 62 0.5t62 0.5h286v-53h-477z" />
    <glyph glyph-name="uni01AA" unicode="&#x1aa;" horiz-adv-x="336" 
d="M110 765q38 0 64.5 -15.5t41 -46t14.5 -74.5v-710q0 -57 22 -83t62 -26q20 0 38 3.5t29 7.5v-46q-12 -6 -32 -9.5t-41 -3.5q-41 0 -71 15t-46.5 48.5t-16.5 89.5v626h-62q-59 0 -89.5 30t-30.5 82q0 31 12.5 56.5t38.5 40.5t67 15zM105 717q-30 0 -45.5 -18.5
t-15.5 -44.5q0 -32 19 -48.5t55 -16.5h56v36q0 46 -17 69t-52 23z" />
    <glyph glyph-name="uni01AB" unicode="&#x1ab;" horiz-adv-x="324" 
d="M195 -240q-19 0 -33 4t-23 8v49q9 -4 22.5 -7.5t28.5 -3.5q27 0 42.5 17t15.5 53v113q-7 -1 -15.5 -2t-18.5 -1q-30 0 -53.5 9.5t-40 28.5t-25 48.5t-8.5 71.5v338h-74v32l74 19l20 122h37v-127h153v-46h-153v-335q0 -55 19.5 -83.5t63.5 -28.5q21 0 40 3.5t33 8.5v-170
q0 -58 -27 -89.5t-78 -31.5z" />
    <glyph glyph-name="uni01AC" unicode="&#x1ac;" horiz-adv-x="506" 
d="M232 0v662h-86q-44 0 -64 -20t-20 -54q0 -18 4 -33.5t6 -22.5h-53q-3 10 -6.5 25.5t-3.5 31.5q0 38 14.5 66.5t45 43.5t76.5 15h360v-52h-215v-662h-58z" />
    <glyph glyph-name="uni01AD" unicode="&#x1ad;" horiz-adv-x="324" 
d="M208 765q21 0 37.5 -3.5t27.5 -8.5v-49q-10 4 -28 7.5t-37 3.5q-31 0 -47.5 -19t-16.5 -59v-105h153v-46h-153v-335q0 -55 20 -83.5t63 -28.5q21 0 40 3.5t33 8.5v-46q-15 -6 -36 -10.5t-45 -4.5q-42 0 -71.5 16.5t-45 51.5t-15.5 90v338h-74v32l75 19v97q0 42 14 71
t41 44.5t65 15.5z" />
    <glyph glyph-name="uni01AE" unicode="&#x1ae;" horiz-adv-x="500" 
d="M347 -196q-61 0 -93.5 36t-32.5 112v710h-215v52h488v-52h-215v-705q0 -56 20.5 -78.5t56.5 -22.5q15 0 27 3t21 7v-51q-10 -5 -25 -8t-32 -3z" />
    <glyph glyph-name="Uhorn" unicode="&#x1af;" horiz-adv-x="707" 
d="M593 614q27 6 44 23.5t25 48t8 74.5h58l6 -8q-4 -37 -13 -67t-25 -53t-41.5 -38.5t-61.5 -23.5v-318q0 -81 -28.5 -140t-85 -90.5t-138.5 -31.5q-123 0 -188.5 70t-65.5 194v460h58v-461q0 -103 50.5 -157t146.5 -54q64 0 106.5 24.5t64.5 70.5t22 111v466h58v-100z" />
    <glyph glyph-name="uhorn" unicode="&#x1b0;" horiz-adv-x="592" 
d="M615 607q-3 -35 -12 -65.5t-25 -53.5t-40 -38.5t-59 -22.5v-427h-46l-8 91h-3q-14 -29 -37.5 -52t-56.5 -36t-75 -13q-58 0 -97.5 21.5t-59.5 64.5t-20 108v348h57v-343q0 -76 32 -113t95 -37q82 0 122 51t40 152v290h57v-61q26 7 42 24.5t23.5 47.5t7.5 72h57z" />
    <glyph glyph-name="uni01B1" unicode="&#x1b1;" horiz-adv-x="730" 
d="M366 41q77 0 131 34.5t83 97t29 148.5q0 81 -20.5 143t-60 111.5t-98.5 91.5v47h264v-52h-190q47 -34 84.5 -82t59.5 -112t22 -148q0 -99 -37 -173.5t-105.5 -116t-161.5 -41.5q-94 0 -162.5 39.5t-105.5 113.5t-37 177q0 84 21 148.5t58.5 113t84.5 81.5h-188v52h264
v-47q-61 -42 -101 -92t-59.5 -112.5t-19.5 -141.5q0 -88 29 -150.5t84 -96t132 -33.5z" />
    <glyph glyph-name="uni01B2" unicode="&#x1b2;" horiz-adv-x="680" 
d="M338 -10q-122 0 -186.5 70t-64.5 194v460h58v-460q0 -104 50 -158t146 -54q63 0 106 24.5t65.5 70.5t22.5 111v343q0 44 -19.5 62.5t-51.5 18.5q-22 0 -41.5 -6t-31.5 -13v51q13 8 34.5 14t48.5 6q57 0 88 -32.5t31 -97.5v-342q0 -81 -30 -140t-87 -90.5t-138 -31.5z" />
    <glyph glyph-name="uni01B3" unicode="&#x1b3;" horiz-adv-x="549" 
d="M225 0v272l-225 442h64l190 -382l136 275q19 39 35 63t35.5 36t47.5 12q13 0 22.5 -2t15.5 -4v-49q-6 2 -14 3.5t-16 1.5q-16 0 -27 -8.5t-21 -25.5t-24 -43l-160 -315v-276h-59z" />
    <glyph glyph-name="uni01B4" unicode="&#x1b4;" horiz-adv-x="504" 
d="M452 541q14 0 26.5 -2.5t20.5 -6.5v-46q-6 3 -14 5t-18 2q-15 0 -25.5 -7t-18.5 -20.5t-15 -34.5l-187 -524q-25 -71 -60.5 -109.5t-95.5 -38.5q-18 0 -33 2.5t-28 6.5v48q12 -4 25 -6.5t28 -2.5q27 0 47 12t35.5 35.5t27.5 59.5l31 88l-197 530h61l117 -330
q16 -44 27 -79t18 -62h2q7 24 19 60t26 80l88 253q10 30 22 49.5t29.5 28.5t41.5 9z" />
    <glyph glyph-name="uni01B5" unicode="&#x1b5;" horiz-adv-x="542" 
d="M75 395h180l166 267h-368v52h441v-43l-173 -276h138v-48h-170l-181 -294h397v-53h-470v43l188 304h-148v48z" />
    <glyph glyph-name="uni01B6" unicode="&#x1b6;" horiz-adv-x="436" 
d="M396 532v-40l-125 -194h119v-47h-153l-131 -204h292v-47h-361v38l138 213h-121v47h154l120 188h-270v46h338z" />
    <glyph glyph-name="uni01B7" unicode="&#x1b7;" horiz-adv-x="547" 
d="M458 714v-46l-235 -266q124 -2 190 -50.5t66 -149.5q0 -63 -28 -111t-84 -74.5t-140 -26.5q-56 0 -104.5 10.5t-87.5 31.5v56q41 -22 92 -35t100 -13q95 0 143 42.5t48 119.5q0 52 -23.5 85.5t-69 49.5t-114.5 16h-56v49l227 260h-331v52h407z" />
    <glyph glyph-name="uni01B8" unicode="&#x1b8;" horiz-adv-x="535" 
d="M294 -10q-83 0 -137.5 28t-81 76t-26.5 110q0 72 30 119t84 71t124 25l-213 249v46h404v-52h-329l210 -247v-45h-55q-62 0 -105.5 -18t-66.5 -54t-23 -93q0 -78 48.5 -121.5t142.5 -43.5q50 0 101 13t92 34v-55q-40 -20 -89 -31t-110 -11z" />
    <glyph glyph-name="uni01B9" unicode="&#x1b9;" horiz-adv-x="444" 
d="M255 -240q-71 0 -122 28t-78 77.5t-27 114.5q0 74 29.5 125t85.5 78t135 29l-228 278v42h364v-49h-292l224 -277v-42h-46q-69 0 -117 -19.5t-72.5 -59.5t-24.5 -103q0 -52 20.5 -91t59.5 -60.5t92 -21.5q34 0 63.5 5t56.5 14t48 20v-54q-32 -16 -73.5 -25t-97.5 -9z" />
    <glyph glyph-name="uni01BA" unicode="&#x1ba;" horiz-adv-x="456" 
d="M197 -240q-52 0 -90 13t-58.5 39.5t-20.5 65.5q0 36 15.5 62t51 42t96.5 19q39 2 66.5 9.5t45.5 22.5t27 39t9 59q0 49 -23 74.5t-64 35.5t-95 10h-45v43l182 189h-255v49h338v-41l-189 -193q45 -1 82.5 -10t66 -28t44.5 -50.5t16 -78.5q0 -42 -12.5 -75t-37.5 -55.5
t-63 -34.5t-91 -14q-44 -2 -68 -11.5t-33 -25t-9 -38.5q0 -32 29 -50t86 -18q49 0 87 9t70 22v-53q-27 -11 -67 -19t-91 -8z" />
    <glyph glyph-name="uni01BB" unicode="&#x1bb;" horiz-adv-x="538" 
d="M250 769q58 0 100.5 -22t65.5 -63t23 -99q0 -53 -15.5 -96.5t-45.5 -89.5h95v-48h-127l-229 -300v-3h360v-48h-427v48l231 303h-196v48h230q32 49 48 90.5t16 94.5q0 66 -35 100t-97 34q-46 0 -83.5 -18t-71.5 -47l-30 40q25 22 53.5 39t62 27t72.5 10z" />
    <glyph glyph-name="uni01BC" unicode="&#x1bc;" horiz-adv-x="540" 
d="M236 -10q-57 0 -101.5 11.5t-76.5 29.5v56q25 -14 53 -24.5t60 -16.5t66 -6q56 0 98 19.5t65 60t23 101.5q0 85 -51.5 123.5t-132.5 38.5h-99v279h-91v52h409v-52h-260v-230h50q69 0 122 -23.5t83.5 -71t30.5 -117.5q0 -73 -30 -124.5t-85.5 -78.5t-132.5 -27z" />
    <glyph glyph-name="uni01BD" unicode="&#x1bd;" horiz-adv-x="430" 
d="M187 -8q-50 0 -91.5 10t-66.5 24v55q21 -11 45.5 -20.5t53.5 -15t61 -5.5q48 0 80 15.5t49 43.5t17 65q0 55 -34.5 83.5t-107.5 28.5h-85v207h-70v49h334v-49h-211v-158h46q66 0 106.5 -20t59.5 -55.5t19 -82.5q0 -46 -21.5 -86t-67 -64.5t-116.5 -24.5z" />
    <glyph glyph-name="uni01BE" unicode="&#x1be;" horiz-adv-x="426" 
d="M192 -10q-34 0 -62.5 4t-50 11t-38.5 15v54q20 -9 44 -17.5t51 -13.5t56 -5q51 0 80.5 13t42.5 36t13 52q0 32 -14 51t-39.5 32.5t-60.5 27.5q-26 11 -43.5 25.5t-26.5 41t-9 71.5v98h-81v32l81 19l20 122h37v-127h153v-46h-153v-97q0 -32 5.5 -50.5t17.5 -28t30 -16.5
q38 -14 69.5 -31.5t50.5 -45t19 -72.5q0 -48 -21.5 -82.5t-64 -53.5t-106.5 -19z" />
    <glyph glyph-name="uni01BF" unicode="&#x1bf;" horiz-adv-x="559" 
d="M308 542q58 0 102 -25.5t68 -75t24 -121.5q0 -73 -24.5 -132t-72 -102t-114.5 -67t-152 -26v-229h-57v768h47l7 -102h3q12 30 33.5 55.5t54.5 41t81 15.5zM298 493q-85 0 -122 -58t-37 -164v-230q69 2 125 21.5t96 55.5t61.5 86.5t21.5 114.5q0 54 -17.5 92.5t-49.5 60
t-78 21.5z" />
    <glyph glyph-name="uni01C0" unicode="&#x1c0;" horiz-adv-x="313" 
d="M131 0v760h51v-760h-51z" />
    <glyph glyph-name="uni01C1" unicode="&#x1c1;" horiz-adv-x="513" 
d="M131 0v760h51v-760h-51zM331 0v760h51v-760h-51z" />
    <glyph glyph-name="uni01C2" unicode="&#x1c2;" horiz-adv-x="485" 
d="M268 760v-267h155v-49h-155v-118h155v-49h-155v-277h-51v277h-155v49h155v118h-155v49h155v267h51z" />
    <glyph glyph-name="uni01C3" unicode="&#x1c3;" horiz-adv-x="245" 
d="M140 188h-47l-10 526h68zM73 39q0 24 11.5 36.5t31.5 12.5t31.5 -12.5t11.5 -36.5q0 -25 -11.5 -37.5t-31.5 -12.5t-31.5 12.5t-11.5 37.5z" />
    <glyph glyph-name="uni01C4" unicode="&#x1c4;" horiz-adv-x="1239" 
d="M612 364q0 -120 -40.5 -201t-118.5 -122t-192 -41h-167v714h188q106 0 179.5 -40t112 -117.5t38.5 -192.5zM550 362q0 101 -30.5 167.5t-92 100t-155.5 33.5h-120v-612h106q147 0 219.5 78t72.5 233zM1185 0h-470v43l386 619h-368v52h441v-43l-386 -618h397v-53z
M1115 937q-18 -19 -40 -46t-42 -54t-32 -49h-57q-11 22 -31 49t-41.5 54t-39.5 46v10h40q26 -23 52.5 -52t47.5 -57q23 28 49.5 57t51.5 52h42v-10z" />
    <glyph glyph-name="uni01C5" unicode="&#x1c5;" horiz-adv-x="1139" 
d="M612 364q0 -120 -40.5 -201t-118.5 -122t-192 -41h-167v714h188q106 0 179.5 -40t112 -117.5t38.5 -192.5zM550 362q0 101 -30.5 167.5t-92 100t-155.5 33.5h-120v-612h106q147 0 219.5 78t72.5 233zM1088 0h-361v38l291 448h-270v46h338v-40l-290 -445h292v-47z
M1066 755q-18 -19 -40 -46t-42 -54t-32 -49h-57q-11 22 -31 49t-41.5 54t-39.5 46v10h40q26 -23 52.5 -52t47.5 -57q23 28 49.5 57t51.5 52h42v-10z" />
    <glyph glyph-name="uni01C6" unicode="&#x1c6;" horiz-adv-x="1031" 
d="M261 -10q-99 0 -153.5 69t-54.5 202q0 137 56.5 209t156.5 72q42 0 73 -13.5t52.5 -36.5t34.5 -51h4q-1 23 -2.5 52t-1.5 52v215h57v-760h-46l-8 93h-3q-13 -28 -35 -51.5t-54 -37.5t-76 -14zM270 39q85 0 121 56t36 162v9q0 110 -35.5 168.5t-118.5 58.5
q-79 0 -120 -60.5t-41 -172.5q0 -108 39 -164.5t119 -56.5zM979 0h-361v38l291 448h-270v46h338v-40l-290 -445h292v-47zM955 755q-18 -19 -40 -46t-42 -54t-32 -49h-57q-11 22 -31 49t-41.5 54t-39.5 46v10h40q26 -23 52.5 -52t47.5 -57q23 28 49.5 57t51.5 52h42v-10z" />
    <glyph glyph-name="uni01C7" unicode="&#x1c7;" horiz-adv-x="747" 
d="M94 0v714h58v-661h313v-53h-371zM492 -182q-25 0 -42.5 4t-30.5 9v52q14 -5 32.5 -8.5t38.5 -3.5q34 0 57 14.5t35 44.5t12 75v709h58v-707q0 -59 -18 -101.5t-53.5 -65t-88.5 -22.5z" />
    <glyph glyph-name="uni01C8" unicode="&#x1c8;" horiz-adv-x="728" 
d="M94 0v714h58v-661h313v-53h-371zM518 -240q-21 0 -37.5 3.5t-28.5 7.5v49q14 -6 28.5 -8.5t31.5 -2.5q34 0 53 22t19 70v631h57v-632q0 -45 -14.5 -76.5t-42 -47.5t-66.5 -16zM575 686q0 20 10 31.5t27 11.5q19 0 29 -11.5t10 -31.5q0 -21 -10 -32.5t-29 -11.5
q-17 0 -27 11.5t-10 32.5z" />
    <glyph glyph-name="uni01C9" unicode="&#x1c9;" horiz-adv-x="453" 
d="M139 0h-57v760h57v-760zM243 -240q-21 0 -37.5 3.5t-28.5 7.5v49q14 -6 28.5 -8.5t31.5 -2.5q34 0 53 22t19 70v631h57v-632q0 -45 -14.5 -76.5t-42 -47.5t-66.5 -16zM300 686q0 20 10 31.5t27 11.5q19 0 29 -11.5t10 -31.5q0 -21 -10 -32.5t-29 -11.5q-17 0 -27 11.5
t-10 32.5z" />
    <glyph glyph-name="uni01CA" unicode="&#x1ca;" horiz-adv-x="954" 
d="M595 0h-63l-385 624h-3q1 -20 2 -40.5t1.5 -42.5t1 -44.5t0.5 -45.5v-451h-55v714h63l384 -622h3q0 16 -1 36t-1.5 43t-1 46.5t-0.5 43.5v453h55v-714zM700 -182q-25 0 -42.5 4t-30.5 9v52q14 -5 32.5 -8.5t38.5 -3.5q34 0 57 14.5t35 44.5t12 75v709h58v-707
q0 -59 -18 -101.5t-53.5 -65t-88.5 -22.5z" />
    <glyph glyph-name="uni01CB" unicode="&#x1cb;" horiz-adv-x="935" 
d="M595 0h-63l-385 624h-3q1 -20 2 -40.5t1.5 -42.5t1 -44.5t0.5 -45.5v-451h-55v714h63l384 -622h3q0 16 -1 36t-1.5 43t-1 46.5t-0.5 43.5v453h55v-714zM726 -240q-21 0 -37.5 3.5t-28.5 7.5v49q14 -6 28.5 -8.5t31.5 -2.5q34 0 53 22t19 70v631h57v-632
q0 -45 -14.5 -76.5t-42 -47.5t-66.5 -16zM783 686q0 20 10 31.5t27 11.5q19 0 29 -11.5t10 -31.5q0 -21 -10 -32.5t-29 -11.5q-17 0 -27 11.5t-10 32.5z" />
    <glyph glyph-name="uni01CC" unicode="&#x1cc;" horiz-adv-x="805" 
d="M309 542q85 0 130.5 -46.5t45.5 -147.5v-348h-57v344q0 77 -32.5 113t-94.5 36q-81 0 -121.5 -51t-40.5 -152v-290h-57v532h46l8 -92h4q13 30 37 53t57 36t75 13zM596 -240q-21 0 -37.5 3.5t-28.5 7.5v49q14 -6 28.5 -8.5t31.5 -2.5q34 0 53 22t19 70v631h57v-632
q0 -45 -14.5 -76.5t-42 -47.5t-66.5 -16zM653 686q0 20 10 31.5t27 11.5q19 0 29 -11.5t10 -31.5q0 -21 -10 -32.5t-29 -11.5q-17 0 -27 11.5t-10 32.5z" />
    <glyph glyph-name="uni01CD" unicode="&#x1cd;" horiz-adv-x="575" 
d="M514 0l-88 246h-277l-89 -246h-60l263 717h55l256 -717h-60zM320 556q-3 10 -8.5 27t-11.5 36t-11 34q-7 -26 -15.5 -52.5t-15.5 -45.5l-90 -256h240zM431 937q-18 -19 -40 -46t-42 -54t-32 -49h-57q-11 22 -31 49t-41.5 54t-39.5 46v10h40q26 -23 52.5 -52t47.5 -57
q23 28 49.5 57t51.5 52h42v-10z" />
    <glyph glyph-name="uni01CE" unicode="&#x1ce;" horiz-adv-x="507" 
d="M261 541q85 0 127 -43.5t42 -139.5v-358h-43l-10 90h-3q-18 -30 -40.5 -52.5t-55 -35t-79.5 -12.5t-82 17.5t-54 50.5t-19 81q0 80 61 121.5t178 46.5l90 5v37q0 79 -29 111.5t-86 32.5q-38 0 -73.5 -10.5t-71.5 -29.5l-18 46q36 18 78 30t88 12zM290 265
q-94 -5 -140 -35.5t-46 -90.5q0 -49 28.5 -75t77.5 -26q77 0 120 47.5t43 131.5v52zM390 755q-18 -19 -40 -46t-42 -54t-32 -49h-57q-11 22 -31 49t-41.5 54t-39.5 46v10h40q26 -23 52.5 -52t47.5 -57q23 28 49.5 57t51.5 52h42v-10z" />
    <glyph glyph-name="uni01CF" unicode="&#x1cf;" horiz-adv-x="295" 
d="M248 0h-201v36l72 11v619l-72 12v36h201v-36l-71 -12v-619l71 -11v-36zM280 937q-18 -19 -40 -46t-42 -54t-32 -49h-57q-11 22 -31 49t-41.5 54t-39.5 46v10h40q26 -23 52.5 -52t47.5 -57q23 28 49.5 57t51.5 52h42v-10z" />
    <glyph glyph-name="uni01D0" unicode="&#x1d0;" horiz-adv-x="221" 
d="M139 0h-57v532h57v-532zM241 755q-18 -19 -40 -46t-42 -54t-32 -49h-57q-11 22 -31 49t-41.5 54t-39.5 46v10h40q26 -23 52.5 -52t47.5 -57q23 28 49.5 57t51.5 52h42v-10z" />
    <glyph glyph-name="uni01D1" unicode="&#x1d1;" horiz-adv-x="723" 
d="M664 358q0 -82 -19 -149t-57 -116.5t-95 -76t-132 -26.5q-76 0 -133 27t-94.5 76t-56.5 116.5t-19 149.5q0 109 34.5 191.5t103 128.5t168.5 46q97 0 164 -44.5t101.5 -126.5t34.5 -196zM119 359q0 -95 26 -166.5t80 -111t137 -39.5t136.5 39t79 110.5t25.5 166.5
q0 149 -59.5 232t-179.5 83q-83 0 -137.5 -39t-81 -110t-26.5 -165zM508 937q-18 -19 -40 -46t-42 -54t-32 -49h-57q-11 22 -31 49t-41.5 54t-39.5 46v10h40q26 -23 52.5 -52t47.5 -57q23 28 49.5 57t51.5 52h42v-10z" />
    <glyph glyph-name="uni01D2" unicode="&#x1d2;" horiz-adv-x="556" 
d="M503 267q0 -63 -15 -113.5t-43.5 -87t-71 -56.5t-97.5 -20q-51 0 -92.5 19.5t-70.5 56t-44.5 87.5t-15.5 114q0 86 27.5 147.5t78.5 94.5t122 33q72 0 121 -34.5t75 -96t26 -144.5zM112 267q0 -68 18 -119.5t54.5 -80t92.5 -28.5q58 0 94.5 28.5t54.5 80t18 119.5
q0 66 -17 117t-53 80t-94 29q-84 0 -126 -60t-42 -166zM420 755q-18 -19 -40 -46t-42 -54t-32 -49h-57q-11 22 -31 49t-41.5 54t-39.5 46v10h40q26 -23 52.5 -52t47.5 -57q23 28 49.5 57t51.5 52h42v-10z" />
    <glyph glyph-name="uni01D3" unicode="&#x1d3;" horiz-adv-x="680" 
d="M593 252q0 -81 -30 -140t-87 -90.5t-138 -31.5q-122 0 -186.5 70t-64.5 194v460h58v-460q0 -104 50 -158t146 -54q63 0 106 24.5t65.5 70.5t22.5 111v466h58v-462zM486 937q-18 -19 -40 -46t-42 -54t-32 -49h-57q-11 22 -31 49t-41.5 54t-39.5 46v10h40q26 -23 52.5 -52
t47.5 -57q23 28 49.5 57t51.5 52h42v-10z" />
    <glyph glyph-name="uni01D4" unicode="&#x1d4;" horiz-adv-x="562" 
d="M479 532v-532h-46l-8 91h-3q-14 -29 -38 -52t-56.5 -36t-75.5 -13q-58 0 -97.5 21.5t-59 64.5t-19.5 108v348h57v-343q0 -76 32 -113t95 -37q55 0 90.5 23t53.5 68t18 112v290h57zM422 755q-18 -19 -40 -46t-42 -54t-32 -49h-57q-11 22 -31 49t-41.5 54t-39.5 46v10h40
q26 -23 52.5 -52t47.5 -57q23 28 49.5 57t51.5 52h42v-10z" />
    <glyph glyph-name="uni01D5" unicode="&#x1d5;" horiz-adv-x="680" 
d="M493 998v-47h-262v47h262zM273 887q18 0 26.5 -11t8.5 -30t-8.5 -29.5t-26.5 -10.5q-15 0 -24.5 10.5t-9.5 29.5t9.5 30t24.5 11zM449 887q17 0 25.5 -11t8.5 -30t-8.5 -29.5t-25.5 -10.5q-16 0 -25 10.5t-9 29.5t9 30t25 11zM593 252q0 -81 -30 -140t-87 -90.5
t-138 -31.5q-122 0 -186.5 70t-64.5 194v460h58v-460q0 -104 50 -158t146 -54q63 0 106 24.5t65.5 70.5t22.5 111v466h58v-462z" />
    <glyph glyph-name="uni01D6" unicode="&#x1d6;" horiz-adv-x="562" 
d="M430 816v-47h-262v47h262zM210 705q18 0 26.5 -11t8.5 -30t-8.5 -29.5t-26.5 -10.5q-15 0 -24.5 10.5t-9.5 29.5t9.5 30t24.5 11zM386 705q17 0 25.5 -11t8.5 -30t-8.5 -29.5t-25.5 -10.5q-16 0 -25 10.5t-9 29.5t9 30t25 11zM479 532v-532h-46l-8 91h-3q-14 -29 -38 -52
t-56.5 -36t-75.5 -13q-58 0 -97.5 21.5t-59 64.5t-19.5 108v348h57v-343q0 -76 32 -113t95 -37q55 0 90.5 23t53.5 68t18 112v290h57z" />
    <glyph glyph-name="uni01D7" unicode="&#x1d7;" horiz-adv-x="680" 
d="M326 931q25 28 53 64.5t45 69.5h67v-8q-13 -20 -34 -44.5t-45 -48t-46 -42.5h-40v9zM273 806q-15 0 -24.5 10.5t-9.5 29.5t9.5 30t24.5 11q17 0 26 -11t9 -30t-9 -29.5t-26 -10.5zM449 806q-16 0 -25 10.5t-9 29.5t9 30t25 11q17 0 25.5 -11t8.5 -30t-8.5 -29.5
t-25.5 -10.5zM593 252q0 -81 -30 -140t-87 -90.5t-138 -31.5q-122 0 -186.5 70t-64.5 194v460h58v-460q0 -104 50 -158t146 -54q63 0 106 24.5t65.5 70.5t22.5 111v466h58v-462z" />
    <glyph glyph-name="uni01D8" unicode="&#x1d8;" horiz-adv-x="562" 
d="M263 749q25 28 53 64.5t45 69.5h67v-8q-13 -20 -34 -44.5t-45 -48t-46 -42.5h-40v9zM210 624q-15 0 -24.5 10.5t-9.5 29.5t9.5 30t24.5 11q17 0 26 -11t9 -30t-9 -29.5t-26 -10.5zM386 624q-16 0 -25 10.5t-9 29.5t9 30t25 11q17 0 25.5 -11t8.5 -30t-8.5 -29.5
t-25.5 -10.5zM479 532v-532h-46l-8 91h-3q-14 -29 -38 -52t-56.5 -36t-75.5 -13q-58 0 -97.5 21.5t-59 64.5t-19.5 108v348h57v-343q0 -76 32 -113t95 -37q55 0 90.5 23t53.5 68t18 112v290h57z" />
    <glyph glyph-name="uni01D9" unicode="&#x1d9;" horiz-adv-x="680" 
d="M333 922q-12 21 -32 45.5t-41 48.5t-38 40v9h38q27 -21 52.5 -43t47.5 -50q25 28 50.5 51t51.5 42h38v-9q-16 -16 -38 -40t-42 -48.5t-31 -45.5h-56zM273 806q-16 0 -25 10.5t-9 29.5t9 30t25 11q17 0 25.5 -11t8.5 -30t-8.5 -29.5t-25.5 -10.5zM448 806q-16 0 -25 10.5
t-9 29.5t9 30t25 11q18 0 26.5 -11t8.5 -30t-8.5 -29.5t-26.5 -10.5zM593 252q0 -81 -30 -140t-87 -90.5t-138 -31.5q-122 0 -186.5 70t-64.5 194v460h58v-460q0 -104 50 -158t146 -54q63 0 106 24.5t65.5 70.5t22.5 111v466h58v-462z" />
    <glyph glyph-name="uni01DA" unicode="&#x1da;" horiz-adv-x="562" 
d="M270 740q-12 21 -31.5 45.5t-41 48.5t-38.5 40v9h38q27 -21 52.5 -43t47.5 -50q25 28 50.5 51t51.5 42h38v-9q-16 -16 -38 -40t-42 -48.5t-31 -45.5h-56zM210 624q-16 0 -25 10.5t-9 29.5t9 30t25 11q17 0 25.5 -11t8.5 -30t-8.5 -29.5t-25.5 -10.5zM385 624
q-16 0 -25 10.5t-9 29.5t9 30t25 11q18 0 26.5 -11t8.5 -30t-8.5 -29.5t-26.5 -10.5zM479 532v-532h-46l-8 91h-3q-14 -29 -38 -52t-56.5 -36t-75.5 -13q-58 0 -97.5 21.5t-59 64.5t-19.5 108v348h57v-343q0 -76 32 -113t95 -37q55 0 90.5 23t53.5 68t18 112v290h57z" />
    <glyph glyph-name="uni01DB" unicode="&#x1db;" horiz-adv-x="680" 
d="M301 1065q18 -33 46 -69.5t52 -64.5v-9h-40q-22 19 -46 42.5t-45 48t-34 44.5v8h67zM274 887q16 0 25 -11t9 -30t-9 -29.5t-25 -10.5t-25.5 10.5t-9.5 29.5t9.5 30t25.5 11zM449 887q17 0 25.5 -11t8.5 -30t-8.5 -29.5t-25.5 -10.5q-16 0 -25 10.5t-9 29.5t9 30t25 11z
M593 252q0 -81 -30 -140t-87 -90.5t-138 -31.5q-122 0 -186.5 70t-64.5 194v460h58v-460q0 -104 50 -158t146 -54q63 0 106 24.5t65.5 70.5t22.5 111v466h58v-462z" />
    <glyph glyph-name="uni01DC" unicode="&#x1dc;" horiz-adv-x="562" 
d="M238 883q18 -33 46 -69.5t52 -64.5v-9h-40q-22 19 -46 42.5t-45 48t-34 44.5v8h67zM211 705q16 0 25 -11t9 -30t-9 -29.5t-25 -10.5t-25.5 10.5t-9.5 29.5t9.5 30t25.5 11zM386 705q17 0 25.5 -11t8.5 -30t-8.5 -29.5t-25.5 -10.5q-16 0 -25 10.5t-9 29.5t9 30t25 11z
M479 532v-532h-46l-8 91h-3q-14 -29 -38 -52t-56.5 -36t-75.5 -13q-58 0 -97.5 21.5t-59 64.5t-19.5 108v348h57v-343q0 -76 32 -113t95 -37q55 0 90.5 23t53.5 68t18 112v290h57z" />
    <glyph glyph-name="uni01DD" unicode="&#x1dd;" horiz-adv-x="520" 
d="M234 542q75 0 127 -33t79 -93.5t27 -144.5q0 -81 -25.5 -144.5t-74.5 -100t-119 -36.5q-64 0 -107.5 31.5t-66 87t-22.5 126.5v39h356q-1 106 -46.5 162t-129.5 56q-47 0 -82 -8t-77 -28v52q38 18 75 26t86 8zM111 226q1 -55 15.5 -97.5t45 -66t76.5 -23.5q68 0 110 48.5
t49 138.5h-296z" />
    <glyph glyph-name="uni01DE" unicode="&#x1de;" horiz-adv-x="575" 
d="M438 998v-47h-262v47h262zM218 887q18 0 26.5 -11t8.5 -30t-8.5 -29.5t-26.5 -10.5q-15 0 -24.5 10.5t-9.5 29.5t9.5 30t24.5 11zM394 887q17 0 25.5 -11t8.5 -30t-8.5 -29.5t-25.5 -10.5q-16 0 -25 10.5t-9 29.5t9 30t25 11zM514 0l-88 246h-277l-89 -246h-60l263 717
h55l256 -717h-60zM320 556q-3 10 -8.5 27t-11.5 36t-11 34q-7 -26 -15.5 -52.5t-15.5 -45.5l-90 -256h240z" />
    <glyph glyph-name="uni01DF" unicode="&#x1df;" horiz-adv-x="507" 
d="M398 816v-47h-262v47h262zM178 705q18 0 26.5 -11t8.5 -30t-8.5 -29.5t-26.5 -10.5q-15 0 -24.5 10.5t-9.5 29.5t9.5 30t24.5 11zM354 705q17 0 25.5 -11t8.5 -30t-8.5 -29.5t-25.5 -10.5q-16 0 -25 10.5t-9 29.5t9 30t25 11zM261 541q85 0 127 -43.5t42 -139.5v-358h-43
l-10 90h-3q-18 -30 -40.5 -52.5t-55 -35t-79.5 -12.5t-82 17.5t-54 50.5t-19 81q0 80 61 121.5t178 46.5l90 5v37q0 79 -29 111.5t-86 32.5q-38 0 -73.5 -10.5t-71.5 -29.5l-18 46q36 18 78 30t88 12zM290 265q-94 -5 -140 -35.5t-46 -90.5q0 -49 28.5 -75t77.5 -26
q77 0 120 47.5t43 131.5v52z" />
    <glyph glyph-name="uni01E0" unicode="&#x1e0;" horiz-adv-x="575" 
d="M183 929v48h249v-48h-249zM307 868q18 0 28 -11.5t10 -31.5q0 -21 -10 -32.5t-28 -11.5t-27.5 11.5t-9.5 32.5q0 20 9.5 31.5t27.5 11.5zM514 0l-88 246h-277l-89 -246h-60l263 717h55l256 -717h-60zM320 556q-3 10 -8.5 27t-11.5 36t-11 34q-7 -26 -15.5 -52.5
t-15.5 -45.5l-90 -256h240z" />
    <glyph glyph-name="uni01E1" unicode="&#x1e1;" horiz-adv-x="507" 
d="M398 817v-48h-262v48h262zM266 708q18 0 28 -11.5t10 -31.5q0 -21 -10 -32.5t-28 -11.5t-27.5 11.5t-9.5 32.5q0 20 9.5 31.5t27.5 11.5zM261 541q85 0 127 -43.5t42 -139.5v-358h-43l-10 90h-3q-18 -30 -40.5 -52.5t-55 -35t-79.5 -12.5t-82 17.5t-54 50.5t-19 81
q0 80 61 121.5t178 46.5l90 5v37q0 79 -29 111.5t-86 32.5q-38 0 -73.5 -10.5t-71.5 -29.5l-18 46q36 18 78 30t88 12zM290 265q-94 -5 -140 -35.5t-46 -90.5q0 -49 28.5 -75t77.5 -26q77 0 120 47.5t43 131.5v52z" />
    <glyph glyph-name="uni01E2" unicode="&#x1e2;" horiz-adv-x="778" 
d="M743 0h-358v246h-221l-103 -246h-62l304 714h440v-52h-300v-261h281v-52h-281v-297h300v-52zM187 298h198v364h-47zM566 840v-48h-262v48h262z" />
    <glyph glyph-name="uni01E3" unicode="&#x1e3;" horiz-adv-x="808" 
d="M569 542q61 0 102.5 -31.5t63 -86t21.5 -125.5v-40h-335q1 -108 43.5 -163.5t119.5 -55.5q44 0 77.5 8.5t73.5 27.5v-52q-36 -17 -72 -25.5t-81 -8.5q-47 0 -85 16.5t-64.5 46.5t-42.5 71q-17 -40 -41.5 -70t-60.5 -47t-87 -17q-48 0 -83.5 17.5t-54.5 50.5t-19 81
q0 54 26.5 89.5t78.5 55.5t126 23l88 5v38q0 78 -29.5 110.5t-83.5 32.5q-36 0 -72 -10.5t-71 -29.5l-18 46q35 19 78 30.5t86 11.5q62 0 99 -28.5t51 -90.5q23 54 65 87t101 33zM283 265q-90 -5 -134.5 -35.5t-44.5 -90.5q0 -49 27.5 -75t77.5 -26q48 0 82 21.5t52.5 61.5
t18.5 96v52zM569 494q-61 0 -101 -48t-46 -140h274q0 56 -14 98.5t-42 66t-71 23.5zM546 658v-48h-262v48h262z" />
    <glyph glyph-name="uni01E4" unicode="&#x1e4;" horiz-adv-x="681" 
d="M389 -10q-110 0 -183.5 44t-110.5 125.5t-37 195.5q0 109 41 192t118 130.5t185 47.5q55 0 104.5 -10.5t93.5 -32.5l-23 -51q-27 14 -57 23.5t-60.5 14t-61.5 4.5q-88 0 -150.5 -39t-95.5 -110t-33 -167q0 -105 31 -175t93 -105t153 -35q48 0 85.5 7t68.5 19v91h-168v48
h168v109h-187v53h245v-162h59v-48h-59v-126q-47 -20 -100.5 -31.5t-118.5 -11.5z" />
    <glyph glyph-name="uni01E5" unicode="&#x1e5;" horiz-adv-x="564" 
d="M265 542q59 0 97 -24t62 -67h4l8 81h46v-584h64v-48h-69q-10 -64 -62.5 -102t-149.5 -38q-56 0 -99.5 10t-79.5 26v55q36 -18 82 -30t99 -12q67 0 104 23t47 68h-164v48h172v82q0 20 0.5 39t1.5 39h-3q-21 -51 -63.5 -77.5t-102.5 -26.5q-65 0 -111 30.5t-70.5 90
t-24.5 144.5q0 126 54.5 199.5t157.5 73.5zM272 493q-53 0 -88.5 -26.5t-53.5 -76.5t-18 -121q0 -106 40 -161t115 -55q45 0 76 15t49 42t26 64t8 80v32q0 65 -15 111.5t-49 71t-90 24.5z" />
    <glyph glyph-name="uni01E6" unicode="&#x1e6;" horiz-adv-x="681" 
d="M363 364h245v-332q-50 -21 -105 -31.5t-118 -10.5q-106 0 -179 43.5t-110.5 125.5t-37.5 197q0 109 41 192t118 130t185 47q55 0 104.5 -10.5t93.5 -32.5l-23 -51q-41 21 -86 31.5t-91 10.5q-88 0 -151 -40t-96.5 -111t-33.5 -165q0 -103 31 -173.5t93 -106t153 -35.5
q32 0 59.5 3t51 9t43.5 14v243h-187v53zM526 937q-18 -19 -40 -46t-42 -54t-32 -49h-57q-11 22 -31 49t-41.5 54t-39.5 46v10h40q26 -23 52.5 -52t47.5 -57q23 28 49.5 57t51.5 52h42v-10z" />
    <glyph glyph-name="uni01E7" unicode="&#x1e7;" horiz-adv-x="564" 
d="M265 542q59 0 97 -24t62 -67h4l8 81h46v-549q0 -69 -22.5 -119t-70 -77t-124.5 -27q-56 0 -99.5 10t-79.5 26v55q24 -12 52.5 -21.5t61 -15t67.5 -5.5q81 0 120 46.5t39 124.5v31q0 21 0.5 42.5t1.5 40.5h-3q-21 -51 -63.5 -77.5t-102.5 -26.5q-97 0 -151.5 70.5
t-54.5 201.5q0 86 24.5 149t72 97t115.5 34zM272 493q-53 0 -88.5 -27.5t-53.5 -79t-18 -125.5q0 -108 40 -165t115 -57q45 0 76 15.5t49 43.5t26 66t8 82v35q0 68 -15 115t-49 72t-90 25zM414 755q-18 -19 -40 -46t-42 -54t-32 -49h-57q-11 22 -31 49t-41.5 54t-39.5 46v10
h40q26 -23 52.5 -52t47.5 -57q23 28 49.5 57t51.5 52h42v-10z" />
    <glyph glyph-name="uni01E8" unicode="&#x1e8;" horiz-adv-x="557" 
d="M557 0h-70l-252 370l-83 -85v-285h-58v714h58v-371q19 24 39.5 47t41.5 47l245 277h71l-272 -304zM441 937q-18 -19 -40 -46t-42 -54t-32 -49h-57q-11 22 -31 49t-41.5 54t-39.5 46v10h40q26 -23 52.5 -52t47.5 -57q23 28 49.5 57t51.5 52h42v-10z" />
    <glyph glyph-name="uni01E9" unicode="&#x1e9;" horiz-adv-x="469" 
d="M138 374q0 -32 -0.5 -66.5t-1.5 -67.5h1q9 10 18.5 22.5t19.5 25.5t20 24l188 220h68l-199 -228l215 -304h-68l-186 267l-75 -82v-185h-56v760h56v-386zM241 983q-18 -19 -40 -46t-42 -54t-32 -49h-57q-11 22 -31 49t-41.5 54t-39.5 46v10h40q26 -23 52.5 -52t47.5 -57
q23 28 49.5 57t51.5 52h42v-10z" />
    <glyph glyph-name="uni01EA" unicode="&#x1ea;" horiz-adv-x="723" 
d="M664 358q0 -82 -19 -149t-57 -116.5t-95 -76t-132 -26.5q-76 0 -133 27t-94.5 76t-56.5 116.5t-19 149.5q0 109 34.5 191.5t103 128.5t168.5 46q97 0 164 -44.5t101.5 -126.5t34.5 -196zM119 359q0 -95 26 -166.5t80 -111t137 -39.5t136.5 39t79 110.5t25.5 166.5
q0 149 -59.5 232t-179.5 83q-83 0 -137.5 -39t-81 -110t-26.5 -165zM355 -123q0 -26 12.5 -39.5t35.5 -13.5q15 0 26.5 2t19.5 4v-40q-11 -3 -24 -5.5t-30 -2.5q-27 0 -47 10t-30.5 30t-10.5 48q0 26 12 51.5t33 48.5t46 43l32 -13q-31 -29 -53 -59t-22 -64z" />
    <glyph glyph-name="uni01EB" unicode="&#x1eb;" horiz-adv-x="556" 
d="M503 267q0 -63 -15 -113.5t-43.5 -87t-71 -56.5t-97.5 -20q-51 0 -92.5 19.5t-70.5 56t-44.5 87.5t-15.5 114q0 86 27.5 147.5t78.5 94.5t122 33q72 0 121 -34.5t75 -96t26 -144.5zM112 267q0 -68 18 -119.5t54.5 -80t92.5 -28.5q58 0 94.5 28.5t54.5 80t18 119.5
q0 66 -17 117t-53 80t-94 29q-84 0 -126 -60t-42 -166zM268 -123q0 -26 12.5 -39.5t35.5 -13.5q15 0 26.5 2t19.5 4v-40q-11 -3 -24 -5.5t-30 -2.5q-27 0 -47 10t-30.5 30t-10.5 48q0 26 12 51.5t33 48.5t46 43l32 -13q-31 -29 -53 -59t-22 -64z" />
    <glyph glyph-name="uni01EC" unicode="&#x1ec;" horiz-adv-x="723" 
d="M664 358q0 -82 -19 -149t-57 -116.5t-95 -76t-132 -26.5q-76 0 -133 27t-94.5 76t-56.5 116.5t-19 149.5q0 109 34.5 191.5t103 128.5t168.5 46q97 0 164 -44.5t101.5 -126.5t34.5 -196zM119 359q0 -95 26 -166.5t80 -111t137 -39.5t136.5 39t79 110.5t25.5 166.5
q0 149 -59.5 232t-179.5 83q-83 0 -137.5 -39t-81 -110t-26.5 -165zM499 840v-48h-262v48h262zM373 -123q0 -26 12.5 -39.5t35.5 -13.5q15 0 26.5 2t19.5 4v-40q-11 -3 -24 -5.5t-30 -2.5q-27 0 -47 10t-30.5 30t-10.5 48q0 26 12 51.5t33 48.5t46 43l32 -13
q-31 -29 -53 -59t-22 -64z" />
    <glyph glyph-name="uni01ED" unicode="&#x1ed;" horiz-adv-x="556" 
d="M503 267q0 -63 -15 -113.5t-43.5 -87t-71 -56.5t-97.5 -20q-51 0 -92.5 19.5t-70.5 56t-44.5 87.5t-15.5 114q0 86 27.5 147.5t78.5 94.5t122 33q72 0 121 -34.5t75 -96t26 -144.5zM112 267q0 -68 18 -119.5t54.5 -80t92.5 -28.5q58 0 94.5 28.5t54.5 80t18 119.5
q0 66 -17 117t-53 80t-94 29q-84 0 -126 -60t-42 -166zM410 658v-48h-262v48h262zM269 -123q0 -26 12.5 -39.5t35.5 -13.5q15 0 26.5 2t19.5 4v-40q-11 -3 -24 -5.5t-30 -2.5q-27 0 -47 10t-30.5 30t-10.5 48q0 26 12 51.5t33 48.5t46 43l32 -13q-31 -29 -53 -59t-22 -64z
" />
    <glyph glyph-name="uni01EE" unicode="&#x1ee;" horiz-adv-x="547" 
d="M458 714v-46l-235 -266q124 -2 190 -50.5t66 -149.5q0 -63 -28 -111t-84 -74.5t-140 -26.5q-56 0 -104.5 10.5t-87.5 31.5v56q41 -22 92 -35t100 -13q95 0 143 42.5t48 119.5q0 52 -23.5 85.5t-69 49.5t-114.5 16h-56v49l227 260h-331v52h407zM400 937q-18 -19 -40 -46
t-42 -54t-32 -49h-57q-11 22 -31 49t-41.5 54t-39.5 46v10h40q26 -23 52.5 -52t47.5 -57q23 28 49.5 57t51.5 52h42v-10z" />
    <glyph glyph-name="uni01EF" unicode="&#x1ef;" horiz-adv-x="444" 
d="M394 532v-42l-230 -278q81 -2 136.5 -27.5t84 -73t28.5 -117.5q0 -69 -28 -122t-80 -82.5t-125 -29.5q-34 0 -63.5 4t-55 11.5t-46.5 18.5v55q33 -17 75.5 -28.5t91.5 -11.5q54 0 93 22.5t59.5 64t20.5 97.5q0 59 -24 97t-71.5 56t-118.5 18h-46v42l226 277h-291v49h364z
M344 755q-18 -19 -40 -46t-42 -54t-32 -49h-57q-11 22 -31 49t-41.5 54t-39.5 46v10h40q26 -23 52.5 -52t47.5 -57q23 28 49.5 57t51.5 52h42v-10z" />
    <glyph glyph-name="uni01F0" unicode="&#x1f0;" horiz-adv-x="222" 
d="M17 -240q-21 0 -37.5 3.5t-28.5 7.5v49q14 -6 28.5 -8.5t31.5 -2.5q34 0 53 22t19 70v631h57v-632q0 -45 -14.5 -76.5t-42 -47.5t-66.5 -16zM241 755q-18 -19 -40 -46t-42 -54t-32 -49h-57q-11 22 -31 49t-41.5 54t-39.5 46v10h40q26 -23 52.5 -52t47.5 -57
q23 28 49.5 57t51.5 52h42v-10z" />
    <glyph glyph-name="uni01F1" unicode="&#x1f1;" horiz-adv-x="1203" 
d="M612 364q0 -120 -40.5 -201t-118.5 -122t-192 -41h-167v714h188q106 0 179.5 -40t112 -117.5t38.5 -192.5zM550 362q0 101 -30.5 167.5t-92 100t-155.5 33.5h-120v-612h106q147 0 219.5 78t72.5 233zM1166 0h-470v43l386 619h-368v52h441v-43l-386 -618h397v-53z" />
    <glyph glyph-name="uni01F2" unicode="&#x1f2;" horiz-adv-x="1106" 
d="M612 364q0 -120 -40.5 -201t-118.5 -122t-192 -41h-167v714h188q106 0 179.5 -40t112 -117.5t38.5 -192.5zM550 362q0 101 -30.5 167.5t-92 100t-155.5 33.5h-120v-612h106q147 0 219.5 78t72.5 233zM1068 0h-361v38l291 448h-270v46h338v-40l-290 -445h292v-47z" />
    <glyph glyph-name="uni01F3" unicode="&#x1f3;" horiz-adv-x="1000" 
d="M261 -10q-99 0 -153.5 69t-54.5 202q0 137 56.5 209t156.5 72q42 0 73 -13.5t52.5 -36.5t34.5 -51h4q-1 23 -2.5 52t-1.5 52v215h57v-760h-46l-8 93h-3q-13 -28 -35 -51.5t-54 -37.5t-76 -14zM270 39q85 0 121 56t36 162v9q0 110 -35.5 168.5t-118.5 58.5
q-79 0 -120 -60.5t-41 -172.5q0 -108 39 -164.5t119 -56.5zM962 0h-361v38l291 448h-270v46h338v-40l-290 -445h292v-47z" />
    <glyph glyph-name="uni01F4" unicode="&#x1f4;" horiz-adv-x="681" 
d="M363 364h245v-332q-50 -21 -105 -31.5t-118 -10.5q-106 0 -179 43.5t-110.5 125.5t-37.5 197q0 109 41 192t118 130t185 47q55 0 104.5 -10.5t93.5 -32.5l-23 -51q-41 21 -86 31.5t-91 10.5q-88 0 -151 -40t-96.5 -111t-33.5 -165q0 -103 31 -173.5t93 -106t153 -35.5
q32 0 59.5 3t51 9t43.5 14v243h-187v53zM517 946q-11 -16 -27 -35.5t-35 -40.5t-39 -40.5t-38 -35.5h-39v9q18 20 39 47t40 55t31 49h68v-8z" />
    <glyph glyph-name="uni01F5" unicode="&#x1f5;" horiz-adv-x="564" 
d="M265 542q59 0 97 -24t62 -67h4l8 81h46v-549q0 -69 -22.5 -119t-70 -77t-124.5 -27q-56 0 -99.5 10t-79.5 26v55q24 -12 52.5 -21.5t61 -15t67.5 -5.5q81 0 120 46.5t39 124.5v31q0 21 0.5 42.5t1.5 40.5h-3q-21 -51 -63.5 -77.5t-102.5 -26.5q-97 0 -151.5 70.5
t-54.5 201.5q0 86 24.5 149t72 97t115.5 34zM272 493q-53 0 -88.5 -27.5t-53.5 -79t-18 -125.5q0 -108 40 -165t115 -57q45 0 76 15.5t49 43.5t26 66t8 82v35q0 68 -15 115t-49 72t-90 25zM411 758q-11 -16 -27 -35.5t-35 -40.5t-39 -40.5t-38 -35.5h-39v9q18 20 39 47
t40 55t31 49h68v-8z" />
    <glyph glyph-name="uni01F6" unicode="&#x1f6;" horiz-adv-x="914" 
d="M94 0v714h58v-314h328v314h58v-536q0 -49 14 -79t40.5 -43.5t62.5 -13.5t61.5 14.5t39 44.5t13.5 78v353h57v-355q0 -61 -20.5 -102.5t-59 -62.5t-92.5 -21t-93.5 20.5t-60 62t-20.5 103.5v171h-328v-348h-58z" />
    <glyph glyph-name="uni01F7" unicode="&#x1f7;" horiz-adv-x="594" 
d="M346 725q55 0 99.5 -25t71 -80t26.5 -144q0 -84 -26 -156.5t-76 -133.5t-123 -109t-167 -83v-234h-57v955h46l9 -118h3q15 33 39.5 62.5t63 47.5t91.5 18zM336 674q-61 0 -102 -29t-62 -83t-21 -131v-383q75 29 136 70t105 94t68 118.5t24 143.5q0 73 -19.5 116.5
t-53 63.5t-75.5 20z" />
    <glyph glyph-name="uni01F8" unicode="&#x1f8;" horiz-adv-x="689" 
d="M595 0h-63l-385 624h-3q1 -20 2 -40.5t1.5 -42.5t1 -44.5t0.5 -45.5v-451h-55v714h63l384 -622h3q0 16 -1 36t-1.5 43t-1 46.5t-0.5 43.5v453h55v-714zM294 948q13 -21 32 -49t40.5 -55t38.5 -47v-9h-40q-18 16 -37.5 35.5t-38.5 40.5t-35 40.5t-27 35.5v8h67z" />
    <glyph glyph-name="uni01F9" unicode="&#x1f9;" horiz-adv-x="562" 
d="M309 542q85 0 130.5 -46.5t45.5 -147.5v-348h-57v344q0 77 -32.5 113t-94.5 36q-81 0 -121.5 -51t-40.5 -152v-290h-57v532h46l8 -92h4q13 30 37 53t57 36t75 13zM231 766q13 -21 32 -49t40.5 -55t38.5 -47v-9h-40q-18 16 -37.5 35.5t-38.5 40.5t-35 40.5t-27 35.5v8h67z
" />
    <glyph glyph-name="Aringacute" unicode="&#x1fa;" horiz-adv-x="575" 
d="M252 593q-29 9 -46.5 34t-17.5 64q0 47 28.5 75.5t72.5 28.5t72.5 -28t28.5 -76q0 -38 -16.5 -62.5t-45.5 -35.5l250 -593h-62l-88 213h-282l-88 -213h-61zM168 265h241l-91 224q-3 10 -8.5 23t-10.5 27.5t-10 28.5q-3 -10 -7 -21t-7.5 -21.5t-7.5 -20t-7 -16.5zM289 621
q28 0 46 18t18 52q0 32 -17.5 50t-46.5 18q-28 0 -46 -18t-18 -50q0 -33 17.5 -51.5t46.5 -18.5zM259 833q17 18 34.5 40t33 45.5t27.5 43.5h67v-8q-9 -14 -23 -30.5t-30.5 -34t-34 -33.5t-34.5 -30h-40v7z" />
    <glyph glyph-name="aringacute" unicode="&#x1fb;" horiz-adv-x="507" 
d="M261 541q85 0 127 -43.5t42 -139.5v-358h-43l-10 90h-3q-18 -30 -40.5 -52.5t-55 -35t-79.5 -12.5t-82 17.5t-54 50.5t-19 81q0 80 61 121.5t178 46.5l91 5v39q0 79 -29.5 110.5t-86.5 31.5q-38 0 -73.5 -10.5t-71.5 -29.5l-18 46q36 18 78 30t88 12zM290 265
q-94 -4 -140 -35t-46 -91q0 -49 28.5 -75t77.5 -26q52 0 88.5 22t56 62t19.5 95v51zM260 760q-26 0 -44 -18.5t-18 -47.5t17 -47.5t45 -18.5t44.5 18.5t16.5 47.5t-17.5 47.5t-43.5 18.5zM260 796q28 0 51 -13t36 -35.5t13 -53.5q0 -47 -28.5 -75t-71.5 -28
q-42 0 -70.5 27.5t-28.5 75.5q0 46 28.5 74t70.5 28zM388 948q-13 -17 -36 -38t-49 -41.5t-48 -37.5h-42v7q16 16 34 36t34 41t28 39h79v-6z" />
    <glyph glyph-name="AEacute" unicode="&#x1fc;" horiz-adv-x="778" 
d="M743 0h-358v246h-221l-103 -246h-62l304 714h440v-52h-300v-261h281v-52h-281v-297h300v-52zM187 298h198v364h-47zM568 940q-11 -16 -27 -35.5t-35 -40.5t-39 -40.5t-38 -35.5h-39v9q18 20 39 47t40 55t31 49h68v-8z" />
    <glyph glyph-name="aeacute" unicode="&#x1fd;" horiz-adv-x="808" 
d="M569 542q61 0 102.5 -31.5t63 -86t21.5 -125.5v-40h-335q1 -108 43.5 -163.5t119.5 -55.5q44 0 77.5 8.5t73.5 27.5v-52q-36 -17 -72 -25.5t-81 -8.5q-47 0 -85 16.5t-64.5 46.5t-42.5 71q-17 -40 -41.5 -70t-60.5 -47t-87 -17q-48 0 -83.5 17.5t-54.5 50.5t-19 81
q0 54 26.5 89.5t78.5 55.5t126 23l88 5v38q0 78 -29.5 110.5t-83.5 32.5q-36 0 -72 -10.5t-71 -29.5l-18 46q35 19 78 30.5t86 11.5q62 0 99 -28.5t51 -90.5q23 54 65 87t101 33zM283 265q-90 -5 -134.5 -35.5t-44.5 -90.5q0 -49 27.5 -75t77.5 -26q48 0 82 21.5t52.5 61.5
t18.5 96v52zM569 494q-61 0 -101 -48t-46 -140h274q0 56 -14 98.5t-42 66t-71 23.5zM542 758q-11 -16 -27 -35.5t-35 -40.5t-39 -40.5t-38 -35.5h-39v9q18 20 39 47t40 55t31 49h68v-8z" />
    <glyph glyph-name="Oslashacute" unicode="&#x1fe;" horiz-adv-x="723" 
d="M664 358q0 -82 -19 -149t-57 -116.5t-95 -76t-132 -26.5q-56 0 -102 15.5t-80 44.5l-53 -78l-40 27l56 83q-42 50 -63 120.5t-21 156.5q0 109 34.5 191.5t103 128.5t168.5 46q53 0 97 -14.5t79 -40.5l49 73l40 -28l-52 -77q42 -47 64.5 -118t22.5 -162zM603 358
q0 75 -15 133.5t-45 98.5l-332 -495q28 -25 66 -39t85 -14q83 0 136.5 39t79 110.5t25.5 166.5zM119 359q0 -70 14.5 -128t43.5 -100l331 494q-27 23 -63 35.5t-81 12.5q-83 0 -137.5 -39t-81 -110t-26.5 -165zM496 969q-11 -16 -27 -35.5t-35 -40.5t-39 -40.5t-38 -35.5
h-39v9q18 20 39 47t40 55t31 49h68v-8z" />
    <glyph glyph-name="oslashacute" unicode="&#x1ff;" horiz-adv-x="556" 
d="M503 267q0 -83 -26 -145.5t-76.5 -97t-123.5 -34.5q-41 0 -74.5 13t-59.5 36l-49 -69l-38 28l53 73q-27 37 -41 86.5t-14 109.5q0 129 60.5 202t166.5 73q40 0 73 -12t58 -33l44 64l39 -27l-49 -69q28 -36 42.5 -86.5t14.5 -111.5zM113 267q0 -45 7 -82.5t22 -66.5
l239 337q-18 18 -43.5 28t-57.5 10q-84 0 -125.5 -60t-41.5 -166zM444 267q0 45 -7.5 83.5t-24.5 67.5l-239 -338q20 -19 46 -30t59 -11q57 0 94 28.5t54.5 80t17.5 119.5zM413 787q-11 -16 -27 -35.5t-35 -40.5t-39 -40.5t-38 -35.5h-39v9q18 20 39 47t40 55t31 49h68v-8z
" />
    <glyph glyph-name="uni0200" unicode="&#x200;" horiz-adv-x="575" 
d="M514 0l-88 246h-277l-89 -246h-60l263 717h55l256 -717h-60zM320 556q-3 10 -8.5 27t-11.5 36t-11 34q-7 -26 -15.5 -52.5t-15.5 -45.5l-90 -256h240zM331 948q11 -22 26.5 -50t32.5 -54.5t32 -46.5v-9h-35q-15 16 -32 35t-34 40.5t-30.5 41t-22.5 35.5v8h63zM172 948
q11 -22 26.5 -50t33 -54.5t32.5 -46.5v-9h-36q-15 16 -32 35t-33.5 40.5t-30.5 41t-23 35.5v8h63z" />
    <glyph glyph-name="uni0201" unicode="&#x201;" horiz-adv-x="507" 
d="M261 541q85 0 127 -43.5t42 -139.5v-358h-43l-10 90h-3q-18 -30 -40.5 -52.5t-55 -35t-79.5 -12.5t-82 17.5t-54 50.5t-19 81q0 80 61 121.5t178 46.5l90 5v37q0 79 -29 111.5t-86 32.5q-38 0 -73.5 -10.5t-71.5 -29.5l-18 46q36 18 78 30t88 12zM290 265
q-94 -5 -140 -35.5t-46 -90.5q0 -49 28.5 -75t77.5 -26q77 0 120 47.5t43 131.5v52zM298 766q11 -22 26.5 -50t32.5 -54.5t32 -46.5v-9h-35q-15 16 -32 35t-34 40.5t-30.5 41t-22.5 35.5v8h63zM139 766q11 -22 26.5 -50t33 -54.5t32.5 -46.5v-9h-36q-15 16 -32 35
t-33.5 40.5t-30.5 41t-23 35.5v8h63z" />
    <glyph glyph-name="uni0202" unicode="&#x202;" horiz-adv-x="575" 
d="M514 0l-88 246h-277l-89 -246h-60l263 717h55l256 -717h-60zM320 556q-3 10 -8.5 27t-11.5 36t-11 34q-7 -26 -15.5 -52.5t-15.5 -45.5l-90 -256h240zM288 911q41 0 69.5 -14.5t44.5 -42t18 -66.5h-39q-3 28 -14 44t-31 24t-49 8q-27 0 -47 -8t-31.5 -24.5t-14.5 -43.5
h-40q4 39 20.5 66t45.5 42t68 15z" />
    <glyph glyph-name="uni0203" unicode="&#x203;" horiz-adv-x="507" 
d="M261 541q85 0 127 -43.5t42 -139.5v-358h-43l-10 90h-3q-18 -30 -40.5 -52.5t-55 -35t-79.5 -12.5t-82 17.5t-54 50.5t-19 81q0 80 61 121.5t178 46.5l90 5v37q0 79 -29 111.5t-86 32.5q-38 0 -73.5 -10.5t-71.5 -29.5l-18 46q36 18 78 30t88 12zM290 265
q-94 -5 -140 -35.5t-46 -90.5q0 -49 28.5 -75t77.5 -26q77 0 120 47.5t43 131.5v52zM255 729q41 0 69.5 -14.5t44.5 -42t18 -66.5h-39q-3 28 -14 44t-31 24t-49 8q-27 0 -47 -8t-31.5 -24.5t-14.5 -43.5h-40q4 39 20.5 66t45.5 42t68 15z" />
    <glyph glyph-name="uni0204" unicode="&#x204;" horiz-adv-x="521" 
d="M464 0h-370v714h370v-52h-312v-261h294v-52h-294v-297h312v-52zM331 948q11 -22 26.5 -50t32.5 -54.5t32 -46.5v-9h-35q-15 16 -32 35t-34 40.5t-30.5 41t-22.5 35.5v8h63zM172 948q11 -22 26.5 -50t33 -54.5t32.5 -46.5v-9h-36q-15 16 -32 35t-33.5 40.5t-30.5 41
t-23 35.5v8h63z" />
    <glyph glyph-name="uni0205" unicode="&#x205;" horiz-adv-x="520" 
d="M273 542q64 0 107.5 -31.5t65.5 -86.5t22 -126v-39h-356q1 -106 46.5 -162.5t130.5 -56.5q47 0 82 8.5t76 27.5v-52q-37 -17 -74 -25.5t-86 -8.5q-75 0 -127 33t-79.5 94.5t-27.5 144.5q0 81 26 144.5t75 99.5t119 36zM273 494q-68 0 -110 -48.5t-49 -139.5h295
q0 56 -14.5 98t-45 66t-76.5 24zM305 766q11 -22 26.5 -50t32.5 -54.5t32 -46.5v-9h-35q-15 16 -32 35t-34 40.5t-30.5 41t-22.5 35.5v8h63zM146 766q11 -22 26.5 -50t33 -54.5t32.5 -46.5v-9h-36q-15 16 -32 35t-33.5 40.5t-30.5 41t-23 35.5v8h63z" />
    <glyph glyph-name="uni0206" unicode="&#x206;" horiz-adv-x="521" 
d="M464 0h-370v714h370v-52h-312v-261h294v-52h-294v-297h312v-52zM288 911q41 0 69.5 -14.5t44.5 -42t18 -66.5h-39q-3 28 -14 44t-31 24t-49 8q-27 0 -47 -8t-31.5 -24.5t-14.5 -43.5h-40q4 39 20.5 66t45.5 42t68 15z" />
    <glyph glyph-name="uni0207" unicode="&#x207;" horiz-adv-x="520" 
d="M273 542q64 0 107.5 -31.5t65.5 -86.5t22 -126v-39h-356q1 -106 46.5 -162.5t130.5 -56.5q47 0 82 8.5t76 27.5v-52q-37 -17 -74 -25.5t-86 -8.5q-75 0 -127 33t-79.5 94.5t-27.5 144.5q0 81 26 144.5t75 99.5t119 36zM273 494q-68 0 -110 -48.5t-49 -139.5h295
q0 56 -14.5 98t-45 66t-76.5 24zM263 729q41 0 69.5 -14.5t44.5 -42t18 -66.5h-39q-3 28 -14 44t-31 24t-49 8q-27 0 -47 -8t-31.5 -24.5t-14.5 -43.5h-40q4 39 20.5 66t45.5 42t68 15z" />
    <glyph glyph-name="uni0208" unicode="&#x208;" horiz-adv-x="295" 
d="M248 0h-201v36l72 11v619l-72 12v36h201v-36l-71 -12v-619l71 -11v-36zM192 948q11 -22 26.5 -50t32.5 -54.5t32 -46.5v-9h-35q-15 16 -32 35t-34 40.5t-30.5 41t-22.5 35.5v8h63zM33 948q11 -22 26.5 -50t33 -54.5t32.5 -46.5v-9h-36q-15 16 -32 35t-33.5 40.5t-30.5 41
t-23 35.5v8h63z" />
    <glyph glyph-name="uni0209" unicode="&#x209;" horiz-adv-x="221" 
d="M139 0h-57v532h57v-532zM154 766q11 -22 26.5 -50t32.5 -54.5t32 -46.5v-9h-35q-15 16 -32 35t-34 40.5t-30.5 41t-22.5 35.5v8h63zM-5 766q11 -22 26.5 -50t33 -54.5t32.5 -46.5v-9h-36q-15 16 -32 35t-33.5 40.5t-30.5 41t-23 35.5v8h63z" />
    <glyph glyph-name="uni020A" unicode="&#x20a;" horiz-adv-x="295" 
d="M248 0h-201v36l72 11v619l-72 12v36h201v-36l-71 -12v-619l71 -11v-36zM149 911q41 0 69.5 -14.5t44.5 -42t18 -66.5h-39q-3 28 -14 44t-31 24t-49 8q-27 0 -47 -8t-31.5 -24.5t-14.5 -43.5h-40q4 39 20.5 66t45.5 42t68 15z" />
    <glyph glyph-name="uni020B" unicode="&#x20b;" horiz-adv-x="221" 
d="M139 0h-57v532h57v-532zM112 729q41 0 69.5 -14.5t44.5 -42t18 -66.5h-39q-3 28 -14 44t-31 24t-49 8q-27 0 -47 -8t-31.5 -24.5t-14.5 -43.5h-40q4 39 20.5 66t45.5 42t68 15z" />
    <glyph glyph-name="uni020C" unicode="&#x20c;" horiz-adv-x="723" 
d="M664 358q0 -82 -19 -149t-57 -116.5t-95 -76t-132 -26.5q-76 0 -133 27t-94.5 76t-56.5 116.5t-19 149.5q0 109 34.5 191.5t103 128.5t168.5 46q97 0 164 -44.5t101.5 -126.5t34.5 -196zM119 359q0 -95 26 -166.5t80 -111t137 -39.5t136.5 39t79 110.5t25.5 166.5
q0 149 -59.5 232t-179.5 83q-83 0 -137.5 -39t-81 -110t-26.5 -165zM405 959q11 -22 26.5 -50t32.5 -54.5t32 -46.5v-9h-35q-15 16 -32 35t-34 40.5t-30.5 41t-22.5 35.5v8h63zM246 959q11 -22 26.5 -50t33 -54.5t32.5 -46.5v-9h-36q-15 16 -32 35t-33.5 40.5t-30.5 41
t-23 35.5v8h63z" />
    <glyph glyph-name="uni020D" unicode="&#x20d;" horiz-adv-x="556" 
d="M503 267q0 -63 -15 -113.5t-43.5 -87t-71 -56.5t-97.5 -20q-51 0 -92.5 19.5t-70.5 56t-44.5 87.5t-15.5 114q0 86 27.5 147.5t78.5 94.5t122 33q72 0 121 -34.5t75 -96t26 -144.5zM112 267q0 -68 18 -119.5t54.5 -80t92.5 -28.5q58 0 94.5 28.5t54.5 80t18 119.5
q0 66 -17 117t-53 80t-94 29q-84 0 -126 -60t-42 -166zM322 766q11 -22 26.5 -50t32.5 -54.5t32 -46.5v-9h-35q-15 16 -32 35t-34 40.5t-30.5 41t-22.5 35.5v8h63zM163 766q11 -22 26.5 -50t33 -54.5t32.5 -46.5v-9h-36q-15 16 -32 35t-33.5 40.5t-30.5 41t-23 35.5v8h63z
" />
    <glyph glyph-name="uni020E" unicode="&#x20e;" horiz-adv-x="723" 
d="M664 358q0 -82 -19 -149t-57 -116.5t-95 -76t-132 -26.5q-76 0 -133 27t-94.5 76t-56.5 116.5t-19 149.5q0 109 34.5 191.5t103 128.5t168.5 46q97 0 164 -44.5t101.5 -126.5t34.5 -196zM119 359q0 -95 26 -166.5t80 -111t137 -39.5t136.5 39t79 110.5t25.5 166.5
q0 149 -59.5 232t-179.5 83q-83 0 -137.5 -39t-81 -110t-26.5 -165zM363 922q41 0 69.5 -14.5t44.5 -42t18 -66.5h-39q-3 28 -14 44t-31 24t-49 8q-27 0 -47 -8t-31.5 -24.5t-14.5 -43.5h-40q4 39 20.5 66t45.5 42t68 15z" />
    <glyph glyph-name="uni020F" unicode="&#x20f;" horiz-adv-x="556" 
d="M503 267q0 -63 -15 -113.5t-43.5 -87t-71 -56.5t-97.5 -20q-51 0 -92.5 19.5t-70.5 56t-44.5 87.5t-15.5 114q0 86 27.5 147.5t78.5 94.5t122 33q72 0 121 -34.5t75 -96t26 -144.5zM112 267q0 -68 18 -119.5t54.5 -80t92.5 -28.5q58 0 94.5 28.5t54.5 80t18 119.5
q0 66 -17 117t-53 80t-94 29q-84 0 -126 -60t-42 -166zM279 729q41 0 69.5 -14.5t44.5 -42t18 -66.5h-39q-3 28 -14 44t-31 24t-49 8q-27 0 -47 -8t-31.5 -24.5t-14.5 -43.5h-40q4 39 20.5 66t45.5 42t68 15z" />
    <glyph glyph-name="uni0210" unicode="&#x210;" horiz-adv-x="567" 
d="M263 714q81 0 135 -19.5t80.5 -62.5t26.5 -114q0 -55 -18.5 -93.5t-50.5 -63t-73 -37.5l185 -324h-69l-170 308h-157v-308h-58v714h169zM258 663h-106v-305h124q54 0 92 18.5t57.5 53.5t19.5 86q0 55 -20.5 87t-62 46t-104.5 14zM328 948q11 -22 26.5 -50t32.5 -54.5
t32 -46.5v-9h-35q-15 16 -32 35t-34 40.5t-30.5 41t-22.5 35.5v8h63zM169 948q11 -22 26.5 -50t33 -54.5t32.5 -46.5v-9h-36q-15 16 -32 35t-33.5 40.5t-30.5 41t-23 35.5v8h63z" />
    <glyph glyph-name="uni0211" unicode="&#x211;" horiz-adv-x="373" 
d="M291 541q18 0 35.5 -2t31.5 -6l-8 -53q-15 4 -30 6.5t-32 2.5q-34 0 -61.5 -14t-47 -40t-30 -62t-10.5 -81v-292h-57v532h48l6 -99h3q13 30 34 54.5t51 39t67 14.5zM276 766q11 -22 26.5 -50t32.5 -54.5t32 -46.5v-9h-35q-15 16 -32 35t-34 40.5t-30.5 41t-22.5 35.5v8
h63zM117 766q11 -22 26.5 -50t33 -54.5t32.5 -46.5v-9h-36q-15 16 -32 35t-33.5 40.5t-30.5 41t-23 35.5v8h63z" />
    <glyph glyph-name="uni0212" unicode="&#x212;" horiz-adv-x="567" 
d="M263 714q81 0 135 -19.5t80.5 -62.5t26.5 -114q0 -55 -18.5 -93.5t-50.5 -63t-73 -37.5l185 -324h-69l-170 308h-157v-308h-58v714h169zM258 663h-106v-305h124q54 0 92 18.5t57.5 53.5t19.5 86q0 55 -20.5 87t-62 46t-104.5 14zM285 911q41 0 69.5 -14.5t44.5 -42
t18 -66.5h-39q-3 28 -14 44t-31 24t-49 8q-27 0 -47 -8t-31.5 -24.5t-14.5 -43.5h-40q4 39 20.5 66t45.5 42t68 15z" />
    <glyph glyph-name="uni0213" unicode="&#x213;" horiz-adv-x="373" 
d="M291 541q18 0 35.5 -2t31.5 -6l-8 -53q-15 4 -30 6.5t-32 2.5q-34 0 -61.5 -14t-47 -40t-30 -62t-10.5 -81v-292h-57v532h48l6 -99h3q13 30 34 54.5t51 39t67 14.5zM234 729q41 0 69.5 -14.5t44.5 -42t18 -66.5h-39q-3 28 -14 44t-31 24t-49 8q-27 0 -47 -8t-31.5 -24.5
t-14.5 -43.5h-40q4 39 20.5 66t45.5 42t68 15z" />
    <glyph glyph-name="uni0214" unicode="&#x214;" horiz-adv-x="680" 
d="M593 252q0 -81 -30 -140t-87 -90.5t-138 -31.5q-122 0 -186.5 70t-64.5 194v460h58v-460q0 -104 50 -158t146 -54q63 0 106 24.5t65.5 70.5t22.5 111v466h58v-462zM369 948q11 -22 26.5 -50t32.5 -54.5t32 -46.5v-9h-35q-15 16 -32 35t-34 40.5t-30.5 41t-22.5 35.5v8h63
zM210 948q11 -22 26.5 -50t33 -54.5t32.5 -46.5v-9h-36q-15 16 -32 35t-33.5 40.5t-30.5 41t-23 35.5v8h63z" />
    <glyph glyph-name="uni0215" unicode="&#x215;" horiz-adv-x="562" 
d="M479 532v-532h-46l-8 91h-3q-14 -29 -38 -52t-56.5 -36t-75.5 -13q-58 0 -97.5 21.5t-59 64.5t-19.5 108v348h57v-343q0 -76 32 -113t95 -37q55 0 90.5 23t53.5 68t18 112v290h57zM310 766q11 -22 26.5 -50t32.5 -54.5t32 -46.5v-9h-35q-15 16 -32 35t-34 40.5t-30.5 41
t-22.5 35.5v8h63zM151 766q11 -22 26.5 -50t33 -54.5t32.5 -46.5v-9h-36q-15 16 -32 35t-33.5 40.5t-30.5 41t-23 35.5v8h63z" />
    <glyph glyph-name="uni0216" unicode="&#x216;" horiz-adv-x="680" 
d="M593 252q0 -81 -30 -140t-87 -90.5t-138 -31.5q-122 0 -186.5 70t-64.5 194v460h58v-460q0 -104 50 -158t146 -54q63 0 106 24.5t65.5 70.5t22.5 111v466h58v-462zM341 911q41 0 69.5 -14.5t44.5 -42t18 -66.5h-39q-3 28 -14 44t-31 24t-49 8q-27 0 -47 -8t-31.5 -24.5
t-14.5 -43.5h-40q4 39 20.5 66t45.5 42t68 15z" />
    <glyph glyph-name="uni0217" unicode="&#x217;" horiz-adv-x="562" 
d="M479 532v-532h-46l-8 91h-3q-14 -29 -38 -52t-56.5 -36t-75.5 -13q-58 0 -97.5 21.5t-59 64.5t-19.5 108v348h57v-343q0 -76 32 -113t95 -37q55 0 90.5 23t53.5 68t18 112v290h57zM283 729q41 0 69.5 -14.5t44.5 -42t18 -66.5h-39q-3 28 -14 44t-31 24t-49 8
q-27 0 -47 -8t-31.5 -24.5t-14.5 -43.5h-40q4 39 20.5 66t45.5 42t68 15z" />
    <glyph glyph-name="uni0218" unicode="&#x218;" horiz-adv-x="514" 
d="M467 186q0 -64 -30 -107.5t-82.5 -66t-120.5 -22.5q-40 0 -73.5 4.5t-60.5 11.5t-50 16v57q37 -15 84.5 -26t102.5 -11q51 0 89.5 15.5t60 47t21.5 77.5q0 43 -18.5 70t-56 47.5t-96.5 41.5q-54 21 -94.5 45.5t-62.5 62t-22 94.5q0 59 28 99t76.5 61t110.5 21
q50 0 94 -9.5t84 -28.5l-20 -50q-39 18 -79.5 27t-80.5 9q-45 0 -80 -14.5t-54.5 -43t-19.5 -70.5q0 -45 19 -73t54.5 -47t86.5 -38q59 -21 101.5 -45.5t65.5 -61t23 -93.5zM285 -68q-5 -22 -14.5 -49t-22.5 -54t-29 -50h-32v9q7 16 15.5 43.5t15.5 57t10 50.5h57v-7z" />
    <glyph glyph-name="uni0219" unicode="&#x219;" horiz-adv-x="442" 
d="M399 141q0 -48 -23 -81.5t-66 -51.5t-106 -18q-52 0 -92.5 10t-68.5 24v55q34 -17 76.5 -29t85.5 -12q73 0 105.5 27t32.5 72q0 30 -15.5 49.5t-45.5 35t-76 31.5q-46 17 -81 34.5t-55 44.5t-20 74q0 65 49.5 100.5t131.5 35.5q45 0 84.5 -9t72.5 -24l-20 -47
q-19 9 -42.5 16.5t-48 11.5t-48.5 4q-58 0 -90.5 -22t-32.5 -64q0 -31 15.5 -50t45.5 -32t73 -29q45 -17 81 -35t57 -46t21 -75zM258 -68q-5 -22 -14.5 -49t-22.5 -54t-29 -50h-32v9q7 16 15.5 43.5t15.5 57t10 50.5h57v-7z" />
    <glyph glyph-name="uni021A" unicode="&#x21a;" horiz-adv-x="500" 
d="M279 0h-58v662h-215v52h488v-52h-215v-662zM287 -68q-5 -22 -14.5 -49t-22.5 -54t-29 -50h-32v9q7 16 15.5 43.5t15.5 57t10 50.5h57v-7z" />
    <glyph glyph-name="uni021B" unicode="&#x21b;" horiz-adv-x="324" 
d="M227 39q21 0 40 3.5t33 8.5v-46q-15 -6 -36 -10.5t-45 -4.5q-42 0 -71.5 16.5t-45 51.5t-15.5 90v338h-74v32l74 19l20 122h37v-127h153v-46h-153v-335q0 -55 20 -83.5t63 -28.5zM229 -68q-5 -22 -14.5 -49t-22.5 -54t-29 -50h-32v9q7 16 15.5 43.5t15.5 57t10 50.5h57
v-7z" />
    <glyph glyph-name="uni021C" unicode="&#x21c;" horiz-adv-x="534" 
d="M41 -124q107 29 180 60t117.5 66t64 76t19.5 89q0 67 -32.5 108t-90.5 69q-32 -12 -67 -22.5t-73 -20.5l-12 47q86 23 144.5 46.5t87.5 58t29 90.5q0 47 -19.5 76t-52 42.5t-72.5 13.5q-56 0 -102.5 -18t-89.5 -48l-29 41q52 37 105.5 55.5t115.5 18.5q55 0 101.5 -18
t75 -57.5t28.5 -104.5q0 -63 -32.5 -105t-86.5 -70q37 -18 67 -44t48 -64t18 -93q0 -87 -45.5 -150t-142.5 -110t-254 -88v56z" />
    <glyph glyph-name="uni021D" unicode="&#x21d;" horiz-adv-x="450" 
d="M14 -188q108 25 184.5 56.5t117 77t40.5 109.5q0 57 -29.5 91.5t-81.5 57.5q-27 -11 -58 -21t-66 -19l-12 44q83 22 132.5 45.5t71.5 53.5t22 73q0 40 -18 65.5t-48 37.5t-67 12q-42 0 -80.5 -10.5t-72.5 -29.5l-20 43q41 22 84 33.5t89 11.5q53 0 95.5 -17.5t67.5 -53.5
t25 -92q0 -51 -25.5 -89t-71.5 -63q32 -14 59.5 -36.5t44 -56t16.5 -81.5q0 -63 -28.5 -110.5t-81 -81.5t-126 -58.5t-163.5 -43.5v52z" />
    <glyph glyph-name="uni021E" unicode="&#x21e;" horiz-adv-x="683" 
d="M588 0h-58v348h-378v-348h-58v714h58v-314h378v314h58v-714zM484 937q-18 -19 -40 -46t-42 -54t-32 -49h-57q-11 22 -31 49t-41.5 54t-39.5 46v10h40q26 -23 52.5 -52t47.5 -57q23 28 49.5 57t51.5 52h42v-10z" />
    <glyph glyph-name="uni021F" unicode="&#x21f;" horiz-adv-x="562" 
d="M139 517q0 -21 -1 -39.5t-3 -37.5h4q14 30 37.5 52.5t56.5 36t74 13.5q58 0 97.5 -20.5t60 -63.5t20.5 -110v-348h-57v344q0 77 -32.5 113t-94.5 36q-54 0 -90.5 -22.5t-54 -68t-17.5 -112.5v-290h-57v760h57v-243zM253 983q-18 -19 -40 -46t-42 -54t-32 -49h-57
q-11 22 -31 49t-41.5 54t-39.5 46v10h40q26 -23 52.5 -52t47.5 -57q23 28 49.5 57t51.5 52h42v-10z" />
    <glyph glyph-name="uni0220" unicode="&#x220;" horiz-adv-x="658" 
d="M354 725q70 0 118.5 -26.5t74 -82.5t25.5 -144v-712h-58v709q0 107 -40.5 155.5t-126.5 48.5q-68 0 -111 -26.5t-63.5 -77t-20.5 -123.5v-446h-58v715h46l9 -109h3q16 34 44.5 60.5t68 42.5t89.5 16z" />
    <glyph glyph-name="uni0221" unicode="&#x221;" horiz-adv-x="804" 
d="M460 -97q3 30 7.5 63.5t11.5 59.5q-11 9 -18 19.5t-11.5 24.5t-7.5 32h-3q-14 -33 -36.5 -58t-56.5 -39.5t-84 -14.5q-100 0 -154.5 69t-54.5 202q0 92 25.5 154.5t73.5 94.5t114 32q42 0 73 -13.5t52.5 -36.5t34.5 -51h4q-1 11 -1.5 24.5t-1.5 27.5t-1 27v25v215h57
v-581q0 -31 4 -55.5t13 -40.5q13 28 29 53.5t37.5 44.5t48 30t60.5 11q54 0 86 -27t32 -74q0 -34 -17 -61.5t-53.5 -43.5t-97.5 -16q-32 0 -59 2t-40 5q-4 -21 -8 -51.5t-6 -56.5zM270 39q85 0 121 55.5t36 162.5v9q0 110 -35.5 168.5t-118.5 58.5q-79 0 -120 -60.5
t-41 -172.5q0 -108 39 -164.5t119 -56.5zM628 47q63 0 87 20t24 52q0 25 -18 40.5t-52 15.5q-36 0 -61 -17t-41 -44.5t-27 -59.5q14 -3 37.5 -5t50.5 -2z" />
    <glyph glyph-name="uni0222" unicode="&#x222;" horiz-adv-x="619" 
d="M309 -11q-58 0 -105 16t-81 46.5t-52 74.5t-18 101q0 62 20 104t54 67.5t74 35.5q-38 11 -64 34.5t-38.5 63t-12.5 96.5v96h58v-95q0 -59 16 -96.5t52 -55.5t96 -18q61 0 98 18t54 56.5t17 99.5v91h58v-95q0 -58 -14 -97t-40 -62.5t-63 -36.5q41 -9 74.5 -34.5t54 -68
t20.5 -105.5q0 -57 -17.5 -101t-51 -74t-81 -45.5t-108.5 -15.5zM310 41q65 0 108.5 21.5t65.5 63t22 99.5q0 90 -47.5 136.5t-151.5 46.5q-97 0 -145 -47t-48 -134q0 -59 22 -100.5t66 -63.5t108 -22z" />
    <glyph glyph-name="uni0223" unicode="&#x223;" horiz-adv-x="562" 
d="M282 -11q-67 0 -117.5 28.5t-79.5 83.5t-29 132q0 65 18 108.5t48 69.5t65 37q-33 9 -55.5 29.5t-34 58t-11.5 97.5v114h57v-111q0 -61 14 -96.5t44.5 -51t78.5 -15.5q49 0 80 15t46 51t15 101v107h57v-112q0 -60 -12.5 -98t-35 -59t-54.5 -31q36 -10 65.5 -36t47.5 -70
t18 -109q0 -60 -16 -105t-45.5 -75.5t-71 -46.5t-92.5 -16zM283 38q80 0 122.5 50.5t42.5 143.5q0 95 -41 143.5t-128 48.5q-81 0 -122.5 -49t-41.5 -142q0 -92 43.5 -143.5t124.5 -51.5z" />
    <glyph glyph-name="uni0224" unicode="&#x224;" horiz-adv-x="542" 
d="M438 -183q-15 0 -28 3t-21 7v49q8 -3 19.5 -6t24.5 -3q14 0 23.5 6t15 19t5.5 33v75h-17v53h70v-127q0 -36 -10.5 -60t-30.5 -36.5t-51 -12.5zM505 0h-470v43l386 619h-368v52h441v-43l-386 -618h397v-53z" />
    <glyph glyph-name="uni0225" unicode="&#x225;" horiz-adv-x="463" 
d="M396 532v-40l-290 -445h297v-121q0 -35 -10 -59.5t-30 -37t-50 -12.5q-16 0 -28.5 3t-21.5 7v49q8 -3 19.5 -6t24.5 -3q21 0 32.5 14t11.5 44v75h-314v38l291 448h-270v46h338z" />
    <glyph glyph-name="uni0226" unicode="&#x226;" horiz-adv-x="575" 
d="M514 0l-88 246h-277l-89 -246h-60l263 717h55l256 -717h-60zM320 556q-3 10 -8.5 27t-11.5 36t-11 34q-7 -26 -15.5 -52.5t-15.5 -45.5l-90 -256h240zM287 911q19 0 28.5 -11.5t9.5 -31.5q0 -21 -9.5 -32.5t-28.5 -11.5q-18 0 -28 11.5t-10 32.5q0 20 10 31.5t28 11.5z
" />
    <glyph glyph-name="uni0227" unicode="&#x227;" horiz-adv-x="507" 
d="M261 541q85 0 127 -43.5t42 -139.5v-358h-43l-10 90h-3q-18 -30 -40.5 -52.5t-55 -35t-79.5 -12.5t-82 17.5t-54 50.5t-19 81q0 80 61 121.5t178 46.5l90 5v37q0 79 -29 111.5t-86 32.5q-38 0 -73.5 -10.5t-71.5 -29.5l-18 46q36 18 78 30t88 12zM290 265
q-94 -5 -140 -35.5t-46 -90.5q0 -49 28.5 -75t77.5 -26q77 0 120 47.5t43 131.5v52zM254 729q19 0 28.5 -11.5t9.5 -31.5q0 -21 -9.5 -32.5t-28.5 -11.5q-18 0 -28 11.5t-10 32.5q0 20 10 31.5t28 11.5z" />
    <glyph glyph-name="uni0228" unicode="&#x228;" horiz-adv-x="521" 
d="M464 0h-370v714h370v-52h-312v-261h294v-52h-294v-297h312v-52zM373 -142q0 -30 -14.5 -52t-42 -34t-66.5 -12q-16 0 -29 1.5t-22 4.5v39q10 -3 23.5 -4t28.5 -1q34 0 54.5 13.5t20.5 43.5q0 29 -24 42t-67 16l41 85h40l-26 -59q24 -3 43 -13t29.5 -27.5t10.5 -42.5z" />
    <glyph glyph-name="uni0229" unicode="&#x229;" horiz-adv-x="520" 
d="M273 542q64 0 107.5 -31.5t65.5 -86.5t22 -126v-39h-356q1 -106 46.5 -162.5t130.5 -56.5q47 0 82 8.5t76 27.5v-52q-37 -17 -74 -25.5t-86 -8.5q-75 0 -127 33t-79.5 94.5t-27.5 144.5q0 81 26 144.5t75 99.5t119 36zM273 494q-68 0 -110 -48.5t-49 -139.5h295
q0 56 -14.5 98t-45 66t-76.5 24zM372 -142q0 -30 -14.5 -52t-42 -34t-66.5 -12q-16 0 -29 1.5t-22 4.5v39q10 -3 23.5 -4t28.5 -1q34 0 54.5 13.5t20.5 43.5q0 29 -24 42t-67 16l41 85h40l-26 -59q24 -3 43 -13t29.5 -27.5t10.5 -42.5z" />
    <glyph glyph-name="uni022A" unicode="&#x22a;" horiz-adv-x="723" 
d="M516 998v-47h-262v47h262zM296 887q18 0 26.5 -11t8.5 -30t-8.5 -29.5t-26.5 -10.5q-15 0 -24.5 10.5t-9.5 29.5t9.5 30t24.5 11zM472 887q17 0 25.5 -11t8.5 -30t-8.5 -29.5t-25.5 -10.5q-16 0 -25 10.5t-9 29.5t9 30t25 11zM664 358q0 -82 -19 -149t-57 -116.5t-95 -76
t-132 -26.5q-76 0 -133 27t-94.5 76t-56.5 116.5t-19 149.5q0 109 34.5 191.5t103 128.5t168.5 46q97 0 164 -44.5t101.5 -126.5t34.5 -196zM119 359q0 -95 26 -166.5t80 -111t137 -39.5t136.5 39t79 110.5t25.5 166.5q0 149 -59.5 232t-179.5 83q-83 0 -137.5 -39t-81 -110
t-26.5 -165z" />
    <glyph glyph-name="uni022B" unicode="&#x22b;" horiz-adv-x="556" 
d="M427 816v-47h-262v47h262zM207 705q18 0 26.5 -11t8.5 -30t-8.5 -29.5t-26.5 -10.5q-15 0 -24.5 10.5t-9.5 29.5t9.5 30t24.5 11zM383 705q17 0 25.5 -11t8.5 -30t-8.5 -29.5t-25.5 -10.5q-16 0 -25 10.5t-9 29.5t9 30t25 11zM503 267q0 -63 -15 -113.5t-43.5 -87
t-71 -56.5t-97.5 -20q-51 0 -92.5 19.5t-70.5 56t-44.5 87.5t-15.5 114q0 86 27.5 147.5t78.5 94.5t122 33q72 0 121 -34.5t75 -96t26 -144.5zM112 267q0 -68 18 -119.5t54.5 -80t92.5 -28.5q58 0 94.5 28.5t54.5 80t18 119.5q0 66 -17 117t-53 80t-94 29q-84 0 -126 -60
t-42 -166z" />
    <glyph glyph-name="uni022C" unicode="&#x22c;" horiz-adv-x="723" 
d="M229 786q4 51 26.5 78.5t61.5 27.5q21 0 39 -9.5t33.5 -21.5t31 -21.5t31.5 -9.5q20 0 33.5 14t18.5 48h36q-2 -33 -13.5 -57t-30.5 -36.5t-45 -12.5q-21 0 -38 9.5t-33 21.5t-31.5 21t-32.5 9q-20 0 -33 -13.5t-17 -47.5h-37zM254 951v47h262v-47h-262zM664 358
q0 -82 -19 -149t-57 -116.5t-95 -76t-132 -26.5q-76 0 -133 27t-94.5 76t-56.5 116.5t-19 149.5q0 109 34.5 191.5t103 128.5t168.5 46q97 0 164 -44.5t101.5 -126.5t34.5 -196zM119 359q0 -95 26 -166.5t80 -111t137 -39.5t136.5 39t79 110.5t25.5 166.5q0 149 -59.5 232
t-179.5 83q-83 0 -137.5 -39t-81 -110t-26.5 -165z" />
    <glyph glyph-name="uni022D" unicode="&#x22d;" horiz-adv-x="556" 
d="M140 604q4 51 26.5 78.5t61.5 27.5q21 0 39 -9.5t33.5 -21.5t31 -21.5t31.5 -9.5q20 0 33.5 14t18.5 48h36q-2 -33 -13.5 -57t-30.5 -36.5t-45 -12.5q-21 0 -38 9.5t-33 21.5t-31.5 21t-32.5 9q-20 0 -33 -13.5t-17 -47.5h-37zM165 769v47h262v-47h-262zM503 267
q0 -63 -15 -113.5t-43.5 -87t-71 -56.5t-97.5 -20q-51 0 -92.5 19.5t-70.5 56t-44.5 87.5t-15.5 114q0 86 27.5 147.5t78.5 94.5t122 33q72 0 121 -34.5t75 -96t26 -144.5zM112 267q0 -68 18 -119.5t54.5 -80t92.5 -28.5q58 0 94.5 28.5t54.5 80t18 119.5q0 66 -17 117
t-53 80t-94 29q-84 0 -126 -60t-42 -166z" />
    <glyph glyph-name="uni022E" unicode="&#x22e;" horiz-adv-x="723" 
d="M664 358q0 -82 -19 -149t-57 -116.5t-95 -76t-132 -26.5q-76 0 -133 27t-94.5 76t-56.5 116.5t-19 149.5q0 109 34.5 191.5t103 128.5t168.5 46q97 0 164 -44.5t101.5 -126.5t34.5 -196zM119 359q0 -95 26 -166.5t80 -111t137 -39.5t136.5 39t79 110.5t25.5 166.5
q0 149 -59.5 232t-179.5 83q-83 0 -137.5 -39t-81 -110t-26.5 -165zM362 922q19 0 28.5 -11.5t9.5 -31.5q0 -21 -9.5 -32.5t-28.5 -11.5q-18 0 -28 11.5t-10 32.5q0 20 10 31.5t28 11.5z" />
    <glyph glyph-name="uni022F" unicode="&#x22f;" horiz-adv-x="556" 
d="M503 267q0 -63 -15 -113.5t-43.5 -87t-71 -56.5t-97.5 -20q-51 0 -92.5 19.5t-70.5 56t-44.5 87.5t-15.5 114q0 86 27.5 147.5t78.5 94.5t122 33q72 0 121 -34.5t75 -96t26 -144.5zM112 267q0 -68 18 -119.5t54.5 -80t92.5 -28.5q58 0 94.5 28.5t54.5 80t18 119.5
q0 66 -17 117t-53 80t-94 29q-84 0 -126 -60t-42 -166zM278 729q19 0 28.5 -11.5t9.5 -31.5q0 -21 -9.5 -32.5t-28.5 -11.5q-18 0 -28 11.5t-10 32.5q0 20 10 31.5t28 11.5z" />
    <glyph glyph-name="uni0230" unicode="&#x230;" horiz-adv-x="723" 
d="M261 929v48h249v-48h-249zM385 868q18 0 28 -11.5t10 -31.5q0 -21 -10 -32.5t-28 -11.5t-27.5 11.5t-9.5 32.5q0 20 9.5 31.5t27.5 11.5zM664 358q0 -82 -19 -149t-57 -116.5t-95 -76t-132 -26.5q-76 0 -133 27t-94.5 76t-56.5 116.5t-19 149.5q0 109 34.5 191.5
t103 128.5t168.5 46q97 0 164 -44.5t101.5 -126.5t34.5 -196zM119 359q0 -95 26 -166.5t80 -111t137 -39.5t136.5 39t79 110.5t25.5 166.5q0 149 -59.5 232t-179.5 83q-83 0 -137.5 -39t-81 -110t-26.5 -165z" />
    <glyph glyph-name="uni0231" unicode="&#x231;" horiz-adv-x="556" 
d="M427 817v-48h-262v48h262zM295 708q18 0 28 -11.5t10 -31.5q0 -21 -10 -32.5t-28 -11.5t-27.5 11.5t-9.5 32.5q0 20 9.5 31.5t27.5 11.5zM503 267q0 -63 -15 -113.5t-43.5 -87t-71 -56.5t-97.5 -20q-51 0 -92.5 19.5t-70.5 56t-44.5 87.5t-15.5 114q0 86 27.5 147.5
t78.5 94.5t122 33q72 0 121 -34.5t75 -96t26 -144.5zM112 267q0 -68 18 -119.5t54.5 -80t92.5 -28.5q58 0 94.5 28.5t54.5 80t18 119.5q0 66 -17 117t-53 80t-94 29q-84 0 -126 -60t-42 -166z" />
    <glyph glyph-name="uni0232" unicode="&#x232;" horiz-adv-x="507" 
d="M254 332l189 382h64l-223 -438v-276h-59v272l-225 442h64zM385 840v-48h-262v48h262z" />
    <glyph glyph-name="uni0233" unicode="&#x233;" horiz-adv-x="445" 
d="M1 532h61l117 -330q11 -30 19.5 -55t15 -46.5t9.5 -39.5h3q6 24 17.5 60t25.5 79l115 332h62l-225 -626q-17 -47 -38 -80t-50 -50t-69 -17q-18 0 -32.5 2.5t-27.5 6.5v48q12 -4 25 -6.5t28 -2.5q27 0 46.5 11.5t34.5 35t28 59.5l31 89zM354 658v-48h-262v48h262z" />
    <glyph glyph-name="uni0234" unicode="&#x234;" horiz-adv-x="343" 
d="M16 -7q14 43 31.5 80t36.5 63q0 14 -0.5 32t-0.5 34v558h57v-577q14 10 34 17.5t45 7.5q54 0 83 -29.5t29 -76.5q0 -50 -32 -81t-84 -31q-44 0 -72.5 22.5t-42.5 59.5q-11 -17 -21.5 -43.5t-18.5 -52.5zM215 37q30 0 46.5 18t16.5 45q0 29 -16.5 45t-46.5 16
q-21 0 -40 -9t-34 -26q3 -38 21 -63.5t53 -25.5z" />
    <glyph glyph-name="uni0235" unicode="&#x235;" horiz-adv-x="688" 
d="M361 -7q13 43 30.5 80t37.5 63q-1 14 -1.5 30.5t-0.5 30.5v147q0 77 -32 113t-94 36q-54 0 -90 -22.5t-54 -67.5t-18 -113v-290h-57v532h46l8 -92h4q13 30 37 53t57 36t75 13q57 0 95.5 -20.5t59 -63.5t20.5 -110v-165q15 10 35 17.5t45 7.5q52 0 81.5 -30.5t29.5 -77.5
q0 -51 -32 -80.5t-84 -29.5q-44 0 -72.5 22t-42.5 59q-11 -17 -21 -43t-18 -52zM559 37q31 0 47 18t16 45q0 29 -16.5 45t-45.5 16q-22 0 -41 -9t-34 -26q3 -38 21 -63.5t53 -25.5z" />
    <glyph glyph-name="uni0236" unicode="&#x236;" horiz-adv-x="347" 
d="M20 -7q14 43 31.5 80t37.5 63q-1 16 -1.5 34t-0.5 34v282h-74v32l74 19l20 122h37v-127h153v-46h-153v-303q15 10 34.5 17.5t44.5 7.5q53 0 82 -30.5t29 -77.5q0 -51 -31.5 -80.5t-83.5 -29.5q-44 0 -72.5 22t-43.5 59q-11 -17 -20.5 -43t-17.5 -52zM219 37q31 0 47 18
t16 45q0 29 -16.5 45t-46.5 16q-21 0 -40 -9t-34 -26q3 -38 21 -63.5t53 -25.5z" />
    <glyph glyph-name="uni0237" unicode="&#x237;" horiz-adv-x="222" 
d="M17 -240q-21 0 -37.5 3.5t-28.5 7.5v49q14 -6 28.5 -8.5t31.5 -2.5q34 0 53 22t19 70v631h57v-632q0 -45 -14.5 -76.5t-42 -47.5t-66.5 -16z" />
    <glyph glyph-name="uni0238" unicode="&#x238;" horiz-adv-x="909" 
d="M269 -10q-54 0 -94.5 19.5t-67.5 55t-40.5 86.5t-13.5 114q0 90 24.5 152t71.5 94t113 32q65 0 105 -31.5t59 -74.5h4q-1 18 -2.5 50.5t-1.5 61.5v211h57v-210q0 -29 -1 -61.5t-2 -52.5h3q18 44 58.5 75t106.5 31t112.5 -31.5t71 -93t24.5 -152.5q0 -63 -13.5 -113.5
t-41 -86.5t-67.5 -55.5t-95 -19.5q-69 0 -116.5 36.5t-68.5 107.5q-22 -72 -69.5 -108t-115.5 -36zM271 39q52 0 86.5 27t52 78t17.5 123q0 111 -36.5 169t-121.5 58q-78 0 -117.5 -60.5t-39.5 -169.5q0 -108 39.5 -166.5t119.5 -58.5zM640 39q79 0 118 58.5t39 168.5
q0 112 -39 169.5t-119 57.5q-55 0 -89.5 -25t-50.5 -75.5t-16 -125.5q0 -112 38.5 -170t118.5 -58z" />
    <glyph glyph-name="uni0239" unicode="&#x239;" horiz-adv-x="909" 
d="M640 543q55 0 95 -19.5t67 -55t40.5 -86.5t13.5 -114q0 -90 -24.5 -152t-71 -94t-112.5 -32t-106 31.5t-59 74.5h-4q2 -18 3 -50t1 -62v-219h-57v218q0 29 1.5 61.5t2.5 52.5h-4q-18 -44 -58 -75t-106 -31t-113 31.5t-71.5 93t-24.5 152.5q0 63 14 113.5t41 86.5t68 55.5
t94 19.5q70 0 117 -36.5t68 -107.5q22 72 69.5 108t115.5 36zM270 494q-80 0 -119 -58.5t-39 -168.5q0 -112 39.5 -169.5t118.5 -57.5q56 0 90 25t50 75.5t16 125.5q0 113 -38 170.5t-118 57.5zM638 494q-52 0 -86.5 -27t-51.5 -77.5t-17 -123.5q0 -111 36.5 -169t120.5 -58
q79 0 118 60.5t39 169.5q0 108 -39 166.5t-120 58.5z" />
    <glyph glyph-name="uni023A" unicode="&#x23a;" horiz-adv-x="608" 
d="M491 760l-290 -835h-47l290 835h47zM514 0l-88 246h-277l-89 -246h-60l263 717h55l256 -717h-60zM320 556q-3 10 -8.5 27t-11.5 36t-11 34q-7 -26 -15.5 -52.5t-15.5 -45.5l-90 -256h240z" />
    <glyph glyph-name="uni023B" unicode="&#x23b;" horiz-adv-x="623" 
d="M546 760l-290 -835h-47l290 835h47zM379 672q-61 0 -109.5 -22.5t-82 -64t-51 -99t-17.5 -127.5q0 -96 28 -167.5t84 -110.5t139 -39q49 0 90 8.5t78 21.5v-52q-35 -14 -76.5 -22t-97.5 -8q-101 0 -169 46t-102.5 129t-34.5 194q0 80 21.5 146.5t63 115.5t101 76
t136.5 27q49 0 93.5 -10t83.5 -29l-23 -51q-35 19 -74 28.5t-81 9.5z" />
    <glyph glyph-name="uni023C" unicode="&#x23c;" horiz-adv-x="476" 
d="M465 724l-317 -902h-47l318 902h46zM283 -10q-73 0 -124.5 32.5t-78.5 93.5t-27 147q0 90 30.5 152.5t84.5 94.5t126 32q36 0 68.5 -7t56.5 -19l-16 -49q-25 11 -54.5 17.5t-55.5 6.5q-58 0 -98.5 -27.5t-61.5 -78.5t-21 -121q0 -66 18.5 -116.5t56.5 -78.5t96 -28
q38 0 70.5 8t59.5 20v-51q-25 -12 -57 -20t-73 -8z" />
    <glyph glyph-name="uni023D" unicode="&#x23d;" horiz-adv-x="487" 
d="M9 331v48h333v-48h-333zM94 0v714h58v-661h313v-53h-371z" />
    <glyph glyph-name="uni023E" unicode="&#x23e;" horiz-adv-x="531" 
d="M502 760l-418 -835h-49l418 835h49zM279 0h-58v662h-215v52h488v-52h-215v-662z" />
    <glyph glyph-name="uni023F" unicode="&#x23f;" horiz-adv-x="442" 
d="M326 -240q-47 0 -75 16.5t-44.5 50t-28.5 83.5q-10 40 -26.5 61t-49.5 31q-17 5 -32 10.5t-27 12.5v54q34 -17 75.5 -29t84.5 -12q73 0 106.5 27t33.5 72q0 30 -15.5 49.5t-45.5 35t-76 31.5q-46 17 -81 34.5t-55 44.5t-20 74q0 65 49.5 100.5t131.5 35.5q45 0 84.5 -9
t72.5 -24l-20 -47q-19 9 -42.5 16.5t-48 11.5t-48.5 4q-58 0 -90.5 -22t-32.5 -64q0 -31 15.5 -50t45.5 -32t73 -29q45 -17 81 -35t57 -46t21 -75q0 -51 -24.5 -84t-69 -49.5t-106.5 -16.5q13 -13 20 -32t13 -43q10 -37 21 -61t30 -35t50 -11q19 0 37.5 4.5t30.5 9.5v-49
q-11 -4 -31 -9t-44 -5z" />
    <glyph glyph-name="uni0240" unicode="&#x240;" horiz-adv-x="437" 
d="M349 -240q-51 0 -83 17t-51.5 50.5t-34.5 82.5q-15 51 -42 70.5t-80 19.5h-21v38l291 448h-270v46h338v-40l-292 -448q34 -4 58.5 -18t42 -41t29.5 -69q12 -37 26.5 -60.5t37 -35t57.5 -11.5q22 0 39 4t31 9v-49q-13 -4 -31 -8.5t-45 -4.5z" />
    <glyph glyph-name="uni0241" unicode="&#x241;" horiz-adv-x="399" 
d="M176 724q61 0 104.5 -23.5t67 -66.5t23.5 -103q0 -48 -13.5 -86.5t-38 -69t-58 -55t-73.5 -43.5v-277h-58v311q38 14 71 33.5t57.5 45t38.5 60t14 78.5q0 68 -35.5 106t-102.5 38q-28 0 -54.5 -6t-50 -16t-42.5 -23l-21 48q33 21 76 35t95 14z" />
    <glyph glyph-name="uni0242" unicode="&#x242;" horiz-adv-x="392" 
d="M176 541q61 0 103.5 -23t64.5 -65t22 -101q0 -57 -22.5 -103t-62.5 -81t-93 -60v-108h-57v139q38 14 70 33t56 44t37.5 58.5t13.5 75.5q0 68 -35 105t-100 37q-28 0 -53.5 -6t-47.5 -16t-41 -22l-21 44q33 22 73.5 35.5t92.5 13.5z" />
    <glyph glyph-name="uni0243" unicode="&#x243;" horiz-adv-x="596" 
d="M94 0v179h-79v51h79v484h187q83 0 137 -18t80 -56.5t26 -99.5q0 -41 -14.5 -75t-43.5 -56.5t-71 -30.5v-3q49 -8 82 -29.5t50 -56.5t17 -86q0 -69 -30 -114t-82.5 -67t-123.5 -22h-214zM303 51q91 0 135.5 39.5t44.5 115.5q0 50 -20.5 81.5t-62 46.5t-105.5 15h-143v-119
h141v-51h-141v-128h151zM294 399q91 0 130.5 34t39.5 101q0 69 -43.5 99t-139.5 30h-129v-264h142z" />
    <glyph glyph-name="uni0244" unicode="&#x244;" horiz-adv-x="680" 
d="M12 370v52h656v-52h-656zM593 252q0 -81 -30 -140t-87 -90.5t-138 -31.5q-122 0 -186.5 70t-64.5 194v460h58v-460q0 -104 50 -158t146 -54q63 0 106 24.5t65.5 70.5t22.5 111v466h58v-462z" />
    <glyph glyph-name="uni0245" unicode="&#x245;" horiz-adv-x="553" 
d="M306 714l247 -714h-62l-173 511q-8 25 -16 48.5t-14.5 45.5t-11.5 42q-5 -20 -11.5 -41t-14 -44.5t-16.5 -50.5l-172 -511h-62l246 714h60z" />
    <glyph glyph-name="uni0246" unicode="&#x246;" horiz-adv-x="553" 
d="M463 760l-251 -835h-45l251 835h45zM464 0h-370v714h370v-52h-312v-261h294v-52h-294v-297h312v-52z" />
    <glyph glyph-name="uni0247" unicode="&#x247;" horiz-adv-x="552" 
d="M456 718l-313 -901h-46l312 901h47zM273 542q64 0 107.5 -31.5t65.5 -86.5t22 -126v-39h-356q1 -106 46.5 -162.5t130.5 -56.5q47 0 82 8.5t76 27.5v-52q-37 -17 -74 -25.5t-86 -8.5q-75 0 -127 33t-79.5 94.5t-27.5 144.5q0 81 26 144.5t75 99.5t119 36zM273 494
q-68 0 -110 -48.5t-49 -139.5h295q0 56 -14.5 98t-45 66t-76.5 24z" />
    <glyph glyph-name="uni0248" unicode="&#x248;" horiz-adv-x="240" 
d="M-10 -182q-23 0 -41 4t-30 9v51q14 -5 31.5 -8t37.5 -3q34 0 57.5 13.5t35.5 41.5t12 71v326h-83v52h83v339h58v-339h84v-52h-84v-321q0 -61 -18.5 -102t-54 -61.5t-88.5 -20.5z" />
    <glyph glyph-name="uni0249" unicode="&#x249;" horiz-adv-x="222" 
d="M17 -240q-21 0 -37.5 3.5t-28.5 7.5v49q14 -6 28.5 -8.5t31.5 -2.5q23 0 38.5 10t24.5 30t9 52v349h-75v48h75v234h57v-234h76v-48h-76v-350q0 -45 -14.5 -76.5t-42 -47.5t-66.5 -16zM73 686q0 20 10 31.5t28 11.5q13 0 21 -5t12.5 -14.5t4.5 -23.5t-4.5 -24t-12.5 -15
t-21 -5q-18 0 -28 11.5t-10 32.5z" />
    <glyph glyph-name="uni024A" unicode="&#x24a;" horiz-adv-x="706" 
d="M344 723q55 0 98.5 -18t74.5 -49t46 -71h3l7 129h49v-812q0 -50 16.5 -70.5t49.5 -20.5q14 0 25 3t21 7v-51q-10 -5 -23 -8t-30 -3q-56 0 -86.5 33.5t-30.5 103.5v142q0 15 0.5 31t1 32.5t0.5 29.5h-3q-16 -40 -46.5 -72t-74.5 -50.5t-102 -18.5q-92 0 -155 47t-94.5 130
t-31.5 192q0 82 18.5 149t54 115t89 74t123.5 26zM344 672q-75 0 -124.5 -39t-74.5 -109.5t-25 -165.5t24.5 -166t74.5 -110.5t126 -39.5q73 0 121.5 28.5t73 84.5t24.5 136v135q0 61 -14 107t-41.5 76.5t-69 46.5t-95.5 16z" />
    <glyph glyph-name="uni024B" unicode="&#x24b;" horiz-adv-x="565" 
d="M263 542q63 0 103 -28.5t59 -69.5h3l8 88h46v-627q0 -55 15 -76.5t45 -21.5q16 0 28 3.5t21 7.5v-46q-10 -6 -25 -9.5t-35 -3.5q-32 0 -56 14t-37 45.5t-13 82.5v95q0 21 1 50.5t3 50.5h-5q-19 -46 -61.5 -76.5t-108.5 -30.5q-94 0 -148 69.5t-54 205.5q0 84 24.5 146
t71.5 96.5t115 34.5zM270 493q-79 0 -119 -61t-40 -168q0 -109 38 -167t115 -58q57 0 92.5 25t52.5 74t17 119v14q0 109 -36.5 165.5t-119.5 56.5z" />
    <glyph glyph-name="uni024C" unicode="&#x24c;" horiz-adv-x="567" 
d="M127 308h-117v50h117v-50zM263 714q81 0 135 -19.5t80.5 -62.5t26.5 -114q0 -55 -18.5 -93.5t-50.5 -63t-73 -37.5l185 -324h-69l-170 308h-157v-308h-58v714h169zM258 663h-106v-305h124q54 0 92 18.5t57.5 53.5t19.5 86q0 55 -20.5 87t-62 46t-104.5 14z" />
    <glyph glyph-name="uni024D" unicode="&#x24d;" horiz-adv-x="373" 
d="M280 304v-48h-267v48h267zM291 541q18 0 35.5 -2t31.5 -6l-8 -53q-15 4 -30 6.5t-32 2.5q-34 0 -61.5 -14t-47 -40t-30 -62t-10.5 -81v-292h-57v532h48l6 -99h3q13 30 34 54.5t51 39t67 14.5z" />
    <glyph glyph-name="uni024E" unicode="&#x24e;" horiz-adv-x="507" 
d="M495 584v-52h-485v52h485zM254 332l189 382h64l-223 -438v-276h-59v272l-225 442h64z" />
    <glyph glyph-name="uni024F" unicode="&#x24f;" horiz-adv-x="445" 
d="M440 350v-48h-435v48h435zM1 532h61l117 -330q11 -30 19.5 -55t15 -46.5t9.5 -39.5h3q6 24 17.5 60t25.5 79l115 332h62l-225 -626q-17 -47 -38 -80t-50 -50t-69 -17q-18 0 -32.5 2.5t-27.5 6.5v48q12 -4 25 -6.5t28 -2.5q27 0 46.5 11.5t34.5 35t28 59.5l31 89z" />
    <glyph glyph-name="uni0250" unicode="&#x250;" horiz-adv-x="507" 
d="M246 -9q-85 0 -127 43.5t-42 139.5v358h43l10 -90h3q18 30 40.5 52.5t55 35t79.5 12.5t82 -17.5t54 -50.5t19 -81q0 -80 -61 -121.5t-178 -46.5l-90 -5v-37q0 -79 29 -111.5t86 -32.5q38 0 73.5 10.5t71.5 29.5l18 -46q-36 -18 -78 -30t-88 -12zM217 267q94 5 140 35.5
t46 90.5q0 49 -28.5 75t-77.5 26q-77 0 -120 -47.5t-43 -131.5v-52z" />
    <glyph glyph-name="uni0251" unicode="&#x251;" horiz-adv-x="566" 
d="M257 -10q-64 0 -109.5 31t-70 92t-24.5 150q0 137 56 208t153 71q65 0 104.5 -29.5t58.5 -73.5h3l8 93h47v-413q0 -46 12 -63t32 -17q8 0 16.5 1.5t14.5 3.5v-44q-5 -2 -12.5 -4.5t-16 -4t-17.5 -1.5q-39 0 -58 24t-24 81h-3q-20 -44 -61 -74.5t-109 -30.5zM266 39
q58 0 93 25t51 74t16 119v9q0 110 -36.5 168.5t-120.5 58.5q-77 0 -117 -59.5t-40 -171.5q0 -108 38.5 -165.5t115.5 -57.5z" />
    <glyph glyph-name="uni0252" unicode="&#x252;" horiz-adv-x="566" 
d="M327 542q64 0 109.5 -31t70 -92t24.5 -150q0 -137 -56 -208t-153 -71q-65 0 -104.5 29.5t-58.5 73.5h-3l-8 -93h-47v413q0 46 -12 63t-32 17q-8 0 -16.5 -1.5t-14.5 -3.5v44q5 2 12.5 4.5t16 4t17.5 1.5q39 0 58 -24t24 -81h3q20 44 61 74.5t109 30.5zM318 493
q-58 0 -93 -25t-51 -74t-16 -119v-9q0 -110 36.5 -168.5t120.5 -58.5q77 0 117 59.5t40 171.5q0 108 -38.5 165.5t-115.5 57.5z" />
    <glyph glyph-name="uni0253" unicode="&#x253;" horiz-adv-x="564" 
d="M205 765q16 0 31 -2.5t25 -6.5v-49q-8 3 -21 5.5t-28 2.5q-36 0 -55 -22t-19 -71v-78q0 -29 -1 -58t-2 -50h3q19 46 62 76t107 30q65 0 110.5 -31t69.5 -92t24 -152q0 -84 -24 -146t-71 -96.5t-116 -34.5q-41 0 -73 12.5t-53.5 34.5t-34.5 49h-4l-11 -86h-43v620
q0 47 14 79t42 49t68 17zM299 493q-57 0 -92.5 -26t-52 -76t-16.5 -124q0 -113 35.5 -170.5t119.5 -57.5q78 0 118.5 59.5t40.5 169.5q0 112 -38 168.5t-115 56.5z" />
    <glyph glyph-name="uni0254" unicode="&#x254;" horiz-adv-x="450" 
d="M173 542q72 0 122 -30t76 -89.5t26 -147.5t-28 -152t-80.5 -98.5t-127.5 -34.5q-40 0 -71.5 7.5t-56.5 19.5v52q28 -12 60 -20t69 -8q62 0 100.5 29.5t57 82t18.5 120.5q0 105 -41.5 162t-129.5 57q-26 0 -60 -7t-60 -20l-16 49q25 12 64 20t78 8z" />
    <glyph glyph-name="uni0255" unicode="&#x255;" horiz-adv-x="484" 
d="M298 542q37 0 69 -7t56 -19l-16 -49q-25 11 -54 17.5t-56 6.5q-58 0 -98.5 -27.5t-61.5 -78.5t-21 -121q0 -36 5.5 -67.5t16.5 -57.5q33 40 77 64.5t97 24.5q62 0 98 -31t36 -81q0 -40 -20.5 -68.5t-56 -43t-79.5 -14.5q-50 0 -89.5 14.5t-67.5 42.5q-10 -19 -19 -42
t-16 -48l-44 18q8 31 19.5 59t25.5 53q-21 34 -31.5 78.5t-10.5 97.5q0 90 30 152.5t84.5 94.5t126.5 32zM308 179q-42 0 -79 -21.5t-66 -62.5q21 -26 53 -41t74 -15q33 0 55.5 10t34.5 27t12 38q0 27 -20.5 46t-63.5 19z" />
    <glyph glyph-name="uni0256" unicode="&#x256;" horiz-adv-x="565" 
d="M545 -238q-36 0 -63 15t-42 48.5t-15 89.5v82q0 19 1.5 49.5t2.5 49.5h-4q-13 -29 -35.5 -53t-55.5 -38.5t-78 -14.5q-64 0 -109.5 31t-70 91.5t-24.5 150.5q0 91 25.5 153t72.5 94t111 32q44 0 75.5 -13.5t53.5 -37t35 -51.5h4q-1 16 -2 34t-1.5 36.5t-0.5 34.5v215h57
v-841q0 -63 19.5 -86t54.5 -23q18 0 32.5 3.5t22.5 7.5v-46q-10 -6 -27 -9.5t-39 -3.5zM264 39q84 0 122.5 56t38.5 162v9q0 114 -38 170.5t-119 56.5q-76 0 -116.5 -60t-40.5 -171q0 -110 38.5 -166.5t114.5 -56.5z" />
    <glyph glyph-name="uni0257" unicode="&#x257;" horiz-adv-x="565" 
d="M261 -10q-99 0 -153.5 69t-54.5 202q0 137 56.5 209t156.5 72q42 0 73 -13.5t52.5 -36.5t34.5 -51h4q-1 23 -2.5 52t-1.5 52v90q0 43 13 72t37.5 43.5t57.5 14.5q18 0 34.5 -3.5t26.5 -8.5v-49q-10 5 -24 7.5t-29 2.5q-29 0 -44 -19.5t-15 -58.5v-636h-46l-8 93h-3
q-13 -28 -35 -51.5t-54 -37.5t-76 -14zM270 39q85 0 121 56t36 162v9q0 110 -35.5 168.5t-118.5 58.5q-79 0 -120 -60.5t-41 -172.5q0 -108 39 -164.5t119 -56.5z" />
    <glyph glyph-name="uni0258" unicode="&#x258;" horiz-adv-x="520" 
d="M247 542q-64 0 -107.5 -31.5t-65.5 -86.5t-22 -126v-39h356q-1 -106 -46.5 -162.5t-130.5 -56.5q-47 0 -82 8.5t-76 27.5v-52q37 -17 74 -25.5t86 -8.5q75 0 127 33t79.5 94.5t27.5 144.5q0 81 -26 144.5t-75 99.5t-119 36zM247 494q68 0 110 -48.5t49 -139.5h-295
q0 56 14.5 98t45 66t76.5 24z" />
    <glyph glyph-name="uni0259" unicode="&#x259;" horiz-adv-x="520" 
d="M234 542q75 0 127 -33t79 -93.5t27 -144.5q0 -81 -25.5 -144.5t-74.5 -100t-119 -36.5q-64 0 -107.5 31.5t-66 87t-22.5 126.5v39h356q-1 106 -46.5 162t-129.5 56q-47 0 -82 -8t-77 -28v52q38 18 75 26t86 8zM111 226q1 -55 15.5 -97.5t45 -66t76.5 -23.5q68 0 110 48.5
t49 138.5h-296z" />
    <glyph glyph-name="uni025A" unicode="&#x25a;" horiz-adv-x="724" 
d="M247 -10q-96 0 -145.5 64t-49.5 175l352 99q-6 47 -26.5 84t-56.5 58.5t-91 21.5q-44 0 -81.5 -9.5t-74.5 -25.5v52q24 10 49 18t52 11.5t59 3.5q95 0 152.5 -53t73.5 -146l108 31l10 -53q9 -49 24 -71t45 -22q16 0 32.5 5t31.5 13l13 -46q-19 -11 -41.5 -18t-44.5 -7
q-34 0 -55.5 17t-34.5 48t-22 73l-59 -17q0 -90 -22 -159.5t-70.5 -108t-127.5 -38.5zM248 39q46 0 77 18t49 50.5t26 77t8 95.5l-297 -83q3 -42 16.5 -78t43 -58t77.5 -22z" />
    <glyph glyph-name="uni025B" unicode="&#x25b;" horiz-adv-x="435" 
d="M319 305v-49h-64q-51 0 -85.5 -12t-52 -36.5t-17.5 -62.5q0 -34 16.5 -58t49 -36t77.5 -12q48 0 86.5 10.5t70.5 25.5v-51q-17 -9 -41 -17t-53.5 -12.5t-65.5 -4.5q-67 0 -111 19.5t-65.5 54t-21.5 78.5q0 57 30.5 90t81.5 47v4q-48 15 -71 45t-23 75q0 47 24.5 78t66 46
t91.5 15q34 0 60.5 -4t50.5 -11.5t48 -18.5l-21 -47q-29 14 -63 23t-75 9q-63 0 -95 -24t-32 -70q0 -48 39 -71t112 -23h53z" />
    <glyph glyph-name="uni025C" unicode="&#x25c;" horiz-adv-x="435" 
d="M203 542q53 0 91 -16t58 -46.5t20 -74.5q0 -47 -23.5 -76.5t-66.5 -42.5v-3q34 -9 58 -26.5t37 -44t13 -63.5q0 -48 -23 -83.5t-67.5 -55.5t-107.5 -20q-34 0 -64.5 4.5t-55 12.5t-42.5 18v55q34 -19 74 -30t87 -11q61 0 101.5 28t40.5 85q0 56 -37.5 80t-110.5 24h-66
v49h60q63 0 100.5 23t37.5 73q0 45 -30 68.5t-87 23.5q-41 0 -73.5 -9.5t-67.5 -26.5l-20 47q36 18 76 28t88 10z" />
    <glyph glyph-name="uni025D" unicode="&#x25d;" horiz-adv-x="611" 
d="M521 274q-32 0 -54 15.5t-37 45t-26 70.5l-75 -22l-11 48l125 36l14 -52q12 -49 28 -69t43 -20q19 0 36 6t31 14l16 -46q-20 -11 -43 -18.5t-47 -7.5zM203 542q53 0 91 -16t58 -46.5t20 -74.5q0 -47 -23.5 -76.5t-66.5 -42.5v-3q34 -9 58 -26.5t37 -44t13 -63.5
q0 -48 -23 -83.5t-67.5 -55.5t-107.5 -20q-34 0 -64.5 4.5t-55 12.5t-42.5 18v55q34 -19 74 -30t87 -11q61 0 101.5 28t40.5 85q0 56 -37.5 80t-110.5 24h-66v49h60q63 0 100.5 23t37.5 73q0 45 -30 68.5t-87 23.5q-41 0 -73.5 -9.5t-67.5 -26.5l-20 47q36 18 76 28t88 10z
" />
    <glyph glyph-name="uni025E" unicode="&#x25e;" horiz-adv-x="531" 
d="M297 542q83 0 129 -38t46 -102q0 -48 -25 -77.5t-70 -41.5v-3q33 -7 58 -22.5t39 -41.5t14 -65q0 -45 -22.5 -81.5t-68 -58t-114.5 -21.5q-77 0 -128 33.5t-76.5 95t-25.5 144.5q0 85 27.5 148t82 97t134.5 34zM296 493q-63 0 -103.5 -27.5t-60.5 -79t-20 -123.5
q0 -73 19.5 -123t58.5 -75.5t98 -25.5q70 0 106.5 31.5t36.5 82.5q0 55 -40 78t-116 23h-38v49h29q73 0 111.5 21.5t38.5 73.5q0 42 -29.5 68.5t-90.5 26.5z" />
    <glyph glyph-name="uni025F" unicode="&#x25f;" horiz-adv-x="222" 
d="M17 -240q-21 0 -37.5 3.5t-28.5 7.5v49q14 -6 28.5 -8.5t31.5 -2.5q23 0 38.5 10t24.5 30t9 52v349h-75v48h75v234h57v-234h76v-48h-76v-350q0 -45 -14.5 -76.5t-42 -47.5t-66.5 -16z" />
    </font>
</defs>
</svg>
