<?xml version="1.0" standalone="no"?>
<!DOCTYPE svg PUBLIC "-//W3C//DTD SVG 1.1//EN" "http://www.w3.org/Graphics/SVG/1.1/DTD/svg11.dtd" >
<svg xmlns="http://www.w3.org/2000/svg" xmlns:xlink="http://www.w3.org/1999/xlink" version="1.1">
<metadata>
Created by FontForge 20170731 at Mon Nov  2 22:45:20 2020
 By Aleksey,,,
Copyright 2015 Google Inc. All Rights Reserved.
</metadata>
<defs>
<font id="NotoSansDisplay-Italic" horiz-adv-x="0" >
  <font-face 
    font-family="Noto Sans Display"
    font-weight="400"
    font-style="italic"
    font-stretch="normal"
    units-per-em="1000"
    panose-1="2 11 5 2 4 5 4 9 2 4"
    ascent="800"
    descent="-200"
    x-height="536"
    cap-height="714"
    bbox="-665 -389 2633 1084"
    underline-thickness="50"
    underline-position="-175"
    slope="-12"
    unicode-range="U+000D-FFFD"
  />
<missing-glyph horiz-adv-x="570" 
d="M89 0v714h390v-714h-390zM138 51h294v612h-294v-612z" />
    <glyph glyph-name="f_f" unicode="ff" horiz-adv-x="612" 
d="M-46 -240q-19 0 -34.5 3t-27.5 7l1 74q13 -4 25.5 -7.5t27.5 -3.5q29 0 50 25t34 89l109 522h-87l8 37l94 33l11 48q12 51 28 85.5t37 55t48.5 29t62.5 8.5q25 0 50 -5.5t41 -13.5l-24 -67q-13 5 -28.5 9.5t-34.5 4.5q-36 0 -57.5 -22t-35.5 -84l-11 -51h216l12 52
q12 51 28 85t37 54.5t48.5 29t63.5 8.5q25 0 50.5 -5.5t41.5 -13.5l-25 -67q-13 5 -29 9.5t-34 4.5q-37 0 -58 -22t-35 -84l-11 -51h110l-15 -67h-109l-112 -532q-11 -55 -31 -95t-51.5 -61t-78.5 -21q-18 0 -34.5 3t-27.5 7l1 74q12 -4 25 -7.5t28 -3.5q29 0 50 25.5
t34 88.5l109 522h-217l-112 -532q-11 -55 -31 -95t-51.5 -61t-78.5 -21z" />
    <glyph glyph-name="fi" unicode="fi" horiz-adv-x="576" 
d="M-46 -240q-19 0 -34.5 3t-27.5 7l1 74q13 -4 25.5 -7.5t27.5 -3.5q34 0 53 29.5t31 84.5l110 522h-88l8 37l94 33l11 48q12 51 28 85.5t37 55t48.5 29t62.5 8.5q25 0 50 -5.5t41 -13.5l-24 -67q-13 5 -28.5 9.5t-34.5 4.5q-36 0 -57.5 -22t-35.5 -84l-11 -51h109l-14 -67
h-109l-112 -532q-11 -55 -31 -95t-51.5 -61t-78.5 -21zM344 0l114 536h88l-114 -536h-88zM528 625q-20 0 -33.5 12t-13.5 34q0 18 7 32.5t20.5 23.5t31.5 9q23 0 34.5 -12t11.5 -32q0 -31 -17.5 -49t-40.5 -18z" />
    <glyph glyph-name="fl" unicode="fl" horiz-adv-x="576" 
d="M-46 -240q-19 0 -34.5 3t-27.5 7l1 74q13 -4 25.5 -7.5t27.5 -3.5q34 0 53 29.5t31 84.5l110 522h-88l8 37l94 33l11 48q12 51 28 85.5t37 55t48.5 29t62.5 8.5q25 0 50 -5.5t41 -13.5l-24 -67q-13 5 -28.5 9.5t-34.5 4.5q-36 0 -57.5 -22t-35.5 -84l-11 -51h109l-14 -67
h-109l-112 -532q-11 -55 -31 -95t-51.5 -61t-78.5 -21zM343 0l162 760h88l-162 -760h-88z" />
    <glyph glyph-name="f_f_i" unicode="ffi" horiz-adv-x="860" 
d="M-46 -240q-19 0 -34.5 3t-27.5 7l1 74q13 -4 25.5 -7.5t27.5 -3.5q29 0 50.5 25t33.5 89l110 522h-88l8 37l94 33l11 48q12 51 28 85.5t37 55t48.5 29t62.5 8.5q25 0 50 -5.5t41 -13.5l-24 -67q-13 5 -28.5 9.5t-34.5 4.5q-36 0 -57.5 -22t-34.5 -84l-12 -51h216l12 52
q12 51 28 85t37 54.5t48.5 29t63.5 8.5q25 0 50.5 -5.5t41.5 -13.5l-25 -67q-13 5 -29 9.5t-34 4.5q-37 0 -57.5 -22t-34.5 -84l-12 -51h110l-15 -67h-109l-112 -532q-11 -55 -31 -95t-51.5 -61t-78.5 -21q-18 0 -34.5 3t-27.5 7l1 74q12 -4 25 -7.5t28 -3.5q29 0 50 25.5
t34 88.5l109 522h-217l-112 -532q-11 -55 -31 -95t-51.5 -61t-78.5 -21zM637 0l115 536h88l-115 -536h-88zM822 625q-19 0 -33 12t-14 34q0 18 7.5 32.5t20.5 23.5t31 9q22 0 33.5 -12t11.5 -32q0 -31 -17.5 -49t-39.5 -18z" />
    <glyph glyph-name="f_f_l" unicode="ffl" horiz-adv-x="859" 
d="M-46 -240q-19 0 -34.5 3t-27.5 7l1 74q13 -4 25.5 -7.5t27.5 -3.5q29 0 50 25t34 89l109 522h-87l8 37l94 33l11 48q12 51 28 85.5t37 55t48.5 29t62.5 8.5q25 0 50 -5.5t41 -13.5l-24 -67q-13 5 -28.5 9.5t-34.5 4.5q-36 0 -57.5 -22t-35.5 -84l-11 -51h216l12 52
q12 51 28 85t37 54.5t48.5 29t63.5 8.5q25 0 50.5 -5.5t41.5 -13.5l-25 -67q-13 5 -29 9.5t-34 4.5q-37 0 -58 -22t-35 -84l-11 -51h110l-15 -67h-109l-112 -532q-11 -55 -31 -95t-51.5 -61t-78.5 -21q-18 0 -34.5 3t-27.5 7l1 74q12 -4 25 -7.5t28 -3.5q29 0 50 25.5
t34 88.5l109 522h-217l-112 -532q-11 -55 -31 -95t-51.5 -61t-78.5 -21zM637 0l161 760h88l-162 -760h-87z" />
    <glyph glyph-name=".notdef" horiz-adv-x="570" 
d="M89 0v714h390v-714h-390zM138 51h294v612h-294v-612z" />
    <glyph glyph-name=".null" 
 />
    <glyph glyph-name="nonmarkingreturn" horiz-adv-x="333" 
 />
    <glyph glyph-name="NULL" 
 />
    <glyph glyph-name="NULL" 
 />
    <glyph glyph-name="CR" unicode="&#xd;" horiz-adv-x="247" 
 />
    <glyph glyph-name="space" unicode=" " horiz-adv-x="247" 
 />
    <glyph glyph-name="exclam" unicode="!" horiz-adv-x="250" 
d="M75 201l91 513h106l-126 -513h-71zM70 -14q-25 0 -38 14t-13 39q0 21 7.5 40t24 30.5t42.5 11.5q22 0 35.5 -13.5t13.5 -39.5q0 -29 -17.5 -55.5t-54.5 -26.5z" />
    <glyph glyph-name="quotedbl" unicode="&#x22;" horiz-adv-x="377" 
d="M273 456l36 258h94l-74 -258h-56zM108 456l36 258h94l-74 -258h-56z" />
    <glyph glyph-name="numbersign" unicode="#" horiz-adv-x="613" 
d="M91 0l58 209h-119l7 66h131l47 162h-127l7 65h138l59 212h71l-60 -212h134l60 212h68l-59 -212h120l-7 -65h-134l-45 -162h130l-6 -66h-143l-59 -209h-71l61 209h-133l-60 -209h-68zM238 275h134l43 162h-132z" />
    <glyph glyph-name="dollar" unicode="$" horiz-adv-x="523" 
d="M182 50q-40 2 -80 11.5t-69 24.5l1 80q37 -20 81 -31.5t82 -12.5l46 215q-38 15 -66.5 34.5t-44 48.5t-15.5 70q0 57 26 95.5t70.5 60.5t99.5 27l19 85h62l-18 -86q37 -3 70 -12t62 -25l-34 -71q-22 13 -51.5 23.5t-61.5 12.5l-44 -209q43 -17 71.5 -37t43.5 -46.5
t15 -65.5q0 -58 -26.5 -98.5t-72.5 -63t-104 -29.5l-24 -109h-62zM260 125q29 4 52 17.5t36.5 36.5t13.5 55q0 17 -6 31.5t-19.5 26.5t-36.5 22zM298 600q-29 -3 -51.5 -16t-35 -35.5t-12.5 -55.5q0 -16 6.5 -31t20.5 -27t34 -21z" />
    <glyph glyph-name="percent" unicode="%" horiz-adv-x="763" 
d="M108 0l511 714h77l-511 -714h-77zM188 276q-52 0 -80.5 36.5t-28.5 105.5q0 29 5 68t17 80.5t33.5 77.5t53 58t76.5 22q54 0 82.5 -34.5t28.5 -99.5q0 -27 -5.5 -66.5t-18.5 -82.5t-34.5 -80.5t-53 -61t-75.5 -23.5zM196 342q24 0 42 20t30.5 50.5t20 64t11 62.5t3.5 44
q0 41 -11.5 58.5t-34.5 17.5q-24 0 -42 -18t-30 -47t-19.5 -62t-11 -62.5t-3.5 -49.5q0 -39 11 -58.5t34 -19.5zM538 -10q-52 0 -81 36t-29 105q0 29 5 69t17.5 81.5t34 77t53 57.5t75.5 22q55 0 83.5 -34.5t28.5 -99.5q0 -27 -5.5 -66.5t-18.5 -82.5t-35 -80.5t-53.5 -61
t-74.5 -23.5zM545 56q25 0 43 20t30.5 50.5t20 64.5t11 62.5t3.5 43.5q0 41 -12 58.5t-34 17.5q-24 0 -42 -18t-30.5 -47t-19.5 -62t-10.5 -63t-3.5 -50q0 -38 11 -57.5t33 -19.5z" />
    <glyph glyph-name="ampersand" unicode="&#x26;" horiz-adv-x="642" 
d="M207 -10q-78 0 -126.5 45t-48.5 131q0 54 21 94.5t61.5 73.5t99.5 62q-18 31 -31 68.5t-13 78.5q0 51 22 92t63.5 65.5t99.5 24.5q47 0 81 -17t52 -48.5t18 -75.5q0 -51 -25 -87.5t-67 -64t-93 -54.5l121 -184q31 29 53 66.5t37 77.5h88q-17 -41 -37.5 -77t-45 -68
t-52.5 -60l93 -133h-104l-50 78q-45 -38 -95.5 -63t-121.5 -25zM224 63q33 0 60 10t51.5 26.5t47.5 36.5l-133 206q-34 -19 -64 -41t-48 -52.5t-18 -75.5q0 -34 13 -58.5t36.5 -38t54.5 -13.5zM287 433q30 16 61 35.5t52.5 45.5t21.5 62q0 35 -18.5 56.5t-53.5 21.5
q-30 0 -52 -13.5t-33.5 -38t-11.5 -59.5q0 -29 8.5 -56.5t25.5 -53.5z" />
    <glyph glyph-name="quotesingle" unicode="'" horiz-adv-x="212" 
d="M108 456l36 258h94l-74 -258h-56z" />
    <glyph glyph-name="parenleft" unicode="(" horiz-adv-x="279" 
d="M104 -158q-21 41 -35.5 87.5t-22 98t-7.5 105.5q0 89 16 168.5t47 150.5t75.5 136t101.5 126h80q-51 -59 -94 -124.5t-75.5 -138t-50 -151.5t-17.5 -166q0 -58 5.5 -109t17 -96.5t27.5 -86.5h-68z" />
    <glyph glyph-name="parenright" unicode=")" horiz-adv-x="279" 
d="M-74 -158q51 59 94 124.5t74.5 138t49 151.5t18.5 166q1 58 -4.5 109t-16.5 96.5t-28 86.5h68q32 -61 49 -135t15 -157q-1 -89 -17 -168.5t-46.5 -150.5t-75 -136t-101.5 -125h-79z" />
    <glyph glyph-name="asterisk" unicode="*" horiz-adv-x="523" 
d="M355 300l-48 195l-117 -165l-60 61l142 137l-169 53l28 78l169 -89l21 193l85 -17l-57 -186l192 10l-5 -82l-178 23l80 -185z" />
    <glyph glyph-name="plus" unicode="+" horiz-adv-x="537" 
d="M323 388h186v-71h-186v-206h-71v206h-186v71h186v207h71v-207z" />
    <glyph glyph-name="comma" unicode="," horiz-adv-x="245" 
d="M-43 -129q17 40 34.5 83.5t33.5 85.5t28 76h95l3 -11q-16 -35 -37 -75.5t-44 -81t-46 -77.5h-67z" />
    <glyph glyph-name="hyphen" unicode="-" horiz-adv-x="298" 
d="M27 227l19 81h225l-18 -81h-226z" />
    <glyph glyph-name="period" unicode="." horiz-adv-x="245" 
d="M70 -14q-25 0 -38 13.5t-13 38.5q0 22 8 41t25 30.5t43 11.5q21 0 34.5 -13.5t12.5 -39.5q0 -20 -8 -39t-24 -31t-40 -12z" />
    <glyph glyph-name="slash" unicode="/" horiz-adv-x="342" 
d="M-44 0l385 714h89l-384 -714h-90z" />
    <glyph glyph-name="zero" unicode="0" horiz-adv-x="523" 
d="M224 -10q-83 0 -126 61.5t-43 176.5q0 49 7 104.5t21.5 111t37.5 106t55 90t74 62.5t94 23q43 0 75 -14.5t52.5 -43.5t31 -71t10.5 -96q0 -59 -7.5 -120t-22.5 -118t-38 -106.5t-55 -86.5t-73.5 -58t-92.5 -21zM234 65q31 0 57.5 19t47.5 52t37 76t26.5 92t16 99.5
t5.5 97.5q0 72 -21 110.5t-65 38.5q-30 0 -56 -18.5t-48 -50.5t-38.5 -74t-28 -89.5t-17.5 -96t-6 -93.5q0 -79 21.5 -121t68.5 -42z" />
    <glyph glyph-name="one" unicode="1" horiz-adv-x="523" 
d="M285 442q7 31 14 63.5t14.5 61t13.5 47.5q-14 -16 -29 -28t-35 -25l-85 -55l-40 66l218 142h76l-152 -714h-89z" />
    <glyph glyph-name="two" unicode="2" horiz-adv-x="523" 
d="M1 0l16 75l218 205q48 45 82 79.5t56 64t32.5 59.5t10.5 65q0 45 -25 73t-72 28q-27 0 -52 -8t-48 -22t-46 -32l-41 60q41 33 89 55t109 22q58 0 97.5 -20.5t60 -56.5t20.5 -84q0 -58 -21.5 -106t-69 -101t-126.5 -126l-158 -146v-4h306l-16 -80h-422z" />
    <glyph glyph-name="three" unicode="3" horiz-adv-x="523" 
d="M198 -10q-55 0 -98 10.5t-80 28.5l1 85q34 -19 82 -34.5t96 -15.5q38 0 67.5 10t50 29t31 45.5t10.5 59.5q0 41 -15.5 68.5t-45 41.5t-73.5 14h-61l16 73h59q36 0 68 10t56.5 29.5t39 47.5t14.5 64q0 45 -26 69.5t-69 24.5t-79.5 -16t-71.5 -42l-40 62q41 30 89.5 50
t112.5 20q57 0 95.5 -19.5t58.5 -54.5t20 -82q0 -51 -21 -92.5t-60.5 -69t-95.5 -38.5v-4q53 -10 87 -49t34 -103q0 -43 -14.5 -82.5t-45 -71t-78.5 -50t-114 -18.5z" />
    <glyph glyph-name="four" unicode="4" horiz-adv-x="523" 
d="M270 0l35 162h-299l16 80l386 472h99l-99 -474h103l-18 -78h-103l-35 -162h-85zM111 240h211l36 171q8 37 18 77.5t20 76.5t16 59h-4q-7 -13 -19.5 -31t-24.5 -35t-20 -27z" />
    <glyph glyph-name="five" unicode="5" horiz-adv-x="523" 
d="M190 -10q-30 0 -58 4.5t-52.5 13t-45.5 21.5l1 85q34 -22 73 -36t82 -14q50 0 85 14t57 38.5t32 56t10 66.5q0 61 -32.5 94.5t-91.5 33.5q-28 0 -53 -5t-54 -13l-36 29l96 336h315l-18 -80h-239l-58 -207q17 4 36.5 7t44.5 3q55 0 96 -22.5t63.5 -64.5t22.5 -100
q0 -45 -14 -90.5t-45.5 -84t-85 -62t-131.5 -23.5z" />
    <glyph glyph-name="six" unicode="6" horiz-adv-x="523" 
d="M239 -10q-53 0 -93.5 23.5t-62.5 71t-22 120.5q0 52 9 110t27.5 116t47 109.5t66.5 91.5q28 29 62.5 49.5t75.5 31.5t90 11q26 0 49 -3t40 -8l-19 -76q-15 5 -34.5 8.5t-45.5 3.5q-60 0 -111 -29t-89.5 -91t-61.5 -163h4q18 25 42 43.5t53 29t61 10.5q70 0 111 -46
t41 -131q0 -50 -14 -100t-43.5 -91t-75 -66t-107.5 -25zM248 64q35 0 61.5 16.5t45 45t28 64t9.5 73.5q0 56 -23.5 85.5t-71.5 29.5q-34 0 -62.5 -16t-47.5 -39t-28 -44q-4 -11 -6.5 -24t-3.5 -26.5t-1 -27.5q0 -35 10 -66.5t32 -51t58 -19.5z" />
    <glyph glyph-name="seven" unicode="7" horiz-adv-x="523" 
d="M74 0l360 636h-327l17 78h420l-14 -70l-360 -644h-96z" />
    <glyph glyph-name="eight" unicode="8" horiz-adv-x="523" 
d="M234 -10q-65 0 -107.5 24.5t-63 64.5t-20.5 88q0 52 21.5 92.5t62 71.5t96.5 53q-34 28 -56 62.5t-22 88.5q0 59 27 101.5t73.5 65.5t104.5 23q62 0 99.5 -22t55 -57.5t17.5 -76.5q0 -53 -22.5 -90.5t-58.5 -62.5t-78 -44q32 -21 55 -45.5t36 -56.5t13 -75
q0 -54 -24.5 -100.5t-76 -75.5t-132.5 -29zM243 63q47 0 77 19t44 49t14 62t-10.5 57.5t-31 47.5t-52.5 41q-43 -14 -77.5 -35t-54 -52.5t-19.5 -78.5q0 -52 30.5 -81t79.5 -29zM304 412q43 17 71.5 37.5t43.5 47.5t15 62q0 42 -25 67t-67 25q-33 0 -58 -14t-39 -40t-14 -62
q0 -44 20.5 -72.5t52.5 -50.5z" />
    <glyph glyph-name="nine" unicode="9" horiz-adv-x="523" 
d="M156 -10q-28 0 -58 4.5t-54 12.5l1 81q25 -9 52.5 -15.5t60.5 -6.5q64 0 109.5 30.5t77 92t51.5 154.5h-5q-16 -23 -38 -41t-49 -27.5t-58 -9.5q-77 0 -119 48t-42 138q0 44 10.5 84t30.5 74.5t49.5 60t67 40t83.5 14.5q55 0 94.5 -24.5t60.5 -72.5t21 -119
q0 -52 -9 -111t-26 -117t-41 -108.5t-55 -86.5q-22 -25 -46.5 -43.5t-52 -29.5t-56.5 -16.5t-60 -5.5zM266 336q30 0 56.5 11t47 32.5t32.5 52.5q6 17 9.5 39t3.5 47q0 39 -11 69t-32 46.5t-52 16.5q-35 0 -62.5 -15t-46.5 -42t-29 -62t-10 -75q0 -58 24 -89t70 -31z" />
    <glyph glyph-name="colon" unicode=":" horiz-adv-x="245" 
d="M150 415q-25 0 -38 13.5t-13 36.5t8 42t25 31t43 12q21 0 34.5 -13t13.5 -39q0 -31 -18 -57t-55 -26zM70 -14q-25 0 -38 13.5t-13 37.5q0 22 8 41t25 31t43 12q21 0 34 -13t13 -39q0 -20 -8 -39.5t-24 -31.5t-40 -12z" />
    <glyph glyph-name="semicolon" unicode=";" horiz-adv-x="245" 
d="M-48 -129q17 40 34.5 83.5t33.5 85.5t28 76h95l3 -11q-16 -35 -37 -75.5t-44 -81t-46 -77.5h-67zM150 415q-25 0 -38 13.5t-13 36.5t8 42t25 31t43 12q21 0 34.5 -13t13.5 -39q0 -31 -18.5 -57t-54.5 -26z" />
    <glyph glyph-name="less" unicode="&#x3c;" horiz-adv-x="537" 
d="M510 116l-444 207v50l444 235v-78l-352 -178l352 -158v-78z" />
    <glyph glyph-name="equal" unicode="=" horiz-adv-x="538" 
d="M72 416v71h432v-71h-432zM72 217v71h432v-71h-432z" />
    <glyph glyph-name="greater" unicode="&#x3e;" horiz-adv-x="537" 
d="M66 194l351 157l-351 179v78l444 -235v-50l-444 -207v78z" />
    <glyph glyph-name="question" unicode="?" horiz-adv-x="411" 
d="M123 201q5 32 14 58t22 48t32.5 42.5t45.5 41.5q31 25 57 48t42 51.5t16 66.5q0 44 -22 67.5t-65 23.5q-36 0 -70.5 -12.5t-66.5 -28.5l-31 67q39 22 86 36t93 14q75 0 119.5 -38.5t44.5 -116.5q0 -45 -15.5 -82.5t-46.5 -70.5t-76 -68q-37 -28 -57.5 -48t-31.5 -42
t-19 -57h-71zM125 -14q-25 0 -38 13.5t-13 37.5q0 22 8 41t25 31t43 12q21 0 34 -13t13 -39q0 -31 -18 -57t-54 -26z" />
    <glyph glyph-name="at" unicode="@" horiz-adv-x="806" 
d="M365 -91q-72 0 -130 22.5t-98.5 65t-62.5 104.5t-22 140q0 74 20.5 143t59 129t93.5 104.5t124.5 70t151.5 25.5q99 0 162.5 -41t93.5 -107.5t30 -145.5q0 -54 -10 -101.5t-28.5 -86.5t-44.5 -67t-57.5 -43t-67.5 -15q-52 0 -73.5 27t-25.5 62h-4q-21 -37 -53.5 -63
t-79.5 -26q-52 0 -83 35.5t-31 102.5q0 49 12.5 91t35 76t53 57.5t66.5 36.5t76 13q46 0 76.5 -9t55.5 -20l-47 -179q-8 -31 -12 -50.5t-4 -36.5q0 -30 12.5 -42t31.5 -12q24 0 44 14t36 38t27 55t17 66t6 70q0 65 -22 118t-72 85t-133 32q-65 0 -121 -20t-100.5 -56.5
t-76 -86.5t-48 -110.5t-16.5 -127.5q0 -83 28 -144t83.5 -93.5t138.5 -32.5q35 0 69.5 5.5t67 15.5t60.5 21l-1 -65q-32 -14 -67 -24t-70 -15t-70 -5zM362 169q45 0 75 42.5t48 109.5l33 124q-10 4 -24 7.5t-32 3.5q-27 0 -50.5 -10t-43.5 -29t-34 -44.5t-22 -56t-8 -65.5
q0 -43 15 -62.5t43 -19.5z" />
    <glyph glyph-name="A" unicode="A" horiz-adv-x="539" 
d="M-54 0l375 714h96l75 -714h-88l-22 222h-228l-111 -222h-97zM197 302h177l-13 150q-3 38 -6 84t-3 81h-3q-16 -38 -35 -81.5t-42 -87.5z" />
    <glyph glyph-name="B" unicode="B" horiz-adv-x="571" 
d="M38 0l151 714h177q63 0 108 -17t69 -52.5t24 -92.5q0 -49 -19 -86t-53.5 -61t-81.5 -33v-5q46 -13 76.5 -48.5t30.5 -94.5q0 -73 -34 -123t-93.5 -75.5t-135.5 -25.5h-219zM261 76q53 0 89.5 17.5t56 50.5t19.5 80t-28 79.5t-96 32.5h-104l-54 -260h117zM322 410
q42 0 76.5 14t55 43t20.5 73q0 47 -27.5 72t-91.5 25h-94l-47 -227h108z" />
    <glyph glyph-name="C" unicode="C" horiz-adv-x="559" 
d="M309 -10q-75 0 -128.5 32.5t-82 93t-28.5 143.5q0 65 14.5 130.5t44 125.5t74 107t104 74.5t134.5 27.5q50 0 91 -10t77 -30l-37 -74q-25 14 -57 24.5t-75 10.5q-56 0 -100.5 -22t-77.5 -60.5t-55 -88t-32.5 -104t-10.5 -108.5q0 -89 43 -141t119 -52q39 0 76.5 8
t74.5 21l-1 -78q-37 -14 -75.5 -22t-91.5 -8z" />
    <glyph glyph-name="D" unicode="D" horiz-adv-x="635" 
d="M38 0l151 714h162q122 0 190.5 -69t68.5 -211q0 -75 -17 -141t-50 -119.5t-82 -92.5t-112.5 -60t-140.5 -21h-170zM214 77q59 0 106.5 17.5t84 50t61.5 77t37.5 98.5t12.5 114q0 107 -48 155t-128 48h-79l-117 -560h70z" />
    <glyph glyph-name="E" unicode="E" horiz-adv-x="491" 
d="M38 0l151 714h347l-18 -79h-258l-46 -223h241l-16 -78h-242l-53 -255h258l-17 -79h-347z" />
    <glyph glyph-name="F" unicode="F" horiz-adv-x="457" 
d="M38 0l151 714h346l-16 -79h-259l-52 -254h242l-18 -79h-241l-64 -302h-89z" />
    <glyph glyph-name="G" unicode="G" horiz-adv-x="645" 
d="M324 -10q-120 0 -187 70t-67 195q0 79 17.5 149.5t50 129t78 101t103 66t124.5 23.5q62 0 108 -11t88 -31l-35 -78q-35 17 -75 29t-88 12q-60 0 -110.5 -28t-88 -79.5t-58 -121.5t-20.5 -154q0 -54 18 -98t56 -69.5t97 -25.5q35 0 64.5 5.5t49.5 12.5l45 211h-132l18 78
h221l-77 -349q-43 -16 -90.5 -26.5t-109.5 -10.5z" />
    <glyph glyph-name="H" unicode="H" horiz-adv-x="648" 
d="M39 0l151 714h89l-64 -302h293l63 302h88l-151 -714h-88l70 333h-292l-70 -333h-89z" />
    <glyph glyph-name="I" unicode="I" horiz-adv-x="311" 
d="M-20 0l11 49l81 20l120 576l-72 19l11 50h242l-10 -50l-83 -19l-120 -576l73 -20l-11 -49h-242z" />
    <glyph glyph-name="J" unicode="J" horiz-adv-x="264" 
d="M-77 -190q-23 0 -42.5 3.5t-30.5 8.5l3 77q15 -4 32 -7t36 -3q29 0 52.5 12t41 38.5t26.5 69.5l149 705h90l-152 -715q-14 -67 -42.5 -109t-69.5 -61t-93 -19z" />
    <glyph glyph-name="K" unicode="K" horiz-adv-x="538" 
d="M38 0l151 714h89l-74 -347l60 66l259 281h107l-296 -314l154 -400h-98l-126 346l-78 -61l-59 -285h-89z" />
    <glyph glyph-name="L" unicode="L" horiz-adv-x="457" 
d="M38 0l151 714h89l-134 -634h258l-17 -80h-347z" />
    <glyph glyph-name="M" unicode="M" horiz-adv-x="801" 
d="M37 0l151 714h125l57 -583h3l304 583h135l-148 -714h-89l89 424q9 44 18 82t16.5 69t13.5 52h-2l-329 -627h-72l-62 626h-4q-2 -20 -7 -53.5t-12 -71t-14 -72.5l-89 -429h-84z" />
    <glyph glyph-name="N" unicode="N" horiz-adv-x="675" 
d="M37 0l151 714h96l198 -590h3q2 18 6 41.5t8.5 50t10 53.5t10.5 52l84 393h83l-151 -714h-95l-200 592h-3q-2 -16 -5.5 -39.5t-8.5 -51t-10.5 -57t-11.5 -56.5l-82 -388h-83z" />
    <glyph glyph-name="O" unicode="O" horiz-adv-x="686" 
d="M319 -10q-81 0 -136.5 33t-84 94.5t-28.5 145.5q0 62 10.5 120t31.5 109.5t51 94t68.5 73.5t86 48t101.5 17q115 0 178.5 -74t63.5 -203q0 -62 -10 -119.5t-29 -109t-48 -93.5t-67 -72.5t-85 -47t-103 -16.5zM323 69q38 0 70.5 14t59.5 39.5t48 61t35.5 78t22 90
t7.5 98.5q0 93 -41 144.5t-113 51.5q-38 0 -71 -13.5t-60.5 -38.5t-49 -60t-36.5 -77.5t-23 -90.5t-8 -100q0 -62 19 -106t55 -67.5t85 -23.5z" />
    <glyph glyph-name="P" unicode="P" horiz-adv-x="542" 
d="M38 0l151 714h156q73 0 117.5 -23t65 -64t20.5 -96q0 -61 -19.5 -108t-58 -79t-94.5 -48.5t-129 -16.5h-62l-58 -279h-89zM261 354q60 0 104 18.5t68 57t24 97.5t-30.5 84.5t-93.5 25.5h-72l-59 -283h59z" />
    <glyph glyph-name="Q" unicode="Q" horiz-adv-x="686" 
d="M334 -9q-4 -1 -7.5 -1h-7.5q-81 0 -136.5 33t-84 94.5t-28.5 145.5q0 62 10.5 120t31.5 109.5t51 94t68.5 73.5t86 48t101.5 17q115 0 178.5 -74t63.5 -203q0 -62 -10 -119.5t-30 -109t-49.5 -93.5t-67 -72.5t-83.5 -46.5l125 -177h-113zM323 69q38 0 71 14t60 39.5
t48 61t35 78t21.5 90t7.5 98.5q0 93 -41 144.5t-113 51.5q-38 0 -71 -13.5t-60.5 -38.5t-49 -60t-36.5 -77.5t-23 -90.5t-8 -100q0 -62 19 -106t55 -67.5t85 -23.5z" />
    <glyph glyph-name="R" unicode="R" horiz-adv-x="547" 
d="M38 0l151 714h150q104 0 156 -45t52 -133q0 -52 -17 -95.5t-54 -75.5t-98 -50l109 -315h-98l-93 295h-107l-62 -295h-89zM277 371q47 0 80.5 11.5t55.5 32.5t32.5 50t10.5 64q0 59 -32 83t-94 24h-69l-56 -265h72z" />
    <glyph glyph-name="S" unicode="S" horiz-adv-x="482" 
d="M176 -10q-49 0 -87.5 8t-70.5 24l1 88q20 -10 43.5 -20t52.5 -16t63 -6q32 0 60 7.5t49.5 24t34 41.5t12.5 60q0 26 -11 47t-34.5 41.5t-62.5 44.5q-34 22 -61.5 46.5t-43.5 56.5t-16 78q0 50 17.5 89t48.5 65.5t72 40.5t88 14q53 0 93.5 -11t77.5 -31l-35 -76
q-25 14 -61.5 26.5t-75.5 12.5q-28 0 -52 -8.5t-42 -24.5t-27.5 -39t-9.5 -52t10.5 -49t31.5 -36.5t53 -37.5q40 -25 70 -50t47 -57.5t17 -81.5q0 -54 -18 -95t-51.5 -68.5t-80 -41.5t-102.5 -14z" />
    <glyph glyph-name="T" unicode="T" horiz-adv-x="478" 
d="M143 0l133 635h-184l18 79h458l-16 -79h-185l-134 -635h-90z" />
    <glyph glyph-name="U" unicode="U" horiz-adv-x="644" 
d="M284 -10q-70 0 -116 22.5t-69 66.5t-23 106q0 18 3 43.5t10 54.5l92 431h88l-93 -436q-5 -24 -8 -49.5t-3 -41.5q0 -55 31.5 -86.5t94.5 -31.5q55 0 90.5 20.5t57.5 61t35 99.5l99 464h89l-100 -471q-16 -78 -49.5 -135t-89 -87.5t-139.5 -30.5z" />
    <glyph glyph-name="V" unicode="V" horiz-adv-x="527" 
d="M159 0l-64 714h87l37 -452q3 -27 4.5 -55t2 -55t-0.5 -51h2q10 24 21 49.5t24.5 53.5t28.5 59l223 451h98l-367 -714h-96z" />
    <glyph glyph-name="W" unicode="W" horiz-adv-x="816" 
d="M128 0l-20 714h87l8 -435q1 -41 -1 -85t-5 -84h3q14 39 33.5 89.5t39.5 94.5l189 420h89l15 -418q1 -31 1.5 -65t0.5 -65t-1 -56h2q9 26 19 54.5t21 58t23 59.5l180 432h95l-315 -714h-92l-16 460q-1 33 -1.5 70.5t0.5 68.5h-3q-10 -30 -23 -61t-35 -81l-201 -457h-93z
" />
    <glyph glyph-name="X" unicode="X" horiz-adv-x="506" 
d="M-50 0l280 378l-117 336h91l87 -273l202 273h98l-260 -340l124 -374h-94l-92 309l-221 -309h-98z" />
    <glyph glyph-name="Y" unicode="Y" horiz-adv-x="488" 
d="M142 0l58 268l-105 446h89l75 -358l223 358h101l-296 -449l-55 -265h-90z" />
    <glyph glyph-name="Z" unicode="Z" horiz-adv-x="505" 
d="M-11 0l14 70l424 564h-295l17 80h404l-14 -71l-424 -563h315l-17 -80h-424z" />
    <glyph glyph-name="bracketleft" unicode="[" horiz-adv-x="278" 
d="M-11 -158l186 872h186l-16 -72h-104l-154 -728h104l-16 -72h-186z" />
    <glyph glyph-name="backslash" unicode="\" horiz-adv-x="343" 
d="M203 0l-93 714h79l94 -714h-80z" />
    <glyph glyph-name="bracketright" unicode="]" horiz-adv-x="278" 
d="M-70 -158l16 72h104l153 728h-104l16 72h186l-186 -872h-185z" />
    <glyph glyph-name="asciicircum" unicode="^" horiz-adv-x="541" 
d="M37 267l213 452h49l210 -452h-76l-161 359l-158 -359h-77z" />
    <glyph glyph-name="underscore" unicode="_" horiz-adv-x="375" 
d="M-89 -158l15 68h377l-15 -68h-377z" />
    <glyph glyph-name="grave" unicode="`" horiz-adv-x="271" 
d="M249 606q-17 19 -37.5 46t-38 55t-27.5 49v10h94q7 -24 17 -50t22 -50.5t25 -47.5l-1 -12h-54z" />
    <glyph glyph-name="a" unicode="a" horiz-adv-x="541" 
d="M183 -10q-40 0 -70.5 20.5t-48 60.5t-17.5 99q0 60 12 115.5t34.5 103t53.5 83t70 55t83 19.5q34 0 58.5 -13t41.5 -34t27 -46h5l31 83h67l-114 -536h-70l13 99h-3q-22 -29 -48.5 -54t-57.5 -40t-67 -15zM214 63q34 0 67.5 27t61 73t41.5 103q8 30 10.5 55.5t2.5 44.5
q0 47 -23.5 76.5t-64.5 29.5q-29 0 -55 -16t-47.5 -45t-37 -67.5t-24 -83t-8.5 -91.5q0 -53 20 -79.5t57 -26.5z" />
    <glyph glyph-name="b" unicode="b" horiz-adv-x="551" 
d="M258 -10q-34 0 -59.5 13t-42.5 34t-27 45h-5l-32 -82h-66l161 760h88l-38 -180q-7 -34 -15 -66.5t-14 -54t-8 -23.5h4q23 30 48 54.5t54.5 39.5t64.5 15q41 0 72 -20t48.5 -60t17.5 -99q0 -58 -11 -113.5t-32.5 -103t-52 -83.5t-69.5 -56t-86 -20zM250 63q30 0 56 17
t47 46.5t35.5 68.5t22.5 82.5t8 88.5q0 53 -19.5 79.5t-58.5 26.5q-21 0 -43 -11.5t-42.5 -32t-38.5 -48.5t-31.5 -62t-21 -71.5t-7.5 -77.5q0 -47 23 -76.5t70 -29.5z" />
    <glyph glyph-name="c" unicode="c" horiz-adv-x="432" 
d="M234 -10q-55 0 -97.5 22t-66 65.5t-23.5 109.5q0 58 12 111t35 98t56 79t75 52.5t92 18.5q35 0 68 -7t60 -19l-25 -73q-20 9 -45.5 17t-56.5 8q-32 0 -60 -14.5t-50.5 -41t-38 -62t-24 -77.5t-8.5 -88q0 -40 13 -68t37 -43t58 -15t64 10t59 23v-74q-27 -14 -60.5 -23
t-73.5 -9z" />
    <glyph glyph-name="d" unicode="d" horiz-adv-x="551" 
d="M183 -10q-40 0 -70.5 20t-48 60t-17.5 100q0 59 11.5 114t33 102.5t52.5 83t70.5 55.5t85.5 20q34 0 58.5 -13t41.5 -33.5t27 -45.5h4q3 23 6 44t7 42.5t9 45.5l38 175h86l-161 -760h-71l11 99h-4q-22 -30 -48 -55t-55.5 -39.5t-65.5 -14.5zM215 63q21 0 43 11.5t42.5 32
t38 48.5t31 62t21 71.5t7.5 77.5q0 47 -21.5 76.5t-70.5 29.5q-30 0 -55.5 -17t-46.5 -46.5t-36 -68.5t-23 -82.5t-8 -88.5q0 -53 20 -79.5t58 -26.5z" />
    <glyph glyph-name="e" unicode="e" horiz-adv-x="478" 
d="M231 -10q-58 0 -99.5 24.5t-63 69t-21.5 105.5q0 64 18 127t52 115t82 83.5t109 31.5q73 0 109.5 -32.5t36.5 -90.5q0 -53 -31 -96.5t-97 -69t-171 -25.5h-17q-1 -10 -1.5 -20t-0.5 -19q0 -61 27.5 -95.5t84.5 -34.5q36 0 68.5 11t71.5 30l-1 -75q-37 -17 -72 -28
t-84 -11zM159 303q57 0 104.5 10.5t76 35.5t28.5 66q0 25 -16 41.5t-50 16.5q-30 0 -59.5 -20t-53.5 -58t-38 -92h8z" />
    <glyph glyph-name="f" unicode="f" horiz-adv-x="306" 
d="M-46 -240q-19 0 -34.5 3t-27.5 7l1 74q13 -4 25.5 -7.5t27.5 -3.5q34 0 53 29.5t31 84.5l110 522h-88l8 37l94 33l11 48q12 51 28 85.5t37 55t48.5 29t62.5 8.5q25 0 50 -5.5t41 -13.5l-24 -67q-13 5 -28.5 9.5t-34.5 4.5q-36 0 -57.5 -22t-35.5 -84l-11 -51h109l-14 -67
h-109l-112 -532q-11 -55 -31 -95t-51.5 -61t-78.5 -21z" />
    <glyph glyph-name="g" unicode="g" horiz-adv-x="551" 
d="M175 -240q-47 0 -86.5 9.5t-67.5 24.5l1 81q17 -10 42 -20t53 -16t55 -6q59 0 97 30t53 100l8 38q4 15 8 33t9 35.5t8 29.5h-4q-21 -29 -46.5 -54t-55 -40t-65.5 -15q-40 0 -71 20.5t-48.5 60.5t-17.5 99q0 58 11.5 113t33 103t52.5 84t70.5 56t85.5 20q35 0 60 -13
t42 -34t27 -46h3l32 83h67l-122 -567q-16 -75 -47.5 -121t-78.5 -67t-108 -21zM216 63q21 0 43 11.5t42 32.5t37.5 49.5t31 62.5t21 71.5t7.5 75.5q0 47 -21 76.5t-69 29.5q-30 0 -56.5 -17t-47.5 -46.5t-36 -68.5t-23 -82.5t-8 -88.5q0 -53 20.5 -79.5t58.5 -26.5z" />
    <glyph glyph-name="h" unicode="h" horiz-adv-x="551" 
d="M26 0l161 760h88l-42 -197q-3 -15 -7 -31t-8.5 -32l-9 -32t-8.5 -32h5q19 25 43.5 50t56 42t71.5 17t68 -15t43.5 -45t15.5 -75q0 -20 -3 -40.5t-8 -43.5l-69 -326h-88l70 336q5 23 7.5 39t2.5 28q0 32 -15.5 50.5t-49.5 18.5q-32 0 -69 -23.5t-68.5 -76.5t-50.5 -141
l-48 -231h-88z" />
    <glyph glyph-name="i" unicode="i" horiz-adv-x="249" 
d="M26 0l114 536h88l-114 -536h-88zM210 625q-20 0 -33.5 12t-13.5 34q0 18 7 32.5t20.5 23.5t31.5 9q23 0 34.5 -12t11.5 -32q0 -31 -17.5 -49t-40.5 -18z" />
    <glyph glyph-name="j" unicode="j" horiz-adv-x="248" 
d="M-62 -240q-18 0 -33.5 3t-26.5 7l1 74q11 -4 25 -7.5t30 -3.5q19 0 34 11t26.5 32.5t17.5 54.5l128 605h87l-130 -613q-10 -50 -29 -86.5t-50.5 -56.5t-79.5 -20zM210 625q-20 0 -33 12.5t-13 34.5q0 17 7 31.5t20 23.5t32 9q23 0 33.5 -12t10.5 -33q0 -31 -17.5 -48.5
t-39.5 -17.5z" />
    <glyph glyph-name="k" unicode="k" horiz-adv-x="475" 
d="M25 0l161 760h88l-64 -302q-17 -80 -29 -123.5t-17 -57.5h2l242 259h103l-222 -230l133 -306h-97l-103 251l-68 -57l-40 -194h-89z" />
    <glyph glyph-name="l" unicode="l" horiz-adv-x="248" 
d="M25 0l162 760h88l-162 -760h-88z" />
    <glyph glyph-name="m" unicode="m" horiz-adv-x="833" 
d="M26 0l114 536h71l-11 -99h5q18 25 41.5 50t54 42t68.5 17q53 0 81 -31.5t33 -87.5h4q20 30 46 57t58.5 44.5t71.5 17.5q59 0 90.5 -33.5t31.5 -96.5q0 -24 -3 -45.5t-8 -44.5l-69 -326h-88l71 336q5 23 7 39.5t2 31.5q0 29 -15 47t-47 18q-23 0 -48.5 -13.5t-49.5 -41.5
t-44 -71.5t-33 -103.5l-51 -242h-87l70 336q5 23 7 39t2 28q0 33 -14 51t-46 18q-23 0 -48.5 -13t-50 -41.5t-45.5 -74.5t-35 -112l-48 -231h-88z" />
    <glyph glyph-name="n" unicode="n" horiz-adv-x="552" 
d="M22 0l115 539h77l-12 -99h2q19 25 43 50t55.5 42t72.5 17t70.5 -16t45 -46t15.5 -73q0 -23 -4 -47t-8 -42l-70 -325h-93l71 337q5 23 7.5 38.5t2.5 29.5q0 32 -15 48t-47 16t-68.5 -23.5t-67.5 -75.5t-49 -140l-50 -230h-93z" />
    <glyph glyph-name="o" unicode="o" horiz-adv-x="536" 
d="M235 -8q-87 0 -137.5 54.5t-50.5 148.5q0 49 10.5 99t31.5 94.5t52.5 79.5t73 55t92.5 20q59 0 101 -25t64.5 -70.5t22.5 -108.5q0 -49 -10.5 -98.5t-31.5 -94t-52 -79.5t-72.5 -55t-93.5 -20zM242 65q27 0 51.5 12.5t45 36t35.5 58t23.5 79t8.5 97.5q0 29 -10 57
t-31.5 46.5t-58.5 18.5q-31 0 -57.5 -14.5t-47.5 -40t-35.5 -60.5t-22 -76t-7.5 -86q0 -61 27.5 -94.5t78.5 -33.5z" />
    <glyph glyph-name="p" unicode="p" horiz-adv-x="551" 
d="M-24 -240l164 776h72l-13 -100h4q23 30 48.5 54.5t56 39.5t65.5 15q40 0 70.5 -20t48 -60t17.5 -100q0 -59 -11.5 -114t-32.5 -102.5t-52 -83t-70 -55.5t-85 -20q-34 0 -59 13t-41.5 34t-27.5 45h-5q-1 -16 -5.5 -44.5t-8.5 -46.5l-48 -231h-87zM251 63q30 0 56 17
t46.5 46.5t35 68.5t22.5 82.5t8 88.5q0 53 -19.5 79.5t-58.5 26.5q-21 0 -43 -11.5t-42.5 -32t-38.5 -48.5t-31.5 -62t-21 -71.5t-7.5 -77.5q0 -47 23 -76.5t71 -29.5z" />
    <glyph glyph-name="q" unicode="q" horiz-adv-x="551" 
d="M326 -12q3 13 8 32.5t11 41t10 37.5h-4q-22 -29 -47 -54t-54.5 -40t-65.5 -15q-40 0 -71 20t-48.5 60.5t-17.5 99.5q0 58 11.5 113t33 103t52.5 84t70.5 56t86.5 20q34 0 58.5 -13t41 -34t26.5 -46h5l32 83h66l-165 -776h-87zM215 63q22 0 43.5 11.5t42 32.5t38 49.5
t30.5 62t20.5 71t7.5 76.5q0 44 -21.5 75t-68.5 31q-30 0 -56 -17t-47 -46.5t-36 -68.5t-23 -82.5t-8 -88.5q0 -53 20 -79.5t58 -26.5z" />
    <glyph glyph-name="r" unicode="r" horiz-adv-x="379" 
d="M26 0l114 536h71l-11 -99h5q20 28 42.5 52.5t50 40.5t63.5 16q14 0 28 -1.5t26 -5.5l-19 -79q-13 3 -24.5 4.5t-24.5 1.5q-35 0 -64.5 -19.5t-52.5 -51.5t-39 -71t-25 -79l-52 -245h-88z" />
    <glyph glyph-name="s" unicode="s" horiz-adv-x="413" 
d="M148 -10q-46 0 -81 9.5t-62 24.5l1 81q25 -16 62.5 -29.5t77.5 -13.5q37 0 62 10.5t38 30t13 44.5q0 19 -7.5 33.5t-25.5 29t-51 33.5q-35 22 -59 43.5t-36 47.5t-12 60q1 46 22.5 80t61.5 53t93 19q46 0 85.5 -11.5t68.5 -25.5l-28 -70q-25 12 -55.5 22.5t-71.5 10.5
q-40 0 -64 -20.5t-24 -53.5q0 -17 7 -30.5t25 -28t50 -34.5t57.5 -40t40 -46t13.5 -64q0 -54 -25 -91t-70 -55.5t-106 -18.5z" />
    <glyph glyph-name="t" unicode="t" horiz-adv-x="321" 
d="M177 -10q-52 0 -87 26t-35 91q1 15 3 33.5t6 37.5l61 291h-78l8 40l87 38l60 111h53l-27 -122h128l-14 -67h-128l-62 -292q-3 -13 -5.5 -29.5t-2.5 -30.5q-1 -23 10.5 -39t38.5 -16q17 0 33 3.5t35 9.5l-1 -67q-12 -6 -36.5 -12t-46.5 -6z" />
    <glyph glyph-name="u" unicode="u" horiz-adv-x="551" 
d="M179 -10q-38 0 -66.5 15t-44 44t-15.5 72q0 23 3.5 44t7.5 44l70 327h89l-71 -337q-5 -22 -7.5 -38.5t-2.5 -29.5q0 -31 15 -49.5t49 -18.5q33 0 69.5 24t68.5 77t51 141l49 231h86l-114 -536h-71l11 99h-4q-18 -24 -43 -49.5t-57 -42.5t-73 -17z" />
    <glyph glyph-name="v" unicode="v" horiz-adv-x="446" 
d="M105 0l-54 536h88l25 -298q2 -26 4 -61t3 -65.5t0 -44.5h3q11 25 25 57t28.5 64t24.5 53l153 295h93l-281 -536h-112z" />
    <glyph glyph-name="w" unicode="w" horiz-adv-x="691" 
d="M75 0l-15 536h86l4 -286q1 -55 -1.5 -99.5t-4.5 -73.5h4q7 21 18 49.5t23 57t21 49.5l135 303h96l11 -287q2 -37 1.5 -85.5t-2.5 -86.5h4q8 26 19.5 57.5t25.5 67t29 71.5l112 263h93l-242 -536h-105l-10 290q-1 27 -1 51.5t1 51.5t1 58h-4q-8 -24 -17 -46t-19.5 -46.5
t-25.5 -58.5l-134 -300h-103z" />
    <glyph glyph-name="x" unicode="x" horiz-adv-x="462" 
d="M-36 0l223 276l-107 260h90l75 -198l148 198h102l-215 -264l114 -272h-90l-82 208l-156 -208h-102z" />
    <glyph glyph-name="y" unicode="y" horiz-adv-x="447" 
d="M-24 -240q-23 0 -37.5 3t-28.5 7l1 71q13 -4 28 -6.5t32 -2.5q39 0 66.5 25t52.5 73l33 62l-72 544h88l30 -265q4 -32 6 -70.5t3 -73t1 -55.5h3q6 16 19 48t28 66t26 56l150 294h94l-329 -626q-26 -50 -54 -83.5t-61.5 -50t-78.5 -16.5z" />
    <glyph glyph-name="z" unicode="z" horiz-adv-x="423" 
d="M-15 0l12 60l317 410h-216l15 66h312l-15 -71l-311 -399h239l-13 -66h-340z" />
    <glyph glyph-name="braceleft" unicode="{" horiz-adv-x="333" 
d="M205 -158q-67 0 -102.5 26.5t-35.5 81.5q0 17 3 34t8 36l23 105q4 16 5.5 29.5t1.5 25.5q0 35 -24.5 52t-71.5 17l17 73q56 0 89 21t44 72l32 157q11 53 32 84t56.5 44.5t88.5 13.5h18l-15 -73q-42 0 -65.5 -15t-34.5 -62l-35 -156q-11 -51 -38.5 -84t-83.5 -43v-2
q37 -10 53.5 -37t16.5 -65q0 -14 -2.5 -31t-6.5 -34l-21 -102q-3 -13 -5 -25t-2 -22q0 -28 19 -38t51 -10l-1 -73h-14z" />
    <glyph glyph-name="bar" unicode="|" horiz-adv-x="524" 
d="M242 -241v1001h71v-1001h-71z" />
    <glyph glyph-name="braceright" unicode="}" horiz-adv-x="333" 
d="M-37 -85q30 0 51.5 6t35.5 23t21 48l35 156q11 51 39 83.5t83 42.5v3q-37 11 -53.5 37t-16.5 64q0 14 2.5 31.5t6.5 33.5l23 103q3 12 5 24.5t2 22.5q0 29 -21.5 38.5t-59.5 9.5l15 73h6q47 0 78 -11.5t46.5 -35.5t15.5 -61q0 -16 -2.5 -33t-7.5 -37l-23 -106
q-4 -16 -6 -29t-2 -25q0 -34 24.5 -51.5t71.5 -17.5l-17 -73q-55 0 -88 -21t-44 -72l-32 -157q-11 -56 -33.5 -87t-58.5 -43t-89 -12h-8z" />
    <glyph glyph-name="asciitilde" unicode="~" horiz-adv-x="537" 
d="M273 319q-34 16 -57 21.5t-43 5.5q-26 0 -55 -17t-52 -42v78q23 26 51 39.5t62 13.5q27 0 54.5 -6t70.5 -26q35 -16 56.5 -21.5t41.5 -5.5q27 0 56.5 17t51.5 42v-77q-22 -26 -50.5 -40t-62.5 -14q-27 0 -54.5 6.5t-69.5 25.5z" />
    <glyph glyph-name="uni00A0" unicode="&#xa0;" horiz-adv-x="247" 
 />
    <glyph glyph-name="exclamdown" unicode="&#xa1;" horiz-adv-x="250" 
d="M-13 -182l127 513h71l-92 -513h-106zM168 411q-24 0 -37.5 13t-13.5 38q0 33 19 58.5t56 25.5q23 0 35.5 -13.5t12.5 -39.5q0 -19 -8 -38t-23.5 -31.5t-40.5 -12.5z" />
    <glyph glyph-name="cent" unicode="&#xa2;" horiz-adv-x="523" 
d="M228 95q-56 16 -90.5 63.5t-34.5 126.5q0 54 10.5 104t31 93t49.5 76.5t66 55t81 28.5l16 82h62l-18 -82q28 -2 53.5 -8t47.5 -16l-26 -73q-19 9 -44.5 17t-56.5 8q-32 0 -60 -14.5t-50.5 -41t-38.5 -62t-24.5 -77.5t-8.5 -88q0 -60 29 -93.5t80 -33.5q34 0 64 10t58 24
v-75q-26 -13 -59 -22t-75 -10l-20 -97h-63z" />
    <glyph glyph-name="sterling" unicode="&#xa3;" horiz-adv-x="523" 
d="M5 74q28 7 51.5 23t41.5 44.5t27 72.5l21 102h-92l14 66h93l35 167q14 64 43 102t70.5 55t90.5 17q50 0 90 -12.5t68 -29.5l-34 -69q-23 13 -55 25.5t-71 12.5q-38 0 -70.5 -22.5t-46.5 -90.5l-32 -155h166l-14 -66h-167l-21 -101q-13 -61 -38 -90t-54 -45h332l-18 -80
h-445z" />
    <glyph glyph-name="currency" unicode="&#xa4;" horiz-adv-x="523" 
d="M379 201q-21 -15 -46 -23.5t-53 -8.5t-53 9t-46 24l-59 -62l-45 47l60 62q-15 22 -23 48t-7 56q0 29 8.5 55.5t23.5 48.5l-59 63l47 48l58 -63q21 15 46.5 24t52.5 9q28 0 52.5 -9t45.5 -24l61 63l46 -47l-60 -63q13 -22 21.5 -49t8.5 -56q-1 -30 -9.5 -56.5t-22.5 -48.5
l58 -62l-47 -47zM281 236q32 0 57.5 15.5t40.5 42t15 59.5q1 34 -14 60.5t-40 42.5t-56 16q-30 0 -55.5 -16t-40 -42.5t-15.5 -60.5q0 -33 14 -59.5t39 -42t55 -15.5z" />
    <glyph glyph-name="yen" unicode="&#xa5;" horiz-adv-x="524" 
d="M163 0l27 128h-133l15 67h132l16 77h-133l15 67h103l-90 375h86l74 -358l223 358h96l-249 -375h105l-14 -67h-135l-16 -77h135l-15 -67h-133l-28 -128h-81z" />
    <glyph glyph-name="brokenbar" unicode="&#xa6;" horiz-adv-x="524" 
d="M242 379v381h71v-381h-71zM242 -241v381h71v-381h-71z" />
    <glyph glyph-name="section" unicode="&#xa7;" horiz-adv-x="462" 
d="M165 -5q-48 0 -83 9.5t-57 21.5l1 75q25 -14 62.5 -26.5t77.5 -12.5q59 0 90 21.5t31 61.5q0 15 -8.5 28.5t-28 27t-53.5 29.5q-35 17 -60.5 36t-39.5 45t-14 63q0 39 15 67.5t40 49t54 34.5q-22 16 -37 39.5t-15 58.5q0 39 21.5 71.5t62 51.5t98.5 19q45 0 83 -9t68 -25
l-28 -63q-31 14 -61.5 22t-62.5 8q-24 0 -46.5 -7t-37 -23t-14.5 -42q0 -17 9 -30t28.5 -25t51.5 -28q34 -16 59.5 -35t40 -44t14.5 -61q0 -34 -14 -63.5t-38 -52.5t-55 -40q21 -15 36 -37t15 -55q0 -46 -23.5 -82.5t-69 -57t-112.5 -20.5zM270 277q30 17 53.5 46.5
t23.5 67.5q0 20 -10.5 36.5t-33 31.5t-59.5 32q-20 -6 -39.5 -21t-32 -36t-12.5 -49q0 -22 10 -39t34.5 -33t65.5 -36z" />
    <glyph glyph-name="dieresis" unicode="&#xa8;" horiz-adv-x="526" 
d="M427 631q-17 0 -29 11t-11 31q0 23 13.5 40t38.5 17q20 0 29.5 -11t9.5 -29q0 -28 -15.5 -43.5t-35.5 -15.5zM257 631q-19 0 -30.5 11t-11.5 31q0 23 13.5 40t38.5 17q14 0 22.5 -5t13 -14t4.5 -21q-1 -28 -16 -43.5t-34 -15.5z" />
    <glyph glyph-name="copyright" unicode="&#xa9;" horiz-adv-x="790" 
d="M412 -10q-72 0 -134.5 28t-110 78t-74 116t-26.5 142q0 77 27.5 144t76 117.5t112.5 79.5t137 29q72 0 134.5 -28t109.5 -78t73.5 -116t26.5 -142t-27.5 -143.5t-76 -118t-112 -79.5t-136.5 -29zM428 133q-92 0 -138.5 60t-46.5 160q0 67 22.5 118t65.5 80t106 29
q29 0 59.5 -8t57.5 -22l-30 -61q-24 13 -46 19.5t-43 6.5q-57 0 -88 -42.5t-31 -119.5q0 -75 28 -115t88 -40q21 0 49 6.5t50 15.5l-1 -63q-21 -10 -45 -17t-57 -7zM412 43q63 0 117.5 24.5t96.5 68t65.5 101t23.5 123.5q0 64 -23 120.5t-63.5 99t-94 67t-115.5 24.5
t-116.5 -24.5t-96.5 -68t-65.5 -101t-23.5 -123.5q0 -64 23 -120.5t63.5 -99t94 -67t114.5 -24.5z" />
    <glyph glyph-name="ordfeminine" unicode="&#xaa;" horiz-adv-x="325" 
d="M167 383q-23 0 -42.5 12.5t-30.5 37t-11 60.5q0 42 10 83t29.5 74t49 52.5t67.5 19.5q30 0 47 -15t25 -35h3l18 44h45l-70 -327h-46l7 56h-3q-19 -26 -41.5 -44t-56.5 -18zM187 436q21 0 37.5 11.5t29 30.5t21 42t13 46t4.5 42q0 29 -12.5 45.5t-38.5 16.5
q-22 0 -40.5 -15t-31.5 -39.5t-20 -55t-7 -60.5q0 -33 12 -48.5t33 -15.5z" />
    <glyph glyph-name="guillemotleft" unicode="&#xab;" horiz-adv-x="459" 
d="M145 54l-103 217v13l185 187l44 -43l-138 -160l75 -188zM329 54l-97 197v14l175 201l48 -38l-133 -177l70 -171z" />
    <glyph glyph-name="logicalnot" unicode="&#xac;" horiz-adv-x="537" 
d="M509 388v-260h-69v189h-374v71h443z" />
    <glyph glyph-name="uni00AD" unicode="&#xad;" horiz-adv-x="313" 
d="M27 227l19 81h225l-18 -81h-226z" />
    <glyph glyph-name="registered" unicode="&#xae;" horiz-adv-x="790" 
d="M412 -10q-72 0 -134.5 28t-110 78t-74 116t-26.5 142q0 77 27.5 144t76 117.5t112.5 79.5t137 29q72 0 134.5 -28t109.5 -78t73.5 -116t26.5 -142t-27.5 -143.5t-76 -118t-112 -79.5t-136.5 -29zM412 43q63 0 117.5 24.5t96.5 68t65.5 101t23.5 123.5q0 64 -23 120.5
t-63.5 99t-94 67t-115.5 24.5t-116.5 -24.5t-96.5 -68t-65.5 -101t-23.5 -123.5q0 -64 23 -120.5t63.5 -99t94 -67t114.5 -24.5zM300 142v430h111q75 0 112 -31t37 -93q0 -33 -13.5 -56.5t-33 -39t-38.5 -23.5l103 -187h-74l-92 170h-50v-170h-62zM403 372q47 0 69 19t22 54
t-22.5 50t-66.5 15h-43v-138h41z" />
    <glyph glyph-name="overscore" unicode="&#xaf;" horiz-adv-x="381" 
d="M103 760l16 67h384l-18 -67h-382z" />
    <glyph glyph-name="degree" unicode="&#xb0;" horiz-adv-x="406" 
d="M250 417q-40 0 -73.5 20t-53 55t-19.5 78q0 44 19.5 78.5t53 55t73.5 20.5t73 -20.5t53 -55t20 -78.5q0 -43 -20 -78t-53 -55t-73 -20zM251 476q24 0 43.5 12.5t31 34t11.5 47.5q0 40 -25 67t-61 27t-62 -27t-26 -67q0 -39 26 -66.5t62 -27.5z" />
    <glyph glyph-name="plusminus" unicode="&#xb1;" horiz-adv-x="537" 
d="M86 0v71h444v-71h-444zM343 391h186v-71h-186v-206h-71v206h-186v71h186v207h71v-207z" />
    <glyph glyph-name="uni00B2" unicode="&#xb2;" horiz-adv-x="338" 
d="M71 416l12 55l124 110q39 35 63.5 61t36 49.5t11.5 49.5q0 24 -13.5 39t-39.5 15q-23 0 -45 -9.5t-45 -29.5l-30 47q30 25 62.5 37.5t71.5 12.5t63 -15t35 -38t11 -48q0 -33 -12 -61t-38 -58t-70 -69l-97 -87h180l-13 -61h-267z" />
    <glyph glyph-name="uni00B3" unicode="&#xb3;" horiz-adv-x="338" 
d="M191 409q-31 0 -59.5 7.5t-50.5 19.5l1 65q25 -15 54 -25t57 -10q47 0 70.5 22t23.5 60q0 31 -19.5 47t-57.5 16h-45l12 55h44q29 0 50.5 8.5t33.5 25.5t12 40q0 28 -15 42.5t-44 13.5q-24 -1 -45.5 -9.5t-41.5 -23.5l-27 48q23 18 55.5 30.5t72.5 12.5q39 0 64 -13
t37.5 -35.5t12.5 -51.5q0 -46 -26 -73.5t-72 -40.5v-4q33 -8 50.5 -32t17.5 -58q0 -38 -18.5 -69.5t-55 -49.5t-91.5 -18z" />
    <glyph glyph-name="acute" unicode="&#xb4;" horiz-adv-x="258" 
d="M115 619q17 19 37 45t38.5 53t32.5 49h99v-10q-10 -13 -28 -33t-39.5 -42t-43.5 -41.5t-40 -33.5h-56v13z" />
    <glyph glyph-name="uni00B5" unicode="&#xb5;" horiz-adv-x="558" 
d="M-24 -240l164 776h88l-71 -337q-4 -22 -6.5 -38.5t-2.5 -27.5q0 -33 15.5 -51.5t49.5 -18.5q32 0 68 23.5t68 76.5t51 140l51 233h86l-114 -536h-71l11 99h-5q-18 -25 -42 -50.5t-54.5 -42t-69.5 -16.5q-25 0 -43.5 11t-30.5 35h-4q-2 -14 -5.5 -38t-7.5 -47t-7 -37
l-32 -154h-86z" />
    <glyph glyph-name="paragraph" unicode="&#xb6;" horiz-adv-x="622" 
d="M354 273q-14 -4 -31 -6.5t-37 -2.5q-44 0 -79.5 12.5t-60.5 41t-38.5 75.5t-13.5 116q0 72 15.5 120t43.5 77t67 41.5t86 12.5h257v-887h-57v809h-95v-809h-57v400z" />
    <glyph glyph-name="periodcentered" unicode="&#xb7;" horiz-adv-x="256" 
d="M131 285q-25 0 -38 13.5t-13 38.5q0 22 8 41t25 30.5t43 11.5q21 0 34.5 -13.5t12.5 -39.5q0 -20 -8 -39t-24 -31t-40 -12z" />
    <glyph glyph-name="cedilla" unicode="&#xb8;" horiz-adv-x="195" 
d="M-39 -240q-13 0 -25 1.5t-20 3.5v52q10 -2 20 -3t17 -1q26 0 42.5 6t25 18t8.5 29q0 22 -17.5 32t-46.5 14l47 88h55l-27 -57q23 -7 42 -23.5t19 -53.5q0 -30 -16 -54t-47.5 -38t-76.5 -14z" />
    <glyph glyph-name="uni00B9" unicode="&#xb9;" horiz-adv-x="338" 
d="M231 666q5 25 13 56.5t14 52.5q-7 -7 -18.5 -18t-22.5 -19l-50 -34l-28 47l140 92h61l-91 -428h-70z" />
    <glyph glyph-name="ordmasculine" unicode="&#xba;" horiz-adv-x="324" 
d="M202 383q-49 0 -82 32t-33 97q0 39 10 76.5t30 67.5t50 48t70 18q60 0 87 -35.5t27 -90.5q0 -39 -9 -76.5t-28 -68.5t-49.5 -49.5t-72.5 -18.5zM208 435q24 0 41.5 13.5t29 36t17.5 50.5t6 58q0 40 -15.5 58t-42.5 18q-24 0 -42.5 -13t-31 -34.5t-18.5 -49.5t-6 -58
q0 -40 16.5 -59.5t45.5 -19.5z" />
    <glyph glyph-name="guillemotright" unicode="&#xbb;" horiz-adv-x="460" 
d="M238 54l-44 43l138 159l-75 189l63 26l103 -218v-14zM58 60l-48 37l133 175l-70 173l63 26l97 -198v-15z" />
    <glyph glyph-name="onequarter" unicode="&#xbc;" horiz-adv-x="726" 
d="M101 0l511 714h78l-511 -714h-78zM204 537q5 25 13 56.5t14 52.5q-7 -7 -18.5 -18t-22.5 -19l-50 -34l-28 47l140 92h61l-91 -428h-70zM532 1l19 97h-169l11 52l226 282h72l-59 -275h58l-12 -59h-59l-20 -97h-67zM463 157h102l20 92q6 26 10.5 49.5t11.5 47.5
q-6 -11 -22.5 -34t-27.5 -37z" />
    <glyph glyph-name="onehalf" unicode="&#xbd;" horiz-adv-x="794" 
d="M103 0l511 714h78l-511 -714h-78zM204 537q5 25 13 56.5t14 52.5q-7 -7 -18.5 -18t-22.5 -19l-50 -34l-28 47l140 92h61l-91 -428h-70zM439 1l12 55l124 110q39 35 63.5 61t36 49.5t11.5 49.5q0 24 -13.5 39t-39.5 15q-23 0 -45 -9.5t-45 -29.5l-30 47q30 25 62.5 37.5
t71.5 12.5t63 -15t35 -38t11 -48q0 -33 -12 -61t-38 -58t-70 -69l-97 -87h180l-13 -61h-267z" />
    <glyph glyph-name="threequarters" unicode="&#xbe;" horiz-adv-x="785" 
d="M167 279q-31 0 -59.5 7.5t-50.5 19.5l1 65q25 -15 54 -25t57 -10q47 0 70.5 22t23.5 60q0 31 -19.5 47t-57.5 16h-45l12 55h44q29 0 50.5 8.5t33.5 25.5t12 40q0 28 -15 42.5t-44 13.5q-24 -1 -45.5 -9.5t-41.5 -23.5l-27 48q23 18 55.5 30.5t72.5 12.5q39 0 64 -13
t37.5 -35.5t12.5 -51.5q0 -46 -26 -73.5t-72 -40.5v-4q33 -8 50.5 -32t17.5 -58q0 -38 -18.5 -69.5t-55 -49.5t-91.5 -18zM163 0l511 714h78l-511 -714h-78zM591 0l19 97h-169l11 52l226 282h72l-59 -275h58l-12 -59h-59l-20 -97h-67zM522 156h102l20 92q6 26 10.5 49.5
t11.5 47.5q-6 -11 -22.5 -34t-27.5 -37z" />
    <glyph glyph-name="questiondown" unicode="&#xbf;" horiz-adv-x="430" 
d="M310 330q-5 -32 -14 -58t-22 -48t-32.5 -42.5t-45.5 -41.5q-31 -25 -57 -48t-42 -51.5t-16 -66.5q0 -44 22 -67.5t65 -23.5q36 0 70.5 12.5t66.5 28.5l31 -67q-39 -22 -86 -36t-93 -14q-75 0 -119.5 38.5t-44.5 116.5q0 45 15.5 82.5t46.5 70.5t76 68q37 28 57.5 48
t31.5 42t19 57h71zM308 545q25 0 38 -13.5t13 -37.5q0 -22 -8 -41t-25 -31t-43 -12q-21 0 -34 13t-13 39q0 31 18 57t54 26z" />
    <glyph glyph-name="Agrave" unicode="&#xc0;" horiz-adv-x="539" 
d="M-54 0l375 714h96l75 -714h-88l-22 222h-228l-111 -222h-97zM197 302h177l-13 150q-3 38 -6 84t-3 81h-3q-16 -38 -35 -81.5t-42 -87.5zM383 784q-17 19 -37.5 46t-38 55t-27.5 49v10h94q7 -24 17 -50t22 -50.5t25 -47.5l-1 -12h-54z" />
    <glyph glyph-name="Aacute" unicode="&#xc1;" horiz-adv-x="539" 
d="M-54 0l375 714h96l75 -714h-88l-22 222h-228l-111 -222h-97zM197 302h177l-13 150q-3 38 -6 84t-3 81h-3q-16 -38 -35 -81.5t-42 -87.5zM329 797q17 19 37 45t38.5 53t32.5 49h99v-10q-10 -13 -28 -33t-39.5 -42t-43.5 -41.5t-40 -33.5h-56v13z" />
    <glyph glyph-name="Acircumflex" unicode="&#xc2;" horiz-adv-x="539" 
d="M-54 0l375 714h96l75 -714h-88l-22 222h-228l-111 -222h-97zM197 302h177l-13 150q-3 38 -6 84t-3 81h-3q-16 -38 -35 -81.5t-42 -87.5zM221 797q17 16 43.5 42t52 54.5t39.5 50.5h87q9 -26 23 -52.5t28.5 -50.5t26.5 -44v-13h-56q-11 11 -23.5 25t-25 31t-25.5 35
q-28 -27 -57 -50.5t-54 -40.5h-59v13z" />
    <glyph glyph-name="Atilde" unicode="&#xc3;" horiz-adv-x="539" 
d="M-54 0l375 714h96l75 -714h-88l-22 222h-228l-111 -222h-97zM197 302h177l-13 150q-3 38 -6 84t-3 81h-3q-16 -38 -35 -81.5t-42 -87.5zM219 784q9 42 24.5 70.5t37.5 43t50 14.5q21 0 39.5 -8.5t34.5 -19t30 -19t27 -8.5q20 0 31.5 13t23.5 43h52q-10 -41 -26.5 -70
t-38 -43.5t-49.5 -14.5q-19 0 -36 8.5t-33 19t-31.5 19t-30.5 8.5q-19 0 -31 -14t-22 -42h-52z" />
    <glyph glyph-name="Adieresis" unicode="&#xc4;" horiz-adv-x="539" 
d="M-54 0l375 714h96l75 -714h-88l-22 222h-228l-111 -222h-97zM197 302h177l-13 150q-3 38 -6 84t-3 81h-3q-16 -38 -35 -81.5t-42 -87.5zM472 809q-17 0 -29 11t-11 31q0 23 13.5 40t38.5 17q20 0 29.5 -11t9.5 -29q0 -28 -15.5 -43.5t-35.5 -15.5zM302 809
q-19 0 -30.5 11t-11.5 31q0 23 13.5 40t38.5 17q14 0 22.5 -5t13 -14t4.5 -21q-1 -28 -16 -43.5t-34 -15.5z" />
    <glyph glyph-name="Aring" unicode="&#xc5;" horiz-adv-x="539" 
d="M-54 0l375 714h96l75 -714h-88l-22 222h-228l-111 -222h-97zM197 302h177l-13 150q-3 38 -6 84t-3 81h-3q-16 -38 -35 -81.5t-42 -87.5zM384 784q-45 0 -73.5 27.5t-28.5 76.5q0 50 31 77.5t74 27.5q45 0 74 -27t29 -75q0 -52 -30.5 -79.5t-75.5 -27.5zM385 834
q23 0 38 15t15 41q0 25 -14.5 39.5t-37.5 14.5q-22 0 -37 -15t-15 -41q0 -25 13 -39.5t38 -14.5z" />
    <glyph glyph-name="AE" unicode="&#xc6;" horiz-adv-x="788" 
d="M-55 0l441 714h447l-16 -79h-259l-47 -223h242l-16 -78h-242l-53 -255h258l-18 -79h-347l46 222h-203l-132 -222h-101zM230 302h168l70 333h-39z" />
    <glyph glyph-name="Ccedilla" unicode="&#xc7;" horiz-adv-x="559" 
d="M309 -10q-75 0 -128.5 32.5t-82 93t-28.5 143.5q0 65 14.5 130.5t44 125.5t74 107t104 74.5t134.5 27.5q50 0 91 -10t77 -30l-37 -74q-25 14 -57 24.5t-75 10.5q-56 0 -100.5 -22t-77.5 -60.5t-55 -88t-32.5 -104t-10.5 -108.5q0 -89 43 -141t119 -52q39 0 76.5 8
t74.5 21l-1 -78q-37 -14 -75.5 -22t-91.5 -8zM235 -240q-13 0 -25 1.5t-20 3.5v52q10 -2 20 -3t17 -1q26 0 42.5 6t25 18t8.5 29q0 22 -17.5 32t-46.5 14l47 88h55l-27 -57q23 -7 42 -23.5t19 -53.5q0 -30 -16 -54t-47.5 -38t-76.5 -14z" />
    <glyph glyph-name="Egrave" unicode="&#xc8;" horiz-adv-x="491" 
d="M38 0l151 714h347l-18 -79h-258l-46 -223h241l-16 -78h-242l-53 -255h258l-17 -79h-347zM394 784q-17 19 -37.5 46t-38 55t-27.5 49v10h94q7 -24 17 -50t22 -50.5t25 -47.5l-1 -12h-54z" />
    <glyph glyph-name="Eacute" unicode="&#xc9;" horiz-adv-x="491" 
d="M38 0l151 714h347l-18 -79h-258l-46 -223h241l-16 -78h-242l-53 -255h258l-17 -79h-347zM340 797q17 19 37 45t38.5 53t32.5 49h99v-10q-10 -13 -28 -33t-39.5 -42t-43.5 -41.5t-40 -33.5h-56v13z" />
    <glyph glyph-name="Ecircumflex" unicode="&#xca;" horiz-adv-x="491" 
d="M38 0l151 714h347l-18 -79h-258l-46 -223h241l-16 -78h-242l-53 -255h258l-17 -79h-347zM215 797q17 16 43.5 42t52 54.5t39.5 50.5h87q9 -26 23 -52.5t28.5 -50.5t26.5 -44v-13h-56q-11 11 -23.5 25t-25 31t-25.5 35q-28 -27 -57 -50.5t-54 -40.5h-59v13z" />
    <glyph glyph-name="Edieresis" unicode="&#xcb;" horiz-adv-x="491" 
d="M38 0l151 714h347l-18 -79h-258l-46 -223h241l-16 -78h-242l-53 -255h258l-17 -79h-347zM466 809q-17 0 -29 11t-11 31q0 23 13.5 40t38.5 17q20 0 29.5 -11t9.5 -29q0 -28 -15.5 -43.5t-35.5 -15.5zM296 809q-19 0 -30.5 11t-11.5 31q0 23 13.5 40t38.5 17q14 0 22.5 -5
t13 -14t4.5 -21q-1 -28 -16 -43.5t-34 -15.5z" />
    <glyph glyph-name="Igrave" unicode="&#xcc;" horiz-adv-x="311" 
d="M-20 0l11 49l81 20l120 576l-72 19l11 50h242l-10 -50l-83 -19l-120 -576l73 -20l-11 -49h-242zM269 784q-17 19 -37.5 46t-38 55t-27.5 49v10h94q7 -24 17 -50t22 -50.5t25 -47.5l-1 -12h-54z" />
    <glyph glyph-name="Iacute" unicode="&#xcd;" horiz-adv-x="311" 
d="M-20 0l11 49l81 20l120 576l-72 19l11 50h242l-10 -50l-83 -19l-120 -576l73 -20l-11 -49h-242zM215 797q17 19 37 45t38.5 53t32.5 49h99v-10q-10 -13 -28 -33t-39.5 -42t-43.5 -41.5t-40 -33.5h-56v13z" />
    <glyph glyph-name="Icircumflex" unicode="&#xce;" horiz-adv-x="311" 
d="M-20 0l11 49l81 20l120 576l-72 19l11 50h242l-10 -50l-83 -19l-120 -576l73 -20l-11 -49h-242zM102 797q17 16 43.5 42t52 54.5t39.5 50.5h87q9 -26 23 -52.5t28.5 -50.5t26.5 -44v-13h-56q-11 11 -23.5 25t-25 31t-25.5 35q-28 -27 -57 -50.5t-54 -40.5h-59v13z" />
    <glyph glyph-name="Idieresis" unicode="&#xcf;" horiz-adv-x="311" 
d="M-20 0l11 49l81 20l120 576l-72 19l11 50h242l-10 -50l-83 -19l-120 -576l73 -20l-11 -49h-242zM353 809q-17 0 -29 11t-11 31q0 23 13.5 40t38.5 17q20 0 29.5 -11t9.5 -29q0 -28 -15.5 -43.5t-35.5 -15.5zM183 809q-19 0 -30.5 11t-11.5 31q0 23 13.5 40t38.5 17
q14 0 22.5 -5t13 -14t4.5 -21q-1 -28 -16 -43.5t-34 -15.5z" />
    <glyph glyph-name="Eth" unicode="&#xd0;" horiz-adv-x="635" 
d="M357 392l-18 -77h-305l18 77h305zM38 0l151 714h162q122 0 190.5 -69t68.5 -211q0 -75 -17 -141t-50 -119.5t-82 -92.5t-112.5 -60t-140.5 -21h-170zM214 77q59 0 106.5 17.5t84 50t61.5 77t37.5 98.5t12.5 114q0 107 -48 155t-128 48h-79l-117 -560h70z" />
    <glyph glyph-name="Ntilde" unicode="&#xd1;" horiz-adv-x="675" 
d="M37 0l151 714h96l198 -590h3q2 18 6 41.5t8.5 50t10 53.5t10.5 52l84 393h83l-151 -714h-95l-200 592h-3q-2 -16 -5.5 -39.5t-8.5 -51t-10.5 -57t-11.5 -56.5l-82 -388h-83zM297 784q9 42 24.5 70.5t37.5 43t50 14.5q21 0 39.5 -8.5t34.5 -19t30 -19t27 -8.5
q20 0 31.5 13t23.5 43h52q-10 -41 -26.5 -70t-38 -43.5t-49.5 -14.5q-19 0 -36 8.5t-33 19t-31.5 19t-30.5 8.5q-19 0 -31 -14t-22 -42h-52z" />
    <glyph glyph-name="Ograve" unicode="&#xd2;" horiz-adv-x="686" 
d="M319 -10q-81 0 -136.5 33t-84 94.5t-28.5 145.5q0 62 10.5 120t31.5 109.5t51 94t68.5 73.5t86 48t101.5 17q115 0 178.5 -74t63.5 -203q0 -62 -10 -119.5t-29 -109t-48 -93.5t-67 -72.5t-85 -47t-103 -16.5zM323 69q38 0 70.5 14t59.5 39.5t48 61t35.5 78t22 90
t7.5 98.5q0 93 -41 144.5t-113 51.5q-38 0 -71 -13.5t-60.5 -38.5t-49 -60t-36.5 -77.5t-23 -90.5t-8 -100q0 -62 19 -106t55 -67.5t85 -23.5zM457 784q-17 19 -37.5 46t-38 55t-27.5 49v10h94q7 -24 17 -50t22 -50.5t25 -47.5l-1 -12h-54z" />
    <glyph glyph-name="Oacute" unicode="&#xd3;" horiz-adv-x="686" 
d="M319 -10q-81 0 -136.5 33t-84 94.5t-28.5 145.5q0 62 10.5 120t31.5 109.5t51 94t68.5 73.5t86 48t101.5 17q115 0 178.5 -74t63.5 -203q0 -62 -10 -119.5t-29 -109t-48 -93.5t-67 -72.5t-85 -47t-103 -16.5zM323 69q38 0 70.5 14t59.5 39.5t48 61t35.5 78t22 90
t7.5 98.5q0 93 -41 144.5t-113 51.5q-38 0 -71 -13.5t-60.5 -38.5t-49 -60t-36.5 -77.5t-23 -90.5t-8 -100q0 -62 19 -106t55 -67.5t85 -23.5zM403 797q17 19 37 45t38.5 53t32.5 49h99v-10q-10 -13 -28 -33t-39.5 -42t-43.5 -41.5t-40 -33.5h-56v13z" />
    <glyph glyph-name="Ocircumflex" unicode="&#xd4;" horiz-adv-x="686" 
d="M319 -10q-81 0 -136.5 33t-84 94.5t-28.5 145.5q0 62 10.5 120t31.5 109.5t51 94t68.5 73.5t86 48t101.5 17q115 0 178.5 -74t63.5 -203q0 -62 -10 -119.5t-29 -109t-48 -93.5t-67 -72.5t-85 -47t-103 -16.5zM323 69q38 0 70.5 14t59.5 39.5t48 61t35.5 78t22 90
t7.5 98.5q0 93 -41 144.5t-113 51.5q-38 0 -71 -13.5t-60.5 -38.5t-49 -60t-36.5 -77.5t-23 -90.5t-8 -100q0 -62 19 -106t55 -67.5t85 -23.5zM301 797q17 16 43.5 42t52 54.5t39.5 50.5h87q9 -26 23 -52.5t28.5 -50.5t26.5 -44v-13h-56q-11 11 -23.5 25t-25 31t-25.5 35
q-28 -27 -57 -50.5t-54 -40.5h-59v13z" />
    <glyph glyph-name="Otilde" unicode="&#xd5;" horiz-adv-x="686" 
d="M319 -10q-81 0 -136.5 33t-84 94.5t-28.5 145.5q0 62 10.5 120t31.5 109.5t51 94t68.5 73.5t86 48t101.5 17q115 0 178.5 -74t63.5 -203q0 -62 -10 -119.5t-29 -109t-48 -93.5t-67 -72.5t-85 -47t-103 -16.5zM323 69q38 0 70.5 14t59.5 39.5t48 61t35.5 78t22 90
t7.5 98.5q0 93 -41 144.5t-113 51.5q-38 0 -71 -13.5t-60.5 -38.5t-49 -60t-36.5 -77.5t-23 -90.5t-8 -100q0 -62 19 -106t55 -67.5t85 -23.5zM299 784q9 42 24.5 70.5t37.5 43t50 14.5q21 0 39.5 -8.5t34.5 -19t30 -19t27 -8.5q20 0 31.5 13t23.5 43h52q-10 -41 -26.5 -70
t-38 -43.5t-49.5 -14.5q-19 0 -36 8.5t-33 19t-31.5 19t-30.5 8.5q-19 0 -31 -14t-22 -42h-52z" />
    <glyph glyph-name="Odieresis" unicode="&#xd6;" horiz-adv-x="686" 
d="M319 -10q-81 0 -136.5 33t-84 94.5t-28.5 145.5q0 62 10.5 120t31.5 109.5t51 94t68.5 73.5t86 48t101.5 17q115 0 178.5 -74t63.5 -203q0 -62 -10 -119.5t-29 -109t-48 -93.5t-67 -72.5t-85 -47t-103 -16.5zM323 69q38 0 70.5 14t59.5 39.5t48 61t35.5 78t22 90
t7.5 98.5q0 93 -41 144.5t-113 51.5q-38 0 -71 -13.5t-60.5 -38.5t-49 -60t-36.5 -77.5t-23 -90.5t-8 -100q0 -62 19 -106t55 -67.5t85 -23.5zM552 809q-17 0 -29 11t-11 31q0 23 13.5 40t38.5 17q20 0 29.5 -11t9.5 -29q0 -28 -15.5 -43.5t-35.5 -15.5zM382 809
q-19 0 -30.5 11t-11.5 31q0 23 13.5 40t38.5 17q14 0 22.5 -5t13 -14t4.5 -21q-1 -28 -16 -43.5t-34 -15.5z" />
    <glyph glyph-name="multiply" unicode="&#xd7;" horiz-adv-x="538" 
d="M447 574l49 -51l-159 -170l158 -170l-49 -51l-159 169l-156 -169l-50 51l157 170l-158 169l50 52l158 -171z" />
    <glyph glyph-name="Oslash" unicode="&#xd8;" horiz-adv-x="686" 
d="M109 -41l-55 46l63 82q-24 35 -35.5 81t-10.5 99q1 62 12 119.5t31.5 108.5t50.5 93t69 73t85.5 47.5t100.5 16.5q45 0 82 -13t68 -39l60 79l56 -46l-68 -88q22 -31 33 -76.5t10 -97.5q0 -62 -10.5 -119.5t-30 -108t-48 -92t-66.5 -71.5t-84.5 -46.5t-101.5 -16.5
q-46 0 -83.5 11.5t-68.5 34.5zM324 69q37 0 69.5 14t59.5 39t48 59.5t36 77t23 90t8 97.5q1 27 -2.5 51t-9.5 43l-335 -437q19 -16 45 -25t58 -9zM515 606q-19 20 -44.5 30.5t-57.5 10.5q-37 0 -70 -13.5t-60.5 -38.5t-49.5 -59t-37 -76.5t-23 -90.5t-9 -100q-1 -30 3.5 -57
t12.5 -48z" />
    <glyph glyph-name="Ugrave" unicode="&#xd9;" horiz-adv-x="644" 
d="M284 -10q-70 0 -116 22.5t-69 66.5t-23 106q0 18 3 43.5t10 54.5l92 431h88l-93 -436q-5 -24 -8 -49.5t-3 -41.5q0 -55 31.5 -86.5t94.5 -31.5q55 0 90.5 20.5t57.5 61t35 99.5l99 464h89l-100 -471q-16 -78 -49.5 -135t-89 -87.5t-139.5 -30.5zM426 784q-17 19 -37.5 46
t-38 55t-27.5 49v10h94q7 -24 17 -50t22 -50.5t25 -47.5l-1 -12h-54z" />
    <glyph glyph-name="Uacute" unicode="&#xda;" horiz-adv-x="644" 
d="M284 -10q-70 0 -116 22.5t-69 66.5t-23 106q0 18 3 43.5t10 54.5l92 431h88l-93 -436q-5 -24 -8 -49.5t-3 -41.5q0 -55 31.5 -86.5t94.5 -31.5q55 0 90.5 20.5t57.5 61t35 99.5l99 464h89l-100 -471q-16 -78 -49.5 -135t-89 -87.5t-139.5 -30.5zM372 797q17 19 37 45
t38.5 53t32.5 49h99v-10q-10 -13 -28 -33t-39.5 -42t-43.5 -41.5t-40 -33.5h-56v13z" />
    <glyph glyph-name="Ucircumflex" unicode="&#xdb;" horiz-adv-x="644" 
d="M284 -10q-70 0 -116 22.5t-69 66.5t-23 106q0 18 3 43.5t10 54.5l92 431h88l-93 -436q-5 -24 -8 -49.5t-3 -41.5q0 -55 31.5 -86.5t94.5 -31.5q55 0 90.5 20.5t57.5 61t35 99.5l99 464h89l-100 -471q-16 -78 -49.5 -135t-89 -87.5t-139.5 -30.5zM279 797q17 16 43.5 42
t52 54.5t39.5 50.5h87q9 -26 23 -52.5t28.5 -50.5t26.5 -44v-13h-56q-11 11 -23.5 25t-25 31t-25.5 35q-28 -27 -57 -50.5t-54 -40.5h-59v13z" />
    <glyph glyph-name="Udieresis" unicode="&#xdc;" horiz-adv-x="644" 
d="M284 -10q-70 0 -116 22.5t-69 66.5t-23 106q0 18 3 43.5t10 54.5l92 431h88l-93 -436q-5 -24 -8 -49.5t-3 -41.5q0 -55 31.5 -86.5t94.5 -31.5q55 0 90.5 20.5t57.5 61t35 99.5l99 464h89l-100 -471q-16 -78 -49.5 -135t-89 -87.5t-139.5 -30.5zM521 809q-17 0 -29 11
t-11 31q0 23 13.5 40t38.5 17q20 0 29.5 -11t9.5 -29q0 -28 -15.5 -43.5t-35.5 -15.5zM351 809q-19 0 -30.5 11t-11.5 31q0 23 13.5 40t38.5 17q14 0 22.5 -5t13 -14t4.5 -21q-1 -28 -16 -43.5t-34 -15.5z" />
    <glyph glyph-name="Yacute" unicode="&#xdd;" horiz-adv-x="488" 
d="M142 0l58 268l-105 446h89l75 -358l223 358h101l-296 -449l-55 -265h-90zM298 797q17 19 37 45t38.5 53t32.5 49h99v-10q-10 -13 -28 -33t-39.5 -42t-43.5 -41.5t-40 -33.5h-56v13z" />
    <glyph glyph-name="Thorn" unicode="&#xde;" horiz-adv-x="541" 
d="M38 0l151 714h89l-26 -124h66q74 0 119 -23t65.5 -65t19.5 -98q-1 -60 -21 -106.5t-58.5 -78.5t-94.5 -48t-128 -16h-60l-33 -155h-89zM235 231q59 0 102.5 18t68 55.5t25.5 96.5q0 60 -30.5 86t-94.5 26h-72l-58 -282h59z" />
    <glyph glyph-name="germandbls" unicode="&#xdf;" horiz-adv-x="561" 
d="M-62 -240q-17 0 -32.5 3t-26.5 7l1 75q11 -5 23.5 -8t27.5 -3q30 0 49.5 22.5t30.5 75.5l136 638q14 66 43 109t74 64.5t107 21.5q75 0 120.5 -34t45.5 -98q0 -35 -13.5 -62t-35 -48.5t-46.5 -40.5q-31 -23 -54.5 -45t-23.5 -49q0 -15 10.5 -28t24 -24t22.5 -20
q36 -31 57.5 -63t21.5 -78q0 -64 -26.5 -105t-70 -60.5t-95.5 -19.5q-43 0 -74.5 9.5t-51.5 25.5l1 81q20 -16 51 -30t63 -14q57 0 85.5 30t28.5 72q0 22 -6.5 37.5t-20 31t-35.5 33.5q-39 32 -55.5 58.5t-16.5 57.5q0 35 13.5 59.5t34.5 43t44 34.5q21 15 39.5 30.5
t30 34.5t11.5 43q0 32 -24 49t-64 17q-55 0 -85.5 -31t-43.5 -92l-132 -632q-11 -55 -31.5 -95t-52 -61.5t-79.5 -21.5z" />
    <glyph glyph-name="agrave" unicode="&#xe0;" horiz-adv-x="541" 
d="M183 -10q-40 0 -70.5 20.5t-48 60.5t-17.5 99q0 60 12 115.5t34.5 103t53.5 83t70 55t83 19.5q34 0 58.5 -13t41.5 -34t27 -46h5l31 83h67l-114 -536h-70l13 99h-3q-22 -29 -48.5 -54t-57.5 -40t-67 -15zM214 63q34 0 67.5 27t61 73t41.5 103q8 30 10.5 55.5t2.5 44.5
q0 47 -23.5 76.5t-64.5 29.5q-29 0 -55 -16t-47.5 -45t-37 -67.5t-24 -83t-8.5 -91.5q0 -53 20 -79.5t57 -26.5zM337 606q-17 19 -37.5 46t-38 55t-27.5 49v10h94q7 -24 17 -50t22 -50.5t25 -47.5l-1 -12h-54z" />
    <glyph glyph-name="aacute" unicode="&#xe1;" horiz-adv-x="541" 
d="M183 -10q-40 0 -70.5 20.5t-48 60.5t-17.5 99q0 60 12 115.5t34.5 103t53.5 83t70 55t83 19.5q34 0 58.5 -13t41.5 -34t27 -46h5l31 83h67l-114 -536h-70l13 99h-3q-22 -29 -48.5 -54t-57.5 -40t-67 -15zM214 63q34 0 67.5 27t61 73t41.5 103q8 30 10.5 55.5t2.5 44.5
q0 47 -23.5 76.5t-64.5 29.5q-29 0 -55 -16t-47.5 -45t-37 -67.5t-24 -83t-8.5 -91.5q0 -53 20 -79.5t57 -26.5zM283 619q17 19 37 45t38.5 53t32.5 49h99v-10q-10 -13 -28 -33t-39.5 -42t-43.5 -41.5t-40 -33.5h-56v13z" />
    <glyph glyph-name="acircumflex" unicode="&#xe2;" horiz-adv-x="541" 
d="M183 -10q-40 0 -70.5 20.5t-48 60.5t-17.5 99q0 60 12 115.5t34.5 103t53.5 83t70 55t83 19.5q34 0 58.5 -13t41.5 -34t27 -46h5l31 83h67l-114 -536h-70l13 99h-3q-22 -29 -48.5 -54t-57.5 -40t-67 -15zM214 63q34 0 67.5 27t61 73t41.5 103q8 30 10.5 55.5t2.5 44.5
q0 47 -23.5 76.5t-64.5 29.5q-29 0 -55 -16t-47.5 -45t-37 -67.5t-24 -83t-8.5 -91.5q0 -53 20 -79.5t57 -26.5zM186 619q17 16 43.5 42t52 54.5t39.5 50.5h87q9 -26 23 -52.5t28.5 -50.5t26.5 -44v-13h-56q-11 11 -23.5 25t-25 31t-25.5 35q-28 -27 -57 -50.5t-54 -40.5
h-59v13z" />
    <glyph glyph-name="atilde" unicode="&#xe3;" horiz-adv-x="541" 
d="M183 -10q-40 0 -70.5 20.5t-48 60.5t-17.5 99q0 60 12 115.5t34.5 103t53.5 83t70 55t83 19.5q34 0 58.5 -13t41.5 -34t27 -46h5l31 83h67l-114 -536h-70l13 99h-3q-22 -29 -48.5 -54t-57.5 -40t-67 -15zM214 63q34 0 67.5 27t61 73t41.5 103q8 30 10.5 55.5t2.5 44.5
q0 47 -23.5 76.5t-64.5 29.5q-29 0 -55 -16t-47.5 -45t-37 -67.5t-24 -83t-8.5 -91.5q0 -53 20 -79.5t57 -26.5zM174 606q9 42 24.5 70.5t37.5 43t50 14.5q21 0 39.5 -8.5t34.5 -19t30 -19t27 -8.5q20 0 31.5 13t23.5 43h52q-10 -41 -26.5 -70t-38 -43.5t-49.5 -14.5
q-19 0 -36 8.5t-33 19t-31.5 19t-30.5 8.5q-19 0 -31 -14t-22 -42h-52z" />
    <glyph glyph-name="adieresis" unicode="&#xe4;" horiz-adv-x="541" 
d="M183 -10q-40 0 -70.5 20.5t-48 60.5t-17.5 99q0 60 12 115.5t34.5 103t53.5 83t70 55t83 19.5q34 0 58.5 -13t41.5 -34t27 -46h5l31 83h67l-114 -536h-70l13 99h-3q-22 -29 -48.5 -54t-57.5 -40t-67 -15zM214 63q34 0 67.5 27t61 73t41.5 103q8 30 10.5 55.5t2.5 44.5
q0 47 -23.5 76.5t-64.5 29.5q-29 0 -55 -16t-47.5 -45t-37 -67.5t-24 -83t-8.5 -91.5q0 -53 20 -79.5t57 -26.5zM437 631q-17 0 -29 11t-11 31q0 23 13.5 40t38.5 17q20 0 29.5 -11t9.5 -29q0 -28 -15.5 -43.5t-35.5 -15.5zM267 631q-19 0 -30.5 11t-11.5 31q0 23 13.5 40
t38.5 17q14 0 22.5 -5t13 -14t4.5 -21q-1 -28 -16 -43.5t-34 -15.5z" />
    <glyph glyph-name="aring" unicode="&#xe5;" horiz-adv-x="541" 
d="M183 -10q-40 0 -70.5 20.5t-48 60.5t-17.5 99q0 60 12 115.5t34.5 103t53.5 83t70 55t83 19.5q34 0 58.5 -13t41.5 -34t27 -46h5l31 83h67l-114 -536h-70l13 99h-3q-22 -29 -48.5 -54t-57.5 -40t-67 -15zM214 63q34 0 67.5 27t61 73t41.5 103q8 30 10.5 55.5t2.5 44.5
q0 47 -23.5 76.5t-64.5 29.5q-29 0 -55 -16t-47.5 -45t-37 -67.5t-24 -83t-8.5 -91.5q0 -53 20 -79.5t57 -26.5zM349 606q-45 0 -73.5 27.5t-28.5 76.5q0 50 31 77.5t74 27.5q45 0 74 -27t29 -75q0 -52 -30.5 -79.5t-75.5 -27.5zM350 656q23 0 38 15t15 41q0 25 -14.5 39.5
t-37.5 14.5q-22 0 -37 -15t-15 -41q0 -25 13 -39.5t38 -14.5z" />
    <glyph glyph-name="ae" unicode="&#xe6;" horiz-adv-x="783" 
d="M169 -10q-36 0 -63.5 20.5t-43 60t-15.5 97.5q0 61 12 117t34.5 103.5t53 83t67.5 55t79 19.5q31 0 53 -13t37.5 -34t25.5 -46h4l32 83h56l-14 -69q25 35 63.5 57t88.5 22q53 0 90 -30.5t37 -94.5q0 -52 -31 -95t-97 -68.5t-171 -25.5h-19q-1 -9 -1.5 -19t-0.5 -18
q0 -61 27.5 -96.5t86.5 -35.5q35 0 68.5 12t70.5 29l-1 -77q-38 -18 -75.5 -27.5t-78.5 -9.5q-50 0 -87 19t-57 57l-13 -66h-59l13 99h-4q-25 -33 -50.5 -57.5t-54 -38t-63.5 -13.5zM200 63q25 0 50 15.5t47 43t40 65t29 80.5q8 29 10.5 54.5t2.5 45.5q0 47 -19.5 76
t-55.5 29q-28 0 -53 -16t-46 -45t-36 -67t-23.5 -83t-8.5 -92q0 -53 16.5 -79.5t46.5 -26.5zM471 303q57 0 104.5 10.5t75.5 35t28 64.5q0 32 -17 46t-41 14q-34 0 -65 -20t-55.5 -58t-39.5 -92h10z" />
    <glyph glyph-name="ccedilla" unicode="&#xe7;" horiz-adv-x="432" 
d="M234 -10q-55 0 -97.5 22t-66 65.5t-23.5 109.5q0 58 12 111t35 98t56 79t75 52.5t92 18.5q35 0 68 -7t60 -19l-25 -73q-20 9 -45.5 17t-56.5 8q-32 0 -60 -14.5t-50.5 -41t-38 -62t-24 -77.5t-8.5 -88q0 -40 13 -68t37 -43t58 -15t64 10t59 23v-74q-27 -14 -60.5 -23
t-73.5 -9zM139 -240q-13 0 -25 1.5t-20 3.5v52q10 -2 20 -3t17 -1q26 0 42.5 6t25 18t8.5 29q0 22 -17.5 32t-46.5 14l47 88h55l-27 -57q23 -7 42 -23.5t19 -53.5q0 -30 -16 -54t-47.5 -38t-76.5 -14z" />
    <glyph glyph-name="egrave" unicode="&#xe8;" horiz-adv-x="478" 
d="M231 -10q-58 0 -99.5 24.5t-63 69t-21.5 105.5q0 64 18 127t52 115t82 83.5t109 31.5q73 0 109.5 -32.5t36.5 -90.5q0 -53 -31 -96.5t-97 -69t-171 -25.5h-17q-1 -10 -1.5 -20t-0.5 -19q0 -61 27.5 -95.5t84.5 -34.5q36 0 68.5 11t71.5 30l-1 -75q-37 -17 -72 -28
t-84 -11zM159 303q57 0 104.5 10.5t76 35.5t28.5 66q0 25 -16 41.5t-50 16.5q-30 0 -59.5 -20t-53.5 -58t-38 -92h8zM323 606q-17 19 -37.5 46t-38 55t-27.5 49v10h94q7 -24 17 -50t22 -50.5t25 -47.5l-1 -12h-54z" />
    <glyph glyph-name="eacute" unicode="&#xe9;" horiz-adv-x="478" 
d="M231 -10q-58 0 -99.5 24.5t-63 69t-21.5 105.5q0 64 18 127t52 115t82 83.5t109 31.5q73 0 109.5 -32.5t36.5 -90.5q0 -53 -31 -96.5t-97 -69t-171 -25.5h-17q-1 -10 -1.5 -20t-0.5 -19q0 -61 27.5 -95.5t84.5 -34.5q36 0 68.5 11t71.5 30l-1 -75q-37 -17 -72 -28
t-84 -11zM159 303q57 0 104.5 10.5t76 35.5t28.5 66q0 25 -16 41.5t-50 16.5q-30 0 -59.5 -20t-53.5 -58t-38 -92h8zM269 619q17 19 37 45t38.5 53t32.5 49h99v-10q-10 -13 -28 -33t-39.5 -42t-43.5 -41.5t-40 -33.5h-56v13z" />
    <glyph glyph-name="ecircumflex" unicode="&#xea;" horiz-adv-x="478" 
d="M231 -10q-58 0 -99.5 24.5t-63 69t-21.5 105.5q0 64 18 127t52 115t82 83.5t109 31.5q73 0 109.5 -32.5t36.5 -90.5q0 -53 -31 -96.5t-97 -69t-171 -25.5h-17q-1 -10 -1.5 -20t-0.5 -19q0 -61 27.5 -95.5t84.5 -34.5q36 0 68.5 11t71.5 30l-1 -75q-37 -17 -72 -28
t-84 -11zM159 303q57 0 104.5 10.5t76 35.5t28.5 66q0 25 -16 41.5t-50 16.5q-30 0 -59.5 -20t-53.5 -58t-38 -92h8zM177 619q17 16 43.5 42t52 54.5t39.5 50.5h87q9 -26 23 -52.5t28.5 -50.5t26.5 -44v-13h-56q-11 11 -23.5 25t-25 31t-25.5 35q-28 -27 -57 -50.5
t-54 -40.5h-59v13z" />
    <glyph glyph-name="edieresis" unicode="&#xeb;" horiz-adv-x="478" 
d="M231 -10q-58 0 -99.5 24.5t-63 69t-21.5 105.5q0 64 18 127t52 115t82 83.5t109 31.5q73 0 109.5 -32.5t36.5 -90.5q0 -53 -31 -96.5t-97 -69t-171 -25.5h-17q-1 -10 -1.5 -20t-0.5 -19q0 -61 27.5 -95.5t84.5 -34.5q36 0 68.5 11t71.5 30l-1 -75q-37 -17 -72 -28
t-84 -11zM159 303q57 0 104.5 10.5t76 35.5t28.5 66q0 25 -16 41.5t-50 16.5q-30 0 -59.5 -20t-53.5 -58t-38 -92h8zM410 631q-17 0 -29 11t-11 31q0 23 13.5 40t38.5 17q20 0 29.5 -11t9.5 -29q0 -28 -15.5 -43.5t-35.5 -15.5zM240 631q-19 0 -30.5 11t-11.5 31
q0 23 13.5 40t38.5 17q14 0 22.5 -5t13 -14t4.5 -21q-1 -28 -16 -43.5t-34 -15.5z" />
    <glyph glyph-name="igrave" unicode="&#xec;" horiz-adv-x="248" 
d="M26 0l114 536h88l-114 -536h-88zM200 606q-17 19 -37.5 46t-38 55t-27.5 49v10h94q7 -24 17 -50t22 -50.5t25 -47.5l-1 -12h-54z" />
    <glyph glyph-name="iacute" unicode="&#xed;" horiz-adv-x="248" 
d="M26 0l114 536h88l-114 -536h-88zM146 619q17 19 37 45t38.5 53t32.5 49h99v-10q-10 -13 -28 -33t-39.5 -42t-43.5 -41.5t-40 -33.5h-56v13z" />
    <glyph glyph-name="icircumflex" unicode="&#xee;" horiz-adv-x="248" 
d="M26 0l114 536h88l-114 -536h-88zM31 619q17 16 43.5 42t52 54.5t39.5 50.5h87q9 -26 23 -52.5t28.5 -50.5t26.5 -44v-13h-56q-11 11 -23.5 25t-25 31t-25.5 35q-28 -27 -57 -50.5t-54 -40.5h-59v13z" />
    <glyph glyph-name="idieresis" unicode="&#xef;" horiz-adv-x="248" 
d="M26 0l114 536h88l-114 -536h-88zM282 631q-17 0 -29 11t-11 31q0 23 13.5 40t38.5 17q20 0 29.5 -11t9.5 -29q0 -28 -15.5 -43.5t-35.5 -15.5zM112 631q-19 0 -30.5 11t-11.5 31q0 23 13.5 40t38.5 17q14 0 22.5 -5t13 -14t4.5 -21q-1 -28 -16 -43.5t-34 -15.5z" />
    <glyph glyph-name="eth" unicode="&#xf0;" horiz-adv-x="542" 
d="M224 -10q-56 0 -97 22.5t-63 64.5t-22 103q0 58 17 111t49 94t77.5 64.5t101.5 23.5q54 0 86 -24.5t46 -56.5l3 1q0 56 -12 108.5t-51 104.5l-123 -72l-28 54l108 63q-14 14 -30 27.5t-36 26.5l46 60q23 -16 46 -33.5t44 -40.5l120 70l30 -53l-108 -64q22 -29 38 -64.5
t25.5 -79t9.5 -97.5q0 -58 -9 -116.5t-28.5 -111.5t-52 -95t-79 -66t-108.5 -24zM230 63q37 0 64.5 15t47 40t31.5 54.5t17.5 58t5.5 51.5q0 21 -5.5 42.5t-18 38.5t-32.5 27.5t-49 10.5q-42 0 -72 -19t-49 -50.5t-28.5 -70.5t-9.5 -79q0 -52 23 -85.5t75 -33.5z" />
    <glyph glyph-name="ntilde" unicode="&#xf1;" horiz-adv-x="552" 
d="M22 0l115 539h77l-12 -99h2q19 25 43 50t55.5 42t72.5 17t70.5 -16t45 -46t15.5 -73q0 -23 -4 -47t-8 -42l-70 -325h-93l71 337q5 23 7.5 38.5t2.5 29.5q0 32 -15 48t-47 16t-68.5 -23.5t-67.5 -75.5t-49 -140l-50 -230h-93zM192 606q9 42 24.5 70.5t37.5 43t50 14.5
q21 0 39.5 -8.5t34.5 -19t30 -19t27 -8.5q20 0 31.5 13t23.5 43h52q-10 -41 -26.5 -70t-38 -43.5t-49.5 -14.5q-19 0 -36 8.5t-33 19t-31.5 19t-30.5 8.5q-19 0 -31 -14t-22 -42h-52z" />
    <glyph glyph-name="ograve" unicode="&#xf2;" horiz-adv-x="536" 
d="M235 -8q-87 0 -137.5 54.5t-50.5 148.5q0 49 10.5 99t31.5 94.5t52.5 79.5t73 55t92.5 20q59 0 101 -25t64.5 -70.5t22.5 -108.5q0 -49 -10.5 -98.5t-31.5 -94t-52 -79.5t-72.5 -55t-93.5 -20zM242 65q27 0 51.5 12.5t45 36t35.5 58t23.5 79t8.5 97.5q0 29 -10 57
t-31.5 46.5t-58.5 18.5q-31 0 -57.5 -14.5t-47.5 -40t-35.5 -60.5t-22 -76t-7.5 -86q0 -61 27.5 -94.5t78.5 -33.5zM341 606q-17 19 -37.5 46t-38 55t-27.5 49v10h94q7 -24 17 -50t22 -50.5t25 -47.5l-1 -12h-54z" />
    <glyph glyph-name="oacute" unicode="&#xf3;" horiz-adv-x="536" 
d="M235 -8q-87 0 -137.5 54.5t-50.5 148.5q0 49 10.5 99t31.5 94.5t52.5 79.5t73 55t92.5 20q59 0 101 -25t64.5 -70.5t22.5 -108.5q0 -49 -10.5 -98.5t-31.5 -94t-52 -79.5t-72.5 -55t-93.5 -20zM242 65q27 0 51.5 12.5t45 36t35.5 58t23.5 79t8.5 97.5q0 29 -10 57
t-31.5 46.5t-58.5 18.5q-31 0 -57.5 -14.5t-47.5 -40t-35.5 -60.5t-22 -76t-7.5 -86q0 -61 27.5 -94.5t78.5 -33.5zM287 619q17 19 37 45t38.5 53t32.5 49h99v-10q-10 -13 -28 -33t-39.5 -42t-43.5 -41.5t-40 -33.5h-56v13z" />
    <glyph glyph-name="ocircumflex" unicode="&#xf4;" horiz-adv-x="536" 
d="M235 -8q-87 0 -137.5 54.5t-50.5 148.5q0 49 10.5 99t31.5 94.5t52.5 79.5t73 55t92.5 20q59 0 101 -25t64.5 -70.5t22.5 -108.5q0 -49 -10.5 -98.5t-31.5 -94t-52 -79.5t-72.5 -55t-93.5 -20zM242 65q27 0 51.5 12.5t45 36t35.5 58t23.5 79t8.5 97.5q0 29 -10 57
t-31.5 46.5t-58.5 18.5q-31 0 -57.5 -14.5t-47.5 -40t-35.5 -60.5t-22 -76t-7.5 -86q0 -61 27.5 -94.5t78.5 -33.5zM167 619q17 16 43.5 42t52 54.5t39.5 50.5h87q9 -26 23 -52.5t28.5 -50.5t26.5 -44v-13h-56q-11 11 -23.5 25t-25 31t-25.5 35q-28 -27 -57 -50.5t-54 -40.5
h-59v13z" />
    <glyph glyph-name="otilde" unicode="&#xf5;" horiz-adv-x="536" 
d="M235 -8q-87 0 -137.5 54.5t-50.5 148.5q0 49 10.5 99t31.5 94.5t52.5 79.5t73 55t92.5 20q59 0 101 -25t64.5 -70.5t22.5 -108.5q0 -49 -10.5 -98.5t-31.5 -94t-52 -79.5t-72.5 -55t-93.5 -20zM242 65q27 0 51.5 12.5t45 36t35.5 58t23.5 79t8.5 97.5q0 29 -10 57
t-31.5 46.5t-58.5 18.5q-31 0 -57.5 -14.5t-47.5 -40t-35.5 -60.5t-22 -76t-7.5 -86q0 -61 27.5 -94.5t78.5 -33.5zM165 606q9 42 24.5 70.5t37.5 43t50 14.5q21 0 39.5 -8.5t34.5 -19t30 -19t27 -8.5q20 0 31.5 13t23.5 43h52q-10 -41 -26.5 -70t-38 -43.5t-49.5 -14.5
q-19 0 -36 8.5t-33 19t-31.5 19t-30.5 8.5q-19 0 -31 -14t-22 -42h-52z" />
    <glyph glyph-name="odieresis" unicode="&#xf6;" horiz-adv-x="536" 
d="M235 -8q-87 0 -137.5 54.5t-50.5 148.5q0 49 10.5 99t31.5 94.5t52.5 79.5t73 55t92.5 20q59 0 101 -25t64.5 -70.5t22.5 -108.5q0 -49 -10.5 -98.5t-31.5 -94t-52 -79.5t-72.5 -55t-93.5 -20zM242 65q27 0 51.5 12.5t45 36t35.5 58t23.5 79t8.5 97.5q0 29 -10 57
t-31.5 46.5t-58.5 18.5q-31 0 -57.5 -14.5t-47.5 -40t-35.5 -60.5t-22 -76t-7.5 -86q0 -61 27.5 -94.5t78.5 -33.5zM418 631q-17 0 -29 11t-11 31q0 23 13.5 40t38.5 17q20 0 29.5 -11t9.5 -29q0 -28 -15.5 -43.5t-35.5 -15.5zM248 631q-19 0 -30.5 11t-11.5 31
q0 23 13.5 40t38.5 17q14 0 22.5 -5t13 -14t4.5 -21q-1 -28 -16 -43.5t-34 -15.5z" />
    <glyph glyph-name="divide" unicode="&#xf7;" horiz-adv-x="537" 
d="M66 317v71h444v-71h-444zM287 121q-22 0 -37.5 14.5t-15.5 46.5q0 34 15.5 47t37.5 13t37.5 -13t15.5 -47q0 -32 -15.5 -46.5t-37.5 -14.5zM287 462q-22 0 -37.5 14.5t-15.5 46.5q0 34 15.5 47t37.5 13t37.5 -13t15.5 -47q0 -32 -15.5 -46.5t-37.5 -14.5z" />
    <glyph glyph-name="oslash" unicode="&#xf8;" horiz-adv-x="536" 
d="M78 -38l-51 41l52 67q-16 25 -23.5 56t-7.5 69q0 49 10.5 99t31.5 94.5t52 79.5t72.5 55t92.5 20q35 0 64 -8t51 -24l46 61l51 -40l-52 -62q14 -23 20.5 -56.5t6.5 -66.5q0 -49 -10.5 -99.5t-31 -96t-51.5 -81.5t-72 -57t-92 -21q-33 0 -61 8t-51 23zM242 63
q27 0 52 12.5t46 36t36.5 57.5t24 76.5t8.5 93.5q0 15 -1.5 28.5t-3.5 20.5l-230 -304q12 -10 30 -15.5t38 -5.5zM372 449q-10 9 -25.5 15.5t-39.5 6.5q-32 0 -59 -14.5t-48 -40t-36 -60t-23 -74t-8 -82.5q0 -19 2 -34t5 -23z" />
    <glyph glyph-name="ugrave" unicode="&#xf9;" horiz-adv-x="551" 
d="M179 -10q-38 0 -66.5 15t-44 44t-15.5 72q0 23 3.5 44t7.5 44l70 327h89l-71 -337q-5 -22 -7.5 -38.5t-2.5 -29.5q0 -31 15 -49.5t49 -18.5q33 0 69.5 24t68.5 77t51 141l49 231h86l-114 -536h-71l11 99h-4q-18 -24 -43 -49.5t-57 -42.5t-73 -17zM348 606
q-17 19 -37.5 46t-38 55t-27.5 49v10h94q7 -24 17 -50t22 -50.5t25 -47.5l-1 -12h-54z" />
    <glyph glyph-name="uacute" unicode="&#xfa;" horiz-adv-x="551" 
d="M179 -10q-38 0 -66.5 15t-44 44t-15.5 72q0 23 3.5 44t7.5 44l70 327h89l-71 -337q-5 -22 -7.5 -38.5t-2.5 -29.5q0 -31 15 -49.5t49 -18.5q33 0 69.5 24t68.5 77t51 141l49 231h86l-114 -536h-71l11 99h-4q-18 -24 -43 -49.5t-57 -42.5t-73 -17zM294 619q17 19 37 45
t38.5 53t32.5 49h99v-10q-10 -13 -28 -33t-39.5 -42t-43.5 -41.5t-40 -33.5h-56v13z" />
    <glyph glyph-name="ucircumflex" unicode="&#xfb;" horiz-adv-x="551" 
d="M179 -10q-38 0 -66.5 15t-44 44t-15.5 72q0 23 3.5 44t7.5 44l70 327h89l-71 -337q-5 -22 -7.5 -38.5t-2.5 -29.5q0 -31 15 -49.5t49 -18.5q33 0 69.5 24t68.5 77t51 141l49 231h86l-114 -536h-71l11 99h-4q-18 -24 -43 -49.5t-57 -42.5t-73 -17zM192 619q17 16 43.5 42
t52 54.5t39.5 50.5h87q9 -26 23 -52.5t28.5 -50.5t26.5 -44v-13h-56q-11 11 -23.5 25t-25 31t-25.5 35q-28 -27 -57 -50.5t-54 -40.5h-59v13z" />
    <glyph glyph-name="udieresis" unicode="&#xfc;" horiz-adv-x="551" 
d="M179 -10q-38 0 -66.5 15t-44 44t-15.5 72q0 23 3.5 44t7.5 44l70 327h89l-71 -337q-5 -22 -7.5 -38.5t-2.5 -29.5q0 -31 15 -49.5t49 -18.5q33 0 69.5 24t68.5 77t51 141l49 231h86l-114 -536h-71l11 99h-4q-18 -24 -43 -49.5t-57 -42.5t-73 -17zM443 631q-17 0 -29 11
t-11 31q0 23 13.5 40t38.5 17q20 0 29.5 -11t9.5 -29q0 -28 -15.5 -43.5t-35.5 -15.5zM273 631q-19 0 -30.5 11t-11.5 31q0 23 13.5 40t38.5 17q14 0 22.5 -5t13 -14t4.5 -21q-1 -28 -16 -43.5t-34 -15.5z" />
    <glyph glyph-name="yacute" unicode="&#xfd;" horiz-adv-x="447" 
d="M-24 -240q-23 0 -37.5 3t-28.5 7l1 71q13 -4 28 -6.5t32 -2.5q39 0 66.5 25t52.5 73l33 62l-72 544h88l30 -265q4 -32 6 -70.5t3 -73t1 -55.5h3q6 16 19 48t28 66t26 56l150 294h94l-329 -626q-26 -50 -54 -83.5t-61.5 -50t-78.5 -16.5zM243 619q17 19 37 45t38.5 53
t32.5 49h99v-10q-10 -13 -28 -33t-39.5 -42t-43.5 -41.5t-40 -33.5h-56v13z" />
    <glyph glyph-name="thorn" unicode="&#xfe;" horiz-adv-x="551" 
d="M-24 -240l211 1000h88l-38 -179q-6 -29 -12 -55t-12 -48.5t-12 -41.5h3q23 30 48.5 54.5t55 39.5t64.5 15q62 0 99.5 -45.5t37.5 -134.5q0 -58 -11 -113t-32 -102.5t-51.5 -83.5t-69.5 -56t-86 -20q-34 0 -59.5 13t-42.5 34t-28 45h-5q-1 -15 -5 -44t-8 -47l-48 -231h-87
zM251 63q30 0 56 17t46.5 46.5t35 68.5t22.5 82.5t8 88.5q0 53 -20 79.5t-58 26.5q-33 0 -68 -27.5t-63 -75t-42 -107.5q-3 -15 -5.5 -30.5t-4 -31t-1.5 -31.5q0 -47 22.5 -76.5t71.5 -29.5z" />
    <glyph glyph-name="ydieresis" unicode="&#xff;" horiz-adv-x="447" 
d="M-24 -240q-23 0 -37.5 3t-28.5 7l1 71q13 -4 28 -6.5t32 -2.5q39 0 66.5 25t52.5 73l33 62l-72 544h88l30 -265q4 -32 6 -70.5t3 -73t1 -55.5h3q6 16 19 48t28 66t26 56l150 294h94l-329 -626q-26 -50 -54 -83.5t-61.5 -50t-78.5 -16.5zM368 631q-17 0 -29 11t-11 31
q0 23 13.5 40t38.5 17q20 0 29.5 -11t9.5 -29q0 -28 -15.5 -43.5t-35.5 -15.5zM198 631q-19 0 -30.5 11t-11.5 31q0 23 13.5 40t38.5 17q14 0 22.5 -5t13 -14t4.5 -21q-1 -28 -16 -43.5t-34 -15.5z" />
    <glyph glyph-name="Amacron" unicode="&#x100;" horiz-adv-x="539" 
d="M-54 0l375 714h96l75 -714h-88l-22 222h-228l-111 -222h-97zM197 302h177l-13 150q-3 38 -6 84t-3 81h-3q-16 -38 -35 -81.5t-42 -87.5zM248 784l16 71h257l-15 -71h-258z" />
    <glyph glyph-name="amacron" unicode="&#x101;" horiz-adv-x="541" 
d="M183 -10q-40 0 -70.5 20.5t-48 60.5t-17.5 99q0 60 12 115.5t34.5 103t53.5 83t70 55t83 19.5q34 0 58.5 -13t41.5 -34t27 -46h5l31 83h67l-114 -536h-70l13 99h-3q-22 -29 -48.5 -54t-57.5 -40t-67 -15zM214 63q34 0 67.5 27t61 73t41.5 103q8 30 10.5 55.5t2.5 44.5
q0 47 -23.5 76.5t-64.5 29.5q-29 0 -55 -16t-47.5 -45t-37 -67.5t-24 -83t-8.5 -91.5q0 -53 20 -79.5t57 -26.5zM213 606l16 71h257l-15 -71h-258z" />
    <glyph glyph-name="Abreve" unicode="&#x102;" horiz-adv-x="539" 
d="M-54 0l375 714h96l75 -714h-88l-22 222h-228l-111 -222h-97zM197 302h177l-13 150q-3 38 -6 84t-3 81h-3q-16 -38 -35 -81.5t-42 -87.5zM378 784q-35 0 -62 12.5t-42 37.5t-15 61v11.5t1 11.5h52q0 -19 7.5 -33t24 -21t43.5 -7q43 0 65.5 16.5t29.5 44.5h54
q-16 -72 -56 -103t-102 -31z" />
    <glyph glyph-name="abreve" unicode="&#x103;" horiz-adv-x="541" 
d="M183 -10q-40 0 -70.5 20.5t-48 60.5t-17.5 99q0 60 12 115.5t34.5 103t53.5 83t70 55t83 19.5q34 0 58.5 -13t41.5 -34t27 -46h5l31 83h67l-114 -536h-70l13 99h-3q-22 -29 -48.5 -54t-57.5 -40t-67 -15zM214 63q34 0 67.5 27t61 73t41.5 103q8 30 10.5 55.5t2.5 44.5
q0 47 -23.5 76.5t-64.5 29.5q-29 0 -55 -16t-47.5 -45t-37 -67.5t-24 -83t-8.5 -91.5q0 -53 20 -79.5t57 -26.5zM343 606q-35 0 -62 12.5t-42 37.5t-15 61v11.5t1 11.5h52q0 -19 7.5 -33t24 -21t43.5 -7q43 0 65.5 16.5t29.5 44.5h54q-16 -72 -56 -103t-102 -31z" />
    <glyph glyph-name="Aogonek" unicode="&#x104;" horiz-adv-x="539" 
d="M-54 0l375 714h96l75 -714h-88l-22 222h-228l-111 -222h-97zM197 302h177l-13 150q-3 38 -6 84t-3 81h-3q-16 -38 -35 -81.5t-42 -87.5zM408 -217q-37 0 -61 19.5t-24 60.5q0 31 13 55t36 44t51 38h61q-19 -15 -39.5 -34.5t-35 -42t-15.5 -49.5q0 -17 8.5 -25t22.5 -8
q10 0 20 1.5t19 2.5l-1 -55q-13 -4 -27 -5.5t-28 -1.5z" />
    <glyph glyph-name="aogonek" unicode="&#x105;" horiz-adv-x="541" 
d="M183 -10q-40 0 -70.5 20.5t-48 60.5t-17.5 99q0 60 12 115.5t34.5 103t53.5 83t70 55t83 19.5q34 0 58.5 -13t41.5 -34t27 -46h5l31 83h67l-114 -536h-70l13 99h-3q-22 -29 -48.5 -54t-57.5 -40t-67 -15zM214 63q34 0 67.5 27t61 73t41.5 103q8 30 10.5 55.5t2.5 44.5
q0 47 -23.5 76.5t-64.5 29.5q-29 0 -55 -16t-47.5 -45t-37 -67.5t-24 -83t-8.5 -91.5q0 -53 20 -79.5t57 -26.5zM339 -217q-37 0 -61 19.5t-24 60.5q0 31 13 55t36 44t51 38h61q-19 -15 -39.5 -34.5t-35 -42t-15.5 -49.5q0 -17 8.5 -25t22.5 -8q10 0 20 1.5t19 2.5l-1 -55
q-13 -4 -27 -5.5t-28 -1.5z" />
    <glyph glyph-name="Cacute" unicode="&#x106;" horiz-adv-x="559" 
d="M309 -10q-75 0 -128.5 32.5t-82 93t-28.5 143.5q0 65 14.5 130.5t44 125.5t74 107t104 74.5t134.5 27.5q50 0 91 -10t77 -30l-37 -74q-25 14 -57 24.5t-75 10.5q-56 0 -100.5 -22t-77.5 -60.5t-55 -88t-32.5 -104t-10.5 -108.5q0 -89 43 -141t119 -52q39 0 76.5 8
t74.5 21l-1 -78q-37 -14 -75.5 -22t-91.5 -8zM391 797q17 19 37 45t38.5 53t32.5 49h99v-10q-10 -13 -28 -33t-39.5 -42t-43.5 -41.5t-40 -33.5h-56v13z" />
    <glyph glyph-name="cacute" unicode="&#x107;" horiz-adv-x="432" 
d="M234 -10q-55 0 -97.5 22t-66 65.5t-23.5 109.5q0 58 12 111t35 98t56 79t75 52.5t92 18.5q35 0 68 -7t60 -19l-25 -73q-20 9 -45.5 17t-56.5 8q-32 0 -60 -14.5t-50.5 -41t-38 -62t-24 -77.5t-8.5 -88q0 -40 13 -68t37 -43t58 -15t64 10t59 23v-74q-27 -14 -60.5 -23
t-73.5 -9zM280 619q17 19 37 45t38.5 53t32.5 49h99v-10q-10 -13 -28 -33t-39.5 -42t-43.5 -41.5t-40 -33.5h-56v13z" />
    <glyph glyph-name="Ccircumflex" unicode="&#x108;" horiz-adv-x="559" 
d="M309 -10q-75 0 -128.5 32.5t-82 93t-28.5 143.5q0 65 14.5 130.5t44 125.5t74 107t104 74.5t134.5 27.5q50 0 91 -10t77 -30l-37 -74q-25 14 -57 24.5t-75 10.5q-56 0 -100.5 -22t-77.5 -60.5t-55 -88t-32.5 -104t-10.5 -108.5q0 -89 43 -141t119 -52q39 0 76.5 8
t74.5 21l-1 -78q-37 -14 -75.5 -22t-91.5 -8zM289 797q17 16 43.5 42t52 54.5t39.5 50.5h87q9 -26 23 -52.5t28.5 -50.5t26.5 -44v-13h-56q-11 11 -23.5 25t-25 31t-25.5 35q-28 -27 -57 -50.5t-54 -40.5h-59v13z" />
    <glyph glyph-name="ccircumflex" unicode="&#x109;" horiz-adv-x="432" 
d="M234 -10q-55 0 -97.5 22t-66 65.5t-23.5 109.5q0 58 12 111t35 98t56 79t75 52.5t92 18.5q35 0 68 -7t60 -19l-25 -73q-20 9 -45.5 17t-56.5 8q-32 0 -60 -14.5t-50.5 -41t-38 -62t-24 -77.5t-8.5 -88q0 -40 13 -68t37 -43t58 -15t64 10t59 23v-74q-27 -14 -60.5 -23
t-73.5 -9zM151 619q17 16 43.5 42t52 54.5t39.5 50.5h87q9 -26 23 -52.5t28.5 -50.5t26.5 -44v-13h-56q-11 11 -23.5 25t-25 31t-25.5 35q-28 -27 -57 -50.5t-54 -40.5h-59v13z" />
    <glyph glyph-name="Cdot" unicode="&#x10a;" horiz-adv-x="559" 
d="M309 -10q-75 0 -128.5 32.5t-82 93t-28.5 143.5q0 65 14.5 130.5t44 125.5t74 107t104 74.5t134.5 27.5q50 0 91 -10t77 -30l-37 -74q-25 14 -57 24.5t-75 10.5q-56 0 -100.5 -22t-77.5 -60.5t-55 -88t-32.5 -104t-10.5 -108.5q0 -89 43 -141t119 -52q39 0 76.5 8
t74.5 21l-1 -78q-37 -14 -75.5 -22t-91.5 -8zM464 803q-20 0 -33.5 12.5t-13.5 34.5q0 26 15.5 45t43.5 19q15 0 25 -5.5t15 -15.5t5 -24q0 -31 -17.5 -48.5t-39.5 -17.5z" />
    <glyph glyph-name="cdot" unicode="&#x10b;" horiz-adv-x="432" 
d="M234 -10q-55 0 -97.5 22t-66 65.5t-23.5 109.5q0 58 12 111t35 98t56 79t75 52.5t92 18.5q35 0 68 -7t60 -19l-25 -73q-20 9 -45.5 17t-56.5 8q-32 0 -60 -14.5t-50.5 -41t-38 -62t-24 -77.5t-8.5 -88q0 -40 13 -68t37 -43t58 -15t64 10t59 23v-74q-27 -14 -60.5 -23
t-73.5 -9zM326 625q-20 0 -33.5 12.5t-13.5 34.5q0 26 15.5 45t43.5 19q15 0 25 -5.5t15 -15.5t5 -24q0 -31 -17.5 -48.5t-39.5 -17.5z" />
    <glyph glyph-name="Ccaron" unicode="&#x10c;" horiz-adv-x="559" 
d="M309 -10q-75 0 -128.5 32.5t-82 93t-28.5 143.5q0 65 14.5 130.5t44 125.5t74 107t104 74.5t134.5 27.5q50 0 91 -10t77 -30l-37 -74q-25 14 -57 24.5t-75 10.5q-56 0 -100.5 -22t-77.5 -60.5t-55 -88t-32.5 -104t-10.5 -108.5q0 -89 43 -141t119 -52q39 0 76.5 8
t74.5 21l-1 -78q-37 -14 -75.5 -22t-91.5 -8zM401 784q-8 26 -22 52.5t-28.5 51t-26.5 43.5v13h54q12 -10 24.5 -24.5t25 -31.5t24.5 -35q29 27 59 50.5t55 40.5h58v-13q-16 -15 -43 -41.5t-53 -54.5t-40 -51h-87z" />
    <glyph glyph-name="ccaron" unicode="&#x10d;" horiz-adv-x="432" 
d="M234 -10q-55 0 -97.5 22t-66 65.5t-23.5 109.5q0 58 12 111t35 98t56 79t75 52.5t92 18.5q35 0 68 -7t60 -19l-25 -73q-20 9 -45.5 17t-56.5 8q-32 0 -60 -14.5t-50.5 -41t-38 -62t-24 -77.5t-8.5 -88q0 -40 13 -68t37 -43t58 -15t64 10t59 23v-74q-27 -14 -60.5 -23
t-73.5 -9zM263 606q-8 26 -22 52.5t-28.5 51t-26.5 43.5v13h54q12 -10 24.5 -24.5t25 -31.5t24.5 -35q29 27 59 50.5t55 40.5h58v-13q-16 -15 -43 -41.5t-53 -54.5t-40 -51h-87z" />
    <glyph glyph-name="Dcaron" unicode="&#x10e;" horiz-adv-x="635" 
d="M38 0l151 714h162q122 0 190.5 -69t68.5 -211q0 -75 -17 -141t-50 -119.5t-82 -92.5t-112.5 -60t-140.5 -21h-170zM214 77q59 0 106.5 17.5t84 50t61.5 77t37.5 98.5t12.5 114q0 107 -48 155t-128 48h-79l-117 -560h70zM376 784q-8 26 -22 52.5t-28.5 51t-26.5 43.5v13
h54q12 -10 24.5 -24.5t25 -31.5t24.5 -35q29 27 59 50.5t55 40.5h58v-13q-16 -15 -43 -41.5t-53 -54.5t-40 -51h-87z" />
    <glyph glyph-name="dcaron" unicode="&#x10f;" horiz-adv-x="551" 
d="M591 613q11 17 24 43t25.5 54.5t19.5 49.5h83v-10q-6 -16 -22.5 -43t-38 -56t-42.5 -51h-49v13zM183 -10q-40 0 -70.5 20t-48 60t-17.5 100q0 59 11.5 114t33 102.5t52.5 83t70.5 55.5t85.5 20q34 0 58.5 -13t41.5 -33.5t27 -45.5h4q3 23 6 44t7 42.5t9 45.5l38 175h86
l-161 -760h-71l11 99h-4q-22 -30 -48 -55t-55.5 -39.5t-65.5 -14.5zM215 63q21 0 43 11.5t42.5 32t38 48.5t31 62t21 71.5t7.5 77.5q0 47 -21.5 76.5t-70.5 29.5q-30 0 -55.5 -17t-46.5 -46.5t-36 -68.5t-23 -82.5t-8 -88.5q0 -53 20 -79.5t58 -26.5z" />
    <glyph glyph-name="Dcroat" unicode="&#x110;" horiz-adv-x="635" 
d="M357 392l-18 -77h-305l18 77h305zM38 0l151 714h162q122 0 190.5 -69t68.5 -211q0 -75 -17 -141t-50 -119.5t-82 -92.5t-112.5 -60t-140.5 -21h-170zM214 77q59 0 106.5 17.5t84 50t61.5 77t37.5 98.5t12.5 114q0 107 -48 155t-128 48h-79l-117 -560h70z" />
    <glyph glyph-name="dcroat" unicode="&#x111;" horiz-adv-x="551" 
d="M184 -10q-40 0 -71 20t-48.5 60.5t-17.5 99.5q0 58 11 113.5t32 103t51.5 83.5t69.5 56t86 20q35 0 60 -12.5t42 -33.5t27 -45h5q2 12 3.5 27t4 31t5.5 31l12 60h-167l14 66h169l18 90h87l-19 -90h70l-15 -66h-69l-128 -604h-71l11 99h-4q-22 -29 -47.5 -54t-55 -40
t-65.5 -15zM215 63q21 0 42.5 11.5t42 32t38 48.5t31.5 62t21.5 71.5t7.5 77.5q0 48 -22 77.5t-70 29.5q-30 0 -56 -17t-47 -47t-35.5 -69t-22.5 -82.5t-8 -88.5q0 -53 20 -79.5t58 -26.5z" />
    <glyph glyph-name="Emacron" unicode="&#x112;" horiz-adv-x="491" 
d="M38 0l151 714h347l-18 -79h-258l-46 -223h241l-16 -78h-242l-53 -255h258l-17 -79h-347zM242 784l16 71h257l-15 -71h-258z" />
    <glyph glyph-name="emacron" unicode="&#x113;" horiz-adv-x="478" 
d="M231 -10q-58 0 -99.5 24.5t-63 69t-21.5 105.5q0 64 18 127t52 115t82 83.5t109 31.5q73 0 109.5 -32.5t36.5 -90.5q0 -53 -31 -96.5t-97 -69t-171 -25.5h-17q-1 -10 -1.5 -20t-0.5 -19q0 -61 27.5 -95.5t84.5 -34.5q36 0 68.5 11t71.5 30l-1 -75q-37 -17 -72 -28
t-84 -11zM159 303q57 0 104.5 10.5t76 35.5t28.5 66q0 25 -16 41.5t-50 16.5q-30 0 -59.5 -20t-53.5 -58t-38 -92h8zM186 606l16 71h257l-15 -71h-258z" />
    <glyph glyph-name="Ebreve" unicode="&#x114;" horiz-adv-x="491" 
d="M38 0l151 714h347l-18 -79h-258l-46 -223h241l-16 -78h-242l-53 -255h258l-17 -79h-347zM372 784q-35 0 -62 12.5t-42 37.5t-15 61v11.5t1 11.5h52q0 -19 7.5 -33t24 -21t43.5 -7q43 0 65.5 16.5t29.5 44.5h54q-16 -72 -56 -103t-102 -31z" />
    <glyph glyph-name="ebreve" unicode="&#x115;" horiz-adv-x="478" 
d="M231 -10q-58 0 -99.5 24.5t-63 69t-21.5 105.5q0 64 18 127t52 115t82 83.5t109 31.5q73 0 109.5 -32.5t36.5 -90.5q0 -53 -31 -96.5t-97 -69t-171 -25.5h-17q-1 -10 -1.5 -20t-0.5 -19q0 -61 27.5 -95.5t84.5 -34.5q36 0 68.5 11t71.5 30l-1 -75q-37 -17 -72 -28
t-84 -11zM159 303q57 0 104.5 10.5t76 35.5t28.5 66q0 25 -16 41.5t-50 16.5q-30 0 -59.5 -20t-53.5 -58t-38 -92h8zM316 606q-35 0 -62 12.5t-42 37.5t-15 61v11.5t1 11.5h52q0 -19 7.5 -33t24 -21t43.5 -7q43 0 65.5 16.5t29.5 44.5h54q-16 -72 -56 -103t-102 -31z" />
    <glyph glyph-name="Edotaccent" unicode="&#x116;" horiz-adv-x="491" 
d="M38 0l151 714h347l-18 -79h-258l-46 -223h241l-16 -78h-242l-53 -255h258l-17 -79h-347zM390 803q-20 0 -33.5 12.5t-13.5 34.5q0 26 15.5 45t43.5 19q15 0 25 -5.5t15 -15.5t5 -24q0 -31 -17.5 -48.5t-39.5 -17.5z" />
    <glyph glyph-name="edotaccent" unicode="&#x117;" horiz-adv-x="478" 
d="M231 -10q-58 0 -99.5 24.5t-63 69t-21.5 105.5q0 64 18 127t52 115t82 83.5t109 31.5q73 0 109.5 -32.5t36.5 -90.5q0 -53 -31 -96.5t-97 -69t-171 -25.5h-17q-1 -10 -1.5 -20t-0.5 -19q0 -61 27.5 -95.5t84.5 -34.5q36 0 68.5 11t71.5 30l-1 -75q-37 -17 -72 -28
t-84 -11zM159 303q57 0 104.5 10.5t76 35.5t28.5 66q0 25 -16 41.5t-50 16.5q-30 0 -59.5 -20t-53.5 -58t-38 -92h8zM334 625q-20 0 -33.5 12.5t-13.5 34.5q0 26 15.5 45t43.5 19q15 0 25 -5.5t15 -15.5t5 -24q0 -31 -17.5 -48.5t-39.5 -17.5z" />
    <glyph glyph-name="Eogonek" unicode="&#x118;" horiz-adv-x="491" 
d="M38 0l151 714h347l-18 -79h-258l-46 -223h241l-16 -78h-242l-53 -255h258l-17 -79h-347zM296 -217q-37 0 -61 19.5t-24 60.5q0 31 13 55t36 44t51 38h61q-19 -15 -39.5 -34.5t-35 -42t-15.5 -49.5q0 -17 8.5 -25t22.5 -8q10 0 20 1.5t19 2.5l-1 -55q-13 -4 -27 -5.5
t-28 -1.5z" />
    <glyph glyph-name="eogonek" unicode="&#x119;" horiz-adv-x="478" 
d="M274 -217q-38 0 -63.5 19.5t-25.5 60.5q0 31 13.5 55t37 44t53.5 38l84 23q-28 -23 -55 -47.5t-44 -49.5t-17 -52q0 -17 9 -25t24 -8q11 0 21 1.5t19 2.5v-55q-13 -4 -27.5 -5.5t-28.5 -1.5zM231 -10q-58 0 -99.5 24.5t-63 69t-21.5 105.5q0 64 18 127t52 115t82 83.5
t109 31.5q73 0 109.5 -32.5t36.5 -90.5q0 -53 -31 -96.5t-97 -69t-171 -25.5h-17q-1 -10 -1.5 -20t-0.5 -19q0 -61 27.5 -95.5t84.5 -34.5q36 0 68.5 11t71.5 30l-1 -75q-37 -17 -72 -28t-84 -11zM159 303q57 0 104.5 10.5t76 35.5t28.5 66q0 25 -16 41.5t-50 16.5
q-30 0 -59.5 -20t-53.5 -58t-38 -92h8z" />
    <glyph glyph-name="Ecaron" unicode="&#x11a;" horiz-adv-x="491" 
d="M38 0l151 714h347l-18 -79h-258l-46 -223h241l-16 -78h-242l-53 -255h258l-17 -79h-347zM327 784q-8 26 -22 52.5t-28.5 51t-26.5 43.5v13h54q12 -10 24.5 -24.5t25 -31.5t24.5 -35q29 27 59 50.5t55 40.5h58v-13q-16 -15 -43 -41.5t-53 -54.5t-40 -51h-87z" />
    <glyph glyph-name="ecaron" unicode="&#x11b;" horiz-adv-x="478" 
d="M231 -10q-58 0 -99.5 24.5t-63 69t-21.5 105.5q0 64 18 127t52 115t82 83.5t109 31.5q73 0 109.5 -32.5t36.5 -90.5q0 -53 -31 -96.5t-97 -69t-171 -25.5h-17q-1 -10 -1.5 -20t-0.5 -19q0 -61 27.5 -95.5t84.5 -34.5q36 0 68.5 11t71.5 30l-1 -75q-37 -17 -72 -28
t-84 -11zM159 303q57 0 104.5 10.5t76 35.5t28.5 66q0 25 -16 41.5t-50 16.5q-30 0 -59.5 -20t-53.5 -58t-38 -92h8zM271 606q-8 26 -22 52.5t-28.5 51t-26.5 43.5v13h54q12 -10 24.5 -24.5t25 -31.5t24.5 -35q29 27 59 50.5t55 40.5h58v-13q-16 -15 -43 -41.5t-53 -54.5
t-40 -51h-87z" />
    <glyph glyph-name="Gcircumflex" unicode="&#x11c;" horiz-adv-x="645" 
d="M324 -10q-120 0 -187 70t-67 195q0 79 17.5 149.5t50 129t78 101t103 66t124.5 23.5q62 0 108 -11t88 -31l-35 -78q-35 17 -75 29t-88 12q-60 0 -110.5 -28t-88 -79.5t-58 -121.5t-20.5 -154q0 -54 18 -98t56 -69.5t97 -25.5q35 0 64.5 5.5t49.5 12.5l45 211h-132l18 78
h221l-77 -349q-43 -16 -90.5 -26.5t-109.5 -10.5zM309 797q17 16 43.5 42t52 54.5t39.5 50.5h87q9 -26 23 -52.5t28.5 -50.5t26.5 -44v-13h-56q-11 11 -23.5 25t-25 31t-25.5 35q-28 -27 -57 -50.5t-54 -40.5h-59v13z" />
    <glyph glyph-name="gcircumflex" unicode="&#x11d;" horiz-adv-x="551" 
d="M175 -240q-47 0 -86.5 9.5t-67.5 24.5l1 81q17 -10 42 -20t53 -16t55 -6q59 0 97 30t53 100l8 38q4 15 8 33t9 35.5t8 29.5h-4q-21 -29 -46.5 -54t-55 -40t-65.5 -15q-40 0 -71 20.5t-48.5 60.5t-17.5 99q0 58 11.5 113t33 103t52.5 84t70.5 56t85.5 20q35 0 60 -13
t42 -34t27 -46h3l32 83h67l-122 -567q-16 -75 -47.5 -121t-78.5 -67t-108 -21zM216 63q21 0 43 11.5t42 32.5t37.5 49.5t31 62.5t21 71.5t7.5 75.5q0 47 -21 76.5t-69 29.5q-30 0 -56.5 -17t-47.5 -46.5t-36 -68.5t-23 -82.5t-8 -88.5q0 -53 20.5 -79.5t58.5 -26.5zM182 619
q17 16 43.5 42t52 54.5t39.5 50.5h87q9 -26 23 -52.5t28.5 -50.5t26.5 -44v-13h-56q-11 11 -23.5 25t-25 31t-25.5 35q-28 -27 -57 -50.5t-54 -40.5h-59v13z" />
    <glyph glyph-name="Gbreve" unicode="&#x11e;" horiz-adv-x="645" 
d="M324 -10q-120 0 -187 70t-67 195q0 79 17.5 149.5t50 129t78 101t103 66t124.5 23.5q62 0 108 -11t88 -31l-35 -78q-35 17 -75 29t-88 12q-60 0 -110.5 -28t-88 -79.5t-58 -121.5t-20.5 -154q0 -54 18 -98t56 -69.5t97 -25.5q35 0 64.5 5.5t49.5 12.5l45 211h-132l18 78
h221l-77 -349q-43 -16 -90.5 -26.5t-109.5 -10.5zM466 784q-35 0 -62 12.5t-42 37.5t-15 61v11.5t1 11.5h52q0 -19 7.5 -33t24 -21t43.5 -7q43 0 65.5 16.5t29.5 44.5h54q-16 -72 -56 -103t-102 -31z" />
    <glyph glyph-name="gbreve" unicode="&#x11f;" horiz-adv-x="551" 
d="M175 -240q-47 0 -86.5 9.5t-67.5 24.5l1 81q17 -10 42 -20t53 -16t55 -6q59 0 97 30t53 100l8 38q4 15 8 33t9 35.5t8 29.5h-4q-21 -29 -46.5 -54t-55 -40t-65.5 -15q-40 0 -71 20.5t-48.5 60.5t-17.5 99q0 58 11.5 113t33 103t52.5 84t70.5 56t85.5 20q35 0 60 -13
t42 -34t27 -46h3l32 83h67l-122 -567q-16 -75 -47.5 -121t-78.5 -67t-108 -21zM216 63q21 0 43 11.5t42 32.5t37.5 49.5t31 62.5t21 71.5t7.5 75.5q0 47 -21 76.5t-69 29.5q-30 0 -56.5 -17t-47.5 -46.5t-36 -68.5t-23 -82.5t-8 -88.5q0 -53 20.5 -79.5t58.5 -26.5zM339 606
q-35 0 -62 12.5t-42 37.5t-15 61v11.5t1 11.5h52q0 -19 7.5 -33t24 -21t43.5 -7q43 0 65.5 16.5t29.5 44.5h54q-16 -72 -56 -103t-102 -31z" />
    <glyph glyph-name="Gdot" unicode="&#x120;" horiz-adv-x="645" 
d="M324 -10q-120 0 -187 70t-67 195q0 79 17.5 149.5t50 129t78 101t103 66t124.5 23.5q62 0 108 -11t88 -31l-35 -78q-35 17 -75 29t-88 12q-60 0 -110.5 -28t-88 -79.5t-58 -121.5t-20.5 -154q0 -54 18 -98t56 -69.5t97 -25.5q35 0 64.5 5.5t49.5 12.5l45 211h-132l18 78
h221l-77 -349q-43 -16 -90.5 -26.5t-109.5 -10.5zM484 803q-20 0 -33.5 12.5t-13.5 34.5q0 26 15.5 45t43.5 19q15 0 25 -5.5t15 -15.5t5 -24q0 -31 -17.5 -48.5t-39.5 -17.5z" />
    <glyph glyph-name="gdot" unicode="&#x121;" horiz-adv-x="551" 
d="M175 -240q-47 0 -86.5 9.5t-67.5 24.5l1 81q17 -10 42 -20t53 -16t55 -6q59 0 97 30t53 100l8 38q4 15 8 33t9 35.5t8 29.5h-4q-21 -29 -46.5 -54t-55 -40t-65.5 -15q-40 0 -71 20.5t-48.5 60.5t-17.5 99q0 58 11.5 113t33 103t52.5 84t70.5 56t85.5 20q35 0 60 -13
t42 -34t27 -46h3l32 83h67l-122 -567q-16 -75 -47.5 -121t-78.5 -67t-108 -21zM216 63q21 0 43 11.5t42 32.5t37.5 49.5t31 62.5t21 71.5t7.5 75.5q0 47 -21 76.5t-69 29.5q-30 0 -56.5 -17t-47.5 -46.5t-36 -68.5t-23 -82.5t-8 -88.5q0 -53 20.5 -79.5t58.5 -26.5zM357 625
q-20 0 -33.5 12.5t-13.5 34.5q0 26 15.5 45t43.5 19q15 0 25 -5.5t15 -15.5t5 -24q0 -31 -17.5 -48.5t-39.5 -17.5z" />
    <glyph glyph-name="uni0122" unicode="&#x122;" horiz-adv-x="645" 
d="M324 -10q-120 0 -187 70t-67 195q0 79 17.5 149.5t50 129t78 101t103 66t124.5 23.5q62 0 108 -11t88 -31l-35 -78q-35 17 -75 29t-88 12q-60 0 -110.5 -28t-88 -79.5t-58 -121.5t-20.5 -154q0 -54 18 -98t56 -69.5t97 -25.5q35 0 64.5 5.5t49.5 12.5l45 211h-132l18 78
h221l-77 -349q-43 -16 -90.5 -26.5t-109.5 -10.5zM207 -208q10 17 23 43t25.5 54.5t19.5 49.5h83v-10q-6 -16 -22.5 -43t-37.5 -56t-43 -51h-48v13z" />
    <glyph glyph-name="uni0123" unicode="&#x123;" horiz-adv-x="551" 
d="M294 616q7 16 23.5 43t37.5 56.5t42 50.5h49v-13q-10 -16 -23 -42.5t-25.5 -54.5t-19.5 -50h-84v10zM175 -240q-47 0 -86.5 9.5t-67.5 24.5l1 81q17 -10 42 -20t53 -16t55 -6q59 0 97 30t53 100l8 38q4 15 8 33t9 35.5t8 29.5h-4q-21 -29 -46.5 -54t-55 -40t-65.5 -15
q-40 0 -71 20.5t-48.5 60.5t-17.5 99q0 58 11.5 113t33 103t52.5 84t70.5 56t85.5 20q35 0 60 -13t42 -34t27 -46h3l32 83h67l-122 -567q-16 -75 -47.5 -121t-78.5 -67t-108 -21zM216 63q21 0 43 11.5t42 32.5t37.5 49.5t31 62.5t21 71.5t7.5 75.5q0 47 -21 76.5t-69 29.5
q-30 0 -56.5 -17t-47.5 -46.5t-36 -68.5t-23 -82.5t-8 -88.5q0 -53 20.5 -79.5t58.5 -26.5z" />
    <glyph glyph-name="Hcircumflex" unicode="&#x124;" horiz-adv-x="648" 
d="M39 0l151 714h89l-64 -302h293l63 302h88l-151 -714h-88l70 333h-292l-70 -333h-89zM278 797q17 16 43.5 42t52 54.5t39.5 50.5h87q9 -26 23 -52.5t28.5 -50.5t26.5 -44v-13h-56q-11 11 -23.5 25t-25 31t-25.5 35q-28 -27 -57 -50.5t-54 -40.5h-59v13z" />
    <glyph glyph-name="hcircumflex" unicode="&#x125;" horiz-adv-x="551" 
d="M26 0l161 760h88l-42 -197q-3 -15 -7 -31t-8.5 -32l-9 -32t-8.5 -32h5q19 25 43.5 50t56 42t71.5 17t68 -15t43.5 -45t15.5 -75q0 -20 -3 -40.5t-8 -43.5l-69 -326h-88l70 336q5 23 7.5 39t2.5 28q0 32 -15.5 50.5t-49.5 18.5q-32 0 -69 -23.5t-68.5 -76.5t-50.5 -141
l-48 -231h-88zM77 843q17 16 43.5 42t52 54.5t39.5 50.5h87q9 -26 23 -52.5t28.5 -50.5t26.5 -44v-13h-56q-11 11 -23.5 25t-25 31t-25.5 35q-28 -27 -57 -50.5t-54 -40.5h-59v13z" />
    <glyph glyph-name="Hbar" unicode="&#x126;" horiz-adv-x="647" 
d="M38 0l110 522h-86l15 72h86l26 120h89l-26 -120h293l25 120h90l-25 -120h86l-14 -72h-88l-110 -522h-90l70 333h-292l-70 -333h-89zM214 412h293l22 110h-292z" />
    <glyph glyph-name="hbar" unicode="&#x127;" horiz-adv-x="552" 
d="M26 0l129 604h-72l15 66h70l19 90h88l-20 -90h159l-15 -66h-157q-9 -38 -17.5 -71.5t-15 -60t-10.5 -44.5h5q18 25 42.5 50.5t56 42.5t71.5 17t68.5 -15.5t43.5 -46t15 -75.5q0 -20 -3 -40t-8 -44l-67 -317h-88l69 327q5 23 7 39t2 27q0 34 -15.5 53t-49.5 19
q-32 0 -69 -24t-69 -77t-50 -141l-46 -223h-88z" />
    <glyph glyph-name="Itilde" unicode="&#x128;" horiz-adv-x="311" 
d="M-20 0l11 49l81 20l120 576l-72 19l11 50h242l-10 -50l-83 -19l-120 -576l73 -20l-11 -49h-242zM100 784q9 42 24.5 70.5t37.5 43t50 14.5q21 0 39.5 -8.5t34.5 -19t30 -19t27 -8.5q20 0 31.5 13t23.5 43h52q-10 -41 -26.5 -70t-38 -43.5t-49.5 -14.5q-19 0 -36 8.5
t-33 19t-31.5 19t-30.5 8.5q-19 0 -31 -14t-22 -42h-52z" />
    <glyph glyph-name="itilde" unicode="&#x129;" horiz-adv-x="248" 
d="M26 0l114 536h88l-114 -536h-88zM29 606q9 42 24.5 70.5t37.5 43t50 14.5q21 0 39.5 -8.5t34.5 -19t30 -19t27 -8.5q20 0 31.5 13t23.5 43h52q-10 -41 -26.5 -70t-38 -43.5t-49.5 -14.5q-19 0 -36 8.5t-33 19t-31.5 19t-30.5 8.5q-19 0 -31 -14t-22 -42h-52z" />
    <glyph glyph-name="Imacron" unicode="&#x12a;" horiz-adv-x="311" 
d="M-20 0l11 49l81 20l120 576l-72 19l11 50h242l-10 -50l-83 -19l-120 -576l73 -20l-11 -49h-242zM129 784l16 71h257l-15 -71h-258z" />
    <glyph glyph-name="imacron" unicode="&#x12b;" horiz-adv-x="248" 
d="M26 0l114 536h88l-114 -536h-88zM58 606l16 71h257l-15 -71h-258z" />
    <glyph glyph-name="Ibreve" unicode="&#x12c;" horiz-adv-x="311" 
d="M-20 0l11 49l81 20l120 576l-72 19l11 50h242l-10 -50l-83 -19l-120 -576l73 -20l-11 -49h-242zM259 784q-35 0 -62 12.5t-42 37.5t-15 61v11.5t1 11.5h52q0 -19 7.5 -33t24 -21t43.5 -7q43 0 65.5 16.5t29.5 44.5h54q-16 -72 -56 -103t-102 -31z" />
    <glyph glyph-name="ibreve" unicode="&#x12d;" horiz-adv-x="248" 
d="M26 0l114 536h88l-114 -536h-88zM188 606q-35 0 -62 12.5t-42 37.5t-15 61v11.5t1 11.5h52q0 -19 7.5 -33t24 -21t43.5 -7q43 0 65.5 16.5t29.5 44.5h54q-16 -72 -56 -103t-102 -31z" />
    <glyph glyph-name="Iogonek" unicode="&#x12e;" horiz-adv-x="311" 
d="M-20 0l11 49l81 20l120 576l-72 19l11 50h242l-10 -50l-83 -19l-120 -576l73 -20l-11 -49h-242zM100 -217q-37 0 -61 19.5t-24 60.5q0 31 13 55t36 44t51 38h61q-19 -15 -39.5 -34.5t-35 -42t-15.5 -49.5q0 -17 8.5 -25t22.5 -8q10 0 20 1.5t19 2.5l-1 -55
q-13 -4 -27 -5.5t-28 -1.5z" />
    <glyph glyph-name="iogonek" unicode="&#x12f;" horiz-adv-x="249" 
d="M26 0l114 536h88l-114 -536h-88zM210 625q-20 0 -33.5 12t-13.5 34q0 18 7 32.5t20.5 23.5t31.5 9q23 0 34.5 -12t11.5 -32q0 -31 -17.5 -49t-40.5 -18zM36 -217q-37 0 -61 19.5t-24 60.5q0 31 13 55t36 44t51 38h61q-19 -15 -39.5 -34.5t-35 -42t-15.5 -49.5
q0 -17 8.5 -25t22.5 -8q10 0 20 1.5t19 2.5l-1 -55q-13 -4 -27 -5.5t-28 -1.5z" />
    <glyph glyph-name="Idotaccent" unicode="&#x130;" horiz-adv-x="311" 
d="M-20 0l11 49l81 20l120 576l-72 19l11 50h242l-10 -50l-83 -19l-120 -576l73 -20l-11 -49h-242zM277 803q-20 0 -33.5 12.5t-13.5 34.5q0 26 15.5 45t43.5 19q15 0 25 -5.5t15 -15.5t5 -24q0 -31 -17.5 -48.5t-39.5 -17.5z" />
    <glyph glyph-name="dotlessi" unicode="&#x131;" horiz-adv-x="248" 
d="M26 0l114 536h88l-114 -536h-88z" />
    <glyph glyph-name="IJ" unicode="&#x132;" horiz-adv-x="597" 
d="M-20 0l11 49l81 20l120 576l-72 19l11 50h242l-10 -50l-83 -19l-120 -576l73 -20l-11 -49h-242zM247 -190q-23 0 -42.5 3.5t-30.5 8.5l3 77q15 -4 32 -7t36 -3q29 0 52.5 12t41 38.5t26.5 69.5l149 705h90l-152 -715q-14 -67 -42.5 -109t-69.5 -61t-93 -19z" />
    <glyph glyph-name="ij" unicode="&#x133;" horiz-adv-x="516" 
d="M26 0l114 536h88l-114 -536h-88zM210 625q-20 0 -33.5 12t-13.5 34q0 18 7 32.5t20.5 23.5t31.5 9q23 0 34.5 -12t11.5 -32q0 -31 -17.5 -49t-40.5 -18zM196 -240q-18 0 -33.5 3t-26.5 7l1 74q11 -4 25 -7.5t30 -3.5q19 0 34 11t26.5 32.5t17.5 54.5l128 605h87
l-130 -613q-10 -50 -29 -86.5t-50.5 -56.5t-79.5 -20zM468 625q-20 0 -33 12.5t-13 34.5q0 17 7 31.5t20 23.5t32 9q23 0 33.5 -12t10.5 -33q0 -31 -17.5 -48.5t-39.5 -17.5z" />
    <glyph glyph-name="Jcircumflex" unicode="&#x134;" horiz-adv-x="264" 
d="M-77 -190q-23 0 -42.5 3.5t-30.5 8.5l3 77q15 -4 32 -7t36 -3q29 0 52.5 12t41 38.5t26.5 69.5l149 705h90l-152 -715q-14 -67 -42.5 -109t-69.5 -61t-93 -19zM77 797q17 16 43.5 42t52 54.5t39.5 50.5h87q9 -26 23 -52.5t28.5 -50.5t26.5 -44v-13h-56q-11 11 -23.5 25
t-25 31t-25.5 35q-28 -27 -57 -50.5t-54 -40.5h-59v13z" />
    <glyph glyph-name="jcircumflex" unicode="&#x135;" horiz-adv-x="248" 
d="M-62 -240q-18 0 -33.5 3t-26.5 7l1 74q11 -4 25 -7.5t30 -3.5q19 0 34 11t26 32.5t18 54.5l128 605h87l-130 -613q-10 -50 -29 -86.5t-50.5 -56.5t-79.5 -20zM32 619q17 16 43.5 42t52 54.5t39.5 50.5h87q9 -26 23 -52.5t28.5 -50.5t26.5 -44v-13h-56q-11 11 -23.5 25
t-25 31t-25.5 35q-28 -27 -57 -50.5t-54 -40.5h-59v13z" />
    <glyph glyph-name="uni0136" unicode="&#x136;" horiz-adv-x="538" 
d="M38 0l151 714h89l-74 -347l60 66l259 281h107l-296 -314l154 -400h-98l-126 346l-78 -61l-59 -285h-89zM131 -208q10 17 23 43t25.5 54.5t19.5 49.5h83v-10q-6 -16 -22.5 -43t-37.5 -56t-43 -51h-48v13z" />
    <glyph glyph-name="uni0137" unicode="&#x137;" horiz-adv-x="475" 
d="M25 0l161 760h88l-64 -302q-17 -80 -29 -123.5t-17 -57.5h2l242 259h103l-222 -230l133 -306h-97l-103 251l-68 -57l-40 -194h-89zM107 -208q10 17 23 43t25.5 54.5t19.5 49.5h83v-10q-6 -16 -22.5 -43t-37.5 -56t-43 -51h-48v13z" />
    <glyph glyph-name="kgreenlandic" unicode="&#x138;" horiz-adv-x="475" 
d="M25 0l113 536h89l-29 -135q-8 -37 -18 -71t-16 -54h2l242 260h103l-222 -230l133 -306h-97l-103 251l-68 -57l-40 -194h-89z" />
    <glyph glyph-name="Lacute" unicode="&#x139;" horiz-adv-x="457" 
d="M38 0l151 714h89l-134 -634h258l-17 -80h-347zM196 797q17 19 37 45t38.5 53t32.5 49h99v-10q-10 -13 -28 -33t-39.5 -42t-43.5 -41.5t-40 -33.5h-56v13z" />
    <glyph glyph-name="lacute" unicode="&#x13a;" horiz-adv-x="248" 
d="M25 0l162 760h88l-162 -760h-88zM191 843q17 19 37 45t38.5 53t32.5 49h99v-10q-10 -13 -28 -33t-39.5 -42t-43.5 -41.5t-40 -33.5h-56v13z" />
    <glyph glyph-name="uni013B" unicode="&#x13b;" horiz-adv-x="457" 
d="M38 0l151 714h89l-134 -634h258l-17 -80h-347zM96 -208q10 17 23 43t25.5 54.5t19.5 49.5h83v-10q-6 -16 -22.5 -43t-37.5 -56t-43 -51h-48v13z" />
    <glyph glyph-name="uni013C" unicode="&#x13c;" horiz-adv-x="248" 
d="M25 0l162 760h88l-162 -760h-88zM-39 -208q10 17 23 43t25.5 54.5t19.5 49.5h83v-10q-6 -16 -22.5 -43t-37.5 -56t-43 -51h-48v13z" />
    <glyph glyph-name="Lcaron" unicode="&#x13d;" horiz-adv-x="457" 
d="M396 567q11 17 24 43t25.5 54.5t19.5 49.5h83v-10q-6 -16 -22.5 -43t-38 -56t-42.5 -51h-49v13zM38 0l151 714h89l-134 -634h258l-17 -80h-347z" />
    <glyph glyph-name="lcaron" unicode="&#x13e;" horiz-adv-x="288" 
d="M274 615q11 17 24 43t25.5 54.5t19.5 49.5h83v-10q-6 -16 -22.5 -43t-38 -56t-42.5 -51h-49v13zM25 0l162 760h88l-162 -760h-88z" />
    <glyph glyph-name="Ldot" unicode="&#x13f;" horiz-adv-x="478" 
d="M38 0l151 714h89l-134 -634h258l-17 -80h-347zM382 299q-20 0 -33.5 12.5t-13.5 34.5q0 26 15.5 45t43.5 19q15 0 25 -5.5t15 -15.5t5 -24q0 -31 -17.5 -48.5t-39.5 -17.5z" />
    <glyph glyph-name="ldot" unicode="&#x140;" horiz-adv-x="297" 
d="M25 0l162 760h88l-162 -760h-88zM292 310q-20 0 -33.5 12.5t-13.5 34.5q0 26 15.5 45t43.5 19q15 0 25 -5.5t15 -15.5t5 -24q0 -31 -17.5 -48.5t-39.5 -17.5z" />
    <glyph glyph-name="Lslash" unicode="&#x141;" horiz-adv-x="457" 
d="M37 0l53 246l-48 -30l-30 58l96 57l80 383h90l-68 -325l103 63l31 -56l-153 -92l-46 -224h257l-17 -80h-348z" />
    <glyph glyph-name="lslash" unicode="&#x142;" horiz-adv-x="250" 
d="M26 0l60 285l-51 -33l-29 55l98 62l84 391h88l-70 -332l54 34l27 -55l-100 -62l-73 -345h-88z" />
    <glyph glyph-name="Nacute" unicode="&#x143;" horiz-adv-x="675" 
d="M37 0l151 714h96l198 -590h3q2 18 6 41.5t8.5 50t10 53.5t10.5 52l84 393h83l-151 -714h-95l-200 592h-3q-2 -16 -5.5 -39.5t-8.5 -51t-10.5 -57t-11.5 -56.5l-82 -388h-83zM393 797q17 19 37 45t38.5 53t32.5 49h99v-10q-10 -13 -28 -33t-39.5 -42t-43.5 -41.5
t-40 -33.5h-56v13z" />
    <glyph glyph-name="nacute" unicode="&#x144;" horiz-adv-x="552" 
d="M22 0l115 539h77l-12 -99h2q19 25 43 50t55.5 42t72.5 17t70.5 -16t45 -46t15.5 -73q0 -23 -4 -47t-8 -42l-70 -325h-93l71 337q5 23 7.5 38.5t2.5 29.5q0 32 -15 48t-47 16t-68.5 -23.5t-67.5 -75.5t-49 -140l-50 -230h-93zM295 619q17 19 37 45t38.5 53t32.5 49h99v-10
q-10 -13 -28 -33t-39.5 -42t-43.5 -41.5t-40 -33.5h-56v13z" />
    <glyph glyph-name="uni0145" unicode="&#x145;" horiz-adv-x="675" 
d="M37 0l151 714h96l198 -590h3q2 18 6 41.5t8.5 50t10 53.5t10.5 52l84 393h83l-151 -714h-95l-200 592h-3q-2 -16 -5.5 -39.5t-8.5 -51t-10.5 -57t-11.5 -56.5l-82 -388h-83zM177 -208q10 17 23 43t25.5 54.5t19.5 49.5h83v-10q-6 -16 -22.5 -43t-37.5 -56t-43 -51h-48v13
z" />
    <glyph glyph-name="uni0146" unicode="&#x146;" horiz-adv-x="552" 
d="M22 0l115 539h77l-12 -99h2q19 25 43 50t55.5 42t72.5 17t70.5 -16t45 -46t15.5 -73q0 -23 -4 -47t-8 -42l-70 -325h-93l71 337q5 23 7.5 38.5t2.5 29.5q0 32 -15 48t-47 16t-68.5 -23.5t-67.5 -75.5t-49 -140l-50 -230h-93zM113 -208q10 17 23 43t25.5 54.5t19.5 49.5
h83v-10q-6 -16 -22.5 -43t-37.5 -56t-43 -51h-48v13z" />
    <glyph glyph-name="Ncaron" unicode="&#x147;" horiz-adv-x="675" 
d="M37 0l151 714h96l198 -590h3q2 18 6 41.5t8.5 50t10 53.5t10.5 52l84 393h83l-151 -714h-95l-200 592h-3q-2 -16 -5.5 -39.5t-8.5 -51t-10.5 -57t-11.5 -56.5l-82 -388h-83zM411 784q-8 26 -22 52.5t-28.5 51t-26.5 43.5v13h54q12 -10 24.5 -24.5t25 -31.5t24.5 -35
q29 27 59 50.5t55 40.5h58v-13q-16 -15 -43 -41.5t-53 -54.5t-40 -51h-87z" />
    <glyph glyph-name="ncaron" unicode="&#x148;" horiz-adv-x="552" 
d="M22 0l115 539h77l-12 -99h2q19 25 43 50t55.5 42t72.5 17t70.5 -16t45 -46t15.5 -73q0 -23 -4 -47t-8 -42l-70 -325h-93l71 337q5 23 7.5 38.5t2.5 29.5q0 32 -15 48t-47 16t-68.5 -23.5t-67.5 -75.5t-49 -140l-50 -230h-93zM306 606q-8 26 -22 52.5t-28.5 51t-26.5 43.5
v13h54q12 -10 24.5 -24.5t25 -31.5t24.5 -35q29 27 59 50.5t55 40.5h58v-13q-16 -15 -43 -41.5t-53 -54.5t-40 -51h-87z" />
    <glyph glyph-name="napostrophe" unicode="&#x149;" horiz-adv-x="657" 
d="M100 0l115 539h77l-12 -99h2q19 25 43 50t55.5 42t72.5 17t70.5 -16t45 -46t15.5 -73q0 -23 -4 -47t-8 -42l-70 -325h-93l71 337q5 23 7.5 38.5t2.5 29.5q0 32 -15 48t-47 16t-68.5 -23.5t-67.5 -75.5t-49 -140l-50 -230h-93zM42 469q17 40 35 83.5t34 85.5t27 76h95
l3 -11q-15 -35 -36 -75.5t-44.5 -81t-46.5 -77.5h-67z" />
    <glyph glyph-name="Eng" unicode="&#x14a;" horiz-adv-x="675" 
d="M331 -189q-22 0 -42.5 3.5t-30.5 8.5l3 77q14 -4 31.5 -7t37.5 -3q28 0 52 11t41.5 35t25.5 64l-208 592h-4q-3 -19 -6.5 -42.5t-8 -50.5t-9.5 -55.5t-11 -55.5l-82 -388h-83l151 714h95l200 -583h3q4 28 10 63t13 72.5t14 72.5l79 375h86l-151 -714q-14 -67 -43.5 -109
t-70.5 -61t-92 -19z" />
    <glyph glyph-name="eng" unicode="&#x14b;" horiz-adv-x="552" 
d="M247 -240q-17 0 -32.5 3t-28.5 7l1 74q13 -4 26 -7.5t29 -3.5q19 0 34 11t26 33t18 55l85 404q5 23 8 39.5t3 30.5q0 30 -16 48t-50 18q-32 0 -68.5 -23.5t-68.5 -76.5t-51 -141l-48 -231h-88l114 536h71l-11 -99h5q19 25 43 50t56 42t72 17q39 0 67.5 -15t44.5 -43.5
t16 -71.5q0 -24 -3.5 -45.5t-8.5 -44.5l-85 -404q-10 -49 -29.5 -85.5t-51 -56.5t-79.5 -20z" />
    <glyph glyph-name="Omacron" unicode="&#x14c;" horiz-adv-x="686" 
d="M319 -10q-81 0 -136.5 33t-84 94.5t-28.5 145.5q0 62 10.5 120t31.5 109.5t51 94t68.5 73.5t86 48t101.5 17q115 0 178.5 -74t63.5 -203q0 -62 -10 -119.5t-29 -109t-48 -93.5t-67 -72.5t-85 -47t-103 -16.5zM323 69q38 0 70.5 14t59.5 39.5t48 61t35.5 78t22 90
t7.5 98.5q0 93 -41 144.5t-113 51.5q-38 0 -71 -13.5t-60.5 -38.5t-49 -60t-36.5 -77.5t-23 -90.5t-8 -100q0 -62 19 -106t55 -67.5t85 -23.5zM328 784l16 71h257l-15 -71h-258z" />
    <glyph glyph-name="omacron" unicode="&#x14d;" horiz-adv-x="536" 
d="M235 -8q-87 0 -137.5 54.5t-50.5 148.5q0 49 10.5 99t31.5 94.5t52.5 79.5t73 55t92.5 20q59 0 101 -25t64.5 -70.5t22.5 -108.5q0 -49 -10.5 -98.5t-31.5 -94t-52 -79.5t-72.5 -55t-93.5 -20zM242 65q27 0 51.5 12.5t45 36t35.5 58t23.5 79t8.5 97.5q0 29 -10 57
t-31.5 46.5t-58.5 18.5q-31 0 -57.5 -14.5t-47.5 -40t-35.5 -60.5t-22 -76t-7.5 -86q0 -61 27.5 -94.5t78.5 -33.5zM194 606l16 71h257l-15 -71h-258z" />
    <glyph glyph-name="Obreve" unicode="&#x14e;" horiz-adv-x="686" 
d="M319 -10q-81 0 -136.5 33t-84 94.5t-28.5 145.5q0 62 10.5 120t31.5 109.5t51 94t68.5 73.5t86 48t101.5 17q115 0 178.5 -74t63.5 -203q0 -62 -10 -119.5t-29 -109t-48 -93.5t-67 -72.5t-85 -47t-103 -16.5zM323 69q38 0 70.5 14t59.5 39.5t48 61t35.5 78t22 90
t7.5 98.5q0 93 -41 144.5t-113 51.5q-38 0 -71 -13.5t-60.5 -38.5t-49 -60t-36.5 -77.5t-23 -90.5t-8 -100q0 -62 19 -106t55 -67.5t85 -23.5zM458 784q-35 0 -62 12.5t-42 37.5t-15 61v11.5t1 11.5h52q0 -19 7.5 -33t24 -21t43.5 -7q43 0 65.5 16.5t29.5 44.5h54
q-16 -72 -56 -103t-102 -31z" />
    <glyph glyph-name="obreve" unicode="&#x14f;" horiz-adv-x="536" 
d="M235 -8q-87 0 -137.5 54.5t-50.5 148.5q0 49 10.5 99t31.5 94.5t52.5 79.5t73 55t92.5 20q59 0 101 -25t64.5 -70.5t22.5 -108.5q0 -49 -10.5 -98.5t-31.5 -94t-52 -79.5t-72.5 -55t-93.5 -20zM242 65q27 0 51.5 12.5t45 36t35.5 58t23.5 79t8.5 97.5q0 29 -10 57
t-31.5 46.5t-58.5 18.5q-31 0 -57.5 -14.5t-47.5 -40t-35.5 -60.5t-22 -76t-7.5 -86q0 -61 27.5 -94.5t78.5 -33.5zM324 606q-35 0 -62 12.5t-42 37.5t-15 61v11.5t1 11.5h52q0 -19 7.5 -33t24 -21t43.5 -7q43 0 65.5 16.5t29.5 44.5h54q-16 -72 -56 -103t-102 -31z" />
    <glyph glyph-name="Ohungarumlaut" unicode="&#x150;" horiz-adv-x="686" 
d="M319 -10q-81 0 -136.5 33t-84 94.5t-28.5 145.5q0 62 10.5 120t31.5 109.5t51 94t68.5 73.5t86 48t101.5 17q115 0 178.5 -74t63.5 -203q0 -62 -10 -119.5t-29 -109t-48 -93.5t-67 -72.5t-85 -47t-103 -16.5zM323 69q38 0 70.5 14t59.5 39.5t48 61t35.5 78t22 90
t7.5 98.5q0 93 -41 144.5t-113 51.5q-38 0 -71 -13.5t-60.5 -38.5t-49 -60t-36.5 -77.5t-23 -90.5t-8 -100q0 -62 19 -106t55 -67.5t85 -23.5zM505 797q17 19 37 45t39 53t33 49h89v-10q-10 -13 -27.5 -33t-39.5 -42t-44 -41.5t-40 -33.5h-47v13zM343 797q17 19 37 45t39 53
t32 49h90v-10q-10 -13 -27.5 -33t-39.5 -42t-44 -41.5t-40 -33.5h-47v13z" />
    <glyph glyph-name="ohungarumlaut" unicode="&#x151;" horiz-adv-x="536" 
d="M235 -8q-87 0 -137.5 54.5t-50.5 148.5q0 49 10.5 99t31.5 94.5t52.5 79.5t73 55t92.5 20q59 0 101 -25t64.5 -70.5t22.5 -108.5q0 -49 -10.5 -98.5t-31.5 -94t-52 -79.5t-72.5 -55t-93.5 -20zM242 65q27 0 51.5 12.5t45 36t35.5 58t23.5 79t8.5 97.5q0 29 -10 57
t-31.5 46.5t-58.5 18.5q-31 0 -57.5 -14.5t-47.5 -40t-35.5 -60.5t-22 -76t-7.5 -86q0 -61 27.5 -94.5t78.5 -33.5zM371 619q17 19 37 45t39 53t33 49h89v-10q-10 -13 -27.5 -33t-39.5 -42t-44 -41.5t-40 -33.5h-47v13zM209 619q17 19 37 45t39 53t32 49h90v-10
q-10 -13 -27.5 -33t-39.5 -42t-44 -41.5t-40 -33.5h-47v13z" />
    <glyph glyph-name="OE" unicode="&#x152;" horiz-adv-x="819" 
d="M319 -10q-81 0 -136.5 33.5t-84 96t-28.5 147.5q0 74 15.5 142t45 125.5t72 100.5t97 66.5t119.5 23.5q35 0 60.5 -2.5t47.5 -8.5h337l-17 -79h-258l-47 -223h241l-17 -78h-241l-53 -255h258l-17 -79h-319q-17 -4 -36 -7t-39 -3zM323 69q17 0 31.5 2.5t27.5 6.5l117 557
q-18 5 -39.5 8t-47.5 3q-45 0 -83 -19t-68.5 -53.5t-52 -82t-33 -104t-11.5 -118.5q0 -94 42 -147t117 -53z" />
    <glyph glyph-name="oe" unicode="&#x153;" horiz-adv-x="824" 
d="M230 -8q-84 0 -133.5 54.5t-49.5 148.5q0 49 10.5 99t31.5 94.5t53 79.5t74 55t95 20q68 0 105.5 -30t55.5 -77q35 52 83 81t104 29q63 0 102 -30.5t39 -92.5q0 -53 -30 -96.5t-95.5 -69t-170.5 -25.5h-20l-2 -20t-1 -19q0 -61 28 -95.5t84 -34.5q36 0 68.5 11.5
t71.5 29.5l-1 -77q-38 -19 -75 -28t-81 -9q-39 0 -71 12t-55 35.5t-37 58.5q-31 -47 -76 -75.5t-107 -28.5zM237 65q33 0 60 14t47 40t34 61t21 78t7 90q0 56 -24.5 89t-75.5 33q-31 0 -57.5 -14.5t-47.5 -40t-35.5 -60t-22 -74.5t-7.5 -84q0 -64 27 -98t74 -34zM505 303
q57 0 104.5 11t76 36t28.5 68q0 23 -14 39t-43 16q-34 0 -66 -19t-57 -56.5t-40 -94.5h11z" />
    <glyph glyph-name="Racute" unicode="&#x154;" horiz-adv-x="547" 
d="M38 0l151 714h150q104 0 156 -45t52 -133q0 -52 -17 -95.5t-54 -75.5t-98 -50l109 -315h-98l-93 295h-107l-62 -295h-89zM277 371q47 0 80.5 11.5t55.5 32.5t32.5 50t10.5 64q0 59 -32 83t-94 24h-69l-56 -265h72zM334 797q17 19 37 45t38.5 53t32.5 49h99v-10
q-10 -13 -28 -33t-39.5 -42t-43.5 -41.5t-40 -33.5h-56v13z" />
    <glyph glyph-name="racute" unicode="&#x155;" horiz-adv-x="379" 
d="M26 0l114 536h71l-11 -99h5q20 28 42.5 52.5t50 40.5t63.5 16q14 0 28 -1.5t26 -5.5l-19 -79q-13 3 -24.5 4.5t-24.5 1.5q-35 0 -64.5 -19.5t-52.5 -51.5t-39 -71t-25 -79l-52 -245h-88zM239 619q17 19 37 45t38.5 53t32.5 49h99v-10q-10 -13 -28 -33t-39.5 -42
t-43.5 -41.5t-40 -33.5h-56v13z" />
    <glyph glyph-name="uni0156" unicode="&#x156;" horiz-adv-x="547" 
d="M38 0l151 714h150q104 0 156 -45t52 -133q0 -52 -17 -95.5t-54 -75.5t-98 -50l109 -315h-98l-93 295h-107l-62 -295h-89zM277 371q47 0 80.5 11.5t55.5 32.5t32.5 50t10.5 64q0 59 -32 83t-94 24h-69l-56 -265h72zM132 -208q10 17 23 43t25.5 54.5t19.5 49.5h83v-10
q-6 -16 -22.5 -43t-37.5 -56t-43 -51h-48v13z" />
    <glyph glyph-name="uni0157" unicode="&#x157;" horiz-adv-x="379" 
d="M26 0l114 536h71l-11 -99h5q20 28 42.5 52.5t50 40.5t63.5 16q14 0 28 -1.5t26 -5.5l-19 -79q-13 3 -24.5 4.5t-24.5 1.5q-35 0 -64.5 -19.5t-52.5 -51.5t-39 -71t-25 -79l-52 -245h-88zM-36 -208q10 17 23 43t25.5 54.5t19.5 49.5h83v-10q-6 -16 -22.5 -43t-37.5 -56
t-43 -51h-48v13z" />
    <glyph glyph-name="Rcaron" unicode="&#x158;" horiz-adv-x="547" 
d="M38 0l151 714h150q104 0 156 -45t52 -133q0 -52 -17 -95.5t-54 -75.5t-98 -50l109 -315h-98l-93 295h-107l-62 -295h-89zM277 371q47 0 80.5 11.5t55.5 32.5t32.5 50t10.5 64q0 59 -32 83t-94 24h-69l-56 -265h72zM339 784q-8 26 -22 52.5t-28.5 51t-26.5 43.5v13h54
q12 -10 24.5 -24.5t25 -31.5t24.5 -35q29 27 59 50.5t55 40.5h58v-13q-16 -15 -43 -41.5t-53 -54.5t-40 -51h-87z" />
    <glyph glyph-name="rcaron" unicode="&#x159;" horiz-adv-x="379" 
d="M26 0l114 536h71l-11 -99h5q20 28 42.5 52.5t50 40.5t63.5 16q14 0 28 -1.5t26 -5.5l-19 -79q-13 3 -24.5 4.5t-24.5 1.5q-35 0 -64.5 -19.5t-52.5 -51.5t-39 -71t-25 -79l-52 -245h-88zM245 606q-8 26 -22 52.5t-28.5 51t-26.5 43.5v13h54q12 -10 24.5 -24.5t25 -31.5
t24.5 -35q29 27 59 50.5t55 40.5h58v-13q-16 -15 -43 -41.5t-53 -54.5t-40 -51h-87z" />
    <glyph glyph-name="Sacute" unicode="&#x15a;" horiz-adv-x="482" 
d="M176 -10q-49 0 -87.5 8t-70.5 24l1 88q20 -10 43.5 -20t52.5 -16t63 -6q32 0 60 7.5t49.5 24t34 41.5t12.5 60q0 26 -11 47t-34.5 41.5t-62.5 44.5q-34 22 -61.5 46.5t-43.5 56.5t-16 78q0 50 17.5 89t48.5 65.5t72 40.5t88 14q53 0 93.5 -11t77.5 -31l-35 -76
q-25 14 -61.5 26.5t-75.5 12.5q-28 0 -52 -8.5t-42 -24.5t-27.5 -39t-9.5 -52t10.5 -49t31.5 -36.5t53 -37.5q40 -25 70 -50t47 -57.5t17 -81.5q0 -54 -18 -95t-51.5 -68.5t-80 -41.5t-102.5 -14zM291 797q17 19 37 45t38.5 53t32.5 49h99v-10q-10 -13 -28 -33t-39.5 -42
t-43.5 -41.5t-40 -33.5h-56v13z" />
    <glyph glyph-name="sacute" unicode="&#x15b;" horiz-adv-x="413" 
d="M148 -10q-46 0 -81 9.5t-62 24.5l1 81q25 -16 62.5 -29.5t77.5 -13.5q37 0 62 10.5t38 30t13 44.5q0 19 -7.5 33.5t-25.5 29t-51 33.5q-35 22 -59 43.5t-36 47.5t-12 60q1 46 22.5 80t61.5 53t93 19q46 0 85.5 -11.5t68.5 -25.5l-28 -70q-25 12 -55.5 22.5t-71.5 10.5
q-40 0 -64 -20.5t-24 -53.5q0 -17 7 -30.5t25 -28t50 -34.5t57.5 -40t40 -46t13.5 -64q0 -54 -25 -91t-70 -55.5t-106 -18.5zM226 619q17 19 37 45t38.5 53t32.5 49h99v-10q-10 -13 -28 -33t-39.5 -42t-43.5 -41.5t-40 -33.5h-56v13z" />
    <glyph glyph-name="Scircumflex" unicode="&#x15c;" horiz-adv-x="482" 
d="M176 -10q-49 0 -87.5 8t-70.5 24l1 88q20 -10 43.5 -20t52.5 -16t63 -6q32 0 60 7.5t49.5 24t34 41.5t12.5 60q0 26 -11 47t-34.5 41.5t-62.5 44.5q-34 22 -61.5 46.5t-43.5 56.5t-16 78q0 50 17.5 89t48.5 65.5t72 40.5t88 14q53 0 93.5 -11t77.5 -31l-35 -76
q-25 14 -61.5 26.5t-75.5 12.5q-28 0 -52 -8.5t-42 -24.5t-27.5 -39t-9.5 -52t10.5 -49t31.5 -36.5t53 -37.5q40 -25 70 -50t47 -57.5t17 -81.5q0 -54 -18 -95t-51.5 -68.5t-80 -41.5t-102.5 -14zM183 797q17 16 43.5 42t52 54.5t39.5 50.5h87q9 -26 23 -52.5t28.5 -50.5
t26.5 -44v-13h-56q-11 11 -23.5 25t-25 31t-25.5 35q-28 -27 -57 -50.5t-54 -40.5h-59v13z" />
    <glyph glyph-name="scircumflex" unicode="&#x15d;" horiz-adv-x="413" 
d="M148 -10q-46 0 -81 9.5t-62 24.5l1 81q25 -16 62.5 -29.5t77.5 -13.5q37 0 62 10.5t38 30t13 44.5q0 19 -7.5 33.5t-25.5 29t-51 33.5q-35 22 -59 43.5t-36 47.5t-12 60q1 46 22.5 80t61.5 53t93 19q46 0 85.5 -11.5t68.5 -25.5l-28 -70q-25 12 -55.5 22.5t-71.5 10.5
q-40 0 -64 -20.5t-24 -53.5q0 -17 7 -30.5t25 -28t50 -34.5t57.5 -40t40 -46t13.5 -64q0 -54 -25 -91t-70 -55.5t-106 -18.5zM107 619q17 16 43.5 42t52 54.5t39.5 50.5h87q9 -26 23 -52.5t28.5 -50.5t26.5 -44v-13h-56q-11 11 -23.5 25t-25 31t-25.5 35q-28 -27 -57 -50.5
t-54 -40.5h-59v13z" />
    <glyph glyph-name="Scedilla" unicode="&#x15e;" horiz-adv-x="482" 
d="M176 -10q-49 0 -87.5 8t-70.5 24l1 88q20 -10 43.5 -20t52.5 -16t63 -6q32 0 60 7.5t49.5 24t34 41.5t12.5 60q0 26 -11 47t-34.5 41.5t-62.5 44.5q-34 22 -61.5 46.5t-43.5 56.5t-16 78q0 50 17.5 89t48.5 65.5t72 40.5t88 14q53 0 93.5 -11t77.5 -31l-35 -76
q-25 14 -61.5 26.5t-75.5 12.5q-28 0 -52 -8.5t-42 -24.5t-27.5 -39t-9.5 -52t10.5 -49t31.5 -36.5t53 -37.5q40 -25 70 -50t47 -57.5t17 -81.5q0 -54 -18 -95t-51.5 -68.5t-80 -41.5t-102.5 -14zM126 -240q-13 0 -25 1.5t-20 3.5v52q10 -2 20 -3t17 -1q26 0 42.5 6t25 18
t8.5 29q0 22 -17.5 32t-46.5 14l47 88h55l-27 -57q23 -7 42 -23.5t19 -53.5q0 -30 -16 -54t-47.5 -38t-76.5 -14z" />
    <glyph glyph-name="scedilla" unicode="&#x15f;" horiz-adv-x="413" 
d="M148 -10q-46 0 -81 9.5t-62 24.5l1 81q25 -16 62.5 -29.5t77.5 -13.5q37 0 62 10.5t38 30t13 44.5q0 19 -7.5 33.5t-25.5 29t-51 33.5q-35 22 -59 43.5t-36 47.5t-12 60q1 46 22.5 80t61.5 53t93 19q46 0 85.5 -11.5t68.5 -25.5l-28 -70q-25 12 -55.5 22.5t-71.5 10.5
q-40 0 -64 -20.5t-24 -53.5q0 -17 7 -30.5t25 -28t50 -34.5t57.5 -40t40 -46t13.5 -64q0 -54 -25 -91t-70 -55.5t-106 -18.5zM89 -240q-13 0 -25 1.5t-20 3.5v52q10 -2 20 -3t17 -1q26 0 42.5 6t25 18t8.5 29q0 22 -17.5 32t-46.5 14l47 88h55l-27 -57q23 -7 42 -23.5
t19 -53.5q0 -30 -16 -54t-47.5 -38t-76.5 -14z" />
    <glyph glyph-name="Scaron" unicode="&#x160;" horiz-adv-x="482" 
d="M176 -10q-49 0 -87.5 8t-70.5 24l1 88q20 -10 43.5 -20t52.5 -16t63 -6q32 0 60 7.5t49.5 24t34 41.5t12.5 60q0 26 -11 47t-34.5 41.5t-62.5 44.5q-34 22 -61.5 46.5t-43.5 56.5t-16 78q0 50 17.5 89t48.5 65.5t72 40.5t88 14q53 0 93.5 -11t77.5 -31l-35 -76
q-25 14 -61.5 26.5t-75.5 12.5q-28 0 -52 -8.5t-42 -24.5t-27.5 -39t-9.5 -52t10.5 -49t31.5 -36.5t53 -37.5q40 -25 70 -50t47 -57.5t17 -81.5q0 -54 -18 -95t-51.5 -68.5t-80 -41.5t-102.5 -14zM295 784q-8 26 -22 52.5t-28.5 51t-26.5 43.5v13h54q12 -10 24.5 -24.5
t25 -31.5t24.5 -35q29 27 59 50.5t55 40.5h58v-13q-16 -15 -43 -41.5t-53 -54.5t-40 -51h-87z" />
    <glyph glyph-name="scaron" unicode="&#x161;" horiz-adv-x="413" 
d="M148 -10q-46 0 -81 9.5t-62 24.5l1 81q25 -16 62.5 -29.5t77.5 -13.5q37 0 62 10.5t38 30t13 44.5q0 19 -7.5 33.5t-25.5 29t-51 33.5q-35 22 -59 43.5t-36 47.5t-12 60q1 46 22.5 80t61.5 53t93 19q46 0 85.5 -11.5t68.5 -25.5l-28 -70q-25 12 -55.5 22.5t-71.5 10.5
q-40 0 -64 -20.5t-24 -53.5q0 -17 7 -30.5t25 -28t50 -34.5t57.5 -40t40 -46t13.5 -64q0 -54 -25 -91t-70 -55.5t-106 -18.5zM219 606q-8 26 -22 52.5t-28.5 51t-26.5 43.5v13h54q12 -10 24.5 -24.5t25 -31.5t24.5 -35q29 27 59 50.5t55 40.5h58v-13q-16 -15 -43 -41.5
t-53 -54.5t-40 -51h-87z" />
    <glyph glyph-name="uni0162" unicode="&#x162;" horiz-adv-x="478" 
d="M143 0l133 635h-184l18 79h458l-16 -79h-185l-134 -635h-90zM124 -240q-13 0 -25 1.5t-20 3.5v52q10 -2 20 -3t17 -1q26 0 42.5 6t25 18t8.5 29q0 22 -17.5 32t-46.5 14l47 88h55l-27 -57q23 -7 42 -23.5t19 -53.5q0 -30 -16 -54t-47.5 -38t-76.5 -14z" />
    <glyph glyph-name="uni0163" unicode="&#x163;" horiz-adv-x="321" 
d="M177 -10q-52 0 -87 26t-35 91q1 15 3 33.5t6 37.5l61 291h-78l8 40l87 38l60 111h53l-27 -122h128l-14 -67h-128l-62 -292q-3 -13 -5.5 -29.5t-2.5 -30.5q-1 -23 10.5 -39t38.5 -16q17 0 33 3.5t35 9.5l-1 -67q-12 -6 -36.5 -12t-46.5 -6zM76 -240q-13 0 -25 1.5t-20 3.5
v52q10 -2 20 -3t17 -1q26 0 42.5 6t25 18t8.5 29q0 22 -17.5 32t-46.5 14l47 88h55l-27 -57q23 -7 42 -23.5t19 -53.5q0 -30 -16 -54t-47.5 -38t-76.5 -14z" />
    <glyph glyph-name="Tcaron" unicode="&#x164;" horiz-adv-x="478" 
d="M143 0l133 635h-184l18 79h458l-16 -79h-185l-134 -635h-90zM303 784q-8 26 -22 52.5t-28.5 51t-26.5 43.5v13h54q12 -10 24.5 -24.5t25 -31.5t24.5 -35q29 27 59 50.5t55 40.5h58v-13q-16 -15 -43 -41.5t-53 -54.5t-40 -51h-87z" />
    <glyph glyph-name="tcaron" unicode="&#x165;" horiz-adv-x="321" 
d="M306 610q11 17 24 43t25.5 54.5t19.5 49.5h83v-10q-6 -16 -22.5 -43t-38 -56t-42.5 -51h-49v13zM177 -10q-52 0 -87 26t-35 91q1 15 3 33.5t6 37.5l61 291h-78l8 40l87 38l60 111h53l-27 -122h128l-14 -67h-128l-62 -292q-3 -13 -5.5 -29.5t-2.5 -30.5q-1 -23 10.5 -39
t38.5 -16q17 0 33 3.5t35 9.5l-1 -67q-12 -6 -36.5 -12t-46.5 -6z" />
    <glyph glyph-name="Tbar" unicode="&#x166;" horiz-adv-x="478" 
d="M143 0l68 327h-129l17 73h127l50 235h-185l18 79h459l-17 -79h-184l-50 -235h132l-16 -73h-132l-69 -327h-89z" />
    <glyph glyph-name="tbar" unicode="&#x167;" horiz-adv-x="322" 
d="M177 -10q-52 0 -87 26t-34 91q0 15 2 33.5t6 37.5l21 104h-63l14 66h64l25 121h-78l9 40l86 38l60 111h53l-27 -122h129l-15 -67h-128l-25 -121h111l-13 -66h-113l-21 -105q-3 -13 -6 -29.5t-3 -30.5q0 -23 11.5 -39t37.5 -16q17 0 33 3.5t35 9.5l-1 -67
q-12 -6 -36.5 -12t-46.5 -6z" />
    <glyph glyph-name="Utilde" unicode="&#x168;" horiz-adv-x="644" 
d="M284 -10q-70 0 -116 22.5t-69 66.5t-23 106q0 18 3 43.5t10 54.5l92 431h88l-93 -436q-5 -24 -8 -49.5t-3 -41.5q0 -55 31.5 -86.5t94.5 -31.5q55 0 90.5 20.5t57.5 61t35 99.5l99 464h89l-100 -471q-16 -78 -49.5 -135t-89 -87.5t-139.5 -30.5zM277 784q9 42 24.5 70.5
t37.5 43t50 14.5q21 0 39.5 -8.5t34.5 -19t30 -19t27 -8.5q20 0 31.5 13t23.5 43h52q-10 -41 -26.5 -70t-38 -43.5t-49.5 -14.5q-19 0 -36 8.5t-33 19t-31.5 19t-30.5 8.5q-19 0 -31 -14t-22 -42h-52z" />
    <glyph glyph-name="utilde" unicode="&#x169;" horiz-adv-x="551" 
d="M179 -10q-38 0 -66.5 15t-44 44t-15.5 72q0 23 3.5 44t7.5 44l70 327h89l-71 -337q-5 -22 -7.5 -38.5t-2.5 -29.5q0 -31 15 -49.5t49 -18.5q33 0 69.5 24t68.5 77t51 141l49 231h86l-114 -536h-71l11 99h-4q-18 -24 -43 -49.5t-57 -42.5t-73 -17zM190 606q9 42 24.5 70.5
t37.5 43t50 14.5q21 0 39.5 -8.5t34.5 -19t30 -19t27 -8.5q20 0 31.5 13t23.5 43h52q-10 -41 -26.5 -70t-38 -43.5t-49.5 -14.5q-19 0 -36 8.5t-33 19t-31.5 19t-30.5 8.5q-19 0 -31 -14t-22 -42h-52z" />
    <glyph glyph-name="Umacron" unicode="&#x16a;" horiz-adv-x="644" 
d="M284 -10q-70 0 -116 22.5t-69 66.5t-23 106q0 18 3 43.5t10 54.5l92 431h88l-93 -436q-5 -24 -8 -49.5t-3 -41.5q0 -55 31.5 -86.5t94.5 -31.5q55 0 90.5 20.5t57.5 61t35 99.5l99 464h89l-100 -471q-16 -78 -49.5 -135t-89 -87.5t-139.5 -30.5zM306 784l16 71h257
l-15 -71h-258z" />
    <glyph glyph-name="umacron" unicode="&#x16b;" horiz-adv-x="551" 
d="M179 -10q-38 0 -66.5 15t-44 44t-15.5 72q0 23 3.5 44t7.5 44l70 327h89l-71 -337q-5 -22 -7.5 -38.5t-2.5 -29.5q0 -31 15 -49.5t49 -18.5q33 0 69.5 24t68.5 77t51 141l49 231h86l-114 -536h-71l11 99h-4q-18 -24 -43 -49.5t-57 -42.5t-73 -17zM219 606l16 71h257
l-15 -71h-258z" />
    <glyph glyph-name="Ubreve" unicode="&#x16c;" horiz-adv-x="644" 
d="M284 -10q-70 0 -116 22.5t-69 66.5t-23 106q0 18 3 43.5t10 54.5l92 431h88l-93 -436q-5 -24 -8 -49.5t-3 -41.5q0 -55 31.5 -86.5t94.5 -31.5q55 0 90.5 20.5t57.5 61t35 99.5l99 464h89l-100 -471q-16 -78 -49.5 -135t-89 -87.5t-139.5 -30.5zM436 784q-35 0 -62 12.5
t-42 37.5t-15 61v11.5t1 11.5h52q0 -19 7.5 -33t24 -21t43.5 -7q43 0 65.5 16.5t29.5 44.5h54q-16 -72 -56 -103t-102 -31z" />
    <glyph glyph-name="ubreve" unicode="&#x16d;" horiz-adv-x="551" 
d="M179 -10q-38 0 -66.5 15t-44 44t-15.5 72q0 23 3.5 44t7.5 44l70 327h89l-71 -337q-5 -22 -7.5 -38.5t-2.5 -29.5q0 -31 15 -49.5t49 -18.5q33 0 69.5 24t68.5 77t51 141l49 231h86l-114 -536h-71l11 99h-4q-18 -24 -43 -49.5t-57 -42.5t-73 -17zM349 606q-35 0 -62 12.5
t-42 37.5t-15 61v11.5t1 11.5h52q0 -19 7.5 -33t24 -21t43.5 -7q43 0 65.5 16.5t29.5 44.5h54q-16 -72 -56 -103t-102 -31z" />
    <glyph glyph-name="Uring" unicode="&#x16e;" horiz-adv-x="644" 
d="M284 -10q-70 0 -116 22.5t-69 66.5t-23 106q0 18 3 43.5t10 54.5l92 431h88l-93 -436q-5 -24 -8 -49.5t-3 -41.5q0 -55 31.5 -86.5t94.5 -31.5q55 0 90.5 20.5t57.5 61t35 99.5l99 464h89l-100 -471q-16 -78 -49.5 -135t-89 -87.5t-139.5 -30.5zM442 784
q-45 0 -73.5 27.5t-28.5 76.5q0 50 31 77.5t74 27.5q45 0 74 -27t29 -75q0 -52 -30.5 -79.5t-75.5 -27.5zM443 834q23 0 38 15t15 41q0 25 -14.5 39.5t-37.5 14.5q-22 0 -37 -15t-15 -41q0 -25 13 -39.5t38 -14.5z" />
    <glyph glyph-name="uring" unicode="&#x16f;" horiz-adv-x="551" 
d="M179 -10q-38 0 -66.5 15t-44 44t-15.5 72q0 23 3.5 44t7.5 44l70 327h89l-71 -337q-5 -22 -7.5 -38.5t-2.5 -29.5q0 -31 15 -49.5t49 -18.5q33 0 69.5 24t68.5 77t51 141l49 231h86l-114 -536h-71l11 99h-4q-18 -24 -43 -49.5t-57 -42.5t-73 -17zM355 606
q-45 0 -73.5 27.5t-28.5 76.5q0 50 31 77.5t74 27.5q45 0 74 -27t29 -75q0 -52 -30.5 -79.5t-75.5 -27.5zM356 656q23 0 38 15t15 41q0 25 -14.5 39.5t-37.5 14.5q-22 0 -37 -15t-15 -41q0 -25 13 -39.5t38 -14.5z" />
    <glyph glyph-name="Uhungarumlaut" unicode="&#x170;" horiz-adv-x="644" 
d="M284 -10q-70 0 -116 22.5t-69 66.5t-23 106q0 18 3 43.5t10 54.5l92 431h88l-93 -436q-5 -24 -8 -49.5t-3 -41.5q0 -55 31.5 -86.5t94.5 -31.5q55 0 90.5 20.5t57.5 61t35 99.5l99 464h89l-100 -471q-16 -78 -49.5 -135t-89 -87.5t-139.5 -30.5zM483 797q17 19 37 45
t39 53t33 49h89v-10q-10 -13 -27.5 -33t-39.5 -42t-44 -41.5t-40 -33.5h-47v13zM321 797q17 19 37 45t39 53t32 49h90v-10q-10 -13 -27.5 -33t-39.5 -42t-44 -41.5t-40 -33.5h-47v13z" />
    <glyph glyph-name="uhungarumlaut" unicode="&#x171;" horiz-adv-x="551" 
d="M179 -10q-38 0 -66.5 15t-44 44t-15.5 72q0 23 3.5 44t7.5 44l70 327h89l-71 -337q-5 -22 -7.5 -38.5t-2.5 -29.5q0 -31 15 -49.5t49 -18.5q33 0 69.5 24t68.5 77t51 141l49 231h86l-114 -536h-71l11 99h-4q-18 -24 -43 -49.5t-57 -42.5t-73 -17zM396 619q17 19 37 45
t39 53t33 49h89v-10q-10 -13 -27.5 -33t-39.5 -42t-44 -41.5t-40 -33.5h-47v13zM234 619q17 19 37 45t39 53t32 49h90v-10q-10 -13 -27.5 -33t-39.5 -42t-44 -41.5t-40 -33.5h-47v13z" />
    <glyph glyph-name="Uogonek" unicode="&#x172;" horiz-adv-x="644" 
d="M284 -10q-70 0 -116 22.5t-69 66.5t-23 106q0 18 3 43.5t10 54.5l92 431h88l-93 -436q-5 -24 -8 -49.5t-3 -41.5q0 -55 31.5 -86.5t94.5 -31.5q55 0 90.5 20.5t57.5 61t35 99.5l99 464h89l-100 -471q-16 -78 -49.5 -135t-89 -87.5t-139.5 -30.5zM270 -217q-37 0 -61 19.5
t-24 60.5q0 31 13 55t36 44t51 38h61q-19 -15 -39.5 -34.5t-35 -42t-15.5 -49.5q0 -17 8.5 -25t22.5 -8q10 0 20 1.5t19 2.5l-1 -55q-13 -4 -27 -5.5t-28 -1.5z" />
    <glyph glyph-name="uogonek" unicode="&#x173;" horiz-adv-x="551" 
d="M179 -10q-38 0 -66.5 15t-44 44t-15.5 72q0 23 3.5 44t7.5 44l70 327h89l-71 -337q-5 -22 -7.5 -38.5t-2.5 -29.5q0 -31 15 -49.5t49 -18.5q33 0 69.5 24t68.5 77t51 141l49 231h86l-114 -536h-71l11 99h-4q-18 -24 -43 -49.5t-57 -42.5t-73 -17zM343 -217
q-37 0 -61 19.5t-24 60.5q0 31 13 55t36 44t51 38h61q-19 -15 -39.5 -34.5t-35 -42t-15.5 -49.5q0 -17 8.5 -25t22.5 -8q10 0 20 1.5t19 2.5l-1 -55q-13 -4 -27 -5.5t-28 -1.5z" />
    <glyph glyph-name="Wcircumflex" unicode="&#x174;" horiz-adv-x="816" 
d="M128 0l-20 714h87l8 -435q1 -41 -1 -85t-5 -84h3q14 39 33.5 89.5t39.5 94.5l189 420h89l15 -418q1 -31 1.5 -65t0.5 -65t-1 -56h2q9 26 19 54.5t21 58t23 59.5l180 432h95l-315 -714h-92l-16 460q-1 33 -1.5 70.5t0.5 68.5h-3q-10 -30 -23 -61t-35 -81l-201 -457h-93z
M368 797q17 16 43.5 42t52 54.5t39.5 50.5h87q9 -26 23 -52.5t28.5 -50.5t26.5 -44v-13h-56q-11 11 -23.5 25t-25 31t-25.5 35q-28 -27 -57 -50.5t-54 -40.5h-59v13z" />
    <glyph glyph-name="wcircumflex" unicode="&#x175;" horiz-adv-x="691" 
d="M75 0l-15 536h86l4 -286q1 -55 -1.5 -99.5t-4.5 -73.5h4q7 21 18 49.5t23 57t21 49.5l135 303h96l11 -287q2 -37 1.5 -85.5t-2.5 -86.5h4q8 26 19.5 57.5t25.5 67t29 71.5l112 263h93l-242 -536h-105l-10 290q-1 27 -1 51.5t1 51.5t1 58h-4q-8 -24 -17 -46t-19.5 -46.5
t-25.5 -58.5l-134 -300h-103zM254 619q17 16 43.5 42t52 54.5t39.5 50.5h87q9 -26 23 -52.5t28.5 -50.5t26.5 -44v-13h-56q-11 11 -23.5 25t-25 31t-25.5 35q-28 -27 -57 -50.5t-54 -40.5h-59v13z" />
    <glyph glyph-name="Ycircumflex" unicode="&#x176;" horiz-adv-x="488" 
d="M142 0l58 268l-105 446h89l75 -358l223 358h101l-296 -449l-55 -265h-90zM195 797q17 16 43.5 42t52 54.5t39.5 50.5h87q9 -26 23 -52.5t28.5 -50.5t26.5 -44v-13h-56q-11 11 -23.5 25t-25 31t-25.5 35q-28 -27 -57 -50.5t-54 -40.5h-59v13z" />
    <glyph glyph-name="ycircumflex" unicode="&#x177;" horiz-adv-x="447" 
d="M-24 -240q-23 0 -37.5 3t-28.5 7l1 71q13 -4 28 -6.5t32 -2.5q39 0 66.5 25t52.5 73l33 62l-72 544h88l30 -265q4 -32 6 -70.5t3 -73t1 -55.5h3q6 16 19 48t28 66t26 56l150 294h94l-329 -626q-26 -50 -54 -83.5t-61.5 -50t-78.5 -16.5zM117 619q17 16 43.5 42t52 54.5
t39.5 50.5h87q9 -26 23 -52.5t28.5 -50.5t26.5 -44v-13h-56q-11 11 -23.5 25t-25 31t-25.5 35q-28 -27 -57 -50.5t-54 -40.5h-59v13z" />
    <glyph glyph-name="Ydieresis" unicode="&#x178;" horiz-adv-x="488" 
d="M142 0l58 268l-105 446h89l75 -358l223 358h101l-296 -449l-55 -265h-90zM426 809q-17 0 -29 11t-11 31q0 23 13.5 40t38.5 17q20 0 29.5 -11t9.5 -29q0 -28 -15.5 -43.5t-35.5 -15.5zM256 809q-19 0 -30.5 11t-11.5 31q0 23 13.5 40t38.5 17q14 0 22.5 -5t13 -14
t4.5 -21q-1 -28 -16 -43.5t-34 -15.5z" />
    <glyph glyph-name="Zacute" unicode="&#x179;" horiz-adv-x="505" 
d="M-11 0l14 70l424 564h-295l17 80h404l-14 -71l-424 -563h315l-17 -80h-424zM303 797q17 19 37 45t38.5 53t32.5 49h99v-10q-10 -13 -28 -33t-39.5 -42t-43.5 -41.5t-40 -33.5h-56v13z" />
    <glyph glyph-name="zacute" unicode="&#x17a;" horiz-adv-x="423" 
d="M-15 0l12 60l317 410h-216l15 66h312l-15 -71l-311 -399h239l-13 -66h-340zM231 619q17 19 37 45t38.5 53t32.5 49h99v-10q-10 -13 -28 -33t-39.5 -42t-43.5 -41.5t-40 -33.5h-56v13z" />
    <glyph glyph-name="Zdotaccent" unicode="&#x17b;" horiz-adv-x="505" 
d="M-11 0l14 70l424 564h-295l17 80h404l-14 -71l-424 -563h315l-17 -80h-424zM381 803q-20 0 -33.5 12.5t-13.5 34.5q0 26 15.5 45t43.5 19q15 0 25 -5.5t15 -15.5t5 -24q0 -31 -17.5 -48.5t-39.5 -17.5z" />
    <glyph glyph-name="zdotaccent" unicode="&#x17c;" horiz-adv-x="423" 
d="M-15 0l12 60l317 410h-216l15 66h312l-15 -71l-311 -399h239l-13 -66h-340zM300 625q-20 0 -33.5 12.5t-13.5 34.5q0 26 15.5 45t43.5 19q15 0 25 -5.5t15 -15.5t5 -24q0 -31 -17.5 -48.5t-39.5 -17.5z" />
    <glyph glyph-name="Zcaron" unicode="&#x17d;" horiz-adv-x="505" 
d="M-11 0l14 70l424 564h-295l17 80h404l-14 -71l-424 -563h315l-17 -80h-424zM318 784q-8 26 -22 52.5t-28.5 51t-26.5 43.5v13h54q12 -10 24.5 -24.5t25 -31.5t24.5 -35q29 27 59 50.5t55 40.5h58v-13q-16 -15 -43 -41.5t-53 -54.5t-40 -51h-87z" />
    <glyph glyph-name="zcaron" unicode="&#x17e;" horiz-adv-x="423" 
d="M-15 0l12 60l317 410h-216l15 66h312l-15 -71l-311 -399h239l-13 -66h-340zM237 606q-8 26 -22 52.5t-28.5 51t-26.5 43.5v13h54q12 -10 24.5 -24.5t25 -31.5t24.5 -35q29 27 59 50.5t55 40.5h58v-13q-16 -15 -43 -41.5t-53 -54.5t-40 -51h-87z" />
    <glyph glyph-name="longs" unicode="&#x17f;" horiz-adv-x="274" 
d="M-62 -240q-18 0 -33.5 3t-26.5 7l1 74q12 -4 24.5 -7.5t27.5 -3.5q29 0 50.5 28t33.5 86l135 640q15 69 38 107.5t57 54.5t81 16q25 0 50 -5.5t41 -13.5l-24 -67q-13 5 -29 9.5t-33 4.5q-24 0 -42 -9t-30 -32t-21 -65l-137 -650q-12 -55 -32 -95t-52 -61t-79 -21z" />
    <glyph glyph-name="uni0180" unicode="&#x180;" horiz-adv-x="551" 
d="M258 -10q-34 0 -59.5 13t-42.5 34t-27 45h-5l-32 -82h-66l128 605h-67l15 66h66l19 89h88l-19 -89h182l-14 -66h-182q-7 -35 -16 -73t-16 -65.5t-10 -30.5h4q23 30 48 54.5t54.5 39.5t64.5 15q41 0 72 -20t48.5 -60t17.5 -99q0 -58 -11 -113.5t-32.5 -103t-52 -83.5
t-69.5 -56t-86 -20zM250 63q30 0 56 17t47 46.5t35.5 68.5t22.5 82.5t8 88.5q0 53 -19.5 79.5t-58.5 26.5q-21 0 -43 -11.5t-42.5 -32t-38.5 -48.5t-31.5 -62t-21 -71.5t-7.5 -77.5q0 -47 23 -76.5t70 -29.5z" />
    <glyph glyph-name="uni0181" unicode="&#x181;" horiz-adv-x="646" 
d="M114 0l133 637h-18q-34 0 -53 -17.5t-19 -55.5q0 -7 1 -15.5t3 -15.5h-74q-3 6 -4.5 17t-1.5 20q0 43 17 75t52 50.5t89 18.5h203q63 0 108 -17t69 -52.5t24 -92.5q0 -49 -19 -86t-54 -61t-82 -33v-5q46 -13 76.5 -48.5t30.5 -94.5q0 -73 -34 -123t-93.5 -75.5
t-135.5 -25.5h-218zM336 76q53 0 90 17.5t56.5 50.5t19.5 80t-28.5 79.5t-96.5 32.5h-104l-54 -260h117zM398 410q42 0 76.5 14t55 43t20.5 73q0 47 -27.5 72t-91.5 25h-94l-47 -227h108z" />
    <glyph glyph-name="uni0182" unicode="&#x182;" horiz-adv-x="541" 
d="M39 0l151 714h346l-18 -79h-256l-46 -223h64q79 0 123.5 -23.5t63.5 -63t19 -87.5q0 -61 -20 -106t-56 -74.5t-86 -43.5t-110 -14h-175zM227 76q57 0 94 17.5t55 52t18 84.5q0 58 -30 81.5t-85 23.5h-80l-55 -259h83z" />
    <glyph glyph-name="uni0183" unicode="&#x183;" horiz-adv-x="552" 
d="M258 -10q-34 0 -59.5 13t-42.5 34t-27 45h-5l-32 -82h-66l161 760h373l-17 -74h-285l-21 -106q-7 -34 -15 -66.5t-14 -54t-8 -23.5h4q23 30 48 54.5t54.5 39.5t64.5 15q41 0 72 -20t48.5 -60t17.5 -99q0 -58 -11 -113.5t-32.5 -103t-52 -83.5t-69.5 -56t-86 -20zM250 63
q30 0 56 17t47 46.5t35.5 68.5t22.5 82.5t8 88.5q0 53 -19.5 79.5t-58.5 26.5q-21 0 -43 -11.5t-42.5 -32t-38.5 -48.5t-31.5 -62t-21 -71.5t-7.5 -77.5q0 -47 23 -76.5t70 -29.5z" />
    <glyph glyph-name="uni0184" unicode="&#x184;" horiz-adv-x="568" 
d="M263 -10q-68 0 -111.5 19.5t-64 55t-20.5 83.5q0 14 1.5 30t5.5 32l107 504h89l-64 -302h96q76 0 123 -23.5t69 -64t22 -91.5q0 -55 -17.5 -99.5t-50.5 -76.5t-80 -49.5t-105 -17.5zM265 67q34 0 63 10t51 30t34 50.5t12 70.5q0 37 -16 60.5t-47.5 35t-76.5 11.5h-96
l-26 -125q-3 -16 -5 -29.5t-2 -25.5q0 -45 27.5 -66.5t81.5 -21.5z" />
    <glyph glyph-name="uni0185" unicode="&#x185;" horiz-adv-x="545" 
d="M240 -10q-53 0 -92.5 20t-61.5 61t-22 103q0 21 3.5 44.5t8.5 48.5l105 493h88l-39 -185q-5 -22 -12 -50.5t-13 -53t-10 -35.5h3q19 24 43 49t54 42.5t66 17.5q46 0 77.5 -21t48 -61.5t16.5 -100.5q0 -57 -10.5 -111.5t-32 -101.5t-53 -83t-73.5 -56t-94 -20zM242 63
q33 0 60 18t48 49t35 70t21 81.5t7 82.5q0 54 -19 81t-59 27q-25 0 -48 -13t-43.5 -36t-37.5 -52.5t-29.5 -62.5t-19 -67t-6.5 -65q0 -55 23 -84t68 -29z" />
    <glyph glyph-name="uni0186" unicode="&#x186;" horiz-adv-x="559" 
d="M288 724q75 0 128.5 -32.5t82 -93t28.5 -143.5q0 -65 -14.5 -130.5t-44 -125.5t-74 -107t-104 -74.5t-134.5 -27.5q-50 0 -91 10t-77 30l37 74q25 -14 57 -24.5t75 -10.5q56 0 100.5 22t77.5 60.5t55 88t32.5 104t10.5 108.5q0 89 -43 141t-119 52q-39 0 -76.5 -8
t-74.5 -21l1 78q37 14 75.5 22t91.5 8z" />
    <glyph glyph-name="uni0187" unicode="&#x187;" horiz-adv-x="559" 
d="M309 -10q-75 0 -128.5 32.5t-82 93t-28.5 143.5q0 65 14.5 130.5t44 125.5t74 107t104 74.5t134.5 27.5q27 0 51 -3t46 -10l7 33q14 65 45.5 89.5t73.5 24.5q17 0 31 -3t21 -8v-73q-11 4 -22 6.5t-22 2.5q-22 0 -34 -12.5t-20 -44.5l-29 -122q-26 14 -65 27.5t-84 13.5
q-56 0 -100.5 -22t-77.5 -60.5t-55 -88t-32.5 -104t-10.5 -108.5q0 -89 43 -141t119 -52q39 0 76.5 8t74.5 21l-1 -78q-37 -14 -75.5 -22t-91.5 -8z" />
    <glyph glyph-name="uni0188" unicode="&#x188;" horiz-adv-x="433" 
d="M234 -10q-55 0 -97.5 22t-66 65.5t-23.5 109.5q0 58 12 111t35 98t56 79t75 52.5t92 18.5q14 0 27.5 -1.5t26.5 -3.5l23 110q14 66 45.5 90t74.5 24q16 0 30 -3t22 -8l-1 -73q-10 4 -21 6.5t-23 2.5q-21 0 -33 -12t-19 -45l-41 -190q-26 14 -52 21.5t-58 7.5t-60 -14.5
t-50.5 -41t-38 -62t-24 -77.5t-8.5 -88q0 -40 13 -68t37 -43t58 -15t64 10t59 23v-74q-27 -14 -60.5 -23t-73.5 -9z" />
    <glyph glyph-name="uni0189" unicode="&#x189;" horiz-adv-x="635" 
d="M357 392l-18 -77h-305l18 77h305zM38 0l151 714h162q122 0 190.5 -69t68.5 -211q0 -75 -17 -141t-50 -119.5t-82 -92.5t-112.5 -60t-140.5 -21h-170zM214 77q59 0 106.5 17.5t84 50t61.5 77t37.5 98.5t12.5 114q0 107 -48 155t-128 48h-79l-117 -560h70z" />
    <glyph glyph-name="uni018A" unicode="&#x18a;" horiz-adv-x="709" 
d="M113 0l133 637h-18q-34 0 -53 -17.5t-19 -55.5q0 -7 1 -15.5t3 -15.5h-74q-3 6 -4.5 17t-1.5 20q0 43 17 75t52 50.5t89 18.5h188q122 0 190 -69t68 -211q0 -75 -17 -141t-50 -119.5t-81.5 -92.5t-112 -60t-140.5 -21h-170zM289 77q59 0 106.5 17.5t84 50t61.5 77
t37.5 98.5t12.5 114q0 107 -48.5 155t-128.5 48h-78l-118 -560h71z" />
    <glyph glyph-name="uni018B" unicode="&#x18b;" horiz-adv-x="543" 
d="M250 0q-72 0 -117 22t-66 61.5t-21 91.5q0 58 19.5 102t57.5 74t93.5 45.5t126.5 15.5h60l46 223h-286l18 79h373l-151 -714h-153zM261 77h70l54 258h-57q-57 0 -100 -16.5t-67 -51t-24 -88.5q0 -53 33 -77.5t91 -24.5z" />
    <glyph glyph-name="uni018C" unicode="&#x18c;" horiz-adv-x="551" 
d="M183 -10q-40 0 -70.5 20t-48 60t-17.5 100q0 59 11.5 114t33 102.5t52.5 83t70.5 55.5t85.5 20q34 0 58.5 -13t41.5 -33.5t27 -45.5h4q3 23 6 44t7 42.5t9 45.5l21 101h-284l16 74h371l-161 -760h-71l11 99h-4q-22 -30 -48 -55t-55.5 -39.5t-65.5 -14.5zM215 63
q21 0 43 11.5t42.5 32t38 48.5t31 62t21 71.5t7.5 77.5q0 47 -21.5 76.5t-70.5 29.5q-30 0 -55.5 -17t-46.5 -46.5t-36 -68.5t-23 -82.5t-8 -88.5q0 -53 20 -79.5t58 -26.5z" />
    <glyph glyph-name="uni018D" unicode="&#x18d;" horiz-adv-x="554" 
d="M379 766q63 0 104.5 -26t62.5 -68.5t21 -94.5q0 -76 -30 -132t-84.5 -93.5t-127.5 -57.5q32 -27 55.5 -62.5t23.5 -84.5q0 -45 -21.5 -80.5t-61 -55.5t-92.5 -20q-56 0 -97 18t-69 38l35 63q25 -16 58.5 -32t74.5 -16q46 0 67.5 23t21.5 61q0 25 -9.5 43.5t-27.5 36
t-43 39.5q-32 27 -58 59t-41.5 72t-15.5 92q0 55 16.5 105t48.5 89t79.5 61.5t109.5 22.5zM369 693q-36 0 -64.5 -16t-48.5 -44t-30.5 -65t-10.5 -79q0 -58 18.5 -93.5t43.5 -58.5q41 10 77 29t64 47t43.5 66t15.5 86q0 60 -28 94t-80 34z" />
    <glyph glyph-name="uni018E" unicode="&#x18e;" horiz-adv-x="490" 
d="M3 0l18 79h258l53 255h-241l16 78h241l47 223h-259l18 79h347l-151 -714h-347z" />
    <glyph glyph-name="uni018F" unicode="&#x18f;" horiz-adv-x="627" 
d="M235 -10q-69 0 -112 22.5t-63.5 60.5t-20.5 84q0 56 22.5 99.5t71.5 73t128.5 45t194.5 15.5h48q2 18 3 28t1 26q0 58 -16.5 103.5t-51.5 72t-89 26.5q-57 0 -105.5 -13t-91.5 -33l1 82q41 18 89 30.5t116 12.5q82 0 135 -35t79 -97t26 -143q0 -76 -17.5 -144.5
t-50.5 -126t-78.5 -100t-100.5 -66t-118 -23.5zM236 70q44 0 82.5 16t71 47t58 76.5t41.5 103.5h-53q-88 0 -146.5 -11.5t-92.5 -32t-48.5 -48.5t-14.5 -61q0 -25 10.5 -45.5t33.5 -32.5t58 -12z" />
    <glyph glyph-name="uni0190" unicode="&#x190;" horiz-adv-x="516" 
d="M253 -10q-77 0 -126 24t-72 65t-23 90q0 69 26.5 111.5t72.5 65t105 31.5l1 4q-46 12 -74 47t-28 90q0 41 11.5 73.5t33 57.5t50 41.5t63.5 25t73 8.5q44 0 75.5 -7t60.5 -22t62 -40l-42 -61q-34 27 -70 41.5t-88 14.5q-30 0 -55.5 -8.5t-44 -26t-29 -43t-10.5 -59.5
q0 -32 14 -56t45 -37t81 -13h82l-16 -75h-87q-50 0 -90.5 -8.5t-69 -27.5t-44 -49t-15.5 -72q0 -52 34 -81.5t100 -29.5q47 0 97 14t95 36l-1 -82q-29 -14 -60 -23.5t-65 -14t-72 -4.5z" />
    <glyph glyph-name="uni0191" unicode="&#x191;" horiz-adv-x="557" 
d="M63 -242q-71 0 -108.5 37t-37.5 96q0 20 4 38t12 33l74 -29q-4 -13 -5 -22.5t-1 -17.5q0 -30 15.5 -46.5t43.5 -16.5q35 0 52.5 26t25.5 65l171 793h326l-16 -79h-239l-45 -223h222l-18 -79h-221l-91 -413q-10 -45 -29 -81.5t-51.5 -58.5t-83.5 -22z" />
    <glyph glyph-name="florin" unicode="&#x192;" horiz-adv-x="406" 
d="M47 -241q-56 0 -92 31.5t-36 84.5q0 17 3 35t10 31l77 -20q-3 -8 -4.5 -19t-1.5 -22q0 -22 12.5 -35.5t34.5 -13.5q33 0 50.5 24.5t27.5 70.5l112 543h-88l8 37l94 33l11 48q12 51 27.5 85.5t37 55t49 29t62.5 8.5q25 0 50 -5.5t41 -13.5l-24 -67q-13 5 -28.5 9.5
t-34.5 4.5q-36 0 -57.5 -22t-35.5 -84l-11 -51h109l-14 -67h-109l-114 -548q-9 -45 -27.5 -82t-51 -58.5t-87.5 -21.5z" />
    <glyph glyph-name="uni0193" unicode="&#x193;" horiz-adv-x="645" 
d="M324 -10q-120 0 -187 70t-67 195q0 79 17.5 149.5t50 129t78 101t103 66t124.5 23.5q37 0 67 -5t57 -13l9 39q15 65 46 89t73 24q17 0 30.5 -3t21.5 -8l-1 -73q-10 4 -21 6.5t-23 2.5q-21 0 -33 -12.5t-20 -44.5l-30 -125q-45 21 -87.5 32.5t-90.5 11.5q-60 0 -110.5 -28
t-88 -79.5t-58 -121.5t-20.5 -154q0 -54 18 -98t56 -69.5t97 -25.5q35 0 64.5 5.5t49.5 12.5l45 211h-132l18 78h221l-77 -349q-43 -16 -90.5 -26.5t-109.5 -10.5z" />
    <glyph glyph-name="uni0194" unicode="&#x194;" horiz-adv-x="527" 
d="M162 -240q-45 0 -70 31t-25 77q0 33 13 70t38.5 79t61.5 90l-86 607h89l45 -369q4 -27 6.5 -54t5 -53.5t2.5 -50.5q13 35 32.5 76t41.5 80l206 371h100l-350 -613q11 -48 16 -89t5 -77q0 -75 -33 -125t-98 -50zM169 -162q18 0 28.5 17.5t15 43t4.5 49.5q0 12 -1 25
t-3 26.5t-5 25.5q-22 -34 -35 -63t-19 -51.5t-6 -38.5q0 -17 5.5 -25.5t15.5 -8.5z" />
    <glyph glyph-name="uni0195" unicode="&#x195;" horiz-adv-x="837" 
d="M525 -10q-82 0 -125.5 38.5t-43.5 105.5q0 12 2.5 25.5t4.5 26.5l30 150q5 25 7 40t2 27q0 32 -14.5 50.5t-46.5 18.5q-24 0 -49 -13t-49.5 -41.5t-45 -74.5t-34.5 -112l-49 -231h-88l161 760h88l-42 -197q-4 -20 -10 -41.5t-11.5 -43t-11.5 -42.5h5q18 25 41.5 50t54 42
t68.5 17q56 0 89 -33.5t33 -101.5q0 -20 -3 -40.5t-8 -43.5l-28 -134q-3 -14 -5 -25t-2 -21q0 -40 22.5 -61.5t65.5 -21.5q37 0 62 16t41.5 49.5t27.5 86.5l68 321h89l-69 -327q-17 -80 -45.5 -128t-73 -69.5t-108.5 -21.5z" />
    <glyph glyph-name="uni0196" unicode="&#x196;" horiz-adv-x="301" 
d="M167 -10q-50 0 -83.5 25.5t-33.5 89.5q0 16 3 34.5t7 40.5l113 534h88l-114 -537q-2 -14 -5 -30t-3 -30q0 -24 10.5 -39.5t37.5 -15.5q16 0 31.5 3.5t34.5 9.5l-1 -67q-13 -6 -37.5 -12t-47.5 -6z" />
    <glyph glyph-name="uni0197" unicode="&#x197;" horiz-adv-x="311" 
d="M-20 0l11 49l81 20l54 258h-80l18 78h78l50 240l-72 19l11 50h242l-10 -50l-83 -19l-50 -240h81l-18 -78h-80l-53 -258l73 -20l-11 -49h-242z" />
    <glyph glyph-name="uni0198" unicode="&#x198;" horiz-adv-x="548" 
d="M38 0l151 714h89l-74 -347l60 66l200 221q25 28 45 42t38 19t37 5q14 0 26.5 -3t19.5 -6l-1 -71q-10 2 -18.5 3.5t-18.5 1.5q-16 0 -32 -9.5t-44 -39.5l-182 -196l154 -400h-98l-126 346l-78 -61l-59 -285h-89z" />
    <glyph glyph-name="uni0199" unicode="&#x199;" horiz-adv-x="475" 
d="M157 625q14 69 44.5 104.5t91.5 35.5q17 0 33 -4t23 -9v-73q-8 4 -21.5 7t-28.5 3q-19 0 -32.5 -13t-20.5 -45l-37 -173q-16 -80 -28 -123.5t-17 -57.5h2l242 259h103l-222 -230l133 -306h-97l-103 251l-68 -57l-40 -194h-89z" />
    <glyph glyph-name="uni019A" unicode="&#x19a;" horiz-adv-x="248" 
d="M25 0l75 354h-61l14 66h62l72 340h88l-73 -340h63l-14 -66h-64l-74 -354h-88z" />
    <glyph glyph-name="uni019B" unicode="&#x19b;" horiz-adv-x="473" 
d="M373 -10q-27 0 -46 9.5t-30 32t-15 61.5l-16 189q-3 32 -5 72.5t-2 77.5q-13 -34 -26 -65.5t-30 -61.5l-162 -305h-93l294 525l-7 63l-98 -32l-17 60l103 34q-7 20 -20.5 31.5t-35.5 11.5q-13 0 -25 -1.5t-23 -3.5l-10 70q14 3 32 5.5t36 2.5q37 0 62 -10t41 -30t25 -51
l91 31l16 -61l-97 -32l49 -499q2 -16 6 -28t11.5 -18.5t17.5 -6.5q6 0 15 1.5t17 4.5l-1 -66q-10 -4 -26 -7.5t-31 -3.5z" />
    <glyph glyph-name="uni019C" unicode="&#x19c;" horiz-adv-x="913" 
d="M217 -10q-66 0 -109 39t-43 116q0 14 2 30t6 33l107 506h89l-107 -506q-3 -14 -5 -26.5t-2 -24.5q0 -43 20.5 -66t60.5 -23q51 0 85.5 22.5t57.5 65.5t36 106l95 452h90l-107 -506q-3 -14 -5 -27t-2 -25q0 -41 20 -64.5t60 -23.5q53 0 87.5 27t56.5 75.5t35 111.5l91 432
h88l-151 -714h-65l7 82h-4q-30 -46 -72.5 -69t-96.5 -23q-34 0 -60.5 11t-44 33t-26.5 56h-4q-24 -34 -53.5 -56t-63.5 -33t-73 -11z" />
    <glyph glyph-name="uni019D" unicode="&#x19d;" horiz-adv-x="675" 
d="M-38 -240q-16 0 -31.5 4.5t-24.5 10.5l1 76q8 -4 18.5 -8t22.5 -4q26 0 44 17.5t28 64.5l168 793h96l198 -590h3q2 18 6 41.5t8.5 50t10 53.5t10.5 52l84 393h83l-151 -714h-95l-200 592h-3q-2 -16 -5.5 -39.5t-8.5 -52t-10.5 -58t-11.5 -56.5l-101 -480
q-10 -46 -27.5 -79t-44.5 -50t-67 -17z" />
    <glyph glyph-name="uni019E" unicode="&#x19e;" horiz-adv-x="552" 
d="M405 336q5 23 8 39.5t3 30.5q0 30 -16 48t-50 18q-32 0 -68.5 -23.5t-68.5 -76.5t-51 -141l-48 -231h-88l114 536h71l-11 -99h5q19 25 43 50t56 42t72 17q39 0 67.5 -15t44.5 -43.5t16 -71.5q0 -24 -4 -47.5t-8 -42.5l-121 -566h-88z" />
    <glyph glyph-name="uni019F" unicode="&#x19f;" horiz-adv-x="685" 
d="M319 -10q-81 0 -136.5 33.5t-84 96t-28.5 147.5q0 62 11 119.5t31.5 108.5t51 93t69 73t85.5 47.5t101 16.5q116 0 178.5 -75t62.5 -206q0 -62 -10.5 -119.5t-30 -108t-48 -92t-66.5 -71.5t-84.5 -46.5t-101.5 -16.5zM323 69q44 0 81 19.5t66.5 54t50 81t32.5 101.5h-386
q-1 -13 -2.5 -27.5t-1.5 -28.5q0 -63 19 -107.5t55 -68.5t86 -24zM564 403q1 10 1.5 20.5t0.5 22.5q0 95 -40.5 147.5t-113.5 52.5q-43 0 -80 -18t-66.5 -50.5t-51 -77t-33.5 -97.5h383z" />
    <glyph glyph-name="Ohorn" unicode="&#x1a0;" horiz-adv-x="687" 
d="M319 -10q-81 0 -136.5 33.5t-84 96t-28.5 147.5q0 62 11 119.5t31.5 108.5t51 93t69 73t85.5 47.5t101 16.5q70 0 120.5 -27.5t81.5 -78.5q40 18 58 53t26 88h95l4 -11q-17 -67 -55 -109.5t-106 -71.5q8 -27 12.5 -58t4.5 -66q0 -62 -10 -119.5t-29.5 -108t-48 -92
t-66.5 -71.5t-85 -46.5t-102 -16.5zM323 69q37 0 69.5 14t59.5 39t48 59.5t36 77t22.5 90t7.5 97.5q0 95 -40.5 147.5t-113.5 52.5q-37 0 -70 -13.5t-60.5 -38t-49.5 -59t-37 -76.5t-23 -90t-8 -100q0 -63 19 -107.5t54.5 -68.5t85.5 -24z" />
    <glyph glyph-name="ohorn" unicode="&#x1a1;" horiz-adv-x="544" 
d="M235 -8q-87 0 -137.5 54.5t-50.5 148.5q0 49 10.5 99t31.5 94.5t52.5 79.5t73 55t92.5 20q50 0 88.5 -18t61.5 -52q30 13 47.5 34t27 49.5t14.5 61.5h94l3 -11q-10 -44 -30 -78t-52 -59t-79 -43q7 -19 10 -41t3 -47q0 -49 -10.5 -98.5t-31.5 -94t-52 -79.5t-72.5 -55
t-93.5 -20zM242 65q27 0 51.5 12.5t45 36t35.5 58t23.5 79t8.5 97.5q0 29 -10 57t-31.5 46.5t-58.5 18.5q-31 0 -57.5 -14.5t-47.5 -40t-35.5 -60.5t-22 -76t-7.5 -86q0 -61 27.5 -94.5t78.5 -33.5z" />
    <glyph glyph-name="uni01A2" unicode="&#x1a2;" horiz-adv-x="961" 
d="M317 -10q-79 0 -134.5 33t-84 94.5t-28.5 145.5q0 62 11 120t31.5 110t50.5 94t68.5 73t85 48t99.5 17q61 0 108 -23t77 -66q36 40 84 64.5t100 24.5q50 0 84.5 -18.5t52.5 -52.5t18 -82q0 -15 -2 -31.5t-6 -33.5l-106 -507h-89l107 507q3 15 5 28.5t2 25.5
q0 43 -21 64.5t-62 21.5t-76.5 -19.5t-61.5 -45.5q11 -28 16.5 -62t5.5 -72q0 -62 -9.5 -119.5t-29 -109t-47.5 -93.5t-65.5 -72.5t-83.5 -47t-100 -16.5zM321 69q36 0 67 14t57.5 39.5t47 60.5t35 77.5t22 90.5t7.5 98q0 94 -40.5 145.5t-107.5 51.5q-36 0 -68.5 -13.5
t-59.5 -38.5t-49 -59.5t-37 -77t-23 -91t-8 -100.5q0 -62 19 -106t54.5 -67.5t83.5 -23.5z" />
    <glyph glyph-name="uni01A3" unicode="&#x1a3;" horiz-adv-x="763" 
d="M620 345q3 17 5 31t2 26q0 36 -15.5 53t-45.5 17q-27 0 -51.5 -12.5t-43.5 -35.5q5 -19 8 -40t3 -45q0 -49 -10.5 -98.5t-31 -94t-51.5 -79.5t-71.5 -55t-90.5 -20q-85 0 -132.5 54.5t-47.5 148.5q0 49 10.5 99t31.5 94.5t52.5 79.5t73 55t92.5 20q47 0 82.5 -18
t57.5 -53q31 37 69 55.5t76 18.5q40 0 67 -16t41.5 -46t14.5 -72q0 -14 -1.5 -30t-4.5 -33l-124 -589h-90zM233 65q26 0 49.5 12.5t43.5 36t35 58t23 79t8 97.5q0 29 -8 57t-27 46.5t-51 18.5q-31 0 -57.5 -14.5t-47.5 -40t-35.5 -60.5t-22 -76.5t-7.5 -86.5q0 -61 24.5 -94
t72.5 -33z" />
    <glyph glyph-name="uni01A4" unicode="&#x1a4;" horiz-adv-x="616" 
d="M112 0l133 637h-17q-34 0 -53 -17.5t-19 -55.5q0 -7 1 -15.5t3 -15.5h-74q-3 6 -4.5 17t-1.5 20q0 43 17 75t52 50.5t89 18.5h180q74 0 118.5 -23t65 -64t20.5 -96q0 -61 -19.5 -108t-58 -79t-94.5 -48.5t-129 -16.5h-62l-58 -279h-89zM335 354q60 0 104 18.5t68 57
t24 97.5t-31 84.5t-93 25.5h-72l-59 -283h59z" />
    <glyph glyph-name="uni01A5" unicode="&#x1a5;" horiz-adv-x="551" 
d="M158 625q15 71 44.5 105.5t90.5 34.5q17 0 33 -4t23 -9v-73q-8 4 -21.5 7t-28.5 3q-19 0 -33 -14t-20 -46l-9 -48q-8 -43 -18.5 -80t-18.5 -65h4q23 30 48.5 54.5t55 39.5t64.5 15q62 0 99.5 -45.5t37.5 -134.5q0 -58 -11 -113t-32 -102.5t-51.5 -83.5t-69.5 -56t-86 -20
q-34 0 -59.5 13t-43 34t-28.5 45h-4q-1 -15 -5 -44t-8 -47l-48 -231h-87zM250 63q30 0 56 17t47 46.5t35.5 68.5t22.5 82.5t8 88.5q0 53 -20 79.5t-58 26.5q-25 0 -51 -16t-50 -44.5t-42.5 -66.5t-29.5 -83t-11 -93q0 -47 22 -76.5t71 -29.5z" />
    <glyph glyph-name="uni01A6" unicode="&#x1a6;" horiz-adv-x="547" 
d="M368 -100l-93 295h-108l-41 -195h-88l151 714h89l-21 -100h61q70 0 116 -20t69 -59.5t23 -98.5q0 -52 -17 -95.5t-54 -75.5t-98 -50l109 -315h-98zM256 271q47 0 80.5 11.5t55.5 32.5t32.5 50t10.5 64q0 59 -32 83t-94 24h-70l-55 -265h72z" />
    <glyph glyph-name="uni01A7" unicode="&#x1a7;" horiz-adv-x="482" 
d="M217 -10q-60 0 -104.5 20t-68.5 58t-24 93q0 57 19.5 95.5t52 64t72.5 43t82 33.5q57 22 94 42t55 47t18 69q0 41 -26.5 65.5t-73.5 24.5q-24 0 -47 -5t-45 -13t-45 -19l-26 76q26 12 54 21t59 14t62 5q56 0 96.5 -21.5t62.5 -59t22 -86.5q0 -67 -28.5 -110t-77 -72
t-110.5 -53q-63 -25 -103 -44.5t-58.5 -44t-18.5 -66.5q0 -45 30.5 -72t84.5 -27q33 0 62 5t54.5 13.5t49.5 18.5v-78q-34 -17 -77.5 -27t-96.5 -10z" />
    <glyph glyph-name="uni01A8" unicode="&#x1a8;" horiz-adv-x="413" 
d="M179 -10q-79 0 -123.5 38t-44.5 106q0 56 27 90t68 53t82 31q55 16 84.5 29.5t41 30.5t11.5 42q0 29 -19.5 46.5t-57.5 17.5q-29 0 -61 -10t-64 -24l-22 69q38 17 77.5 27t79.5 10q73 0 113.5 -35t40.5 -96q0 -55 -24 -87.5t-65.5 -52t-96.5 -36.5q-35 -10 -64 -22.5
t-46 -31.5t-17 -51q0 -33 22 -53t67 -20q41 0 76.5 12.5t67.5 28.5l-1 -77q-21 -11 -43.5 -19t-49 -12t-59.5 -4z" />
    <glyph glyph-name="uni01A9" unicode="&#x1a9;" horiz-adv-x="498" 
d="M-15 0l15 73l251 296l-126 274l15 71h403l-18 -79h-304l125 -273l-240 -283h330l-17 -79h-434z" />
    <glyph glyph-name="uni01AA" unicode="&#x1aa;" horiz-adv-x="282" 
d="M140 -240q-33 0 -60 11t-42.5 36.5t-15.5 67.5q0 16 2.5 35.5t7.5 41.5l127 595h-24q-36 0 -60 14t-35.5 37.5t-11.5 51.5q0 35 14 62t43.5 42.5t73.5 15.5q53 0 80 -30.5t27 -78.5q0 -10 -1 -20t-3 -21l-143 -673q-3 -14 -5.5 -30t-2.5 -30q0 -24 10.5 -39.5t37.5 -15.5
q16 0 32 3.5t35 9.5l-1 -67q-13 -6 -37.5 -12t-47.5 -6zM144 619h30l3 13q2 7 2.5 14t0.5 12q0 19 -8.5 29.5t-25.5 10.5q-20 0 -31 -12t-11 -30q0 -19 11.5 -28t28.5 -9z" />
    <glyph glyph-name="uni01AB" unicode="&#x1ab;" horiz-adv-x="321" 
d="M106 -240q-16 0 -30.5 3.5t-22.5 7.5l1 73q11 -4 22 -6.5t22 -2.5q15 0 24.5 5t16.5 17.5t11 34.5l21 98q-50 2 -83 28t-33 87q0 16 2.5 34.5t6.5 38.5l61 291h-78l8 40l87 38l60 111h53l-27 -122h128l-14 -67h-128l-62 -292q-3 -13 -5.5 -30t-2.5 -31q0 -22 11.5 -38
t37.5 -16q17 0 37 3.5t39 9.5l-43 -201q-9 -44 -26.5 -69t-41 -35t-52.5 -10z" />
    <glyph glyph-name="uni01AC" unicode="&#x1ac;" horiz-adv-x="516" 
d="M180 0l134 635h-86q-35 0 -53.5 -16.5t-18.5 -54.5q0 -7 1 -15.5t3 -15.5h-74q-3 6 -4.5 17t-1.5 20q0 43 17 75t52 50.5t89 18.5h368l-17 -79h-185l-134 -635h-90z" />
    <glyph glyph-name="uni01AD" unicode="&#x1ad;" horiz-adv-x="321" 
d="M177 -10q-52 0 -87 25.5t-35 89.5q0 16 2.5 34.5t6.5 38.5l61 291h-78l8 40l88 39l14 63q12 52 30.5 86t48.5 51t76 17q20 0 38 -4t28 -9v-73q-9 3 -26 6.5t-36 3.5q-30 0 -47 -17.5t-24 -50.5l-17 -85h128l-14 -67h-128l-62 -292q-3 -13 -5.5 -30t-2.5 -31
q0 -22 11.5 -38t37.5 -16q17 0 33 3.5t35 9.5l-1 -67q-12 -6 -36.5 -12t-46.5 -6z" />
    <glyph glyph-name="uni01AE" unicode="&#x1ae;" horiz-adv-x="478" 
d="M231 -240q-50 0 -81 28.5t-31 81.5q0 11 1.5 22.5t5.5 24.5l150 718h-184l18 79h458l-16 -79h-185l-150 -714q-2 -11 -3 -19.5t-1 -16.5q0 -23 12 -34.5t33 -11.5q11 0 22 3t20 7l-1 -76q-10 -6 -29 -9.5t-39 -3.5z" />
    <glyph glyph-name="Uhorn" unicode="&#x1af;" horiz-adv-x="694" 
d="M287 -10q-70 0 -117 23t-70.5 67.5t-23.5 106.5q0 19 3.5 45t8.5 51l92 431h89l-93 -437q-6 -25 -8.5 -46.5t-2.5 -37.5q0 -56 29.5 -90t96.5 -34q53 0 88.5 20t58.5 60.5t36 101.5l99 463h89l-21 -96q25 6 44 22t32 45.5t20 74.5h94l4 -11q-9 -40 -27.5 -72t-45 -56
t-60.5 -40t-74 -24l-66 -314q-16 -78 -49 -135t-88 -87.5t-138 -30.5z" />
    <glyph glyph-name="uhorn" unicode="&#x1b0;" horiz-adv-x="601" 
d="M179 -10q-39 0 -67 15.5t-43.5 45.5t-15.5 75q0 20 4 40.5t8 42.5l69 327h89l-72 -337q-4 -22 -6.5 -38t-2.5 -27q0 -34 15 -52.5t49 -18.5q33 0 69.5 24t69 77.5t50.5 140.5l49 231h86l-12 -61q26 6 45 22t32 46t20 75h94l4 -11q-9 -40 -28 -72.5t-46 -56.5t-61 -40
t-74 -24l-88 -414h-71l12 99h-5q-18 -24 -43 -49.5t-57 -42.5t-73 -17z" />
    <glyph glyph-name="uni01B1" unicode="&#x1b1;" horiz-adv-x="695" 
d="M325 -11q-84 0 -140.5 35.5t-84.5 97t-28 138.5q0 64 16 119.5t44 102.5t65 85.5t79 67.5h-161l17 79h275l-15 -70q-48 -31 -89.5 -70t-72 -86.5t-47.5 -104.5t-17 -123q0 -54 18 -97.5t55 -69t94 -25.5q45 0 81.5 17t64.5 47t47.5 70t29 87t9.5 98q0 91 -24.5 151
t-67.5 106l15 70h267l-17 -79h-170q24 -24 44.5 -59t33.5 -82.5t13 -110.5t-14.5 -121.5t-42.5 -108t-68.5 -86.5t-93 -57.5t-115.5 -20.5z" />
    <glyph glyph-name="uni01B2" unicode="&#x1b2;" horiz-adv-x="644" 
d="M284 -10q-70 0 -116 22.5t-69 66.5t-23 106q0 18 3 43.5t10 54.5l92 431h88l-93 -436q-5 -24 -8 -49.5t-3 -41.5q0 -55 31.5 -86.5t94.5 -31.5q55 0 90.5 20.5t57.5 61t35 99.5l65 303q2 11 3.5 20.5t1.5 17.5q0 27 -13 40.5t-36 13.5q-15 0 -31 -4.5t-33 -13.5v78
q18 8 41.5 13.5t46.5 5.5q31 0 57 -12.5t42 -38t16 -66.5q0 -11 -1 -22.5t-4 -25.5l-67 -316q-16 -78 -49.5 -135t-89 -87.5t-139.5 -30.5z" />
    <glyph glyph-name="uni01B3" unicode="&#x1b3;" horiz-adv-x="528" 
d="M142 0l58 268l-105 446h89l75 -358l168 270q28 44 60 69t78 25q11 0 27.5 -2.5t24.5 -6.5l-17 -71q-4 2 -11 3.5t-14 1.5q-9 0 -19.5 -2.5t-23 -13t-28.5 -35.5l-217 -329l-55 -265h-90z" />
    <glyph glyph-name="uni01B4" unicode="&#x1b4;" horiz-adv-x="482" 
d="M-24 -240q-23 0 -37.5 3t-28.5 7l1 71q13 -4 28 -6.5t32 -2.5q39 0 66.5 25t52.5 73l33 62l-72 544h88l30 -265q4 -32 6 -70.5t3 -73t1 -55.5h3q6 16 19 48t28 66t26 56l105 207q19 38 35.5 59t34.5 29.5t43 8.5q15 0 28 -3.5t23 -8.5l-13 -65q-4 2 -11 3.5t-13 1.5
q-10 0 -18 -5.5t-16 -17.5t-18 -31l-265 -510q-26 -50 -54 -83.5t-61.5 -50t-78.5 -16.5z" />
    <glyph glyph-name="uni01B5" unicode="&#x1b5;" horiz-adv-x="505" 
d="M-11 0l14 70l198 266h-118l16 71h159l169 227h-295l17 80h404l-14 -71l-178 -236h110l-16 -71h-151l-189 -256h315l-17 -80h-424z" />
    <glyph glyph-name="uni01B6" unicode="&#x1b6;" horiz-adv-x="423" 
d="M-15 0l12 60l142 183h-89l15 70h130l119 157h-216l15 66h312l-15 -71l-118 -152h89l-16 -70h-130l-136 -177h239l-13 -66h-340z" />
    <glyph glyph-name="uni01B7" unicode="&#x1b7;" horiz-adv-x="504" 
d="M169 -10q-40 0 -84.5 10.5t-78.5 29.5l1 84q36 -22 80 -36t87 -14q49 0 83.5 13.5t56 36t31.5 51.5t10 59q0 57 -34.5 83t-95.5 26h-74l15 70l231 231h-262l18 80h374l-15 -71l-246 -242q80 -2 131 -44.5t51 -129.5q0 -49 -17.5 -92.5t-52 -75.5t-87 -50.5t-122.5 -18.5z
" />
    <glyph glyph-name="uni01B8" unicode="&#x1b8;" horiz-adv-x="512" 
d="M249 -10q-74 0 -122 23.5t-71 65t-23 95.5q0 61 22.5 103.5t60.5 69t86.5 40t100.5 15.5l-162 241l16 71h391l-17 -80h-293l160 -237l-13 -64h-34q-44 0 -84.5 -7t-72 -24.5t-50 -48t-18.5 -78.5q0 -55 36 -83t103 -28q44 0 91.5 14t93.5 36l-1 -83q-44 -22 -93 -31.5
t-107 -9.5z" />
    <glyph glyph-name="uni01B9" unicode="&#x1b9;" horiz-adv-x="446" 
d="M171 -240q-66 0 -112 26.5t-69.5 72t-23.5 102.5q0 66 21.5 115t60 81.5t88 50t104.5 20.5l-149 244l14 64h357l-16 -74h-263l150 -243l-14 -61h-52q-45 0 -83.5 -11.5t-67.5 -35t-45.5 -59.5t-16.5 -85q0 -64 36 -99t92 -35q51 0 88.5 12.5t70.5 28.5l-1 -77
q-21 -11 -47 -19.5t-56.5 -13t-65.5 -4.5z" />
    <glyph glyph-name="uni01BA" unicode="&#x1ba;" horiz-adv-x="445" 
d="M104 -240q-76 0 -118 31t-42 83q0 40 17.5 67.5t58.5 45.5t112 29q52 9 89 23t57 39.5t20 68.5q0 37 -19 56.5t-51 27t-73 7.5h-49l12 61l187 163h-230l15 74h348l-13 -64l-199 -169q69 -6 114.5 -45.5t45.5 -112.5q0 -47 -14.5 -81.5t-46 -58.5t-81 -40.5t-119.5 -27.5
q-38 -6 -60 -13.5t-31 -18.5t-9 -27q0 -19 20.5 -32t62.5 -13q45 0 83 10.5t66 23.5l-1 -76q-18 -9 -42 -16t-51.5 -11t-58.5 -4z" />
    <glyph glyph-name="uni01BB" unicode="&#x1bb;" horiz-adv-x="505" 
d="M-16 0l16 75l251 274h-164l16 70h210q29 35 46.5 65t26 60t8.5 62q0 38 -21.5 61t-58.5 23q-41 0 -75.5 -18t-69.5 -44l-42 60q40 33 87 55t105 22q54 0 91 -20t56.5 -53.5t19.5 -74.5q0 -34 -8.5 -67.5t-26 -66t-44.5 -64.5h91l-16 -70h-128l-240 -265v-4h308l-16 -80
h-422z" />
    <glyph glyph-name="uni01BC" unicode="&#x1bc;" horiz-adv-x="505" 
d="M180 -10q-47 0 -93 8.5t-81 30.5l1 82q24 -14 52.5 -25t59 -16.5t59.5 -5.5q44 0 79 11.5t59.5 34.5t37 56t12.5 75q0 65 -36 95.5t-98 30.5h-96l59 267h-75l18 80h392l-18 -80h-232l-43 -193h17q68 0 113 -24t68 -66.5t23 -100.5q0 -60 -18 -108t-53.5 -82t-87.5 -52
t-119 -18z" />
    <glyph glyph-name="uni01BD" unicode="&#x1bd;" horiz-adv-x="444" 
d="M155 -10q-34 0 -63 4t-52.5 12t-39.5 19l1 79q18 -10 41 -20t51 -16t59 -6q37 0 71 12t56 40.5t22 75.5q0 42 -35.5 62.5t-95.5 20.5h-66l41 189h-61l16 74h334l-15 -74h-193l-26 -117h16q61 0 98 -22t54 -56.5t17 -72.5q0 -45 -14.5 -82.5t-43.5 -64.5t-72 -42t-100 -15
z" />
    <glyph glyph-name="uni01BE" unicode="&#x1be;" horiz-adv-x="409" 
d="M146 -10q-43 0 -83 9.5t-63 25.5l1 79q24 -16 61 -29.5t78 -13.5q69 0 98 27.5t29 61.5q0 23 -15 42.5t-54 44.5q-17 11 -31 23.5t-22 29.5t-8 41q0 10 1.5 22t4.5 25l19 91h-80l8 40l86 38l61 111h52l-27 -122h129l-15 -67h-126l-20 -93q-2 -10 -3 -17t-1 -14
q0 -17 7.5 -28t22.5 -20q30 -18 51.5 -37.5t32.5 -43.5t11 -57q0 -40 -14 -71t-41 -53t-65 -33.5t-85 -11.5z" />
    <glyph glyph-name="uni01BF" unicode="&#x1bf;" horiz-adv-x="541" 
d="M-24 -240l164 776h72l-13 -101h4q17 30 40.5 55t54.5 40t69 15q70 0 104.5 -46.5t34.5 -122.5q0 -73 -30 -138.5t-83.5 -118t-125 -86.5t-155.5 -43l-49 -230h-87zM194 123q7 -23 31 -18t56 30t62.5 63t51 82.5t20.5 86.5q0 45 -17.5 75t-61.5 30q-30 0 -57 -19
t-49.5 -51.5t-39.5 -75t-27 -89.5z" />
    <glyph glyph-name="uni01C0" unicode="&#x1c0;" horiz-adv-x="296" 
d="M53 0l162 760h76l-162 -760h-76z" />
    <glyph glyph-name="uni01C1" unicode="&#x1c1;" horiz-adv-x="521" 
d="M53 0l162 760h76l-162 -760h-76zM278 0l162 760h76l-162 -760h-76z" />
    <glyph glyph-name="uni01C2" unicode="&#x1c2;" horiz-adv-x="490" 
d="M149 0l57 267h-146l16 72h146l20 94h-146l15 72h146l54 255h76l-54 -255h147l-15 -72h-147l-20 -94h147l-16 -72h-147l-57 -267h-76z" />
    <glyph glyph-name="uni01C3" unicode="&#x1c3;" horiz-adv-x="261" 
d="M75 201l91 513h106l-126 -513h-71zM70 -14q-25 0 -38 14t-13 39q0 21 7.5 40t24 30.5t42.5 11.5q22 0 35.5 -13.5t13.5 -39.5q0 -29 -17.5 -55.5t-54.5 -26.5z" />
    <glyph glyph-name="uni01C4" unicode="&#x1c4;" horiz-adv-x="1172" 
d="M38 0l151 714h162q122 0 190.5 -69t68.5 -211q0 -75 -17 -141t-50 -119.5t-82 -92.5t-112.5 -60t-140.5 -21h-170zM214 77q59 0 106.5 17.5t84 50t61.5 77t37.5 98.5t12.5 114q0 107 -48 155t-128 48h-79l-117 -560h70zM656 0l14 70l424 564h-295l17 80h404l-14 -71
l-424 -563h315l-17 -80h-424zM985 784q-8 26 -22 52.5t-28.5 51t-26.5 43.5v13h54q12 -10 24.5 -24.5t25 -31.5t24.5 -35q29 27 59 50.5t55 40.5h58v-13q-16 -15 -43 -41.5t-53 -54.5t-40 -51h-87z" />
    <glyph glyph-name="uni01C5" unicode="&#x1c5;" horiz-adv-x="1090" 
d="M38 0l151 714h162q122 0 190.5 -69t68.5 -211q0 -75 -17 -141t-50 -119.5t-82 -92.5t-112.5 -60t-140.5 -21h-170zM214 77q59 0 106.5 17.5t84 50t61.5 77t37.5 98.5t12.5 114q0 107 -48 155t-128 48h-79l-117 -560h70zM652 0l12 60l317 410h-216l15 66h312l-15 -71
l-311 -399h239l-13 -66h-340zM904 606q-8 26 -22 52.5t-28.5 51t-26.5 43.5v13h54q12 -10 24.5 -24.5t25 -31.5t24.5 -35q29 27 59 50.5t55 40.5h58v-13q-16 -15 -43 -41.5t-53 -54.5t-40 -51h-87z" />
    <glyph glyph-name="uni01C6" unicode="&#x1c6;" horiz-adv-x="1002" 
d="M183 -10q-40 0 -70.5 20t-48 60t-17.5 100q0 59 11.5 114t33 102.5t52.5 83t70.5 55.5t85.5 20q34 0 58.5 -13t41.5 -33.5t27 -45.5h4q3 23 6 44t7 42.5t9 45.5l38 175h86l-161 -760h-71l11 99h-4q-22 -30 -48 -55t-55.5 -39.5t-65.5 -14.5zM215 63q21 0 43 11.5t42.5 32
t38 48.5t31 62t21 71.5t7.5 77.5q0 47 -21.5 76.5t-70.5 29.5q-30 0 -55.5 -17t-46.5 -46.5t-36 -68.5t-23 -82.5t-8 -88.5q0 -53 20 -79.5t58 -26.5zM564 0l12 60l317 410h-216l15 66h312l-15 -71l-311 -399h239l-13 -66h-340zM816 606q-8 26 -22 52.5t-28.5 51t-26.5 43.5
v13h54q12 -10 24.5 -24.5t25 -31.5t24.5 -35q29 27 59 50.5t55 40.5h58v-13q-16 -15 -43 -41.5t-53 -54.5t-40 -51h-87z" />
    <glyph glyph-name="uni01C7" unicode="&#x1c7;" horiz-adv-x="742" 
d="M38 0l151 714h89l-134 -634h258l-17 -80h-347zM401 -190q-23 0 -42.5 3.5t-30.5 8.5l3 77q15 -4 32 -7t36 -3q29 0 52.5 12t41 38.5t26.5 69.5l149 705h90l-152 -715q-14 -67 -42.5 -109t-69.5 -61t-93 -19z" />
    <glyph glyph-name="uni01C8" unicode="&#x1c8;" horiz-adv-x="726" 
d="M38 0l151 714h89l-134 -634h258l-17 -80h-347zM416 -240q-18 0 -33.5 3t-26.5 7l1 74q11 -4 25 -7.5t30 -3.5q19 0 34 11t26.5 32.5t17.5 54.5l128 605h87l-130 -613q-10 -50 -29 -86.5t-50.5 -56.5t-79.5 -20zM688 625q-20 0 -33 12.5t-13 34.5q0 17 7 31.5t20 23.5
t32 9q23 0 33.5 -12t10.5 -33q0 -31 -17.5 -48.5t-39.5 -17.5z" />
    <glyph glyph-name="uni01C9" unicode="&#x1c9;" horiz-adv-x="506" 
d="M25 0l162 760h88l-162 -760h-88zM196 -240q-18 0 -33.5 3t-26.5 7l1 74q11 -4 25 -7.5t30 -3.5q19 0 34 11t26.5 32.5t17.5 54.5l128 605h87l-130 -613q-10 -50 -29 -86.5t-50.5 -56.5t-79.5 -20zM468 625q-20 0 -33 12.5t-13 34.5q0 17 7 31.5t20 23.5t32 9
q23 0 33.5 -12t10.5 -33q0 -31 -17.5 -48.5t-39.5 -17.5z" />
    <glyph glyph-name="uni01CA" unicode="&#x1ca;" horiz-adv-x="971" 
d="M37 0l151 714h96l198 -590h3q2 18 6 41.5t8.5 50t10 53.5t10.5 52l84 393h83l-151 -714h-95l-200 592h-3q-2 -16 -5.5 -39.5t-8.5 -51t-10.5 -57t-11.5 -56.5l-82 -388h-83zM630 -190q-23 0 -42.5 3.5t-30.5 8.5l3 77q15 -4 32 -7t36 -3q29 0 52.5 12t41 38.5t26.5 69.5
l149 705h90l-152 -715q-14 -67 -42.5 -109t-69.5 -61t-93 -19z" />
    <glyph glyph-name="uni01CB" unicode="&#x1cb;" horiz-adv-x="955" 
d="M37 0l151 714h96l198 -590h3q2 18 6 41.5t8.5 50t10 53.5t10.5 52l84 393h83l-151 -714h-95l-200 592h-3q-2 -16 -5.5 -39.5t-8.5 -51t-10.5 -57t-11.5 -56.5l-82 -388h-83zM645 -240q-18 0 -33.5 3t-26.5 7l1 74q11 -4 25 -7.5t30 -3.5q19 0 34 11t26.5 32.5t17.5 54.5
l128 605h87l-130 -613q-10 -50 -29 -86.5t-50.5 -56.5t-79.5 -20zM917 625q-20 0 -33 12.5t-13 34.5q0 17 7 31.5t20 23.5t32 9q23 0 33.5 -12t10.5 -33q0 -31 -17.5 -48.5t-39.5 -17.5z" />
    <glyph glyph-name="uni01CC" unicode="&#x1cc;" horiz-adv-x="827" 
d="M22 0l115 539h77l-12 -99h2q19 25 43 50t55.5 42t72.5 17t70.5 -16t45 -46t15.5 -73q0 -23 -4 -47t-8 -42l-70 -325h-93l71 337q5 23 7.5 38.5t2.5 29.5q0 32 -15 48t-47 16t-68.5 -23.5t-67.5 -75.5t-49 -140l-50 -230h-93zM517 -240q-18 0 -33.5 3t-26.5 7l1 74
q11 -4 25 -7.5t30 -3.5q19 0 34 11t26.5 32.5t17.5 54.5l128 605h87l-130 -613q-10 -50 -29 -86.5t-50.5 -56.5t-79.5 -20zM789 625q-20 0 -33 12.5t-13 34.5q0 17 7 31.5t20 23.5t32 9q23 0 33.5 -12t10.5 -33q0 -31 -17.5 -48.5t-39.5 -17.5z" />
    <glyph glyph-name="uni01CD" unicode="&#x1cd;" horiz-adv-x="539" 
d="M-54 0l375 714h96l75 -714h-88l-22 222h-228l-111 -222h-97zM197 302h177l-13 150q-3 38 -6 84t-3 81h-3q-16 -38 -35 -81.5t-42 -87.5zM333 784q-8 26 -22 52.5t-28.5 51t-26.5 43.5v13h54q12 -10 24.5 -24.5t25 -31.5t24.5 -35q29 27 59 50.5t55 40.5h58v-13
q-16 -15 -43 -41.5t-53 -54.5t-40 -51h-87z" />
    <glyph glyph-name="uni01CE" unicode="&#x1ce;" horiz-adv-x="541" 
d="M183 -10q-40 0 -70.5 20.5t-48 60.5t-17.5 99q0 60 12 115.5t34.5 103t53.5 83t70 55t83 19.5q34 0 58.5 -13t41.5 -34t27 -46h5l31 83h67l-114 -536h-70l13 99h-3q-22 -29 -48.5 -54t-57.5 -40t-67 -15zM214 63q34 0 67.5 27t61 73t41.5 103q8 30 10.5 55.5t2.5 44.5
q0 47 -23.5 76.5t-64.5 29.5q-29 0 -55 -16t-47.5 -45t-37 -67.5t-24 -83t-8.5 -91.5q0 -53 20 -79.5t57 -26.5zM298 606q-8 26 -22 52.5t-28.5 51t-26.5 43.5v13h54q12 -10 24.5 -24.5t25 -31.5t24.5 -35q29 27 59 50.5t55 40.5h58v-13q-16 -15 -43 -41.5t-53 -54.5
t-40 -51h-87z" />
    <glyph glyph-name="uni01CF" unicode="&#x1cf;" horiz-adv-x="311" 
d="M-20 0l11 49l81 20l120 576l-72 19l11 50h242l-10 -50l-83 -19l-120 -576l73 -20l-11 -49h-242zM214 784q-8 26 -22 52.5t-28.5 51t-26.5 43.5v13h54q12 -10 24.5 -24.5t25 -31.5t24.5 -35q29 27 59 50.5t55 40.5h58v-13q-16 -15 -43 -41.5t-53 -54.5t-40 -51h-87z" />
    <glyph glyph-name="uni01D0" unicode="&#x1d0;" horiz-adv-x="248" 
d="M26 0l114 536h88l-114 -536h-88zM143 606q-8 26 -22 52.5t-28.5 51t-26.5 43.5v13h54q12 -10 24.5 -24.5t25 -31.5t24.5 -35q29 27 59 50.5t55 40.5h58v-13q-16 -15 -43 -41.5t-53 -54.5t-40 -51h-87z" />
    <glyph glyph-name="uni01D1" unicode="&#x1d1;" horiz-adv-x="686" 
d="M319 -10q-81 0 -136.5 33t-84 94.5t-28.5 145.5q0 62 10.5 120t31.5 109.5t51 94t68.5 73.5t86 48t101.5 17q115 0 178.5 -74t63.5 -203q0 -62 -10 -119.5t-29 -109t-48 -93.5t-67 -72.5t-85 -47t-103 -16.5zM323 69q38 0 70.5 14t59.5 39.5t48 61t35.5 78t22 90
t7.5 98.5q0 93 -41 144.5t-113 51.5q-38 0 -71 -13.5t-60.5 -38.5t-49 -60t-36.5 -77.5t-23 -90.5t-8 -100q0 -62 19 -106t55 -67.5t85 -23.5zM413 784q-8 26 -22 52.5t-28.5 51t-26.5 43.5v13h54q12 -10 24.5 -24.5t25 -31.5t24.5 -35q29 27 59 50.5t55 40.5h58v-13
q-16 -15 -43 -41.5t-53 -54.5t-40 -51h-87z" />
    <glyph glyph-name="uni01D2" unicode="&#x1d2;" horiz-adv-x="536" 
d="M235 -8q-87 0 -137.5 54.5t-50.5 148.5q0 49 10.5 99t31.5 94.5t52.5 79.5t73 55t92.5 20q59 0 101 -25t64.5 -70.5t22.5 -108.5q0 -49 -10.5 -98.5t-31.5 -94t-52 -79.5t-72.5 -55t-93.5 -20zM242 65q27 0 51.5 12.5t45 36t35.5 58t23.5 79t8.5 97.5q0 29 -10 57
t-31.5 46.5t-58.5 18.5q-31 0 -57.5 -14.5t-47.5 -40t-35.5 -60.5t-22 -76t-7.5 -86q0 -61 27.5 -94.5t78.5 -33.5zM279 606q-8 26 -22 52.5t-28.5 51t-26.5 43.5v13h54q12 -10 24.5 -24.5t25 -31.5t24.5 -35q29 27 59 50.5t55 40.5h58v-13q-16 -15 -43 -41.5t-53 -54.5
t-40 -51h-87z" />
    <glyph glyph-name="uni01D3" unicode="&#x1d3;" horiz-adv-x="644" 
d="M284 -10q-70 0 -116 22.5t-69 66.5t-23 106q0 18 3 43.5t10 54.5l92 431h88l-93 -436q-5 -24 -8 -49.5t-3 -41.5q0 -55 31.5 -86.5t94.5 -31.5q55 0 90.5 20.5t57.5 61t35 99.5l99 464h89l-100 -471q-16 -78 -49.5 -135t-89 -87.5t-139.5 -30.5zM391 784q-8 26 -22 52.5
t-28.5 51t-26.5 43.5v13h54q12 -10 24.5 -24.5t25 -31.5t24.5 -35q29 27 59 50.5t55 40.5h58v-13q-16 -15 -43 -41.5t-53 -54.5t-40 -51h-87z" />
    <glyph glyph-name="uni01D4" unicode="&#x1d4;" horiz-adv-x="551" 
d="M179 -10q-38 0 -66.5 15t-44 44t-15.5 72q0 23 3.5 44t7.5 44l70 327h89l-71 -337q-5 -22 -7.5 -38.5t-2.5 -29.5q0 -31 15 -49.5t49 -18.5q33 0 69.5 24t68.5 77t51 141l49 231h86l-114 -536h-71l11 99h-4q-18 -24 -43 -49.5t-57 -42.5t-73 -17zM304 606q-8 26 -22 52.5
t-28.5 51t-26.5 43.5v13h54q12 -10 24.5 -24.5t25 -31.5t24.5 -35q29 27 59 50.5t55 40.5h58v-13q-16 -15 -43 -41.5t-53 -54.5t-40 -51h-87z" />
    <glyph glyph-name="uni01D5" unicode="&#x1d5;" horiz-adv-x="644" 
d="M336 943l15 71h259l-15 -71h-259zM354 779q-19 0 -30.5 11t-11.5 30q0 23 13.5 40.5t38.5 17.5q20 0 29.5 -11t9.5 -28q0 -28 -15 -44t-34 -16zM524 779q-17 0 -29 11t-12 30q0 23 14 40.5t39 17.5q20 0 29.5 -11t9.5 -28q0 -28 -15.5 -44t-35.5 -16zM284 -10
q-70 0 -116 22.5t-69 66.5t-23 106q0 18 3 43.5t10 54.5l92 431h88l-93 -436q-5 -24 -8 -49.5t-3 -41.5q0 -55 31.5 -86.5t94.5 -31.5q55 0 90.5 20.5t57.5 61t35 99.5l99 464h89l-100 -471q-16 -78 -49.5 -135t-89 -87.5t-139.5 -30.5z" />
    <glyph glyph-name="uni01D6" unicode="&#x1d6;" horiz-adv-x="551" 
d="M246 765l15 71h259l-15 -71h-259zM264 601q-19 0 -30.5 11t-11.5 30q0 23 13.5 40.5t38.5 17.5q20 0 29.5 -11t9.5 -28q0 -28 -15 -44t-34 -16zM434 601q-17 0 -29 11t-12 30q0 23 14 40.5t39 17.5q20 0 29.5 -11t9.5 -28q0 -28 -15.5 -44t-35.5 -16zM179 -10
q-38 0 -66.5 15t-44 44t-15.5 72q0 23 3.5 44t7.5 44l70 327h89l-71 -337q-5 -22 -7.5 -38.5t-2.5 -29.5q0 -31 15 -49.5t49 -18.5q33 0 69.5 24t68.5 77t51 141l49 231h86l-114 -536h-71l11 99h-4q-18 -24 -43 -49.5t-57 -42.5t-73 -17z" />
    <glyph glyph-name="uni01D7" unicode="&#x1d7;" horiz-adv-x="644" 
d="M418 915q26 30 51.5 65t46.5 69h100l-1 -10q-10 -13 -26.5 -30.5t-36.5 -36.5t-40.5 -36.5t-38.5 -31.5h-55v11zM368 779q-18 0 -29.5 11t-11.5 30q0 23 13.5 40.5t38.5 17.5q20 0 29.5 -11t9.5 -28q0 -28 -15 -44t-35 -16zM539 779q-17 0 -28.5 11t-11.5 30
q0 23 13.5 40.5t38.5 17.5q20 0 29.5 -11t9.5 -28q0 -28 -15.5 -44t-35.5 -16zM284 -10q-70 0 -116 22.5t-69 66.5t-23 106q0 18 3 43.5t10 54.5l92 431h88l-93 -436q-5 -24 -8 -49.5t-3 -41.5q0 -55 31.5 -86.5t94.5 -31.5q55 0 90.5 20.5t57.5 61t35 99.5l99 464h89
l-100 -471q-16 -78 -49.5 -135t-89 -87.5t-139.5 -30.5z" />
    <glyph glyph-name="uni01D8" unicode="&#x1d8;" horiz-adv-x="551" 
d="M331 737q26 30 51.5 65t46.5 69h100l-1 -10q-10 -13 -26.5 -30.5t-36.5 -36.5t-40.5 -36.5t-38.5 -31.5h-55v11zM281 601q-18 0 -29.5 11t-11.5 30q0 23 13.5 40.5t38.5 17.5q20 0 29.5 -11t9.5 -28q0 -28 -15 -44t-35 -16zM452 601q-17 0 -28.5 11t-11.5 30
q0 23 13.5 40.5t38.5 17.5q20 0 29.5 -11t9.5 -28q0 -28 -15.5 -44t-35.5 -16zM179 -10q-38 0 -66.5 15t-44 44t-15.5 72q0 23 3.5 44t7.5 44l70 327h89l-71 -337q-5 -22 -7.5 -38.5t-2.5 -29.5q0 -31 15 -49.5t49 -18.5q33 0 69.5 24t68.5 77t51 141l49 231h86l-114 -536
h-71l11 99h-4q-18 -24 -43 -49.5t-57 -42.5t-73 -17z" />
    <glyph glyph-name="uni01D9" unicode="&#x1d9;" horiz-adv-x="644" 
d="M431 924q-8 26 -22 52.5t-28.5 51t-26.5 43.5v13h53q18 -16 37 -40t37 -51q29 27 59 50.5t55 40.5h57v-13q-16 -15 -43 -41.5t-53 -54.5t-40 -51h-85zM372 779q-19 0 -30.5 11t-11.5 31q0 23 13.5 40t38.5 17q20 0 30 -11t9 -29q0 -28 -15 -43.5t-34 -15.5zM542 779
q-17 0 -29 11t-12 31q1 23 14.5 40t38.5 17q20 0 29.5 -11t9.5 -29q-1 -28 -16 -43.5t-35 -15.5zM284 -10q-70 0 -116 22.5t-69 66.5t-23 106q0 18 3 43.5t10 54.5l92 431h88l-93 -436q-5 -24 -8 -49.5t-3 -41.5q0 -55 31.5 -86.5t94.5 -31.5q55 0 90.5 20.5t57.5 61
t35 99.5l99 464h89l-100 -471q-16 -78 -49.5 -135t-89 -87.5t-139.5 -30.5z" />
    <glyph glyph-name="uni01DA" unicode="&#x1da;" horiz-adv-x="551" 
d="M344 746q-8 26 -22 52.5t-28.5 51t-26.5 43.5v13h53q18 -16 37 -40t37 -51q29 27 59 50.5t55 40.5h57v-13q-16 -15 -43 -41.5t-53 -54.5t-40 -51h-85zM285 601q-19 0 -30.5 11t-11.5 31q0 23 13.5 40t38.5 17q20 0 30 -11t9 -29q0 -28 -15 -43.5t-34 -15.5zM455 601
q-17 0 -29 11t-12 31q1 23 14.5 40t38.5 17q20 0 29.5 -11t9.5 -29q-1 -28 -16 -43.5t-35 -15.5zM179 -10q-38 0 -66.5 15t-44 44t-15.5 72q0 23 3.5 44t7.5 44l70 327h89l-71 -337q-5 -22 -7.5 -38.5t-2.5 -29.5q0 -31 15 -49.5t49 -18.5q33 0 69.5 24t68.5 77t51 141
l49 231h86l-114 -536h-71l11 99h-4q-18 -24 -43 -49.5t-57 -42.5t-73 -17z" />
    <glyph glyph-name="uni01DB" unicode="&#x1db;" horiz-adv-x="644" 
d="M457 904q-16 18 -34.5 41.5t-34 48t-26.5 45.5v10h89q8 -25 17 -47t20 -42.5t23 -43.5v-12h-54zM370 779q-18 0 -29.5 11t-11.5 30q0 23 13.5 40.5t38.5 17.5q20 0 29.5 -11t9.5 -28q0 -28 -15 -44t-35 -16zM541 779q-17 0 -28.5 11t-11.5 30q0 23 13.5 40.5t38.5 17.5
q20 0 29.5 -11t9.5 -28q0 -28 -15.5 -44t-35.5 -16zM284 -10q-70 0 -116 22.5t-69 66.5t-23 106q0 18 3 43.5t10 54.5l92 431h88l-93 -436q-5 -24 -8 -49.5t-3 -41.5q0 -55 31.5 -86.5t94.5 -31.5q55 0 90.5 20.5t57.5 61t35 99.5l99 464h89l-100 -471q-16 -78 -49.5 -135
t-89 -87.5t-139.5 -30.5z" />
    <glyph glyph-name="uni01DC" unicode="&#x1dc;" horiz-adv-x="551" 
d="M370 726q-16 18 -34.5 41.5t-34 48t-26.5 45.5v10h89q8 -25 17 -47t20 -42.5t23 -43.5v-12h-54zM283 601q-18 0 -29.5 11t-11.5 30q0 23 13.5 40.5t38.5 17.5q20 0 29.5 -11t9.5 -28q0 -28 -15 -44t-35 -16zM454 601q-17 0 -28.5 11t-11.5 30q0 23 13.5 40.5t38.5 17.5
q20 0 29.5 -11t9.5 -28q0 -28 -15.5 -44t-35.5 -16zM179 -10q-38 0 -66.5 15t-44 44t-15.5 72q0 23 3.5 44t7.5 44l70 327h89l-71 -337q-5 -22 -7.5 -38.5t-2.5 -29.5q0 -31 15 -49.5t49 -18.5q33 0 69.5 24t68.5 77t51 141l49 231h86l-114 -536h-71l11 99h-4
q-18 -24 -43 -49.5t-57 -42.5t-73 -17z" />
    <glyph glyph-name="uni01DD" unicode="&#x1dd;" horiz-adv-x="473" 
d="M171 -10q-72 0 -109 32.5t-37 90.5q0 53 31 96.5t97.5 69t170.5 25.5h17q1 10 1.5 20t0.5 19q0 61 -27.5 95.5t-83.5 34.5q-36 0 -69 -10.5t-72 -30.5l1 75q37 17 72 28t84 11q59 0 100 -24.5t62.5 -69t21.5 -105.5q0 -64 -18 -127t-52 -115t-82 -83.5t-109 -31.5z
M177 63q30 0 59.5 20t53.5 58t38 92h-8q-57 0 -104.5 -10.5t-76 -35t-28.5 -66.5q0 -25 16 -41.5t50 -16.5z" />
    <glyph glyph-name="uni01DE" unicode="&#x1de;" horiz-adv-x="539" 
d="M295 943l15 71h259l-15 -71h-259zM313 779q-19 0 -30.5 11t-11.5 30q0 23 13.5 40.5t38.5 17.5q20 0 29.5 -11t9.5 -28q0 -28 -15 -44t-34 -16zM483 779q-17 0 -29 11t-12 30q0 23 14 40.5t39 17.5q20 0 29.5 -11t9.5 -28q0 -28 -15.5 -44t-35.5 -16zM-54 0l375 714h96
l75 -714h-88l-22 222h-228l-111 -222h-97zM197 302h177l-13 150q-3 38 -6 84t-3 81h-3q-16 -38 -35 -81.5t-42 -87.5z" />
    <glyph glyph-name="uni01DF" unicode="&#x1df;" horiz-adv-x="541" 
d="M260 765l15 71h259l-15 -71h-259zM278 601q-19 0 -30.5 11t-11.5 30q0 23 13.5 40.5t38.5 17.5q20 0 29.5 -11t9.5 -28q0 -28 -15 -44t-34 -16zM448 601q-17 0 -29 11t-12 30q0 23 14 40.5t39 17.5q20 0 29.5 -11t9.5 -28q0 -28 -15.5 -44t-35.5 -16zM183 -10
q-40 0 -70.5 20.5t-48 60.5t-17.5 99q0 60 12 115.5t34.5 103t53.5 83t70 55t83 19.5q34 0 58.5 -13t41.5 -34t27 -46h5l31 83h67l-114 -536h-70l13 99h-3q-22 -29 -48.5 -54t-57.5 -40t-67 -15zM214 63q34 0 67.5 27t61 73t41.5 103q8 30 10.5 55.5t2.5 44.5
q0 47 -23.5 76.5t-64.5 29.5q-29 0 -55 -16t-47.5 -45t-37 -67.5t-24 -83t-8.5 -91.5q0 -53 20 -79.5t57 -26.5z" />
    <glyph glyph-name="uni01E0" unicode="&#x1e0;" horiz-adv-x="539" 
d="M292 943l15 71h259l-15 -71h-259zM395 784q-19 0 -32.5 12t-13.5 34q0 26 15.5 45.5t42.5 19.5q15 0 24.5 -5.5t14.5 -15t5 -23.5q0 -31 -17.5 -49t-38.5 -18zM-54 0l375 714h96l75 -714h-88l-22 222h-228l-111 -222h-97zM197 302h177l-13 150q-3 38 -6 84t-3 81h-3
q-16 -38 -35 -81.5t-42 -87.5z" />
    <glyph glyph-name="uni01E1" unicode="&#x1e1;" horiz-adv-x="541" 
d="M257 765l15 71h259l-15 -71h-259zM360 606q-19 0 -32.5 12t-13.5 34q0 26 15.5 45.5t42.5 19.5q15 0 24.5 -5.5t14.5 -15t5 -23.5q0 -31 -17.5 -49t-38.5 -18zM183 -10q-40 0 -70.5 20.5t-48 60.5t-17.5 99q0 60 12 115.5t34.5 103t53.5 83t70 55t83 19.5q34 0 58.5 -13
t41.5 -34t27 -46h5l31 83h67l-114 -536h-70l13 99h-3q-22 -29 -48.5 -54t-57.5 -40t-67 -15zM214 63q34 0 67.5 27t61 73t41.5 103q8 30 10.5 55.5t2.5 44.5q0 47 -23.5 76.5t-64.5 29.5q-29 0 -55 -16t-47.5 -45t-37 -67.5t-24 -83t-8.5 -91.5q0 -53 20 -79.5t57 -26.5z
" />
    <glyph glyph-name="uni01E2" unicode="&#x1e2;" horiz-adv-x="788" 
d="M-55 0l441 714h447l-16 -79h-259l-47 -223h242l-16 -78h-242l-53 -255h258l-18 -79h-347l46 222h-203l-132 -222h-101zM230 302h168l70 333h-39zM401 784l16 71h257l-15 -71h-258z" />
    <glyph glyph-name="uni01E3" unicode="&#x1e3;" horiz-adv-x="783" 
d="M169 -10q-36 0 -63.5 20.5t-43 60t-15.5 97.5q0 61 12 117t34.5 103.5t53 83t67.5 55t79 19.5q31 0 53 -13t37.5 -34t25.5 -46h4l32 83h56l-14 -69q25 35 63.5 57t88.5 22q53 0 90 -30.5t37 -94.5q0 -52 -31 -95t-97 -68.5t-171 -25.5h-19q-1 -9 -1.5 -19t-0.5 -18
q0 -61 27.5 -96.5t86.5 -35.5q35 0 68.5 12t70.5 29l-1 -77q-38 -18 -75.5 -27.5t-78.5 -9.5q-50 0 -87 19t-57 57l-13 -66h-59l13 99h-4q-25 -33 -50.5 -57.5t-54 -38t-63.5 -13.5zM200 63q25 0 50 15.5t47 43t40 65t29 80.5q8 29 10.5 54.5t2.5 45.5q0 47 -19.5 76
t-55.5 29q-28 0 -53 -16t-46 -45t-36 -67t-23.5 -83t-8.5 -92q0 -53 16.5 -79.5t46.5 -26.5zM471 303q57 0 104.5 10.5t75.5 35t28 64.5q0 32 -17 46t-41 14q-34 0 -65 -20t-55.5 -58t-39.5 -92h10zM339 606l16 71h257l-15 -71h-258z" />
    <glyph glyph-name="uni01E4" unicode="&#x1e4;" horiz-adv-x="645" 
d="M324 -10q-120 0 -187 70t-67 195q0 79 17.5 149.5t50 129t78 101t103 66t124.5 23.5q62 0 108 -11t88 -31l-35 -78q-35 17 -75 29t-88 12q-60 0 -110.5 -28t-88 -79.5t-58 -121.5t-20.5 -154q0 -54 18.5 -98t56.5 -69.5t96 -25.5q35 0 64.5 5.5t49.5 12.5l15 69h-126
l15 71h126l16 71h-133l18 78h221l-33 -149h60l-16 -71h-60l-28 -129q-43 -16 -90.5 -26.5t-109.5 -10.5z" />
    <glyph glyph-name="uni01E5" unicode="&#x1e5;" horiz-adv-x="486" 
d="M175 -240q-47 0 -86.5 9.5t-67.5 24.5l1 81q17 -10 42 -20t53 -16t55 -6q31 0 53 5t38.5 16t27.5 29h-134l15 71h148l11 47q4 16 11.5 48t15.5 60h-4q-22 -29 -47.5 -54t-55 -40t-65.5 -15q-40 0 -71 19t-48.5 58t-17.5 98q0 58 11 112.5t32.5 101.5t52 82.5t70 55
t85.5 19.5q35 0 60 -13t42 -34t27 -46h3l32 83h67l-125 -582h62l-14 -71h-72q-21 -43 -51 -70.5t-69 -40t-87 -12.5zM217 73q22 0 43.5 11t41.5 31t37.5 47t30.5 59.5t20.5 69.5t7.5 75q0 47 -21 76.5t-70 29.5q-30 0 -56 -16.5t-46.5 -45.5t-35 -67t-22.5 -81t-8 -88
q0 -53 20.5 -77t57.5 -24z" />
    <glyph glyph-name="uni01E6" unicode="&#x1e6;" horiz-adv-x="645" 
d="M324 -10q-120 0 -187 70t-67 195q0 79 17.5 149.5t50 129t78 101t103 66t124.5 23.5q62 0 108 -11t88 -31l-35 -78q-35 17 -75 29t-88 12q-60 0 -110.5 -28t-88 -79.5t-58 -121.5t-20.5 -154q0 -54 18 -98t56 -69.5t97 -25.5q35 0 64.5 5.5t49.5 12.5l45 211h-132l18 78
h221l-77 -349q-43 -16 -90.5 -26.5t-109.5 -10.5zM421 784q-8 26 -22 52.5t-28.5 51t-26.5 43.5v13h54q12 -10 24.5 -24.5t25 -31.5t24.5 -35q29 27 59 50.5t55 40.5h58v-13q-16 -15 -43 -41.5t-53 -54.5t-40 -51h-87z" />
    <glyph glyph-name="uni01E7" unicode="&#x1e7;" horiz-adv-x="551" 
d="M175 -240q-47 0 -86.5 9.5t-67.5 24.5l1 81q17 -10 42 -20t53 -16t55 -6q59 0 97 30t53 100l8 38q4 15 8 33t9 35.5t8 29.5h-4q-21 -29 -46.5 -54t-55 -40t-65.5 -15q-40 0 -71 20.5t-48.5 60.5t-17.5 99q0 58 11.5 113t33 103t52.5 84t70.5 56t85.5 20q35 0 60 -13
t42 -34t27 -46h3l32 83h67l-122 -567q-16 -75 -47.5 -121t-78.5 -67t-108 -21zM216 63q21 0 43 11.5t42 32.5t37.5 49.5t31 62.5t21 71.5t7.5 75.5q0 47 -21 76.5t-69 29.5q-30 0 -56.5 -17t-47.5 -46.5t-36 -68.5t-23 -82.5t-8 -88.5q0 -53 20.5 -79.5t58.5 -26.5zM294 606
q-8 26 -22 52.5t-28.5 51t-26.5 43.5v13h54q12 -10 24.5 -24.5t25 -31.5t24.5 -35q29 27 59 50.5t55 40.5h58v-13q-16 -15 -43 -41.5t-53 -54.5t-40 -51h-87z" />
    <glyph glyph-name="uni01E8" unicode="&#x1e8;" horiz-adv-x="538" 
d="M38 0l151 714h89l-74 -347l60 66l259 281h107l-296 -314l154 -400h-98l-126 346l-78 -61l-59 -285h-89zM359 784q-8 26 -22 52.5t-28.5 51t-26.5 43.5v13h54q12 -10 24.5 -24.5t25 -31.5t24.5 -35q29 27 59 50.5t55 40.5h58v-13q-16 -15 -43 -41.5t-53 -54.5t-40 -51h-87
z" />
    <glyph glyph-name="uni01E9" unicode="&#x1e9;" horiz-adv-x="475" 
d="M25 0l161 760h88l-64 -302q-17 -80 -29 -123.5t-17 -57.5h2l242 259h103l-222 -230l133 -306h-97l-103 251l-68 -57l-40 -194h-89zM189 830q-8 26 -22 52.5t-28.5 51t-26.5 43.5v13h54q12 -10 24.5 -24.5t25 -31.5t24.5 -35q29 27 59 50.5t55 40.5h58v-13
q-16 -15 -43 -41.5t-53 -54.5t-40 -51h-87z" />
    <glyph glyph-name="uni01EA" unicode="&#x1ea;" horiz-adv-x="686" 
d="M319 -10q-81 0 -136.5 33t-84 94.5t-28.5 145.5q0 62 10.5 120t31.5 109.5t51 94t68.5 73.5t86 48t101.5 17q115 0 178.5 -74t63.5 -203q0 -62 -10 -119.5t-29 -109t-48 -93.5t-67 -72.5t-85 -47t-103 -16.5zM323 69q38 0 70.5 14t59.5 39.5t48 61t35.5 78t22 90
t7.5 98.5q0 93 -41 144.5t-113 51.5q-38 0 -71 -13.5t-60.5 -38.5t-49 -60t-36.5 -77.5t-23 -90.5t-8 -100q0 -62 19 -106t55 -67.5t85 -23.5zM300 -217q-37 0 -61 19.5t-24 60.5q0 31 13 55t36 44t51 38h61q-19 -15 -39.5 -34.5t-35 -42t-15.5 -49.5q0 -17 8.5 -25t22.5 -8
q10 0 20 1.5t19 2.5l-1 -55q-13 -4 -27 -5.5t-28 -1.5z" />
    <glyph glyph-name="uni01EB" unicode="&#x1eb;" horiz-adv-x="536" 
d="M235 -8q-87 0 -137.5 54.5t-50.5 148.5q0 49 10.5 99t31.5 94.5t52.5 79.5t73 55t92.5 20q59 0 101 -25t64.5 -70.5t22.5 -108.5q0 -49 -10.5 -98.5t-31.5 -94t-52 -79.5t-72.5 -55t-93.5 -20zM242 65q27 0 51.5 12.5t45 36t35.5 58t23.5 79t8.5 97.5q0 29 -10 57
t-31.5 46.5t-58.5 18.5q-31 0 -57.5 -14.5t-47.5 -40t-35.5 -60.5t-22 -76t-7.5 -86q0 -61 27.5 -94.5t78.5 -33.5zM209 -217q-37 0 -61 19.5t-24 60.5q0 31 13 55t36 44t51 38h61q-19 -15 -39.5 -34.5t-35 -42t-15.5 -49.5q0 -17 8.5 -25t22.5 -8q10 0 20 1.5t19 2.5
l-1 -55q-13 -4 -27 -5.5t-28 -1.5z" />
    <glyph glyph-name="uni01EC" unicode="&#x1ec;" horiz-adv-x="686" 
d="M319 -10q-81 0 -136.5 33t-84 94.5t-28.5 145.5q0 62 10.5 120t31.5 109.5t51 94t68.5 73.5t86 48t101.5 17q115 0 178.5 -74t63.5 -203q0 -62 -10 -119.5t-29 -109t-48 -93.5t-67 -72.5t-85 -47t-103 -16.5zM323 69q38 0 70.5 14t59.5 39.5t48 61t35.5 78t22 90
t7.5 98.5q0 93 -41 144.5t-113 51.5q-38 0 -71 -13.5t-60.5 -38.5t-49 -60t-36.5 -77.5t-23 -90.5t-8 -100q0 -62 19 -106t55 -67.5t85 -23.5zM328 784l16 71h257l-15 -71h-258zM300 -217q-37 0 -61 19.5t-24 60.5q0 31 13 55t36 44t51 38h61q-19 -15 -39.5 -34.5t-35 -42
t-15.5 -49.5q0 -17 8.5 -25t22.5 -8q10 0 20 1.5t19 2.5l-1 -55q-13 -4 -27 -5.5t-28 -1.5z" />
    <glyph glyph-name="uni01ED" unicode="&#x1ed;" horiz-adv-x="536" 
d="M235 -8q-87 0 -137.5 54.5t-50.5 148.5q0 49 10.5 99t31.5 94.5t52.5 79.5t73 55t92.5 20q59 0 101 -25t64.5 -70.5t22.5 -108.5q0 -49 -10.5 -98.5t-31.5 -94t-52 -79.5t-72.5 -55t-93.5 -20zM242 65q27 0 51.5 12.5t45 36t35.5 58t23.5 79t8.5 97.5q0 29 -10 57
t-31.5 46.5t-58.5 18.5q-31 0 -57.5 -14.5t-47.5 -40t-35.5 -60.5t-22 -76t-7.5 -86q0 -61 27.5 -94.5t78.5 -33.5zM194 606l16 71h257l-15 -71h-258zM209 -217q-37 0 -61 19.5t-24 60.5q0 31 13 55t36 44t51 38h61q-19 -15 -39.5 -34.5t-35 -42t-15.5 -49.5q0 -17 8.5 -25
t22.5 -8q10 0 20 1.5t19 2.5l-1 -55q-13 -4 -27 -5.5t-28 -1.5z" />
    <glyph glyph-name="uni01EE" unicode="&#x1ee;" horiz-adv-x="504" 
d="M169 -10q-40 0 -84.5 10.5t-78.5 29.5l1 84q36 -22 80 -36t87 -14q49 0 83.5 13.5t56 36t31.5 51.5t10 59q0 57 -34.5 83t-95.5 26h-74l15 70l231 231h-262l18 80h374l-15 -71l-246 -242q80 -2 131 -44.5t51 -129.5q0 -49 -17.5 -92.5t-52 -75.5t-87 -50.5t-122.5 -18.5z
M298 771q-8 26 -22 52.5t-28.5 51t-26.5 43.5v13h54q12 -10 24.5 -24.5t25 -31.5t24.5 -35q29 27 59 50.5t55 40.5h58v-13q-16 -15 -43 -41.5t-53 -54.5t-40 -51h-87z" />
    <glyph glyph-name="uni01EF" unicode="&#x1ef;" horiz-adv-x="447" 
d="M91 -240q-52 0 -88.5 9t-65.5 25l1 81q17 -10 40.5 -20t52 -16.5t61.5 -6.5q45 0 79 14.5t56.5 40.5t33.5 61t11 75q0 48 -18 78t-52 44t-81 14h-37l14 60l222 243h-247l17 74h349l-14 -64l-232 -250q47 -4 85 -27t60 -64.5t22 -102.5q0 -58 -18 -107t-53 -85t-85 -56
t-113 -20zM215 606q-8 26 -22 52.5t-28.5 51t-26.5 43.5v13h54q12 -10 24.5 -24.5t25 -31.5t24.5 -35q29 27 59 50.5t55 40.5h58v-13q-16 -15 -43 -41.5t-53 -54.5t-40 -51h-87z" />
    <glyph glyph-name="uni01F0" unicode="&#x1f0;" horiz-adv-x="248" 
d="M-62 -240q-18 0 -33.5 3t-26.5 7l1 74q11 -4 25 -7.5t30 -3.5q19 0 34 11t26 32.5t18 54.5l128 605h87l-130 -613q-10 -50 -29 -86.5t-50.5 -56.5t-79.5 -20zM153 606q-8 26 -22 52.5t-28.5 51t-26.5 43.5v13h54q12 -10 24.5 -24.5t25 -31.5t24.5 -35q29 27 59 50.5
t55 40.5h58v-13q-16 -15 -43 -41.5t-53 -54.5t-40 -51h-87z" />
    <glyph glyph-name="uni01F1" unicode="&#x1f1;" horiz-adv-x="1172" 
d="M38 0l151 714h162q122 0 190.5 -69t68.5 -211q0 -75 -17 -141t-50 -119.5t-82 -92.5t-112.5 -60t-140.5 -21h-170zM214 77q59 0 106.5 17.5t84 50t61.5 77t37.5 98.5t12.5 114q0 107 -48 155t-128 48h-79l-117 -560h70zM656 0l14 70l424 564h-295l17 80h404l-14 -71
l-424 -563h315l-17 -80h-424z" />
    <glyph glyph-name="uni01F2" unicode="&#x1f2;" horiz-adv-x="1090" 
d="M38 0l151 714h162q122 0 190.5 -69t68.5 -211q0 -75 -17 -141t-50 -119.5t-82 -92.5t-112.5 -60t-140.5 -21h-170zM214 77q59 0 106.5 17.5t84 50t61.5 77t37.5 98.5t12.5 114q0 107 -48 155t-128 48h-79l-117 -560h70zM652 0l12 60l317 410h-216l15 66h312l-15 -71
l-311 -399h239l-13 -66h-340z" />
    <glyph glyph-name="uni01F3" unicode="&#x1f3;" horiz-adv-x="1002" 
d="M183 -10q-40 0 -70.5 20t-48 60t-17.5 100q0 59 11.5 114t33 102.5t52.5 83t70.5 55.5t85.5 20q34 0 58.5 -13t41.5 -33.5t27 -45.5h4q3 23 6 44t7 42.5t9 45.5l38 175h86l-161 -760h-71l11 99h-4q-22 -30 -48 -55t-55.5 -39.5t-65.5 -14.5zM215 63q21 0 43 11.5t42.5 32
t38 48.5t31 62t21 71.5t7.5 77.5q0 47 -21.5 76.5t-70.5 29.5q-30 0 -55.5 -17t-46.5 -46.5t-36 -68.5t-23 -82.5t-8 -88.5q0 -53 20 -79.5t58 -26.5zM564 0l12 60l317 410h-216l15 66h312l-15 -71l-311 -399h239l-13 -66h-340z" />
    <glyph glyph-name="uni01F4" unicode="&#x1f4;" horiz-adv-x="645" 
d="M324 -10q-120 0 -187 70t-67 195q0 79 17.5 149.5t50 129t78 101t103 66t124.5 23.5q62 0 108 -11t88 -31l-35 -78q-35 17 -75 29t-88 12q-60 0 -110.5 -28t-88 -79.5t-58 -121.5t-20.5 -154q0 -54 18 -98t56 -69.5t97 -25.5q35 0 64.5 5.5t49.5 12.5l45 211h-132l18 78
h221l-77 -349q-43 -16 -90.5 -26.5t-109.5 -10.5zM409 797q17 19 37 45t38.5 53t32.5 49h99v-10q-10 -13 -28 -33t-39.5 -42t-43.5 -41.5t-40 -33.5h-56v13z" />
    <glyph glyph-name="uni01F5" unicode="&#x1f5;" horiz-adv-x="551" 
d="M175 -240q-47 0 -86.5 9.5t-67.5 24.5l1 81q17 -10 42 -20t53 -16t55 -6q59 0 97 30t53 100l8 38q4 15 8 33t9 35.5t8 29.5h-4q-21 -29 -46.5 -54t-55 -40t-65.5 -15q-40 0 -71 20.5t-48.5 60.5t-17.5 99q0 58 11.5 113t33 103t52.5 84t70.5 56t85.5 20q35 0 60 -13
t42 -34t27 -46h3l32 83h67l-122 -567q-16 -75 -47.5 -121t-78.5 -67t-108 -21zM216 63q21 0 43 11.5t42 32.5t37.5 49.5t31 62.5t21 71.5t7.5 75.5q0 47 -21 76.5t-69 29.5q-30 0 -56.5 -17t-47.5 -46.5t-36 -68.5t-23 -82.5t-8 -88.5q0 -53 20.5 -79.5t58.5 -26.5zM295 619
q17 19 37 45t38.5 53t32.5 49h99v-10q-10 -13 -28 -33t-39.5 -42t-43.5 -41.5t-40 -33.5h-56v13z" />
    <glyph glyph-name="uni01F6" unicode="&#x1f6;" horiz-adv-x="861" 
d="M571 -10q-74 0 -112.5 38t-38.5 104q0 12 2.5 28t4.5 29l30 144h-260l-70 -333h-89l151 714h89l-64 -302h260l64 302h88l-110 -519q-3 -14 -4.5 -26.5t-1.5 -23.5q0 -40 16.5 -58t50.5 -18q44 0 67.5 34t39.5 112l68 321h89l-69 -327q-16 -79 -40.5 -127.5t-63 -70
t-97.5 -21.5z" />
    <glyph glyph-name="uni01F7" unicode="&#x1f7;" horiz-adv-x="601" 
d="M-14 -240l203 955h72l-14 -106h5q19 32 43 58.5t59 42t86 15.5q49 0 86.5 -24t59 -67t21.5 -101q0 -99 -34.5 -181.5t-99 -149.5t-153.5 -119.5t-199 -92.5l-49 -230h-86zM141 77q83 33 151 77.5t118 100t77 122t27 144.5q0 62 -28.5 94t-78.5 32t-89 -30.5t-66.5 -87
t-44.5 -136.5z" />
    <glyph glyph-name="uni01F8" unicode="&#x1f8;" horiz-adv-x="675" 
d="M37 0l151 714h96l198 -590h3q2 18 6 41.5t8.5 50t10 53.5t10.5 52l84 393h83l-151 -714h-95l-200 592h-3q-2 -16 -5.5 -39.5t-8.5 -51t-10.5 -57t-11.5 -56.5l-82 -388h-83zM447 784q-17 19 -37.5 46t-38 55t-27.5 49v10h94q7 -24 17 -50t22 -50.5t25 -47.5l-1 -12h-54z
" />
    <glyph glyph-name="uni01F9" unicode="&#x1f9;" horiz-adv-x="552" 
d="M22 0l115 539h77l-12 -99h2q19 25 43 50t55.5 42t72.5 17t70.5 -16t45 -46t15.5 -73q0 -23 -4 -47t-8 -42l-70 -325h-93l71 337q5 23 7.5 38.5t2.5 29.5q0 32 -15 48t-47 16t-68.5 -23.5t-67.5 -75.5t-49 -140l-50 -230h-93zM349 606q-17 19 -37.5 46t-38 55t-27.5 49v10
h94q7 -24 17 -50t22 -50.5t25 -47.5l-1 -12h-54z" />
    <glyph glyph-name="Aringacute" unicode="&#x1fa;" horiz-adv-x="539" 
d="M278 631q-10 13 -14.5 29.5t-4.5 36.5q0 51 31 79t74 28q46 0 75 -27.5t29 -75.5q0 -29 -11.5 -52t-30.5 -37l66 -612h-87l-22 222h-229l-111 -222h-97zM197 302h177l-13 141q-3 38 -5.5 75t-4.5 69h-12q-15 -32 -32 -68.5t-37 -75.5zM362 644q23 0 38 15t15 41
t-14.5 40.5t-37.5 14.5q-22 0 -37 -15t-15 -42q0 -25 13.5 -39.5t37.5 -14.5zM332 839q17 16 36 36.5t37 42.5t32 40h109v-9q-13 -13 -40 -35.5t-57 -45.5t-55 -39h-62v10z" />
    <glyph glyph-name="aringacute" unicode="&#x1fb;" horiz-adv-x="541" 
d="M183 -10q-40 0 -70.5 20.5t-48 60.5t-17.5 99q0 60 12 115.5t34.5 103t53.5 83t70 55t83 19.5q34 0 58.5 -13t41.5 -34t27 -46h5l31 83h67l-114 -536h-70l13 99h-3q-22 -29 -48.5 -54t-57.5 -40t-67 -15zM214 63q34 0 67.5 27t61 73t41.5 103q8 30 10.5 55.5t2.5 44.5
q0 47 -23.5 76.5t-64.5 29.5q-29 0 -55 -16t-47.5 -45t-37 -67.5t-24 -83t-8.5 -91.5q0 -53 20 -79.5t57 -26.5zM343 585q-46 0 -75 27.5t-28 76.5q0 50 31 77.5t74 27.5q45 0 74.5 -27t28.5 -77t-31 -77.5t-74 -27.5zM343 634q23 0 37.5 15t15.5 40q0 26 -14.5 40.5
t-36.5 14.5q-23 0 -37.5 -14.5t-15.5 -40.5q0 -25 13 -40t38 -15zM316 839q17 16 36.5 37t37.5 42.5t32 39.5h108v-9q-13 -13 -39.5 -35.5t-57 -45t-56.5 -38.5h-61v9z" />
    <glyph glyph-name="AEacute" unicode="&#x1fc;" horiz-adv-x="788" 
d="M-55 0l441 714h447l-16 -79h-259l-47 -223h242l-16 -78h-242l-53 -255h258l-18 -79h-347l46 222h-203l-132 -222h-101zM230 302h168l70 333h-39zM474 797q17 19 37 45t38.5 53t32.5 49h99v-10q-10 -13 -28 -33t-39.5 -42t-43.5 -41.5t-40 -33.5h-56v13z" />
    <glyph glyph-name="aeacute" unicode="&#x1fd;" horiz-adv-x="783" 
d="M169 -10q-36 0 -63.5 20.5t-43 60t-15.5 97.5q0 61 12 117t34.5 103.5t53 83t67.5 55t79 19.5q31 0 53 -13t37.5 -34t25.5 -46h4l32 83h56l-14 -69q25 35 63.5 57t88.5 22q53 0 90 -30.5t37 -94.5q0 -52 -31 -95t-97 -68.5t-171 -25.5h-19q-1 -9 -1.5 -19t-0.5 -18
q0 -61 27.5 -96.5t86.5 -35.5q35 0 68.5 12t70.5 29l-1 -77q-38 -18 -75.5 -27.5t-78.5 -9.5q-50 0 -87 19t-57 57l-13 -66h-59l13 99h-4q-25 -33 -50.5 -57.5t-54 -38t-63.5 -13.5zM200 63q25 0 50 15.5t47 43t40 65t29 80.5q8 29 10.5 54.5t2.5 45.5q0 47 -19.5 76
t-55.5 29q-28 0 -53 -16t-46 -45t-36 -67t-23.5 -83t-8.5 -92q0 -53 16.5 -79.5t46.5 -26.5zM471 303q57 0 104.5 10.5t75.5 35t28 64.5q0 32 -17 46t-41 14q-34 0 -65 -20t-55.5 -58t-39.5 -92h10zM413 619q17 19 37 45t38.5 53t32.5 49h99v-10q-10 -13 -28 -33t-39.5 -42
t-43.5 -41.5t-40 -33.5h-56v13z" />
    <glyph glyph-name="Oslashacute" unicode="&#x1fe;" horiz-adv-x="686" 
d="M109 -41l-55 46l63 82q-24 35 -35.5 81t-10.5 99q1 62 12 119.5t31.5 108.5t50.5 93t69 73t85.5 47.5t100.5 16.5q45 0 82 -13t68 -39l60 79l56 -46l-68 -88q22 -31 33 -76.5t10 -97.5q0 -62 -10.5 -119.5t-30 -108t-48 -92t-66.5 -71.5t-84.5 -46.5t-101.5 -16.5
q-46 0 -83.5 11.5t-68.5 34.5zM324 69q37 0 69.5 14t59.5 39t48 59.5t36 77t23 90t8 97.5q1 27 -2.5 51t-9.5 43l-335 -437q19 -16 45 -25t58 -9zM515 606q-19 20 -44.5 30.5t-57.5 10.5q-37 0 -70 -13.5t-60.5 -38.5t-49.5 -59t-37 -76.5t-23 -90.5t-9 -100q-1 -30 3.5 -57
t12.5 -48zM411 835q17 19 37 45t38.5 53t32.5 49h99v-10q-10 -13 -28 -33t-39.5 -42t-43.5 -41.5t-40 -33.5h-56v13z" />
    <glyph glyph-name="oslashacute" unicode="&#x1ff;" horiz-adv-x="536" 
d="M78 -38l-51 41l52 67q-16 25 -23.5 56t-7.5 69q0 49 10.5 99t31.5 94.5t52 79.5t72.5 55t92.5 20q35 0 64 -8t51 -24l46 61l51 -40l-52 -62q14 -23 20.5 -56.5t6.5 -66.5q0 -49 -10.5 -99.5t-31 -96t-51.5 -81.5t-72 -57t-92 -21q-33 0 -61 8t-51 23zM242 63
q27 0 52 12.5t46 36t36.5 57.5t24 76.5t8.5 93.5q0 15 -1.5 28.5t-3.5 20.5l-230 -304q12 -10 30 -15.5t38 -5.5zM372 449q-10 9 -25.5 15.5t-39.5 6.5q-32 0 -59 -14.5t-48 -40t-36 -60t-23 -74t-8 -82.5q0 -19 2 -34t5 -23zM299 655q17 19 37 45t38.5 53t32.5 49h99v-10
q-10 -13 -28 -33t-39.5 -42t-43.5 -41.5t-40 -33.5h-56v13z" />
    <glyph glyph-name="uni0200" unicode="&#x200;" horiz-adv-x="539" 
d="M-54 0l375 714h96l75 -714h-88l-22 222h-228l-111 -222h-97zM197 302h177l-13 150q-3 38 -6 84t-3 81h-3q-16 -38 -35 -81.5t-42 -87.5zM422 784q-18 19 -38 46t-37.5 55t-27.5 49v10h94q6 -24 16 -50t22.5 -50.5t24.5 -47.5v-12h-54zM258 784q-17 19 -37.5 46t-38 55
t-27.5 49v10h93q7 -24 17 -50t22.5 -50.5t25.5 -47.5v-12h-55z" />
    <glyph glyph-name="uni0201" unicode="&#x201;" horiz-adv-x="541" 
d="M183 -10q-40 0 -70.5 20.5t-48 60.5t-17.5 99q0 60 12 115.5t34.5 103t53.5 83t70 55t83 19.5q34 0 58.5 -13t41.5 -34t27 -46h5l31 83h67l-114 -536h-70l13 99h-3q-22 -29 -48.5 -54t-57.5 -40t-67 -15zM214 63q34 0 67.5 27t61 73t41.5 103q8 30 10.5 55.5t2.5 44.5
q0 47 -23.5 76.5t-64.5 29.5q-29 0 -55 -16t-47.5 -45t-37 -67.5t-24 -83t-8.5 -91.5q0 -53 20 -79.5t57 -26.5zM376 606q-18 19 -38 46t-37.5 55t-27.5 49v10h94q6 -24 16 -50t22.5 -50.5t24.5 -47.5v-12h-54zM212 606q-17 19 -37.5 46t-38 55t-27.5 49v10h93q7 -24 17 -50
t22.5 -50.5t25.5 -47.5v-12h-55z" />
    <glyph glyph-name="uni0202" unicode="&#x202;" horiz-adv-x="539" 
d="M-54 0l375 714h96l75 -714h-88l-22 222h-228l-111 -222h-97zM197 302h177l-13 150q-3 38 -6 84t-3 81h-3q-16 -38 -35 -81.5t-42 -87.5zM247 784q17 72 57 103t101 31q36 0 62.5 -13t41.5 -37.5t15 -60.5v-11.5t-1 -11.5h-52q1 29 -16 45t-59 16q-43 0 -64.5 -16.5
t-29.5 -44.5h-55z" />
    <glyph glyph-name="uni0203" unicode="&#x203;" horiz-adv-x="541" 
d="M183 -10q-40 0 -70.5 20.5t-48 60.5t-17.5 99q0 60 12 115.5t34.5 103t53.5 83t70 55t83 19.5q34 0 58.5 -13t41.5 -34t27 -46h5l31 83h67l-114 -536h-70l13 99h-3q-22 -29 -48.5 -54t-57.5 -40t-67 -15zM214 63q34 0 67.5 27t61 73t41.5 103q8 30 10.5 55.5t2.5 44.5
q0 47 -23.5 76.5t-64.5 29.5q-29 0 -55 -16t-47.5 -45t-37 -67.5t-24 -83t-8.5 -91.5q0 -53 20 -79.5t57 -26.5zM201 606q17 72 57 103t101 31q36 0 62.5 -13t41.5 -37.5t15 -60.5v-11.5t-1 -11.5h-52q1 29 -16 45t-59 16q-43 0 -64.5 -16.5t-29.5 -44.5h-55z" />
    <glyph glyph-name="uni0204" unicode="&#x204;" horiz-adv-x="491" 
d="M38 0l151 714h347l-18 -79h-258l-46 -223h241l-16 -78h-242l-53 -255h258l-17 -79h-347zM433 784q-18 19 -38 46t-37.5 55t-27.5 49v10h94q6 -24 16 -50t22.5 -50.5t24.5 -47.5v-12h-54zM269 784q-17 19 -37.5 46t-38 55t-27.5 49v10h93q7 -24 17 -50t22.5 -50.5
t25.5 -47.5v-12h-55z" />
    <glyph glyph-name="uni0205" unicode="&#x205;" horiz-adv-x="478" 
d="M231 -10q-58 0 -99.5 24.5t-63 69t-21.5 105.5q0 64 18 127t52 115t82 83.5t109 31.5q73 0 109.5 -32.5t36.5 -90.5q0 -53 -31 -96.5t-97 -69t-171 -25.5h-17q-1 -10 -1.5 -20t-0.5 -19q0 -61 27.5 -95.5t84.5 -34.5q36 0 68.5 11t71.5 30l-1 -75q-37 -17 -72 -28
t-84 -11zM159 303q57 0 104.5 10.5t76 35.5t28.5 66q0 25 -16 41.5t-50 16.5q-30 0 -59.5 -20t-53.5 -58t-38 -92h8zM362 606q-18 19 -38 46t-37.5 55t-27.5 49v10h94q6 -24 16 -50t22.5 -50.5t24.5 -47.5v-12h-54zM198 606q-17 19 -37.5 46t-38 55t-27.5 49v10h93
q7 -24 17 -50t22.5 -50.5t25.5 -47.5v-12h-55z" />
    <glyph glyph-name="uni0206" unicode="&#x206;" horiz-adv-x="491" 
d="M38 0l151 714h347l-18 -79h-258l-46 -223h241l-16 -78h-242l-53 -255h258l-17 -79h-347zM258 784q17 72 57 103t101 31q36 0 62.5 -13t41.5 -37.5t15 -60.5v-11.5t-1 -11.5h-52q1 29 -16 45t-59 16q-43 0 -64.5 -16.5t-29.5 -44.5h-55z" />
    <glyph glyph-name="uni0207" unicode="&#x207;" horiz-adv-x="478" 
d="M231 -10q-58 0 -99.5 24.5t-63 69t-21.5 105.5q0 64 18 127t52 115t82 83.5t109 31.5q73 0 109.5 -32.5t36.5 -90.5q0 -53 -31 -96.5t-97 -69t-171 -25.5h-17q-1 -10 -1.5 -20t-0.5 -19q0 -61 27.5 -95.5t84.5 -34.5q36 0 68.5 11t71.5 30l-1 -75q-37 -17 -72 -28
t-84 -11zM159 303q57 0 104.5 10.5t76 35.5t28.5 66q0 25 -16 41.5t-50 16.5q-30 0 -59.5 -20t-53.5 -58t-38 -92h8zM187 606q17 72 57 103t101 31q36 0 62.5 -13t41.5 -37.5t15 -60.5v-11.5t-1 -11.5h-52q1 29 -16 45t-59 16q-43 0 -64.5 -16.5t-29.5 -44.5h-55z" />
    <glyph glyph-name="uni0208" unicode="&#x208;" horiz-adv-x="311" 
d="M-20 0l11 49l81 20l120 576l-72 19l11 50h242l-10 -50l-83 -19l-120 -576l73 -20l-11 -49h-242zM308 784q-18 19 -38 46t-37.5 55t-27.5 49v10h94q6 -24 16 -50t22.5 -50.5t24.5 -47.5v-12h-54zM144 784q-17 19 -37.5 46t-38 55t-27.5 49v10h93q7 -24 17 -50t22.5 -50.5
t25.5 -47.5v-12h-55z" />
    <glyph glyph-name="uni0209" unicode="&#x209;" horiz-adv-x="248" 
d="M26 0l114 536h88l-114 -536h-88zM239 606q-18 19 -38 46t-37.5 55t-27.5 49v10h94q6 -24 16 -50t22.5 -50.5t24.5 -47.5v-12h-54zM75 606q-17 19 -37.5 46t-38 55t-27.5 49v10h93q7 -24 17 -50t22.5 -50.5t25.5 -47.5v-12h-55z" />
    <glyph glyph-name="uni020A" unicode="&#x20a;" horiz-adv-x="311" 
d="M-20 0l11 49l81 20l120 576l-72 19l11 50h242l-10 -50l-83 -19l-120 -576l73 -20l-11 -49h-242zM133 784q17 72 57 103t101 31q36 0 62.5 -13t41.5 -37.5t15 -60.5v-11.5t-1 -11.5h-52q1 29 -16 45t-59 16q-43 0 -64.5 -16.5t-29.5 -44.5h-55z" />
    <glyph glyph-name="uni020B" unicode="&#x20b;" horiz-adv-x="248" 
d="M26 0l114 536h88l-114 -536h-88zM64 606q17 72 57 103t101 31q36 0 62.5 -13t41.5 -37.5t15 -60.5v-11.5t-1 -11.5h-52q1 29 -16 45t-59 16q-43 0 -64.5 -16.5t-29.5 -44.5h-55z" />
    <glyph glyph-name="uni020C" unicode="&#x20c;" horiz-adv-x="686" 
d="M319 -10q-81 0 -136.5 33t-84 94.5t-28.5 145.5q0 62 10.5 120t31.5 109.5t51 94t68.5 73.5t86 48t101.5 17q115 0 178.5 -74t63.5 -203q0 -62 -10 -119.5t-29 -109t-48 -93.5t-67 -72.5t-85 -47t-103 -16.5zM323 69q38 0 70.5 14t59.5 39.5t48 61t35.5 78t22 90
t7.5 98.5q0 93 -41 144.5t-113 51.5q-38 0 -71 -13.5t-60.5 -38.5t-49 -60t-36.5 -77.5t-23 -90.5t-8 -100q0 -62 19 -106t55 -67.5t85 -23.5zM496 784q-18 19 -38 46t-37.5 55t-27.5 49v10h94q6 -24 16 -50t22.5 -50.5t24.5 -47.5v-12h-54zM332 784q-17 19 -37.5 46t-38 55
t-27.5 49v10h93q7 -24 17 -50t22.5 -50.5t25.5 -47.5v-12h-55z" />
    <glyph glyph-name="uni020D" unicode="&#x20d;" horiz-adv-x="536" 
d="M235 -8q-87 0 -137.5 54.5t-50.5 148.5q0 49 10.5 99t31.5 94.5t52.5 79.5t73 55t92.5 20q59 0 101 -25t64.5 -70.5t22.5 -108.5q0 -49 -10.5 -98.5t-31.5 -94t-52 -79.5t-72.5 -55t-93.5 -20zM242 65q27 0 51.5 12.5t45 36t35.5 58t23.5 79t8.5 97.5q0 29 -10 57
t-31.5 46.5t-58.5 18.5q-31 0 -57.5 -14.5t-47.5 -40t-35.5 -60.5t-22 -76t-7.5 -86q0 -61 27.5 -94.5t78.5 -33.5zM380 606q-18 19 -38 46t-37.5 55t-27.5 49v10h94q6 -24 16 -50t22.5 -50.5t24.5 -47.5v-12h-54zM216 606q-17 19 -37.5 46t-38 55t-27.5 49v10h93
q7 -24 17 -50t22.5 -50.5t25.5 -47.5v-12h-55z" />
    <glyph glyph-name="uni020E" unicode="&#x20e;" horiz-adv-x="686" 
d="M319 -10q-81 0 -136.5 33t-84 94.5t-28.5 145.5q0 62 10.5 120t31.5 109.5t51 94t68.5 73.5t86 48t101.5 17q115 0 178.5 -74t63.5 -203q0 -62 -10 -119.5t-29 -109t-48 -93.5t-67 -72.5t-85 -47t-103 -16.5zM323 69q38 0 70.5 14t59.5 39.5t48 61t35.5 78t22 90
t7.5 98.5q0 93 -41 144.5t-113 51.5q-38 0 -71 -13.5t-60.5 -38.5t-49 -60t-36.5 -77.5t-23 -90.5t-8 -100q0 -62 19 -106t55 -67.5t85 -23.5zM321 784q17 72 57 103t101 31q36 0 62.5 -13t41.5 -37.5t15 -60.5v-11.5t-1 -11.5h-52q1 29 -16 45t-59 16q-43 0 -64.5 -16.5
t-29.5 -44.5h-55z" />
    <glyph glyph-name="uni020F" unicode="&#x20f;" horiz-adv-x="536" 
d="M235 -8q-87 0 -137.5 54.5t-50.5 148.5q0 49 10.5 99t31.5 94.5t52.5 79.5t73 55t92.5 20q59 0 101 -25t64.5 -70.5t22.5 -108.5q0 -49 -10.5 -98.5t-31.5 -94t-52 -79.5t-72.5 -55t-93.5 -20zM242 65q27 0 51.5 12.5t45 36t35.5 58t23.5 79t8.5 97.5q0 29 -10 57
t-31.5 46.5t-58.5 18.5q-31 0 -57.5 -14.5t-47.5 -40t-35.5 -60.5t-22 -76t-7.5 -86q0 -61 27.5 -94.5t78.5 -33.5zM205 606q17 72 57 103t101 31q36 0 62.5 -13t41.5 -37.5t15 -60.5v-11.5t-1 -11.5h-52q1 29 -16 45t-59 16q-43 0 -64.5 -16.5t-29.5 -44.5h-55z" />
    <glyph glyph-name="uni0210" unicode="&#x210;" horiz-adv-x="547" 
d="M38 0l151 714h150q104 0 156 -45t52 -133q0 -52 -17 -95.5t-54 -75.5t-98 -50l109 -315h-98l-93 295h-107l-62 -295h-89zM277 371q47 0 80.5 11.5t55.5 32.5t32.5 50t10.5 64q0 59 -32 83t-94 24h-69l-56 -265h72zM427 784q-18 19 -38 46t-37.5 55t-27.5 49v10h94
q6 -24 16 -50t22.5 -50.5t24.5 -47.5v-12h-54zM263 784q-17 19 -37.5 46t-38 55t-27.5 49v10h93q7 -24 17 -50t22.5 -50.5t25.5 -47.5v-12h-55z" />
    <glyph glyph-name="uni0211" unicode="&#x211;" horiz-adv-x="379" 
d="M26 0l114 536h71l-11 -99h5q20 28 42.5 52.5t50 40.5t63.5 16q14 0 28 -1.5t26 -5.5l-19 -79q-13 3 -24.5 4.5t-24.5 1.5q-35 0 -64.5 -19.5t-52.5 -51.5t-39 -71t-25 -79l-52 -245h-88zM332 606q-18 19 -38 46t-37.5 55t-27.5 49v10h94q6 -24 16 -50t22.5 -50.5
t24.5 -47.5v-12h-54zM168 606q-17 19 -37.5 46t-38 55t-27.5 49v10h93q7 -24 17 -50t22.5 -50.5t25.5 -47.5v-12h-55z" />
    <glyph glyph-name="uni0212" unicode="&#x212;" horiz-adv-x="547" 
d="M38 0l151 714h150q104 0 156 -45t52 -133q0 -52 -17 -95.5t-54 -75.5t-98 -50l109 -315h-98l-93 295h-107l-62 -295h-89zM277 371q47 0 80.5 11.5t55.5 32.5t32.5 50t10.5 64q0 59 -32 83t-94 24h-69l-56 -265h72zM252 784q17 72 57 103t101 31q36 0 62.5 -13t41.5 -37.5
t15 -60.5v-11.5t-1 -11.5h-52q1 29 -16 45t-59 16q-43 0 -64.5 -16.5t-29.5 -44.5h-55z" />
    <glyph glyph-name="uni0213" unicode="&#x213;" horiz-adv-x="379" 
d="M26 0l114 536h71l-11 -99h5q20 28 42.5 52.5t50 40.5t63.5 16q14 0 28 -1.5t26 -5.5l-19 -79q-13 3 -24.5 4.5t-24.5 1.5q-35 0 -64.5 -19.5t-52.5 -51.5t-39 -71t-25 -79l-52 -245h-88zM157 606q17 72 57 103t101 31q36 0 62.5 -13t41.5 -37.5t15 -60.5v-11.5t-1 -11.5
h-52q1 29 -16 45t-59 16q-43 0 -64.5 -16.5t-29.5 -44.5h-55z" />
    <glyph glyph-name="uni0214" unicode="&#x214;" horiz-adv-x="644" 
d="M284 -10q-70 0 -116 22.5t-69 66.5t-23 106q0 18 3 43.5t10 54.5l92 431h88l-93 -436q-5 -24 -8 -49.5t-3 -41.5q0 -55 31.5 -86.5t94.5 -31.5q55 0 90.5 20.5t57.5 61t35 99.5l99 464h89l-100 -471q-16 -78 -49.5 -135t-89 -87.5t-139.5 -30.5zM465 784q-18 19 -38 46
t-37.5 55t-27.5 49v10h94q6 -24 16 -50t22.5 -50.5t24.5 -47.5v-12h-54zM301 784q-17 19 -37.5 46t-38 55t-27.5 49v10h93q7 -24 17 -50t22.5 -50.5t25.5 -47.5v-12h-55z" />
    <glyph glyph-name="uni0215" unicode="&#x215;" horiz-adv-x="551" 
d="M179 -10q-38 0 -66.5 15t-44 44t-15.5 72q0 23 3.5 44t7.5 44l70 327h89l-71 -337q-5 -22 -7.5 -38.5t-2.5 -29.5q0 -31 15 -49.5t49 -18.5q33 0 69.5 24t68.5 77t51 141l49 231h86l-114 -536h-71l11 99h-4q-18 -24 -43 -49.5t-57 -42.5t-73 -17zM387 606q-18 19 -38 46
t-37.5 55t-27.5 49v10h94q6 -24 16 -50t22.5 -50.5t24.5 -47.5v-12h-54zM223 606q-17 19 -37.5 46t-38 55t-27.5 49v10h93q7 -24 17 -50t22.5 -50.5t25.5 -47.5v-12h-55z" />
    <glyph glyph-name="uni0216" unicode="&#x216;" horiz-adv-x="644" 
d="M284 -10q-70 0 -116 22.5t-69 66.5t-23 106q0 18 3 43.5t10 54.5l92 431h88l-93 -436q-5 -24 -8 -49.5t-3 -41.5q0 -55 31.5 -86.5t94.5 -31.5q55 0 90.5 20.5t57.5 61t35 99.5l99 464h89l-100 -471q-16 -78 -49.5 -135t-89 -87.5t-139.5 -30.5zM290 784q17 72 57 103
t101 31q36 0 62.5 -13t41.5 -37.5t15 -60.5v-11.5t-1 -11.5h-52q1 29 -16 45t-59 16q-43 0 -64.5 -16.5t-29.5 -44.5h-55z" />
    <glyph glyph-name="uni0217" unicode="&#x217;" horiz-adv-x="551" 
d="M179 -10q-38 0 -66.5 15t-44 44t-15.5 72q0 23 3.5 44t7.5 44l70 327h89l-71 -337q-5 -22 -7.5 -38.5t-2.5 -29.5q0 -31 15 -49.5t49 -18.5q33 0 69.5 24t68.5 77t51 141l49 231h86l-114 -536h-71l11 99h-4q-18 -24 -43 -49.5t-57 -42.5t-73 -17zM212 606q17 72 57 103
t101 31q36 0 62.5 -13t41.5 -37.5t15 -60.5v-11.5t-1 -11.5h-52q1 29 -16 45t-59 16q-43 0 -64.5 -16.5t-29.5 -44.5h-55z" />
    <glyph glyph-name="uni0218" unicode="&#x218;" horiz-adv-x="482" 
d="M176 -10q-49 0 -87.5 8t-70.5 24l1 88q20 -10 43.5 -20t52.5 -16t63 -6q32 0 60 7.5t49.5 24t34 41.5t12.5 60q0 26 -11 47t-34.5 41.5t-62.5 44.5q-34 22 -61.5 46.5t-43.5 56.5t-16 78q0 50 17.5 89t48.5 65.5t72 40.5t88 14q53 0 93.5 -11t77.5 -31l-35 -76
q-25 14 -61.5 26.5t-75.5 12.5q-28 0 -52 -8.5t-42 -24.5t-27.5 -39t-9.5 -52t10.5 -49t31.5 -36.5t53 -37.5q40 -25 70 -50t47 -57.5t17 -81.5q0 -54 -18 -95t-51.5 -68.5t-80 -41.5t-102.5 -14zM70 -208q10 17 23 43t25.5 54.5t19.5 49.5h83v-10q-6 -16 -22.5 -43
t-37.5 -56t-43 -51h-48v13z" />
    <glyph glyph-name="uni0219" unicode="&#x219;" horiz-adv-x="413" 
d="M148 -10q-46 0 -81 9.5t-62 24.5l1 81q25 -16 62.5 -29.5t77.5 -13.5q37 0 62 10.5t38 30t13 44.5q0 19 -7.5 33.5t-25.5 29t-51 33.5q-35 22 -59 43.5t-36 47.5t-12 60q1 46 22.5 80t61.5 53t93 19q46 0 85.5 -11.5t68.5 -25.5l-28 -70q-25 12 -55.5 22.5t-71.5 10.5
q-40 0 -64 -20.5t-24 -53.5q0 -17 7 -30.5t25 -28t50 -34.5t57.5 -40t40 -46t13.5 -64q0 -54 -25 -91t-70 -55.5t-106 -18.5zM44 -208q10 17 23 43t25.5 54.5t19.5 49.5h83v-10q-6 -16 -22.5 -43t-37.5 -56t-43 -51h-48v13z" />
    <glyph glyph-name="uni021A" unicode="&#x21a;" horiz-adv-x="478" 
d="M143 0l133 635h-184l18 79h458l-16 -79h-185l-134 -635h-90zM80 -208q10 17 23 43t25.5 54.5t19.5 49.5h83v-10q-6 -16 -22.5 -43t-37.5 -56t-43 -51h-48v13z" />
    <glyph glyph-name="uni021B" unicode="&#x21b;" horiz-adv-x="321" 
d="M177 -10q-52 0 -87 26t-35 91q1 15 3 33.5t6 37.5l61 291h-78l8 40l87 38l60 111h53l-27 -122h128l-14 -67h-128l-62 -292q-3 -13 -5.5 -29.5t-2.5 -30.5q-1 -23 10.5 -39t38.5 -16q17 0 33 3.5t35 9.5l-1 -67q-12 -6 -36.5 -12t-46.5 -6zM28 -208q10 17 23 43t25.5 54.5
t19.5 49.5h83v-10q-6 -16 -22.5 -43t-37.5 -56t-43 -51h-48v13z" />
    <glyph glyph-name="uni021C" unicode="&#x21c;" horiz-adv-x="515" 
d="M-44 -94q83 21 157.5 47.5t132 61t90.5 80.5t33 107q0 48 -23.5 76.5t-62.5 50.5q-28 -10 -58 -18.5t-62 -16.5l-3 72q51 15 97 30t82 35t56.5 49.5t20.5 73.5q0 30 -10.5 51.5t-31 32.5t-49.5 11q-51 0 -94.5 -15.5t-87.5 -44.5l-31 64q58 39 115 54.5t115 15.5
q46 0 83.5 -17.5t60.5 -52t23 -86.5q0 -72 -38 -122t-103 -81q37 -20 65.5 -59.5t28.5 -102.5q0 -66 -28 -118t-78.5 -92.5t-116.5 -72t-143 -55.5t-158 -44z" />
    <glyph glyph-name="uni021D" unicode="&#x21d;" horiz-adv-x="458" 
d="M-71 -161q67 14 130 34.5t113 49.5t79.5 69t29.5 93q0 39 -16.5 62t-45.5 39q-25 -9 -54 -16t-60 -14v66q62 16 104.5 33t68.5 37t37.5 43.5t11.5 53.5q0 44 -23.5 65t-66.5 21q-34 0 -64.5 -10t-61.5 -30l-25 64q41 26 80.5 36.5t78.5 10.5q46 0 85.5 -16.5t63.5 -49.5
t24 -85q0 -56 -34 -101t-89 -75q34 -18 55 -48t21 -84q0 -60 -25 -106.5t-69.5 -82t-103 -61.5t-125 -44.5t-136.5 -32.5z" />
    <glyph glyph-name="uni021E" unicode="&#x21e;" horiz-adv-x="648" 
d="M39 0l151 714h89l-64 -302h293l63 302h88l-151 -714h-88l70 333h-292l-70 -333h-89zM390 784q-8 26 -22 52.5t-28.5 51t-26.5 43.5v13h54q12 -10 24.5 -24.5t25 -31.5t24.5 -35q29 27 59 50.5t55 40.5h58v-13q-16 -15 -43 -41.5t-53 -54.5t-40 -51h-87z" />
    <glyph glyph-name="uni021F" unicode="&#x21f;" horiz-adv-x="551" 
d="M26 0l161 760h88l-42 -197q-3 -15 -7 -31t-8.5 -32l-9 -32t-8.5 -32h5q19 25 43.5 50t56 42t71.5 17t68 -15t43.5 -45t15.5 -75q0 -20 -3 -40.5t-8 -43.5l-69 -326h-88l70 336q5 23 7.5 39t2.5 28q0 32 -15.5 50.5t-49.5 18.5q-32 0 -69 -23.5t-68.5 -76.5t-50.5 -141
l-48 -231h-88zM189 830q-8 26 -22 52.5t-28.5 51t-26.5 43.5v13h54q12 -10 24.5 -24.5t25 -31.5t24.5 -35q29 27 59 50.5t55 40.5h58v-13q-16 -15 -43 -41.5t-53 -54.5t-40 -51h-87z" />
    <glyph glyph-name="uni0220" unicode="&#x220;" horiz-adv-x="668" 
d="M543 461q4 20 6.5 38t2.5 34q0 54 -25.5 84t-83.5 30q-60 0 -108 -37.5t-81 -99t-48 -133.5l-79 -377h-89l151 714h74l-16 -117h4q23 39 55 67.5t72 44.5t86 16q85 0 131.5 -45.5t46.5 -136.5q0 -19 -2.5 -39t-7.5 -43l-148 -701h-90z" />
    <glyph glyph-name="uni0221" unicode="&#x221;" horiz-adv-x="776" 
d="M398 -93q6 27 15.5 60.5t18.5 55.5q-24 16 -36 44t-13 68h-3q-21 -41 -53.5 -74t-70 -52t-73.5 -19q-40 0 -70.5 20t-48 60t-17.5 100q0 59 11.5 114t33 102.5t52.5 83t70.5 55.5t85.5 20q34 0 58.5 -13t41.5 -33.5t27 -45.5h4q5 34 10 65t12 67l38 175h86l-117 -554
q-4 -22 -7.5 -44.5t-3.5 -37.5q0 -13 2.5 -23.5t6.5 -17.5q16 30 36.5 57t51 44t74.5 17q36 0 59 -13t34.5 -35t11.5 -50q0 -42 -19.5 -66.5t-54 -35.5t-81.5 -11q-25 0 -46 3t-35 7q-7 -19 -15.5 -49.5t-13.5 -55.5zM215 63q21 0 43 11.5t42.5 32t38 48.5t31 62t21 71.5
t7.5 77.5q0 47 -21.5 76.5t-70.5 29.5q-30 0 -55.5 -17t-46.5 -46.5t-36 -68.5t-23 -82.5t-8 -88.5q0 -53 20 -79.5t58 -26.5zM577 48q47 0 65.5 15.5t18.5 39.5q0 20 -12 31.5t-38 11.5q-35 0 -59.5 -25t-41.5 -65q12 -4 29 -6t38 -2z" />
    <glyph glyph-name="uni0222" unicode="&#x222;" horiz-adv-x="615" 
d="M261 -10q-63 0 -112.5 24.5t-77.5 71t-28 112.5q0 65 24 113.5t65.5 80.5t92.5 47q-31 21 -50 53t-19 81q0 13 2 26t5 27l18 88h89l-18 -88q-3 -13 -4.5 -26t-1.5 -25q0 -52 28.5 -78.5t80.5 -26.5q48 0 82.5 20t56.5 55.5t31 80.5l18 88h89l-19 -94q-9 -46 -28 -83.5
t-48.5 -64t-70.5 -41.5q28 -15 50.5 -40t36 -58.5t13.5 -75.5q0 -66 -22 -116t-62.5 -83.5t-96.5 -50.5t-124 -17zM270 68q46 0 83 13.5t63.5 38.5t40.5 60.5t14 78.5q0 41 -16 71t-46.5 46.5t-72.5 16.5t-78 -13.5t-63.5 -39t-42.5 -61.5t-15 -81q0 -57 33.5 -93.5
t99.5 -36.5z" />
    <glyph glyph-name="uni0223" unicode="&#x223;" horiz-adv-x="553" 
d="M239 -10q-61 0 -106 23.5t-69.5 67.5t-24.5 105q0 64 19 118.5t56.5 93t93.5 55.5q-28 19 -42 48t-14 72q0 14 1.5 28t5.5 30l26 129h89l-27 -126q-4 -19 -6 -34.5t-2 -29.5q0 -44 24 -64.5t67 -20.5q56 0 87 35t47 114l26 126h89l-27 -129q-17 -82 -49 -125.5t-84 -60.5
q26 -13 44.5 -35t29 -52.5t10.5 -70.5q0 -45 -10 -88.5t-30.5 -81t-51.5 -66.5t-74 -45t-98 -16zM247 63q41 0 71.5 18t50.5 49t30.5 71.5t10.5 86.5q0 58 -29 91t-82 33q-42 0 -73.5 -17t-52.5 -47t-31.5 -70t-10.5 -85q0 -59 30 -94.5t86 -35.5z" />
    <glyph glyph-name="uni0224" unicode="&#x224;" horiz-adv-x="505" 
d="M276 -198q-16 0 -30.5 3.5t-22.5 7.5l1 73q11 -4 22 -6.5t22 -2.5q22 0 34.5 13t19.5 44l14 66h-347l14 70l424 564h-295l17 80h404l-14 -71l-424 -563h316l-35 -164q-14 -66 -45.5 -90t-74.5 -24z" />
    <glyph glyph-name="uni0225" unicode="&#x225;" horiz-adv-x="423" 
d="M186 -198q-16 0 -32.5 4t-24.5 8v73q7 -3 18 -6t24 -3q25 0 38.5 13t19.5 41l14 68h-258l12 60l317 410h-216l15 66h312l-15 -71l-311 -399h240l-29 -142q-13 -63 -43 -92.5t-81 -29.5z" />
    <glyph glyph-name="uni0226" unicode="&#x226;" horiz-adv-x="539" 
d="M-54 0l375 714h96l75 -714h-88l-22 222h-228l-111 -222h-97zM197 302h177l-13 150q-3 38 -6 84t-3 81h-3q-16 -38 -35 -81.5t-42 -87.5zM396 803q-20 0 -33.5 12.5t-13.5 34.5q0 26 15.5 45t43.5 19q15 0 25 -5.5t15 -15.5t5 -24q0 -31 -17.5 -48.5t-39.5 -17.5z" />
    <glyph glyph-name="uni0227" unicode="&#x227;" horiz-adv-x="541" 
d="M183 -10q-40 0 -70.5 20.5t-48 60.5t-17.5 99q0 60 12 115.5t34.5 103t53.5 83t70 55t83 19.5q34 0 58.5 -13t41.5 -34t27 -46h5l31 83h67l-114 -536h-70l13 99h-3q-22 -29 -48.5 -54t-57.5 -40t-67 -15zM214 63q34 0 67.5 27t61 73t41.5 103q8 30 10.5 55.5t2.5 44.5
q0 47 -23.5 76.5t-64.5 29.5q-29 0 -55 -16t-47.5 -45t-37 -67.5t-24 -83t-8.5 -91.5q0 -53 20 -79.5t57 -26.5zM361 625q-20 0 -33.5 12.5t-13.5 34.5q0 26 15.5 45t43.5 19q15 0 25 -5.5t15 -15.5t5 -24q0 -31 -17.5 -48.5t-39.5 -17.5z" />
    <glyph glyph-name="uni0228" unicode="&#x228;" horiz-adv-x="491" 
d="M38 0l151 714h347l-18 -79h-258l-46 -223h241l-16 -78h-242l-53 -255h258l-17 -79h-347zM166 -240q-13 0 -25 1.5t-20 3.5v52q10 -2 20 -3t17 -1q26 0 42.5 6t25 18t8.5 29q0 22 -17.5 32t-46.5 14l47 88h55l-27 -57q23 -7 42 -23.5t19 -53.5q0 -30 -16 -54t-47.5 -38
t-76.5 -14z" />
    <glyph glyph-name="uni0229" unicode="&#x229;" horiz-adv-x="478" 
d="M231 -10q-58 0 -99.5 24.5t-63 69t-21.5 105.5q0 64 18 127t52 115t82 83.5t109 31.5q73 0 109.5 -32.5t36.5 -90.5q0 -53 -31 -96.5t-97 -69t-171 -25.5h-17q-1 -10 -1.5 -20t-0.5 -19q0 -61 27.5 -95.5t84.5 -34.5q36 0 68.5 11t71.5 30l-1 -75q-37 -17 -72 -28
t-84 -11zM159 303q57 0 104.5 10.5t76 35.5t28.5 66q0 25 -16 41.5t-50 16.5q-30 0 -59.5 -20t-53.5 -58t-38 -92h8zM155 -240q-13 0 -25 1.5t-20 3.5v52q10 -2 20 -3t17 -1q26 0 42.5 6t25 18t8.5 29q0 22 -17.5 32t-46.5 14l47 88h55l-27 -57q23 -7 42 -23.5t19 -53.5
q0 -30 -16 -54t-47.5 -38t-76.5 -14z" />
    <glyph glyph-name="uni022A" unicode="&#x22a;" horiz-adv-x="686" 
d="M375 943l15 71h259l-15 -71h-259zM393 779q-19 0 -30.5 11t-11.5 30q0 23 13.5 40.5t38.5 17.5q20 0 29.5 -11t9.5 -28q0 -28 -15 -44t-34 -16zM563 779q-17 0 -29 11t-12 30q0 23 14 40.5t39 17.5q20 0 29.5 -11t9.5 -28q0 -28 -15.5 -44t-35.5 -16zM319 -10
q-81 0 -136.5 33t-84 94.5t-28.5 145.5q0 62 10.5 120t31.5 109.5t51 94t68.5 73.5t86 48t101.5 17q115 0 178.5 -74t63.5 -203q0 -62 -10 -119.5t-29 -109t-48 -93.5t-67 -72.5t-85 -47t-103 -16.5zM323 69q38 0 70.5 14t59.5 39.5t48 61t35.5 78t22 90t7.5 98.5
q0 93 -41 144.5t-113 51.5q-38 0 -71 -13.5t-60.5 -38.5t-49 -60t-36.5 -77.5t-23 -90.5t-8 -100q0 -62 19 -106t55 -67.5t85 -23.5z" />
    <glyph glyph-name="uni022B" unicode="&#x22b;" horiz-adv-x="536" 
d="M241 765l15 71h259l-15 -71h-259zM259 601q-19 0 -30.5 11t-11.5 30q0 23 13.5 40.5t38.5 17.5q20 0 29.5 -11t9.5 -28q0 -28 -15 -44t-34 -16zM429 601q-17 0 -29 11t-12 30q0 23 14 40.5t39 17.5q20 0 29.5 -11t9.5 -28q0 -28 -15.5 -44t-35.5 -16zM235 -8
q-87 0 -137.5 54.5t-50.5 148.5q0 49 10.5 99t31.5 94.5t52.5 79.5t73 55t92.5 20q59 0 101 -25t64.5 -70.5t22.5 -108.5q0 -49 -10.5 -98.5t-31.5 -94t-52 -79.5t-72.5 -55t-93.5 -20zM242 65q27 0 51.5 12.5t45 36t35.5 58t23.5 79t8.5 97.5q0 29 -10 57t-31.5 46.5
t-58.5 18.5q-31 0 -57.5 -14.5t-47.5 -40t-35.5 -60.5t-22 -76t-7.5 -86q0 -61 27.5 -94.5t78.5 -33.5z" />
    <glyph glyph-name="uni022C" unicode="&#x22c;" horiz-adv-x="686" 
d="M310 783q9 35 23.5 60.5t36 39.5t50.5 14q22 0 38.5 -7t30 -16.5t26.5 -17t28 -7.5q18 0 32.5 12t26.5 37h50q-14 -52 -45.5 -83t-70.5 -31q-21 0 -37 7.5t-29.5 17t-26.5 16.5t-28 7q-20 0 -32 -12t-23 -37h-50zM350 943l15 71h294l-15 -71h-294zM319 -10
q-81 0 -136.5 33t-84 94.5t-28.5 145.5q0 62 10.5 120t31.5 109.5t51 94t68.5 73.5t86 48t101.5 17q115 0 178.5 -74t63.5 -203q0 -62 -10 -119.5t-29 -109t-48 -93.5t-67 -72.5t-85 -47t-103 -16.5zM323 69q38 0 70.5 14t59.5 39.5t48 61t35.5 78t22 90t7.5 98.5
q0 93 -41 144.5t-113 51.5q-38 0 -71 -13.5t-60.5 -38.5t-49 -60t-36.5 -77.5t-23 -90.5t-8 -100q0 -62 19 -106t55 -67.5t85 -23.5z" />
    <glyph glyph-name="uni022D" unicode="&#x22d;" horiz-adv-x="536" 
d="M176 605q9 35 23.5 60.5t36 39.5t50.5 14q22 0 38.5 -7t30 -16.5t26.5 -17t28 -7.5q18 0 32.5 12t26.5 37h50q-14 -52 -45.5 -83t-70.5 -31q-21 0 -37 7.5t-29.5 17t-26.5 16.5t-28 7q-20 0 -32 -12t-23 -37h-50zM216 765l15 71h294l-15 -71h-294zM235 -8
q-87 0 -137.5 54.5t-50.5 148.5q0 49 10.5 99t31.5 94.5t52.5 79.5t73 55t92.5 20q59 0 101 -25t64.5 -70.5t22.5 -108.5q0 -49 -10.5 -98.5t-31.5 -94t-52 -79.5t-72.5 -55t-93.5 -20zM242 65q27 0 51.5 12.5t45 36t35.5 58t23.5 79t8.5 97.5q0 29 -10 57t-31.5 46.5
t-58.5 18.5q-31 0 -57.5 -14.5t-47.5 -40t-35.5 -60.5t-22 -76t-7.5 -86q0 -61 27.5 -94.5t78.5 -33.5z" />
    </font>
</defs>
</svg>
