<?xml version="1.0" standalone="no"?>
<!DOCTYPE svg PUBLIC "-//W3C//DTD SVG 1.1//EN" "http://www.w3.org/Graphics/SVG/1.1/DTD/svg11.dtd" >
<svg xmlns="http://www.w3.org/2000/svg" xmlns:xlink="http://www.w3.org/1999/xlink" version="1.1">
<metadata>
Created by FontForge 20170731 at Mon Nov  2 23:07:50 2020
 By Aleksey,,,
Copyright 2015 Google Inc. All Rights Reserved.
</metadata>
<defs>
<font id="NotoSansDisplay-Black" horiz-adv-x="0" >
  <font-face 
    font-family="Noto Sans Display Black"
    font-weight="900"
    font-stretch="normal"
    units-per-em="1000"
    panose-1="2 11 5 2 4 5 4 2 2 4"
    ascent="800"
    descent="-200"
    x-height="553"
    cap-height="714"
    bbox="-656 -392 2746 1124"
    underline-thickness="50"
    underline-position="-175"
    unicode-range="U+000D-FFFD"
  />
<missing-glyph horiz-adv-x="537" 
d="M75 0v714h386v-714h-386zM123 51h290v612h-290v-612z" />
    <glyph glyph-name="f_f" unicode="ff" horiz-adv-x="804" 
d="M393 410h-105v-410h-202v410h-64v94l70 47v9q0 72 15.5 117t53.5 66.5t105 21.5q40 0 72.5 -6.5t76.5 -19.5l-40 -124q-12 4 -26.5 7t-30.5 3t-23 -13.5t-7 -43.5v-15h105v-143zM795 410h-105v-410h-202v410h-64v94l70 47v9q0 72 15.5 117t53.5 66.5t105 21.5
q40 0 72.5 -6.5t76.5 -19.5l-40 -124q-12 4 -26.5 7t-30.5 3t-23 -13.5t-7 -43.5v-15h105v-143z" />
    <glyph glyph-name="fi" unicode="fi" horiz-adv-x="718" 
d="M393 410h-105v-410h-202v410h-64v94l70 47v9q0 72 15.5 117t53.5 66.5t105 21.5q40 0 72.5 -6.5t76.5 -19.5l-40 -124q-12 4 -26.5 7t-30.5 3t-23 -13.5t-7 -43.5v-15h105v-143zM661 553v-553h-202v553h202zM561 776q43 0 74.5 -17t31.5 -68q0 -49 -31.5 -66.5
t-74.5 -17.5q-44 0 -75 17.5t-31 66.5q0 51 31 68t75 17z" />
    <glyph glyph-name="fl" unicode="fl" horiz-adv-x="716" 
d="M393 410h-105v-410h-202v410h-64v94l70 47v9q0 72 15.5 117t53.5 66.5t105 21.5q40 0 72.5 -6.5t76.5 -19.5l-40 -124q-12 4 -26.5 7t-30.5 3t-23 -13.5t-7 -43.5v-15h105v-143zM660 0h-202v760h202v-760z" />
    <glyph glyph-name="f_f_i" unicode="ffi" horiz-adv-x="1120" 
d="M393 410h-105v-410h-202v410h-64v94l70 47v9q0 72 15.5 117t53.5 66.5t105 21.5q40 0 72.5 -6.5t76.5 -19.5l-40 -124q-12 4 -26.5 7t-30.5 3t-23 -13.5t-7 -43.5v-15h105v-143zM795 410h-105v-410h-202v410h-64v94l70 47v9q0 72 15.5 117t53.5 66.5t105 21.5
q40 0 72.5 -6.5t76.5 -19.5l-40 -124q-12 4 -26.5 7t-30.5 3t-23 -13.5t-7 -43.5v-15h105v-143zM1063 553v-553h-202v553h202zM963 776q43 0 74.5 -17t31.5 -68q0 -49 -31.5 -66.5t-74.5 -17.5q-44 0 -75 17.5t-31 66.5q0 51 31 68t75 17z" />
    <glyph glyph-name="f_f_l" unicode="ffl" horiz-adv-x="1118" 
d="M393 410h-105v-410h-202v410h-64v94l70 47v9q0 72 15.5 117t53.5 66.5t105 21.5q40 0 72.5 -6.5t76.5 -19.5l-40 -124q-12 4 -26.5 7t-30.5 3t-23 -13.5t-7 -43.5v-15h105v-143zM795 410h-105v-410h-202v410h-64v94l70 47v9q0 72 15.5 117t53.5 66.5t105 21.5
q40 0 72.5 -6.5t76.5 -19.5l-40 -124q-12 4 -26.5 7t-30.5 3t-23 -13.5t-7 -43.5v-15h105v-143zM1062 0h-202v760h202v-760z" />
    <glyph glyph-name=".notdef" horiz-adv-x="537" 
d="M75 0v714h386v-714h-386zM123 51h290v612h-290v-612z" />
    <glyph glyph-name=".null" 
 />
    <glyph glyph-name="nonmarkingreturn" horiz-adv-x="333" 
 />
    <glyph glyph-name="NULL" 
 />
    <glyph glyph-name="NULL" 
 />
    <glyph glyph-name="CR" unicode="&#xd;" horiz-adv-x="244" 
 />
    <glyph glyph-name="space" unicode=" " horiz-adv-x="244" 
 />
    <glyph glyph-name="exclam" unicode="!" horiz-adv-x="276" 
d="M225 252h-173l-24 462h221zM32 81q0 52 31.5 73t74.5 21q42 0 72.5 -21t30.5 -73q0 -49 -30.5 -71t-72.5 -22q-43 0 -74.5 22t-31.5 71z" />
    <glyph glyph-name="quotedbl" unicode="&#x22;" horiz-adv-x="519" 
d="M236 714l-19 -258h-146l-19 258h184zM467 714l-18 -258h-146l-19 258h183z" />
    <glyph glyph-name="numbersign" unicode="#" horiz-adv-x="631" 
d="M490 397l-10 -82h108v-124h-132l-33 -191h-135l32 191h-70l-32 -191h-135l32 191h-100v124h125l10 82h-105v127h131l31 190h136l-33 -190h68l31 190h137l-33 -190h103v-127h-126zM275 315h69l9 82h-68z" />
    <glyph glyph-name="dollar" unicode="$" horiz-adv-x="558" 
d="M226 22q-60 2 -101.5 12.5t-81.5 28.5v153q47 -21 95.5 -33.5t87.5 -16.5v123q-37 14 -74 31t-66.5 41t-47.5 58.5t-18 82.5q0 91 56 136.5t150 52.5v69h100v-68q59 -3 106.5 -16t81.5 -30l-39 -134q-32 16 -70.5 25.5t-78.5 13.5v-121q74 -21 120 -44.5t68 -60t22 -95.5
q0 -81 -49.5 -137.5t-160.5 -68.5v-82h-100v80zM326 168q25 5 37 16t12 30q0 13 -3.5 22t-14 16t-31.5 14v-98zM226 550q-24 -2 -35.5 -13t-11.5 -28q0 -12 4.5 -21.5t15 -16.5t27.5 -14v93z" />
    <glyph glyph-name="percent" unicode="%" horiz-adv-x="916" 
d="M188 724q80 0 131.5 -58.5t51.5 -164.5t-48.5 -165.5t-134.5 -59.5q-50 0 -90.5 27t-64 77.5t-23.5 120.5q0 106 48 164.5t130 58.5zM191 605q-18 0 -24 -28.5t-6 -77.5q0 -48 6 -77t24 -29t23.5 28.5t5.5 77.5t-5.5 77.5t-23.5 28.5zM716 714l-372 -714h-151l372 714
h151zM722 440q53 0 94 -26.5t64.5 -76t23.5 -120.5q0 -106 -48 -165.5t-134 -59.5q-51 0 -91.5 27t-64 77.5t-23.5 120.5q0 106 48.5 164.5t130.5 58.5zM724 321q-18 0 -24 -28.5t-6 -77.5q0 -48 6 -77t24 -29t24 28.5t6 77.5q0 50 -6 78t-24 28z" />
    <glyph glyph-name="ampersand" unicode="&#x26;" horiz-adv-x="777" 
d="M321 723q103 0 158.5 -45t55.5 -125q0 -62 -31 -107t-83 -80l69 -92q15 26 26.5 58.5t16.5 68.5h209q-15 -73 -47 -140t-62 -111l151 -150h-265l-41 50q-18 -13 -34.5 -24t-37.5 -19t-52.5 -12.5t-80.5 -4.5q-79 0 -133.5 28t-82 75.5t-27.5 104.5q0 43 14 79t42.5 65.5
t69.5 51.5q-15 23 -28 47.5t-21 52t-8 59.5q0 74 53.5 122t168.5 48zM263 289q-10 -10 -16 -22.5t-8.5 -26t-2.5 -28.5q0 -31 15.5 -50.5t43.5 -19.5q23 0 39.5 7.5t20.5 16.5zM317 598q-17 0 -27.5 -12t-10.5 -39q0 -22 12.5 -41t26.5 -35q18 16 27.5 38t9.5 44
q0 24 -9.5 34.5t-28.5 10.5z" />
    <glyph glyph-name="quotesingle" unicode="'" horiz-adv-x="288" 
d="M236 714l-19 -258h-146l-19 258h184z" />
    <glyph glyph-name="parenleft" unicode="(" horiz-adv-x="348" 
d="M32 284q0 82 11 162.5t38.5 154t74.5 133.5h168q-42 -62 -67 -136.5t-36 -154t-11 -158.5q0 -77 11 -156t36 -152.5t67 -134.5h-168q-47 59 -74.5 131t-38.5 151.5t-11 159.5z" />
    <glyph glyph-name="parenright" unicode=")" horiz-adv-x="348" 
d="M316 284q0 -80 -11 -159.5t-37.5 -151.5t-74.5 -131h-168q42 61 67 134.5t36 152.5t11 156q0 119 -26 237t-89 212h169q48 -60 74.5 -133.5t37.5 -154t11 -162.5z" />
    <glyph glyph-name="asterisk" unicode="*" horiz-adv-x="500" 
d="M326 760l-17 -172l159 49l18 -144l-137 -10l91 -136l-128 -67l-63 138l-52 -137l-135 66l91 136l-137 12l22 142l156 -49l-17 172h149z" />
    <glyph glyph-name="plus" unicode="+" horiz-adv-x="570" 
d="M352 418h168v-131h-168v-176h-136v176h-167v131h167v179h136v-179z" />
    <glyph glyph-name="comma" unicode="," horiz-adv-x="274" 
d="M249 135q-8 -36 -21.5 -86t-28.5 -100.5t-31 -87.5h-143q9 46 18 96.5t16 99.5t11 89h172z" />
    <glyph glyph-name="hyphen" unicode="-" horiz-adv-x="297" 
d="M15 192v152h267v-152h-267z" />
    <glyph glyph-name="period" unicode="." horiz-adv-x="274" 
d="M32 81q0 52 32 73t75 21q41 0 71.5 -21t30.5 -73q0 -49 -30.5 -71t-71.5 -22q-43 0 -75 22t-32 71z" />
    <glyph glyph-name="slash" unicode="/" horiz-adv-x="431" 
d="M431 724l-250 -734h-177l250 734h177z" />
    <glyph glyph-name="zero" unicode="0" horiz-adv-x="558" 
d="M526 356q0 -86 -13 -153.5t-41.5 -115t-76 -72.5t-116.5 -25q-86 0 -140.5 44t-80.5 126t-26 196q0 116 23.5 198t78 126t145.5 44q86 0 140.5 -43.5t80.5 -126t26 -198.5zM235 356q0 -70 3 -117t12.5 -71t28.5 -24t28.5 23.5t12.5 71t3 117.5q0 71 -3 118.5t-12.5 71.5
t-28.5 24t-28.5 -24t-12.5 -71.5t-3 -118.5z" />
    <glyph glyph-name="one" unicode="1" horiz-adv-x="558" 
d="M457 0h-208v353v36t0.5 58t1.5 57q-16 -15 -23 -26t-16 -19l-74 -68l-109 123l238 200h190v-714z" />
    <glyph glyph-name="two" unicode="2" horiz-adv-x="558" 
d="M520 0h-497v127l161 176q51 56 78 90.5t36.5 58.5t9.5 50q0 32 -17.5 46t-37.5 14q-28 0 -58 -19t-71 -57l-112 124q31 29 66 55t83.5 42.5t118.5 16.5t121.5 -25.5t80 -69.5t28.5 -100q0 -46 -13.5 -83t-39 -72t-60 -75t-76.5 -93l-33 -42l-1 -5h233v-159z" />
    <glyph glyph-name="three" unicode="3" horiz-adv-x="558" 
d="M500 559q0 -51 -21.5 -87.5t-55.5 -60t-74 -35.5v-3q80 -10 125 -51.5t45 -117.5q0 -58 -30 -107t-93 -78t-162 -29q-70 0 -115 10.5t-89 28.5v160q44 -24 89.5 -35.5t81.5 -11.5q61 0 81.5 20t20.5 54q0 24 -10 41.5t-38.5 26.5t-83.5 9h-36v145h37q45 0 74 9.5t43 26.5
t14 39q0 29 -19.5 42.5t-43.5 13.5q-30 0 -57 -9t-46 -19.5t-26 -17.5l-80 129q29 20 61.5 36.5t77.5 26t108 9.5q104 0 163 -44t59 -121z" />
    <glyph glyph-name="four" unicode="4" horiz-adv-x="558" 
d="M545 138h-70v-138h-202v138h-257v142l271 434h188v-432h70v-144zM273 365q0 11 0.5 28.5t1 34.5t1 29t0.5 13h-5q-10 -22 -16.5 -36.5t-14.5 -34.5l-50 -117h83v83z" />
    <glyph glyph-name="five" unicode="5" horiz-adv-x="558" 
d="M318 468q53 0 98 -27t72 -78t27 -125q0 -80 -30 -135.5t-90.5 -84t-154.5 -28.5q-61 0 -110 10t-88 29v158q36 -17 86.5 -31t90.5 -14q29 0 49 10t30.5 30.5t10.5 49.5q0 41 -24.5 64t-72.5 23q-25 0 -47 -5.5t-40 -11.5l-73 35l26 377h393v-161h-222l-7 -94q15 3 28.5 6
t47.5 3z" />
    <glyph glyph-name="six" unicode="6" horiz-adv-x="558" 
d="M31 302q0 61 8.5 122t30 115t62 95.5t104 65.5t155.5 24q20 0 50 -2.5t49 -5.5v-151q-19 4 -44 6.5t-66 2.5q-45 0 -75.5 -12.5t-50 -36t-29.5 -57t-12 -75.5h6q11 24 27 42.5t40 29.5t58 11q59 0 100.5 -27t63.5 -79t22 -126q0 -80 -29 -137t-83.5 -87t-129.5 -30
q-55 0 -102 18.5t-81.5 57t-54 97.5t-19.5 139zM284 143q22 0 35 23.5t13 73.5q0 41 -10.5 64t-36.5 23q-17 0 -28.5 -11.5t-17 -29t-5.5 -36.5t2.5 -38t8 -34.5t15.5 -25t24 -9.5z" />
    <glyph glyph-name="seven" unicode="7" horiz-adv-x="558" 
d="M92 0l218 554h-268v160h486v-114l-226 -600h-210z" />
    <glyph glyph-name="eight" unicode="8" horiz-adv-x="558" 
d="M282 724q71 0 122.5 -19t79 -57.5t27.5 -97.5q0 -43 -14.5 -75.5t-39.5 -56.5t-59 -42q29 -19 59.5 -44.5t51.5 -60t21 -81.5q0 -57 -24 -102.5t-79 -71.5t-148 -26q-90 0 -145 25t-79.5 70t-24.5 103q0 50 15 84t42 58t62 43q-28 20 -50.5 45.5t-36 58.5t-13.5 74
q0 58 28.5 96t81 57.5t123.5 19.5zM216 196q0 -30 16.5 -48.5t44.5 -18.5q24 0 38.5 7.5t21.5 22t7 33.5q0 22 -10.5 40t-23 31t-19.5 19l-11 9q-16 -11 -30.5 -25t-24 -31t-9.5 -39zM281 585q-16 0 -28.5 -14t-12.5 -38q0 -15 5 -28.5t13.5 -25t19.5 -20.5q9 8 18.5 18
t16.5 23.5t7 32.5q0 24 -12.5 38t-26.5 14z" />
    <glyph glyph-name="nine" unicode="9" horiz-adv-x="558" 
d="M529 416q0 -110 -22 -190.5t-66 -132.5t-110 -77.5t-155 -25.5q-32 0 -61.5 1t-49.5 4v153q20 -4 41 -6t57 -2q53 0 88 15t55.5 40.5t29.5 57.5t10 65h-5q-12 -24 -26.5 -42.5t-39.5 -29.5t-71 -11q-53 0 -92 27.5t-60 80.5t-21 129q0 79 29 135.5t83 86.5t129 30
q53 0 99.5 -17t82 -53t55.5 -95t20 -143zM278 571q-25 0 -37.5 -23t-12.5 -74q0 -41 12.5 -66t35.5 -25q19 0 30 12.5t16 31.5t5 37q0 20 -2 39t-7.5 34.5t-15 24.5t-24.5 9z" />
    <glyph glyph-name="colon" unicode=":" horiz-adv-x="274" 
d="M32 81q0 52 32 73t75 21q41 0 71.5 -21t30.5 -73q0 -49 -30.5 -71t-71.5 -22q-43 0 -75 22t-32 71zM32 467q0 51 32 72t75 21q41 0 71.5 -21t30.5 -72q0 -50 -30.5 -72t-71.5 -22q-43 0 -75 22t-32 72z" />
    <glyph glyph-name="semicolon" unicode=";" horiz-adv-x="274" 
d="M249 135q-8 -36 -21.5 -86t-28.5 -100.5t-31 -87.5h-143q7 34 13.5 71.5t12.5 75t11 73t8 65.5h172zM36 467q0 51 31.5 72t74.5 21q41 0 72 -21t31 -72q0 -50 -31 -72t-72 -22q-43 0 -74.5 22t-31.5 72z" />
    <glyph glyph-name="less" unicode="&#x3c;" horiz-adv-x="570" 
d="M518 87l-469 219v84l469 247v-145l-268 -138l268 -123v-144z" />
    <glyph glyph-name="equal" unicode="=" horiz-adv-x="570" 
d="M49 398v131h472v-131h-472zM49 175v132h472v-132h-472z" />
    <glyph glyph-name="greater" unicode="&#x3e;" horiz-adv-x="570" 
d="M49 231l268 123l-268 138v145l469 -247v-84l-469 -219v144z" />
    <glyph glyph-name="question" unicode="?" horiz-adv-x="489" 
d="M132 294q0 30 7.5 54t27 46t55.5 45q26 17 40 30t19 26.5t5 29.5q0 24 -15.5 36.5t-38.5 12.5q-30 0 -71.5 -13t-90.5 -39l-72 133q55 32 117 50.5t134 18.5q108 0 167 -49t59 -129q0 -38 -10.5 -70t-34 -59.5t-63.5 -54.5q-24 -16 -37.5 -29.5t-19 -26.5t-5.5 -29v-25
h-173v42zM117 81q0 52 31.5 73t74.5 21t73.5 -21t30.5 -73q0 -49 -30.5 -71t-73.5 -22t-74.5 22t-31.5 71z" />
    <glyph glyph-name="at" unicode="@" horiz-adv-x="843" 
d="M811 369q0 -47 -12 -92.5t-34.5 -82t-55 -58.5t-74.5 -22q-34 0 -66 15t-54 43h-6q-22 -25 -51.5 -41.5t-64.5 -16.5q-89 0 -131 54.5t-42 143.5q0 66 26.5 118.5t80.5 83t135 30.5q47 0 89.5 -9.5t73.5 -20.5l-10 -206q1 -5 0 -18.5t-1 -27.5q0 -23 4 -32.5t12 -9.5
q15 0 25.5 20.5t16.5 55t6 74.5q0 75 -23.5 129.5t-75 84.5t-135.5 30q-67 0 -118.5 -23.5t-86 -66t-52 -101t-17.5 -127.5q0 -79 26.5 -137.5t80.5 -90.5t135 -32q51 0 117.5 12.5t126.5 34.5v-112q-50 -22 -111 -34t-124 -12q-122 0 -209.5 45t-133.5 129t-46 199
q0 90 28.5 167.5t82.5 135t129.5 90t168.5 32.5q113 0 196 -43t128.5 -122t45.5 -189zM361 313q0 -49 14.5 -71t36.5 -22q32 0 46.5 32.5t18.5 105.5l4 76q-8 2 -11 2.5t-8 0.5q-33 0 -55.5 -17t-34 -45t-11.5 -62z" />
    <glyph glyph-name="A" unicode="A" horiz-adv-x="701" 
d="M478 0l-24 134h-203l-26 -134h-225l209 717h280l212 -717h-223zM387 411q-5 24 -12 54t-13.5 62.5t-10.5 61.5q-6 -44 -16 -92.5t-18 -84.5l-28 -120h126z" />
    <glyph glyph-name="B" unicode="B" horiz-adv-x="635" 
d="M314 714q101 0 160 -20.5t84 -60t25 -97.5q0 -47 -18 -79.5t-42.5 -51.5t-45.5 -26v-5q24 -7 51 -24t46.5 -50.5t19.5 -90.5q0 -65 -31.5 -112t-90 -72t-139.5 -25h-267v714h248zM308 440q36 0 51 20t15 48q0 29 -16.5 44.5t-50.5 15.5h-37v-128h38zM270 299v-150h47
q38 0 53 21.5t15 54.5q0 19 -6.5 36t-21.5 27.5t-43 10.5h-44z" />
    <glyph glyph-name="C" unicode="C" horiz-adv-x="616" 
d="M382 566q-32 0 -56.5 -14.5t-41 -42t-24.5 -66.5t-8 -89q0 -67 16.5 -113t49 -69.5t80.5 -23.5q44 0 83.5 13t76.5 32v-163q-44 -21 -93 -30.5t-100 -9.5q-113 0 -184 46t-104 128.5t-33 190.5q0 81 21.5 148.5t64 117t104 76.5t141.5 27q48 0 107 -13t107 -37l-61 -152
q-34 19 -68.5 31.5t-77.5 12.5z" />
    <glyph glyph-name="D" unicode="D" horiz-adv-x="687" 
d="M643 372q0 -124 -43.5 -207t-121.5 -124t-180 -41h-232v714h244q110 0 184 -39.5t111.5 -115.5t37.5 -187zM432 365q0 65 -13 108t-40.5 64t-69.5 21h-39v-400h28q71 0 102.5 51t31.5 156z" />
    <glyph glyph-name="E" unicode="E" horiz-adv-x="510" 
d="M471 0h-405v714h405v-155h-201v-112h186v-155h-186v-135h201v-157z" />
    <glyph glyph-name="F" unicode="F" horiz-adv-x="502" 
d="M266 0h-200v714h404v-155h-204v-136h187v-155h-187v-268z" />
    <glyph glyph-name="G" unicode="G" horiz-adv-x="704" 
d="M344 418h302v-385q-52 -19 -124.5 -31t-146.5 -12q-95 0 -170 40t-118 122t-43 207q0 112 40 194t119 126.5t195 44.5q68 0 127 -12.5t100 -32.5l-63 -151q-39 19 -78 28.5t-84 9.5q-59 0 -91 -29t-43.5 -77t-11.5 -106q0 -66 17.5 -112t49 -69.5t72.5 -23.5q6 0 19.5 1
t27 3t19.5 4v112h-115v149z" />
    <glyph glyph-name="H" unicode="H" horiz-adv-x="722" 
d="M656 0h-206v291h-179v-291h-205v714h205v-265h179v265h206v-714z" />
    <glyph glyph-name="I" unicode="I" horiz-adv-x="440" 
d="M407 0h-374v110l85 34v427l-85 33v110h374v-110l-84 -33v-427l84 -34v-110z" />
    <glyph glyph-name="J" unicode="J" horiz-adv-x="342" 
d="M23 -224q-33 0 -57.5 3t-42.5 7v150q15 -3 31.5 -6.5t35.5 -3.5q37 0 54 14t22 42.5t5 70.5v661h205v-644q0 -107 -32 -172t-89 -93.5t-132 -28.5z" />
    <glyph glyph-name="K" unicode="K" horiz-adv-x="658" 
d="M658 0h-229l-108 273l-50 -34v-239h-205v714h205v-310q10 23 26 46.5t27 45.5l120 218h221l-198 -320z" />
    <glyph glyph-name="L" unicode="L" horiz-adv-x="556" 
d="M66 0v714h204v-558h250v-156h-454z" />
    <glyph glyph-name="M" unicode="M" horiz-adv-x="923" 
d="M369 0l-129 524h-4q2 -20 4 -54t4 -73.5t2 -76.5v-320h-180v714h293l104 -440h4l97 440h293v-714h-186v323q0 34 1 72.5t2.5 73t3.5 54.5h-4l-119 -523h-186z" />
    <glyph glyph-name="N" unicode="N" horiz-adv-x="796" 
d="M730 0h-270l-219 503h-4l1 -17.5t3 -45.5t3.5 -59.5t1.5 -58.5v-322h-180v714h269l218 -496h3l-1 17t-2.5 44t-2.5 57t-1 55v323h181v-714z" />
    <glyph glyph-name="O" unicode="O" horiz-adv-x="750" 
d="M704 358q0 -83 -18.5 -150.5t-58 -116.5t-102 -75t-151.5 -26q-86 0 -148.5 26t-102.5 75t-59.5 116.5t-19.5 151.5q0 111 35 193.5t108 127.5t188 45q118 0 190.5 -45.5t105.5 -128t33 -193.5zM258 358q0 -64 11.5 -110.5t37 -71.5t67.5 -25q44 0 69 25t36 71.5
t11 110.5q0 97 -25 153t-90 56q-43 0 -69 -25.5t-37 -72t-11 -111.5z" />
    <glyph glyph-name="P" unicode="P" horiz-adv-x="597" 
d="M308 714q127 0 192.5 -59t65.5 -168q0 -65 -23.5 -122t-78.5 -92.5t-149 -35.5h-45v-237h-204v714h242zM307 558h-37v-164h29q15 0 30 8.5t25 28t10 51.5q0 34 -14 55t-43 21z" />
    <glyph glyph-name="Q" unicode="Q" horiz-adv-x="749" 
d="M704 358q0 -74 -13 -137.5t-42.5 -111.5t-77.5 -78l164 -201h-250l-107 160q1 0 -2 0t-2 0q-86 0 -148.5 26t-102.5 75t-59.5 116.5t-19.5 151.5q0 111 35 193.5t108 127.5t188 45q118 0 190.5 -45.5t105.5 -128t33 -193.5zM258 358q0 -64 11.5 -110.5t37 -71.5t67.5 -25
q44 0 69 25t36 71.5t11 110.5q0 97 -25 153t-90 56q-43 0 -69 -25.5t-37 -72t-11 -111.5z" />
    <glyph glyph-name="R" unicode="R" horiz-adv-x="645" 
d="M300 714q91 0 152.5 -24t92.5 -70.5t31 -116.5q0 -43 -11.5 -79t-35 -64t-60.5 -49l194 -311h-232l-132 260h-29v-260h-204v714h234zM301 568h-31v-163h27q17 0 34 8.5t28.5 28t11.5 52.5q0 23 -7 39.5t-22 25.5t-41 9z" />
    <glyph glyph-name="S" unicode="S" horiz-adv-x="556" 
d="M528 217q0 -58 -26.5 -110t-86.5 -84.5t-159 -32.5q-52 0 -87.5 4.5t-64.5 14.5t-64 26v172q58 -29 116 -44.5t100 -15.5q22 0 37 7t22.5 19t7.5 27q0 19 -9 32t-34 27t-73 34q-60 25 -96 53t-52 68t-16 101q0 69 34.5 115.5t94.5 70t138 23.5q74 0 129.5 -15.5
t90.5 -35.5l-61 -149q-40 21 -85 33.5t-80 12.5q-21 0 -34 -6t-19 -16.5t-6 -23.5q0 -17 11.5 -30t41 -28.5t82.5 -41.5q48 -22 81 -49t50 -64.5t17 -93.5z" />
    <glyph glyph-name="T" unicode="T" horiz-adv-x="562" 
d="M383 0h-204v556h-153v158h510v-158h-153v-556z" />
    <glyph glyph-name="U" unicode="U" horiz-adv-x="712" 
d="M650 284q0 -90 -33 -156t-98.5 -102t-164.5 -36q-142 0 -217 75.5t-75 214.5v434h205v-419q0 -76 23 -110t66 -34q32 0 52 15t29 47t9 83v418h204v-430z" />
    <glyph glyph-name="V" unicode="V" horiz-adv-x="676" 
d="M676 714l-216 -714h-246l-214 714h237l73 -362q4 -21 10.5 -53t12 -63.5t5.5 -51.5q2 20 6 51t9 62.5t9 52.5l78 364h236z" />
    <glyph glyph-name="W" unicode="W" horiz-adv-x="1015" 
d="M993 714l-163 -714h-243l-52 301q-1 9 -4.5 30t-7.5 49t-7.5 56t-5.5 50q-2 -22 -6 -50l-8 -56t-7.5 -49t-5.5 -30l-53 -301h-244l-164 714h195l74 -368q4 -17 9 -48.5t10 -66.5t7 -64q4 30 8 58.5t9 57t10 57.5l72 374h191l67 -365q5 -28 9.5 -57.5t9 -60.5t9.5 -64
q4 30 10.5 67t13 70t9.5 51l68 359h190z" />
    <glyph glyph-name="X" unicode="X" horiz-adv-x="709" 
d="M705 0h-236l-117 223l-115 -223h-234l223 365l-210 349h226l108 -221l102 221h237l-214 -364z" />
    <glyph glyph-name="Y" unicode="Y" horiz-adv-x="645" 
d="M323 449l102 265h220l-220 -435v-279h-205v273l-220 441h222z" />
    <glyph glyph-name="Z" unicode="Z" horiz-adv-x="591" 
d="M567 0h-536v119l273 439h-267v156h523v-119l-273 -439h280v-156z" />
    <glyph glyph-name="bracketleft" unicode="[" horiz-adv-x="302" 
d="M281 -168h-234v902h234v-124h-74v-654h74v-124z" />
    <glyph glyph-name="backslash" unicode="\" horiz-adv-x="431" 
d="M178 724l250 -734h-177l-250 734h177z" />
    <glyph glyph-name="bracketright" unicode="]" horiz-adv-x="302" 
d="M21 -44h73v654h-73v124h234v-902h-234v124z" />
    <glyph glyph-name="asciicircum" unicode="^" horiz-adv-x="469" 
d="M-24 245l203 472h85l236 -472h-150l-124 282l-105 -282h-145z" />
    <glyph glyph-name="underscore" unicode="_" horiz-adv-x="517" 
d="M519 -185h-521v120h521v-120z" />
    <glyph glyph-name="grave" unicode="`" horiz-adv-x="427" 
d="M260 766q18 -22 41.5 -49t47 -52.5t38.5 -44.5v-14h-134l-47.5 32.5t-59.5 41t-59 42t-47 34.5v10h220z" />
    <glyph glyph-name="a" unicode="a" horiz-adv-x="596" 
d="M334 563q97 0 152.5 -52t55.5 -148v-363h-139l-39 73h-4q-22 -29 -45 -47.5t-53 -27t-74 -8.5t-80 19.5t-56.5 59t-20.5 100.5q0 89 58 132.5t165 47.5l85 3v8q0 37 -14.5 52.5t-38.5 15.5q-28 0 -67 -11.5t-78 -29.5l-55 126q48 25 108.5 37.5t139.5 12.5zM307 245
q-39 -2 -55.5 -18.5t-16.5 -46.5q0 -28 12 -41.5t31 -13.5q25 0 44 22t19 57v43z" />
    <glyph glyph-name="b" unicode="b" horiz-adv-x="610" 
d="M258 588q0 -29 -2 -56t-5 -50h7q20 34 51 57.5t83 23.5q78 0 128.5 -73t50.5 -212q0 -94 -23.5 -158.5t-65.5 -97t-97 -32.5q-54 0 -80.5 20.5t-46.5 43.5h-13l-30 -54h-159v760h202v-172zM314 413q-18 0 -30.5 -12.5t-19 -37.5t-6.5 -65v-27q0 -64 13 -95.5t45 -31.5
q26 0 38 34.5t12 101.5q0 66 -11.5 99.5t-40.5 33.5z" />
    <glyph glyph-name="c" unicode="c" horiz-adv-x="520" 
d="M309 -10q-80 0 -141.5 30t-95.5 93t-34 161q0 101 37.5 164.5t102.5 94t146 30.5q44 0 89.5 -11t82.5 -31l-53 -139q-27 15 -50.5 23t-48.5 8q-27 0 -50 -15t-37 -45.5t-14 -77.5q0 -48 13.5 -77t37 -42.5t51.5 -13.5q32 0 68.5 13t67.5 36v-152q-33 -22 -76 -35.5
t-96 -13.5z" />
    <glyph glyph-name="d" unicode="d" horiz-adv-x="610" 
d="M217 -10q-77 0 -128 73t-51 213q0 142 52.5 214.5t134.5 72.5q34 0 58 -10.5t41.5 -29t30.5 -41.5h3q-4 21 -5.5 58t-1.5 72v148h203v-760h-151l-45 70h-7q-12 -22 -30 -40t-43.5 -29t-60.5 -11zM304 141q35 0 50 29t15 89v15q0 65 -14 100t-53 35q-25 0 -42.5 -33
t-17.5 -103q0 -69 18 -100.5t44 -31.5z" />
    <glyph glyph-name="e" unicode="e" horiz-adv-x="595" 
d="M303 563q78 0 135 -28t87.5 -84t30.5 -141v-85h-314q2 -43 27.5 -71t77.5 -28q49 0 89.5 10t83.5 32v-137q-37 -21 -83.5 -31t-119.5 -10q-79 0 -142 29.5t-100 92.5t-37 161q0 100 33.5 164t93 95t138.5 31zM312 433q-26 0 -44.5 -21t-21.5 -67h130q0 25 -8 44.5
t-22 31.5t-34 12z" />
    <glyph glyph-name="f" unicode="f" horiz-adv-x="402" 
d="M393 410h-105v-410h-202v410h-64v94l70 47v9q0 72 15.5 117t53.5 66.5t105 21.5q40 0 72.5 -6.5t76.5 -19.5l-40 -124q-12 4 -26.5 7t-30.5 3t-23 -13.5t-7 -43.5v-15h105v-143z" />
    <glyph glyph-name="g" unicode="g" horiz-adv-x="610" 
d="M222 563q59 0 90.5 -22.5t47.5 -55.5h4l14 68h176v-554q0 -78 -31 -131t-94.5 -80.5t-163.5 -27.5q-67 0 -116 7t-93 25v159q32 -14 58 -23.5t56 -14t74 -4.5q55 0 81.5 21t26.5 61v10q0 13 1.5 31t5.5 38h-7q-13 -33 -43.5 -56.5t-88.5 -23.5q-79 0 -130.5 73t-51.5 213
q0 94 24 157.5t66 96.5t94 33zM303 415q-20 0 -33.5 -16t-20 -47.5t-6.5 -78.5q0 -72 15.5 -103.5t47.5 -31.5q19 0 31.5 7.5t19.5 22t9.5 36.5t2.5 52v23q0 43 -4.5 73.5t-18.5 46.5t-43 16z" />
    <glyph glyph-name="h" unicode="h" horiz-adv-x="637" 
d="M258 652q0 -61 -3 -103t-5 -64h9q17 29 37.5 46t46 24.5t55.5 7.5q49 0 91 -21t68 -65.5t26 -116.5v-360h-204v302q0 55 -12 83t-38 28q-27 0 -42.5 -20t-22 -57.5t-6.5 -92.5v-243h-202v760h202v-108z" />
    <glyph glyph-name="i" unicode="i" horiz-adv-x="316" 
d="M259 553v-553h-202v553h202zM159 776q43 0 74.5 -17t31.5 -68q0 -49 -31.5 -66.5t-74.5 -17.5q-44 0 -75 17.5t-31 66.5q0 51 31 68t75 17z" />
    <glyph glyph-name="j" unicode="j" horiz-adv-x="315" 
d="M58 -240q-20 0 -50 3.5t-49 8.5v149q14 -4 25.5 -6.5t24.5 -2.5q18 0 32.5 16.5t14.5 66.5v558h201v-598q0 -50 -18.5 -94.5t-62 -72.5t-118.5 -28zM52 691q0 51 31 68t74 17q44 0 75.5 -17t31.5 -68q0 -49 -31.5 -66.5t-75.5 -17.5q-43 0 -74 17.5t-31 66.5z" />
    <glyph glyph-name="k" unicode="k" horiz-adv-x="640" 
d="M259 461q0 -34 -3 -75t-9 -75h5q5 10 12.5 24t17.5 30t21 32l103 156h224l-168 -235l178 -318h-229l-95 198l-57 -47v-151h-203v760h203v-299z" />
    <glyph glyph-name="l" unicode="l" horiz-adv-x="314" 
d="M258 0h-202v760h202v-760z" />
    <glyph glyph-name="m" unicode="m" horiz-adv-x="949" 
d="M708 563q90 0 138.5 -48t48.5 -155v-360h-201v301q0 63 -14.5 87.5t-40.5 24.5q-37 0 -50 -40.5t-13 -114.5v-258h-202v301q0 40 -5.5 64.5t-17 36t-28.5 11.5q-26 0 -40.5 -20t-19.5 -58t-5 -93v-242h-202v553h151l31 -68h3q13 23 33.5 40.5t51.5 27.5t75 10
q57 0 93.5 -20.5t60.5 -56.5h2q26 37 63 57t88 20z" />
    <glyph glyph-name="n" unicode="n" horiz-adv-x="637" 
d="M400 563q80 0 131.5 -48t51.5 -155v-360h-202v302q0 55 -12 83t-40 28q-43 0 -57 -44t-14 -127v-242h-202v553h151l28 -73h6q17 26 39 44.5t51.5 28.5t68.5 10z" />
    <glyph glyph-name="o" unicode="o" horiz-adv-x="608" 
d="M569 278q0 -69 -18 -123t-52.5 -90.5t-84 -55.5t-111.5 -19q-58 0 -106.5 19t-84 55.5t-55 90.5t-19.5 123q0 92 32 155.5t92.5 96.5t143.5 33q76 0 135.5 -33t93.5 -96.5t34 -155.5zM243 278q0 -47 6 -80t19.5 -49.5t36.5 -16.5t35.5 16.5t18 49.5t5.5 80t-5.5 79
t-18.5 48t-36 16q-33 0 -47 -36t-14 -107z" />
    <glyph glyph-name="p" unicode="p" horiz-adv-x="610" 
d="M392 563q86 0 132.5 -73.5t46.5 -211.5q0 -94 -24.5 -158.5t-66.5 -97t-95 -32.5q-36 0 -61 10t-40.5 24.5t-25.5 29.5h-5q2 -19 3.5 -41t1.5 -51v-202h-202v793h164l28 -70h10q12 22 29.5 40t43 29t61.5 11zM311 413q-20 0 -32 -13.5t-16.5 -39.5t-4.5 -66v-15
q0 -44 4.5 -74t16.5 -45.5t33 -15.5q17 0 29 13.5t18.5 43.5t6.5 79q0 73 -14.5 103t-40.5 30z" />
    <glyph glyph-name="q" unicode="q" horiz-adv-x="610" 
d="M352 -11q0 20 1.5 40.5t4.5 40.5h-6q-17 -33 -48.5 -56.5t-83.5 -23.5q-81 0 -131.5 73t-50.5 213q0 94 23.5 157.5t65 96.5t96.5 33q53 0 86 -22.5t52 -55.5h4l13 68h176v-793h-202v229zM306 138q24 0 38 13t19.5 39.5t5.5 65.5v23q0 65 -12.5 100.5t-53.5 35.5
q-30 0 -45 -36t-15 -106q0 -72 15.5 -103.5t47.5 -31.5z" />
    <glyph glyph-name="r" unicode="r" horiz-adv-x="449" 
d="M385 563q17 0 34.5 -2t24.5 -4l-19 -180q-10 2 -24.5 4t-47.5 2q-11 0 -27 -3.5t-31.5 -14.5t-26 -33t-10.5 -60v-272h-202v553h149l32 -88h10q14 27 36 49.5t48.5 35.5t53.5 13z" />
    <glyph glyph-name="s" unicode="s" horiz-adv-x="497" 
d="M458 170q0 -52 -20.5 -93t-68.5 -64t-131 -23q-57 0 -103.5 6.5t-95.5 24.5v153q54 -24 106.5 -34.5t77.5 -10.5t36.5 7t11.5 21q0 12 -11 21t-35 20t-65 30q-40 19 -67 41.5t-41 54t-14 76.5q0 81 61 122t160 41q53 0 99.5 -12t96.5 -35l-52 -123q-26 13 -54.5 22
t-52 14t-35.5 5q-16 0 -25 -6t-9 -17q0 -10 8 -18t30.5 -18.5t64.5 -28.5q46 -19 74 -41.5t41 -54t13 -80.5z" />
    <glyph glyph-name="t" unicode="t" horiz-adv-x="446" 
d="M332 141q25 0 44 5.5t41 13.5v-139q-33 -13 -65.5 -22t-89.5 -9q-53 0 -92.5 17t-61 58.5t-21.5 116.5v228h-61v78l81 60l50 116h133v-111h119v-143h-119v-215q0 -27 10.5 -40.5t31.5 -13.5z" />
    <glyph glyph-name="u" unicode="u" horiz-adv-x="637" 
d="M581 553v-553h-151l-25 69h-12q-16 -28 -40.5 -45.5t-54 -25.5t-61.5 -8q-49 0 -90 21t-66 66t-25 116v360h202v-302q0 -54 11 -82t39 -28q29 0 44.5 19.5t21 57.5t5.5 93v242h202z" />
    <glyph glyph-name="v" unicode="v" horiz-adv-x="597" 
d="M191 0l-191 553h210l65 -286q5 -23 8.5 -41t5.5 -31.5t3 -24.5h3q2 11 4 24t5.5 30t9.5 40l72 289h211l-200 -553h-206z" />
    <glyph glyph-name="w" unicode="w" horiz-adv-x="883" 
d="M464 253q-7 38 -13 76t-8 62h-3q-1 -23 -8 -59.5t-16 -79.5l-55 -252h-219l-130 553h198l31 -212q4 -23 7.5 -55.5t7 -66t4.5 -60.5h3q2 27 8 63t12 67t8 41l46 223h214l44 -226q4 -19 9.5 -48.5t10.5 -61t7 -58.5h2q3 40 8 86t11 86l35 222h193l-132 -553h-225z" />
    <glyph glyph-name="x" unicode="x" horiz-adv-x="620" 
d="M169 282l-156 271h230l67 -155l70 155h229l-160 -271l166 -282h-229l-76 168l-76 -168h-229z" />
    <glyph glyph-name="y" unicode="y" horiz-adv-x="595" 
d="M-1 553h209l81 -317q2 -7 3.5 -17t2 -21t0.5 -22h5q2 18 3 34t4 26l86 317h203l-203 -587q-23 -68 -54 -114t-80.5 -69t-128.5 -23q-25 0 -42.5 2.5t-31.5 5.5v150q10 -2 24.5 -4t30.5 -2q30 0 47.5 11t27 30.5t15.5 42.5l3 12z" />
    <glyph glyph-name="z" unicode="z" horiz-adv-x="487" 
d="M466 0h-445v109l203 298h-192v146h422v-118l-191 -289h203v-146z" />
    <glyph glyph-name="braceleft" unicode="{" horiz-adv-x="428" 
d="M402 -168q-105 0 -160.5 17.5t-75.5 55t-20 95.5v121q0 30 -18 48.5t-43.5 26.5t-48.5 8v147q24 0 49.5 8t43 26.5t17.5 48.5v124q0 43 10 74t37.5 51.5t77.5 30.5t131 10v-136q-16 0 -37.5 -3t-38 -13.5t-16.5 -35.5v-132q0 -61 -29.5 -88t-82.5 -35v-6q55 -9 83.5 -36
t28.5 -84v-135q0 -24 17 -35t38.5 -13.5t36.5 -3.5v-136z" />
    <glyph glyph-name="bar" unicode="|" horiz-adv-x="456" 
d="M160 760h136v-978h-136v978z" />
    <glyph glyph-name="braceright" unicode="}" horiz-adv-x="428" 
d="M26 -32q15 1 37 3.5t38.5 13.5t16.5 35v135q0 57 28.5 84t82.5 36v6q-52 8 -81.5 35t-29.5 88v132q0 25 -16.5 35.5t-38 13.5t-37.5 3v136q81 0 131 -10t77 -30.5t37 -51.5t10 -74v-124q0 -30 17.5 -48.5t43.5 -26.5t50 -8v-147q-23 0 -49 -8t-44 -26.5t-18 -48.5v-121
q0 -58 -20 -95.5t-74.5 -55t-160.5 -17.5v136z" />
    <glyph glyph-name="asciitilde" unicode="~" horiz-adv-x="570" 
d="M266 289q-34 16 -60.5 21.5t-49.5 5.5q-28 0 -55.5 -17t-51.5 -42v137q24 26 54 39.5t69 13.5q28 0 56 -5t74 -26q35 -16 62.5 -21.5t49.5 -5.5q26 0 53.5 17t52.5 42v-137q-25 -26 -55.5 -39.5t-68.5 -13.5q-27 0 -55 5t-75 26z" />
    <glyph glyph-name="uni00A0" unicode="&#xa0;" horiz-adv-x="244" 
 />
    <glyph glyph-name="exclamdown" unicode="&#xa1;" horiz-adv-x="276" 
d="M53 299h173l24 -462h-221zM246 470q0 -52 -31.5 -73t-74.5 -21t-73.5 21t-30.5 73q0 50 30.5 71.5t73.5 21.5t74.5 -21.5t31.5 -71.5z" />
    <glyph glyph-name="cent" unicode="&#xa2;" horiz-adv-x="559" 
d="M363 649q39 -2 79 -13t76 -28l-59 -141q-32 15 -59.5 24t-57.5 9q-22 0 -40.5 -15t-29.5 -45.5t-11 -77.5q0 -48 11 -77t29.5 -42.5t41.5 -13.5q36 0 79 13t77 36v-152q-25 -19 -58.5 -31t-77.5 -17v-88h-103v91q-62 10 -108 43.5t-71 92.5t-25 144q0 84 26 142.5t72 93
t106 46.5v81h103v-75z" />
    <glyph glyph-name="sterling" unicode="&#xa3;" horiz-adv-x="558" 
d="M338 725q50 0 99 -11t91 -29l-55 -141q-37 14 -65.5 20.5t-45.5 6.5q-16 0 -27.5 -13.5t-11.5 -53.5v-52h150v-135h-150v-47q0 -32 -12 -53.5t-29 -35t-34 -22.5h296v-159h-490v153q25 16 40.5 29.5t23 33.5t7.5 53v48h-73v135h73v58q0 76 26 123t73.5 69.5t113.5 22.5z
" />
    <glyph glyph-name="currency" unicode="&#xa4;" horiz-adv-x="529" 
d="M81 353q0 23 4 45t11 41l-56 58l91 89l56 -60q16 9 36 14.5t36 5.5q20 0 38.5 -5.5t37.5 -16.5l54 62l93 -85l-58 -61q8 -18 12 -41t4 -46q0 -24 -3.5 -45t-12.5 -41l55 -58l-90 -87l-54 58q-16 -8 -36 -13.5t-40 -5.5q-19 0 -38.5 4t-36.5 14l-53 -56l-90 87l55 58
q-8 20 -11.5 41t-3.5 44zM211 353q0 -18 6.5 -33t17.5 -24t24 -9q14 0 26 9t19 24t7 33q0 19 -7 34t-19 24t-26 9q-13 0 -24 -9t-17.5 -24t-6.5 -34z" />
    <glyph glyph-name="yen" unicode="&#xa5;" horiz-adv-x="558" 
d="M279 468l70 246h206l-161 -348h89v-103h-110v-57h110v-102h-110v-104h-187v104h-113v102h113v57h-113v103h88l-157 348h205z" />
    <glyph glyph-name="brokenbar" unicode="&#xa6;" horiz-adv-x="456" 
d="M160 760h136v-410h-136v410zM160 192h136v-410h-136v410z" />
    <glyph glyph-name="section" unicode="&#xa7;" horiz-adv-x="477" 
d="M45 392q0 38 27 67t56 47q-33 24 -50 53.5t-17 66.5q0 63 47 103.5t139 40.5q48 0 93.5 -12t79.5 -30l-50 -108q-30 17 -63.5 29.5t-59.5 12.5q-16 0 -26.5 -9t-10.5 -27q0 -11 4.5 -22.5t19.5 -23.5t46 -25q59 -24 92.5 -49.5t47.5 -53.5t14 -60q0 -33 -11.5 -56.5
t-28 -40t-33.5 -29.5q23 -20 40 -50t17 -69q0 -67 -48 -113t-151 -46q-46 0 -87 10.5t-76 31.5v119q29 -15 59.5 -27t58 -19t46.5 -7q28 0 39 13t11 34q0 14 -5 25t-20 22.5t-44 25.5q-44 22 -79.5 45t-56 54t-20.5 77zM196 407q0 -16 6.5 -29.5t21 -26t37.5 -27.5l14 -9
q2 8 5.5 20.5t3.5 31.5q0 18 -6.5 32.5t-22 29t-41.5 28.5q-7 -6 -12.5 -18t-5.5 -32z" />
    <glyph glyph-name="dieresis" unicode="&#xa8;" horiz-adv-x="563" 
d="M88 690q0 40 24.5 58.5t61.5 18.5q35 0 61 -18.5t26 -58.5q0 -39 -26 -57.5t-61 -18.5q-37 0 -61.5 18.5t-24.5 57.5zM327 690q0 40 25 58.5t62 18.5q35 0 61 -18.5t26 -58.5q0 -39 -26 -57.5t-61 -18.5q-37 0 -62 18.5t-25 57.5z" />
    <glyph glyph-name="copyright" unicode="&#xa9;" horiz-adv-x="770" 
d="M405 474q-25 0 -41.5 -30t-16.5 -87q0 -62 16.5 -90t46.5 -28q34 0 66.5 8t63.5 25v-113q-33 -16 -66 -23.5t-72 -7.5q-106 0 -160.5 63t-54.5 168q0 68 22.5 119t68.5 79t115 28q50 0 88.5 -10t76.5 -28l-51 -100q-24 14 -47.5 20.5t-54.5 6.5zM40 357q0 76 26.5 142.5
t74 117t110 79t134.5 28.5t134.5 -28.5t110 -79t74 -117t26.5 -142.5t-26.5 -142.5t-74 -117t-110 -79t-134.5 -28.5t-134.5 28.5t-110 79t-74 117t-26.5 142.5zM129 357q0 -60 20 -112t55 -91.5t81.5 -61.5t99.5 -22t99.5 22t81.5 61.5t55 91.5t20 112t-20 112t-55 91.5
t-81.5 61.5t-99.5 22t-99.5 -22t-81.5 -61.5t-55 -91.5t-20 -112z" />
    <glyph glyph-name="ordfeminine" unicode="&#xaa;" horiz-adv-x="381" 
d="M207 722q57 0 98 -35t41 -106v-219h-81l-25 62q-20 -34 -43 -51t-69 -17q-28 0 -52 12.5t-38.5 38.5t-14.5 65q0 43 17.5 67t52.5 35t86 13l38 2v3q0 20 -10.5 28.5t-30.5 8.5q-26 0 -45 -6.5t-50 -20.5l-37 81q25 12 46.5 21t48.5 13.5t68 4.5zM182 519
q-21 -2 -26 -14.5t-5 -26.5q0 -16 7 -24.5t23 -8.5q20 0 28 20.5t8 45.5v11z" />
    <glyph glyph-name="guillemotleft" unicode="&#xab;" horiz-adv-x="675" 
d="M32 287l183 236l145 -73l-123 -169l123 -170l-145 -72l-183 235v13zM314 287l182 236l146 -73l-125 -169l125 -170l-146 -72l-182 235v13z" />
    <glyph glyph-name="logicalnot" unicode="&#xac;" horiz-adv-x="570" 
d="M520 418v-302h-138v171h-333v131h471z" />
    <glyph glyph-name="uni00AD" unicode="&#xad;" horiz-adv-x="318" 
d="M15 192v152h267v-152h-267z" />
    <glyph glyph-name="registered" unicode="&#xae;" horiz-adv-x="770" 
d="M357 395q21 0 33.5 10.5t12.5 37.5q0 26 -13 34t-31 8h17v-90h-19zM565 448q0 -51 -16.5 -77.5t-43.5 -40.5l78 -177h-163l-52 156h8v-156h-161v427h141q110 0 159.5 -34.5t49.5 -97.5zM40 357q0 76 26.5 142.5t74 117t110 79t134.5 28.5t134.5 -28.5t110 -79t74 -117
t26.5 -142.5t-26.5 -142.5t-74 -117t-110 -79t-134.5 -28.5t-134.5 28.5t-110 79t-74 117t-26.5 142.5zM129 357q0 -60 20 -112t55 -91.5t81.5 -61.5t99.5 -22t99.5 22t81.5 61.5t55 91.5t20 112t-20 112t-55 91.5t-81.5 61.5t-99.5 22t-99.5 -22t-81.5 -61.5t-55 -91.5
t-20 -112z" />
    <glyph glyph-name="overscore" unicode="&#xaf;" horiz-adv-x="470" 
d="M473 760h-476v120h476v-120z" />
    <glyph glyph-name="degree" unicode="&#xb0;" horiz-adv-x="394" 
d="M22 544q0 49 23.5 90t63.5 65.5t88 24.5q49 0 88.5 -24.5t63 -65.5t23.5 -90t-23.5 -89.5t-63 -64.5t-88.5 -24q-48 0 -88 24t-63.5 64.5t-23.5 89.5zM143 544q0 -25 16 -43.5t38 -18.5q15 0 27 8.5t19.5 23t7.5 30.5q0 26 -16 45.5t-38 19.5t-38 -19.5t-16 -45.5z" />
    <glyph glyph-name="plusminus" unicode="&#xb1;" horiz-adv-x="570" 
d="M49 0v131h471v-131h-471zM352 461h168v-131h-168v-176h-136v176h-167v131h167v179h136v-179z" />
    <glyph glyph-name="uni00B2" unicode="&#xb2;" horiz-adv-x="386" 
d="M356 416h-316v101l96 104q26 28 40.5 46.5t20.5 32t6 23.5q0 14 -6.5 21t-18.5 7q-13 0 -31 -8.5t-45 -34.5l-70 81q32 30 72 48t107 18q72 0 104.5 -32t32.5 -84q0 -39 -18.5 -71t-45.5 -58.5t-53 -51.5l-33 -32h158v-110z" />
    <glyph glyph-name="uni00B3" unicode="&#xb3;" horiz-adv-x="386" 
d="M194 853q77 0 115.5 -29t38.5 -76q0 -37 -16 -64t-56 -43v-4q44 -12 65 -37.5t21 -67.5q0 -60 -49 -92t-127 -32q-44 0 -84 8.5t-67 25.5v114q29 -22 67 -31t76 -9q19 0 33 7.5t14 25.5q0 14 -7 24.5t-47 10.5h-46v95h33q34 0 46 11t12 27q0 12 -8.5 22.5t-31.5 10.5
t-44 -8t-44 -28l-58 83q29 23 70.5 39.5t93.5 16.5z" />
    <glyph glyph-name="acute" unicode="&#xb4;" horiz-adv-x="427" 
d="M387 756q-18 -14 -46 -34.5t-59 -42t-59.5 -41t-48.5 -32.5h-134v14q17 19 41 44.5t48 52.5t40 49h218v-10z" />
    <glyph glyph-name="uni00B5" unicode="&#xb5;" horiz-adv-x="639" 
d="M583 553v-553h-151l-27 74h-8q-9 -28 -23.5 -47t-31 -28t-33.5 -9q-24 0 -34.5 10t-21.5 31h-1q1 -14 2.5 -34t2.5 -41t1 -40v-156h-202v793h202v-300q0 -56 12.5 -84t44.5 -28q24 0 38 19.5t20 57.5t6 93v242h204z" />
    <glyph glyph-name="paragraph" unicode="&#xb6;" horiz-adv-x="598" 
d="M549 -127h-95v775h-70v-775h-95v400q-14 -4 -23 -6.5t-29 -2.5q-58 0 -101.5 23t-67.5 77t-24 145q0 96 26 150.5t73 77.5t108 23h298v-887z" />
    <glyph glyph-name="periodcentered" unicode="&#xb7;" horiz-adv-x="289" 
d="M32 353q0 52 32 73t75 21q41 0 71.5 -21t30.5 -73q0 -49 -30.5 -71t-71.5 -22q-43 0 -75 22t-32 71z" />
    <glyph glyph-name="cedilla" unicode="&#xb8;" horiz-adv-x="315" 
d="M280 -123q0 -35 -17 -61.5t-43.5 -41t-56.5 -14.5q-39 0 -70.5 5t-50.5 12v94q17 -5 29.5 -8t28.5 -3q20 0 30.5 7.5t10.5 20.5q0 17 -15 27t-47 17l24 68h90l-6 -30q19 -4 40.5 -14t37 -28.5t15.5 -50.5z" />
    <glyph glyph-name="uni00B9" unicode="&#xb9;" horiz-adv-x="386" 
d="M291 844v-428h-141v174q0 11 1 33.5t2 44t2 28.5q-4 -9 -10.5 -18.5t-13.5 -16.5l-37 -34l-77 83l166 134h108z" />
    <glyph glyph-name="ordmasculine" unicode="&#xba;" horiz-adv-x="370" 
d="M351 539q0 -87 -45 -135t-122 -48q-72 0 -118 49t-46 134q0 88 44.5 135.5t121.5 47.5q47 0 84 -22t59 -62.5t22 -98.5zM148 539q0 -42 9 -63t28 -21q18 0 26.5 21t8.5 63t-8.5 63.5t-26.5 21.5q-19 0 -28 -21.5t-9 -63.5z" />
    <glyph glyph-name="guillemotright" unicode="&#xbb;" horiz-adv-x="675" 
d="M643 274l-182 -235l-147 72l125 170l-125 169l147 73l182 -236v-13zM361 274l-182 -235l-146 72l123 170l-123 169l146 73l182 -236v-13z" />
    <glyph glyph-name="onequarter" unicode="&#xbc;" horiz-adv-x="865" 
d="M173 0l332 714h154l-331 -714h-155zM113 460v28t1.5 39t3.5 39q0 -4 -5.5 -13.5t-16.5 -19.5l-40 -36l-76 83l166 134h108v-428h-141v174zM663 0v68h-167v92l152 271h151v-265h57v-98h-57v-68h-136zM601 166h62v81q0 17 1 33.5t2 32.5q-12 -25 -16.5 -41t-8.5 -24z" />
    <glyph glyph-name="onehalf" unicode="&#xbd;" horiz-adv-x="899" 
d="M191 0l331 714h154l-331 -714h-154zM113 460q0 4 1 20t1.5 35t1.5 34t1 17q0 -4 -8 -15t-18 -20l-36 -34l-76 83l166 134h108v-428h-141v174zM553 0v101l96 104q25 27 39.5 45.5t20.5 32t6 24.5q0 14 -5.5 21t-18.5 7q-18 0 -37.5 -10.5t-39.5 -32.5l-69 81
q41 36 82.5 51t96.5 15q67 0 102 -30.5t35 -85.5q0 -26 -8 -48.5t-19.5 -40t-24.5 -29.5l-97 -95h157v-110h-316z" />
    <glyph glyph-name="threequarters" unicode="&#xbe;" horiz-adv-x="907" 
d="M232 0l331 714h154l-331 -714h-154zM192 278q-46 0 -84 8.5t-67 25.5v114q25 -20 61 -30t82 -10q23 0 35 8.5t12 24.5q0 20 -15 27.5t-39 7.5h-46v95h33q25 0 41.5 9t16.5 29q0 12 -8.5 22.5t-31.5 10.5t-43.5 -8t-44.5 -28l-58 83q38 28 79.5 42t84.5 14q74 0 114 -28
t40 -77q0 -38 -16 -64.5t-56 -42.5v-4q44 -12 65 -37.5t21 -67.5q0 -59 -48 -91.5t-128 -32.5zM706 0v68h-167v92l151 271h151v-265h57v-98h-57v-68h-135zM645 166h61v81q0 17 0.5 33.5t1.5 32.5q-11 -25 -15.5 -41t-8.5 -24z" />
    <glyph glyph-name="questiondown" unicode="&#xbf;" horiz-adv-x="505" 
d="M373 257q0 -30 -7.5 -54t-27 -46t-55.5 -45q-26 -17 -40 -30t-19 -26.5t-5 -29.5q0 -24 15.5 -36.5t38.5 -12.5q30 0 71.5 13t90.5 39l72 -133q-55 -32 -117 -50.5t-134 -18.5q-108 0 -167 49t-59 129q0 38 10.5 70t34 59.5t63.5 54.5q24 16 37.5 29.5t19 26.5t5.5 29v25
h173v-42zM388 470q0 -52 -31.5 -73t-74.5 -21t-73.5 21t-30.5 73q0 49 30.5 71t73.5 22t74.5 -22t31.5 -71z" />
    <glyph glyph-name="Agrave" unicode="&#xc0;" horiz-adv-x="701" 
d="M478 0l-24 134h-203l-26 -134h-225l209 717h280l212 -717h-223zM387 411q-5 24 -12 54t-13.5 62.5t-10.5 61.5q-6 -44 -16 -92.5t-18 -84.5l-28 -120h126zM398 927q18 -22 41.5 -49t47 -52.5t38.5 -44.5v-14h-134l-47.5 32.5t-59.5 41t-59 42t-47 34.5v10h220z" />
    <glyph glyph-name="Aacute" unicode="&#xc1;" horiz-adv-x="701" 
d="M478 0l-24 134h-203l-26 -134h-225l209 717h280l212 -717h-223zM387 411q-5 24 -12 54t-13.5 62.5t-10.5 61.5q-6 -44 -16 -92.5t-18 -84.5l-28 -120h126zM604 917q-18 -14 -46 -34.5t-59 -42t-59.5 -41t-48.5 -32.5h-134v14q17 19 41 44.5t48 52.5t40 49h218v-10z" />
    <glyph glyph-name="Acircumflex" unicode="&#xc2;" horiz-adv-x="701" 
d="M478 0l-24 134h-203l-26 -134h-225l209 717h280l212 -717h-223zM387 411q-5 24 -12 54t-13.5 62.5t-10.5 61.5q-6 -44 -16 -92.5t-18 -84.5l-28 -120h126zM447 927q16 -23 37.5 -50.5t43 -53t36.5 -42.5v-14h-129q-25 15 -42 33t-42 40q-25 -22 -40 -39t-40 -34h-133v14
q18 18 40 43.5t43.5 52.5t35.5 50h190z" />
    <glyph glyph-name="Atilde" unicode="&#xc3;" horiz-adv-x="701" 
d="M478 0l-24 134h-203l-26 -134h-225l209 717h280l212 -717h-223zM387 411q-5 24 -12 54t-13.5 62.5t-10.5 61.5q-6 -44 -16 -92.5t-18 -84.5l-28 -120h126zM546 933q-6 -90 -34 -128.5t-72 -38.5q-22 0 -44.5 7t-44 16.5t-41.5 16.5t-38 7q-5 0 -12.5 -8t-12.5 -40h-91
q3 46 11 78t21 51.5t32.5 28.5t45.5 9q17 0 37.5 -7t42.5 -16.5t43 -16.5t39 -7q5 0 13 8.5t12 39.5h93z" />
    <glyph glyph-name="Adieresis" unicode="&#xc4;" horiz-adv-x="701" 
d="M478 0l-24 134h-203l-26 -134h-225l209 717h280l212 -717h-223zM387 411q-5 24 -12 54t-13.5 62.5t-10.5 61.5q-6 -44 -16 -92.5t-18 -84.5l-28 -120h126zM144 851q0 40 24.5 58.5t61.5 18.5q35 0 61 -18.5t26 -58.5q0 -39 -26 -57.5t-61 -18.5q-37 0 -61.5 18.5
t-24.5 57.5zM383 851q0 40 25 58.5t62 18.5q35 0 61 -18.5t26 -58.5q0 -39 -26 -57.5t-61 -18.5q-37 0 -62 18.5t-25 57.5z" />
    <glyph glyph-name="Aring" unicode="&#xc5;" horiz-adv-x="701" 
d="M478 0l-24 134h-203l-26 -134h-225l209 717h280l212 -717h-223zM387 411q-5 24 -12 54t-13.5 62.5t-10.5 61.5q-6 -44 -16 -92.5t-18 -84.5l-28 -120h126zM350 636q-56 0 -90.5 33t-34.5 90q0 58 34.5 91t90.5 33q53 0 91.5 -33t38.5 -90q0 -58 -38 -91t-92 -33zM350 718
q15 0 25.5 11.5t10.5 29.5q0 19 -10.5 30t-25.5 11q-14 0 -24.5 -11t-10.5 -30q0 -18 9 -29.5t26 -11.5z" />
    <glyph glyph-name="AE" unicode="&#xc6;" horiz-adv-x="886" 
d="M847 0h-399v134h-186l-33 -134h-236l282 714h572v-155h-194v-112h179v-155h-179v-135h194v-157zM320 294h128v257h-46z" />
    <glyph glyph-name="Ccedilla" unicode="&#xc7;" horiz-adv-x="616" 
d="M382 566q-32 0 -56.5 -14.5t-41 -42t-24.5 -66.5t-8 -89q0 -67 16.5 -113t49 -69.5t80.5 -23.5q44 0 83.5 13t76.5 32v-163q-44 -21 -93 -30.5t-100 -9.5q-113 0 -184 46t-104 128.5t-33 190.5q0 81 21.5 148.5t64 117t104 76.5t141.5 27q48 0 107 -13t107 -37l-61 -152
q-34 19 -68.5 31.5t-77.5 12.5zM510 -123q0 -35 -17 -61.5t-43.5 -41t-56.5 -14.5q-39 0 -70.5 5t-50.5 12v94q17 -5 29.5 -8t28.5 -3q20 0 30.5 7.5t10.5 20.5q0 17 -15 27t-47 17l24 68h90l-6 -30q19 -4 40.5 -14t37 -28.5t15.5 -50.5z" />
    <glyph glyph-name="Egrave" unicode="&#xc8;" horiz-adv-x="510" 
d="M471 0h-405v714h405v-155h-201v-112h186v-155h-186v-135h201v-157zM313 927q18 -22 41.5 -49t47 -52.5t38.5 -44.5v-14h-134l-47.5 32.5t-59.5 41t-59 42t-47 34.5v10h220z" />
    <glyph glyph-name="Eacute" unicode="&#xc9;" horiz-adv-x="510" 
d="M471 0h-405v714h405v-155h-201v-112h186v-155h-186v-135h201v-157zM519 917q-18 -14 -46 -34.5t-59 -42t-59.5 -41t-48.5 -32.5h-134v14q17 19 41 44.5t48 52.5t40 49h218v-10z" />
    <glyph glyph-name="Ecircumflex" unicode="&#xca;" horiz-adv-x="510" 
d="M471 0h-405v714h405v-155h-201v-112h186v-155h-186v-135h201v-157zM362 927q16 -23 37.5 -50.5t43 -53t36.5 -42.5v-14h-129q-25 15 -42 33t-42 40q-25 -22 -40 -39t-40 -34h-133v14q18 18 40 43.5t43.5 52.5t35.5 50h190z" />
    <glyph glyph-name="Edieresis" unicode="&#xcb;" horiz-adv-x="510" 
d="M471 0h-405v714h405v-155h-201v-112h186v-155h-186v-135h201v-157zM59 851q0 40 24.5 58.5t61.5 18.5q35 0 61 -18.5t26 -58.5q0 -39 -26 -57.5t-61 -18.5q-37 0 -61.5 18.5t-24.5 57.5zM298 851q0 40 25 58.5t62 18.5q35 0 61 -18.5t26 -58.5q0 -39 -26 -57.5t-61 -18.5
q-37 0 -62 18.5t-25 57.5z" />
    <glyph glyph-name="Igrave" unicode="&#xcc;" horiz-adv-x="440" 
d="M407 0h-374v110l85 34v427l-85 33v110h374v-110l-84 -33v-427l84 -34v-110zM267 927q18 -22 41.5 -49t47 -52.5t38.5 -44.5v-14h-134l-47.5 32.5t-59.5 41t-59 42t-47 34.5v10h220z" />
    <glyph glyph-name="Iacute" unicode="&#xcd;" horiz-adv-x="440" 
d="M407 0h-374v110l85 34v427l-85 33v110h374v-110l-84 -33v-427l84 -34v-110zM473 917q-18 -14 -46 -34.5t-59 -42t-59.5 -41t-48.5 -32.5h-134v14q17 19 41 44.5t48 52.5t40 49h218v-10z" />
    <glyph glyph-name="Icircumflex" unicode="&#xce;" horiz-adv-x="440" 
d="M407 0h-374v110l85 34v427l-85 33v110h374v-110l-84 -33v-427l84 -34v-110zM316 927q16 -23 37.5 -50.5t43 -53t36.5 -42.5v-14h-129q-25 15 -42 33t-42 40q-25 -22 -40 -39t-40 -34h-133v14q18 18 40 43.5t43.5 52.5t35.5 50h190z" />
    <glyph glyph-name="Idieresis" unicode="&#xcf;" horiz-adv-x="440" 
d="M407 0h-374v110l85 34v427l-85 33v110h374v-110l-84 -33v-427l84 -34v-110zM13 851q0 40 24.5 58.5t61.5 18.5q35 0 61 -18.5t26 -58.5q0 -39 -26 -57.5t-61 -18.5q-37 0 -61.5 18.5t-24.5 57.5zM252 851q0 40 25 58.5t62 18.5q35 0 61 -18.5t26 -58.5q0 -39 -26 -57.5
t-61 -18.5q-37 0 -62 18.5t-25 57.5z" />
    <glyph glyph-name="Eth" unicode="&#xd0;" horiz-adv-x="687" 
d="M310 714q110 0 184 -39.5t111.5 -115.5t37.5 -187q0 -124 -44 -207t-121.5 -124t-179.5 -41h-232v275h-56v156h56v283h244zM309 558h-40v-127h90v-156h-90v-117h30q71 0 102 51t31 156q0 98 -29 145.5t-94 47.5z" />
    <glyph glyph-name="Ntilde" unicode="&#xd1;" horiz-adv-x="796" 
d="M730 0h-270l-219 503h-4l1 -17.5t3 -45.5t3.5 -59.5t1.5 -58.5v-322h-180v714h269l218 -496h3l-1 17t-2.5 44t-2.5 57t-1 55v323h181v-714zM593 933q-6 -90 -34 -128.5t-72 -38.5q-22 0 -44.5 7t-44 16.5t-41.5 16.5t-38 7q-5 0 -12.5 -8t-12.5 -40h-91q3 46 11 78
t21 51.5t32.5 28.5t45.5 9q17 0 37.5 -7t42.5 -16.5t43 -16.5t39 -7q5 0 13 8.5t12 39.5h93z" />
    <glyph glyph-name="Ograve" unicode="&#xd2;" horiz-adv-x="750" 
d="M704 358q0 -83 -18.5 -150.5t-58 -116.5t-102 -75t-151.5 -26q-86 0 -148.5 26t-102.5 75t-59.5 116.5t-19.5 151.5q0 111 35 193.5t108 127.5t188 45q118 0 190.5 -45.5t105.5 -128t33 -193.5zM258 358q0 -64 11.5 -110.5t37 -71.5t67.5 -25q44 0 69 25t36 71.5
t11 110.5q0 97 -25 153t-90 56q-43 0 -69 -25.5t-37 -72t-11 -111.5zM422 938q18 -22 41.5 -49t47 -52.5t38.5 -44.5v-14h-134l-47.5 32.5t-59.5 41t-59 42t-47 34.5v10h220z" />
    <glyph glyph-name="Oacute" unicode="&#xd3;" horiz-adv-x="750" 
d="M704 358q0 -83 -18.5 -150.5t-58 -116.5t-102 -75t-151.5 -26q-86 0 -148.5 26t-102.5 75t-59.5 116.5t-19.5 151.5q0 111 35 193.5t108 127.5t188 45q118 0 190.5 -45.5t105.5 -128t33 -193.5zM258 358q0 -64 11.5 -110.5t37 -71.5t67.5 -25q44 0 69 25t36 71.5
t11 110.5q0 97 -25 153t-90 56q-43 0 -69 -25.5t-37 -72t-11 -111.5zM628 928q-18 -14 -46 -34.5t-59 -42t-59.5 -41t-48.5 -32.5h-134v14q17 19 41 44.5t48 52.5t40 49h218v-10z" />
    <glyph glyph-name="Ocircumflex" unicode="&#xd4;" horiz-adv-x="750" 
d="M704 358q0 -83 -18.5 -150.5t-58 -116.5t-102 -75t-151.5 -26q-86 0 -148.5 26t-102.5 75t-59.5 116.5t-19.5 151.5q0 111 35 193.5t108 127.5t188 45q118 0 190.5 -45.5t105.5 -128t33 -193.5zM258 358q0 -64 11.5 -110.5t37 -71.5t67.5 -25q44 0 69 25t36 71.5
t11 110.5q0 97 -25 153t-90 56q-43 0 -69 -25.5t-37 -72t-11 -111.5zM471 938q16 -23 37.5 -50.5t43 -53t36.5 -42.5v-14h-129q-25 15 -42 33t-42 40q-25 -22 -40 -39t-40 -34h-133v14q18 18 40 43.5t43.5 52.5t35.5 50h190z" />
    <glyph glyph-name="Otilde" unicode="&#xd5;" horiz-adv-x="750" 
d="M704 358q0 -83 -18.5 -150.5t-58 -116.5t-102 -75t-151.5 -26q-86 0 -148.5 26t-102.5 75t-59.5 116.5t-19.5 151.5q0 111 35 193.5t108 127.5t188 45q118 0 190.5 -45.5t105.5 -128t33 -193.5zM258 358q0 -64 11.5 -110.5t37 -71.5t67.5 -25q44 0 69 25t36 71.5
t11 110.5q0 97 -25 153t-90 56q-43 0 -69 -25.5t-37 -72t-11 -111.5zM570 944q-6 -90 -34 -128.5t-72 -38.5q-22 0 -44.5 7t-44 16.5t-41.5 16.5t-38 7q-5 0 -12.5 -8t-12.5 -40h-91q3 46 11 78t21 51.5t32.5 28.5t45.5 9q17 0 37.5 -7t42.5 -16.5t43 -16.5t39 -7
q5 0 13 8.5t12 39.5h93z" />
    <glyph glyph-name="Odieresis" unicode="&#xd6;" horiz-adv-x="750" 
d="M704 358q0 -83 -18.5 -150.5t-58 -116.5t-102 -75t-151.5 -26q-86 0 -148.5 26t-102.5 75t-59.5 116.5t-19.5 151.5q0 111 35 193.5t108 127.5t188 45q118 0 190.5 -45.5t105.5 -128t33 -193.5zM258 358q0 -64 11.5 -110.5t37 -71.5t67.5 -25q44 0 69 25t36 71.5
t11 110.5q0 97 -25 153t-90 56q-43 0 -69 -25.5t-37 -72t-11 -111.5zM168 862q0 40 24.5 58.5t61.5 18.5q35 0 61 -18.5t26 -58.5q0 -39 -26 -57.5t-61 -18.5q-37 0 -61.5 18.5t-24.5 57.5zM407 862q0 40 25 58.5t62 18.5q35 0 61 -18.5t26 -58.5q0 -39 -26 -57.5t-61 -18.5
q-37 0 -62 18.5t-25 57.5z" />
    <glyph glyph-name="multiply" unicode="&#xd7;" horiz-adv-x="570" 
d="M399 576l95 -89l-118 -134l116 -133l-93 -90l-118 132l-116 -131l-91 91l113 131l-114 131l92 92l116 -130z" />
    <glyph glyph-name="Oslash" unicode="&#xd8;" horiz-adv-x="750" 
d="M704 358q0 -83 -18.5 -150.5t-58 -116.5t-102 -75t-151.5 -26q-37 0 -70.5 5.5t-63.5 15.5l-37 -64l-96 61l37 61q-52 49 -76 122.5t-24 167.5q0 111 35 193.5t108 127.5t188 45q43 0 80 -6.5t67 -20.5l33 58l95 -56l-36 -61q48 -48 69 -120t21 -161zM490 358v56v47
l-153 -303q8 -3 18 -5t19 -2q44 0 69 25t36 71.5t11 110.5zM258 358q0 -34 1 -63.5t5 -53.5l159 312q-11 6 -23.5 10t-24.5 4q-43 0 -69 -25.5t-37 -72t-11 -111.5z" />
    <glyph glyph-name="Ugrave" unicode="&#xd9;" horiz-adv-x="712" 
d="M650 284q0 -90 -33 -156t-98.5 -102t-164.5 -36q-142 0 -217 75.5t-75 214.5v434h205v-419q0 -76 23 -110t66 -34q32 0 52 15t29 47t9 83v418h204v-430zM404 927q18 -22 41.5 -49t47 -52.5t38.5 -44.5v-14h-134l-47.5 32.5t-59.5 41t-59 42t-47 34.5v10h220z" />
    <glyph glyph-name="Uacute" unicode="&#xda;" horiz-adv-x="712" 
d="M650 284q0 -90 -33 -156t-98.5 -102t-164.5 -36q-142 0 -217 75.5t-75 214.5v434h205v-419q0 -76 23 -110t66 -34q32 0 52 15t29 47t9 83v418h204v-430zM610 917q-18 -14 -46 -34.5t-59 -42t-59.5 -41t-48.5 -32.5h-134v14q17 19 41 44.5t48 52.5t40 49h218v-10z" />
    <glyph glyph-name="Ucircumflex" unicode="&#xdb;" horiz-adv-x="712" 
d="M650 284q0 -90 -33 -156t-98.5 -102t-164.5 -36q-142 0 -217 75.5t-75 214.5v434h205v-419q0 -76 23 -110t66 -34q32 0 52 15t29 47t9 83v418h204v-430zM453 927q16 -23 37.5 -50.5t43 -53t36.5 -42.5v-14h-129q-25 15 -42 33t-42 40q-25 -22 -40 -39t-40 -34h-133v14
q18 18 40 43.5t43.5 52.5t35.5 50h190z" />
    <glyph glyph-name="Udieresis" unicode="&#xdc;" horiz-adv-x="712" 
d="M650 284q0 -90 -33 -156t-98.5 -102t-164.5 -36q-142 0 -217 75.5t-75 214.5v434h205v-419q0 -76 23 -110t66 -34q32 0 52 15t29 47t9 83v418h204v-430zM150 851q0 40 24.5 58.5t61.5 18.5q35 0 61 -18.5t26 -58.5q0 -39 -26 -57.5t-61 -18.5q-37 0 -61.5 18.5
t-24.5 57.5zM389 851q0 40 25 58.5t62 18.5q35 0 61 -18.5t26 -58.5q0 -39 -26 -57.5t-61 -18.5q-37 0 -62 18.5t-25 57.5z" />
    <glyph glyph-name="Yacute" unicode="&#xdd;" horiz-adv-x="645" 
d="M323 449l102 265h220l-220 -435v-279h-205v273l-220 441h222zM576 917q-18 -14 -46 -34.5t-59 -42t-59.5 -41t-48.5 -32.5h-134v14q17 19 41 44.5t48 52.5t40 49h218v-10z" />
    <glyph glyph-name="Thorn" unicode="&#xde;" horiz-adv-x="589" 
d="M566 383q0 -65 -24 -122t-80 -92.5t-153 -35.5h-39v-133h-204v714h204v-104h33q130 0 196.5 -59t66.5 -168zM295 290q12 0 27.5 9.5t27 30t11.5 52.5q0 34 -11.5 53t-38.5 19h-41v-164h25z" />
    <glyph glyph-name="germandbls" unicode="&#xdf;" horiz-adv-x="726" 
d="M638 581q0 -34 -12 -60t-29.5 -45.5t-35 -34.5t-29.5 -26t-12 -19q0 -12 11 -21.5t32 -21.5t50 -33q31 -21 50.5 -42.5t29 -48.5t9.5 -66q0 -56 -23.5 -94.5t-69.5 -58.5t-113 -20q-73 0 -114.5 6.5t-72.5 22.5v142q16 -10 39 -19t46.5 -14.5t40.5 -5.5q20 0 37.5 11
t17.5 31q0 11 -4.5 20t-22.5 22t-57 35q-38 22 -60.5 41t-32.5 40t-10 47q0 31 13 52.5t32 38t38 31t32 31t13 39.5q0 25 -19 41.5t-59 16.5q-36 0 -56.5 -12t-29.5 -34.5t-9 -55.5v-517h-202v537q0 74 38.5 124.5t105.5 77t153 26.5q84 0 148 -20.5t100.5 -61t36.5 -102.5z
" />
    <glyph glyph-name="agrave" unicode="&#xe0;" horiz-adv-x="596" 
d="M334 563q97 0 152.5 -52t55.5 -148v-363h-139l-39 73h-4q-22 -29 -45 -47.5t-53 -27t-74 -8.5t-80 19.5t-56.5 59t-20.5 100.5q0 89 58 132.5t165 47.5l85 3v8q0 37 -14.5 52.5t-38.5 15.5q-28 0 -67 -11.5t-78 -29.5l-55 126q48 25 108.5 37.5t139.5 12.5zM307 245
q-39 -2 -55.5 -18.5t-16.5 -46.5q0 -28 12 -41.5t31 -13.5q25 0 44 22t19 57v43zM346 766q18 -22 41.5 -49t47 -52.5t38.5 -44.5v-14h-134l-47.5 32.5t-59.5 41t-59 42t-47 34.5v10h220z" />
    <glyph glyph-name="aacute" unicode="&#xe1;" horiz-adv-x="596" 
d="M334 563q97 0 152.5 -52t55.5 -148v-363h-139l-39 73h-4q-22 -29 -45 -47.5t-53 -27t-74 -8.5t-80 19.5t-56.5 59t-20.5 100.5q0 89 58 132.5t165 47.5l85 3v8q0 37 -14.5 52.5t-38.5 15.5q-28 0 -67 -11.5t-78 -29.5l-55 126q48 25 108.5 37.5t139.5 12.5zM307 245
q-39 -2 -55.5 -18.5t-16.5 -46.5q0 -28 12 -41.5t31 -13.5q25 0 44 22t19 57v43zM552 756q-18 -14 -46 -34.5t-59 -42t-59.5 -41t-48.5 -32.5h-134v14q17 19 41 44.5t48 52.5t40 49h218v-10z" />
    <glyph glyph-name="acircumflex" unicode="&#xe2;" horiz-adv-x="596" 
d="M334 563q97 0 152.5 -52t55.5 -148v-363h-139l-39 73h-4q-22 -29 -45 -47.5t-53 -27t-74 -8.5t-80 19.5t-56.5 59t-20.5 100.5q0 89 58 132.5t165 47.5l85 3v8q0 37 -14.5 52.5t-38.5 15.5q-28 0 -67 -11.5t-78 -29.5l-55 126q48 25 108.5 37.5t139.5 12.5zM307 245
q-39 -2 -55.5 -18.5t-16.5 -46.5q0 -28 12 -41.5t31 -13.5q25 0 44 22t19 57v43zM395 766q16 -23 37.5 -50.5t43 -53t36.5 -42.5v-14h-129q-25 15 -42 33t-42 40q-25 -22 -40 -39t-40 -34h-133v14q18 18 40 43.5t43.5 52.5t35.5 50h190z" />
    <glyph glyph-name="atilde" unicode="&#xe3;" horiz-adv-x="596" 
d="M334 563q97 0 152.5 -52t55.5 -148v-363h-139l-39 73h-4q-22 -29 -45 -47.5t-53 -27t-74 -8.5t-80 19.5t-56.5 59t-20.5 100.5q0 89 58 132.5t165 47.5l85 3v8q0 37 -14.5 52.5t-38.5 15.5q-28 0 -67 -11.5t-78 -29.5l-55 126q48 25 108.5 37.5t139.5 12.5zM307 245
q-39 -2 -55.5 -18.5t-16.5 -46.5q0 -28 12 -41.5t31 -13.5q25 0 44 22t19 57v43zM494 772q-6 -90 -34 -128.5t-72 -38.5q-22 0 -44.5 7t-44 16.5t-41.5 16.5t-38 7q-5 0 -12.5 -8t-12.5 -40h-91q3 46 11 78t21 51.5t32.5 28.5t45.5 9q17 0 37.5 -7t42.5 -16.5t43 -16.5
t39 -7q5 0 13 8.5t12 39.5h93z" />
    <glyph glyph-name="adieresis" unicode="&#xe4;" horiz-adv-x="596" 
d="M334 563q97 0 152.5 -52t55.5 -148v-363h-139l-39 73h-4q-22 -29 -45 -47.5t-53 -27t-74 -8.5t-80 19.5t-56.5 59t-20.5 100.5q0 89 58 132.5t165 47.5l85 3v8q0 37 -14.5 52.5t-38.5 15.5q-28 0 -67 -11.5t-78 -29.5l-55 126q48 25 108.5 37.5t139.5 12.5zM307 245
q-39 -2 -55.5 -18.5t-16.5 -46.5q0 -28 12 -41.5t31 -13.5q25 0 44 22t19 57v43zM92 690q0 40 24.5 58.5t61.5 18.5q35 0 61 -18.5t26 -58.5q0 -39 -26 -57.5t-61 -18.5q-37 0 -61.5 18.5t-24.5 57.5zM331 690q0 40 25 58.5t62 18.5q35 0 61 -18.5t26 -58.5q0 -39 -26 -57.5
t-61 -18.5q-37 0 -62 18.5t-25 57.5z" />
    <glyph glyph-name="aring" unicode="&#xe5;" horiz-adv-x="596" 
d="M334 563q97 0 152.5 -52t55.5 -148v-363h-139l-39 73h-4q-22 -29 -45 -47.5t-53 -27t-74 -8.5t-80 19.5t-56.5 59t-20.5 100.5q0 89 58 132.5t165 47.5l85 3v8q0 37 -14.5 52.5t-38.5 15.5q-28 0 -67 -11.5t-78 -29.5l-55 126q48 25 108.5 37.5t139.5 12.5zM307 245
q-39 -2 -55.5 -18.5t-16.5 -46.5q0 -28 12 -41.5t31 -13.5q25 0 44 22t19 57v43zM297 604q-56 0 -90.5 33t-34.5 90q0 58 34.5 91t90.5 33q53 0 91.5 -33t38.5 -90q0 -58 -38 -91t-92 -33zM297 686q15 0 25.5 11.5t10.5 29.5q0 19 -10.5 30t-25.5 11q-14 0 -24.5 -11
t-10.5 -30q0 -18 9 -29.5t26 -11.5z" />
    <glyph glyph-name="ae" unicode="&#xe6;" horiz-adv-x="889" 
d="M620 563q67 0 118.5 -28t81.5 -84.5t30 -141.5v-84h-313q2 -40 30 -69.5t85 -29.5q30 0 73.5 9t89.5 33v-137q-37 -21 -81 -31t-115 -10q-38 0 -74 10t-67 30.5t-55 52.5q-34 -35 -63.5 -55.5t-66.5 -29t-96 -8.5q-42 0 -80 19.5t-62 60t-24 102.5t30.5 100t83.5 56.5
t118 20.5l82 3v9q0 40 -17.5 53.5t-36.5 13.5q-28 0 -68 -10.5t-78 -28.5l-54 125q47 25 102.5 37t114.5 12q41 0 79.5 -11.5t72.5 -34.5q34 24 71 35t89 11zM315 245q-46 -3 -62.5 -21t-16.5 -50q0 -27 13 -38t32 -11q17 0 31.5 10t23.5 28t9 41v43zM606 433
q-25 0 -44 -19.5t-22 -68.5h133q0 24 -8 44t-23 32t-36 12z" />
    <glyph glyph-name="ccedilla" unicode="&#xe7;" horiz-adv-x="520" 
d="M309 -10q-80 0 -141.5 30t-95.5 93t-34 161q0 101 37.5 164.5t102.5 94t146 30.5q44 0 89.5 -11t82.5 -31l-53 -139q-27 15 -50.5 23t-48.5 8q-27 0 -50 -15t-37 -45.5t-14 -77.5q0 -48 13.5 -77t37 -42.5t51.5 -13.5q32 0 68.5 13t67.5 36v-152q-33 -22 -76 -35.5
t-96 -13.5zM446 -123q0 -35 -17 -61.5t-43.5 -41t-56.5 -14.5q-39 0 -70.5 5t-50.5 12v94q17 -5 29.5 -8t28.5 -3q20 0 30.5 7.5t10.5 20.5q0 17 -15 27t-47 17l24 68h90l-6 -30q19 -4 40.5 -14t37 -28.5t15.5 -50.5z" />
    <glyph glyph-name="egrave" unicode="&#xe8;" horiz-adv-x="595" 
d="M303 563q78 0 135 -28t87.5 -84t30.5 -141v-85h-314q2 -43 27.5 -71t77.5 -28q49 0 89.5 10t83.5 32v-137q-37 -21 -83.5 -31t-119.5 -10q-79 0 -142 29.5t-100 92.5t-37 161q0 100 33.5 164t93 95t138.5 31zM312 433q-26 0 -44.5 -21t-21.5 -67h130q0 25 -8 44.5
t-22 31.5t-34 12zM344 766q18 -22 41.5 -49t47 -52.5t38.5 -44.5v-14h-134l-47.5 32.5t-59.5 41t-59 42t-47 34.5v10h220z" />
    <glyph glyph-name="eacute" unicode="&#xe9;" horiz-adv-x="595" 
d="M303 563q78 0 135 -28t87.5 -84t30.5 -141v-85h-314q2 -43 27.5 -71t77.5 -28q49 0 89.5 10t83.5 32v-137q-37 -21 -83.5 -31t-119.5 -10q-79 0 -142 29.5t-100 92.5t-37 161q0 100 33.5 164t93 95t138.5 31zM312 433q-26 0 -44.5 -21t-21.5 -67h130q0 25 -8 44.5
t-22 31.5t-34 12zM550 756q-18 -14 -46 -34.5t-59 -42t-59.5 -41t-48.5 -32.5h-134v14q17 19 41 44.5t48 52.5t40 49h218v-10z" />
    <glyph glyph-name="ecircumflex" unicode="&#xea;" horiz-adv-x="595" 
d="M303 563q78 0 135 -28t87.5 -84t30.5 -141v-85h-314q2 -43 27.5 -71t77.5 -28q49 0 89.5 10t83.5 32v-137q-37 -21 -83.5 -31t-119.5 -10q-79 0 -142 29.5t-100 92.5t-37 161q0 100 33.5 164t93 95t138.5 31zM312 433q-26 0 -44.5 -21t-21.5 -67h130q0 25 -8 44.5
t-22 31.5t-34 12zM393 766q16 -23 37.5 -50.5t43 -53t36.5 -42.5v-14h-129q-25 15 -42 33t-42 40q-25 -22 -40 -39t-40 -34h-133v14q18 18 40 43.5t43.5 52.5t35.5 50h190z" />
    <glyph glyph-name="edieresis" unicode="&#xeb;" horiz-adv-x="595" 
d="M303 563q78 0 135 -28t87.5 -84t30.5 -141v-85h-314q2 -43 27.5 -71t77.5 -28q49 0 89.5 10t83.5 32v-137q-37 -21 -83.5 -31t-119.5 -10q-79 0 -142 29.5t-100 92.5t-37 161q0 100 33.5 164t93 95t138.5 31zM312 433q-26 0 -44.5 -21t-21.5 -67h130q0 25 -8 44.5
t-22 31.5t-34 12zM90 690q0 40 24.5 58.5t61.5 18.5q35 0 61 -18.5t26 -58.5q0 -39 -26 -57.5t-61 -18.5q-37 0 -61.5 18.5t-24.5 57.5zM329 690q0 40 25 58.5t62 18.5q35 0 61 -18.5t26 -58.5q0 -39 -26 -57.5t-61 -18.5q-37 0 -62 18.5t-25 57.5z" />
    <glyph glyph-name="igrave" unicode="&#xec;" horiz-adv-x="316" 
d="M259 0h-202v553h202v-553zM205 766q18 -22 41.5 -49t47 -52.5t38.5 -44.5v-14h-134l-47.5 32.5t-59.5 41t-59 42t-47 34.5v10h220z" />
    <glyph glyph-name="iacute" unicode="&#xed;" horiz-adv-x="316" 
d="M259 0h-202v553h202v-553zM411 756q-18 -14 -46 -34.5t-59 -42t-59.5 -41t-48.5 -32.5h-134v14q17 19 41 44.5t48 52.5t40 49h218v-10z" />
    <glyph glyph-name="icircumflex" unicode="&#xee;" horiz-adv-x="316" 
d="M259 0h-202v553h202v-553zM254 766q16 -23 37.5 -50.5t43 -53t36.5 -42.5v-14h-129q-25 15 -42 33t-42 40q-25 -22 -40 -39t-40 -34h-133v14q18 18 40 43.5t43.5 52.5t35.5 50h190z" />
    <glyph glyph-name="idieresis" unicode="&#xef;" horiz-adv-x="316" 
d="M259 0h-202v553h202v-553zM-49 690q0 40 24.5 58.5t61.5 18.5q35 0 61 -18.5t26 -58.5q0 -39 -26 -57.5t-61 -18.5q-37 0 -61.5 18.5t-24.5 57.5zM190 690q0 40 25 58.5t62 18.5q35 0 61 -18.5t26 -58.5q0 -39 -26 -57.5t-61 -18.5q-37 0 -62 18.5t-25 57.5z" />
    <glyph glyph-name="eth" unicode="&#xf0;" horiz-adv-x="614" 
d="M225 768q39 -16 69 -32t55 -34l92 67l56 -89l-60 -47q44 -46 73 -97t44 -113t15 -140q0 -90 -33 -156t-93 -101.5t-141 -35.5q-76 0 -135.5 29t-93.5 85.5t-34 138.5q0 83 29.5 139t79 84.5t110.5 28.5q30 0 51 -4.5t34 -13.5t19 -23l4 2q-12 27 -23 52t-30 49l-72 -58
l-57 90l57 45q-13 10 -32 22t-36 23zM304 358q-22 0 -35 -12t-18 -37t-5 -65q0 -35 5.5 -62t18 -41.5t34.5 -14.5q34 0 46.5 35t12.5 105q0 17 -3.5 33.5t-11 29.5t-18.5 21t-26 8z" />
    <glyph glyph-name="ntilde" unicode="&#xf1;" horiz-adv-x="637" 
d="M400 563q80 0 131.5 -48t51.5 -155v-360h-202v302q0 55 -12 83t-40 28q-43 0 -57 -44t-14 -127v-242h-202v553h151l28 -73h6q17 26 39 44.5t51.5 28.5t68.5 10zM513 772q-6 -90 -34 -128.5t-72 -38.5q-22 0 -44.5 7t-44 16.5t-41.5 16.5t-38 7q-5 0 -12.5 -8t-12.5 -40
h-91q3 46 11 78t21 51.5t32.5 28.5t45.5 9q17 0 37.5 -7t42.5 -16.5t43 -16.5t39 -7q5 0 13 8.5t12 39.5h93z" />
    <glyph glyph-name="ograve" unicode="&#xf2;" horiz-adv-x="608" 
d="M569 278q0 -69 -18 -123t-52.5 -90.5t-84 -55.5t-111.5 -19q-58 0 -106.5 19t-84 55.5t-55 90.5t-19.5 123q0 92 32 155.5t92.5 96.5t143.5 33q76 0 135.5 -33t93.5 -96.5t34 -155.5zM243 278q0 -47 6 -80t19.5 -49.5t36.5 -16.5t35.5 16.5t18 49.5t5.5 80t-5.5 79
t-18.5 48t-36 16q-33 0 -47 -36t-14 -107zM352 766q18 -22 41.5 -49t47 -52.5t38.5 -44.5v-14h-134l-47.5 32.5t-59.5 41t-59 42t-47 34.5v10h220z" />
    <glyph glyph-name="oacute" unicode="&#xf3;" horiz-adv-x="608" 
d="M569 278q0 -69 -18 -123t-52.5 -90.5t-84 -55.5t-111.5 -19q-58 0 -106.5 19t-84 55.5t-55 90.5t-19.5 123q0 92 32 155.5t92.5 96.5t143.5 33q76 0 135.5 -33t93.5 -96.5t34 -155.5zM243 278q0 -47 6 -80t19.5 -49.5t36.5 -16.5t35.5 16.5t18 49.5t5.5 80t-5.5 79
t-18.5 48t-36 16q-33 0 -47 -36t-14 -107zM558 756q-18 -14 -46 -34.5t-59 -42t-59.5 -41t-48.5 -32.5h-134v14q17 19 41 44.5t48 52.5t40 49h218v-10z" />
    <glyph glyph-name="ocircumflex" unicode="&#xf4;" horiz-adv-x="608" 
d="M569 278q0 -69 -18 -123t-52.5 -90.5t-84 -55.5t-111.5 -19q-58 0 -106.5 19t-84 55.5t-55 90.5t-19.5 123q0 92 32 155.5t92.5 96.5t143.5 33q76 0 135.5 -33t93.5 -96.5t34 -155.5zM243 278q0 -47 6 -80t19.5 -49.5t36.5 -16.5t35.5 16.5t18 49.5t5.5 80t-5.5 79
t-18.5 48t-36 16q-33 0 -47 -36t-14 -107zM401 766q16 -23 37.5 -50.5t43 -53t36.5 -42.5v-14h-129q-25 15 -42 33t-42 40q-25 -22 -40 -39t-40 -34h-133v14q18 18 40 43.5t43.5 52.5t35.5 50h190z" />
    <glyph glyph-name="otilde" unicode="&#xf5;" horiz-adv-x="608" 
d="M569 278q0 -69 -18 -123t-52.5 -90.5t-84 -55.5t-111.5 -19q-58 0 -106.5 19t-84 55.5t-55 90.5t-19.5 123q0 92 32 155.5t92.5 96.5t143.5 33q76 0 135.5 -33t93.5 -96.5t34 -155.5zM243 278q0 -47 6 -80t19.5 -49.5t36.5 -16.5t35.5 16.5t18 49.5t5.5 80t-5.5 79
t-18.5 48t-36 16q-33 0 -47 -36t-14 -107zM500 772q-6 -90 -34 -128.5t-72 -38.5q-22 0 -44.5 7t-44 16.5t-41.5 16.5t-38 7q-5 0 -12.5 -8t-12.5 -40h-91q3 46 11 78t21 51.5t32.5 28.5t45.5 9q17 0 37.5 -7t42.5 -16.5t43 -16.5t39 -7q5 0 13 8.5t12 39.5h93z" />
    <glyph glyph-name="odieresis" unicode="&#xf6;" horiz-adv-x="608" 
d="M569 278q0 -69 -18 -123t-52.5 -90.5t-84 -55.5t-111.5 -19q-58 0 -106.5 19t-84 55.5t-55 90.5t-19.5 123q0 92 32 155.5t92.5 96.5t143.5 33q76 0 135.5 -33t93.5 -96.5t34 -155.5zM243 278q0 -47 6 -80t19.5 -49.5t36.5 -16.5t35.5 16.5t18 49.5t5.5 80t-5.5 79
t-18.5 48t-36 16q-33 0 -47 -36t-14 -107zM98 690q0 40 24.5 58.5t61.5 18.5q35 0 61 -18.5t26 -58.5q0 -39 -26 -57.5t-61 -18.5q-37 0 -61.5 18.5t-24.5 57.5zM337 690q0 40 25 58.5t62 18.5q35 0 61 -18.5t26 -58.5q0 -39 -26 -57.5t-61 -18.5q-37 0 -62 18.5t-25 57.5z
" />
    <glyph glyph-name="divide" unicode="&#xf7;" horiz-adv-x="570" 
d="M49 287v131h471v-131h-471zM284 79q-31 0 -53.5 20t-22.5 63q0 47 22.5 65t53.5 18q30 0 53.5 -18t23.5 -65q0 -43 -23.5 -63t-53.5 -20zM284 460q-31 0 -53.5 20t-22.5 63q0 47 22.5 65t53.5 18q30 0 53.5 -18t23.5 -65q0 -43 -23.5 -63t-53.5 -20z" />
    <glyph glyph-name="oslash" unicode="&#xf8;" horiz-adv-x="649" 
d="M610 278q0 -92 -34 -156.5t-98.5 -98t-154.5 -33.5q-27 0 -53.5 4.5t-50.5 12.5l-43 -64l-82 52l40 60q-45 37 -70.5 93t-25.5 130q0 137 76.5 211t211.5 74q28 0 54.5 -5t49.5 -14l37 54l81 -51l-34 -51q44 -36 70 -91t26 -127zM226 278q0 -21 0.5 -38.5t3.5 -33.5
l126 219q-8 3 -15.5 4.5t-16.5 1.5q-55 0 -76.5 -38.5t-21.5 -114.5zM422 278q0 18 -1 34.5t-3 29.5l-123 -216q7 -2 14.5 -3t15.5 -1q39 0 60 18t29 52.5t8 85.5z" />
    <glyph glyph-name="ugrave" unicode="&#xf9;" horiz-adv-x="637" 
d="M581 553v-553h-151l-25 69h-12q-16 -28 -40.5 -45.5t-54 -25.5t-61.5 -8q-49 0 -90 21t-66 66t-25 116v360h202v-302q0 -54 11 -82t39 -28q29 0 44.5 19.5t21 57.5t5.5 93v242h202zM365 766q18 -22 41.5 -49t47 -52.5t38.5 -44.5v-14h-134l-47.5 32.5t-59.5 41t-59 42
t-47 34.5v10h220z" />
    <glyph glyph-name="uacute" unicode="&#xfa;" horiz-adv-x="637" 
d="M581 553v-553h-151l-25 69h-12q-16 -28 -40.5 -45.5t-54 -25.5t-61.5 -8q-49 0 -90 21t-66 66t-25 116v360h202v-302q0 -54 11 -82t39 -28q29 0 44.5 19.5t21 57.5t5.5 93v242h202zM571 756q-18 -14 -46 -34.5t-59 -42t-59.5 -41t-48.5 -32.5h-134v14q17 19 41 44.5
t48 52.5t40 49h218v-10z" />
    <glyph glyph-name="ucircumflex" unicode="&#xfb;" horiz-adv-x="637" 
d="M581 553v-553h-151l-25 69h-12q-16 -28 -40.5 -45.5t-54 -25.5t-61.5 -8q-49 0 -90 21t-66 66t-25 116v360h202v-302q0 -54 11 -82t39 -28q29 0 44.5 19.5t21 57.5t5.5 93v242h202zM414 766q16 -23 37.5 -50.5t43 -53t36.5 -42.5v-14h-129q-25 15 -42 33t-42 40
q-25 -22 -40 -39t-40 -34h-133v14q18 18 40 43.5t43.5 52.5t35.5 50h190z" />
    <glyph glyph-name="udieresis" unicode="&#xfc;" horiz-adv-x="637" 
d="M581 553v-553h-151l-25 69h-12q-16 -28 -40.5 -45.5t-54 -25.5t-61.5 -8q-49 0 -90 21t-66 66t-25 116v360h202v-302q0 -54 11 -82t39 -28q29 0 44.5 19.5t21 57.5t5.5 93v242h202zM111 690q0 40 24.5 58.5t61.5 18.5q35 0 61 -18.5t26 -58.5q0 -39 -26 -57.5t-61 -18.5
q-37 0 -61.5 18.5t-24.5 57.5zM350 690q0 40 25 58.5t62 18.5q35 0 61 -18.5t26 -58.5q0 -39 -26 -57.5t-61 -18.5q-37 0 -62 18.5t-25 57.5z" />
    <glyph glyph-name="yacute" unicode="&#xfd;" horiz-adv-x="595" 
d="M-1 553h209l81 -317q2 -7 3.5 -17t2 -21t0.5 -22h5q2 18 3 34t4 26l86 317h203l-203 -587q-23 -68 -54 -114t-80.5 -69t-128.5 -23q-25 0 -42.5 2.5t-31.5 5.5v150q10 -2 24.5 -4t30.5 -2q30 0 47.5 11t27 30.5t15.5 42.5l3 12zM551 756q-18 -14 -46 -34.5t-59 -42
t-59.5 -41t-48.5 -32.5h-134v14q17 19 41 44.5t48 52.5t40 49h218v-10z" />
    <glyph glyph-name="thorn" unicode="&#xfe;" horiz-adv-x="610" 
d="M571 278q0 -94 -25 -158.5t-68 -97t-97 -32.5q-29 0 -52 9t-40.5 23.5t-30.5 30.5h-7q2 -10 3.5 -23.5t2.5 -26.5t1 -24v-219h-202v1000h202v-168q0 -40 -3.5 -67.5t-6.5 -42.5h10q11 23 30 41t45 29t59 11q78 0 128.5 -72.5t50.5 -212.5zM366 280q0 65 -10.5 99
t-42.5 34q-30 0 -42.5 -30t-12.5 -90v-14q0 -66 13 -100.5t45 -34.5q21 0 31.5 15.5t14.5 46t4 74.5z" />
    <glyph glyph-name="ydieresis" unicode="&#xff;" horiz-adv-x="595" 
d="M-1 553h209l81 -317q2 -7 3.5 -17t2 -21t0.5 -22h5q2 18 3 34t4 26l86 317h203l-203 -587q-23 -68 -54 -114t-80.5 -69t-128.5 -23q-25 0 -42.5 2.5t-31.5 5.5v150q10 -2 24.5 -4t30.5 -2q30 0 47.5 11t27 30.5t15.5 42.5l3 12zM91 690q0 40 24.5 58.5t61.5 18.5
q35 0 61 -18.5t26 -58.5q0 -39 -26 -57.5t-61 -18.5q-37 0 -61.5 18.5t-24.5 57.5zM330 690q0 40 25 58.5t62 18.5q35 0 61 -18.5t26 -58.5q0 -39 -26 -57.5t-61 -18.5q-37 0 -62 18.5t-25 57.5z" />
    <glyph glyph-name="Amacron" unicode="&#x100;" horiz-adv-x="701" 
d="M478 0l-24 134h-203l-26 -134h-225l209 717h280l212 -717h-223zM387 411q-5 24 -12 54t-13.5 62.5t-10.5 61.5q-6 -44 -16 -92.5t-18 -84.5l-28 -120h126zM525 882v-115h-346v115h346z" />
    <glyph glyph-name="amacron" unicode="&#x101;" horiz-adv-x="596" 
d="M334 563q97 0 152.5 -52t55.5 -148v-363h-139l-39 73h-4q-22 -29 -45 -47.5t-53 -27t-74 -8.5t-80 19.5t-56.5 59t-20.5 100.5q0 89 58 132.5t165 47.5l85 3v8q0 37 -14.5 52.5t-38.5 15.5q-28 0 -67 -11.5t-78 -29.5l-55 126q48 25 108.5 37.5t139.5 12.5zM307 245
q-39 -2 -55.5 -18.5t-16.5 -46.5q0 -28 12 -41.5t31 -13.5q25 0 44 22t19 57v43zM473 721v-115h-346v115h346z" />
    <glyph glyph-name="Abreve" unicode="&#x102;" horiz-adv-x="701" 
d="M478 0l-24 134h-203l-26 -134h-225l209 717h280l212 -717h-223zM387 411q-5 24 -12 54t-13.5 62.5t-10.5 61.5q-6 -44 -16 -92.5t-18 -84.5l-28 -120h126zM539 948q-3 -54 -25.5 -95t-63.5 -63.5t-101 -22.5q-94 0 -138.5 48.5t-48.5 132.5h107q9 -28 17.5 -41.5t23 -18
t39.5 -4.5q29 0 47 12.5t31 51.5h112z" />
    <glyph glyph-name="abreve" unicode="&#x103;" horiz-adv-x="596" 
d="M334 563q97 0 152.5 -52t55.5 -148v-363h-139l-39 73h-4q-22 -29 -45 -47.5t-53 -27t-74 -8.5t-80 19.5t-56.5 59t-20.5 100.5q0 89 58 132.5t165 47.5l85 3v8q0 37 -14.5 52.5t-38.5 15.5q-28 0 -67 -11.5t-78 -29.5l-55 126q48 25 108.5 37.5t139.5 12.5zM307 245
q-39 -2 -55.5 -18.5t-16.5 -46.5q0 -28 12 -41.5t31 -13.5q25 0 44 22t19 57v43zM487 787q-3 -54 -25.5 -95t-63.5 -63.5t-101 -22.5q-94 0 -138.5 48.5t-48.5 132.5h107q9 -28 17.5 -41.5t23 -18t39.5 -4.5q29 0 47 12.5t31 51.5h112z" />
    <glyph glyph-name="Aogonek" unicode="&#x104;" horiz-adv-x="701" 
d="M478 0l-24 134h-203l-26 -134h-225l209 717h280l212 -717h-223zM387 411q-5 24 -12 54t-13.5 62.5t-10.5 61.5q-6 -44 -16 -92.5t-18 -84.5l-28 -120h126zM613 -97q0 -18 9.5 -25.5t25.5 -7.5q11 0 28 3.5t27 7.5v-108q-16 -5 -36.5 -9t-47.5 -4q-36 0 -66.5 13.5t-49 39
t-18.5 60.5q0 23 7 46.5t30 49.5t72 56l76 -25q-31 -32 -44 -53t-13 -44z" />
    <glyph glyph-name="aogonek" unicode="&#x105;" horiz-adv-x="596" 
d="M334 563q97 0 152.5 -52t55.5 -148v-363h-139l-39 73h-4q-22 -29 -45 -47.5t-53 -27t-74 -8.5t-80 19.5t-56.5 59t-20.5 100.5q0 89 58 132.5t165 47.5l85 3v8q0 37 -14.5 52.5t-38.5 15.5q-28 0 -67 -11.5t-78 -29.5l-55 126q48 25 108.5 37.5t139.5 12.5zM307 245
q-39 -2 -55.5 -18.5t-16.5 -46.5q0 -28 12 -41.5t31 -13.5q25 0 44 22t19 57v43zM466 -97q0 -18 9.5 -25.5t25.5 -7.5q11 0 28 3.5t27 7.5v-108q-16 -5 -36.5 -9t-47.5 -4q-36 0 -66.5 13.5t-49 39t-18.5 60.5q0 23 7 46.5t30 49.5t72 56l76 -25q-31 -32 -44 -53t-13 -44z
" />
    <glyph glyph-name="Cacute" unicode="&#x106;" horiz-adv-x="616" 
d="M382 566q-32 0 -56.5 -14.5t-41 -42t-24.5 -66.5t-8 -89q0 -67 16.5 -113t49 -69.5t80.5 -23.5q44 0 83.5 13t76.5 32v-163q-44 -21 -93 -30.5t-100 -9.5q-113 0 -184 46t-104 128.5t-33 190.5q0 81 21.5 148.5t64 117t104 76.5t141.5 27q48 0 107 -13t107 -37l-61 -152
q-34 19 -68.5 31.5t-77.5 12.5zM610 917q-18 -14 -46 -34.5t-59 -42t-59.5 -41t-48.5 -32.5h-134v14q17 19 41 44.5t48 52.5t40 49h218v-10z" />
    <glyph glyph-name="cacute" unicode="&#x107;" horiz-adv-x="520" 
d="M309 -10q-80 0 -141.5 30t-95.5 93t-34 161q0 101 37.5 164.5t102.5 94t146 30.5q44 0 89.5 -11t82.5 -31l-53 -139q-27 15 -50.5 23t-48.5 8q-27 0 -50 -15t-37 -45.5t-14 -77.5q0 -48 13.5 -77t37 -42.5t51.5 -13.5q32 0 68.5 13t67.5 36v-152q-33 -22 -76 -35.5
t-96 -13.5zM532 756q-18 -14 -46 -34.5t-59 -42t-59.5 -41t-48.5 -32.5h-134v14q17 19 41 44.5t48 52.5t40 49h218v-10z" />
    <glyph glyph-name="Ccircumflex" unicode="&#x108;" horiz-adv-x="616" 
d="M382 566q-32 0 -56.5 -14.5t-41 -42t-24.5 -66.5t-8 -89q0 -67 16.5 -113t49 -69.5t80.5 -23.5q44 0 83.5 13t76.5 32v-163q-44 -21 -93 -30.5t-100 -9.5q-113 0 -184 46t-104 128.5t-33 190.5q0 81 21.5 148.5t64 117t104 76.5t141.5 27q48 0 107 -13t107 -37l-61 -152
q-34 19 -68.5 31.5t-77.5 12.5zM453 927q16 -23 37.5 -50.5t43 -53t36.5 -42.5v-14h-129q-25 15 -42 33t-42 40q-25 -22 -40 -39t-40 -34h-133v14q18 18 40 43.5t43.5 52.5t35.5 50h190z" />
    <glyph glyph-name="ccircumflex" unicode="&#x109;" horiz-adv-x="520" 
d="M309 -10q-80 0 -141.5 30t-95.5 93t-34 161q0 101 37.5 164.5t102.5 94t146 30.5q44 0 89.5 -11t82.5 -31l-53 -139q-27 15 -50.5 23t-48.5 8q-27 0 -50 -15t-37 -45.5t-14 -77.5q0 -48 13.5 -77t37 -42.5t51.5 -13.5q32 0 68.5 13t67.5 36v-152q-33 -22 -76 -35.5
t-96 -13.5zM375 766q16 -23 37.5 -50.5t43 -53t36.5 -42.5v-14h-129q-25 15 -42 33t-42 40q-25 -22 -40 -39t-40 -34h-133v14q18 18 40 43.5t43.5 52.5t35.5 50h190z" />
    <glyph glyph-name="Cdot" unicode="&#x10a;" horiz-adv-x="616" 
d="M382 566q-32 0 -56.5 -14.5t-41 -42t-24.5 -66.5t-8 -89q0 -67 16.5 -113t49 -69.5t80.5 -23.5q44 0 83.5 13t76.5 32v-163q-44 -21 -93 -30.5t-100 -9.5q-113 0 -184 46t-104 128.5t-33 190.5q0 81 21.5 148.5t64 117t104 76.5t141.5 27q48 0 107 -13t107 -37l-61 -152
q-34 19 -68.5 31.5t-77.5 12.5zM357 937q43 0 74.5 -17t31.5 -68q0 -49 -31.5 -66.5t-74.5 -17.5q-44 0 -75 17.5t-31 66.5q0 51 31 68t75 17z" />
    <glyph glyph-name="cdot" unicode="&#x10b;" horiz-adv-x="520" 
d="M309 -10q-80 0 -141.5 30t-95.5 93t-34 161q0 101 37.5 164.5t102.5 94t146 30.5q44 0 89.5 -11t82.5 -31l-53 -139q-27 15 -50.5 23t-48.5 8q-27 0 -50 -15t-37 -45.5t-14 -77.5q0 -48 13.5 -77t37 -42.5t51.5 -13.5q32 0 68.5 13t67.5 36v-152q-33 -22 -76 -35.5
t-96 -13.5zM279 776q43 0 74.5 -17t31.5 -68q0 -49 -31.5 -66.5t-74.5 -17.5q-44 0 -75 17.5t-31 66.5q0 51 31 68t75 17z" />
    <glyph glyph-name="Ccaron" unicode="&#x10c;" horiz-adv-x="616" 
d="M382 566q-32 0 -56.5 -14.5t-41 -42t-24.5 -66.5t-8 -89q0 -67 16.5 -113t49 -69.5t80.5 -23.5q44 0 83.5 13t76.5 32v-163q-44 -21 -93 -30.5t-100 -9.5q-113 0 -184 46t-104 128.5t-33 190.5q0 81 21.5 148.5t64 117t104 76.5t141.5 27q48 0 107 -13t107 -37l-61 -152
q-34 19 -68.5 31.5t-77.5 12.5zM570 913q-15 -17 -36.5 -42.5t-43 -53t-37.5 -50.5h-190q-14 23 -35.5 50t-43.5 52.5t-40 43.5v14h133q25 -16 40 -33t40 -40q25 23 42 40.5t42 32.5h129v-14z" />
    <glyph glyph-name="ccaron" unicode="&#x10d;" horiz-adv-x="520" 
d="M309 -10q-80 0 -141.5 30t-95.5 93t-34 161q0 101 37.5 164.5t102.5 94t146 30.5q44 0 89.5 -11t82.5 -31l-53 -139q-27 15 -50.5 23t-48.5 8q-27 0 -50 -15t-37 -45.5t-14 -77.5q0 -48 13.5 -77t37 -42.5t51.5 -13.5q32 0 68.5 13t67.5 36v-152q-33 -22 -76 -35.5
t-96 -13.5zM492 752q-15 -17 -36.5 -42.5t-43 -53t-37.5 -50.5h-190q-14 23 -35.5 50t-43.5 52.5t-40 43.5v14h133q25 -16 40 -33t40 -40q25 23 42 40.5t42 32.5h129v-14z" />
    <glyph glyph-name="Dcaron" unicode="&#x10e;" horiz-adv-x="687" 
d="M643 372q0 -124 -43.5 -207t-121.5 -124t-180 -41h-232v714h244q110 0 184 -39.5t111.5 -115.5t37.5 -187zM432 365q0 65 -13 108t-40.5 64t-69.5 21h-39v-400h28q71 0 102.5 51t31.5 156zM557 913q-15 -17 -36.5 -42.5t-43 -53t-37.5 -50.5h-190q-14 23 -35.5 50
t-43.5 52.5t-40 43.5v14h133q25 -16 40 -33t40 -40q25 23 42 40.5t42 32.5h129v-14z" />
    <glyph glyph-name="dcaron" unicode="&#x10f;" horiz-adv-x="643" 
d="M796 749q-15 -24 -27.5 -47t-25.5 -47.5t-32 -54.5h-121v14q3 15 7 33.5t7.5 38t6.5 39t4 35.5h181v-11zM217 -10q-77 0 -128 73t-51 213q0 142 52.5 214.5t134.5 72.5q34 0 58 -10.5t41.5 -29t30.5 -41.5h3q-4 21 -5.5 58t-1.5 72v148h203v-760h-151l-45 70h-7
q-12 -22 -30 -40t-43.5 -29t-60.5 -11zM304 141q35 0 50 29t15 89v15q0 65 -14 100t-53 35q-25 0 -42.5 -33t-17.5 -103q0 -69 18 -100.5t44 -31.5z" />
    <glyph glyph-name="Dcroat" unicode="&#x110;" horiz-adv-x="687" 
d="M310 714q110 0 184 -39.5t111.5 -115.5t37.5 -187q0 -124 -44 -207t-121.5 -124t-179.5 -41h-232v275h-56v156h56v283h244zM309 558h-40v-127h90v-156h-90v-117h30q71 0 102 51t31 156q0 98 -29 145.5t-94 47.5z" />
    <glyph glyph-name="dcroat" unicode="&#x111;" horiz-adv-x="631" 
d="M205 -10q-71 0 -119 67t-48 194q0 135 54.5 199t137.5 64q34 0 59 -10.5t43.5 -28.5t31.5 -41h3q-4 12 -10 49t-6 82v5h-85v118h85v72h203v-72h72v-118h-72v-570h-169l-48 70h-7q-12 -22 -29.5 -40t-40.5 -29t-55 -11zM319 141q28 0 39 24t11 73v12q0 53 -18.5 81.5
t-35.5 28.5q-18 0 -32.5 -24.5t-14.5 -86.5q0 -42 11 -75t40 -33z" />
    <glyph glyph-name="Emacron" unicode="&#x112;" horiz-adv-x="510" 
d="M471 0h-405v714h405v-155h-201v-112h186v-155h-186v-135h201v-157zM440 882v-115h-346v115h346z" />
    <glyph glyph-name="emacron" unicode="&#x113;" horiz-adv-x="595" 
d="M303 563q78 0 135 -28t87.5 -84t30.5 -141v-85h-314q2 -43 27.5 -71t77.5 -28q49 0 89.5 10t83.5 32v-137q-37 -21 -83.5 -31t-119.5 -10q-79 0 -142 29.5t-100 92.5t-37 161q0 100 33.5 164t93 95t138.5 31zM312 433q-26 0 -44.5 -21t-21.5 -67h130q0 25 -8 44.5
t-22 31.5t-34 12zM471 721v-115h-346v115h346z" />
    <glyph glyph-name="Ebreve" unicode="&#x114;" horiz-adv-x="510" 
d="M471 0h-405v714h405v-155h-201v-112h186v-155h-186v-135h201v-157zM454 948q-3 -54 -25.5 -95t-63.5 -63.5t-101 -22.5q-94 0 -138.5 48.5t-48.5 132.5h107q9 -28 17.5 -41.5t23 -18t39.5 -4.5q29 0 47 12.5t31 51.5h112z" />
    <glyph glyph-name="ebreve" unicode="&#x115;" horiz-adv-x="595" 
d="M303 563q78 0 135 -28t87.5 -84t30.5 -141v-85h-314q2 -43 27.5 -71t77.5 -28q49 0 89.5 10t83.5 32v-137q-37 -21 -83.5 -31t-119.5 -10q-79 0 -142 29.5t-100 92.5t-37 161q0 100 33.5 164t93 95t138.5 31zM312 433q-26 0 -44.5 -21t-21.5 -67h130q0 25 -8 44.5
t-22 31.5t-34 12zM485 787q-3 -54 -25.5 -95t-63.5 -63.5t-101 -22.5q-94 0 -138.5 48.5t-48.5 132.5h107q9 -28 17.5 -41.5t23 -18t39.5 -4.5q29 0 47 12.5t31 51.5h112z" />
    <glyph glyph-name="Edotaccent" unicode="&#x116;" horiz-adv-x="510" 
d="M471 0h-405v714h405v-155h-201v-112h186v-155h-186v-135h201v-157zM266 937q43 0 74.5 -17t31.5 -68q0 -49 -31.5 -66.5t-74.5 -17.5q-44 0 -75 17.5t-31 66.5q0 51 31 68t75 17z" />
    <glyph glyph-name="edotaccent" unicode="&#x117;" horiz-adv-x="595" 
d="M303 563q78 0 135 -28t87.5 -84t30.5 -141v-85h-314q2 -43 27.5 -71t77.5 -28q49 0 89.5 10t83.5 32v-137q-37 -21 -83.5 -31t-119.5 -10q-79 0 -142 29.5t-100 92.5t-37 161q0 100 33.5 164t93 95t138.5 31zM312 433q-26 0 -44.5 -21t-21.5 -67h130q0 25 -8 44.5
t-22 31.5t-34 12zM297 776q43 0 74.5 -17t31.5 -68q0 -49 -31.5 -66.5t-74.5 -17.5q-44 0 -75 17.5t-31 66.5q0 51 31 68t75 17z" />
    <glyph glyph-name="Eogonek" unicode="&#x118;" horiz-adv-x="510" 
d="M471 0h-405v714h405v-155h-201v-112h186v-155h-186v-135h201v-157zM407 -97q0 -18 9.5 -25.5t25.5 -7.5q11 0 28 3.5t27 7.5v-108q-16 -5 -36.5 -9t-47.5 -4q-36 0 -66.5 13.5t-49 39t-18.5 60.5q0 23 7 46.5t30 49.5t72 56l76 -25q-31 -32 -44 -53t-13 -44z" />
    <glyph glyph-name="eogonek" unicode="&#x119;" horiz-adv-x="595" 
d="M425 -91q0 -19 12 -29t29 -10q15 0 30 3.5t25 7.5v-108q-16 -5 -37 -9t-48 -4q-57 0 -96 30.5t-39 82.5q0 23 10 46.5t35 49.5t69 56l103 6q-40 -34 -60 -56t-26.5 -36.5t-6.5 -29.5zM303 563q78 0 135 -28t87.5 -84t30.5 -141v-85h-314q2 -43 27.5 -71t77.5 -28
q49 0 89.5 10t83.5 32v-137q-37 -21 -83.5 -31t-119.5 -10q-79 0 -142 29.5t-100 92.5t-37 161q0 100 33.5 164t93 95t138.5 31zM312 433q-26 0 -44.5 -21t-21.5 -67h130q0 25 -8 44.5t-22 31.5t-34 12z" />
    <glyph glyph-name="Ecaron" unicode="&#x11a;" horiz-adv-x="510" 
d="M471 0h-405v714h405v-155h-201v-112h186v-155h-186v-135h201v-157zM479 913q-15 -17 -36.5 -42.5t-43 -53t-37.5 -50.5h-190q-14 23 -35.5 50t-43.5 52.5t-40 43.5v14h133q25 -16 40 -33t40 -40q25 23 42 40.5t42 32.5h129v-14z" />
    <glyph glyph-name="ecaron" unicode="&#x11b;" horiz-adv-x="595" 
d="M303 563q78 0 135 -28t87.5 -84t30.5 -141v-85h-314q2 -43 27.5 -71t77.5 -28q49 0 89.5 10t83.5 32v-137q-37 -21 -83.5 -31t-119.5 -10q-79 0 -142 29.5t-100 92.5t-37 161q0 100 33.5 164t93 95t138.5 31zM312 433q-26 0 -44.5 -21t-21.5 -67h130q0 25 -8 44.5
t-22 31.5t-34 12zM510 752q-15 -17 -36.5 -42.5t-43 -53t-37.5 -50.5h-190q-14 23 -35.5 50t-43.5 52.5t-40 43.5v14h133q25 -16 40 -33t40 -40q25 23 42 40.5t42 32.5h129v-14z" />
    <glyph glyph-name="Gcircumflex" unicode="&#x11c;" horiz-adv-x="704" 
d="M344 418h302v-385q-52 -19 -124.5 -31t-146.5 -12q-95 0 -170 40t-118 122t-43 207q0 112 40 194t119 126.5t195 44.5q68 0 127 -12.5t100 -32.5l-63 -151q-39 19 -78 28.5t-84 9.5q-59 0 -91 -29t-43.5 -77t-11.5 -106q0 -66 17.5 -112t49 -69.5t72.5 -23.5q6 0 19.5 1
t27 3t19.5 4v112h-115v149zM473 927q16 -23 37.5 -50.5t43 -53t36.5 -42.5v-14h-129q-25 15 -42 33t-42 40q-25 -22 -40 -39t-40 -34h-133v14q18 18 40 43.5t43.5 52.5t35.5 50h190z" />
    <glyph glyph-name="gcircumflex" unicode="&#x11d;" horiz-adv-x="610" 
d="M222 563q59 0 90.5 -22.5t47.5 -55.5h4l14 68h176v-554q0 -78 -31 -131t-94.5 -80.5t-163.5 -27.5q-67 0 -116 7t-93 25v159q32 -14 58 -23.5t56 -14t74 -4.5q55 0 81.5 21t26.5 61v10q0 13 1.5 31t5.5 38h-7q-13 -33 -43.5 -56.5t-88.5 -23.5q-79 0 -130.5 73t-51.5 213
q0 94 24 157.5t66 96.5t94 33zM303 415q-20 0 -33.5 -16t-20 -47.5t-6.5 -78.5q0 -72 15.5 -103.5t47.5 -31.5q19 0 31.5 7.5t19.5 22t9.5 36.5t2.5 52v23q0 43 -4.5 73.5t-18.5 46.5t-43 16zM391 766q16 -23 37.5 -50.5t43 -53t36.5 -42.5v-14h-129q-25 15 -42 33t-42 40
q-25 -22 -40 -39t-40 -34h-133v14q18 18 40 43.5t43.5 52.5t35.5 50h190z" />
    <glyph glyph-name="Gbreve" unicode="&#x11e;" horiz-adv-x="704" 
d="M344 418h302v-385q-52 -19 -124.5 -31t-146.5 -12q-95 0 -170 40t-118 122t-43 207q0 112 40 194t119 126.5t195 44.5q68 0 127 -12.5t100 -32.5l-63 -151q-39 19 -78 28.5t-84 9.5q-59 0 -91 -29t-43.5 -77t-11.5 -106q0 -66 17.5 -112t49 -69.5t72.5 -23.5q6 0 19.5 1
t27 3t19.5 4v112h-115v149zM565 948q-3 -54 -25.5 -95t-63.5 -63.5t-101 -22.5q-94 0 -138.5 48.5t-48.5 132.5h107q9 -28 17.5 -41.5t23 -18t39.5 -4.5q29 0 47 12.5t31 51.5h112z" />
    <glyph glyph-name="gbreve" unicode="&#x11f;" horiz-adv-x="610" 
d="M222 563q59 0 90.5 -22.5t47.5 -55.5h4l14 68h176v-554q0 -78 -31 -131t-94.5 -80.5t-163.5 -27.5q-67 0 -116 7t-93 25v159q32 -14 58 -23.5t56 -14t74 -4.5q55 0 81.5 21t26.5 61v10q0 13 1.5 31t5.5 38h-7q-13 -33 -43.5 -56.5t-88.5 -23.5q-79 0 -130.5 73t-51.5 213
q0 94 24 157.5t66 96.5t94 33zM303 415q-20 0 -33.5 -16t-20 -47.5t-6.5 -78.5q0 -72 15.5 -103.5t47.5 -31.5q19 0 31.5 7.5t19.5 22t9.5 36.5t2.5 52v23q0 43 -4.5 73.5t-18.5 46.5t-43 16zM483 787q-3 -54 -25.5 -95t-63.5 -63.5t-101 -22.5q-94 0 -138.5 48.5
t-48.5 132.5h107q9 -28 17.5 -41.5t23 -18t39.5 -4.5q29 0 47 12.5t31 51.5h112z" />
    <glyph glyph-name="Gdot" unicode="&#x120;" horiz-adv-x="704" 
d="M344 418h302v-385q-52 -19 -124.5 -31t-146.5 -12q-95 0 -170 40t-118 122t-43 207q0 112 40 194t119 126.5t195 44.5q68 0 127 -12.5t100 -32.5l-63 -151q-39 19 -78 28.5t-84 9.5q-59 0 -91 -29t-43.5 -77t-11.5 -106q0 -66 17.5 -112t49 -69.5t72.5 -23.5q6 0 19.5 1
t27 3t19.5 4v112h-115v149zM377 937q43 0 74.5 -17t31.5 -68q0 -49 -31.5 -66.5t-74.5 -17.5q-44 0 -75 17.5t-31 66.5q0 51 31 68t75 17z" />
    <glyph glyph-name="gdot" unicode="&#x121;" horiz-adv-x="610" 
d="M222 563q59 0 90.5 -22.5t47.5 -55.5h4l14 68h176v-554q0 -78 -31 -131t-94.5 -80.5t-163.5 -27.5q-67 0 -116 7t-93 25v159q32 -14 58 -23.5t56 -14t74 -4.5q55 0 81.5 21t26.5 61v10q0 13 1.5 31t5.5 38h-7q-13 -33 -43.5 -56.5t-88.5 -23.5q-79 0 -130.5 73t-51.5 213
q0 94 24 157.5t66 96.5t94 33zM303 415q-20 0 -33.5 -16t-20 -47.5t-6.5 -78.5q0 -72 15.5 -103.5t47.5 -31.5q19 0 31.5 7.5t19.5 22t9.5 36.5t2.5 52v23q0 43 -4.5 73.5t-18.5 46.5t-43 16zM295 776q43 0 74.5 -17t31.5 -68q0 -49 -31.5 -66.5t-74.5 -17.5q-44 0 -75 17.5
t-31 66.5q0 51 31 68t75 17z" />
    <glyph glyph-name="uni0122" unicode="&#x122;" horiz-adv-x="704" 
d="M344 418h302v-385q-52 -19 -124.5 -31t-146.5 -12q-95 0 -170 40t-118 122t-43 207q0 112 40 194t119 126.5t195 44.5q68 0 127 -12.5t100 -32.5l-63 -151q-39 19 -78 28.5t-84 9.5q-59 0 -91 -29t-43.5 -77t-11.5 -106q0 -66 17.5 -112t49 -69.5t72.5 -23.5q6 0 19.5 1
t27 3t19.5 4v112h-115v149zM467 -72q-11 -27 -22 -50.5t-24 -47.5t-32 -51h-121v14q5 21 9.5 48t7 53t1.5 45h181v-11z" />
    <glyph glyph-name="uni0123" unicode="&#x123;" horiz-adv-x="643" 
d="M393 752q-3 -21 -6 -47t-5.5 -51.5t-4.5 -47.5h-183v11q10 26 21.5 49t25.5 47.5t32 52.5h120v-14zM222 563q59 0 90.5 -22.5t47.5 -55.5h4l14 68h176v-554q0 -78 -31 -131t-94.5 -80.5t-163.5 -27.5q-67 0 -116 7t-93 25v159q32 -14 58 -23.5t56 -14t74 -4.5
q55 0 81.5 21t26.5 61v10q0 13 1.5 31t5.5 38h-7q-13 -33 -43.5 -56.5t-88.5 -23.5q-79 0 -130.5 73t-51.5 213q0 94 24 157.5t66 96.5t94 33zM303 415q-20 0 -33.5 -16t-20 -47.5t-6.5 -78.5q0 -72 15.5 -103.5t47.5 -31.5q19 0 31.5 7.5t19.5 22t9.5 36.5t2.5 52v23
q0 43 -4.5 73.5t-18.5 46.5t-43 16z" />
    <glyph glyph-name="Hcircumflex" unicode="&#x124;" horiz-adv-x="722" 
d="M656 0h-206v291h-179v-291h-205v714h205v-265h179v265h206v-714zM457 927q16 -23 37.5 -50.5t43 -53t36.5 -42.5v-14h-129q-25 15 -42 33t-42 40q-25 -22 -40 -39t-40 -34h-133v14q18 18 40 43.5t43.5 52.5t35.5 50h190z" />
    <glyph glyph-name="hcircumflex" unicode="&#x125;" horiz-adv-x="637" 
d="M258 652q0 -61 -3 -103t-5 -64h9q17 29 37.5 46t46 24.5t55.5 7.5q49 0 91 -21t68 -65.5t26 -116.5v-360h-204v302q0 55 -12 83t-38 28q-27 0 -42.5 -20t-22 -57.5t-6.5 -92.5v-243h-202v760h202v-108zM255 973q16 -23 37.5 -50.5t43 -53t36.5 -42.5v-14h-129
q-25 15 -42 33t-42 40q-25 -22 -40 -39t-40 -34h-133v14q18 18 40 43.5t43.5 52.5t35.5 50h190z" />
    <glyph glyph-name="Hbar" unicode="&#x126;" horiz-adv-x="744" 
d="M77 0v521h-77v114h77v79h204v-79h181v79h205v-79h77v-114h-77v-521h-205v291h-181v-291h-204zM281 449h181v72h-181v-72z" />
    <glyph glyph-name="hbar" unicode="&#x127;" horiz-adv-x="651" 
d="M272 760v-72h86v-118h-87v-20q0 -23 -2.5 -57t-4.5 -57h12q17 28 37 45t45 25t56 8q50 0 91.5 -21t66.5 -65.5t25 -115.5v-312h-203v253q0 55 -12.5 83t-38.5 28t-42 -20t-22.5 -58t-6.5 -93v-193h-202v570h-71v118h71v72h202z" />
    <glyph glyph-name="Itilde" unicode="&#x128;" horiz-adv-x="440" 
d="M407 0h-374v110l85 34v427l-85 33v110h374v-110l-84 -33v-427l84 -34v-110zM415 933q-6 -90 -34 -128.5t-72 -38.5q-22 0 -44.5 7t-44 16.5t-41.5 16.5t-38 7q-5 0 -12.5 -8t-12.5 -40h-91q3 46 11 78t21 51.5t32.5 28.5t45.5 9q17 0 37.5 -7t42.5 -16.5t43 -16.5t39 -7
q5 0 13 8.5t12 39.5h93z" />
    <glyph glyph-name="itilde" unicode="&#x129;" horiz-adv-x="316" 
d="M259 0h-202v553h202v-553zM353 772q-6 -90 -34 -128.5t-72 -38.5q-22 0 -44.5 7t-44 16.5t-41.5 16.5t-38 7q-5 0 -12.5 -8t-12.5 -40h-91q3 46 11 78t21 51.5t32.5 28.5t45.5 9q17 0 37.5 -7t42.5 -16.5t43 -16.5t39 -7q5 0 13 8.5t12 39.5h93z" />
    <glyph glyph-name="Imacron" unicode="&#x12a;" horiz-adv-x="440" 
d="M407 0h-374v110l85 34v427l-85 33v110h374v-110l-84 -33v-427l84 -34v-110zM394 882v-115h-346v115h346z" />
    <glyph glyph-name="imacron" unicode="&#x12b;" horiz-adv-x="316" 
d="M259 0h-202v553h202v-553zM332 721v-115h-346v115h346z" />
    <glyph glyph-name="Ibreve" unicode="&#x12c;" horiz-adv-x="440" 
d="M407 0h-374v110l85 34v427l-85 33v110h374v-110l-84 -33v-427l84 -34v-110zM408 948q-3 -54 -25.5 -95t-63.5 -63.5t-101 -22.5q-94 0 -138.5 48.5t-48.5 132.5h107q9 -28 17.5 -41.5t23 -18t39.5 -4.5q29 0 47 12.5t31 51.5h112z" />
    <glyph glyph-name="ibreve" unicode="&#x12d;" horiz-adv-x="316" 
d="M259 0h-202v553h202v-553zM346 787q-3 -54 -25.5 -95t-63.5 -63.5t-101 -22.5q-94 0 -138.5 48.5t-48.5 132.5h107q9 -28 17.5 -41.5t23 -18t39.5 -4.5q29 0 47 12.5t31 51.5h112z" />
    <glyph glyph-name="Iogonek" unicode="&#x12e;" horiz-adv-x="440" 
d="M407 0h-374v110l85 34v427l-85 33v110h374v-110l-84 -33v-427l84 -34v-110zM320 -97q0 -18 9.5 -25.5t25.5 -7.5q11 0 28 3.5t27 7.5v-108q-16 -5 -36.5 -9t-47.5 -4q-36 0 -66.5 13.5t-49 39t-18.5 60.5q0 23 7 46.5t30 49.5t72 56l76 -25q-31 -32 -44 -53t-13 -44z" />
    <glyph glyph-name="iogonek" unicode="&#x12f;" horiz-adv-x="316" 
d="M259 553v-553h-202v553h202zM159 776q43 0 74.5 -17t31.5 -68q0 -49 -31.5 -66.5t-74.5 -17.5q-44 0 -75 17.5t-31 66.5q0 51 31 68t75 17zM174 -97q0 -18 9.5 -25.5t25.5 -7.5q11 0 28 3.5t27 7.5v-108q-16 -5 -36.5 -9t-47.5 -4q-36 0 -66.5 13.5t-49 39t-18.5 60.5
q0 23 7 46.5t30 49.5t72 56l76 -25q-31 -32 -44 -53t-13 -44z" />
    <glyph glyph-name="Idotaccent" unicode="&#x130;" horiz-adv-x="440" 
d="M407 0h-374v110l85 34v427l-85 33v110h374v-110l-84 -33v-427l84 -34v-110zM220 937q43 0 74.5 -17t31.5 -68q0 -49 -31.5 -66.5t-74.5 -17.5q-44 0 -75 17.5t-31 66.5q0 51 31 68t75 17z" />
    <glyph glyph-name="dotlessi" unicode="&#x131;" horiz-adv-x="316" 
d="M259 0h-202v553h202v-553z" />
    <glyph glyph-name="IJ" unicode="&#x132;" horiz-adv-x="782" 
d="M407 0h-374v110l85 34v427l-85 33v110h374v-110l-84 -33v-427l84 -34v-110zM463 -224q-33 0 -57.5 3t-42.5 7v150q15 -3 31.5 -6.5t35.5 -3.5q37 0 54 14t22 42.5t5 70.5v661h205v-644q0 -107 -32 -172t-89 -93.5t-132 -28.5z" />
    <glyph glyph-name="ij" unicode="&#x133;" horiz-adv-x="631" 
d="M259 553v-553h-202v553h202zM159 776q43 0 74.5 -17t31.5 -68q0 -49 -31.5 -66.5t-74.5 -17.5q-44 0 -75 17.5t-31 66.5q0 51 31 68t75 17zM374 -240q-20 0 -50 3.5t-49 8.5v149q14 -4 25.5 -6.5t24.5 -2.5q18 0 32.5 16.5t14.5 66.5v558h201v-598q0 -50 -18.5 -94.5
t-62 -72.5t-118.5 -28zM368 691q0 51 31 68t74 17q44 0 75.5 -17t31.5 -68q0 -49 -31.5 -66.5t-75.5 -17.5q-43 0 -74 17.5t-31 66.5z" />
    <glyph glyph-name="Jcircumflex" unicode="&#x134;" horiz-adv-x="342" 
d="M23 -224q-33 0 -57.5 3t-42.5 7v150q15 -3 31.5 -6.5t35.5 -3.5q37 0 54 14t22 42.5t5 70.5v661h205v-644q0 -107 -32 -172t-89 -93.5t-132 -28.5zM267 927q16 -23 37.5 -50.5t43 -53t36.5 -42.5v-14h-129q-25 15 -42 33t-42 40q-25 -22 -40 -39t-40 -34h-133v14
q18 18 40 43.5t43.5 52.5t35.5 50h190z" />
    <glyph glyph-name="jcircumflex" unicode="&#x135;" horiz-adv-x="315" 
d="M58 -240q-20 0 -50 3.5t-49 8.5v149q14 -4 25.5 -6.5t24.5 -2.5q18 0 32.5 16.5t14.5 66.5v558h201v-598q0 -50 -18.5 -94.5t-62 -72.5t-118.5 -28zM253 766q16 -23 37.5 -50.5t43 -53t36.5 -42.5v-14h-129q-25 15 -42 33t-42 40q-25 -22 -40 -39t-40 -34h-133v14
q18 18 40 43.5t43.5 52.5t35.5 50h190z" />
    <glyph glyph-name="uni0136" unicode="&#x136;" horiz-adv-x="658" 
d="M658 0h-229l-108 273l-50 -34v-239h-205v714h205v-310q10 23 26 46.5t27 45.5l120 218h221l-198 -320zM440 -72q-11 -27 -22 -50.5t-24 -47.5t-32 -51h-121v14q5 21 9.5 48t7 53t1.5 45h181v-11z" />
    <glyph glyph-name="uni0137" unicode="&#x137;" horiz-adv-x="640" 
d="M259 461q0 -34 -3 -75t-9 -75h5q5 10 12.5 24t17.5 30t21 32l103 156h224l-168 -235l178 -318h-229l-95 198l-57 -47v-151h-203v760h203v-299zM416 -72q-11 -27 -22 -50.5t-24 -47.5t-32 -51h-121v14q5 21 9.5 48t7 53t1.5 45h181v-11z" />
    <glyph glyph-name="kgreenlandic" unicode="&#x138;" horiz-adv-x="640" 
d="M634 553l-177 -242l183 -311h-226l-99 195l-56 -48v-147h-203v553h203v-120q0 -41 -2 -70.5t-4 -48.5h5q5 13 18 35.5t30 50.5l98 153h230z" />
    <glyph glyph-name="Lacute" unicode="&#x139;" horiz-adv-x="556" 
d="M66 0v714h204v-558h250v-156h-454zM416 917q-18 -14 -46 -34.5t-59 -42t-59.5 -41t-48.5 -32.5h-134v14q17 19 41 44.5t48 52.5t40 49h218v-10z" />
    <glyph glyph-name="lacute" unicode="&#x13a;" horiz-adv-x="314" 
d="M258 0h-202v760h202v-760zM410 963q-18 -14 -46 -34.5t-59 -42t-59.5 -41t-48.5 -32.5h-134v14q17 19 41 44.5t48 52.5t40 49h218v-10z" />
    <glyph glyph-name="uni013B" unicode="&#x13b;" horiz-adv-x="556" 
d="M66 0v714h204v-558h250v-156h-454zM386 -72q-11 -27 -22 -50.5t-24 -47.5t-32 -51h-121v14q5 21 9.5 48t7 53t1.5 45h181v-11z" />
    <glyph glyph-name="uni013C" unicode="&#x13c;" horiz-adv-x="314" 
d="M258 0h-202v760h202v-760zM252 -72q-11 -27 -22 -50.5t-24 -47.5t-32 -51h-121v14q5 21 9.5 48t7 53t1.5 45h181v-11z" />
    <glyph glyph-name="Lcaron" unicode="&#x13d;" horiz-adv-x="582" 
d="M557 703q-15 -24 -27.5 -47t-25.5 -47.5t-32 -54.5h-121v14q3 15 7 33.5t7.5 38t6.5 39t4 35.5h181v-11zM66 0v714h204v-558h250v-156h-454z" />
    <glyph glyph-name="lcaron" unicode="&#x13e;" horiz-adv-x="323" 
d="M504 749q-15 -24 -27.5 -47t-25.5 -47.5t-32 -54.5h-121v14q3 15 7 33.5t7.5 38t6.5 39t4 35.5h181v-11zM258 0h-202v760h202v-760z" />
    <glyph glyph-name="Ldot" unicode="&#x13f;" horiz-adv-x="556" 
d="M66 0v714h204v-558h250v-156h-454zM442 481q43 0 74.5 -17t31.5 -68q0 -49 -31.5 -66.5t-74.5 -17.5q-44 0 -75 17.5t-31 66.5q0 51 31 68t75 17z" />
    <glyph glyph-name="ldot" unicode="&#x140;" horiz-adv-x="433" 
d="M258 0h-202v760h202v-760zM372 464q43 0 74.5 -17t31.5 -68q0 -49 -31.5 -66.5t-74.5 -17.5q-44 0 -75 17.5t-31 66.5q0 51 31 68t75 17z" />
    <glyph glyph-name="Lslash" unicode="&#x141;" horiz-adv-x="595" 
d="M105 0v235l-56 -28l-72 121l128 71v315h203v-196l115 64l75 -119l-190 -109v-198h251v-156h-454z" />
    <glyph glyph-name="lslash" unicode="&#x142;" horiz-adv-x="451" 
d="M126 0v197l-71 -33l-71 121l142 74v401h202v-286l64 34l74 -121l-138 -75v-312h-202z" />
    <glyph glyph-name="Nacute" unicode="&#x143;" horiz-adv-x="796" 
d="M730 0h-270l-219 503h-4l1 -17.5t3 -45.5t3.5 -59.5t1.5 -58.5v-322h-180v714h269l218 -496h3l-1 17t-2.5 44t-2.5 57t-1 55v323h181v-714zM651 917q-18 -14 -46 -34.5t-59 -42t-59.5 -41t-48.5 -32.5h-134v14q17 19 41 44.5t48 52.5t40 49h218v-10z" />
    <glyph glyph-name="nacute" unicode="&#x144;" horiz-adv-x="637" 
d="M400 563q80 0 131.5 -48t51.5 -155v-360h-202v302q0 55 -12 83t-40 28q-43 0 -57 -44t-14 -127v-242h-202v553h151l28 -73h6q17 26 39 44.5t51.5 28.5t68.5 10zM571 756q-18 -14 -46 -34.5t-59 -42t-59.5 -41t-48.5 -32.5h-134v14q17 19 41 44.5t48 52.5t40 49h218v-10z
" />
    <glyph glyph-name="uni0145" unicode="&#x145;" horiz-adv-x="796" 
d="M730 0h-270l-219 503h-4l1 -17.5t3 -45.5t3.5 -59.5t1.5 -58.5v-322h-180v714h269l218 -496h3l-1 17t-2.5 44t-2.5 57t-1 55v323h181v-714zM493 -72q-11 -27 -22 -50.5t-24 -47.5t-32 -51h-121v14q5 21 9.5 48t7 53t1.5 45h181v-11z" />
    <glyph glyph-name="uni0146" unicode="&#x146;" horiz-adv-x="637" 
d="M400 563q80 0 131.5 -48t51.5 -155v-360h-202v302q0 55 -12 83t-40 28q-43 0 -57 -44t-14 -127v-242h-202v553h151l28 -73h6q17 26 39 44.5t51.5 28.5t68.5 10zM413 -72q-11 -27 -22 -50.5t-24 -47.5t-32 -51h-121v14q5 21 9.5 48t7 53t1.5 45h181v-11z" />
    <glyph glyph-name="Ncaron" unicode="&#x147;" horiz-adv-x="796" 
d="M730 0h-270l-219 503h-4l1 -17.5t3 -45.5t3.5 -59.5t1.5 -58.5v-322h-180v714h269l218 -496h3l-1 17t-2.5 44t-2.5 57t-1 55v323h181v-714zM611 913q-15 -17 -36.5 -42.5t-43 -53t-37.5 -50.5h-190q-14 23 -35.5 50t-43.5 52.5t-40 43.5v14h133q25 -16 40 -33t40 -40
q25 23 42 40.5t42 32.5h129v-14z" />
    <glyph glyph-name="ncaron" unicode="&#x148;" horiz-adv-x="637" 
d="M400 563q80 0 131.5 -48t51.5 -155v-360h-202v302q0 55 -12 83t-40 28q-43 0 -57 -44t-14 -127v-242h-202v553h151l28 -73h6q17 26 39 44.5t51.5 28.5t68.5 10zM531 752q-15 -17 -36.5 -42.5t-43 -53t-37.5 -50.5h-190q-14 23 -35.5 50t-43.5 52.5t-40 43.5v14h133
q25 -16 40 -33t40 -40q25 23 42 40.5t42 32.5h129v-14z" />
    <glyph glyph-name="napostrophe" unicode="&#x149;" horiz-adv-x="830" 
d="M593 563q80 0 131.5 -48t51.5 -155v-360h-202v302q0 55 -12 83t-40 28q-43 0 -57 -44t-14 -127v-242h-202v553h151l28 -73h6q17 26 39 44.5t51.5 28.5t68.5 10zM226 702q-8 -36 -21.5 -86t-28.5 -100.5t-31 -87.5h-143q7 34 13.5 71.5t12.5 75t11 73t8 65.5h172z" />
    <glyph glyph-name="Eng" unicode="&#x14a;" horiz-adv-x="796" 
d="M476 -239q-37 0 -64 3t-46 7v150q18 -3 37.5 -6.5t43.5 -3.5q37 0 61.5 10t37.5 30t16 49l-321 503h-4q2 -15 4 -38t3 -51t1.5 -57.5t0.5 -56.5v-300h-180v714h240l247 -395h4q-1 14 -2.5 38.5t-3 53.5t-2 59t-0.5 55v189h181v-718q0 -76 -32.5 -128.5t-90 -79.5
t-131.5 -27z" />
    <glyph glyph-name="eng" unicode="&#x14b;" horiz-adv-x="637" 
d="M381 -240q-21 0 -52.5 3.5t-51.5 8.5v149q17 -4 28 -6.5t25 -2.5q20 0 34.5 16.5t14.5 66.5v325q0 46 -13.5 69.5t-36.5 23.5q-29 0 -44.5 -20t-21 -58t-5.5 -93v-242h-202v553h151l25 -68h13q17 28 41.5 45t54.5 25t61 8q48 0 89 -21t66.5 -66t25.5 -116v-405
q0 -50 -19 -94.5t-63.5 -72.5t-119.5 -28z" />
    <glyph glyph-name="Omacron" unicode="&#x14c;" horiz-adv-x="750" 
d="M704 358q0 -83 -18.5 -150.5t-58 -116.5t-102 -75t-151.5 -26q-86 0 -148.5 26t-102.5 75t-59.5 116.5t-19.5 151.5q0 111 35 193.5t108 127.5t188 45q118 0 190.5 -45.5t105.5 -128t33 -193.5zM258 358q0 -64 11.5 -110.5t37 -71.5t67.5 -25q44 0 69 25t36 71.5
t11 110.5q0 97 -25 153t-90 56q-43 0 -69 -25.5t-37 -72t-11 -111.5zM549 893v-115h-346v115h346z" />
    <glyph glyph-name="omacron" unicode="&#x14d;" horiz-adv-x="608" 
d="M569 278q0 -69 -18 -123t-52.5 -90.5t-84 -55.5t-111.5 -19q-58 0 -106.5 19t-84 55.5t-55 90.5t-19.5 123q0 92 32 155.5t92.5 96.5t143.5 33q76 0 135.5 -33t93.5 -96.5t34 -155.5zM243 278q0 -47 6 -80t19.5 -49.5t36.5 -16.5t35.5 16.5t18 49.5t5.5 80t-5.5 79
t-18.5 48t-36 16q-33 0 -47 -36t-14 -107zM479 721v-115h-346v115h346z" />
    <glyph glyph-name="Obreve" unicode="&#x14e;" horiz-adv-x="750" 
d="M704 358q0 -83 -18.5 -150.5t-58 -116.5t-102 -75t-151.5 -26q-86 0 -148.5 26t-102.5 75t-59.5 116.5t-19.5 151.5q0 111 35 193.5t108 127.5t188 45q118 0 190.5 -45.5t105.5 -128t33 -193.5zM258 358q0 -64 11.5 -110.5t37 -71.5t67.5 -25q44 0 69 25t36 71.5
t11 110.5q0 97 -25 153t-90 56q-43 0 -69 -25.5t-37 -72t-11 -111.5zM563 959q-3 -54 -25.5 -95t-63.5 -63.5t-101 -22.5q-94 0 -138.5 48.5t-48.5 132.5h107q9 -28 17.5 -41.5t23 -18t39.5 -4.5q29 0 47 12.5t31 51.5h112z" />
    <glyph glyph-name="obreve" unicode="&#x14f;" horiz-adv-x="608" 
d="M569 278q0 -69 -18 -123t-52.5 -90.5t-84 -55.5t-111.5 -19q-58 0 -106.5 19t-84 55.5t-55 90.5t-19.5 123q0 92 32 155.5t92.5 96.5t143.5 33q76 0 135.5 -33t93.5 -96.5t34 -155.5zM243 278q0 -47 6 -80t19.5 -49.5t36.5 -16.5t35.5 16.5t18 49.5t5.5 80t-5.5 79
t-18.5 48t-36 16q-33 0 -47 -36t-14 -107zM493 787q-3 -54 -25.5 -95t-63.5 -63.5t-101 -22.5q-94 0 -138.5 48.5t-48.5 132.5h107q9 -28 17.5 -41.5t23 -18t39.5 -4.5q29 0 47 12.5t31 51.5h112z" />
    <glyph glyph-name="Ohungarumlaut" unicode="&#x150;" horiz-adv-x="750" 
d="M704 358q0 -83 -18.5 -150.5t-58 -116.5t-102 -75t-151.5 -26q-86 0 -148.5 26t-102.5 75t-59.5 116.5t-19.5 151.5q0 111 35 193.5t108 127.5t188 45q118 0 190.5 -45.5t105.5 -128t33 -193.5zM258 358q0 -64 11.5 -110.5t37 -71.5t67.5 -25q44 0 69 25t36 71.5
t11 110.5q0 97 -25 153t-90 56q-43 0 -69 -25.5t-37 -72t-11 -111.5zM633 928q-7 -13 -29.5 -33t-51.5 -42t-56.5 -42t-46.5 -33h-104v14q14 19 32.5 44.5t36.5 52.5t29 49h190v-10zM402 928q-7 -13 -29.5 -33t-51 -42t-56 -42t-45.5 -33h-104v14q13 19 31 44.5t36 52.5
t31 49h188v-10z" />
    <glyph glyph-name="ohungarumlaut" unicode="&#x151;" horiz-adv-x="608" 
d="M569 278q0 -69 -18 -123t-52.5 -90.5t-84 -55.5t-111.5 -19q-58 0 -106.5 19t-84 55.5t-55 90.5t-19.5 123q0 92 32 155.5t92.5 96.5t143.5 33q76 0 135.5 -33t93.5 -96.5t34 -155.5zM243 278q0 -47 6 -80t19.5 -49.5t36.5 -16.5t35.5 16.5t18 49.5t5.5 80t-5.5 79
t-18.5 48t-36 16q-33 0 -47 -36t-14 -107zM563 756q-7 -13 -29.5 -33t-51.5 -42t-56.5 -42t-46.5 -33h-104v14q14 19 32.5 44.5t36.5 52.5t29 49h190v-10zM332 756q-7 -13 -29.5 -33t-51 -42t-56 -42t-45.5 -33h-104v14q13 19 31 44.5t36 52.5t31 49h188v-10z" />
    <glyph glyph-name="OE" unicode="&#x152;" horiz-adv-x="891" 
d="M356 725q17 0 40 -1.5t45 -3.5t36 -6h375v-155h-194v-112h177v-155h-177v-135h194v-157h-380q-13 -3 -34.5 -5t-44 -3.5t-38.5 -1.5q-100 0 -169.5 46t-105.5 129t-36 194t34.5 193t104 127.5t173.5 45.5zM357 567q-25 0 -43 -14.5t-30 -41.5t-18 -66t-6 -87
q0 -64 10.5 -110.5t32 -71.5t54.5 -25q29 0 55 5.5t42 15.5v371q-15 11 -41 17.5t-56 6.5z" />
    <glyph glyph-name="oe" unicode="&#x153;" horiz-adv-x="922" 
d="M664 563q62 0 111.5 -28t78.5 -84.5t29 -141.5v-84h-307q2 -40 29.5 -69.5t82.5 -29.5q28 0 72 9t88 33v-137q-37 -21 -80 -31t-113 -10q-46 0 -89 16.5t-77 50.5q-35 -33 -81.5 -50t-105.5 -17q-76 0 -136 33.5t-94 98t-34 156.5t32.5 155.5t93 96.5t143.5 33
q50 0 92.5 -15.5t77.5 -46.5q23 20 49.5 33.5t60.5 21t77 7.5zM304 421q-33 0 -46.5 -36t-13.5 -107q0 -47 5.5 -80t19 -49.5t36.5 -16.5t35.5 16.5t18 49.5t5.5 80t-5.5 79t-18.5 48t-36 16zM646 433q-27 0 -45.5 -19.5t-21.5 -68.5h127q0 24 -7.5 44t-20.5 32t-32 12z" />
    <glyph glyph-name="Racute" unicode="&#x154;" horiz-adv-x="645" 
d="M300 714q91 0 152.5 -24t92.5 -70.5t31 -116.5q0 -43 -11.5 -79t-35 -64t-60.5 -49l194 -311h-232l-132 260h-29v-260h-204v714h234zM301 568h-31v-163h27q17 0 34 8.5t28.5 28t11.5 52.5q0 23 -7 39.5t-22 25.5t-41 9zM573 917q-18 -14 -46 -34.5t-59 -42t-59.5 -41
t-48.5 -32.5h-134v14q17 19 41 44.5t48 52.5t40 49h218v-10z" />
    <glyph glyph-name="racute" unicode="&#x155;" horiz-adv-x="449" 
d="M385 563q17 0 34.5 -2t24.5 -4l-19 -180q-10 2 -24.5 4t-47.5 2q-11 0 -27 -3.5t-31.5 -14.5t-26 -33t-10.5 -60v-272h-202v553h149l32 -88h10q14 27 36 49.5t48.5 35.5t53.5 13zM508 756q-18 -14 -46 -34.5t-59 -42t-59.5 -41t-48.5 -32.5h-134v14q17 19 41 44.5
t48 52.5t40 49h218v-10z" />
    <glyph glyph-name="uni0156" unicode="&#x156;" horiz-adv-x="645" 
d="M300 714q91 0 152.5 -24t92.5 -70.5t31 -116.5q0 -43 -11.5 -79t-35 -64t-60.5 -49l194 -311h-232l-132 260h-29v-260h-204v714h234zM301 568h-31v-163h27q17 0 34 8.5t28.5 28t11.5 52.5q0 23 -7 39.5t-22 25.5t-41 9zM426 -72q-11 -27 -22 -50.5t-24 -47.5t-32 -51
h-121v14q5 21 9.5 48t7 53t1.5 45h181v-11z" />
    <glyph glyph-name="uni0157" unicode="&#x157;" horiz-adv-x="449" 
d="M385 563q17 0 34.5 -2t24.5 -4l-19 -180q-10 2 -24.5 4t-47.5 2q-11 0 -27 -3.5t-31.5 -14.5t-26 -33t-10.5 -60v-272h-202v553h149l32 -88h10q14 27 36 49.5t48.5 35.5t53.5 13zM255 -72q-11 -27 -22 -50.5t-24 -47.5t-32 -51h-121v14q5 21 9.5 48t7 53t1.5 45h181v-11z
" />
    <glyph glyph-name="Rcaron" unicode="&#x158;" horiz-adv-x="645" 
d="M300 714q91 0 152.5 -24t92.5 -70.5t31 -116.5q0 -43 -11.5 -79t-35 -64t-60.5 -49l194 -311h-232l-132 260h-29v-260h-204v714h234zM301 568h-31v-163h27q17 0 34 8.5t28.5 28t11.5 52.5q0 23 -7 39.5t-22 25.5t-41 9zM533 913q-15 -17 -36.5 -42.5t-43 -53t-37.5 -50.5
h-190q-14 23 -35.5 50t-43.5 52.5t-40 43.5v14h133q25 -16 40 -33t40 -40q25 23 42 40.5t42 32.5h129v-14z" />
    <glyph glyph-name="rcaron" unicode="&#x159;" horiz-adv-x="449" 
d="M385 563q17 0 34.5 -2t24.5 -4l-19 -180q-10 2 -24.5 4t-47.5 2q-11 0 -27 -3.5t-31.5 -14.5t-26 -33t-10.5 -60v-272h-202v553h149l32 -88h10q14 27 36 49.5t48.5 35.5t53.5 13zM468 752q-15 -17 -36.5 -42.5t-43 -53t-37.5 -50.5h-190q-14 23 -35.5 50t-43.5 52.5
t-40 43.5v14h133q25 -16 40 -33t40 -40q25 23 42 40.5t42 32.5h129v-14z" />
    <glyph glyph-name="Sacute" unicode="&#x15a;" horiz-adv-x="556" 
d="M528 217q0 -58 -26.5 -110t-86.5 -84.5t-159 -32.5q-52 0 -87.5 4.5t-64.5 14.5t-64 26v172q58 -29 116 -44.5t100 -15.5q22 0 37 7t22.5 19t7.5 27q0 19 -9 32t-34 27t-73 34q-60 25 -96 53t-52 68t-16 101q0 69 34.5 115.5t94.5 70t138 23.5q74 0 129.5 -15.5
t90.5 -35.5l-61 -149q-40 21 -85 33.5t-80 12.5q-21 0 -34 -6t-19 -16.5t-6 -23.5q0 -17 11.5 -30t41 -28.5t82.5 -41.5q48 -22 81 -49t50 -64.5t17 -93.5zM547 917q-18 -14 -46 -34.5t-59 -42t-59.5 -41t-48.5 -32.5h-134v14q17 19 41 44.5t48 52.5t40 49h218v-10z" />
    <glyph glyph-name="sacute" unicode="&#x15b;" horiz-adv-x="497" 
d="M458 170q0 -52 -20.5 -93t-68.5 -64t-131 -23q-57 0 -103.5 6.5t-95.5 24.5v153q54 -24 106.5 -34.5t77.5 -10.5t36.5 7t11.5 21q0 12 -11 21t-35 20t-65 30q-40 19 -67 41.5t-41 54t-14 76.5q0 81 61 122t160 41q53 0 99.5 -12t96.5 -35l-52 -123q-26 13 -54.5 22
t-52 14t-35.5 5q-16 0 -25 -6t-9 -17q0 -10 8 -18t30.5 -18.5t64.5 -28.5q46 -19 74 -41.5t41 -54t13 -80.5zM490 756q-18 -14 -46 -34.5t-59 -42t-59.5 -41t-48.5 -32.5h-134v14q17 19 41 44.5t48 52.5t40 49h218v-10z" />
    <glyph glyph-name="Scircumflex" unicode="&#x15c;" horiz-adv-x="556" 
d="M528 217q0 -58 -26.5 -110t-86.5 -84.5t-159 -32.5q-52 0 -87.5 4.5t-64.5 14.5t-64 26v172q58 -29 116 -44.5t100 -15.5q22 0 37 7t22.5 19t7.5 27q0 19 -9 32t-34 27t-73 34q-60 25 -96 53t-52 68t-16 101q0 69 34.5 115.5t94.5 70t138 23.5q74 0 129.5 -15.5
t90.5 -35.5l-61 -149q-40 21 -85 33.5t-80 12.5q-21 0 -34 -6t-19 -16.5t-6 -23.5q0 -17 11.5 -30t41 -28.5t82.5 -41.5q48 -22 81 -49t50 -64.5t17 -93.5zM390 927q16 -23 37.5 -50.5t43 -53t36.5 -42.5v-14h-129q-25 15 -42 33t-42 40q-25 -22 -40 -39t-40 -34h-133v14
q18 18 40 43.5t43.5 52.5t35.5 50h190z" />
    <glyph glyph-name="scircumflex" unicode="&#x15d;" horiz-adv-x="497" 
d="M458 170q0 -52 -20.5 -93t-68.5 -64t-131 -23q-57 0 -103.5 6.5t-95.5 24.5v153q54 -24 106.5 -34.5t77.5 -10.5t36.5 7t11.5 21q0 12 -11 21t-35 20t-65 30q-40 19 -67 41.5t-41 54t-14 76.5q0 81 61 122t160 41q53 0 99.5 -12t96.5 -35l-52 -123q-26 13 -54.5 22
t-52 14t-35.5 5q-16 0 -25 -6t-9 -17q0 -10 8 -18t30.5 -18.5t64.5 -28.5q46 -19 74 -41.5t41 -54t13 -80.5zM333 766q16 -23 37.5 -50.5t43 -53t36.5 -42.5v-14h-129q-25 15 -42 33t-42 40q-25 -22 -40 -39t-40 -34h-133v14q18 18 40 43.5t43.5 52.5t35.5 50h190z" />
    <glyph glyph-name="Scedilla" unicode="&#x15e;" horiz-adv-x="556" 
d="M528 217q0 -58 -26.5 -110t-86.5 -84.5t-159 -32.5q-52 0 -87.5 4.5t-64.5 14.5t-64 26v172q58 -29 116 -44.5t100 -15.5q22 0 37 7t22.5 19t7.5 27q0 19 -9 32t-34 27t-73 34q-60 25 -96 53t-52 68t-16 101q0 69 34.5 115.5t94.5 70t138 23.5q74 0 129.5 -15.5
t90.5 -35.5l-61 -149q-40 21 -85 33.5t-80 12.5q-21 0 -34 -6t-19 -16.5t-6 -23.5q0 -17 11.5 -30t41 -28.5t82.5 -41.5q48 -22 81 -49t50 -64.5t17 -93.5zM409 -123q0 -35 -17 -61.5t-43.5 -41t-56.5 -14.5q-39 0 -70.5 5t-50.5 12v94q17 -5 29.5 -8t28.5 -3q20 0 30.5 7.5
t10.5 20.5q0 17 -15 27t-47 17l24 68h90l-6 -30q19 -4 40.5 -14t37 -28.5t15.5 -50.5z" />
    <glyph glyph-name="scedilla" unicode="&#x15f;" horiz-adv-x="497" 
d="M458 170q0 -52 -20.5 -93t-68.5 -64t-131 -23q-57 0 -103.5 6.5t-95.5 24.5v153q54 -24 106.5 -34.5t77.5 -10.5t36.5 7t11.5 21q0 12 -11 21t-35 20t-65 30q-40 19 -67 41.5t-41 54t-14 76.5q0 81 61 122t160 41q53 0 99.5 -12t96.5 -35l-52 -123q-26 13 -54.5 22
t-52 14t-35.5 5q-16 0 -25 -6t-9 -17q0 -10 8 -18t30.5 -18.5t64.5 -28.5q46 -19 74 -41.5t41 -54t13 -80.5zM374 -123q0 -35 -17 -61.5t-43.5 -41t-56.5 -14.5q-39 0 -70.5 5t-50.5 12v94q17 -5 29.5 -8t28.5 -3q20 0 30.5 7.5t10.5 20.5q0 17 -15 27t-47 17l24 68h90
l-6 -30q19 -4 40.5 -14t37 -28.5t15.5 -50.5z" />
    <glyph glyph-name="Scaron" unicode="&#x160;" horiz-adv-x="556" 
d="M528 217q0 -58 -26.5 -110t-86.5 -84.5t-159 -32.5q-52 0 -87.5 4.5t-64.5 14.5t-64 26v172q58 -29 116 -44.5t100 -15.5q22 0 37 7t22.5 19t7.5 27q0 19 -9 32t-34 27t-73 34q-60 25 -96 53t-52 68t-16 101q0 69 34.5 115.5t94.5 70t138 23.5q74 0 129.5 -15.5
t90.5 -35.5l-61 -149q-40 21 -85 33.5t-80 12.5q-21 0 -34 -6t-19 -16.5t-6 -23.5q0 -17 11.5 -30t41 -28.5t82.5 -41.5q48 -22 81 -49t50 -64.5t17 -93.5zM507 913q-15 -17 -36.5 -42.5t-43 -53t-37.5 -50.5h-190q-14 23 -35.5 50t-43.5 52.5t-40 43.5v14h133
q25 -16 40 -33t40 -40q25 23 42 40.5t42 32.5h129v-14z" />
    <glyph glyph-name="scaron" unicode="&#x161;" horiz-adv-x="497" 
d="M458 170q0 -52 -20.5 -93t-68.5 -64t-131 -23q-57 0 -103.5 6.5t-95.5 24.5v153q54 -24 106.5 -34.5t77.5 -10.5t36.5 7t11.5 21q0 12 -11 21t-35 20t-65 30q-40 19 -67 41.5t-41 54t-14 76.5q0 81 61 122t160 41q53 0 99.5 -12t96.5 -35l-52 -123q-26 13 -54.5 22
t-52 14t-35.5 5q-16 0 -25 -6t-9 -17q0 -10 8 -18t30.5 -18.5t64.5 -28.5q46 -19 74 -41.5t41 -54t13 -80.5zM450 752q-15 -17 -36.5 -42.5t-43 -53t-37.5 -50.5h-190q-14 23 -35.5 50t-43.5 52.5t-40 43.5v14h133q25 -16 40 -33t40 -40q25 23 42 40.5t42 32.5h129v-14z" />
    <glyph glyph-name="uni0162" unicode="&#x162;" horiz-adv-x="562" 
d="M383 0h-204v556h-153v158h510v-158h-153v-556zM416 -123q0 -35 -17 -61.5t-43.5 -41t-56.5 -14.5q-39 0 -70.5 5t-50.5 12v94q17 -5 29.5 -8t28.5 -3q20 0 30.5 7.5t10.5 20.5q0 17 -15 27t-47 17l24 68h90l-6 -30q19 -4 40.5 -14t37 -28.5t15.5 -50.5z" />
    <glyph glyph-name="uni0163" unicode="&#x163;" horiz-adv-x="446" 
d="M332 141q25 0 44 5.5t41 13.5v-139q-33 -13 -65.5 -22t-89.5 -9q-53 0 -92.5 17t-61 58.5t-21.5 116.5v228h-61v78l81 60l50 116h133v-111h119v-143h-119v-215q0 -27 10.5 -40.5t31.5 -13.5zM395 -123q0 -35 -17 -61.5t-43.5 -41t-56.5 -14.5q-39 0 -70.5 5t-50.5 12v94
q17 -5 29.5 -8t28.5 -3q20 0 30.5 7.5t10.5 20.5q0 17 -15 27t-47 17l24 68h90l-6 -30q19 -4 40.5 -14t37 -28.5t15.5 -50.5z" />
    <glyph glyph-name="Tcaron" unicode="&#x164;" horiz-adv-x="562" 
d="M383 0h-204v556h-153v158h510v-158h-153v-556zM494 913q-15 -17 -36.5 -42.5t-43 -53t-37.5 -50.5h-190q-14 23 -35.5 50t-43.5 52.5t-40 43.5v14h133q25 -16 40 -33t40 -40q25 23 42 40.5t42 32.5h129v-14z" />
    <glyph glyph-name="tcaron" unicode="&#x165;" horiz-adv-x="446" 
d="M614 749q-15 -24 -27.5 -47t-25.5 -47.5t-32 -54.5h-121v14q3 15 7 33.5t7.5 38t6.5 39t4 35.5h181v-11zM332 141q25 0 44 5.5t41 13.5v-139q-33 -13 -65.5 -22t-89.5 -9q-53 0 -92.5 17t-61 58.5t-21.5 116.5v228h-61v78l81 60l50 116h133v-111h119v-143h-119v-215
q0 -27 10.5 -40.5t31.5 -13.5z" />
    <glyph glyph-name="Tbar" unicode="&#x166;" horiz-adv-x="562" 
d="M179 0v267h-84v159h84v130h-153v158h510v-158h-153v-130h87v-159h-87v-267h-204z" />
    <glyph glyph-name="tbar" unicode="&#x167;" horiz-adv-x="480" 
d="M36 217v119h368v-119h-368zM332 141q25 0 44 5.5t41 13.5v-139q-33 -13 -65.5 -22t-89.5 -9q-53 0 -92.5 17t-61 58.5t-21.5 116.5v228h-61v78l81 60l50 116h133v-111h119v-143h-119v-215q0 -27 10.5 -40.5t31.5 -13.5z" />
    <glyph glyph-name="Utilde" unicode="&#x168;" horiz-adv-x="712" 
d="M650 284q0 -90 -33 -156t-98.5 -102t-164.5 -36q-142 0 -217 75.5t-75 214.5v434h205v-419q0 -76 23 -110t66 -34q32 0 52 15t29 47t9 83v418h204v-430zM552 933q-6 -90 -34 -128.5t-72 -38.5q-22 0 -44.5 7t-44 16.5t-41.5 16.5t-38 7q-5 0 -12.5 -8t-12.5 -40h-91
q3 46 11 78t21 51.5t32.5 28.5t45.5 9q17 0 37.5 -7t42.5 -16.5t43 -16.5t39 -7q5 0 13 8.5t12 39.5h93z" />
    <glyph glyph-name="utilde" unicode="&#x169;" horiz-adv-x="637" 
d="M581 553v-553h-151l-25 69h-12q-16 -28 -40.5 -45.5t-54 -25.5t-61.5 -8q-49 0 -90 21t-66 66t-25 116v360h202v-302q0 -54 11 -82t39 -28q29 0 44.5 19.5t21 57.5t5.5 93v242h202zM513 772q-6 -90 -34 -128.5t-72 -38.5q-22 0 -44.5 7t-44 16.5t-41.5 16.5t-38 7
q-5 0 -12.5 -8t-12.5 -40h-91q3 46 11 78t21 51.5t32.5 28.5t45.5 9q17 0 37.5 -7t42.5 -16.5t43 -16.5t39 -7q5 0 13 8.5t12 39.5h93z" />
    <glyph glyph-name="Umacron" unicode="&#x16a;" horiz-adv-x="712" 
d="M650 284q0 -90 -33 -156t-98.5 -102t-164.5 -36q-142 0 -217 75.5t-75 214.5v434h205v-419q0 -76 23 -110t66 -34q32 0 52 15t29 47t9 83v418h204v-430zM531 882v-115h-346v115h346z" />
    <glyph glyph-name="umacron" unicode="&#x16b;" horiz-adv-x="637" 
d="M581 553v-553h-151l-25 69h-12q-16 -28 -40.5 -45.5t-54 -25.5t-61.5 -8q-49 0 -90 21t-66 66t-25 116v360h202v-302q0 -54 11 -82t39 -28q29 0 44.5 19.5t21 57.5t5.5 93v242h202zM492 721v-115h-346v115h346z" />
    <glyph glyph-name="Ubreve" unicode="&#x16c;" horiz-adv-x="712" 
d="M650 284q0 -90 -33 -156t-98.5 -102t-164.5 -36q-142 0 -217 75.5t-75 214.5v434h205v-419q0 -76 23 -110t66 -34q32 0 52 15t29 47t9 83v418h204v-430zM545 948q-3 -54 -25.5 -95t-63.5 -63.5t-101 -22.5q-94 0 -138.5 48.5t-48.5 132.5h107q9 -28 17.5 -41.5t23 -18
t39.5 -4.5q29 0 47 12.5t31 51.5h112z" />
    <glyph glyph-name="ubreve" unicode="&#x16d;" horiz-adv-x="637" 
d="M581 553v-553h-151l-25 69h-12q-16 -28 -40.5 -45.5t-54 -25.5t-61.5 -8q-49 0 -90 21t-66 66t-25 116v360h202v-302q0 -54 11 -82t39 -28q29 0 44.5 19.5t21 57.5t5.5 93v242h202zM506 787q-3 -54 -25.5 -95t-63.5 -63.5t-101 -22.5q-94 0 -138.5 48.5t-48.5 132.5h107
q9 -28 17.5 -41.5t23 -18t39.5 -4.5q29 0 47 12.5t31 51.5h112z" />
    <glyph glyph-name="Uring" unicode="&#x16e;" horiz-adv-x="712" 
d="M650 284q0 -90 -33 -156t-98.5 -102t-164.5 -36q-142 0 -217 75.5t-75 214.5v434h205v-419q0 -76 23 -110t66 -34q32 0 52 15t29 47t9 83v418h204v-430zM355 765q-56 0 -90.5 33t-34.5 90q0 58 34.5 91t90.5 33q53 0 91.5 -33t38.5 -90q0 -58 -38 -91t-92 -33zM355 847
q15 0 25.5 11.5t10.5 29.5q0 19 -10.5 30t-25.5 11q-14 0 -24.5 -11t-10.5 -30q0 -18 9 -29.5t26 -11.5z" />
    <glyph glyph-name="uring" unicode="&#x16f;" horiz-adv-x="637" 
d="M581 553v-553h-151l-25 69h-12q-16 -28 -40.5 -45.5t-54 -25.5t-61.5 -8q-49 0 -90 21t-66 66t-25 116v360h202v-302q0 -54 11 -82t39 -28q29 0 44.5 19.5t21 57.5t5.5 93v242h202zM316 604q-56 0 -90.5 33t-34.5 90q0 58 34.5 91t90.5 33q53 0 91.5 -33t38.5 -90
q0 -58 -38 -91t-92 -33zM316 686q15 0 25.5 11.5t10.5 29.5q0 19 -10.5 30t-25.5 11q-14 0 -24.5 -11t-10.5 -30q0 -18 9 -29.5t26 -11.5z" />
    <glyph glyph-name="Uhungarumlaut" unicode="&#x170;" horiz-adv-x="712" 
d="M650 284q0 -90 -33 -156t-98.5 -102t-164.5 -36q-142 0 -217 75.5t-75 214.5v434h205v-419q0 -76 23 -110t66 -34q32 0 52 15t29 47t9 83v418h204v-430zM615 917q-7 -13 -29.5 -33t-51.5 -42t-56.5 -42t-46.5 -33h-104v14q14 19 32.5 44.5t36.5 52.5t29 49h190v-10z
M384 917q-7 -13 -29.5 -33t-51 -42t-56 -42t-45.5 -33h-104v14q13 19 31 44.5t36 52.5t31 49h188v-10z" />
    <glyph glyph-name="uhungarumlaut" unicode="&#x171;" horiz-adv-x="637" 
d="M581 553v-553h-151l-25 69h-12q-16 -28 -40.5 -45.5t-54 -25.5t-61.5 -8q-49 0 -90 21t-66 66t-25 116v360h202v-302q0 -54 11 -82t39 -28q29 0 44.5 19.5t21 57.5t5.5 93v242h202zM576 756q-7 -13 -29.5 -33t-51.5 -42t-56.5 -42t-46.5 -33h-104v14q14 19 32.5 44.5
t36.5 52.5t29 49h190v-10zM345 756q-7 -13 -29.5 -33t-51 -42t-56 -42t-45.5 -33h-104v14q13 19 31 44.5t36 52.5t31 49h188v-10z" />
    <glyph glyph-name="Uogonek" unicode="&#x172;" horiz-adv-x="757" 
d="M489 -88q0 -25 10.5 -33.5t27.5 -8.5q13 0 30.5 3.5t27.5 7.5v-108q-16 -5 -37 -9t-48 -4q-57 0 -96 31.5t-39 90.5q0 25 10 53t35 59t69 65l109 24q-30 -35 -52.5 -63t-34.5 -53.5t-12 -54.5zM650 284q0 -90 -33 -156t-98.5 -102t-164.5 -36q-142 0 -217 75.5t-75 214.5
v434h205v-419q0 -76 23 -110t66 -34q32 0 52 15t29 47t9 83v418h204v-430z" />
    <glyph glyph-name="uogonek" unicode="&#x173;" horiz-adv-x="637" 
d="M581 553v-553h-151l-25 69h-12q-16 -28 -40.5 -45.5t-54 -25.5t-61.5 -8q-49 0 -90 21t-66 66t-25 116v360h202v-302q0 -54 11 -82t39 -28q29 0 44.5 19.5t21 57.5t5.5 93v242h202zM487 -97q0 -18 9.5 -25.5t25.5 -7.5q11 0 28 3.5t27 7.5v-108q-16 -5 -36.5 -9t-47.5 -4
q-36 0 -66.5 13.5t-49 39t-18.5 60.5q0 23 7 46.5t30 49.5t72 56l76 -25q-31 -32 -44 -53t-13 -44z" />
    <glyph glyph-name="Wcircumflex" unicode="&#x174;" horiz-adv-x="1015" 
d="M993 714l-163 -714h-243l-52 301q-1 9 -4.5 30t-7.5 49t-7.5 56t-5.5 50q-2 -22 -6 -50l-8 -56t-7.5 -49t-5.5 -30l-53 -301h-244l-164 714h195l74 -368q4 -17 9 -48.5t10 -66.5t7 -64q4 30 8 58.5t9 57t10 57.5l72 374h191l67 -365q5 -28 9.5 -57.5t9 -60.5t9.5 -64
q4 30 10.5 67t13 70t9.5 51l68 359h190zM604 927q16 -23 37.5 -50.5t43 -53t36.5 -42.5v-14h-129q-25 15 -42 33t-42 40q-25 -22 -40 -39t-40 -34h-133v14q18 18 40 43.5t43.5 52.5t35.5 50h190z" />
    <glyph glyph-name="wcircumflex" unicode="&#x175;" horiz-adv-x="883" 
d="M464 253q-7 38 -13 76t-8 62h-3q-1 -23 -8 -59.5t-16 -79.5l-55 -252h-219l-130 553h198l31 -212q4 -23 7.5 -55.5t7 -66t4.5 -60.5h3q2 27 8 63t12 67t8 41l46 223h214l44 -226q4 -19 9.5 -48.5t10.5 -61t7 -58.5h2q3 40 8 86t11 86l35 222h193l-132 -553h-225zM538 766
q16 -23 37.5 -50.5t43 -53t36.5 -42.5v-14h-129q-25 15 -42 33t-42 40q-25 -22 -40 -39t-40 -34h-133v14q18 18 40 43.5t43.5 52.5t35.5 50h190z" />
    <glyph glyph-name="Ycircumflex" unicode="&#x176;" horiz-adv-x="645" 
d="M323 449l102 265h220l-220 -435v-279h-205v273l-220 441h222zM419 927q16 -23 37.5 -50.5t43 -53t36.5 -42.5v-14h-129q-25 15 -42 33t-42 40q-25 -22 -40 -39t-40 -34h-133v14q18 18 40 43.5t43.5 52.5t35.5 50h190z" />
    <glyph glyph-name="ycircumflex" unicode="&#x177;" horiz-adv-x="595" 
d="M-1 553h209l81 -317q2 -7 3.5 -17t2 -21t0.5 -22h5q2 18 3 34t4 26l86 317h203l-203 -587q-23 -68 -54 -114t-80.5 -69t-128.5 -23q-25 0 -42.5 2.5t-31.5 5.5v150q10 -2 24.5 -4t30.5 -2q30 0 47.5 11t27 30.5t15.5 42.5l3 12zM394 766q16 -23 37.5 -50.5t43 -53
t36.5 -42.5v-14h-129q-25 15 -42 33t-42 40q-25 -22 -40 -39t-40 -34h-133v14q18 18 40 43.5t43.5 52.5t35.5 50h190z" />
    <glyph glyph-name="Ydieresis" unicode="&#x178;" horiz-adv-x="645" 
d="M323 449l102 265h220l-220 -435v-279h-205v273l-220 441h222zM116 851q0 40 24.5 58.5t61.5 18.5q35 0 61 -18.5t26 -58.5q0 -39 -26 -57.5t-61 -18.5q-37 0 -61.5 18.5t-24.5 57.5zM355 851q0 40 25 58.5t62 18.5q35 0 61 -18.5t26 -58.5q0 -39 -26 -57.5t-61 -18.5
q-37 0 -62 18.5t-25 57.5z" />
    <glyph glyph-name="Zacute" unicode="&#x179;" horiz-adv-x="591" 
d="M567 0h-536v119l273 439h-267v156h523v-119l-273 -439h280v-156zM559 917q-18 -14 -46 -34.5t-59 -42t-59.5 -41t-48.5 -32.5h-134v14q17 19 41 44.5t48 52.5t40 49h218v-10z" />
    <glyph glyph-name="zacute" unicode="&#x17a;" horiz-adv-x="487" 
d="M466 0h-445v109l203 298h-192v146h422v-118l-191 -289h203v-146zM497 756q-18 -14 -46 -34.5t-59 -42t-59.5 -41t-48.5 -32.5h-134v14q17 19 41 44.5t48 52.5t40 49h218v-10z" />
    <glyph glyph-name="Zdotaccent" unicode="&#x17b;" horiz-adv-x="591" 
d="M567 0h-536v119l273 439h-267v156h523v-119l-273 -439h280v-156zM306 937q43 0 74.5 -17t31.5 -68q0 -49 -31.5 -66.5t-74.5 -17.5q-44 0 -75 17.5t-31 66.5q0 51 31 68t75 17z" />
    <glyph glyph-name="zdotaccent" unicode="&#x17c;" horiz-adv-x="487" 
d="M466 0h-445v109l203 298h-192v146h422v-118l-191 -289h203v-146zM244 776q43 0 74.5 -17t31.5 -68q0 -49 -31.5 -66.5t-74.5 -17.5q-44 0 -75 17.5t-31 66.5q0 51 31 68t75 17z" />
    <glyph glyph-name="Zcaron" unicode="&#x17d;" horiz-adv-x="591" 
d="M567 0h-536v119l273 439h-267v156h523v-119l-273 -439h280v-156zM519 913q-15 -17 -36.5 -42.5t-43 -53t-37.5 -50.5h-190q-14 23 -35.5 50t-43.5 52.5t-40 43.5v14h133q25 -16 40 -33t40 -40q25 23 42 40.5t42 32.5h129v-14z" />
    <glyph glyph-name="zcaron" unicode="&#x17e;" horiz-adv-x="487" 
d="M466 0h-445v109l203 298h-192v146h422v-118l-191 -289h203v-146zM457 752q-15 -17 -36.5 -42.5t-43 -53t-37.5 -50.5h-190q-14 23 -35.5 50t-43.5 52.5t-40 43.5v14h133q25 -16 40 -33t40 -40q25 23 42 40.5t42 32.5h129v-14z" />
    <glyph glyph-name="longs" unicode="&#x17f;" horiz-adv-x="390" 
d="M303 628q-29 0 -37 -18t-8 -55v-555h-202v559q0 87 24 131t68.5 59.5t104.5 15.5q50 0 89.5 -7.5t64.5 -18.5l-36 -127q-17 5 -32.5 10.5t-35.5 5.5z" />
    <glyph glyph-name="uni0180" unicode="&#x180;" horiz-adv-x="620" 
d="M400 -10q-39 0 -62.5 9.5t-38 24t-26.5 27.5h-13l-31 -51h-163v567h-71v123h71v70h207v-70h94v-123h-94v3q0 -28 -1.5 -51t-6.5 -46h8q14 27 45.5 51t86.5 24q49 0 90 -25.5t66.5 -84.5t25.5 -160q0 -99 -26 -163t-68.5 -94.5t-92.5 -30.5zM332 146q16 0 30.5 34
t14.5 100q0 65 -15 90t-33 25q-10 0 -23 -11t-23 -34.5t-10 -61.5v-5q0 -66 12 -101.5t47 -35.5z" />
    <glyph glyph-name="uni0181" unicode="&#x181;" horiz-adv-x="799" 
d="M222 0v554h-24q-18 0 -27 -13.5t-9 -30.5t3.5 -27t6.5 -18h-158q-4 7 -8.5 22t-4.5 37q0 51 18.5 94t62.5 69.5t122 26.5h243q95 0 160.5 -16t99.5 -55.5t34 -109.5q0 -61 -21 -103t-57 -50v-6q19 -7 41 -23.5t38 -50t16 -92.5q0 -62 -30 -109t-86.5 -73t-137.5 -26h-282
zM478 161q44 0 54.5 20.5t10.5 48.5q0 16 -3.5 30.5t-17 23.5t-44.5 9h-47v-132h47zM468 447q39 0 49.5 15t10.5 42q0 28 -14 39t-51 11h-32v-107h37z" />
    <glyph glyph-name="uni0182" unicode="&#x182;" horiz-adv-x="613" 
d="M66 0v714h452v-155h-248v-97h71q81 0 134 -28t79 -77.5t26 -114.5q0 -75 -34 -129.5t-94 -83.5t-139 -29h-247zM320 153q33 0 45 20.5t12 59.5q0 25 -6.5 41.5t-16.5 25.5t-21 9h-63v-156h50z" />
    <glyph glyph-name="uni0183" unicode="&#x183;" horiz-adv-x="620" 
d="M399 -10q-39 0 -62.5 9.5t-38 24t-26.5 27.5h-12l-31 -51h-163v760h473v-144h-267v-41q0 -24 -1.5 -44t-3 -34.5t-2.5 -23.5h7q15 27 46 51t87 24q49 0 90 -25.5t66.5 -84.5t25.5 -160q0 -99 -26 -163t-69 -94.5t-93 -30.5zM332 146q16 0 30 34t14 100q0 65 -14.5 90
t-32.5 25q-10 0 -23.5 -11t-23.5 -34.5t-10 -61.5v-5q0 -66 12.5 -101.5t47.5 -35.5z" />
    <glyph glyph-name="uni0184" unicode="&#x184;" horiz-adv-x="661" 
d="M348 -15q-88 0 -150.5 23t-95 73t-32.5 131v502h208v-256h49q107 0 173.5 -31.5t97.5 -84.5t31 -118q0 -109 -68 -174t-213 -65zM339 145q33 0 56.5 18t23.5 61q0 33 -15 48.5t-42 20.5t-64 5h-20v-78q0 -37 15.5 -56t45.5 -19z" />
    <glyph glyph-name="uni0185" unicode="&#x185;" horiz-adv-x="623" 
d="M331 -10q-82 0 -142.5 34t-93.5 97t-33 150v489h206v-169q0 -34 -2 -58t-5 -44h7q17 27 50 50.5t88 23.5q49 0 90.5 -32.5t66.5 -96t25 -158.5q0 -101 -36.5 -164t-95 -92.5t-125.5 -29.5zM326 145q25 0 39 27.5t14 103.5q0 68 -15.5 101t-33.5 33q-32 0 -47 -27.5
t-15 -80.5v-34q0 -70 18.5 -96.5t39.5 -26.5z" />
    <glyph glyph-name="uni0186" unicode="&#x186;" horiz-adv-x="616" 
d="M236 -10q-48 0 -92.5 9t-85.5 25v163q39 -16 78.5 -27.5t70.5 -11.5q55 0 89.5 23t50.5 69t16 113q0 50 -8.5 89.5t-25.5 67t-42.5 42t-60.5 14.5q-28 0 -71 -11t-81 -30l-43 149q56 26 119 38t107 12q81 0 140 -25t98 -72t58 -112.5t19 -146.5q0 -108 -37 -193.5
t-111.5 -135t-187.5 -49.5z" />
    <glyph glyph-name="uni0187" unicode="&#x187;" horiz-adv-x="609" 
d="M594 888q23 0 45 -5.5t29 -10.5v-147q-8 3 -22 6.5t-31 3.5q-19 0 -30 -11.5t-11 -39.5v-29l-66 -144q-37 18 -74.5 34.5t-72.5 16.5q-23 0 -41 -14t-30 -41t-18 -65.5t-6 -87.5q0 -66 9.5 -111t31.5 -68t60 -23q40 0 82.5 12t98.5 33v-165q-52 -22 -96 -32t-100 -10
q-108 0 -174 45.5t-96 127.5t-30 192q0 81 19 148.5t58 117t97 76.5t136 27q12 0 24.5 -2t24.5 -5v-5q0 62 25.5 100.5t67.5 57t90 18.5z" />
    <glyph glyph-name="uni0188" unicode="&#x188;" horiz-adv-x="509" 
d="M282 -10q-78 0 -134 28t-85.5 90.5t-29.5 165.5q0 107 35.5 170.5t95.5 91t133 27.5h11t11 -2v3q0 74 23.5 117.5t65.5 63t95 19.5q23 0 44.5 -6t28.5 -11v-147q-9 3 -22.5 6.5t-30.5 3.5q-19 0 -30.5 -11.5t-11.5 -39.5v-46l-61 -141q-34 16 -62.5 26.5t-59.5 10.5
q-19 0 -31.5 -14.5t-18 -44t-5.5 -75.5q0 -49 8 -77t22 -40t30 -12q50 0 85.5 14.5t69.5 41.5v-164q-37 -26 -75 -37t-101 -11z" />
    <glyph glyph-name="uni0189" unicode="&#x189;" horiz-adv-x="687" 
d="M310 714q110 0 184 -39.5t111.5 -115.5t37.5 -187q0 -124 -44 -207t-121.5 -124t-179.5 -41h-232v275h-56v156h56v283h244zM309 558h-40v-127h90v-156h-90v-117h30q71 0 102 51t31 156q0 98 -29 145.5t-94 47.5z" />
    <glyph glyph-name="uni018A" unicode="&#x18a;" horiz-adv-x="856" 
d="M223 0v554h-24q-18 0 -27 -13.5t-9 -30.5t3.5 -27t6.5 -18h-158q-4 7 -8.5 22t-4.5 37q0 51 18.5 94t62.5 69.5t122 26.5h249q104 0 185 -40t127 -117.5t46 -192.5q0 -120 -46 -201t-131 -122t-202 -41h-210zM457 161q72 0 106 50t34 148q0 103 -31.5 149t-90.5 46h-44
v-393h26z" />
    <glyph glyph-name="uni018B" unicode="&#x18b;" horiz-adv-x="608" 
d="M287 0q-120 0 -189.5 57t-69.5 169q0 65 29.5 118.5t85.5 85.5t136 32h59v92h-244v160h448v-714h-255zM287 153h51v156h-63q-10 0 -20.5 -10t-17 -27.5t-6.5 -42.5q0 -39 12 -57.5t44 -18.5z" />
    <glyph glyph-name="uni018C" unicode="&#x18c;" horiz-adv-x="620" 
d="M213 -10q-49 0 -90 32.5t-65.5 97t-24.5 158.5q0 87 25.5 147t68 91.5t93.5 31.5q38 0 65 -11t44.5 -28t26.5 -35h6q-5 21 -10 45.5t-5 58.5v38h-266v144h473v-760h-162l-39 66h-6q-10 -19 -27 -36.5t-43 -28.5t-64 -11zM298 143q32 0 48.5 26.5t16.5 84.5v19
q0 56 -15 88t-54 32q-21 0 -37 -31t-16 -87q0 -65 16.5 -98.5t40.5 -33.5z" />
    <glyph glyph-name="uni018D" unicode="&#x18d;" horiz-adv-x="607" 
d="M274 -216q-62 0 -124 14t-117 42l73 138q49 -25 92 -38.5t69 -13.5q25 0 36.5 8t11.5 24q0 12 -8.5 23.5t-33.5 28t-74 45.5q-58 34 -93.5 73t-51.5 86t-16 105q0 81 33.5 135.5t94 81.5t141.5 27q75 0 134.5 -26t93.5 -76.5t34 -121.5q0 -52 -12.5 -95.5t-46.5 -76.5
t-98 -53q36 -23 56.5 -50t29 -57.5t8.5 -64.5q0 -71 -53.5 -114.5t-178.5 -43.5zM308 187q9 4 18.5 15t18.5 28.5t14.5 41.5t5.5 56q0 26 -7 47.5t-20.5 33.5t-33.5 12q-19 0 -32.5 -12t-21 -35.5t-7.5 -55.5q0 -42 19.5 -74.5t45.5 -56.5z" />
    <glyph glyph-name="uni018E" unicode="&#x18e;" horiz-adv-x="532" 
d="M455 714v-714h-401v161h192v145h-175v159h175v90h-192v159h401z" />
    <glyph glyph-name="uni018F" unicode="&#x18f;" horiz-adv-x="732" 
d="M327 566q-36 0 -74 -9t-80.5 -27.5t-95.5 -47.5v169q33 21 81 37.5t101 26t102 9.5q60 0 118.5 -21t106.5 -65.5t76.5 -112.5t28.5 -163q0 -97 -25.5 -167t-72 -115.5t-109.5 -67.5t-137 -22q-100 0 -172 44.5t-111 132t-39 216.5v30h447q-1 41 -14.5 76t-44.5 56t-86 21
zM355 138q29 0 54.5 17t43 48.5t20.5 75.5h-237q5 -40 22.5 -72t43 -50.5t53.5 -18.5z" />
    <glyph glyph-name="uni0190" unicode="&#x190;" horiz-adv-x="592" 
d="M311 726q89 0 148.5 -22t112.5 -58l-82 -129q-29 22 -66.5 37.5t-83.5 15.5q-43 0 -61 -16t-18 -39q0 -20 14.5 -36t50 -24.5t98.5 -8.5h18v-150h-32q-77 0 -125.5 -17t-48.5 -58q0 -24 9.5 -42t36 -28t77.5 -10q45 0 96.5 12.5t91.5 34.5v-162q-41 -18 -100.5 -28
t-141.5 -10q-100 0 -160.5 27.5t-87.5 74.5t-27 107q0 76 51.5 123t141.5 51v3q-46 6 -82.5 24t-58 52t-21.5 86q0 56 26.5 98.5t82 67t141.5 24.5z" />
    <glyph glyph-name="uni0191" unicode="&#x191;" horiz-adv-x="675" 
d="M231 -243q-70 0 -120 21.5t-77 63t-27 102.5q0 25 6.5 46.5t13.5 33.5l145 -45q-4 -10 -5.5 -18t-1.5 -20q0 -20 13 -33.5t36 -13.5q29 0 41 24t12 65v731h376v-159h-170v-108h155v-159h-155v-293q0 -112 -60 -175t-182 -63z" />
    <glyph glyph-name="florin" unicode="&#x192;" horiz-adv-x="572" 
d="M214 -243q-105 0 -161 51.5t-56 136.5q0 26 6.5 46t14.5 34l144 -45q-4 -10 -5.5 -18.5t-1.5 -19.5q0 -24 14 -36.5t35 -12.5q26 0 39 19t13 57v441h-64v94l70 47v9q0 72 15.5 117t53.5 66.5t105 21.5q40 0 72.5 -6.5t76.5 -19.5l-40 -124q-12 4 -26.5 7t-30.5 3
t-23 -13.5t-7 -43.5v-15h105v-143h-105v-431q0 -74 -31.5 -123.5t-86.5 -74t-126 -24.5z" />
    <glyph glyph-name="uni0193" unicode="&#x193;" horiz-adv-x="681" 
d="M630 888q24 0 46 -5.5t29 -10.5v-147q-9 3 -23 6.5t-30 3.5q-19 0 -29.5 -11.5t-10.5 -39.5v-18l-69 -142q-22 14 -58 25.5t-76 11.5q-42 0 -74 -25.5t-50.5 -72t-18.5 -109.5q0 -53 7 -99t27.5 -74t58.5 -28q18 0 26.5 0.5t16.5 1.5v103h-75v161h279v-389
q-56 -18 -115 -29t-139 -11q-95 0 -162 41.5t-102.5 123.5t-35.5 204q0 116 41.5 197.5t121 124.5t193.5 43q10 0 19.5 -0.5t19.5 -1.5v-8q0 62 26 100t67.5 56t89.5 18z" />
    <glyph glyph-name="uni0194" unicode="&#x194;" horiz-adv-x="643" 
d="M322 -240q-85 0 -131 46t-46 125q0 38 12 75t30 73.5t35 73.5l-222 561h220l78 -271q7 -23 11 -41.5t7 -36.5t7 -40q6 23 9.5 41t8.5 36t12 39l91 273h220l-245 -564q18 -33 37 -68t32.5 -72.5t13.5 -79.5q0 -74 -47 -122t-133 -48zM323 -106q11 0 17.5 11t6.5 35
q0 20 -6 45t-18 50q-10 -23 -16.5 -48t-6.5 -48q0 -22 5.5 -33.5t17.5 -11.5z" />
    <glyph glyph-name="uni0195" unicode="&#x195;" horiz-adv-x="978" 
d="M650 -15q-96 0 -154.5 23.5t-85 72.5t-26.5 126v101q0 49 -12 75.5t-36 26.5q-25 0 -39 -20t-19.5 -58t-5.5 -91v-241h-206v760h206v-115q0 -39 -2 -78.5t-7 -78.5h10q15 25 35 41.5t44.5 25t50.5 8.5q53 0 95.5 -22t67.5 -68t25 -120v-115q0 -49 14.5 -73.5t40.5 -24.5
q34 0 47.5 29.5t13.5 102.5v276h208v-293q0 -139 -65.5 -204.5t-199.5 -65.5z" />
    <glyph glyph-name="uni0196" unicode="&#x196;" horiz-adv-x="436" 
d="M279 -10q-54 0 -100 17.5t-74 62t-28 126.5v518h220v-503q0 -26 14 -42t31 -16q27 0 46 5t42 14v-152q-27 -13 -66.5 -21.5t-84.5 -8.5z" />
    <glyph glyph-name="uni0197" unicode="&#x197;" horiz-adv-x="421" 
d="M406 714v-110l-90 -54v-118h88v-162h-88v-106l90 -54v-110h-389v110l89 54v106h-86v162h86v118l-89 54v110h389z" />
    <glyph glyph-name="uni0198" unicode="&#x198;" horiz-adv-x="678" 
d="M553 727q33 0 57.5 -6t37.5 -13v-151q-9 4 -22 7.5t-30 3.5q-21 0 -34.5 -16t-21.5 -30l-66 -130l204 -392h-235l-117 267l-41 -29v-238h-208v714h208v-310q13 24 25 51t24 51l36 74q24 50 46.5 82.5t54.5 48.5t82 16z" />
    <glyph glyph-name="uni0199" unicode="&#x199;" horiz-adv-x="672" 
d="M270 768q26 0 52 -6.5t36 -11.5v-145q-7 3 -21.5 6.5t-30.5 3.5q-15 0 -24.5 -10t-9.5 -36v-130q0 -28 -3 -57t-7 -56h2q8 15 17.5 30.5t21.5 31t25 28.5l105 137h230l-208 -242l217 -311h-236l-118 200l-46 -39v-161h-206v572q0 73 26 115.5t72 61.5t106 19z" />
    <glyph glyph-name="uni019A" unicode="&#x19a;" horiz-adv-x="300" 
d="M49 0v298h-44v132h44v330h202v-330h45v-132h-45v-298h-202z" />
    <glyph glyph-name="uni019B" unicode="&#x19b;" horiz-adv-x="652" 
d="M-2 0l227 516l3 6l-89 -30l-34 100l71 21q-4 9 -18.5 13.5t-28.5 4.5q-16 0 -30 -2t-32 -6v135q9 2 26.5 4t36.5 3t30 1q47 0 84 -9t65.5 -29.5t48.5 -54.5l80 30l33 -105l-63 -23l116 -358q16 -49 32 -63t44 -14q13 0 23 1.5t18 3.5v-136q-12 -5 -30.5 -10.5t-62.5 -5.5
q-54 0 -92.5 15.5t-63.5 47t-39 77.5l-25 87q-4 15 -7 28t-5 24.5t-3 21t-2 18.5h-5q-6 -24 -12 -47.5t-11 -40.5l-75 -224h-210z" />
    <glyph glyph-name="uni019C" unicode="&#x19c;" horiz-adv-x="1006" 
d="M268 -10q-54 0 -97.5 20t-68.5 63.5t-25 114.5v526h209v-465q0 -46 9 -71t28 -25q27 0 42.5 18.5t22 52.5t6.5 80v410h208v-465q0 -47 8.5 -71.5t28.5 -24.5q30 0 45 20t20.5 57.5t5.5 87.5v396h211v-714h-157l-28 74h-11q-19 -28 -45 -47t-55.5 -28t-57.5 -9
q-45 0 -81.5 20.5t-63.5 58.5h-10q-28 -40 -67 -59.5t-77 -19.5z" />
    <glyph glyph-name="uni019D" unicode="&#x19d;" horiz-adv-x="824" 
d="M63 -267q-28 0 -49 6.5t-31 10.5v145q5 -2 20.5 -6t31.5 -4q17 0 29.5 13t12.5 41v775h272l218 -491h3q0 -8 -0.5 4.5t-2 37.5t-2.5 55.5l-2 61t-1 52.5v280h185v-714h-274l-218 498h-4q-1 10 0 -1t2.5 -36t3 -57t3 -65t1.5 -60v-347q0 -71 -25 -115t-69.5 -64
t-103.5 -20z" />
    <glyph glyph-name="uni019E" unicode="&#x19e;" horiz-adv-x="637" 
d="M400 563q49 0 90.5 -21t67 -66t25.5 -116v-600h-202v555q0 45 -12 71.5t-40 26.5q-29 0 -44.5 -20t-21 -58t-5.5 -93v-242h-202v553h151l25 -68h12q17 28 41 45t53.5 25t61.5 8z" />
    <glyph glyph-name="uni019F" unicode="&#x19f;" horiz-adv-x="750" 
d="M704 358q0 -83 -18.5 -150.5t-58 -116.5t-102 -75t-151.5 -26q-86 0 -148.5 26t-102.5 75t-59.5 116.5t-19.5 151.5q0 111 35 193.5t108 127.5t188 45q118 0 190.5 -45.5t105.5 -128t33 -193.5zM374 141q48 0 77.5 18t44.5 52t17 80h-278q3 -46 18.5 -80t45.5 -52t75 -18
zM375 577q-44 0 -72.5 -17t-44 -49t-20.5 -78h272q-6 69 -37 106.5t-98 37.5z" />
    <glyph glyph-name="Ohorn" unicode="&#x1a0;" horiz-adv-x="804" 
d="M705 358q0 -83 -18.5 -150.5t-58 -116.5t-102.5 -75t-152 -26q-85 0 -147.5 26t-103 75t-60 116.5t-19.5 151.5q0 111 35.5 193.5t109 127.5t188.5 45q86 0 148.5 -24.5t101.5 -70.5q5 16 10 34.5t9 42t4 53.5h191l6 -11q-21 -97 -58 -149t-96 -79q7 -37 9.5 -77t2.5 -86
zM258 358q0 -64 11.5 -110.5t37.5 -71.5t67 -25q43 0 68.5 25t37 71.5t11.5 110.5q0 98 -26 153.5t-90 55.5q-42 0 -67.5 -25t-37.5 -72t-12 -112z" />
    <glyph glyph-name="ohorn" unicode="&#x1a1;" horiz-adv-x="701" 
d="M569 278q0 -92 -32 -156.5t-91.5 -98t-142.5 -33.5q-77 0 -137 33.5t-94 98t-34 156.5q0 137 71.5 211t196.5 74q53 0 103.5 -16.5t85.5 -49.5q10 8 18 26.5t13 47t5 64.5h192l7 -11q-8 -50 -23.5 -94.5t-50 -78t-100.5 -51.5q7 -27 10 -57t3 -65zM244 278q0 -45 6 -75
t19.5 -45.5t35.5 -15.5q21 0 34 15.5t19 45.5t6 75t-6 74.5t-19 44t-35 14.5q-33 0 -46.5 -32.5t-13.5 -100.5z" />
    <glyph glyph-name="uni01A2" unicode="&#x1a2;" horiz-adv-x="1108" 
d="M706 358q0 -85 -18.5 -153t-58.5 -116t-102 -73.5t-149 -25.5q-86 0 -148 25.5t-101.5 73.5t-58 116.5t-18.5 153.5q0 111 33.5 193.5t106 127.5t187.5 45q78 0 136.5 -22t97.5 -63q40 36 89.5 60.5t119.5 24.5q59 0 107 -25t76.5 -78.5t28.5 -140.5v-481h-210v465
q0 47 -16 72.5t-48 25.5q-33 0 -49 -7.5t-29 -15.5q13 -39 18.5 -85t5.5 -97zM270 358q0 -65 11 -111t35 -70t62 -24q41 0 65 24t34.5 70t10.5 111q0 63 -8.5 109t-32 71.5t-68.5 25.5q-40 0 -64 -24t-34.5 -70t-10.5 -112z" />
    <glyph glyph-name="uni01A3" unicode="&#x1a3;" horiz-adv-x="924" 
d="M538 278q0 -72 -18.5 -126t-52.5 -90t-80.5 -54t-102.5 -18q-54 0 -99.5 17.5t-79.5 53t-53 89.5t-19 128q0 94 32 157.5t89.5 95.5t132.5 32q59 0 106.5 -20.5t82.5 -64.5q38 48 85.5 66.5t100.5 18.5q61 0 107.5 -21t73.5 -66.5t27 -119.5v-596h-206v543q0 51 -16 79
t-51 28q-23 0 -38 -6.5t-26 -22.5q2 -23 3.5 -48.5t1.5 -54.5zM243 278q0 -47 4 -77t13.5 -43.5t25.5 -13.5q15 0 24 13.5t13 43t4 77.5t-4 76.5t-13 41.5t-25 13q-27 0 -34.5 -31.5t-7.5 -99.5z" />
    <glyph glyph-name="uni01A4" unicode="&#x1a4;" horiz-adv-x="759" 
d="M223 0v554h-24q-18 0 -27 -13.5t-9 -30.5t3.5 -27t6.5 -18h-158q-4 7 -8.5 22t-4.5 37q0 51 18.5 94t62.5 69.5t122 26.5h268q136 0 195.5 -63t59.5 -168q0 -43 -9.5 -86.5t-37.5 -80t-80 -58.5t-138 -22h-32v-236h-208zM447 396q20 0 36.5 9.5t26 27.5t9.5 44
q0 39 -13.5 58t-41.5 19h-33v-158h16z" />
    <glyph glyph-name="uni01A5" unicode="&#x1a5;" horiz-adv-x="620" 
d="M263 765q27 0 51 -6t31 -11v-146q-1 2 -15 6t-29 4q-12 0 -20.5 -9t-8.5 -30v-6q0 -20 -2 -37t-4 -44h6q13 20 30.5 37.5t42 28.5t57.5 11q51 0 93 -32.5t67 -95.5t25 -157q0 -98 -25.5 -162t-67.5 -95t-91 -31q-36 0 -61 8.5t-40.5 21.5t-26.5 26h-8q3 -5 4 -22.5
t1 -38.5v-225h-206v818q0 69 25 110t69.5 59t102.5 18zM326 410q-20 0 -32 -12t-17 -37.5t-5 -64.5v-16q0 -43 5.5 -73t18.5 -45.5t33 -15.5q15 0 25.5 14t16 44t5.5 78q0 64 -11.5 96t-38.5 32z" />
    <glyph glyph-name="uni01A6" unicode="&#x1a6;" horiz-adv-x="664" 
d="M449 -100l-151 257h-13v-157h-208v714h208v-100h12q98 0 161 -24t93.5 -73.5t30.5 -124.5q0 -49 -18.5 -85t-44.5 -60.5t-49 -41.5l209 -305h-230zM274 316q61 0 80 18.5t19 53.5q0 23 -8.5 37.5t-28.5 21.5t-55 7h4v-138h-11z" />
    <glyph glyph-name="uni01A7" unicode="&#x1a7;" horiz-adv-x="523" 
d="M273 724q106 0 162 -54t56 -153q0 -51 -16 -87.5t-40.5 -61.5t-51.5 -42.5t-50 -31.5q-28 -16 -50 -31t-34 -30.5t-12 -34.5q0 -13 2 -24t11.5 -17t30.5 -6q46 0 97 14.5t109 36.5v-160q-46 -24 -103 -38t-116 -14q-87 0 -138 26t-73 73t-22 110q0 52 14 93.5t44.5 74
t80.5 56.5q45 22 69.5 37.5t34 30.5t9.5 33q0 17 -6 27t-27 10q-34 0 -71 -11.5t-87 -32.5l-59 152q53 25 112.5 40t123.5 15z" />
    <glyph glyph-name="uni01A8" unicode="&#x1a8;" horiz-adv-x="488" 
d="M251 563q60 0 107.5 -17t75.5 -52t28 -89q0 -45 -10.5 -77t-37.5 -56t-78 -46q-44 -18 -65 -30t-27.5 -20t-5.5 -13t1 -8q0 -15 10.5 -21t26.5 -6q32 0 74.5 9.5t89.5 36.5v-142q-46 -25 -86 -33.5t-89 -8.5q-114 0 -171.5 43.5t-57.5 127.5q0 46 14 80.5t42.5 60
t74.5 43.5q47 19 65.5 30t21.5 17.5t3 9.5q0 10 -8.5 15.5t-18.5 5.5q-30 0 -60.5 -12t-74.5 -32l-54 137q54 26 106.5 36.5t103.5 10.5z" />
    <glyph glyph-name="uni01A9" unicode="&#x1a9;" horiz-adv-x="570" 
d="M33 0v150l197 225l-191 194v145h468v-155h-127h-37t-36 1.5t-38 3.5l185 -188l-195 -225q29 3 51 4.5t57 1.5h167v-157h-501z" />
    <glyph glyph-name="uni01AA" unicode="&#x1aa;" horiz-adv-x="430" 
d="M140 772q73 0 114.5 -25t58.5 -70t17 -105v-621q0 -18 11.5 -28.5t29.5 -10.5q27 0 53 5.5t55 14.5v-142q-28 -13 -70 -21.5t-89 -8.5q-54 0 -98.5 16t-71 58t-26.5 120v571h11q-76 0 -110.5 36.5t-34.5 92.5q0 32 17 59t50.5 43t82.5 16zM110 673q-2 -3 -5 -9t-3 -12
q0 -11 9 -22.5t26 -11.5h-13v24q0 15 -5 23t-9 8z" />
    <glyph glyph-name="uni01AB" unicode="&#x1ab;" horiz-adv-x="474" 
d="M284 -240q-24 0 -47.5 3.5t-40.5 10.5v131q8 -3 18 -5.5t21 -2.5q20 0 27.5 9.5t7.5 40.5v43h-5h-7q-27 0 -56.5 8.5t-54.5 29t-41 58.5t-16 96v227h-61v79l79 63l53 112h135v-110h142v-144h-142v-210q0 -33 14.5 -44.5t31.5 -11.5q23 0 47.5 6t50.5 15v-215
q0 -102 -39 -145.5t-117 -43.5z" />
    <glyph glyph-name="uni01AC" unicode="&#x1ac;" horiz-adv-x="643" 
d="M248 0v552h-49q-18 0 -27 -14t-9 -31q0 -15 3.5 -24.5t6.5 -17.5h-158q-4 7 -8.5 22t-4.5 37q0 51 18.5 94t62.5 69.5t122 26.5h410v-162h-157v-552h-210z" />
    <glyph glyph-name="uni01AD" unicode="&#x1ad;" horiz-adv-x="474" 
d="M310 765q32 0 61 -6.5t43 -11.5v-147q-8 3 -30.5 7.5t-45.5 4.5q-22 0 -32 -10t-10 -30v-19h142v-144h-142v-230q0 -18 14.5 -27t31.5 -9q23 0 47.5 6t50.5 15v-143q-27 -13 -70.5 -22t-95.5 -9q-47 0 -89.5 15.5t-68.5 57t-26 119.5v227h-61v79l61 53v37q0 69 27.5 110
t77 59t115.5 18z" />
    <glyph glyph-name="uni01AE" unicode="&#x1ae;" horiz-adv-x="581" 
d="M391 -267q-97 0 -151 47t-54 156v616h-157v162h523v-162h-158v-613q0 -29 13.5 -41.5t29.5 -12.5q17 0 31.5 4t20.5 6v-145q-13 -5 -41.5 -11t-56.5 -6z" />
    <glyph glyph-name="Uhorn" unicode="&#x1af;" horiz-adv-x="854" 
d="M650 615q22 12 34.5 34.5t18 51t5.5 59.5h192l7 -11q-9 -44 -24 -83.5t-42 -72.5t-73 -55.5t-118 -31.5v-254q0 -74 -35.5 -133.5t-103 -94t-165.5 -34.5q-139 0 -211.5 72.5t-72.5 191.5v460h205v-438q0 -75 21.5 -100t64.5 -25q31 0 51.5 12t31 39.5t10.5 74.5v437h204
v-99z" />
    <glyph glyph-name="uhorn" unicode="&#x1b0;" horiz-adv-x="788" 
d="M817 623q-9 -45 -22.5 -84.5t-38.5 -71.5t-67 -55t-108 -34v-378h-151l-25 69h-14q-16 -28 -41 -45.5t-54.5 -25.5t-60.5 -8q-48 0 -88.5 21t-65.5 66t-25 116v360h202v-302q0 -54 11 -82t39 -28q44 0 57 44t13 126v242h203v-65q12 10 20 32t12 52t4 62h193z" />
    <glyph glyph-name="uni01B1" unicode="&#x1b1;" horiz-adv-x="747" 
d="M373 153q37 0 63 18t40.5 56.5t14.5 97.5q0 48 -4.5 90t-21 73t-52.5 45v181h317v-163h-158q41 -20 71 -62t46.5 -96.5t16.5 -115.5q0 -87 -40 -151.5t-114.5 -100t-178.5 -35.5q-100 0 -174.5 36.5t-116 101.5t-41.5 151q0 65 18.5 119.5t50 94t70.5 58.5h-163v163h320
v-181q-36 -14 -53.5 -45.5t-22.5 -74.5t-5 -90q0 -58 14 -95.5t40.5 -56t62.5 -18.5z" />
    <glyph glyph-name="uni01B2" unicode="&#x1b2;" horiz-adv-x="712" 
d="M354 -10q-142 0 -217 75.5t-75 214.5v434h205v-419q0 -76 23 -110t66 -34q32 0 52 15t29 47t9 83v225q0 23 -11.5 32t-25.5 9q-13 0 -25.5 -3.5t-28.5 -11.5v151q20 11 51.5 19t65.5 8q94 0 136 -45.5t42 -113.5v-282q0 -90 -33 -156t-98.5 -102t-164.5 -36z" />
    <glyph glyph-name="uni01B3" unicode="&#x1b3;" horiz-adv-x="660" 
d="M220 0v273l-220 441h222l101 -265l37 97q25 65 55.5 105t69 58t85.5 18q27 0 46 -3.5t32 -8.5v-147q-8 3 -16 5t-17 2q-18 0 -31 -8.5t-26.5 -30.5t-33.5 -61l-99 -196v-279h-205z" />
    <glyph glyph-name="uni01B4" unicode="&#x1b4;" horiz-adv-x="657" 
d="M540 564q27 0 59.5 -6t48.5 -14v-147q-10 2 -18.5 3.5t-16.5 1.5q-17 0 -32.5 -9t-31 -35t-31.5 -78l-104 -336q-31 -88 -102.5 -136t-168.5 -48q-19 0 -41 2.5t-33 4.5v152q6 -1 23.5 -3t27.5 -2q25 0 48 8t39 26t21 47l2 11l-215 547h227l60 -222q7 -24 8.5 -47
t2.5 -63h3q2 18 5.5 44t8.5 46l28 109q12 33 33 66.5t57 55.5t92 22z" />
    <glyph glyph-name="uni01B5" unicode="&#x1b5;" horiz-adv-x="546" 
d="M54 434h164l66 120h-271v160h513v-125l-90 -155h49v-161h-171l-58 -113h279v-160h-523v125l86 148h-44v161z" />
    <glyph glyph-name="uni01B6" unicode="&#x1b6;" horiz-adv-x="487" 
d="M454 553v-118l-60 -97h62v-122h-160l-33 -70h203v-146h-445v109l65 107h-54v122h154l38 69h-192v146h422z" />
    <glyph glyph-name="uni01B7" unicode="&#x1b7;" horiz-adv-x="619" 
d="M528 714v-119l-177 -173q101 -6 161 -61t60 -142q0 -67 -33 -118.5t-102.5 -81t-178.5 -29.5q-61 0 -117 10.5t-103 28.5v166q50 -24 106 -35.5t97 -11.5q72 0 96 22t24 55q0 20 -12.5 35.5t-50 24.5t-113.5 9h-49v129l127 133h-198v158h463z" />
    <glyph glyph-name="uni01B8" unicode="&#x1b8;" horiz-adv-x="574" 
d="M338 -10q-104 0 -172.5 28t-102.5 77.5t-34 112.5q0 65 22.5 110t66 71.5t107.5 34.5l-163 170v120h471v-160h-187l107 -124v-135h-44q-69 0 -107 -9t-53 -25t-15 -37q0 -38 25.5 -59.5t97.5 -21.5q41 0 97.5 13t103.5 36v-164q-49 -19 -102 -28.5t-118 -9.5z" />
    <glyph glyph-name="uni01B9" unicode="&#x1b9;" horiz-adv-x="625" 
d="M335 -240q-105 1 -170 33t-95.5 87.5t-31.5 125.5q0 60 19 111.5t63 89.5t120 55l-178 166v125h508v-146h-256l151 -149v-136h-52q-70 0 -106 -14.5t-48.5 -38t-12.5 -51.5q0 -25 8.5 -49t34 -39.5t76.5 -15.5q27 0 63.5 6t74.5 18t70 28v-162q-50 -22 -107.5 -33
t-130.5 -11z" />
    <glyph glyph-name="uni01BA" unicode="&#x1ba;" horiz-adv-x="516" 
d="M222 -240q-61 0 -109 19t-75.5 57.5t-27.5 97.5q0 46 16.5 81.5t56.5 59.5t113 33q26 3 44.5 7t30.5 9.5t18 14.5t6 23q0 19 -11 29t-35.5 14.5t-65.5 4.5h-58v99l125 109h-212v135h429v-118l-143 -117q30 -2 61.5 -10t58 -26t43 -48t16.5 -77q0 -36 -8 -66t-31 -53
t-68.5 -38t-121.5 -21q-36 -2 -55.5 -7t-27 -13t-7.5 -21q0 -22 18.5 -30.5t47.5 -8.5q72 0 127 15.5t89 27.5v-138q-40 -17 -105.5 -30.5t-138.5 -13.5z" />
    <glyph glyph-name="uni01BB" unicode="&#x1bb;" horiz-adv-x="536" 
d="M246 761q74 0 127 -29t82 -76.5t29 -104.5q0 -33 -1 -62t-15 -61h46v-122h-137l-128 -153v-9h262v-144h-504v142l140 164h-139v122h246q23 31 23 58v53q0 28 -15.5 48.5t-40.5 20.5q-38 0 -65.5 -21t-53.5 -52l-99 116q16 19 46 44.5t78.5 45.5t118.5 20z" />
    <glyph glyph-name="uni01BC" unicode="&#x1bc;" horiz-adv-x="591" 
d="M245 -10q-77 0 -134 12.5t-84 25.5v166q18 -11 49 -21.5t69.5 -17t79.5 -6.5q37 0 63.5 8t41.5 25.5t15 47.5q0 44 -24 61.5t-82 17.5h-104v237h-112v168h516v-168h-226v-87h5q72 0 125.5 -21.5t83 -68.5t29.5 -124q0 -74 -30 -132t-98 -90.5t-183 -32.5z" />
    <glyph glyph-name="uni01BD" unicode="&#x1bd;" horiz-adv-x="595" 
d="M248 -11q-71 0 -124 11t-75 21v154q14 -8 47.5 -17.5t78 -15.5t91.5 -4q38 2 56 8t24 17t6 27q0 23 -18 31.5t-57 8.5h-141v180h-95v143h490v-143h-218v-57h47q69 0 111 -17.5t60.5 -55t18.5 -97.5q0 -58 -31 -102t-97.5 -68t-173.5 -24z" />
    <glyph glyph-name="uni01BE" unicode="&#x1be;" horiz-adv-x="499" 
d="M227 -10q-31 0 -69 5t-73 14t-59 21v152q20 -12 52.5 -24.5t70.5 -21t73 -8.5q18 0 28 4t14 12.5t4 20.5q0 11 -2.5 18.5t-10 14t-22.5 12.5q-46 20 -72.5 40.5t-37 50.5t-10.5 75v33h-100v79l103 63l54 112h134v-110h118v-144h-118v-18q0 -14 5.5 -24.5t19.5 -20
t38 -21.5q32 -16 54.5 -36t34.5 -47.5t12 -67.5q0 -50 -22.5 -92t-75 -67t-143.5 -25z" />
    <glyph glyph-name="uni01BF" unicode="&#x1bf;" horiz-adv-x="620" 
d="M405 563q57 0 99.5 -29.5t66.5 -86.5t24 -140q0 -61 -19 -116.5t-58.5 -100t-100.5 -72.5t-145 -35v-223h-206v793h167l27 -64h9q13 19 31 36t44 27.5t61 10.5zM329 406q-28 0 -42.5 -28t-14.5 -81v-168q24 4 44.5 16.5t36 34.5t24 53.5t8.5 72.5q0 32 -6 54.5t-18.5 34
t-31.5 11.5z" />
    <glyph glyph-name="uni01C0" unicode="&#x1c0;" horiz-adv-x="311" 
d="M76 0v760h159v-760h-159z" />
    <glyph glyph-name="uni01C1" unicode="&#x1c1;" horiz-adv-x="594" 
d="M76 0v760h159v-760h-159zM359 0v760h159v-760h-159z" />
    <glyph glyph-name="uni01C2" unicode="&#x1c2;" horiz-adv-x="486" 
d="M322 760v-198h130v-136h-130v-72h130v-136h-130v-218h-159v218h-126v136h126v72h-126v136h126v198h159z" />
    <glyph glyph-name="uni01C3" unicode="&#x1c3;" horiz-adv-x="290" 
d="M225 252h-173l-24 462h221zM32 81q0 52 31.5 73t74.5 21q42 0 72.5 -21t30.5 -73q0 -49 -30.5 -71t-72.5 -22q-43 0 -74.5 22t-31.5 71z" />
    <glyph glyph-name="uni01C4" unicode="&#x1c4;" horiz-adv-x="1269" 
d="M643 372q0 -124 -43.5 -207t-121.5 -124t-180 -41h-232v714h244q110 0 184 -39.5t111.5 -115.5t37.5 -187zM432 365q0 65 -13 108t-40.5 64t-69.5 21h-39v-400h28q71 0 102.5 51t31.5 156zM1245 0h-536v119l273 439h-267v156h523v-119l-273 -439h280v-156zM1233 913
q-15 -17 -36.5 -42.5t-43 -53t-37.5 -50.5h-190q-14 23 -35.5 50t-43.5 52.5t-40 43.5v14h133q25 -16 40 -33t40 -40q25 23 42 40.5t42 32.5h129v-14z" />
    <glyph glyph-name="uni01C5" unicode="&#x1c5;" horiz-adv-x="1174" 
d="M643 372q0 -124 -43.5 -207t-121.5 -124t-180 -41h-232v714h244q110 0 184 -39.5t111.5 -115.5t37.5 -187zM432 365q0 65 -13 108t-40.5 64t-69.5 21h-39v-400h28q71 0 102.5 51t31.5 156zM1153 0h-445v109l203 298h-192v146h422v-118l-191 -289h203v-146zM1182 752
q-15 -17 -36.5 -42.5t-43 -53t-37.5 -50.5h-190q-14 23 -35.5 50t-43.5 52.5t-40 43.5v14h133q25 -16 40 -33t40 -40q25 23 42 40.5t42 32.5h129v-14z" />
    <glyph glyph-name="uni01C6" unicode="&#x1c6;" horiz-adv-x="1097" 
d="M217 -10q-77 0 -128 73t-51 213q0 142 52.5 214.5t134.5 72.5q34 0 58 -10.5t41.5 -29t30.5 -41.5h3q-4 21 -5.5 58t-1.5 72v148h203v-760h-151l-45 70h-7q-12 -22 -30 -40t-43.5 -29t-60.5 -11zM304 141q35 0 50 29t15 89v15q0 65 -14 100t-53 35q-25 0 -42.5 -33
t-17.5 -103q0 -69 18 -100.5t44 -31.5zM1076 0h-445v109l203 298h-192v146h422v-118l-191 -289h203v-146zM1091 752q-15 -17 -36.5 -42.5t-43 -53t-37.5 -50.5h-190q-14 23 -35.5 50t-43.5 52.5t-40 43.5v14h133q25 -16 40 -33t40 -40q25 23 42 40.5t42 32.5h129v-14z" />
    <glyph glyph-name="uni01C7" unicode="&#x1c7;" horiz-adv-x="898" 
d="M66 0v714h204v-558h250v-156h-454zM579 -224q-33 0 -57.5 3t-42.5 7v150q15 -3 31.5 -6.5t35.5 -3.5q37 0 54 14t22 42.5t5 70.5v661h205v-644q0 -107 -32 -172t-89 -93.5t-132 -28.5z" />
    <glyph glyph-name="uni01C8" unicode="&#x1c8;" horiz-adv-x="871" 
d="M66 0v714h204v-558h250v-156h-454zM614 -240q-20 0 -50 3.5t-49 8.5v149q14 -4 25.5 -6.5t24.5 -2.5q18 0 32.5 16.5t14.5 66.5v558h201v-598q0 -50 -18.5 -94.5t-62 -72.5t-118.5 -28zM608 691q0 51 31 68t74 17q44 0 75.5 -17t31.5 -68q0 -49 -31.5 -66.5t-75.5 -17.5
q-43 0 -74 17.5t-31 66.5z" />
    <glyph glyph-name="uni01C9" unicode="&#x1c9;" horiz-adv-x="629" 
d="M258 0h-202v760h202v-760zM372 -240q-20 0 -50 3.5t-49 8.5v149q14 -4 25.5 -6.5t24.5 -2.5q18 0 32.5 16.5t14.5 66.5v558h201v-598q0 -50 -18.5 -94.5t-62 -72.5t-118.5 -28zM366 691q0 51 31 68t74 17q44 0 75.5 -17t31.5 -68q0 -49 -31.5 -66.5t-75.5 -17.5
q-43 0 -74 17.5t-31 66.5z" />
    <glyph glyph-name="uni01CA" unicode="&#x1ca;" horiz-adv-x="1138" 
d="M730 0h-270l-219 503h-4l1 -17.5t3 -45.5t3.5 -59.5t1.5 -58.5v-322h-180v714h269l218 -496h3l-1 17t-2.5 44t-2.5 57t-1 55v323h181v-714zM819 -224q-33 0 -57.5 3t-42.5 7v150q15 -3 31.5 -6.5t35.5 -3.5q37 0 54 14t22 42.5t5 70.5v661h205v-644q0 -107 -32 -172
t-89 -93.5t-132 -28.5z" />
    <glyph glyph-name="uni01CB" unicode="&#x1cb;" horiz-adv-x="1111" 
d="M730 0h-270l-219 503h-4l1 -17.5t3 -45.5t3.5 -59.5t1.5 -58.5v-322h-180v714h269l218 -496h3l-1 17t-2.5 44t-2.5 57t-1 55v323h181v-714zM854 -240q-20 0 -50 3.5t-49 8.5v149q14 -4 25.5 -6.5t24.5 -2.5q18 0 32.5 16.5t14.5 66.5v558h201v-598q0 -50 -18.5 -94.5
t-62 -72.5t-118.5 -28zM848 691q0 51 31 68t74 17q44 0 75.5 -17t31.5 -68q0 -49 -31.5 -66.5t-75.5 -17.5q-43 0 -74 17.5t-31 66.5z" />
    <glyph glyph-name="uni01CC" unicode="&#x1cc;" horiz-adv-x="952" 
d="M400 563q80 0 131.5 -48t51.5 -155v-360h-202v302q0 55 -12 83t-40 28q-43 0 -57 -44t-14 -127v-242h-202v553h151l28 -73h6q17 26 39 44.5t51.5 28.5t68.5 10zM695 -240q-20 0 -50 3.5t-49 8.5v149q14 -4 25.5 -6.5t24.5 -2.5q18 0 32.5 16.5t14.5 66.5v558h201v-598
q0 -50 -18.5 -94.5t-62 -72.5t-118.5 -28zM689 691q0 51 31 68t74 17q44 0 75.5 -17t31.5 -68q0 -49 -31.5 -66.5t-75.5 -17.5q-43 0 -74 17.5t-31 66.5z" />
    <glyph glyph-name="uni01CD" unicode="&#x1cd;" horiz-adv-x="701" 
d="M478 0l-24 134h-203l-26 -134h-225l209 717h280l212 -717h-223zM387 411q-5 24 -12 54t-13.5 62.5t-10.5 61.5q-6 -44 -16 -92.5t-18 -84.5l-28 -120h126zM557 913q-15 -17 -36.5 -42.5t-43 -53t-37.5 -50.5h-190q-14 23 -35.5 50t-43.5 52.5t-40 43.5v14h133
q25 -16 40 -33t40 -40q25 23 42 40.5t42 32.5h129v-14z" />
    <glyph glyph-name="uni01CE" unicode="&#x1ce;" horiz-adv-x="596" 
d="M334 563q97 0 152.5 -52t55.5 -148v-363h-139l-39 73h-4q-22 -29 -45 -47.5t-53 -27t-74 -8.5t-80 19.5t-56.5 59t-20.5 100.5q0 89 58 132.5t165 47.5l85 3v8q0 37 -14.5 52.5t-38.5 15.5q-28 0 -67 -11.5t-78 -29.5l-55 126q48 25 108.5 37.5t139.5 12.5zM307 245
q-39 -2 -55.5 -18.5t-16.5 -46.5q0 -28 12 -41.5t31 -13.5q25 0 44 22t19 57v43zM506 752q-15 -17 -36.5 -42.5t-43 -53t-37.5 -50.5h-190q-14 23 -35.5 50t-43.5 52.5t-40 43.5v14h133q25 -16 40 -33t40 -40q25 23 42 40.5t42 32.5h129v-14z" />
    <glyph glyph-name="uni01CF" unicode="&#x1cf;" horiz-adv-x="440" 
d="M407 0h-374v110l85 34v427l-85 33v110h374v-110l-84 -33v-427l84 -34v-110zM414 913q-15 -17 -36.5 -42.5t-43 -53t-37.5 -50.5h-190q-14 23 -35.5 50t-43.5 52.5t-40 43.5v14h133q25 -16 40 -33t40 -40q25 23 42 40.5t42 32.5h129v-14z" />
    <glyph glyph-name="uni01D0" unicode="&#x1d0;" horiz-adv-x="316" 
d="M259 0h-202v553h202v-553zM357 752q-15 -17 -36.5 -42.5t-43 -53t-37.5 -50.5h-190q-14 23 -35.5 50t-43.5 52.5t-40 43.5v14h133q25 -16 40 -33t40 -40q25 23 42 40.5t42 32.5h129v-14z" />
    <glyph glyph-name="uni01D1" unicode="&#x1d1;" horiz-adv-x="750" 
d="M704 358q0 -83 -18.5 -150.5t-58 -116.5t-102 -75t-151.5 -26q-86 0 -148.5 26t-102.5 75t-59.5 116.5t-19.5 151.5q0 111 35 193.5t108 127.5t188 45q118 0 190.5 -45.5t105.5 -128t33 -193.5zM258 358q0 -64 11.5 -110.5t37 -71.5t67.5 -25q44 0 69 25t36 71.5
t11 110.5q0 97 -25 153t-90 56q-43 0 -69 -25.5t-37 -72t-11 -111.5zM593 913q-15 -17 -36.5 -42.5t-43 -53t-37.5 -50.5h-190q-14 23 -35.5 50t-43.5 52.5t-40 43.5v14h133q25 -16 40 -33t40 -40q25 23 42 40.5t42 32.5h129v-14z" />
    <glyph glyph-name="uni01D2" unicode="&#x1d2;" horiz-adv-x="608" 
d="M569 278q0 -69 -18 -123t-52.5 -90.5t-84 -55.5t-111.5 -19q-58 0 -106.5 19t-84 55.5t-55 90.5t-19.5 123q0 92 32 155.5t92.5 96.5t143.5 33q76 0 135.5 -33t93.5 -96.5t34 -155.5zM243 278q0 -47 6 -80t19.5 -49.5t36.5 -16.5t35.5 16.5t18 49.5t5.5 80t-5.5 79
t-18.5 48t-36 16q-33 0 -47 -36t-14 -107zM513 752q-15 -17 -36.5 -42.5t-43 -53t-37.5 -50.5h-190q-14 23 -35.5 50t-43.5 52.5t-40 43.5v14h133q25 -16 40 -33t40 -40q25 23 42 40.5t42 32.5h129v-14z" />
    <glyph glyph-name="uni01D3" unicode="&#x1d3;" horiz-adv-x="712" 
d="M650 284q0 -90 -33 -156t-98.5 -102t-164.5 -36q-142 0 -217 75.5t-75 214.5v434h205v-419q0 -76 23 -110t66 -34q32 0 52 15t29 47t9 83v418h204v-430zM573 913q-15 -17 -36.5 -42.5t-43 -53t-37.5 -50.5h-190q-14 23 -35.5 50t-43.5 52.5t-40 43.5v14h133
q25 -16 40 -33t40 -40q25 23 42 40.5t42 32.5h129v-14z" />
    <glyph glyph-name="uni01D4" unicode="&#x1d4;" horiz-adv-x="637" 
d="M581 553v-553h-151l-25 69h-12q-16 -28 -40.5 -45.5t-54 -25.5t-61.5 -8q-49 0 -90 21t-66 66t-25 116v360h202v-302q0 -54 11 -82t39 -28q29 0 44.5 19.5t21 57.5t5.5 93v242h202zM529 752q-15 -17 -36.5 -42.5t-43 -53t-37.5 -50.5h-190q-14 23 -35.5 50t-43.5 52.5
t-40 43.5v14h133q25 -16 40 -33t40 -40q25 23 42 40.5t42 32.5h129v-14z" />
    <glyph glyph-name="uni01D5" unicode="&#x1d5;" horiz-adv-x="712" 
d="M552 1028v-107h-343v107h343zM281 894q35 0 56 -17t21 -51q0 -31 -21 -49t-56 -18q-37 0 -56 18t-19 49q0 34 19 51t56 17zM475 894q34 0 55.5 -17t21.5 -51q0 -31 -21.5 -49t-55.5 -18q-35 0 -54.5 18t-19.5 49q0 34 19.5 51t54.5 17zM650 284q0 -90 -33 -156
t-98.5 -102t-164.5 -36q-142 0 -217 75.5t-75 214.5v434h205v-419q0 -76 23 -110t66 -34q32 0 52 15t29 47t9 83v418h204v-430z" />
    <glyph glyph-name="uni01D6" unicode="&#x1d6;" horiz-adv-x="637" 
d="M508 867v-107h-343v107h343zM237 733q35 0 56 -17t21 -51q0 -31 -21 -49t-56 -18q-37 0 -56 18t-19 49q0 34 19 51t56 17zM431 733q34 0 55.5 -17t21.5 -51q0 -31 -21.5 -49t-55.5 -18q-35 0 -54.5 18t-19.5 49q0 34 19.5 51t54.5 17zM581 553v-553h-151l-25 69h-12
q-16 -28 -40.5 -45.5t-54 -25.5t-61.5 -8q-49 0 -90 21t-66 66t-25 116v360h202v-302q0 -54 11 -82t39 -28q29 0 44.5 19.5t21 57.5t5.5 93v242h202z" />
    <glyph glyph-name="uni01D7" unicode="&#x1d7;" horiz-adv-x="712" 
d="M307 917q25 28 44 62.5t39 68.5h206v-10q-22 -21 -49.5 -46t-55 -49t-51.5 -40h-133v14zM281 759q-37 0 -56 18t-19 49q0 34 19 51t56 17q35 0 56 -17t21 -51q0 -31 -21 -49t-56 -18zM475 759q-35 0 -54.5 18t-19.5 49q0 34 19.5 51t54.5 17q34 0 55.5 -17t21.5 -51
q0 -31 -21.5 -49t-55.5 -18zM650 284q0 -90 -33 -156t-98.5 -102t-164.5 -36q-142 0 -217 75.5t-75 214.5v434h205v-419q0 -76 23 -110t66 -34q32 0 52 15t29 47t9 83v418h204v-430z" />
    <glyph glyph-name="uni01D8" unicode="&#x1d8;" horiz-adv-x="637" 
d="M263 756q25 28 44 62.5t39 68.5h206v-10q-22 -20 -49.5 -45.5t-55 -49.5t-51.5 -40h-133v14zM237 598q-37 0 -56 18t-19 49q0 34 19 51t56 17q35 0 56 -17t21 -51q0 -31 -21 -49t-56 -18zM431 598q-35 0 -54.5 18t-19.5 49q0 34 19.5 51t54.5 17q34 0 55.5 -17t21.5 -51
q0 -31 -21.5 -49t-55.5 -18zM581 553v-553h-151l-25 69h-12q-16 -28 -40.5 -45.5t-54 -25.5t-61.5 -8q-49 0 -90 21t-66 66t-25 116v360h202v-302q0 -54 11 -82t39 -28q29 0 44.5 19.5t21 57.5t5.5 93v242h202z" />
    <glyph glyph-name="uni01D9" unicode="&#x1d9;" horiz-adv-x="712" 
d="M295 910q-16 23 -31.5 43t-32 39.5t-35.5 38.5v13h72q33 -13 60.5 -30.5t51.5 -38.5q25 21 53.5 38.5t57.5 30.5h71v-13q-15 -17 -31 -36.5t-32.5 -40.5t-34.5 -44h-169zM281 759q-37 0 -56 18t-19 49q0 34 19 51t56 17q35 0 56 -17t21 -51q0 -31 -21 -49t-56 -18z
M475 759q-35 0 -54.5 18t-19.5 49q0 34 19.5 51t54.5 17q34 0 55.5 -17t21.5 -51q0 -31 -21.5 -49t-55.5 -18zM650 284q0 -90 -33 -156t-98.5 -102t-164.5 -36q-142 0 -217 75.5t-75 214.5v434h205v-419q0 -76 23 -110t66 -34q32 0 52 15t29 47t9 83v418h204v-430z" />
    <glyph glyph-name="uni01DA" unicode="&#x1da;" horiz-adv-x="637" 
d="M251 749q-16 23 -31.5 43t-32 39.5t-35.5 38.5v13h72q33 -13 60.5 -30.5t51.5 -38.5q25 21 53.5 38.5t57.5 30.5h71v-13q-15 -17 -31 -36.5t-32.5 -40.5t-34.5 -44h-169zM237 598q-37 0 -56 18t-19 49q0 34 19 51t56 17q35 0 56 -17t21 -51q0 -31 -21 -49t-56 -18z
M431 598q-35 0 -54.5 18t-19.5 49q0 34 19.5 51t54.5 17q34 0 55.5 -17t21.5 -51q0 -31 -21.5 -49t-55.5 -18zM581 553v-553h-151l-25 69h-12q-16 -28 -40.5 -45.5t-54 -25.5t-61.5 -8q-49 0 -90 21t-66 66t-25 116v360h202v-302q0 -54 11 -82t39 -28q29 0 44.5 19.5
t21 57.5t5.5 93v242h202z" />
    <glyph glyph-name="uni01DB" unicode="&#x1db;" horiz-adv-x="712" 
d="M369 1048q20 -34 38.5 -68.5t43.5 -62.5v-14h-134q-23 16 -51 40t-55 49t-49 46v10h207zM282 894q35 0 55.5 -17t20.5 -51q0 -31 -20.5 -49t-55.5 -18q-37 0 -56.5 18t-19.5 49q0 34 19.5 51t56.5 17zM476 894q34 0 55 -17t21 -51q0 -31 -21 -49t-55 -18q-36 0 -55 18
t-19 49q0 34 19 51t55 17zM650 284q0 -90 -33 -156t-98.5 -102t-164.5 -36q-142 0 -217 75.5t-75 214.5v434h205v-419q0 -76 23 -110t66 -34q32 0 52 15t29 47t9 83v418h204v-430z" />
    <glyph glyph-name="uni01DC" unicode="&#x1dc;" horiz-adv-x="637" 
d="M325 887q20 -34 38.5 -68.5t43.5 -62.5v-14h-134q-24 16 -51.5 40t-54.5 49.5t-49 45.5v10h207zM238 733q35 0 55.5 -17t20.5 -51q0 -31 -20.5 -49t-55.5 -18q-37 0 -56.5 18t-19.5 49q0 34 19.5 51t56.5 17zM432 733q34 0 55 -17t21 -51q0 -31 -21 -49t-55 -18
q-36 0 -55 18t-19 49q0 34 19 51t55 17zM581 553v-553h-151l-25 69h-12q-16 -28 -40.5 -45.5t-54 -25.5t-61.5 -8q-49 0 -90 21t-66 66t-25 116v360h202v-302q0 -54 11 -82t39 -28q29 0 44.5 19.5t21 57.5t5.5 93v242h202z" />
    <glyph glyph-name="uni01DD" unicode="&#x1dd;" horiz-adv-x="595" 
d="M278 563q80 0 143 -29.5t99.5 -92t36.5 -161.5t-33 -163.5t-92.5 -95.5t-138.5 -31q-78 0 -135 28t-88 84.5t-31 140.5v85h315q-2 44 -27.5 71.5t-78.5 27.5q-48 0 -88.5 -10t-84.5 -32v137q38 17 84 29t119 12zM219 208q1 -24 8.5 -44t22 -32t33.5 -12q26 0 44.5 21
t21.5 67h-130z" />
    <glyph glyph-name="uni01DE" unicode="&#x1de;" horiz-adv-x="701" 
d="M536 1028v-107h-343v107h343zM265 894q35 0 56 -17t21 -51q0 -31 -21 -49t-56 -18q-37 0 -56 18t-19 49q0 34 19 51t56 17zM459 894q34 0 55.5 -17t21.5 -51q0 -31 -21.5 -49t-55.5 -18q-35 0 -54.5 18t-19.5 49q0 34 19.5 51t54.5 17zM478 0l-24 134h-203l-26 -134h-225
l209 717h280l212 -717h-223zM387 411q-5 24 -12 54t-13.5 62.5t-10.5 61.5q-6 -44 -16 -92.5t-18 -84.5l-28 -120h126z" />
    <glyph glyph-name="uni01DF" unicode="&#x1df;" horiz-adv-x="596" 
d="M485 867v-107h-343v107h343zM214 733q35 0 56 -17t21 -51q0 -31 -21 -49t-56 -18q-37 0 -56 18t-19 49q0 34 19 51t56 17zM408 733q34 0 55.5 -17t21.5 -51q0 -31 -21.5 -49t-55.5 -18q-35 0 -54.5 18t-19.5 49q0 34 19.5 51t54.5 17zM334 563q97 0 152.5 -52t55.5 -148
v-363h-139l-39 73h-4q-22 -29 -45 -47.5t-53 -27t-74 -8.5t-80 19.5t-56.5 59t-20.5 100.5q0 89 58 132.5t165 47.5l85 3v8q0 37 -14.5 52.5t-38.5 15.5q-28 0 -67 -11.5t-78 -29.5l-55 126q48 25 108.5 37.5t139.5 12.5zM307 245q-39 -2 -55.5 -18.5t-16.5 -46.5
q0 -28 12 -41.5t31 -13.5q25 0 44 22t19 57v43z" />
    <glyph glyph-name="uni01E0" unicode="&#x1e0;" horiz-adv-x="701" 
d="M192 927v108h343v-108h-343zM362 898q35 0 55.5 -17.5t20.5 -51.5q0 -31 -20.5 -49t-55.5 -18q-36 0 -56 18t-20 49q0 34 20 51.5t56 17.5zM478 0l-24 134h-203l-26 -134h-225l209 717h280l212 -717h-223zM387 411q-5 24 -12 54t-13.5 62.5t-10.5 61.5q-6 -44 -16 -92.5
t-18 -84.5l-28 -120h126z" />
    <glyph glyph-name="uni01E1" unicode="&#x1e1;" horiz-adv-x="596" 
d="M484 874v-108h-343v108h343zM311 737q35 0 55.5 -17.5t20.5 -51.5q0 -31 -20.5 -49t-55.5 -18q-36 0 -56 18t-20 49q0 34 20 51.5t56 17.5zM334 563q97 0 152.5 -52t55.5 -148v-363h-139l-39 73h-4q-22 -29 -45 -47.5t-53 -27t-74 -8.5t-80 19.5t-56.5 59t-20.5 100.5
q0 89 58 132.5t165 47.5l85 3v8q0 37 -14.5 52.5t-38.5 15.5q-28 0 -67 -11.5t-78 -29.5l-55 126q48 25 108.5 37.5t139.5 12.5zM307 245q-39 -2 -55.5 -18.5t-16.5 -46.5q0 -28 12 -41.5t31 -13.5q25 0 44 22t19 57v43z" />
    <glyph glyph-name="uni01E2" unicode="&#x1e2;" horiz-adv-x="886" 
d="M847 0h-399v134h-186l-33 -134h-236l282 714h572v-155h-194v-112h179v-155h-179v-135h194v-157zM320 294h128v257h-46zM682 882v-115h-346v115h346z" />
    <glyph glyph-name="uni01E3" unicode="&#x1e3;" horiz-adv-x="889" 
d="M620 563q67 0 118.5 -28t81.5 -84.5t30 -141.5v-84h-313q2 -40 30 -69.5t85 -29.5q30 0 73.5 9t89.5 33v-137q-37 -21 -81 -31t-115 -10q-38 0 -74 10t-67 30.5t-55 52.5q-34 -35 -63.5 -55.5t-66.5 -29t-96 -8.5q-42 0 -80 19.5t-62 60t-24 102.5t30.5 100t83.5 56.5
t118 20.5l82 3v9q0 40 -17.5 53.5t-36.5 13.5q-28 0 -68 -10.5t-78 -28.5l-54 125q47 25 102.5 37t114.5 12q41 0 79.5 -11.5t72.5 -34.5q34 24 71 35t89 11zM315 245q-46 -3 -62.5 -21t-16.5 -50q0 -27 13 -38t32 -11q17 0 31.5 10t23.5 28t9 41v43zM606 433
q-25 0 -44 -19.5t-22 -68.5h133q0 24 -8 44t-23 32t-36 12zM636 721v-115h-346v115h346z" />
    <glyph glyph-name="uni01E4" unicode="&#x1e4;" horiz-adv-x="681" 
d="M367 -10q-87 0 -158.5 36.5t-114 113.5t-42.5 199q0 121 41.5 207t121 132t193.5 46q53 0 106.5 -13t94.5 -32l-61 -153q-15 10 -41 17.5t-56 12.5t-57 5q-46 0 -74.5 -24t-41 -72t-12.5 -121q0 -78 13 -123t37 -64t55 -19q9 0 16 1.5t15 4.5v36h-78v115h78v38h-73v115
h277v-153h61v-115h-61v-150q-44 -15 -101.5 -27.5t-137.5 -12.5z" />
    <glyph glyph-name="uni01E5" unicode="&#x1e5;" horiz-adv-x="620" 
d="M233 563q43 0 72.5 -17t55.5 -55h4l14 62h175v-538h43v-95h-52q-29 -84 -92 -122t-180 -38q-53 0 -107.5 7.5t-105.5 23.5v136q53 -20 94.5 -29t93.5 -9q31 0 54 7.5t32 23.5h-119v95h132v40q0 14 1 33t3 31h-4q-25 -41 -58 -58t-71 -17q-58 0 -99.5 28.5t-63.5 85.5
t-22 140q0 129 56 197t144 68zM302 407q-18 0 -31 -12t-20.5 -36.5t-7.5 -60.5q0 -59 17.5 -85t45.5 -26q11 0 21 5.5t18 16t13 26.5t5 37v15q0 47 -7.5 73t-21.5 36.5t-32 10.5z" />
    <glyph glyph-name="uni01E6" unicode="&#x1e6;" horiz-adv-x="704" 
d="M344 418h302v-385q-52 -19 -124.5 -31t-146.5 -12q-95 0 -170 40t-118 122t-43 207q0 112 40 194t119 126.5t195 44.5q68 0 127 -12.5t100 -32.5l-63 -151q-39 19 -78 28.5t-84 9.5q-59 0 -91 -29t-43.5 -77t-11.5 -106q0 -66 17.5 -112t49 -69.5t72.5 -23.5q6 0 19.5 1
t27 3t19.5 4v112h-115v149zM595 913q-15 -17 -36.5 -42.5t-43 -53t-37.5 -50.5h-190q-14 23 -35.5 50t-43.5 52.5t-40 43.5v14h133q25 -16 40 -33t40 -40q25 23 42 40.5t42 32.5h129v-14z" />
    <glyph glyph-name="uni01E7" unicode="&#x1e7;" horiz-adv-x="610" 
d="M222 563q59 0 90.5 -22.5t47.5 -55.5h4l14 68h176v-554q0 -78 -31 -131t-94.5 -80.5t-163.5 -27.5q-67 0 -116 7t-93 25v159q32 -14 58 -23.5t56 -14t74 -4.5q55 0 81.5 21t26.5 61v10q0 13 1.5 31t5.5 38h-7q-13 -33 -43.5 -56.5t-88.5 -23.5q-79 0 -130.5 73t-51.5 213
q0 94 24 157.5t66 96.5t94 33zM303 415q-20 0 -33.5 -16t-20 -47.5t-6.5 -78.5q0 -72 15.5 -103.5t47.5 -31.5q19 0 31.5 7.5t19.5 22t9.5 36.5t2.5 52v23q0 43 -4.5 73.5t-18.5 46.5t-43 16zM508 752q-15 -17 -36.5 -42.5t-43 -53t-37.5 -50.5h-190q-14 23 -35.5 50
t-43.5 52.5t-40 43.5v14h133q25 -16 40 -33t40 -40q25 23 42 40.5t42 32.5h129v-14z" />
    <glyph glyph-name="uni01E8" unicode="&#x1e8;" horiz-adv-x="658" 
d="M658 0h-229l-108 273l-50 -34v-239h-205v714h205v-310q10 23 26 46.5t27 45.5l120 218h221l-198 -320zM558 913q-15 -17 -36.5 -42.5t-43 -53t-37.5 -50.5h-190q-14 23 -35.5 50t-43.5 52.5t-40 43.5v14h133q25 -16 40 -33t40 -40q25 23 42 40.5t42 32.5h129v-14z" />
    <glyph glyph-name="uni01E9" unicode="&#x1e9;" horiz-adv-x="640" 
d="M259 461q0 -34 -3 -75t-9 -75h5q5 10 12.5 24t17.5 30t21 32l103 156h224l-168 -235l178 -318h-229l-95 198l-57 -47v-151h-203v760h203v-299zM357 959q-15 -17 -36.5 -42.5t-43 -53t-37.5 -50.5h-190q-14 23 -35.5 50t-43.5 52.5t-40 43.5v14h133q25 -16 40 -33t40 -40
q25 23 42 40.5t42 32.5h129v-14z" />
    <glyph glyph-name="uni01EA" unicode="&#x1ea;" horiz-adv-x="750" 
d="M704 358q0 -83 -18.5 -150.5t-58 -116.5t-102 -75t-151.5 -26q-86 0 -148.5 26t-102.5 75t-59.5 116.5t-19.5 151.5q0 111 35 193.5t108 127.5t188 45q118 0 190.5 -45.5t105.5 -128t33 -193.5zM258 358q0 -64 11.5 -110.5t37 -71.5t67.5 -25q44 0 69 25t36 71.5
t11 110.5q0 97 -25 153t-90 56q-43 0 -69 -25.5t-37 -72t-11 -111.5zM409 -97q0 -18 9.5 -25.5t25.5 -7.5q11 0 28 3.5t27 7.5v-108q-16 -5 -36.5 -9t-47.5 -4q-36 0 -66.5 13.5t-49 39t-18.5 60.5q0 23 7 46.5t30 49.5t72 56l76 -25q-31 -32 -44 -53t-13 -44z" />
    <glyph glyph-name="uni01EB" unicode="&#x1eb;" horiz-adv-x="608" 
d="M569 278q0 -69 -18 -123t-52.5 -90.5t-84 -55.5t-111.5 -19q-58 0 -106.5 19t-84 55.5t-55 90.5t-19.5 123q0 92 32 155.5t92.5 96.5t143.5 33q76 0 135.5 -33t93.5 -96.5t34 -155.5zM243 278q0 -47 6 -80t19.5 -49.5t36.5 -16.5t35.5 16.5t18 49.5t5.5 80t-5.5 79
t-18.5 48t-36 16q-33 0 -47 -36t-14 -107zM321 -97q0 -18 9.5 -25.5t25.5 -7.5q11 0 28 3.5t27 7.5v-108q-16 -5 -36.5 -9t-47.5 -4q-36 0 -66.5 13.5t-49 39t-18.5 60.5q0 23 7 46.5t30 49.5t72 56l76 -25q-31 -32 -44 -53t-13 -44z" />
    <glyph glyph-name="uni01EC" unicode="&#x1ec;" horiz-adv-x="750" 
d="M704 358q0 -83 -18.5 -150.5t-58 -116.5t-102 -75t-151.5 -26q-86 0 -148.5 26t-102.5 75t-59.5 116.5t-19.5 151.5q0 111 35 193.5t108 127.5t188 45q118 0 190.5 -45.5t105.5 -128t33 -193.5zM258 358q0 -64 11.5 -110.5t37 -71.5t67.5 -25q44 0 69 25t36 71.5
t11 110.5q0 97 -25 153t-90 56q-43 0 -69 -25.5t-37 -72t-11 -111.5zM554 882v-115h-346v115h346zM407 -97q0 -18 9.5 -25.5t25.5 -7.5q11 0 28 3.5t27 7.5v-108q-16 -5 -36.5 -9t-47.5 -4q-36 0 -66.5 13.5t-49 39t-18.5 60.5q0 23 7 46.5t30 49.5t72 56l76 -25
q-31 -32 -44 -53t-13 -44z" />
    <glyph glyph-name="uni01ED" unicode="&#x1ed;" horiz-adv-x="608" 
d="M569 278q0 -69 -18 -123t-52.5 -90.5t-84 -55.5t-111.5 -19q-58 0 -106.5 19t-84 55.5t-55 90.5t-19.5 123q0 92 32 155.5t92.5 96.5t143.5 33q76 0 135.5 -33t93.5 -96.5t34 -155.5zM243 278q0 -47 6 -80t19.5 -49.5t36.5 -16.5t35.5 16.5t18 49.5t5.5 80t-5.5 79
t-18.5 48t-36 16q-33 0 -47 -36t-14 -107zM474 721v-115h-346v115h346zM324 -97q0 -18 9.5 -25.5t25.5 -7.5q11 0 28 3.5t27 7.5v-108q-16 -5 -36.5 -9t-47.5 -4q-36 0 -66.5 13.5t-49 39t-18.5 60.5q0 23 7 46.5t30 49.5t72 56l76 -25q-31 -32 -44 -53t-13 -44z" />
    <glyph glyph-name="uni01EE" unicode="&#x1ee;" horiz-adv-x="619" 
d="M528 714v-119l-177 -173q101 -6 161 -61t60 -142q0 -67 -33 -118.5t-102.5 -81t-178.5 -29.5q-61 0 -117 10.5t-103 28.5v166q50 -24 106 -35.5t97 -11.5q72 0 96 22t24 55q0 20 -12.5 35.5t-50 24.5t-113.5 9h-49v129l127 133h-198v158h463zM497 913
q-15 -17 -36.5 -42.5t-43 -53t-37.5 -50.5h-190q-14 23 -35.5 50t-43.5 52.5t-40 43.5v14h133q25 -16 40 -33t40 -40q25 23 42 40.5t42 32.5h129v-14z" />
    <glyph glyph-name="uni01EF" unicode="&#x1ef;" horiz-adv-x="584" 
d="M533 553v-118l-188 -179q62 -6 108 -36t71 -77.5t25 -107.5q0 -81 -33 -143t-104 -97t-187 -35q-54 0 -92.5 4.5t-69.5 13t-63 20.5v164q45 -22 100.5 -36t118.5 -14q45 0 72.5 14.5t40 39t12.5 54.5t-10 55t-44.5 40t-109.5 15h-66v122l155 155h-236v146h500zM493 752
q-15 -17 -36.5 -42.5t-43 -53t-37.5 -50.5h-190q-14 23 -35.5 50t-43.5 52.5t-40 43.5v14h133q25 -16 40 -33t40 -40q25 23 42 40.5t42 32.5h129v-14z" />
    <glyph glyph-name="uni01F0" unicode="&#x1f0;" horiz-adv-x="315" 
d="M58 -240q-20 0 -50 3.5t-49 8.5v149q14 -4 25.5 -6.5t24.5 -2.5q18 0 32.5 16.5t14.5 66.5v558h201v-598q0 -50 -18.5 -94.5t-62 -72.5t-118.5 -28zM356 752q-15 -17 -36.5 -42.5t-43 -53t-37.5 -50.5h-190q-14 23 -35.5 50t-43.5 52.5t-40 43.5v14h133q25 -16 40 -33
t40 -40q25 23 42 40.5t42 32.5h129v-14z" />
    <glyph glyph-name="uni01F1" unicode="&#x1f1;" horiz-adv-x="1269" 
d="M643 372q0 -124 -43.5 -207t-121.5 -124t-180 -41h-232v714h244q110 0 184 -39.5t111.5 -115.5t37.5 -187zM432 365q0 65 -13 108t-40.5 64t-69.5 21h-39v-400h28q71 0 102.5 51t31.5 156zM1245 0h-536v119l273 439h-267v156h523v-119l-273 -439h280v-156z" />
    <glyph glyph-name="uni01F2" unicode="&#x1f2;" horiz-adv-x="1174" 
d="M643 372q0 -124 -43.5 -207t-121.5 -124t-180 -41h-232v714h244q110 0 184 -39.5t111.5 -115.5t37.5 -187zM432 365q0 65 -13 108t-40.5 64t-69.5 21h-39v-400h28q71 0 102.5 51t31.5 156zM1153 0h-445v109l203 298h-192v146h422v-118l-191 -289h203v-146z" />
    <glyph glyph-name="uni01F3" unicode="&#x1f3;" horiz-adv-x="1097" 
d="M217 -10q-77 0 -128 73t-51 213q0 142 52.5 214.5t134.5 72.5q34 0 58 -10.5t41.5 -29t30.5 -41.5h3q-4 21 -5.5 58t-1.5 72v148h203v-760h-151l-45 70h-7q-12 -22 -30 -40t-43.5 -29t-60.5 -11zM304 141q35 0 50 29t15 89v15q0 65 -14 100t-53 35q-25 0 -42.5 -33
t-17.5 -103q0 -69 18 -100.5t44 -31.5zM1076 0h-445v109l203 298h-192v146h422v-118l-191 -289h203v-146z" />
    <glyph glyph-name="uni01F4" unicode="&#x1f4;" horiz-adv-x="704" 
d="M344 418h302v-385q-52 -19 -124.5 -31t-146.5 -12q-95 0 -170 40t-118 122t-43 207q0 112 40 194t119 126.5t195 44.5q68 0 127 -12.5t100 -32.5l-63 -151q-39 19 -78 28.5t-84 9.5q-59 0 -91 -29t-43.5 -77t-11.5 -106q0 -66 17.5 -112t49 -69.5t72.5 -23.5q6 0 19.5 1
t27 3t19.5 4v112h-115v149zM630 917q-18 -14 -46 -34.5t-59 -42t-59.5 -41t-48.5 -32.5h-134v14q17 19 41 44.5t48 52.5t40 49h218v-10z" />
    <glyph glyph-name="uni01F5" unicode="&#x1f5;" horiz-adv-x="610" 
d="M222 563q59 0 90.5 -22.5t47.5 -55.5h4l14 68h176v-554q0 -78 -31 -131t-94.5 -80.5t-163.5 -27.5q-67 0 -116 7t-93 25v159q32 -14 58 -23.5t56 -14t74 -4.5q55 0 81.5 21t26.5 61v10q0 13 1.5 31t5.5 38h-7q-13 -33 -43.5 -56.5t-88.5 -23.5q-79 0 -130.5 73t-51.5 213
q0 94 24 157.5t66 96.5t94 33zM303 415q-20 0 -33.5 -16t-20 -47.5t-6.5 -78.5q0 -72 15.5 -103.5t47.5 -31.5q19 0 31.5 7.5t19.5 22t9.5 36.5t2.5 52v23q0 43 -4.5 73.5t-18.5 46.5t-43 16zM548 756q-18 -14 -46 -34.5t-59 -42t-59.5 -41t-48.5 -32.5h-134v14
q17 19 41 44.5t48 52.5t40 49h218v-10z" />
    <glyph glyph-name="uni01F6" unicode="&#x1f6;" horiz-adv-x="1032" 
d="M77 0v714h208v-263h134v263h210v-462q0 -37 5 -61.5t17.5 -36t34.5 -11.5q23 0 36.5 11.5t19.5 39t6 74.5v285h210v-286q0 -91 -27.5 -154t-86.5 -95.5t-155 -32.5q-100 0 -159 27t-85 82t-26 139v56h-134v-289h-208z" />
    <glyph glyph-name="uni01F7" unicode="&#x1f7;" horiz-adv-x="695" 
d="M435 725q72 0 120.5 -30.5t73.5 -90t25 -147.5q0 -70 -21.5 -138.5t-66 -128.5t-114.5 -107t-166 -75v-248h-209v954h157l32 -87h6q12 24 29.5 46.5t49 37t84.5 14.5zM363 562q-30 0 -46.5 -18t-23.5 -55.5t-7 -96.5v-217q30 14 58 39t50.5 60t35.5 79.5t13 96.5
q0 35 -8.5 60t-26 38.5t-45.5 13.5z" />
    <glyph glyph-name="uni01F8" unicode="&#x1f8;" horiz-adv-x="796" 
d="M730 0h-270l-219 503h-4l1 -17.5t3 -45.5t3.5 -59.5t1.5 -58.5v-322h-180v714h269l218 -496h3l-1 17t-2.5 44t-2.5 57t-1 55v323h181v-714zM445 927q18 -22 41.5 -49t47 -52.5t38.5 -44.5v-14h-134l-47.5 32.5t-59.5 41t-59 42t-47 34.5v10h220z" />
    <glyph glyph-name="uni01F9" unicode="&#x1f9;" horiz-adv-x="637" 
d="M400 563q80 0 131.5 -48t51.5 -155v-360h-202v302q0 55 -12 83t-40 28q-43 0 -57 -44t-14 -127v-242h-202v553h151l28 -73h6q17 26 39 44.5t51.5 28.5t68.5 10zM365 766q18 -22 41.5 -49t47 -52.5t38.5 -44.5v-14h-134l-47.5 32.5t-59.5 41t-59 42t-47 34.5v10h220z" />
    <glyph glyph-name="Aringacute" unicode="&#x1fa;" horiz-adv-x="698" 
d="M218 686q2 8 3.5 17.5t1.5 19.5q0 58 34.5 91t90.5 33q53 0 91.5 -33t38.5 -90q0 -10 1 -20.5t2 -19.5l220 -684h-224l-28 134h-198l-25 -134h-226zM296 294h112l-22 102q-4 20 -10.5 49t-13 60t-11.5 55q-3 -18 -7 -39.5t-8.5 -43t-8.5 -42.5t-8 -38zM348 682
q14 0 25 11.5t11 29.5q0 19 -10.5 30t-25.5 11q-13 0 -24 -11t-11 -30q0 -18 9 -29.5t26 -11.5zM259 886q13 10 28 22t28.5 25t23.5 25h220v-10q-7 -7 -27.5 -17.5t-46.5 -21.5t-50.5 -20.5t-41.5 -14.5h-134v12z" />
    <glyph glyph-name="aringacute" unicode="&#x1fb;" horiz-adv-x="596" 
d="M334 563q97 0 152.5 -52t55.5 -148v-363h-139l-39 73h-4q-22 -29 -45 -47.5t-53 -27t-74 -8.5t-80 19.5t-56.5 60t-20.5 102.5q0 92 55.5 132.5t167.5 44.5l85 3v8q0 37 -14.5 52.5t-38.5 15.5q-28 0 -67 -11.5t-78 -29.5l-55 126q48 25 108.5 37.5t139.5 12.5zM307 245
q-39 -2 -55 -20.5t-16 -48.5q0 -28 11.5 -39.5t30.5 -11.5q17 0 31 10t23 28t9 41v43zM307 753q-14 0 -24.5 -11t-10.5 -30q0 -18 9 -29.5t26 -11.5q15 0 25 11.5t10 29.5q0 19 -10 30t-25 11zM307 836q36 0 65.5 -15t47 -42.5t17.5 -65.5q0 -58 -38 -91t-92 -33
q-56 0 -90.5 33t-34.5 90q0 58 34.5 91t90.5 33zM484 958q-10 -11 -36 -29.5t-56 -36.5t-52 -30h-129v8q13 13 28 29t28.5 33.5t23.5 31.5h193v-6z" />
    <glyph glyph-name="AEacute" unicode="&#x1fc;" horiz-adv-x="886" 
d="M847 0h-399v134h-186l-33 -134h-236l282 714h572v-155h-194v-112h179v-155h-179v-135h194v-157zM320 294h128v257h-46zM761 917q-18 -14 -46 -34.5t-59 -42t-59.5 -41t-48.5 -32.5h-134v14q17 19 41 44.5t48 52.5t40 49h218v-10z" />
    <glyph glyph-name="aeacute" unicode="&#x1fd;" horiz-adv-x="889" 
d="M620 563q67 0 118.5 -28t81.5 -84.5t30 -141.5v-84h-313q2 -40 30 -69.5t85 -29.5q30 0 73.5 9t89.5 33v-137q-37 -21 -81 -31t-115 -10q-38 0 -74 10t-67 30.5t-55 52.5q-34 -35 -63.5 -55.5t-66.5 -29t-96 -8.5q-42 0 -80 19.5t-62 60t-24 102.5t30.5 100t83.5 56.5
t118 20.5l82 3v9q0 40 -17.5 53.5t-36.5 13.5q-28 0 -68 -10.5t-78 -28.5l-54 125q47 25 102.5 37t114.5 12q41 0 79.5 -11.5t72.5 -34.5q34 24 71 35t89 11zM315 245q-46 -3 -62.5 -21t-16.5 -50q0 -27 13 -38t32 -11q17 0 31.5 10t23.5 28t9 41v43zM606 433
q-25 0 -44 -19.5t-22 -68.5h133q0 24 -8 44t-23 32t-36 12zM713 756q-18 -14 -46 -34.5t-59 -42t-59.5 -41t-48.5 -32.5h-134v14q17 19 41 44.5t48 52.5t40 49h218v-10z" />
    <glyph glyph-name="Oslashacute" unicode="&#x1fe;" horiz-adv-x="750" 
d="M704 358q0 -83 -18.5 -150.5t-58 -116.5t-102 -75t-151.5 -26q-37 0 -70.5 5.5t-63.5 15.5l-37 -64l-96 61l37 61q-52 49 -76 122.5t-24 167.5q0 111 35 193.5t108 127.5t188 45q43 0 80 -6.5t67 -20.5l33 58l95 -56l-36 -61q48 -48 69 -120t21 -161zM490 358v56v47
l-153 -303q8 -3 18 -5t19 -2q44 0 69 25t36 71.5t11 110.5zM258 358q0 -34 1 -63.5t5 -53.5l159 312q-11 6 -23.5 10t-24.5 4q-43 0 -69 -25.5t-37 -72t-11 -111.5zM631 959q-18 -14 -46 -34.5t-59 -42t-59.5 -41t-48.5 -32.5h-134v14q17 19 41 44.5t48 52.5t40 49h218v-10z
" />
    <glyph glyph-name="oslashacute" unicode="&#x1ff;" horiz-adv-x="649" 
d="M610 278q0 -92 -34 -156.5t-98.5 -98t-154.5 -33.5q-27 0 -53.5 4.5t-50.5 12.5l-43 -64l-82 52l40 60q-45 37 -70.5 93t-25.5 130q0 137 76.5 211t211.5 74q28 0 54.5 -5t49.5 -14l37 54l81 -51l-34 -51q44 -36 70 -91t26 -127zM226 278q0 -21 0.5 -38.5t3.5 -33.5
l126 219q-8 3 -15.5 4.5t-16.5 1.5q-55 0 -76.5 -38.5t-21.5 -114.5zM422 278q0 18 -1 34.5t-3 29.5l-123 -216q7 -2 14.5 -3t15.5 -1q39 0 60 18t29 52.5t8 85.5zM579 801q-18 -14 -46 -34.5t-59 -42t-59.5 -41t-48.5 -32.5h-134v14q17 19 41 44.5t48 52.5t40 49h218v-10z
" />
    <glyph glyph-name="uni0200" unicode="&#x200;" horiz-adv-x="701" 
d="M478 0l-24 134h-203l-26 -134h-225l209 717h280l212 -717h-223zM387 411q-5 24 -12 54t-13.5 62.5t-10.5 61.5q-6 -44 -16 -92.5t-18 -84.5l-28 -120h126zM433 927q10 -22 23.5 -49t28 -52.5t27.5 -44.5v-14h-103q-16 13 -37.5 33t-43 42t-38.5 42t-25 33v10h168z
M233 927q10 -22 23 -49t27.5 -52.5t27.5 -44.5v-14h-104q-16 13 -37 33t-42.5 42t-38 42t-24.5 33v10h168z" />
    <glyph glyph-name="uni0201" unicode="&#x201;" horiz-adv-x="596" 
d="M334 563q97 0 152.5 -52t55.5 -148v-363h-139l-39 73h-4q-22 -29 -45 -47.5t-53 -27t-74 -8.5t-80 19.5t-56.5 59t-20.5 100.5q0 89 58 132.5t165 47.5l85 3v8q0 37 -14.5 52.5t-38.5 15.5q-28 0 -67 -11.5t-78 -29.5l-55 126q48 25 108.5 37.5t139.5 12.5zM307 245
q-39 -2 -55.5 -18.5t-16.5 -46.5q0 -28 12 -41.5t31 -13.5q25 0 44 22t19 57v43zM381 766q10 -22 23.5 -49t28 -52.5t27.5 -44.5v-14h-103q-16 13 -37.5 33t-43 42t-38.5 42t-25 33v10h168zM181 766q10 -22 23 -49t27.5 -52.5t27.5 -44.5v-14h-104q-16 13 -37 33t-42.5 42
t-38 42t-24.5 33v10h168z" />
    <glyph glyph-name="uni0202" unicode="&#x202;" horiz-adv-x="701" 
d="M478 0l-24 134h-203l-26 -134h-225l209 717h280l212 -717h-223zM387 411q-5 24 -12 54t-13.5 62.5t-10.5 61.5q-6 -44 -16 -92.5t-18 -84.5l-28 -120h126zM353 952q62 0 109 -23t75 -64.5t30 -97.5h-106q-1 29 -17.5 41.5t-40.5 15.5t-49 3q-20 0 -44.5 -4t-43.5 -17
t-21 -39h-108q4 54 32.5 96t76.5 65.5t107 23.5z" />
    <glyph glyph-name="uni0203" unicode="&#x203;" horiz-adv-x="596" 
d="M334 563q97 0 152.5 -52t55.5 -148v-363h-139l-39 73h-4q-22 -29 -45 -47.5t-53 -27t-74 -8.5t-80 19.5t-56.5 59t-20.5 100.5q0 89 58 132.5t165 47.5l85 3v8q0 37 -14.5 52.5t-38.5 15.5q-28 0 -67 -11.5t-78 -29.5l-55 126q48 25 108.5 37.5t139.5 12.5zM307 245
q-39 -2 -55.5 -18.5t-16.5 -46.5q0 -28 12 -41.5t31 -13.5q25 0 44 22t19 57v43zM301 791q62 0 109 -23t75 -64.5t30 -97.5h-106q-1 29 -17.5 41.5t-40.5 15.5t-49 3q-20 0 -44.5 -4t-43.5 -17t-21 -39h-108q4 54 32.5 96t76.5 65.5t107 23.5z" />
    <glyph glyph-name="uni0204" unicode="&#x204;" horiz-adv-x="510" 
d="M471 0h-405v714h405v-155h-201v-112h186v-155h-186v-135h201v-157zM348 927q10 -22 23.5 -49t28 -52.5t27.5 -44.5v-14h-103q-16 13 -37.5 33t-43 42t-38.5 42t-25 33v10h168zM148 927q10 -22 23 -49t27.5 -52.5t27.5 -44.5v-14h-104q-16 13 -37 33t-42.5 42t-38 42
t-24.5 33v10h168z" />
    <glyph glyph-name="uni0205" unicode="&#x205;" horiz-adv-x="595" 
d="M303 563q78 0 135 -28t87.5 -84t30.5 -141v-85h-314q2 -43 27.5 -71t77.5 -28q49 0 89.5 10t83.5 32v-137q-37 -21 -83.5 -31t-119.5 -10q-79 0 -142 29.5t-100 92.5t-37 161q0 100 33.5 164t93 95t138.5 31zM312 433q-26 0 -44.5 -21t-21.5 -67h130q0 25 -8 44.5
t-22 31.5t-34 12zM379 766q10 -22 23.5 -49t28 -52.5t27.5 -44.5v-14h-103q-16 13 -37.5 33t-43 42t-38.5 42t-25 33v10h168zM179 766q10 -22 23 -49t27.5 -52.5t27.5 -44.5v-14h-104q-16 13 -37 33t-42.5 42t-38 42t-24.5 33v10h168z" />
    <glyph glyph-name="uni0206" unicode="&#x206;" horiz-adv-x="510" 
d="M471 0h-405v714h405v-155h-201v-112h186v-155h-186v-135h201v-157zM268 952q62 0 109 -23t75 -64.5t30 -97.5h-106q-1 29 -17.5 41.5t-40.5 15.5t-49 3q-20 0 -44.5 -4t-43.5 -17t-21 -39h-108q4 54 32.5 96t76.5 65.5t107 23.5z" />
    <glyph glyph-name="uni0207" unicode="&#x207;" horiz-adv-x="595" 
d="M303 563q78 0 135 -28t87.5 -84t30.5 -141v-85h-314q2 -43 27.5 -71t77.5 -28q49 0 89.5 10t83.5 32v-137q-37 -21 -83.5 -31t-119.5 -10q-79 0 -142 29.5t-100 92.5t-37 161q0 100 33.5 164t93 95t138.5 31zM312 433q-26 0 -44.5 -21t-21.5 -67h130q0 25 -8 44.5
t-22 31.5t-34 12zM299 791q62 0 109 -23t75 -64.5t30 -97.5h-106q-1 29 -17.5 41.5t-40.5 15.5t-49 3q-20 0 -44.5 -4t-43.5 -17t-21 -39h-108q4 54 32.5 96t76.5 65.5t107 23.5z" />
    <glyph glyph-name="uni0208" unicode="&#x208;" horiz-adv-x="440" 
d="M407 0h-374v110l85 34v427l-85 33v110h374v-110l-84 -33v-427l84 -34v-110zM302 927q10 -22 23.5 -49t28 -52.5t27.5 -44.5v-14h-103q-16 13 -37.5 33t-43 42t-38.5 42t-25 33v10h168zM102 927q10 -22 23 -49t27.5 -52.5t27.5 -44.5v-14h-104q-16 13 -37 33t-42.5 42
t-38 42t-24.5 33v10h168z" />
    <glyph glyph-name="uni0209" unicode="&#x209;" horiz-adv-x="316" 
d="M259 0h-202v553h202v-553zM240 766q10 -22 23.5 -49t28 -52.5t27.5 -44.5v-14h-103q-16 13 -37.5 33t-43 42t-38.5 42t-25 33v10h168zM40 766q10 -22 23 -49t27.5 -52.5t27.5 -44.5v-14h-104q-16 13 -37 33t-42.5 42t-38 42t-24.5 33v10h168z" />
    <glyph glyph-name="uni020A" unicode="&#x20a;" horiz-adv-x="440" 
d="M407 0h-374v110l85 34v427l-85 33v110h374v-110l-84 -33v-427l84 -34v-110zM222 952q62 0 109 -23t75 -64.5t30 -97.5h-106q-1 29 -17.5 41.5t-40.5 15.5t-49 3q-20 0 -44.5 -4t-43.5 -17t-21 -39h-108q4 54 32.5 96t76.5 65.5t107 23.5z" />
    <glyph glyph-name="uni020B" unicode="&#x20b;" horiz-adv-x="316" 
d="M259 0h-202v553h202v-553zM160 791q62 0 109 -23t75 -64.5t30 -97.5h-106q-1 29 -17.5 41.5t-40.5 15.5t-49 3q-20 0 -44.5 -4t-43.5 -17t-21 -39h-108q4 54 32.5 96t76.5 65.5t107 23.5z" />
    <glyph glyph-name="uni020C" unicode="&#x20c;" horiz-adv-x="750" 
d="M704 358q0 -83 -18.5 -150.5t-58 -116.5t-102 -75t-151.5 -26q-86 0 -148.5 26t-102.5 75t-59.5 116.5t-19.5 151.5q0 111 35 193.5t108 127.5t188 45q118 0 190.5 -45.5t105.5 -128t33 -193.5zM258 358q0 -64 11.5 -110.5t37 -71.5t67.5 -25q44 0 69 25t36 71.5
t11 110.5q0 97 -25 153t-90 56q-43 0 -69 -25.5t-37 -72t-11 -111.5zM457 938q10 -22 23.5 -49t28 -52.5t27.5 -44.5v-14h-103q-16 13 -37.5 33t-43 42t-38.5 42t-25 33v10h168zM257 938q10 -22 23 -49t27.5 -52.5t27.5 -44.5v-14h-104q-16 13 -37 33t-42.5 42t-38 42
t-24.5 33v10h168z" />
    <glyph glyph-name="uni020D" unicode="&#x20d;" horiz-adv-x="608" 
d="M569 278q0 -69 -18 -123t-52.5 -90.5t-84 -55.5t-111.5 -19q-58 0 -106.5 19t-84 55.5t-55 90.5t-19.5 123q0 92 32 155.5t92.5 96.5t143.5 33q76 0 135.5 -33t93.5 -96.5t34 -155.5zM243 278q0 -47 6 -80t19.5 -49.5t36.5 -16.5t35.5 16.5t18 49.5t5.5 80t-5.5 79
t-18.5 48t-36 16q-33 0 -47 -36t-14 -107zM387 766q10 -22 23.5 -49t28 -52.5t27.5 -44.5v-14h-103q-16 13 -37.5 33t-43 42t-38.5 42t-25 33v10h168zM187 766q10 -22 23 -49t27.5 -52.5t27.5 -44.5v-14h-104q-16 13 -37 33t-42.5 42t-38 42t-24.5 33v10h168z" />
    <glyph glyph-name="uni020E" unicode="&#x20e;" horiz-adv-x="750" 
d="M704 358q0 -83 -18.5 -150.5t-58 -116.5t-102 -75t-151.5 -26q-86 0 -148.5 26t-102.5 75t-59.5 116.5t-19.5 151.5q0 111 35 193.5t108 127.5t188 45q118 0 190.5 -45.5t105.5 -128t33 -193.5zM258 358q0 -64 11.5 -110.5t37 -71.5t67.5 -25q44 0 69 25t36 71.5
t11 110.5q0 97 -25 153t-90 56q-43 0 -69 -25.5t-37 -72t-11 -111.5zM377 963q62 0 109 -23t75 -64.5t30 -97.5h-106q-1 29 -17.5 41.5t-40.5 15.5t-49 3q-20 0 -44.5 -4t-43.5 -17t-21 -39h-108q4 54 32.5 96t76.5 65.5t107 23.5z" />
    <glyph glyph-name="uni020F" unicode="&#x20f;" horiz-adv-x="608" 
d="M569 278q0 -69 -18 -123t-52.5 -90.5t-84 -55.5t-111.5 -19q-58 0 -106.5 19t-84 55.5t-55 90.5t-19.5 123q0 92 32 155.5t92.5 96.5t143.5 33q76 0 135.5 -33t93.5 -96.5t34 -155.5zM243 278q0 -47 6 -80t19.5 -49.5t36.5 -16.5t35.5 16.5t18 49.5t5.5 80t-5.5 79
t-18.5 48t-36 16q-33 0 -47 -36t-14 -107zM307 791q62 0 109 -23t75 -64.5t30 -97.5h-106q-1 29 -17.5 41.5t-40.5 15.5t-49 3q-20 0 -44.5 -4t-43.5 -17t-21 -39h-108q4 54 32.5 96t76.5 65.5t107 23.5z" />
    <glyph glyph-name="uni0210" unicode="&#x210;" horiz-adv-x="645" 
d="M300 714q91 0 152.5 -24t92.5 -70.5t31 -116.5q0 -43 -11.5 -79t-35 -64t-60.5 -49l194 -311h-232l-132 260h-29v-260h-204v714h234zM301 568h-31v-163h27q17 0 34 8.5t28.5 28t11.5 52.5q0 23 -7 39.5t-22 25.5t-41 9zM402 927q10 -22 23.5 -49t28 -52.5t27.5 -44.5v-14
h-103q-16 13 -37.5 33t-43 42t-38.5 42t-25 33v10h168zM202 927q10 -22 23 -49t27.5 -52.5t27.5 -44.5v-14h-104q-16 13 -37 33t-42.5 42t-38 42t-24.5 33v10h168z" />
    <glyph glyph-name="uni0211" unicode="&#x211;" horiz-adv-x="449" 
d="M385 563q17 0 34.5 -2t24.5 -4l-19 -180q-10 2 -24.5 4t-47.5 2q-11 0 -27 -3.5t-31.5 -14.5t-26 -33t-10.5 -60v-272h-202v553h149l32 -88h10q14 27 36 49.5t48.5 35.5t53.5 13zM337 766q10 -22 23.5 -49t28 -52.5t27.5 -44.5v-14h-103q-16 13 -37.5 33t-43 42t-38.5 42
t-25 33v10h168zM137 766q10 -22 23 -49t27.5 -52.5t27.5 -44.5v-14h-104q-16 13 -37 33t-42.5 42t-38 42t-24.5 33v10h168z" />
    <glyph glyph-name="uni0212" unicode="&#x212;" horiz-adv-x="645" 
d="M300 714q91 0 152.5 -24t92.5 -70.5t31 -116.5q0 -43 -11.5 -79t-35 -64t-60.5 -49l194 -311h-232l-132 260h-29v-260h-204v714h234zM301 568h-31v-163h27q17 0 34 8.5t28.5 28t11.5 52.5q0 23 -7 39.5t-22 25.5t-41 9zM322 952q62 0 109 -23t75 -64.5t30 -97.5h-106
q-1 29 -17.5 41.5t-40.5 15.5t-49 3q-20 0 -44.5 -4t-43.5 -17t-21 -39h-108q4 54 32.5 96t76.5 65.5t107 23.5z" />
    <glyph glyph-name="uni0213" unicode="&#x213;" horiz-adv-x="449" 
d="M385 563q17 0 34.5 -2t24.5 -4l-19 -180q-10 2 -24.5 4t-47.5 2q-11 0 -27 -3.5t-31.5 -14.5t-26 -33t-10.5 -60v-272h-202v553h149l32 -88h10q14 27 36 49.5t48.5 35.5t53.5 13zM257 791q62 0 109 -23t75 -64.5t30 -97.5h-106q-1 29 -17.5 41.5t-40.5 15.5t-49 3
q-20 0 -44.5 -4t-43.5 -17t-21 -39h-108q4 54 32.5 96t76.5 65.5t107 23.5z" />
    <glyph glyph-name="uni0214" unicode="&#x214;" horiz-adv-x="712" 
d="M650 284q0 -90 -33 -156t-98.5 -102t-164.5 -36q-142 0 -217 75.5t-75 214.5v434h205v-419q0 -76 23 -110t66 -34q32 0 52 15t29 47t9 83v418h204v-430zM439 927q10 -22 23.5 -49t28 -52.5t27.5 -44.5v-14h-103q-16 13 -37.5 33t-43 42t-38.5 42t-25 33v10h168zM239 927
q10 -22 23 -49t27.5 -52.5t27.5 -44.5v-14h-104q-16 13 -37 33t-42.5 42t-38 42t-24.5 33v10h168z" />
    <glyph glyph-name="uni0215" unicode="&#x215;" horiz-adv-x="637" 
d="M581 553v-553h-151l-25 69h-12q-16 -28 -40.5 -45.5t-54 -25.5t-61.5 -8q-49 0 -90 21t-66 66t-25 116v360h202v-302q0 -54 11 -82t39 -28q29 0 44.5 19.5t21 57.5t5.5 93v242h202zM400 766q10 -22 23.5 -49t28 -52.5t27.5 -44.5v-14h-103q-16 13 -37.5 33t-43 42
t-38.5 42t-25 33v10h168zM200 766q10 -22 23 -49t27.5 -52.5t27.5 -44.5v-14h-104q-16 13 -37 33t-42.5 42t-38 42t-24.5 33v10h168z" />
    <glyph glyph-name="uni0216" unicode="&#x216;" horiz-adv-x="712" 
d="M650 284q0 -90 -33 -156t-98.5 -102t-164.5 -36q-142 0 -217 75.5t-75 214.5v434h205v-419q0 -76 23 -110t66 -34q32 0 52 15t29 47t9 83v418h204v-430zM359 952q62 0 109 -23t75 -64.5t30 -97.5h-106q-1 29 -17.5 41.5t-40.5 15.5t-49 3q-20 0 -44.5 -4t-43.5 -17
t-21 -39h-108q4 54 32.5 96t76.5 65.5t107 23.5z" />
    <glyph glyph-name="uni0217" unicode="&#x217;" horiz-adv-x="637" 
d="M581 553v-553h-151l-25 69h-12q-16 -28 -40.5 -45.5t-54 -25.5t-61.5 -8q-49 0 -90 21t-66 66t-25 116v360h202v-302q0 -54 11 -82t39 -28q29 0 44.5 19.5t21 57.5t5.5 93v242h202zM320 791q62 0 109 -23t75 -64.5t30 -97.5h-106q-1 29 -17.5 41.5t-40.5 15.5t-49 3
q-20 0 -44.5 -4t-43.5 -17t-21 -39h-108q4 54 32.5 96t76.5 65.5t107 23.5z" />
    <glyph glyph-name="uni0218" unicode="&#x218;" horiz-adv-x="556" 
d="M528 217q0 -58 -26.5 -110t-86.5 -84.5t-159 -32.5q-52 0 -87.5 4.5t-64.5 14.5t-64 26v172q58 -29 116 -44.5t100 -15.5q22 0 37 7t22.5 19t7.5 27q0 19 -9 32t-34 27t-73 34q-60 25 -96 53t-52 68t-16 101q0 69 34.5 115.5t94.5 70t138 23.5q74 0 129.5 -15.5
t90.5 -35.5l-61 -149q-40 21 -85 33.5t-80 12.5q-21 0 -34 -6t-19 -16.5t-6 -23.5q0 -17 11.5 -30t41 -28.5t82.5 -41.5q48 -22 81 -49t50 -64.5t17 -93.5zM377 -72q-11 -27 -22 -50.5t-24 -47.5t-32 -51h-121v14q5 21 9.5 48t7 53t1.5 45h181v-11z" />
    <glyph glyph-name="uni0219" unicode="&#x219;" horiz-adv-x="497" 
d="M458 170q0 -52 -20.5 -93t-68.5 -64t-131 -23q-57 0 -103.5 6.5t-95.5 24.5v153q54 -24 106.5 -34.5t77.5 -10.5t36.5 7t11.5 21q0 12 -11 21t-35 20t-65 30q-40 19 -67 41.5t-41 54t-14 76.5q0 81 61 122t160 41q53 0 99.5 -12t96.5 -35l-52 -123q-26 13 -54.5 22
t-52 14t-35.5 5q-16 0 -25 -6t-9 -17q0 -10 8 -18t30.5 -18.5t64.5 -28.5q46 -19 74 -41.5t41 -54t13 -80.5zM332 -72q-11 -27 -22 -50.5t-24 -47.5t-32 -51h-121v14q5 21 9.5 48t7 53t1.5 45h181v-11z" />
    <glyph glyph-name="uni021A" unicode="&#x21a;" horiz-adv-x="562" 
d="M383 0h-204v556h-153v158h510v-158h-153v-556zM376 -72q-11 -27 -22 -50.5t-24 -47.5t-32 -51h-121v14q5 21 9.5 48t7 53t1.5 45h181v-11z" />
    <glyph glyph-name="uni021B" unicode="&#x21b;" horiz-adv-x="446" 
d="M332 141q25 0 44 5.5t41 13.5v-139q-33 -13 -65.5 -22t-89.5 -9q-53 0 -92.5 17t-61 58.5t-21.5 116.5v228h-61v78l81 60l50 116h133v-111h119v-143h-119v-215q0 -27 10.5 -40.5t31.5 -13.5zM355 -72q-11 -27 -22 -50.5t-24 -47.5t-32 -51h-121v14q5 21 9.5 48t7 53
t1.5 45h181v-11z" />
    <glyph glyph-name="uni021C" unicode="&#x21c;" horiz-adv-x="635" 
d="M45 -8q107 22 172.5 44.5t100.5 47t47.5 52.5t12.5 61q0 30 -11 52.5t-31 39.5q-33 -13 -71 -23.5t-82 -20.5l-32 147q83 21 127 38.5t60 35.5t16 39q0 23 -10 36.5t-28 19t-44 5.5q-37 0 -78 -14.5t-76 -35.5l-79 133q59 38 124.5 56.5t143.5 18.5q79 0 135.5 -22.5
t87.5 -66t31 -106.5q0 -47 -19.5 -87t-60.5 -74q31 -17 55.5 -42t38.5 -59t14 -78q0 -94 -57.5 -165t-178 -121t-308.5 -83v172z" />
    <glyph glyph-name="uni021D" unicode="&#x21d;" horiz-adv-x="547" 
d="M15 -80q116 18 184 39t97.5 48.5t29.5 64.5q0 29 -12 50t-41 38q-31 -11 -64.5 -20t-67.5 -17l-33 134q78 18 121 33t60.5 30.5t17.5 34.5q0 20 -9.5 31.5t-28 17t-45.5 5.5q-43 0 -83.5 -10t-73.5 -25l-53 136q56 25 112 37.5t117 12.5q82 0 137.5 -23t84 -66t28.5 -103
q0 -42 -21 -76.5t-66 -61.5q37 -18 62 -42t38.5 -55t13.5 -70q0 -72 -38 -123t-106 -86.5t-160 -57.5t-201 -36v160z" />
    <glyph glyph-name="uni021E" unicode="&#x21e;" horiz-adv-x="722" 
d="M656 0h-206v291h-179v-291h-205v714h205v-265h179v265h206v-714zM574 913q-15 -17 -36.5 -42.5t-43 -53t-37.5 -50.5h-190q-14 23 -35.5 50t-43.5 52.5t-40 43.5v14h133q25 -16 40 -33t40 -40q25 23 42 40.5t42 32.5h129v-14z" />
    <glyph glyph-name="uni021F" unicode="&#x21f;" horiz-adv-x="637" 
d="M258 652q0 -61 -3 -103t-5 -64h9q17 29 37.5 46t46 24.5t55.5 7.5q49 0 91 -21t68 -65.5t26 -116.5v-360h-204v302q0 55 -12 83t-38 28q-27 0 -42.5 -20t-22 -57.5t-6.5 -92.5v-243h-202v760h202v-108zM372 959q-15 -17 -36.5 -42.5t-43 -53t-37.5 -50.5h-190
q-14 23 -35.5 50t-43.5 52.5t-40 43.5v14h133q25 -16 40 -33t40 -40q25 23 42 40.5t42 32.5h129v-14z" />
    <glyph glyph-name="uni0220" unicode="&#x220;" horiz-adv-x="762" 
d="M473 725q54 0 103.5 -21.5t81 -71.5t31.5 -136v-736h-209v682q0 67 -22 94.5t-57 27.5q-50 0 -75 -25.5t-33 -74.5t-8 -122v-342h-208v714h158l34 -84h6q25 34 58 54.5t69.5 30.5t70.5 10z" />
    <glyph glyph-name="uni0221" unicode="&#x221;" horiz-adv-x="825" 
d="M458 -102q2 40 6 70.5t10 60.5q-12 6 -21 12.5t-15.5 13.5t-9.5 11h-7q-16 -19 -40.5 -36.5t-58 -28.5t-77.5 -11q-97 0 -154.5 70.5t-57.5 217.5q0 95 25.5 158t68 95t93.5 32q38 0 65 -11.5t44.5 -28.5t26.5 -34h6q1 -7 -1.5 1.5t-5.5 26.5t-5.5 38.5t-2.5 36.5v168
h207v-525q0 -10 1 -20.5t3 -18.5q7 13 19 24.5t30 20.5t41.5 14.5t52.5 5.5q69 0 101 -34.5t32 -86.5q0 -37 -17.5 -69t-61 -51.5t-121.5 -19.5h-11.5h-10.5q-4 -25 -5.5 -50t-3.5 -57zM298 143q32 0 48.5 26.5t16.5 84.5v19q0 65 -15 99.5t-54 34.5q-21 0 -37 -34t-16 -98
q0 -65 16.5 -98.5t40.5 -33.5zM657 105q26 0 37 6.5t11 19.5q0 12 -5.5 17t-16.5 5q-12 0 -22 -6t-16.5 -16.5t-10.5 -25.5h12h11z" />
    <glyph glyph-name="uni0222" unicode="&#x222;" horiz-adv-x="796" 
d="M398 -10q-99 0 -167 20t-108.5 56t-59 84.5t-18.5 106.5q0 39 9.5 77t35.5 71t75 57q-43 24 -61.5 54t-23.5 65.5t-5 74.5v53h213v-53q0 -32 11 -59.5t36 -44t67 -16.5q39 0 62 16.5t33 43.5t10 58v55h213v-53q0 -38 -5 -73.5t-23 -66t-57 -54.5q46 -23 71 -55t35 -69
t10 -78q0 -58 -19.5 -107.5t-62 -86t-109.5 -56.5t-162 -20zM396 156q53 0 80.5 13.5t38 37.5t10.5 56q0 46 -25 75.5t-98 29.5q-76 0 -103.5 -28.5t-27.5 -77.5q0 -31 10 -55t37 -37.5t78 -13.5z" />
    <glyph glyph-name="uni0223" unicode="&#x223;" horiz-adv-x="614" 
d="M303 -10q-71 0 -133.5 30.5t-100.5 89.5t-38 144q0 45 9.5 83.5t35 69.5t72.5 54q-43 23 -61.5 55.5t-23 72t-4.5 83.5v88h206v-89q0 -41 3 -71t12.5 -46.5t28.5 -16.5q18 0 26 16t10 45.5t2 69.5v92h208v-91q0 -42 -5.5 -81.5t-24.5 -72t-60 -54.5q43 -21 68.5 -51.5
t37 -68.5t11.5 -83q0 -65 -21.5 -115t-60 -84t-89 -51.5t-108.5 -17.5zM307 142q30 0 48 31t18 89q0 59 -14.5 90t-49.5 31q-36 0 -52 -31t-16 -92q0 -58 15.5 -88t50.5 -30z" />
    <glyph glyph-name="uni0224" unicode="&#x224;" horiz-adv-x="591" 
d="M379 -273q-26 0 -59.5 3t-54.5 9v148q21 -5 33 -7t27 -2q18 0 34 8t26 30.5t10 65.5v18h-9v156h210v-214q0 -55 -21 -104t-68.5 -80t-127.5 -31zM567 0h-536v119l273 439h-267v156h523v-119l-273 -439h280v-156z" />
    <glyph glyph-name="uni0225" unicode="&#x225;" horiz-adv-x="500" 
d="M443 553v-127l-184 -280h198v-206q0 -68 -19.5 -110.5t-56.5 -62.5t-92 -20q-28 0 -53 4t-45 11v131q11 -3 24 -6t26 -3q24 0 35.5 11.5t11.5 45.5v59h-271v114l197 293h-187v146h416z" />
    <glyph glyph-name="uni0226" unicode="&#x226;" horiz-adv-x="701" 
d="M478 0l-24 134h-203l-26 -134h-225l209 717h280l212 -717h-223zM387 411q-5 24 -12 54t-13.5 62.5t-10.5 61.5q-6 -44 -16 -92.5t-18 -84.5l-28 -120h126zM351 937q43 0 74.5 -17t31.5 -68q0 -49 -31.5 -66.5t-74.5 -17.5q-44 0 -75 17.5t-31 66.5q0 51 31 68t75 17z" />
    <glyph glyph-name="uni0227" unicode="&#x227;" horiz-adv-x="596" 
d="M334 563q97 0 152.5 -52t55.5 -148v-363h-139l-39 73h-4q-22 -29 -45 -47.5t-53 -27t-74 -8.5t-80 19.5t-56.5 59t-20.5 100.5q0 89 58 132.5t165 47.5l85 3v8q0 37 -14.5 52.5t-38.5 15.5q-28 0 -67 -11.5t-78 -29.5l-55 126q48 25 108.5 37.5t139.5 12.5zM307 245
q-39 -2 -55.5 -18.5t-16.5 -46.5q0 -28 12 -41.5t31 -13.5q25 0 44 22t19 57v43zM299 776q43 0 74.5 -17t31.5 -68q0 -49 -31.5 -66.5t-74.5 -17.5q-44 0 -75 17.5t-31 66.5q0 51 31 68t75 17z" />
    <glyph glyph-name="uni0228" unicode="&#x228;" horiz-adv-x="510" 
d="M471 0h-405v714h405v-155h-201v-112h186v-155h-186v-135h201v-157zM426 -123q0 -35 -17 -61.5t-43.5 -41t-56.5 -14.5q-39 0 -70.5 5t-50.5 12v94q17 -5 29.5 -8t28.5 -3q20 0 30.5 7.5t10.5 20.5q0 17 -15 27t-47 17l24 68h90l-6 -30q19 -4 40.5 -14t37 -28.5
t15.5 -50.5z" />
    <glyph glyph-name="uni0229" unicode="&#x229;" horiz-adv-x="595" 
d="M303 563q78 0 135 -28t87.5 -84t30.5 -141v-85h-314q2 -43 27.5 -71t77.5 -28q49 0 89.5 10t83.5 32v-137q-37 -21 -83.5 -31t-119.5 -10q-79 0 -142 29.5t-100 92.5t-37 161q0 100 33.5 164t93 95t138.5 31zM312 433q-26 0 -44.5 -21t-21.5 -67h130q0 25 -8 44.5
t-22 31.5t-34 12zM464 -123q0 -35 -17 -61.5t-43.5 -41t-56.5 -14.5q-39 0 -70.5 5t-50.5 12v94q17 -5 29.5 -8t28.5 -3q20 0 30.5 7.5t10.5 20.5q0 17 -15 27t-47 17l24 68h90l-6 -30q19 -4 40.5 -14t37 -28.5t15.5 -50.5z" />
    <glyph glyph-name="uni022A" unicode="&#x22a;" horiz-adv-x="750" 
d="M572 1028v-107h-343v107h343zM301 894q35 0 56 -17t21 -51q0 -31 -21 -49t-56 -18q-37 0 -56 18t-19 49q0 34 19 51t56 17zM495 894q34 0 55.5 -17t21.5 -51q0 -31 -21.5 -49t-55.5 -18q-35 0 -54.5 18t-19.5 49q0 34 19.5 51t54.5 17zM704 358q0 -83 -18.5 -150.5
t-58 -116.5t-102 -75t-151.5 -26q-86 0 -148.5 26t-102.5 75t-59.5 116.5t-19.5 151.5q0 111 35 193.5t108 127.5t188 45q118 0 190.5 -45.5t105.5 -128t33 -193.5zM258 358q0 -64 11.5 -110.5t37 -71.5t67.5 -25q44 0 69 25t36 71.5t11 110.5q0 97 -25 153t-90 56
q-43 0 -69 -25.5t-37 -72t-11 -111.5z" />
    <glyph glyph-name="uni022B" unicode="&#x22b;" horiz-adv-x="608" 
d="M492 867v-107h-343v107h343zM221 733q35 0 56 -17t21 -51q0 -31 -21 -49t-56 -18q-37 0 -56 18t-19 49q0 34 19 51t56 17zM415 733q34 0 55.5 -17t21.5 -51q0 -31 -21.5 -49t-55.5 -18q-35 0 -54.5 18t-19.5 49q0 34 19.5 51t54.5 17zM569 278q0 -69 -18 -123
t-52.5 -90.5t-84 -55.5t-111.5 -19q-58 0 -106.5 19t-84 55.5t-55 90.5t-19.5 123q0 92 32 155.5t92.5 96.5t143.5 33q76 0 135.5 -33t93.5 -96.5t34 -155.5zM243 278q0 -47 6 -80t19.5 -49.5t36.5 -16.5t35.5 16.5t18 49.5t5.5 80t-5.5 79t-18.5 48t-36 16q-33 0 -47 -36
t-14 -107z" />
    <glyph glyph-name="uni022C" unicode="&#x22c;" horiz-adv-x="750" 
d="M225 766q3 47 27.5 81.5t80.5 34.5q27 0 45.5 -5.5t32 -13.5t25.5 -13.5t25 -5.5t22 9t11 28h76q-3 -31 -14 -57.5t-33.5 -42.5t-62.5 -16q-25 0 -43 5.5t-32 13.5t-25 13.5t-22 5.5q-15 0 -24 -8t-14 -29h-75zM228 927v108h344v-108h-344zM704 358q0 -83 -18.5 -150.5
t-58 -116.5t-102 -75t-151.5 -26q-86 0 -148.5 26t-102.5 75t-59.5 116.5t-19.5 151.5q0 111 35 193.5t108 127.5t188 45q118 0 190.5 -45.5t105.5 -128t33 -193.5zM258 358q0 -64 11.5 -110.5t37 -71.5t67.5 -25q44 0 69 25t36 71.5t11 110.5q0 97 -25 153t-90 56
q-43 0 -69 -25.5t-37 -72t-11 -111.5z" />
    <glyph glyph-name="uni022D" unicode="&#x22d;" horiz-adv-x="608" 
d="M145 605q3 47 27.5 81.5t80.5 34.5q27 0 45.5 -5.5t32 -13.5t25.5 -13.5t25 -5.5t22 9t11 28h76q-3 -31 -14 -57.5t-33.5 -42.5t-62.5 -16q-25 0 -43 5.5t-32 13.5t-25 13.5t-22 5.5q-15 0 -24 -8t-14 -29h-75zM148 766v108h344v-108h-344zM569 278q0 -69 -18 -123
t-52.5 -90.5t-84 -55.5t-111.5 -19q-58 0 -106.5 19t-84 55.5t-55 90.5t-19.5 123q0 92 32 155.5t92.5 96.5t143.5 33q76 0 135.5 -33t93.5 -96.5t34 -155.5zM243 278q0 -47 6 -80t19.5 -49.5t36.5 -16.5t35.5 16.5t18 49.5t5.5 80t-5.5 79t-18.5 48t-36 16q-33 0 -47 -36
t-14 -107z" />
    <glyph glyph-name="uni022E" unicode="&#x22e;" horiz-adv-x="750" 
d="M704 358q0 -83 -18.5 -150.5t-58 -116.5t-102 -75t-151.5 -26q-86 0 -148.5 26t-102.5 75t-59.5 116.5t-19.5 151.5q0 111 35 193.5t108 127.5t188 45q118 0 190.5 -45.5t105.5 -128t33 -193.5zM258 358q0 -64 11.5 -110.5t37 -71.5t67.5 -25q44 0 69 25t36 71.5
t11 110.5q0 97 -25 153t-90 56q-43 0 -69 -25.5t-37 -72t-11 -111.5zM375 948q43 0 74.5 -17t31.5 -68q0 -49 -31.5 -66.5t-74.5 -17.5q-44 0 -75 17.5t-31 66.5q0 51 31 68t75 17z" />
    <glyph glyph-name="uni022F" unicode="&#x22f;" horiz-adv-x="608" 
d="M569 278q0 -69 -18 -123t-52.5 -90.5t-84 -55.5t-111.5 -19q-58 0 -106.5 19t-84 55.5t-55 90.5t-19.5 123q0 92 32 155.5t92.5 96.5t143.5 33q76 0 135.5 -33t93.5 -96.5t34 -155.5zM243 278q0 -47 6 -80t19.5 -49.5t36.5 -16.5t35.5 16.5t18 49.5t5.5 80t-5.5 79
t-18.5 48t-36 16q-33 0 -47 -36t-14 -107zM305 776q43 0 74.5 -17t31.5 -68q0 -49 -31.5 -66.5t-74.5 -17.5q-44 0 -75 17.5t-31 66.5q0 51 31 68t75 17z" />
    <glyph glyph-name="uni0230" unicode="&#x230;" horiz-adv-x="750" 
d="M228 927v108h343v-108h-343zM398 898q35 0 55.5 -17.5t20.5 -51.5q0 -31 -20.5 -49t-55.5 -18q-36 0 -56 18t-20 49q0 34 20 51.5t56 17.5zM704 358q0 -83 -18.5 -150.5t-58 -116.5t-102 -75t-151.5 -26q-86 0 -148.5 26t-102.5 75t-59.5 116.5t-19.5 151.5
q0 111 35 193.5t108 127.5t188 45q118 0 190.5 -45.5t105.5 -128t33 -193.5zM258 358q0 -64 11.5 -110.5t37 -71.5t67.5 -25q44 0 69 25t36 71.5t11 110.5q0 97 -25 153t-90 56q-43 0 -69 -25.5t-37 -72t-11 -111.5z" />
    <glyph glyph-name="uni0231" unicode="&#x231;" horiz-adv-x="608" 
d="M491 874v-108h-343v108h343zM318 737q35 0 55.5 -17.5t20.5 -51.5q0 -31 -20.5 -49t-55.5 -18q-36 0 -56 18t-20 49q0 34 20 51.5t56 17.5zM569 278q0 -69 -18 -123t-52.5 -90.5t-84 -55.5t-111.5 -19q-58 0 -106.5 19t-84 55.5t-55 90.5t-19.5 123q0 92 32 155.5
t92.5 96.5t143.5 33q76 0 135.5 -33t93.5 -96.5t34 -155.5zM243 278q0 -47 6 -80t19.5 -49.5t36.5 -16.5t35.5 16.5t18 49.5t5.5 80t-5.5 79t-18.5 48t-36 16q-33 0 -47 -36t-14 -107z" />
    <glyph glyph-name="uni0232" unicode="&#x232;" horiz-adv-x="645" 
d="M323 449l102 265h220l-220 -435v-279h-205v273l-220 441h222zM497 882v-115h-346v115h346z" />
    <glyph glyph-name="uni0233" unicode="&#x233;" horiz-adv-x="595" 
d="M-1 553h209l81 -317q2 -7 3.5 -17t2 -21t0.5 -22h5q2 18 3 34t4 26l86 317h203l-203 -587q-23 -68 -54 -114t-80.5 -69t-128.5 -23q-25 0 -42.5 2.5t-31.5 5.5v150q10 -2 24.5 -4t30.5 -2q30 0 47.5 11t27 30.5t15.5 42.5l3 12zM472 721v-115h-346v115h346z" />
    <glyph glyph-name="uni0234" unicode="&#x234;" horiz-adv-x="488" 
d="M50 -4q7 20 19.5 44t23.5 37q-12 19 -19.5 46.5t-7.5 66.5v570h206v-510q9 8 30.5 13.5t43.5 5.5q66 0 101 -36.5t35 -90.5q0 -65 -46 -108.5t-151 -43.5q-43 0 -67.5 7.5t-38.5 16.5q-7 -10 -19 -28.5t-16 -32.5zM312 100q15 0 28.5 8.5t13.5 24.5q0 15 -10 24t-30 9
q-12 0 -24.5 -6t-19.5 -17q3 -20 13 -31.5t29 -11.5z" />
    <glyph glyph-name="uni0235" unicode="&#x235;" horiz-adv-x="753" 
d="M343 -4q7 20 20 44t23 37q-12 19 -19.5 46.5t-7.5 66.5v118q0 49 -8.5 75.5t-27.5 26.5q-23 0 -34 -20t-14 -58t-3 -91v-241h-206v553h156l26 -69h10q15 29 37.5 46t48 25t48.5 8q48 0 87.5 -20.5t62.5 -65t23 -117.5v-110q10 8 31 13.5t43 5.5q66 0 101 -36.5t35 -90.5
q0 -65 -45.5 -108.5t-151.5 -43.5q-43 0 -67.5 7.5t-38.5 16.5q-7 -10 -19 -28.5t-16 -32.5zM606 100q15 0 28 8.5t13 24.5q0 15 -10 24t-29 9q-13 0 -25.5 -6t-18.5 -17q2 -20 12.5 -31.5t29.5 -11.5z" />
    <glyph glyph-name="uni0236" unicode="&#x236;" horiz-adv-x="484" 
d="M74 -4q7 20 20 44t23 37q-12 19 -19.5 46.5t-7.5 66.5v219h-61v79l79 63l53 112h135v-110h142v-144h-142v-159q10 8 31 13.5t43 5.5q66 0 101 -36.5t35 -90.5q0 -65 -45.5 -108.5t-151.5 -43.5q-43 0 -67.5 7.5t-38.5 16.5q-7 -10 -19 -28.5t-16 -32.5zM337 100
q15 0 28 8.5t13 24.5q0 15 -10 24t-29 9q-13 0 -25.5 -6t-18.5 -17q2 -20 12.5 -31.5t29.5 -11.5z" />
    <glyph glyph-name="uni0237" unicode="&#x237;" horiz-adv-x="315" 
d="M58 -240q-20 0 -50 3.5t-49 8.5v149q14 -4 25.5 -6.5t24.5 -2.5q18 0 32.5 16.5t14.5 66.5v558h201v-598q0 -50 -18.5 -94.5t-62 -72.5t-118.5 -28z" />
    <glyph glyph-name="uni0238" unicode="&#x238;" horiz-adv-x="901" 
d="M282 -10q-52 0 -97 17.5t-79 53.5t-53.5 90.5t-19.5 128.5q0 94 24.5 156.5t66 94.5t91.5 32q56 0 87.5 -25t44.5 -51h7q-1 17 -4 43t-3 59v171h207v-171q0 -36 -3 -62t-5 -40h8q14 28 45.5 52t86.5 24q49 0 89.5 -32.5t65.5 -96t25 -158.5q0 -76 -21 -130t-57 -88.5
t-82 -51t-96 -16.5q-49 0 -90.5 19t-71.5 54q-29 -35 -73 -54t-93 -19zM294 145q14 0 26 11.5t19.5 41t7.5 83.5q0 68 -14.5 98.5t-41.5 30.5q-18 0 -33 -31.5t-15 -99.5q0 -75 14.5 -104.5t36.5 -29.5zM606 145q23 0 37 27.5t14 103.5q0 68 -14.5 101t-33.5 33
q-17 0 -29.5 -13t-19 -41.5t-6.5 -74.5q0 -80 15 -108t37 -28z" />
    <glyph glyph-name="uni0239" unicode="&#x239;" horiz-adv-x="901" 
d="M618 563q52 0 97 -17.5t79 -53.5t53 -90.5t19 -128.5q0 -93 -24.5 -156t-65 -95t-90.5 -32q-57 0 -88.5 25t-43.5 51h-8q4 -24 6 -46.5t2 -56.5v-208h-207v208q0 37 2 59t5 44h-7q-15 -28 -45.5 -52t-86.5 -24q-48 0 -89.5 32.5t-67 96.5t-25.5 158q0 76 21 130
t57.5 88.5t82.5 51t97 16.5q49 0 90 -19t72 -54q29 35 73 54t92 19zM295 408q-23 0 -37.5 -27.5t-14.5 -103.5q0 -68 15 -101t33 -33t30.5 13t19 41.5t6.5 73.5q0 80 -15 108.5t-37 28.5zM607 408q-14 0 -26 -11.5t-19.5 -41.5t-7.5 -84q0 -68 14 -98t41 -30q19 0 33.5 31.5
t14.5 98.5q0 76 -14 105.5t-36 29.5z" />
    <glyph glyph-name="uni023A" unicode="&#x23a;" horiz-adv-x="730" 
d="M597 760l-290 -835h-121l290 835h121zM478 0l-24 134h-203l-26 -134h-225l209 717h280l212 -717h-223zM387 411q-5 24 -12 54t-13.5 62.5t-10.5 61.5q-6 -44 -16 -92.5t-18 -84.5l-28 -120h126z" />
    <glyph glyph-name="uni023B" unicode="&#x23b;" horiz-adv-x="644" 
d="M588 760l-290 -835h-121l290 835h121zM382 566q-32 0 -56.5 -14.5t-41 -42t-24.5 -66.5t-8 -89q0 -67 16.5 -113t49 -69.5t80.5 -23.5q44 0 83.5 13t76.5 32v-163q-44 -21 -93 -30.5t-100 -9.5q-113 0 -184 46t-104 128.5t-33 190.5q0 81 21.5 148.5t64 117t104 76.5
t141.5 27q48 0 107 -13t107 -37l-61 -152q-34 19 -68.5 31.5t-77.5 12.5z" />
    <glyph glyph-name="uni023C" unicode="&#x23c;" horiz-adv-x="532" 
d="M547 760l-345 -968h-122l346 968h121zM309 -10q-80 0 -141.5 30t-95.5 93t-34 161q0 101 37.5 164.5t102.5 94t146 30.5q44 0 89.5 -11t82.5 -31l-53 -139q-27 15 -50.5 23t-48.5 8q-27 0 -50 -15t-37 -45.5t-14 -77.5q0 -48 13.5 -77t37 -42.5t51.5 -13.5q32 0 68.5 13
t67.5 36v-152q-33 -22 -76 -35.5t-96 -13.5z" />
    <glyph glyph-name="uni023D" unicode="&#x23d;" horiz-adv-x="556" 
d="M11 280v152h396v-152h-396zM66 0v714h204v-558h250v-156h-454z" />
    <glyph glyph-name="uni023E" unicode="&#x23e;" horiz-adv-x="604" 
d="M625 760l-455 -835h-95l455 835h95zM383 0h-204v556h-153v158h510v-158h-153v-556z" />
    <glyph glyph-name="uni023F" unicode="&#x23f;" horiz-adv-x="520" 
d="M351 -240q-61 0 -97 20t-56 55t-35 79q-13 40 -32 64t-38 34q-6 3 -16 5.5t-15 4.5v152q54 -24 106.5 -34.5t77.5 -10.5t36.5 7t11.5 21q0 12 -11 21t-35 20t-64 30t-67.5 41.5t-41.5 54t-14 76.5q0 81 61 122t160 41q53 0 99.5 -12t96.5 -35l-52 -123q-26 13 -54.5 22
t-52 14t-35.5 5q-16 0 -25 -6t-9 -17q0 -10 8 -18t30.5 -18.5t64.5 -28.5q46 -19 74 -41.5t41 -54t13 -80.5q0 -48 -16.5 -86t-55.5 -62t-105 -30q5 -7 10 -15.5t10 -18.5q12 -23 21.5 -35.5t20.5 -17.5t26 -5q17 0 29 3.5t21 6.5v-137q-13 -4 -35 -8.5t-56 -4.5z" />
    <glyph glyph-name="uni0240" unicode="&#x240;" horiz-adv-x="477" 
d="M395 -240q-70 0 -110.5 22.5t-62.5 58t-35 74.5q-13 41 -32 63t-60 22h-78v114l197 293h-187v146h416v-127l-197 -296q31 -9 53 -30.5t36.5 -47t23.5 -46.5q16 -36 29.5 -55.5t26 -27t23.5 -7.5q16 0 28 1.5t27 5.5v-150q-19 -7 -46.5 -10t-51.5 -3z" />
    <glyph glyph-name="uni0241" unicode="&#x241;" horiz-adv-x="497" 
d="M230 725q77 0 132.5 -29.5t86 -78t30.5 -107.5q0 -38 -6.5 -72.5t-24 -66t-49.5 -60.5t-84 -57v-254h-210v335q58 21 91.5 44.5t49 47t19.5 43t4 32.5q0 28 -20.5 48t-40.5 20q-27 0 -55 -9.5t-50 -21t-33 -18.5l-73 138q55 30 112 48t121 18z" />
    <glyph glyph-name="uni0242" unicode="&#x242;" horiz-adv-x="513" 
d="M230 563q77 0 132 -29.5t84.5 -79t29.5 -109.5q0 -51 -12 -95.5t-47 -84t-103 -76.5v-89h-210v170q58 20 91 43.5t48 47t19 43.5t4 33q0 30 -20.5 50.5t-40.5 20.5q-28 0 -55 -9.5t-48 -21t-32 -18.5l-73 138q55 30 112 48t121 18z" />
    <glyph glyph-name="uni0243" unicode="&#x243;" horiz-adv-x="635" 
d="M66 0v176h-58v109h58v429h248q101 0 160 -20.5t84 -59t25 -94.5q0 -45 -18 -76.5t-43 -49.5t-46 -25v-5q24 -7 51.5 -25t47 -52.5t19.5 -93.5q0 -67 -31.5 -114.5t-90 -73t-139.5 -25.5h-267zM317 149q38 0 52.5 22t14.5 58q0 21 -6 39t-21 29.5t-43 11.5h-45v-24h75
v-109h-75v-27h48zM308 450q35 0 50.5 18t15.5 44t-16.5 41t-51.5 15h-37v-118h39z" />
    <glyph glyph-name="uni0244" unicode="&#x244;" horiz-adv-x="712" 
d="M-2 312v161h716v-161h-716zM650 284q0 -90 -33 -156t-98.5 -102t-164.5 -36q-142 0 -217 75.5t-75 214.5v434h205v-419q0 -76 23 -110t66 -34q32 0 52 15t29 47t9 83v418h204v-430z" />
    <glyph glyph-name="uni0245" unicode="&#x245;" horiz-adv-x="676" 
d="M462 714l214 -714h-238l-73 362q-4 21 -10.5 52.5t-11 63.5t-5.5 52q-1 -20 -5.5 -51t-9.5 -62.5t-10 -52.5l-77 -364h-236l216 714h246z" />
    <glyph glyph-name="uni0246" unicode="&#x246;" horiz-adv-x="564" 
d="M501 760l-214 -835h-122l213 835h123zM471 0h-405v714h405v-155h-201v-112h186v-155h-186v-135h201v-157z" />
    <glyph glyph-name="uni0247" unicode="&#x247;" horiz-adv-x="610" 
d="M536 760l-334 -967h-124l334 967h124zM303 563q78 0 135 -28t87.5 -84t30.5 -141v-85h-314q2 -43 27.5 -71t77.5 -28q49 0 89.5 10t83.5 32v-137q-37 -21 -83.5 -31t-119.5 -10q-79 0 -142 29.5t-100 92.5t-37 161q0 100 33.5 164t93 95t138.5 31zM312 433
q-26 0 -44.5 -21t-21.5 -67h130q0 25 -8 44.5t-22 31.5t-34 12z" />
    <glyph glyph-name="uni0248" unicode="&#x248;" horiz-adv-x="367" 
d="M35 -224q-32 0 -55 3.5t-39 7.5v163q13 -4 28.5 -7t36.5 -3q17 0 33.5 8t27.5 35t11 84v214h-85v162h85v271h208v-271h84v-162h-84v-214q0 -106 -33.5 -170t-90 -92.5t-127.5 -28.5z" />
    <glyph glyph-name="uni0249" unicode="&#x249;" horiz-adv-x="340" 
d="M43 -240q-28 0 -61 3.5t-52 8.5v151q17 -4 32 -6.5t38 -2.5q16 0 31 6t25 23.5t10 52.5v225h-71v123h71v209h207v-209h70v-123h-70v-260q0 -53 -21 -99t-71.5 -74t-137.5 -28zM61 691q0 50 33 67.5t77 17.5q29 0 53.5 -7t39.5 -25.5t15 -52.5q0 -33 -15 -51.5t-39.5 -26
t-53.5 -7.5q-44 0 -77 18t-33 67z" />
    <glyph glyph-name="uni024A" unicode="&#x24a;" horiz-adv-x="748" 
d="M291 725q42 0 74 -10.5t56.5 -27.5t41.5 -39h4l14 66h199v-758q0 -22 11.5 -33t21.5 -11q20 0 34.5 4.5t21.5 6.5v-146q-13 -6 -40.5 -11.5t-54.5 -5.5q-92 0 -147.5 44.5t-55.5 150.5v-12v46t-0.5 41t-0.5 49h-8q-20 -27 -44.5 -47t-55.5 -31t-71 -11q-61 0 -116 39.5
t-90 121t-35 206.5q0 94 21 163.5t56 115t77.5 67.5t86.5 22zM356 561q-21 0 -41 -23.5t-32.5 -69.5t-12.5 -114q0 -70 12.5 -114.5t33.5 -65t46 -20.5q37 0 61 31.5t36 81.5t12 103v6q0 26 -3.5 57.5t-15 60.5t-34.5 48t-62 19z" />
    <glyph glyph-name="uni024B" unicode="&#x24b;" horiz-adv-x="620" 
d="M221 563q59 0 90 -24t49 -54h4l15 68h175v-602q0 -16 8 -27t22 -11q17 0 27.5 3l24.5 7v-145q-18 -10 -47.5 -14t-60.5 -4q-71 0 -110.5 24.5t-55 67.5t-15.5 97v29q0 23 2 45.5t5 42.5h-7q-14 -28 -43.5 -52t-85.5 -24q-79 0 -132 72.5t-53 214.5q0 98 26.5 161t69.5 94
t92 31zM295 407q-28 0 -40 -34t-12 -98q0 -68 13 -101.5t45 -33.5q20 0 33.5 11.5t21 35.5t7.5 61v23q0 66 -15 101t-53 35z" />
    <glyph glyph-name="uni024C" unicode="&#x24c;" horiz-adv-x="645" 
d="M117 257h-107v159h107v-159zM300 714q91 0 152.5 -24t92.5 -70.5t31 -116.5q0 -43 -11.5 -79t-35 -64t-60.5 -49l194 -311h-232l-132 260h-29v-260h-204v714h234zM301 568h-31v-163h27q17 0 34 8.5t28.5 28t11.5 52.5q0 23 -7 39.5t-22 25.5t-41 9z" />
    <glyph glyph-name="uni024D" unicode="&#x24d;" horiz-adv-x="449" 
d="M362 328v-123h-368v123h368zM385 563q17 0 34.5 -2t24.5 -4l-19 -180q-10 2 -24.5 4t-47.5 2q-11 0 -27 -3.5t-31.5 -14.5t-26 -33t-10.5 -60v-272h-202v553h149l32 -88h10q14 27 36 49.5t48.5 35.5t53.5 13z" />
    <glyph glyph-name="uni024E" unicode="&#x24e;" horiz-adv-x="645" 
d="M650 638v-124h-655v124h655zM323 449l102 265h220l-220 -435v-279h-205v273l-220 441h222z" />
    <glyph glyph-name="uni024F" unicode="&#x24f;" horiz-adv-x="595" 
d="M582 402v-124h-569v124h569zM-1 553h209l81 -317q2 -7 3.5 -17t2 -21t0.5 -22h5q2 18 3 34t4 26l86 317h203l-203 -587q-23 -68 -54 -114t-80.5 -69t-128.5 -23q-25 0 -42.5 2.5t-31.5 5.5v150q10 -2 24.5 -4t30.5 -2q30 0 47.5 11t27 30.5t15.5 42.5l3 12z" />
    <glyph glyph-name="uni0250" unicode="&#x250;" horiz-adv-x="596" 
d="M262 -10q-97 0 -152.5 52t-55.5 148v363h139l39 -73h4q22 29 45 47.5t53 27t74 8.5t80 -19.5t56.5 -59t20.5 -100.5q0 -89 -58 -132.5t-165 -47.5l-85 -3v-8q0 -37 14.5 -52.5t38.5 -15.5q28 0 67 11.5t78 29.5l55 -126q-48 -25 -108.5 -37.5t-139.5 -12.5zM289 308
q39 2 55.5 18.5t16.5 46.5q0 28 -12 41.5t-31 13.5q-25 0 -44 -22t-19 -57v-43z" />
    <glyph glyph-name="uni0251" unicode="&#x251;" horiz-adv-x="643" 
d="M232 -10q-60 0 -103.5 32t-67 96t-23.5 158q0 142 53 214.5t141 72.5q51 0 77 -20.5t46 -48.5h5l30 59h164v-354q0 -35 11 -47t26 -12q6 0 14.5 2t12.5 3v-142q-4 -3 -18.5 -6t-31 -5t-26.5 -2q-62 0 -98 16.5t-61 59.5h-3q-22 -31 -57.5 -53.5t-90.5 -22.5zM310 140
q15 0 28.5 14t22 41.5t8.5 68.5v23q0 62 -16.5 92t-40.5 30q-34 0 -52 -33t-18 -101q0 -71 18 -103t50 -32z" />
    <glyph glyph-name="uni0252" unicode="&#x252;" horiz-adv-x="643" 
d="M411 563q60 0 103.5 -32t67 -96t23.5 -158q0 -142 -53 -214.5t-141 -72.5q-51 0 -77 20.5t-46 48.5h-5l-30 -59h-164v354q0 35 -11 47t-26 12q-6 0 -14.5 -2t-12.5 -3v142q4 3 18.5 6t31 5t26.5 2q62 0 98 -16.5t61 -59.5h3q22 31 57.5 53.5t90.5 22.5zM333 413
q-15 0 -28.5 -14t-22 -41.5t-8.5 -68.5v-23q0 -62 16.5 -92t40.5 -30q34 0 52 33t18 101q0 71 -18 103t-50 32z" />
    <glyph glyph-name="uni0253" unicode="&#x253;" horiz-adv-x="620" 
d="M258 767q33 0 59.5 -7t36.5 -12v-145q-6 3 -22.5 7t-36.5 4q-11 0 -17 -8t-6 -25v9q0 -29 -2.5 -55t-4.5 -48h7q15 28 46 52t87 24q49 0 90 -32.5t66.5 -95.5t25.5 -157q0 -99 -26 -163t-69 -94.5t-93 -30.5q-39 0 -62.5 9.5t-38 24t-26.5 27.5h-12l-31 -51h-163v586
q0 67 25 106.5t68.5 57t98.5 17.5zM329 410q-17 0 -29 -12t-19 -38t-9 -69q0 -72 12.5 -108.5t47.5 -36.5q16 0 30 34t14 100q0 65 -14.5 97.5t-32.5 32.5z" />
    <glyph glyph-name="uni0254" unicode="&#x254;" horiz-adv-x="509" 
d="M221 563q76 0 133 -28.5t88.5 -91t31.5 -164.5q0 -99 -32.5 -163t-91 -95t-136.5 -31q-51 0 -92.5 8.5t-79.5 29.5v164q30 -22 59.5 -34t67.5 -12q25 0 47 13.5t35.5 42.5t13.5 77q0 68 -27.5 99t-64.5 31q-25 0 -47.5 -8.5t-43.5 -24.5l-55 136q32 19 79.5 35t114.5 16z
" />
    <glyph glyph-name="uni0255" unicode="&#x255;" horiz-adv-x="544" 
d="M317 563q71 0 114 -14t72 -29l-52 -144q-31 15 -58 24t-62 9q-27 0 -46.5 -13.5t-30.5 -40.5t-11 -66q0 -7 0.5 -16t0.5 -15q9 16 43 32t89 16q80 0 113 -38.5t33 -100.5q0 -59 -27 -98.5t-75 -59t-112 -19.5q-52 0 -86 12t-57 27q-10 -19 -19.5 -41t-17.5 -46l-92 41
q12 32 23 57t23 50q-20 36 -34.5 79.5t-14.5 104.5q0 98 36.5 162t101 95.5t146.5 31.5zM337 206q-28 0 -47 -14t-25 -28q11 -18 24 -28.5t38 -10.5q12 0 25 4.5t22 13.5t9 23q0 20 -14 30t-32 10z" />
    <glyph glyph-name="uni0256" unicode="&#x256;" horiz-adv-x="621" 
d="M529 -240q-70 0 -109.5 24t-55.5 67t-16 98v12q0 30 1.5 57t4.5 48h-6q-10 -19 -26.5 -36.5t-42.5 -28.5t-65 -11q-49 0 -89 32.5t-63.5 97t-23.5 158.5q0 95 24.5 158t66 95t92.5 32q40 0 65 -12t39.5 -30t23.5 -37h6q-2 17 -3.5 36t-2 39.5t-0.5 42.5v158h205v-799
q0 -23 7.5 -35.5t21.5 -12.5q15 0 27 2.5t27 6.5v-142q-18 -7 -46 -13.5t-62 -6.5zM307 141q28 0 44.5 30t16.5 91v18q0 65 -13.5 96.5t-45.5 31.5q-33 0 -50 -34.5t-17 -98.5q0 -70 19 -102t46 -32z" />
    <glyph glyph-name="uni0257" unicode="&#x257;" horiz-adv-x="620" 
d="M217 -10q-77 0 -128 73t-51 213q0 142 52.5 214.5t134.5 72.5q34 0 58 -10.5t41 -28.5t30 -41h3q-4 24 -5 49t-1 50v16q0 60 24.5 98t64 56t84.5 18t80.5 -4.5t51.5 -9.5v-145q-9 3 -26.5 6t-37.5 3q-19 0 -28.5 -13t-9.5 -37v-570h-151l-45 70h-7q-12 -22 -30 -40
t-43.5 -29t-60.5 -11zM304 141q35 0 50 29t15 89v15q0 65 -14 100t-53 35q-25 0 -42.5 -33t-17.5 -103q0 -69 18 -100.5t44 -31.5z" />
    <glyph glyph-name="uni0258" unicode="&#x258;" horiz-adv-x="595" 
d="M292 563q-78 0 -135 -28t-87.5 -84t-30.5 -141v-85h314q-2 -43 -27.5 -71t-77.5 -28q-49 0 -89.5 10t-83.5 32v-137q37 -21 83.5 -31t119.5 -10q79 0 142 29.5t100 92.5t37 161q0 100 -33.5 164t-93 95t-138.5 31zM283 433q26 0 44.5 -21t21.5 -67h-130q0 25 8 44.5
t22 31.5t34 12z" />
    <glyph glyph-name="uni0259" unicode="&#x259;" horiz-adv-x="595" 
d="M278 563q80 0 143 -29.5t99.5 -92t36.5 -161.5t-33 -163.5t-92.5 -95.5t-138.5 -31q-78 0 -135 28t-88 84.5t-31 140.5v85h315q-2 44 -27.5 71.5t-78.5 27.5q-48 0 -88.5 -10t-84.5 -32v137q38 17 84 29t119 12zM219 208q1 -24 8.5 -44t22 -32t33.5 -12q26 0 44.5 21
t21.5 67h-130z" />
    <glyph glyph-name="uni025A" unicode="&#x25a;" horiz-adv-x="835" 
d="M285 -10q-130 0 -190 68t-60 190l328 94q-9 31 -26 48t-39 24.5t-48 7.5q-55 0 -104.5 -15t-75.5 -32v146q14 8 47.5 18t79 17t94.5 7q93 0 161.5 -40.5t99.5 -131.5l139 40l13 -54q11 -47 23 -68.5t33 -21.5q14 0 24.5 6t22.5 16l28 -96q-9 -13 -33 -25.5t-56 -12.5
q-37 0 -63 11t-44 36t-31 67l-39 -13q-5 -94 -46 -157.5t-103.5 -96t-134.5 -32.5zM297 124q15 0 29.5 6.5t26 20t18.5 33.5t7 48l-153 -48q4 -15 13.5 -28.5t24 -22.5t34.5 -9z" />
    <glyph glyph-name="uni025B" unicode="&#x25b;" horiz-adv-x="519" 
d="M386 349v-124h-62q-44 0 -64.5 -5.5t-26 -15.5t-5.5 -25q0 -9 2.5 -20t19 -19t57.5 -8q59 0 104 13.5t77 29.5v-146q-27 -12 -56 -21t-67 -13.5t-93 -4.5q-91 0 -145.5 19.5t-78 57t-23.5 90.5q0 48 30 84.5t95 45.5v5q-38 12 -65 44t-27 77q0 55 31.5 87.5t84.5 47.5
t118 15q41 0 72.5 -4.5t61 -14t62.5 -23.5l-55 -129q-37 17 -68 26t-63 9q-28 0 -39 -10t-11 -27q0 -21 18 -31t68 -10h48z" />
    <glyph glyph-name="uni025C" unicode="&#x25c;" horiz-adv-x="505" 
d="M213 563q69 0 123.5 -15t86 -47.5t31.5 -87.5q0 -45 -24.5 -77t-64.5 -44v-5q47 -6 71.5 -24.5t34 -46t9.5 -59.5q0 -53 -28 -90.5t-86.5 -57t-150.5 -19.5q-45 0 -76 4t-56 11t-52 16v146q31 -11 74.5 -23t104.5 -12q36 0 51 14t15 33q0 21 -15.5 33.5t-59.5 12.5h-75
v124h59q47 0 61 10t14 31q0 17 -11.5 27t-37.5 10q-37 0 -64 -9t-62 -26l-56 129q48 21 90.5 31.5t93.5 10.5z" />
    <glyph glyph-name="uni025D" unicode="&#x25d;" horiz-adv-x="734" 
d="M626 249q-37 0 -64 12t-45 36.5t-30 62.5l-103 -31l-31 110l216 63l12 -45q12 -47 20.5 -67.5t33.5 -20.5q20 0 31.5 7.5t21.5 17.5l46 -102q-22 -19 -47 -31t-61 -12zM213 563q69 0 123.5 -15t86 -47.5t31.5 -87.5q0 -45 -24.5 -77t-64.5 -44v-5q47 -6 71.5 -24.5
t34 -46t9.5 -59.5q0 -53 -28 -90.5t-86.5 -57t-150.5 -19.5q-45 0 -76 4t-56 11t-52 16v146q31 -11 74.5 -23t104.5 -12q36 0 51 14t15 33q0 21 -15.5 33.5t-59.5 12.5h-75v124h59q47 0 61 10t14 31q0 17 -11.5 27t-37.5 10q-37 0 -64 -9t-62 -26l-56 129q48 21 90.5 31.5
t93.5 10.5z" />
    </font>
</defs>
</svg>
