<svg width="16" height="17" viewBox="0 0 16 17" fill="none" xmlns="http://www.w3.org/2000/svg">
<path d="M10.8109 12.2098L11.6891 11.3316L8.54163 8.184V4.27073H7.29167V8.69061L10.8109 12.2098ZM7.91804 16.354C6.8231 16.354 5.7939 16.1463 4.83046 15.7307C3.867 15.3152 3.02893 14.7512 2.31625 14.0388C1.60356 13.3265 1.03934 12.4888 0.623604 11.5257C0.207868 10.5627 0 9.53374 0 8.43879C0 7.34385 0.207778 6.31466 0.623334 5.35121C1.03889 4.38775 1.60285 3.54968 2.31521 2.837C3.02758 2.12431 3.86529 1.56009 4.82831 1.14436C5.79133 0.728621 6.82031 0.520752 7.91525 0.520752C9.0102 0.520752 10.0394 0.728531 11.0028 1.14409C11.9663 1.55964 12.8044 2.1236 13.517 2.83596C14.2297 3.54834 14.794 4.38604 15.2097 5.34907C15.6254 6.31208 15.8333 7.34106 15.8333 8.436C15.8333 9.53095 15.6255 10.5601 15.21 11.5236C14.7944 12.487 14.2304 13.3251 13.5181 14.0378C12.8057 14.7505 11.968 15.3147 11.005 15.7304C10.042 16.1462 9.01299 16.354 7.91804 16.354ZM7.91665 15.1041C9.76387 15.1041 11.3368 14.4548 12.6354 13.1561C13.934 11.8575 14.5833 10.2846 14.5833 8.4374C14.5833 6.59018 13.934 5.01726 12.6354 3.71865C11.3368 2.42004 9.76387 1.77073 7.91665 1.77073C6.06942 1.77073 4.49651 2.42004 3.1979 3.71865C1.89928 5.01726 1.24998 6.59018 1.24998 8.4374C1.24998 10.2846 1.89928 11.8575 3.1979 13.1561C4.49651 14.4548 6.06942 15.1041 7.91665 15.1041Z" fill="#4E4E4E"/>
</svg>
