<svg width="16" height="23" viewBox="0 0 16 23" fill="none" xmlns="http://www.w3.org/2000/svg">
<path d="M7.54975 13.3654C8.04733 13.3654 8.47272 13.1882 8.82592 12.8339C9.17912 12.4795 9.35573 12.0536 9.35573 11.556C9.35573 11.0584 9.17856 10.633 8.82423 10.2798C8.46989 9.9266 8.04393 9.75 7.54635 9.75C7.04877 9.75 6.62338 9.92717 6.27018 10.2815C5.91698 10.6358 5.74038 11.0618 5.74038 11.5594C5.74038 12.057 5.91754 12.4824 6.27187 12.8356C6.62621 13.1888 7.05217 13.3654 7.54975 13.3654ZM7.54805 21.0135C9.50445 19.2622 11.0016 17.5824 12.0394 15.974C13.0772 14.3657 13.5961 12.957 13.5961 11.7481C13.5961 9.92498 13.017 8.42627 11.8586 7.2519C10.7003 6.07753 9.26343 5.49035 7.54805 5.49035C5.83267 5.49035 4.39581 6.07753 3.23747 7.2519C2.07914 8.42627 1.49997 9.92498 1.49997 11.7481C1.49997 12.957 2.01888 14.3657 3.0567 15.974C4.09453 17.5824 5.59165 19.2622 7.54805 21.0135ZM7.54805 23.0096C5.0314 20.8288 3.14423 18.7993 1.88653 16.9211C0.628842 15.0429 0 13.3186 0 11.7481C0 9.44038 0.746475 7.57213 2.23942 6.14328C3.73236 4.71443 5.5019 4 7.54805 4C9.5942 4 11.3637 4.71443 12.8567 6.14328C14.3496 7.57213 15.0961 9.44038 15.0961 11.7481C15.0961 13.3186 14.4673 15.0429 13.2096 16.9211C11.9519 18.7993 10.0647 20.8288 7.54805 23.0096Z" fill="#4E4E4E"/>
</svg>
